<?xml version="1.0" standalone="no"?>
<!DOCTYPE svg PUBLIC "-//W3C//DTD SVG 1.1//EN" "http://www.w3.org/Graphics/SVG/1.1/DTD/svg11.dtd" >
<svg xmlns="http://www.w3.org/2000/svg" xmlns:xlink="http://www.w3.org/1999/xlink" version="1.1">
<metadata>
Created by FontForge 20170731 at Mon Aug 27 17:56:09 2018
 By Aleksey,,,
Copyright (c) 2018 by Typotheque type foundry. All rights reserved. |DCNT
</metadata>
<defs>
<font id="WilliamTextPro-Regular" horiz-adv-x="721" >
  <font-face 
    font-family="William Text Pro"
    font-weight="400"
    font-stretch="normal"
    units-per-em="1000"
    panose-1="0 0 0 0 0 0 0 0 0 0"
    ascent="745"
    descent="-255"
    x-height="516"
    cap-height="700"
    bbox="-422 -292 1282.54 1110"
    underline-thickness="50"
    underline-position="-200"
    unicode-range="U+000D-FB02"
  />
<missing-glyph horiz-adv-x="712" 
d="M80 0v27h27v-27h-27zM80 75v27h27v-27h-27zM80 150v27h27v-27h-27zM80 225v27h27v-27h-27zM80 300v27h27v-27h-27zM80 375v27h27v-27h-27zM80 450v27h27v-27h-27zM80 525v27h27v-27h-27zM80 600v27h27v-27h-27zM80 675v27h27v-27h-27zM155 0v27h27v-27h-27zM155 675v27
h27v-27h-27zM230 0v27h27v-27h-27zM230 525v27h27v-27h-27zM230 675v27h27v-27h-27zM305 0v27h27v-27h-27zM305 150v27h27v-27h-27zM305 300v27h27v-27h-27zM305 375v27h27v-27h-27zM305 525v27h27v-27h-27zM305 675v27h27v-27h-27zM380 0v27h27v-27h-27zM380 375v27h27v-27
h-27zM380 525v27h27v-27h-27zM380 675v27h27v-27h-27zM455 0v27h27v-27h-27zM455 375v27h27v-27h-27zM455 450v27h27v-27h-27zM455 525v27h27v-27h-27zM455 675v27h27v-27h-27zM530 0v27h27v-27h-27zM530 675v27h27v-27h-27zM605 0v27h27v-27h-27zM605 75v27h27v-27h-27z
M605 150v27h27v-27h-27zM605 225v27h27v-27h-27zM605 300v27h27v-27h-27zM605 375v27h27v-27h-27zM605 450v27h27v-27h-27zM605 525v27h27v-27h-27zM605 600v27h27v-27h-27zM605 675v27h27v-27h-27z" />
    <glyph glyph-name=".notdef" horiz-adv-x="712" 
d="M80 0v27h27v-27h-27zM80 75v27h27v-27h-27zM80 150v27h27v-27h-27zM80 225v27h27v-27h-27zM80 300v27h27v-27h-27zM80 375v27h27v-27h-27zM80 450v27h27v-27h-27zM80 525v27h27v-27h-27zM80 600v27h27v-27h-27zM80 675v27h27v-27h-27zM155 0v27h27v-27h-27zM155 675v27
h27v-27h-27zM230 0v27h27v-27h-27zM230 525v27h27v-27h-27zM230 675v27h27v-27h-27zM305 0v27h27v-27h-27zM305 150v27h27v-27h-27zM305 300v27h27v-27h-27zM305 375v27h27v-27h-27zM305 525v27h27v-27h-27zM305 675v27h27v-27h-27zM380 0v27h27v-27h-27zM380 375v27h27v-27
h-27zM380 525v27h27v-27h-27zM380 675v27h27v-27h-27zM455 0v27h27v-27h-27zM455 375v27h27v-27h-27zM455 450v27h27v-27h-27zM455 525v27h27v-27h-27zM455 675v27h27v-27h-27zM530 0v27h27v-27h-27zM530 675v27h27v-27h-27zM605 0v27h27v-27h-27zM605 75v27h27v-27h-27z
M605 150v27h27v-27h-27zM605 225v27h27v-27h-27zM605 300v27h27v-27h-27zM605 375v27h27v-27h-27zM605 450v27h27v-27h-27zM605 525v27h27v-27h-27zM605 600v27h27v-27h-27zM605 675v27h27v-27h-27z" />
    <glyph glyph-name=".null" horiz-adv-x="0" 
 />
    <glyph glyph-name="nonmarkingreturn" horiz-adv-x="333" 
 />
    <glyph glyph-name="CR" unicode="&#xd;" horiz-adv-x="250" 
 />
    <glyph glyph-name="space" unicode=" " horiz-adv-x="250" 
 />
    <glyph glyph-name="exclam" unicode="!" horiz-adv-x="303" 
d="M136 211v63q0 78 -23 204.5t-23 177.5q0 33 17.5 51t47.5 18t47.5 -18t17.5 -51q0 -51 -23 -177.5t-23 -204.5v-63q0 -10 -3 -13t-12 -3h-8q-9 0 -12 3t-3 13zM155 -8q-28 0 -47 19t-19 47q0 29 19 48t47 19q29 0 48 -19t19 -48q0 -28 -19 -47t-48 -19z" />
    <glyph glyph-name="quotedbl" unicode="&#x22;" horiz-adv-x="444" 
d="M141 459h-8q-8 0 -11 2.5t-5 12.5l-29 208q-3 18 -3 29q0 22 15.5 35.5t38.5 13.5t36.5 -13t13.5 -36q0 -11 -3 -29l-29 -208q-2 -10 -5 -12.5t-11 -2.5zM311 459h-8q-8 0 -11 2.5t-5 12.5l-29 208q-3 18 -3 29q0 22 15.5 35.5t38.5 13.5t36.5 -13t13.5 -36q0 -11 -3 -29
l-29 -208q-2 -10 -5 -12.5t-11 -2.5z" />
    <glyph glyph-name="numbersign" unicode="#" horiz-adv-x="687" 
d="M217 100l-44 -197q-2 -12 -6 -15.5t-15 -3.5h-24q-17 0 -13 19l44 197h-105q-18 0 -13 18l7 29q3 17 20 17h105l43 191h-105q-17 0 -13 18l7 29q2 11 6 14t14 3h105l43 192q2 11 6 15t14 4h26q10 0 12 -4t0 -15l-43 -192h181l43 192q2 11 6 15t14 4h26q10 0 12 -4t0 -15
l-43 -192h105q16 0 12 -18l-7 -29q-2 -11 -6 -14t-14 -3h-104l-43 -191h105q17 0 12 -18l-7 -29q-2 -11 -6 -14t-14 -3h-104l-43 -197q-2 -12 -6 -15.5t-15 -3.5h-24q-17 0 -13 19l43 197h-181zM274 355l-43 -191h181l43 191h-181z" />
    <glyph glyph-name="dollar" unicode="$" horiz-adv-x="620" 
d="M343 612l-1 -57q59 -5 104 -27q13 -5 15 -5q5 0 8 7l4 12q1 7 10 7h15q9 0 9 -10l3 -124q0 -9 -2 -11.5t-10 -2.5h-18q-12 0 -13 10q-25 91 -126 103l-3 -188q96 -31 138.5 -70t42.5 -102q0 -72 -50 -116t-135 -46l-1 -63q0 -12 -10 -12h-23q-10 0 -10 12l1 65
q-69 7 -115 31q-12 6 -17 6q-6 0 -9 -8l-4 -14q-3 -9 -11 -9h-19q-10 0 -10 11l-1 145q0 13 12 13h20q11 0 12 -10q11 -51 50.5 -82.5t91.5 -40.5l3 194q-1 0 -2 1q-86 25 -130.5 66t-44.5 107q0 68 51.5 108.5t131.5 44.5l1 55q0 8 1.5 9.5t7.5 1.5h24q6 0 7.5 -1.5
t1.5 -9.5zM441 122q0 37 -25.5 57.5t-78.5 37.5l-3 -184q52 2 79.5 26t27.5 63zM195 439q0 -35 23.5 -56t77.5 -43l3 176q-45 -2 -74.5 -22.5t-29.5 -54.5z" />
    <glyph glyph-name="percent" unicode="%" horiz-adv-x="734" 
d="M194 289q-62 0 -100.5 41.5t-38.5 108.5q0 61 39 102t101 41t99.5 -40t37.5 -101q0 -63 -37.5 -107.5t-100.5 -44.5zM194 324q32 0 48 31.5t16 84.5q0 107 -65 107q-31 0 -47 -31t-16 -77q0 -52 16 -83.5t48 -31.5zM546 -26q-62 0 -100.5 41.5t-38.5 108.5q0 61 39 102
t101 41t99.5 -40t37.5 -101q0 -63 -37.5 -107.5t-100.5 -44.5zM546 11q64 0 64 114q0 107 -65 107q-30 0 -46.5 -29.5t-16.5 -78.5q0 -113 64 -113zM592 529l-404 -530q-11 -15 -27 -3l-12 9q-14 11 -3 25l404 531q11 13 26 3l13 -10q13 -10 3 -25z" />
    <glyph glyph-name="ampersand" unicode="&#x26;" horiz-adv-x="874" 
d="M59 157q0 143 159 221q-49 45 -71 83t-22 89q0 71 55.5 117.5t134.5 46.5q75 0 122.5 -37.5t47.5 -97.5q0 -110 -150 -182q127 -120 198 -204l6 -7q50 66 82 144q18 45 3 64t-66 19q-9 0 -12 3t-3 14v12q0 14 13 14h239q11 0 14 -3.5t3 -12.5v-11q0 -16 -14 -16
q-45 0 -72.5 -21.5t-53.5 -74.5q-47 -95 -101 -166q81 -81 148 -81q69 0 117 75q7 12 22 5l7 -3q15 -7 5 -23q-32 -63 -74 -100.5t-108 -37.5q-51 0 -91.5 24t-87.5 71q-105 -95 -233 -95q-93 0 -155 44t-62 127zM313 56q83 0 161 63l-12 14q-7 8 -61.5 66t-89 93t-63.5 60
q-92 -66 -92 -164q0 -57 44 -94.5t113 -37.5zM216 578q0 -43 21 -77.5t70 -78.5q87 62 87 154q0 45 -21 72t-63 27q-44 0 -69 -26t-25 -71z" />
    <glyph glyph-name="quotesingle" unicode="'" horiz-adv-x="276" 
d="M142 459h-8q-8 0 -11 2.5t-5 12.5l-30 208q-3 18 -3 29q0 22 16 35.5t39 13.5t37 -13t14 -36q0 -11 -3 -29l-30 -208q-2 -10 -5 -12.5t-11 -2.5z" />
    <glyph glyph-name="parenleft" unicode="(" horiz-adv-x="428" 
d="M90 244q0 154 72 284.5t202 227.5q12 8 19 -2l12 -15q8 -11 -1 -18q-108 -99 -164.5 -210.5t-56.5 -266.5q0 -144 56.5 -276t165.5 -215q10 -9 1 -19l-11 -15q-8 -11 -19 -3q-276 192 -276 528z" />
    <glyph glyph-name="parenright" unicode=")" horiz-adv-x="427" 
d="M337 244q0 -336 -275 -528q-12 -9 -20 2l-11 15q-9 12 3 21q108 83 164 214.5t56 275.5q0 155 -56.5 266.5t-164.5 210.5q-9 7 -1 18l12 15q7 10 19 2q130 -97 202 -227.5t72 -284.5z" />
    <glyph glyph-name="asterisk" unicode="*" horiz-adv-x="413" 
d="M203 586l-98 -44q-32 -14 -44 -14q-15 0 -25 12t-10 27q0 37 41 37h30l100 2l-81 91q-18 21 -18 35q0 16 12.5 27t27.5 11q28 0 38 -34l41 -121l64 107q16 28 38 28q15 0 26.5 -11.5t11.5 -26.5q0 -19 -24 -37l-99 -72l118 -29q41 -11 41 -38q0 -15 -10.5 -27.5
t-26.5 -12.5q-15 0 -39 19l-93 71l12 -118q2 -16 2 -22q0 -17 -11 -28t-27 -11q-37 0 -37 37q0 8 6 30z" />
    <glyph glyph-name="plus" unicode="+" horiz-adv-x="620" 
d="M525 283h-184v-187q0 -12 -2.5 -15t-13.5 -3h-30q-11 0 -13.5 3.5t-2.5 15.5v186h-184q-12 0 -15 2t-3 13v31q0 11 3.5 13.5t15.5 2.5h183v181q0 12 2.5 15.5t13.5 3.5h30q11 0 13.5 -3t2.5 -15v-182h184q12 0 15 -2.5t3 -13.5v-31q0 -10 -3.5 -12.5t-14.5 -2.5z" />
    <glyph glyph-name="comma" unicode="," horiz-adv-x="260" 
d="M113 -72q31 40 40 74q-16 -6 -28 -6q-28 0 -46 16.5t-18 45.5q0 32 19 50.5t49 18.5q36 0 56 -26t20 -67q0 -83 -60 -140q-34 -33 -81 -53q-10 -4 -16 5l-5 8q-6 10 4 17q42 28 66 57z" />
    <glyph glyph-name="hyphen" unicode="-" horiz-adv-x="401" 
d="M346 250h-291q-9 0 -12 3t-3 13v30q0 10 3 13t12 3h291q9 0 12 -3t3 -13v-30q0 -10 -3 -13t-12 -3z" />
    <glyph glyph-name="hyphen" unicode="&#xad;" horiz-adv-x="401" 
d="M346 250h-291q-9 0 -12 3t-3 13v30q0 10 3 13t12 3h291q9 0 12 -3t3 -13v-30q0 -10 -3 -13t-12 -3z" />
    <glyph glyph-name="period" unicode="." horiz-adv-x="260" 
d="M130 -8q-29 0 -49.5 20t-20.5 49q0 30 20.5 50.5t49.5 20.5q30 0 50 -20.5t20 -50.5q0 -29 -20 -49t-50 -20z" />
    <glyph glyph-name="slash" unicode="/" horiz-adv-x="511" 
d="M457 758l20 -8q12 -5 6 -20l-406 -1006q-6 -15 -21 -9l-18 7q-9 4 -10.5 8t2.5 13l406 1006q6 14 21 9z" />
    <glyph glyph-name="zero" unicode="0" horiz-adv-x="620" 
d="M305 -11q-118 0 -181.5 80t-63.5 201q0 122 68 204.5t187 82.5q122 0 183.5 -79t61.5 -198q0 -125 -64 -208t-191 -83zM316 33q38 0 65.5 20.5t42 55.5t20.5 73t6 83q0 249 -140 249q-51 0 -84 -36t-44.5 -83.5t-11.5 -105.5q0 -51 7.5 -94.5t23.5 -81t45.5 -59
t69.5 -21.5z" />
    <glyph glyph-name="one" unicode="1" horiz-adv-x="435" 
d="M170 115v316q0 36 -13 52.5t-45 18.5l-28 1q-15 0 -15 18v11q0 8 2.5 11t11.5 3h270q11 0 14 -3.5t3 -12.5v-10q0 -17 -14 -17l-28 -1q-33 -2 -48 -18.5t-15 -52.5v-316q0 -36 13 -52.5t45 -18.5l28 -1q15 0 15 -18v-11q0 -8 -2.5 -11t-11.5 -3h-270q-11 0 -14 3.5
t-3 12.5v10q0 17 14 17l28 1q33 2 48 18.5t15 52.5z" />
    <glyph glyph-name="two" unicode="2" horiz-adv-x="549" 
d="M166 90h234q34 0 46.5 7t19.5 30l6 21q4 13 16 13h14q10 0 9 -13l-32 -198q-1 -12 -12 -12h-20q-11 0 -10 13l1 10q2 15 0 22.5t-10 12t-26 4.5h-321q-19 0 -19 16v9q0 17 15 30q135 123 198 204q51 65 51 131q0 42 -25 68t-69 26q-85 0 -133 -97q-5 -12 -17 -7l-14 5
q-12 5 -6 18q30 73 84 113.5t127 40.5q72 0 119 -40t47 -103q0 -54 -27.5 -96.5t-77.5 -85.5q-85 -73 -168 -142z" />
    <glyph glyph-name="three" unicode="3" horiz-adv-x="526" 
d="M209 -191q-71 0 -127.5 26t-56.5 77q0 23 16.5 39t39.5 16q24 0 34.5 -10.5t20.5 -34.5q15 -40 33.5 -55t59.5 -15q52 0 83 37t31 90q0 138 -154 192q-8 2 -10.5 5t-2.5 11v6q0 11 12 18q62 33 99 84t37 104q0 41 -20 65.5t-58 24.5q-81 0 -130 -101q-4 -9 -18 -4l-11 4
q-13 4 -7 18q59 151 204 151q70 0 109 -35.5t39 -93.5q0 -97 -134 -188q71 -27 110.5 -83t39.5 -125q0 -93 -69 -158t-170 -65z" />
    <glyph glyph-name="four" unicode="4" horiz-adv-x="598" 
d="M419 -180h-51q-11 0 -15 4t-4 15v161h-299q-16 0 -16 14v4q0 16 13 34l328 480q11 14 22 14h25q10 0 13 -3t3 -14v-444h107q11 0 15 -3.5t4 -14.5v-48q0 -11 -4 -15t-15 -4h-107v-161q0 -11 -4 -15t-15 -4zM128 85h221v323z" />
    <glyph glyph-name="five" unicode="5" horiz-adv-x="523" 
d="M185 -191q-71 0 -125.5 27t-54.5 77q0 24 16.5 39t41.5 15q22 0 33.5 -11.5t20.5 -35.5q14 -39 33.5 -53.5t57.5 -14.5q57 0 92.5 44t35.5 109q0 74 -53 123t-154 65q-16 2 -21 8t-1 22l66 298q3 15 9.5 20t21.5 5h183q26 0 36.5 7.5t16.5 27.5l5 15q4 10 14 10h15
q11 0 8 -13l-25 -113q-4 -18 -11 -24t-27 -6h-214l-35 -159q125 -14 193 -74.5t68 -156.5q0 -110 -66 -180.5t-180 -70.5z" />
    <glyph glyph-name="six" unicode="6" horiz-adv-x="605" 
d="M310 -11q-110 0 -175 81t-65 211q0 128 62.5 228.5t163.5 152.5t219 52q12 0 12 -11v-17q0 -11 -10 -11q-115 -6 -201.5 -73.5t-117.5 -187.5q58 47 137 47q91 0 152 -60.5t61 -158.5q0 -101 -66 -177t-172 -76zM311 30q65 0 94.5 57t29.5 138q0 90 -32 142.5t-86 52.5
q-65 0 -100.5 -51t-35.5 -139q0 -91 33.5 -145.5t96.5 -54.5z" />
    <glyph glyph-name="seven" unicode="7" horiz-adv-x="538" 
d="M413 450h-244q-39 0 -53.5 -11t-25.5 -45l-5 -16q-5 -12 -15 -12h-14q-14 0 -10 18l27 194q2 10 4.5 12.5t10.5 2.5h15q11 0 10 -12l-1 -14q-2 -21 17 -21h339q18 0 18 -14q0 -10 -4 -18q-165 -393 -261 -646q-11 -29 -24 -43.5t-35 -14.5q-33 0 -44.5 24t9.5 70
q239 455 286 546z" />
    <glyph glyph-name="eight" unicode="8" horiz-adv-x="584" 
d="M517 562q0 -112 -142 -178q74 -43 109 -87t35 -108q0 -82 -66 -141t-160 -59t-156 47t-62 129q0 60 41.5 107.5t110.5 77.5q-65 38 -98 81t-33 105q0 78 64.5 128t158.5 50q83 0 140.5 -41.5t57.5 -110.5zM421 151q0 34 -11 60.5t-37 48.5t-47.5 35.5t-62.5 35.5
q-89 -59 -89 -154q0 -64 35 -106.5t92 -42.5q56 0 88 34t32 89zM193 565q0 -55 34 -88t102 -68q3 -3 8 -4q81 58 81 148q0 52 -28 87t-80 35q-51 0 -84 -30t-33 -80z" />
    <glyph glyph-name="nine" unicode="9" horiz-adv-x="605" 
d="M304 557q111 0 171 -77.5t60 -187.5q0 -90 -26 -170t-78 -147.5t-139.5 -111t-201.5 -53.5q-9 -1 -12.5 1t-3.5 10v17q0 12 12 13q133 23 218 104.5t106 187.5q-42 -46 -126 -46q-92 0 -155.5 60t-63.5 166q0 101 69 167.5t170 66.5zM303 138q60 0 91 49.5t31 124.5
q0 89 -31 146.5t-87 57.5q-66 0 -98.5 -52t-32.5 -135q0 -81 32.5 -136t94.5 -55z" />
    <glyph glyph-name="colon" unicode=":" horiz-adv-x="260" 
d="M130 -8q-29 0 -49.5 20t-20.5 49q0 30 20.5 50.5t49.5 20.5q30 0 50 -20.5t20 -50.5q0 -29 -20 -49t-50 -20zM130 366q-29 0 -49.5 20t-20.5 49q0 30 20.5 50.5t49.5 20.5q30 0 50 -20.5t20 -50.5q0 -29 -20 -49t-50 -20z" />
    <glyph glyph-name="semicolon" unicode=";" horiz-adv-x="260" 
d="M130 366q-29 0 -49.5 20t-20.5 49q0 30 20.5 50.5t49.5 20.5q30 0 50 -20.5t20 -50.5q0 -29 -20 -49t-50 -20zM112 -72q31 40 40 74q-16 -6 -28 -6q-28 0 -46 16.5t-18 45.5q0 32 19 50.5t49 18.5q36 0 56 -26t20 -67q0 -83 -60 -140q-34 -33 -81 -53q-10 -4 -16 5l-5 8
q-6 10 4 17q42 28 66 57z" />
    <glyph glyph-name="less" unicode="&#x3c;" horiz-adv-x="620" 
d="M449 106l-321 170q-10 6 -10 17v39q0 12 10 18l320 171q14 9 23 -7l11 -20q8 -14 -8 -23l-296 -157l299 -158q13 -7 5 -21l-13 -23q-7 -13 -20 -6z" />
    <glyph glyph-name="equal" unicode="=" horiz-adv-x="620" 
d="M510 178h-400q-9 0 -12 3t-3 13v30q0 10 3 13t12 3h400q9 0 12 -3t3 -13v-30q0 -10 -3 -13t-12 -3zM510 387h-400q-9 0 -12 3t-3 13v30q0 10 3 13t12 3h400q9 0 12 -3t3 -13v-30q0 -10 -3 -13t-12 -3z" />
    <glyph glyph-name="greater" unicode="&#x3e;" horiz-adv-x="620" 
d="M172 521l320 -169q10 -6 10 -17v-39q0 -12 -10 -18l-321 -171q-16 -8 -23 7l-10 19q-8 16 7 23l298 159l-300 156q-13 7 -5 22l12 21q8 15 22 7z" />
    <glyph glyph-name="question" unicode="?" horiz-adv-x="372" 
d="M144 195h-8q-9 0 -12 3t-3 13v168q0 28 11.5 42t36.5 25l52 22q30 12 42 26t12 39q0 54 -59 71q-31 10 -75 16q-60 11 -60 58q0 23 16 37.5t43 14.5q74 0 123 -74.5t49 -172.5q0 -47 -14 -71t-47 -42l-42 -22q-31 -17 -40.5 -31t-9.5 -50v-56q0 -10 -3 -13t-12 -3z
M140 -8q-28 0 -47 19t-19 47q0 29 19 48t47 19q29 0 48 -19t19 -48q0 -28 -19 -47t-48 -19z" />
    <glyph glyph-name="at" unicode="@" horiz-adv-x="969" 
d="M648 -7q-106 0 -93 108q2 23 4 29q-35 -66 -81 -101.5t-94 -35.5q-104 0 -104 109q0 74 41.5 158.5t105.5 142t122 57.5q53 0 72 -49l7 24q5 17 24 17h42q16 0 11 -18q-59 -200 -78 -319q-2 -18 -2 -24q0 -52 40 -52q68 0 126.5 82.5t58.5 189.5q0 138 -80.5 208
t-210.5 70q-111 0 -209.5 -56.5t-159.5 -157t-61 -219.5q0 -140 86 -220t233 -80q103 0 187 37q16 6 22 -7l8 -18q6 -14 -7 -21q-34 -19 -95 -33t-124 -14q-175 0 -277 93.5t-102 255.5q0 140 70 254.5t185 177.5t247 63q154 0 252 -84.5t98 -245.5q0 -133 -77 -227
t-187 -94zM553 422q-38 0 -82.5 -50.5t-75 -121.5t-30.5 -128q0 -72 52 -72q36 0 76.5 41t65.5 99q18 45 28 79q14 46 14 87q0 31 -13 48.5t-35 17.5z" />
    <glyph glyph-name="A" unicode="A" 
d="M380 704l225 -578q16 -42 35 -61.5t51 -19.5h6q14 0 14 -18v-10q0 -17 -16 -17h-265q-16 0 -16 16v10q0 19 19 19h7q25 0 39.5 6.5t18 20t1.5 28t-10 36.5l-42 110h-239l-37 -103q-35 -98 47 -98h6q22 0 22 -19v-9q0 -17 -17 -17h-207q-22 0 -22 17v8q0 20 20 20h3
q57 0 93 98l182 481l-4 11q-8 20 6 28q24 14 51 44q7 7 16 7q10 0 13 -10zM324 566l-99 -275h204z" />
    <glyph glyph-name="B" unicode="B" horiz-adv-x="707" 
d="M393 0h-317q-21 0 -21 18v11q0 9 4.5 12.5t18.5 3.5h6q46 0 63 14.5t17 50.5v480q0 36 -17 50.5t-65 14.5h-6q-21 0 -21 18v11q0 9 4.5 12.5t18.5 3.5h313q104 0 157 -44t53 -116q0 -56 -35.5 -98.5t-95.5 -59.5q72 -9 119.5 -55t47.5 -117q0 -92 -65 -151t-179 -59z
M338 347l-64 -3v-202q0 -51 22 -74.5t73 -23.5h23q63 0 96.5 44t33.5 110q0 84 -46.5 117.5t-137.5 31.5zM274 631v-242l78 2q71 2 104 41.5t33 97.5q0 65 -32 95t-100 30h-58q-15 0 -20 -4.5t-5 -19.5z" />
    <glyph glyph-name="C" unicode="C" horiz-adv-x="798" 
d="M433 -14q-161 0 -266 103.5t-105 260.5q0 172 109 268t264 96q101 0 199 -53q10 -6 17 -6q5 0 9 7l13 26q3 8 11 8h14q10 0 10 -13l5 -184q0 -18 -13 -18h-19q-11 0 -14 11q-18 83 -84 131.5t-155 48.5q-111 0 -175 -85t-64 -227q0 -139 69 -235.5t185 -96.5
q90 0 150 50.5t77 140.5q3 13 15 13h20q13 0 13 -19l-4 -193q0 -12 -11 -12h-15q-10 0 -14 10l-10 23q-3 7 -9 7q-7 0 -11 -4q-94 -58 -211 -58z" />
    <glyph glyph-name="D" unicode="D" horiz-adv-x="847" 
d="M274 631v-496q0 -52 21 -71t77 -19h37q119 0 184 86t65 224q0 134 -68 217t-176 83h-117q-23 0 -23 -24zM409 0h-333q-21 0 -21 18v11q0 9 4.5 12.5t18.5 3.5h10q43 0 59.5 15t16.5 50v480q0 36 -17 50.5t-65 14.5h-6q-21 0 -21 18v11q0 9 4.5 12.5t18.5 3.5h344
q70 0 133 -19.5t115.5 -58.5t83.5 -105.5t31 -152.5q0 -166 -108.5 -265t-267.5 -99z" />
    <glyph glyph-name="E" unicode="E" horiz-adv-x="730" 
d="M384 655h-88q-14 0 -18 -4.5t-4 -17.5v-247h130q33 0 48.5 24t15.5 61v7q0 19 19 19h11q17 0 17 -23v-209q0 -11 -3.5 -15t-13.5 -4h-10q-19 0 -19 20v8q0 67 -66 67h-129v-238q0 -30 10 -44t40 -14h98q73 0 114 21.5t72 71.5l26 42q10 17 26 12l10 -3q13 -4 9 -23
l-29 -136q-4 -18 -12.5 -24t-26.5 -6h-535q-21 0 -21 18v11q0 9 4.5 12.5t18.5 3.5h10q43 0 59.5 15t16.5 50v480q0 36 -17 50.5t-65 14.5h-6q-21 0 -21 18v11q0 9 4.5 12.5t18.5 3.5h509q20 0 27.5 -5t9.5 -24l16 -122q2 -14 -10 -17l-8 -2q-14 -4 -25 14l-20 32
q-29 46 -67.5 62.5t-125.5 16.5z" />
    <glyph glyph-name="F" unicode="F" horiz-adv-x="670" 
d="M601 538l-22 35q-20 32 -39 48t-53.5 25t-92.5 9h-98q-14 0 -18 -4.5t-4 -17.5v-257h130q33 0 49 24t16 61v5q0 21 18 21h11q17 0 17 -23v-209q0 -11 -3.5 -15t-13.5 -4h-10q-19 0 -19 19v9q0 67 -66 67h-129v-221q0 -37 18 -51t70 -14h10q21 0 21 -18v-11
q0 -9 -4.5 -12.5t-18.5 -3.5h-294q-21 0 -21 18v11q0 16 23 16h11q43 0 59 15t16 50v480q0 35 -16.5 50t-62.5 15h-9q-21 0 -21 18v11q0 9 4.5 12.5t18.5 3.5h512q19 0 26 -6t9 -23l15 -124q2 -14 -9 -17l-8 -2q-13 -4 -22 10z" />
    <glyph glyph-name="G" unicode="G" horiz-adv-x="823" 
d="M431 714q110 0 209 -55q7 -4 11 -4q5 0 9 7l13 26q5 8 12 8h13q10 0 10 -13l5 -183q0 -19 -13 -19h-18q-12 0 -15 11q-20 84 -86 132t-153 48q-110 0 -174.5 -86.5t-64.5 -226.5q0 -143 68.5 -237t194.5 -94q80 0 121 41.5t41 110.5v25q0 89 -71 89h-8q-13 0 -18.5 3.5
t-5.5 14.5v10q0 17 19 17h243q14 0 19 -3t5 -14v-12q0 -16 -21 -16h-7q-34 0 -44 -14.5t-10 -48.5v-113q0 -23 -6 -36t-24 -27q-94 -69 -242 -69q-167 0 -274 97t-107 267q0 113 51 197t133.5 125.5t184.5 41.5z" />
    <glyph glyph-name="H" unicode="H" horiz-adv-x="944" 
d="M164 110v480q0 36 -17 50.5t-65 14.5h-6q-21 0 -21 18v11q0 9 4.5 12.5t18.5 3.5h284q21 0 21 -18v-11q0 -9 -4.5 -12.5t-18.5 -3.5h-7q-45 0 -62 -14.5t-17 -50.5v-204h396v204q0 36 -17 50.5t-65 14.5h-6q-21 0 -21 18v11q0 9 4.5 12.5t18.5 3.5h284q21 0 21 -18v-11
q0 -9 -4.5 -12.5t-18.5 -3.5h-7q-45 0 -62 -14.5t-17 -50.5v-480q0 -36 16.5 -50.5t62.5 -14.5h9q21 0 21 -18v-11q0 -9 -4.5 -12.5t-18.5 -3.5h-284q-21 0 -21 18v11q0 16 23 16h10q44 0 60 14.5t16 50.5v231h-396v-231q0 -36 16.5 -50.5t62.5 -14.5h9q21 0 21 -18v-11
q0 -9 -4.5 -12.5t-18.5 -3.5h-284q-21 0 -21 18v11q0 16 23 16h10q44 0 60 14.5t16 50.5z" />
    <glyph glyph-name="I" unicode="I" horiz-adv-x="438" 
d="M164 110v480q0 36 -17 50.5t-65 14.5h-6q-21 0 -21 18v11q0 9 4.5 12.5t18.5 3.5h284q21 0 21 -18v-11q0 -9 -4.5 -12.5t-18.5 -3.5h-7q-45 0 -62 -14.5t-17 -50.5v-480q0 -36 16.5 -50.5t62.5 -14.5h9q21 0 21 -18v-11q0 -9 -4.5 -12.5t-18.5 -3.5h-284q-21 0 -21 18v11
q0 16 23 16h10q44 0 60 14.5t16 50.5z" />
    <glyph glyph-name="J" unicode="J" horiz-adv-x="423" 
d="M179 -98v688q0 37 -18 51t-72 14h-8q-21 0 -21 18v11q0 9 4.5 12.5t18.5 3.5h294q21 0 21 -18v-11q0 -9 -4.5 -12.5t-18.5 -3.5h-7q-45 0 -62 -14.5t-17 -50.5v-616q0 -121 -58.5 -189.5t-142.5 -68.5q-51 0 -79.5 21t-28.5 60q0 28 17.5 44t42.5 16q23 0 36.5 -15
t13.5 -39q0 -6 -1 -15t-1 -13q0 -19 17 -19q74 0 74 146z" />
    <glyph glyph-name="K" unicode="K" horiz-adv-x="787" 
d="M516 108l-206 229h-36v-227q0 -36 16.5 -50.5t62.5 -14.5h9q21 0 21 -18v-11q0 -9 -4.5 -12.5t-18.5 -3.5h-284q-21 0 -21 18v11q0 16 23 16h10q44 0 60 14.5t16 50.5v480q0 36 -17 50.5t-65 14.5h-6q-21 0 -21 18v11q0 9 4.5 12.5t18.5 3.5h284q21 0 21 -18v-11
q0 -9 -4.5 -12.5t-18.5 -3.5h-7q-45 0 -62 -14.5t-17 -50.5v-208h36l201 191q31 30 27.5 56t-38.5 26h-6q-20 0 -20 17v11q0 17 17 17h245q19 0 19 -16v-9q0 -12 -4.5 -16t-18.5 -4q-40 0 -71.5 -17.5t-80.5 -65.5l-186 -176l236 -261q48 -54 73 -72t59 -18q15 0 15 -18v-10
q0 -17 -24 -17h-246q-18 0 -18 15v10q0 19 19 19h4q16 0 22.5 8.5t1.5 23.5t-20 32z" />
    <glyph glyph-name="L" unicode="L" horiz-adv-x="713" 
d="M606 0h-530q-21 0 -21 18v11q0 9 4.5 12.5t18.5 3.5h10q43 0 59.5 15t16.5 50v480q0 36 -17 50.5t-65 14.5h-6q-21 0 -21 18v11q0 9 4.5 12.5t18.5 3.5h284q21 0 21 -18v-11q0 -9 -4.5 -12.5t-18.5 -3.5h-7q-45 0 -62 -14.5t-17 -50.5v-485q0 -32 9.5 -46t40.5 -14h72
q153 0 215 119q21 43 25 51q6 11 10.5 14t15.5 0l8 -2q16 -4 12 -24l-36 -174q-4 -17 -12.5 -23t-27.5 -6z" />
    <glyph glyph-name="M" unicode="M" horiz-adv-x="1034" 
d="M160 261v330q0 40 -13.5 52t-60.5 12h-5q-21 0 -21 16v12q0 17 23 17h166q22 0 31 -5.5t16 -22.5l226 -506l214 505q8 19 17 24t28 5h177q21 0 21 -18v-11q0 -9 -4.5 -12.5t-18.5 -3.5h-5q-46 0 -63.5 -14.5t-17.5 -50.5v-480q0 -36 16.5 -50.5t62.5 -14.5h9q21 0 21 -18
v-11q0 -9 -4.5 -12.5t-18.5 -3.5h-284q-21 0 -21 18v11q0 16 23 16h10q43 0 59.5 15t16.5 50v491l-247 -562q-8 -17 -20 -17q-14 0 -23 19l-259 560v-340q0 -129 15.5 -172.5t63.5 -43.5h2q21 0 21 -18v-11q0 -9 -4.5 -12.5t-18.5 -3.5h-218q-22 0 -22 16v11q0 18 19 18h5
q50 0 68 45t18 171z" />
    <glyph glyph-name="N" unicode="N" horiz-adv-x="820" 
d="M648 8l-448 553v-323q0 -81 9 -122.5t25 -54.5t49 -16l13 -1q13 -1 13 -18v-10q0 -16 -19 -16h-227q-13 0 -18 3.5t-5 14.5v9q0 16 21 17l12 1q40 2 58.5 43.5t18.5 149.5v272q0 81 -25 113t-72 32h-7q-16 0 -16 16v11q0 18 27 18h131q26 0 36 -5t25 -23l394 -483v294
q0 98 -19.5 133t-67.5 39l-11 1q-18 2 -18 17v9q0 11 4.5 14.5t16.5 3.5h227q23 0 23 -16v-11q0 -15 -17 -17l-12 -1q-41 -4 -58.5 -40t-17.5 -135v-466q0 -22 -17 -22h-3q-13 0 -25 16z" />
    <glyph glyph-name="O" unicode="O" horiz-adv-x="852" 
d="M663 340q0 143 -70 237.5t-180 94.5q-103 0 -163.5 -83t-60.5 -229q0 -90 28.5 -165t85.5 -121t133 -46q110 0 168.5 84t58.5 228zM790 350q0 -165 -106.5 -264.5t-257.5 -99.5q-69 0 -133.5 24t-116.5 68.5t-83 115t-31 156.5q0 116 53 200.5t134 124t177 39.5
q67 0 130 -22.5t116 -65.5t85.5 -115t32.5 -161z" />
    <glyph glyph-name="P" unicode="P" horiz-adv-x="681" 
d="M371 315q-49 0 -97 5v-210q0 -37 19 -51t74 -14h5q21 0 21 -18v-11q0 -9 -4.5 -12.5t-18.5 -3.5h-294q-21 0 -21 18v11q0 16 18 16h5q50 0 68 14t18 51v480q0 36 -17.5 50.5t-65.5 14.5h-5q-21 0 -21 18v11q0 9 4.5 12.5t18.5 3.5h309q105 0 172 -45.5t67 -131.5
q0 -105 -69 -156.5t-186 -51.5zM274 631v-268q48 -5 94 -5q73 0 110 43t37 116q0 64 -36.5 101t-114.5 37h-65q-15 0 -20 -4.5t-5 -19.5z" />
    <glyph glyph-name="Q" unicode="Q" horiz-adv-x="854" 
d="M326 -2q-115 30 -189.5 121.5t-74.5 230.5q0 116 53 200.5t134 124t177 39.5q67 0 130 -22.5t116 -65.5t85.5 -115t32.5 -161q0 -127 -68.5 -221.5t-196.5 -133.5q75 -20 291 -101q144 -55 213.5 -75.5t125.5 -20.5q51 0 94 26l8 4t5.5 -0.5t7.5 -6.5l7 -8
q6 -6 5.5 -10.5t-9.5 -12.5q-78 -71 -195 -71q-121 0 -320 82q-98 40 -253 113.5t-179 83.5zM663 340q0 143 -70 237.5t-180 94.5q-103 0 -163.5 -83t-60.5 -229q0 -140 66.5 -236.5t180.5 -96.5q109 0 168 84.5t59 228.5z" />
    <glyph glyph-name="R" unicode="R" horiz-adv-x="767" 
d="M304 328h-30v-218q0 -36 16.5 -50.5t62.5 -14.5h9q21 0 21 -18v-11q0 -9 -4.5 -12.5t-18.5 -3.5h-284q-21 0 -21 18v11q0 16 23 16h10q44 0 60 14.5t16 50.5v480q0 36 -17 50.5t-65 14.5h-6q-21 0 -21 18v11q0 9 4.5 12.5t18.5 3.5h320q102 0 164 -44.5t62 -131.5
q0 -69 -44.5 -116t-124.5 -61q20 -13 49 -50l129 -187q23 -34 46 -49.5t61 -15.5q17 0 17 -17v-12q0 -16 -20 -16h-130q-20 0 -29 4.5t-18 18.5l-173 255q-19 28 -37 39t-46 11zM274 627v-255h77q77 0 120.5 38t43.5 102q0 143 -157 143h-57q-17 0 -22 -6t-5 -22z" />
    <glyph glyph-name="S" unicode="S" horiz-adv-x="596" 
d="M293 667q-54 0 -88 -26.5t-34 -75.5q0 -28 11 -49.5t36.5 -39.5t45 -28t58.5 -27q98 -45 131 -70q83 -62 83 -168q0 -90 -64 -143.5t-156 -53.5q-86 0 -162 41q-18 8 -20 8q-8 0 -11 -10l-5 -16q-3 -10 -13 -10h-17q-11 0 -11 13l-2 183q0 16 14 16h18q12 0 15 -12
q16 -80 65.5 -123t124.5 -43q62 0 95.5 30t33.5 84q0 56 -38.5 90.5t-112.5 65.5q-43 18 -66 29t-55 31.5t-47.5 41t-27.5 52.5t-12 71q0 86 61.5 136t153.5 50q77 0 143 -36q13 -7 18 -7q8 0 11 9l5 15q3 8 11 8h15q10 0 10 -13l4 -156q0 -10 -2.5 -14t-11.5 -4h-18
q-11 0 -16 14q-36 137 -173 137z" />
    <glyph glyph-name="T" unicode="T" horiz-adv-x="798" 
d="M319 655h-69q-113 0 -159 -77l-21 -35q-9 -17 -24 -13l-11 4q-14 5 -7 30l40 132q6 18 19 18q7 0 35 -7t50 -7h455q27 0 56 7t36 7q12 0 16 -16l36 -133q5 -21 -7 -25l-10 -4q-15 -5 -27 15l-14 23q-26 44 -66.5 62.5t-101.5 18.5h-60q-17 0 -22.5 -7t-5.5 -25v-513
q0 -36 16.5 -50.5t62.5 -14.5h9q21 0 21 -18v-11q0 -9 -4.5 -12.5t-18.5 -3.5h-284q-21 0 -21 18v11q0 16 23 16h10q44 0 60 14.5t16 50.5v512q0 19 -5.5 26t-22.5 7z" />
    <glyph glyph-name="U" unicode="U" horiz-adv-x="800" 
d="M685 561v-262q0 -313 -269 -313q-61 0 -111.5 12.5t-93 40t-66 78.5t-23.5 121v352q0 36 -15 50.5t-53 14.5h-8q-12 0 -16.5 3t-4.5 14v11q0 9 4.5 13t18.5 4h267q21 0 21 -18v-11q0 -9 -3.5 -12.5t-14.5 -3.5h-5q-43 0 -59.5 -14.5t-16.5 -50.5v-351q0 -96 50 -146.5
t132 -50.5q109 0 156 56.5t47 189.5v278q0 47 -14.5 68t-56.5 21h-4q-20 0 -20 17v11q0 17 20 17h212q23 0 23 -16v-13q0 -16 -17 -16h-6q-43 0 -58.5 -19.5t-15.5 -74.5z" />
    <glyph glyph-name="V" unicode="V" horiz-adv-x="708" 
d="M594 564l-206 -554q-8 -20 -21 -20h-3q-15 0 -23 20l-217 560q-18 44 -35 62.5t-48 22.5l-9 1q-17 2 -17 18v9q0 17 17 17h267q17 0 17 -16v-10q0 -17 -17 -17h-9q-86 0 -51 -94l154 -413l140 407q35 100 -43 100h-8q-17 0 -17 17v10q0 16 19 16h200q13 0 18.5 -3.5
t5.5 -14.5v-8q0 -19 -25 -19h-5q-32 0 -49 -21t-35 -70z" />
    <glyph glyph-name="W" unicode="W" horiz-adv-x="1089" 
d="M782 166l135 388q35 103 -51 103h-5q-19 0 -19 17v10q0 16 16 16h207q14 0 19 -4t5 -15v-8q0 -18 -21 -18h-4q-31 0 -51.5 -24.5t-39.5 -77.5l-196 -545q-7 -18 -21 -18h-2q-15 0 -22 19l-179 491l-180 -492q-7 -18 -21 -18h-2q-15 0 -22 18l-210 567q-16 43 -29.5 59.5
t-42.5 19.5l-11 1q-20 2 -20 18v10q0 17 19 17h240q16 0 16 -16v-9q0 -7 -3 -10.5t-6 -4.5t-14 -3l-10 -1q-35 -4 -42 -19t9 -57l155 -416l145 405l-6 20q-13 37 -29 52.5t-50 15.5h-8q-19 0 -19 18v8q0 17 17 17h258q17 0 17 -15v-10q0 -18 -21 -18h-8q-38 0 -48 -19t5 -58
z" />
    <glyph glyph-name="X" unicode="X" horiz-adv-x="731" 
d="M153 124l160 223l-159 233q-29 43 -48.5 59t-54.5 16q-20 0 -20 17v10q0 18 20 18h272q11 0 14 -3.5t3 -12.5v-9q0 -18 -19 -18h-15q-32 0 -38 -23.5t19 -59.5l97 -143l112 158q20 26 11 47t-45 21h-5q-19 0 -19 16v10q0 17 21 17h213q15 0 15 -15v-11q0 -19 -21 -19
q-34 0 -57.5 -16t-49.5 -51l-147 -198l183 -267q29 -44 54 -61t59 -18q13 0 13 -17v-11q0 -16 -16 -16h-281q-12 0 -16 4t-4 14v9q0 16 21 16h15q31 0 38.5 25.5t-16.5 61.5l-121 176l-133 -194q-20 -29 -8.5 -49t50.5 -20h6q17 0 17 -17v-11q0 -15 -16 -15h-216
q-12 0 -16.5 3.5t-4.5 13.5v11q0 17 17 17q37 0 61 18t55 61z" />
    <glyph glyph-name="Y" unicode="Y" horiz-adv-x="710" 
d="M303 279l-179 311q-22 38 -39 51.5t-51 13.5q-19 0 -19 17v11q0 17 18 17h259q16 0 16 -15v-10q0 -10 -4 -14t-15 -4h-7q-31 0 -39.5 -18.5t5.5 -41.5l143 -257l132 229q14 23 17 43t-7.5 32.5t-33.5 12.5h-10q-11 0 -14.5 4t-3.5 13v9q0 17 19 17h196q15 0 19.5 -4
t4.5 -15v-6q0 -19 -18 -19q-36 0 -58.5 -21t-55.5 -76l-165 -270v-179q0 -36 16.5 -50.5t62.5 -14.5h9q21 0 21 -18v-11q0 -9 -4.5 -12.5t-18.5 -3.5h-284q-21 0 -21 18v11q0 16 23 16h10q44 0 60 14.5t16 50.5v169z" />
    <glyph glyph-name="Z" unicode="Z" horiz-adv-x="719" 
d="M73 44l398 588q15 23 -8 23h-177q-48 0 -82.5 -22.5t-62.5 -70.5l-29 -49q-9 -15 -22 -11l-10 3q-14 5 -10 21l40 140q6 21 15 27.5t32 6.5h451q16 0 16 -13v-5q0 -13 -8 -26l-394 -587q-16 -24 9 -24h209q65 0 104 27.5t66 78.5l17 33q6 9 10 11.5t13 0.5l8 -2
q8 -2 10 -6t-1 -15l-37 -138q-6 -22 -14.5 -28.5t-34.5 -6.5h-500q-16 0 -16 13v5q0 13 8 26z" />
    <glyph glyph-name="bracketleft" unicode="[" horiz-adv-x="374" 
d="M328 698h-146v-924h146q12 0 15 -2.5t3 -13.5v-20q0 -11 -3.5 -13.5t-15.5 -2.5h-187q-13 0 -16.5 2.5t-3.5 13.5v995q0 11 3.5 14t16.5 3h187q12 0 15.5 -3t3.5 -14v-20q0 -11 -3 -13t-15 -2z" />
    <glyph glyph-name="backslash" unicode="\" horiz-adv-x="511" 
d="M36 749l19 8q15 6 21 -9l406 -1006q6 -15 -9 -21l-17 -7q-15 -6 -21 9l-406 1006q-5 16 7 20z" />
    <glyph glyph-name="bracketright" unicode="]" horiz-adv-x="374" 
d="M192 698h-146q-12 0 -15 2t-3 13v20q0 11 3.5 14t15.5 3h187q13 0 16.5 -3t3.5 -14v-995q0 -11 -3.5 -13.5t-16.5 -2.5h-187q-12 0 -15.5 2.5t-3.5 13.5v20q0 11 3 13.5t15 2.5h146v924z" />
    <glyph glyph-name="asciicircum" unicode="^" horiz-adv-x="510" 
d="M255 640l-138 -271q-5 -12 -22 -12h-35q-16 0 -8 15l167 319q5 9 17 9h41q11 0 16 -9l165 -319q8 -15 -10 -15h-34q-15 0 -21 11z" />
    <glyph glyph-name="underscore" unicode="_" horiz-adv-x="490" 
d="M480 -278h-470q-9 0 -12 3t-3 13v30q0 10 3 13t12 3h470q9 0 12 -3t3 -13v-30q0 -10 -3 -13t-12 -3z" />
    <glyph glyph-name="grave" unicode="`" horiz-adv-x="286" 
d="M219 579l-154 92q-27 17 -27 43q0 17 13 30.5t30 13.5q21 0 39 -20l121 -130q11 -12 3 -20l-7 -9q-6 -7 -18 0z" />
    <glyph glyph-name="a" unicode="a" horiz-adv-x="532" 
d="M169 -5q-49 0 -80 30t-31 80q0 55 38.5 89t120.5 67q58 22 110 50l1 80q0 48 -21 69t-64 21q-31 0 -59 -17t-28 -37q0 -5 1 -18.5t1 -20.5q0 -28 -15 -46t-44 -18q-51 0 -51 48q0 56 81.5 104.5t160.5 48.5q64 0 99 -31t34 -90l-3 -293q0 -39 28 -39q27 0 45 48q3 8 13 7
l8 -2q8 -2 7 -12q-9 -46 -37.5 -81.5t-74.5 -35.5q-76 0 -81 96q-75 -97 -159 -97zM217 62q52 0 110 73v135l-82 -36q-50 -24 -72 -47t-22 -54q0 -32 18 -51.5t48 -19.5z" />
    <glyph glyph-name="b" unicode="b" horiz-adv-x="606" 
d="M92 9v624q0 19 -8.5 26.5t-28.5 9.5l-25 2q-5 1 -7 1.5t-3.5 3t-1.5 7.5v9q0 10 9 15l131 51q8 3 15 -1l9 -6q5 -4 5 -13v-300q77 83 167 83q91 0 149 -66t58 -178q0 -125 -65.5 -203.5t-168.5 -78.5q-91 0 -162 53l-42 -45q-6 -6 -14 -6h-8q-9 0 -9 12zM187 383v-224
q8 -59 43.5 -90t88.5 -31q62 0 100.5 56.5t38.5 145.5q0 92 -39 150.5t-106 58.5t-126 -66z" />
    <glyph glyph-name="c" unicode="c" horiz-adv-x="514" 
d="M289 -5q-107 0 -175.5 71t-68.5 191q0 122 69 193t178 71q67 0 118.5 -32t51.5 -74q0 -25 -14.5 -39t-37.5 -14q-46 0 -58 50q-5 23 -10 37q-12 36 -54 36q-65 0 -101 -58t-36 -156q0 -84 43 -144t120 -60t132 69q9 13 19 6l10 -6q9 -4 4 -17q-20 -46 -69.5 -85
t-120.5 -39z" />
    <glyph glyph-name="d" unicode="d" horiz-adv-x="620" 
d="M514 738v-644q0 -22 15 -27l42 -14q7 -3 7 -10v-13q0 -8 -8 -10l-129 -28q-8 -1 -13 2l-4 3q-5 5 -5 13v60q-71 -75 -156 -75q-99 0 -158 70t-59 182q0 116 66.5 195t173.5 79q75 0 133 -30v142q0 20 -8.5 27.5t-28.5 8.5l-35 2q-7 0 -9.5 2t-2.5 10v9q0 10 9 15l141 51
q8 3 15 -1l9 -6q5 -4 5 -13zM293 67q70 0 126 51v194q0 82 -37 123.5t-96 41.5q-66 0 -102 -59t-36 -149q0 -84 39.5 -143t105.5 -59z" />
    <glyph glyph-name="e" unicode="e" horiz-adv-x="530" 
d="M321 67q75 0 130 70q9 12 20 4l8 -5q10 -6 3 -19q-63 -122 -193 -122q-107 0 -175.5 73.5t-68.5 192.5q0 122 69 191t176 69q87 0 141.5 -55t54.5 -128q0 -19 -18 -19h-317q-1 -12 -1 -35q0 -93 42 -155t129 -62zM286 485q-95 0 -128 -124h197q13 0 18 4t5 16
q0 48 -24.5 76t-67.5 28z" />
    <glyph glyph-name="f" unicode="f" horiz-adv-x="362" 
d="M224 586v-70h111q16 0 11 -15l-10 -32q-4 -13 -20 -13h-92v-341q0 -38 8.5 -52.5t39.5 -18.5l8 -1q15 -3 15 -18v-11q0 -8 -2.5 -11t-11.5 -3h-210q-11 0 -14 3.5t-3 12.5v10q0 15 14 17l8 1q32 4 42.5 18.5t10.5 52.5v341h-77q-15 0 -9 19l9 28q4 13 18 13h59v57
q0 88 49.5 137.5t128.5 49.5q37 0 61.5 -18t24.5 -50q0 -21 -13.5 -33.5t-34.5 -12.5q-20 0 -30.5 11t-19.5 34q-11 29 -25 29q-21 0 -33.5 -35t-12.5 -99z" />
    <glyph glyph-name="g" unicode="g" horiz-adv-x="593" 
d="M23 -160q0 47 36.5 83t88.5 49q-42 8 -65 31.5t-23 58.5q0 70 84 120q-80 52 -80 155q0 85 62.5 136t145.5 51q91 0 151 -47q61 55 113 55q29 0 45 -15t16 -42q0 -22 -11 -35.5t-31 -13.5q-24 0 -42 22q-18 20 -30 20q-16 0 -36 -14q41 -48 41 -119q0 -88 -57 -139.5
t-151 -51.5q-57 0 -102 19q-42 -27 -42 -66q0 -26 22 -39.5t57 -13.5h168q178 0 178 -138q0 -95 -80.5 -144.5t-205.5 -49.5q-51 0 -94 6t-79.5 20t-57.5 40t-21 62zM491 -119q0 78 -114 78h-111q-74 0 -115 -25.5t-41 -71.5q0 -51 50.5 -77t128.5 -26q93 0 147.5 32.5
t54.5 89.5zM395 332q0 65 -34 109.5t-90 44.5q-54 0 -83.5 -41t-29.5 -106q0 -63 33.5 -110t89.5 -47q57 0 85.5 43t28.5 107z" />
    <glyph glyph-name="h" unicode="h" horiz-adv-x="620" 
d="M107 115v518q0 19 -8.5 26.5t-28.5 9.5l-25 2q-5 1 -7 1.5t-3.5 3t-1.5 7.5v9q0 10 9 15l131 51q8 3 15 -1l9 -6q5 -4 5 -13v-311q70 97 170 97q65 0 107 -39.5t42 -97.5v-272q0 -38 8.5 -52.5t39.5 -18.5l8 -1q15 -3 15 -18v-11q0 -8 -2.5 -11t-11.5 -3h-210
q-11 0 -14 3.5t-3 12.5v10q0 15 14 17l8 1q32 4 42.5 18.5t10.5 52.5v235q0 47 -26.5 74.5t-69.5 27.5q-33 0 -71 -23.5t-57 -52.5v-261q0 -38 8.5 -52.5t39.5 -18.5l8 -1q15 -3 15 -18v-11q0 -8 -2.5 -11t-11.5 -3h-210q-11 0 -14 3.5t-3 12.5v10q0 15 14 17l8 1
q32 4 42.5 18.5t10.5 52.5z" />
    <glyph glyph-name="i" unicode="i" horiz-adv-x="331" 
d="M162 600q-27 0 -46.5 18.5t-19.5 45.5t20 46.5t46 19.5q27 0 46 -19.5t19 -46.5t-19 -45.5t-46 -18.5zM125 115v283q0 19 -8.5 26.5t-28.5 9.5l-25 2q-5 1 -7 1.5t-3.5 3t-1.5 7.5v9q0 11 9 15l131 51q8 3 15 -1l9 -6q5 -4 5 -13v-388q0 -38 8.5 -52.5t39.5 -18.5l8 -1
q15 -3 15 -18v-11q0 -8 -2.5 -11t-11.5 -3h-210q-11 0 -14 3.5t-3 12.5v10q0 15 14 17l8 1q32 4 42.5 18.5t10.5 52.5z" />
    <glyph glyph-name="j" unicode="j" horiz-adv-x="302" 
d="M153 599q-27 0 -46.5 19t-19.5 46q0 26 20 46t46 20q27 0 46 -19.5t19 -46.5t-19 -46t-46 -19zM113 -100v498q0 19 -8.5 26.5t-28.5 9.5l-25 2q-5 1 -7 1.5t-3.5 3t-1.5 7.5v9q0 11 9 15l131 51q8 3 15 -1l9 -6q5 -4 5 -13v-503q0 -72 -22.5 -129t-58.5 -89.5t-75.5 -49
t-79.5 -16.5q-34 0 -52.5 17.5t-18.5 43.5q0 23 14.5 37t36.5 14q30 0 58 -32q17 -20 35 -20q32 0 50 34t18 90z" />
    <glyph glyph-name="k" unicode="k" horiz-adv-x="600" 
d="M107 115v518q0 19 -8.5 26.5t-28.5 9.5l-25 2q-5 1 -7 1.5t-3.5 3t-1.5 7.5v9q0 10 9 15l131 51q8 3 15 -1l9 -6q5 -4 5 -13v-448h41l128 126q19 17 16 35t-29 22l-8 1q-10 2 -13 5.5t-3 12.5v10q0 14 14 14h200q11 0 14 -3t3 -13v-11q0 -8 -3 -11t-12 -5
q-63 -9 -128 -70l-108 -102l169 -191q52 -59 93 -67q14 -3 14 -16v-11q0 -9 -3 -12.5t-14 -3.5h-213q-13 0 -13 14v11q0 16 13 17l10 1q50 6 16 43l-142 159h-42v-130q0 -38 8.5 -52.5t39.5 -18.5l8 -1q15 -3 15 -18v-11q0 -8 -2.5 -11t-11.5 -3h-210q-11 0 -14 3.5t-3 12.5
v10q0 15 14 17l8 1q32 4 42.5 18.5t10.5 52.5z" />
    <glyph glyph-name="l" unicode="l" horiz-adv-x="305" 
d="M106 115v518q0 19 -8.5 26.5t-28.5 9.5l-25 2q-5 1 -7 1.5t-3.5 3t-1.5 7.5v9q0 10 9 15l131 51q8 3 15 -1l9 -6q5 -4 5 -13v-623q0 -38 8.5 -52.5t39.5 -18.5l8 -1q15 -3 15 -18v-11q0 -8 -2.5 -11t-11.5 -3h-209q-11 0 -14 3.5t-3 12.5v10q0 15 14 17l8 1
q31 4 41.5 18.5t10.5 52.5z" />
    <glyph glyph-name="m" unicode="m" horiz-adv-x="951" 
d="M125 115v283q0 19 -8.5 26.5t-28.5 9.5l-25 2q-5 1 -7 1.5t-3.5 3t-1.5 7.5v9q0 11 9 15l131 51q8 3 15 -1l9 -6q5 -4 5 -13v-82q30 45 72.5 74t90.5 29q54 0 93 -30t53 -74q78 104 168 104q75 0 115 -50t40 -129v-230q0 -38 8.5 -52.5t39.5 -18.5l8 -1q15 -3 15 -18v-11
q0 -8 -2.5 -11t-11.5 -3h-210q-11 0 -14 3.5t-3 12.5v10q0 15 14 17l8 1q32 4 42.5 18.5t10.5 52.5v224q0 55 -28.5 84t-73.5 29q-55 0 -119 -75v-262q0 -38 8.5 -52.5t39.5 -18.5l8 -1q15 -3 15 -18v-11q0 -8 -2.5 -11t-11.5 -3h-210q-11 0 -14 3.5t-3 12.5v10q0 15 14 17
l8 1q32 4 42.5 18.5t10.5 52.5v224q0 55 -27.5 84t-71.5 29q-52 0 -122 -74v-263q0 -38 8.5 -52.5t39.5 -18.5l8 -1q15 -3 15 -18v-11q0 -8 -2.5 -11t-11.5 -3h-210q-11 0 -14 3.5t-3 12.5v10q0 15 14 17l8 1q32 4 42.5 18.5t10.5 52.5z" />
    <glyph glyph-name="n" unicode="n" horiz-adv-x="640" 
d="M277 0h-210q-11 0 -14 3.5t-3 12.5v10q0 15 14 17l8 1q32 4 42.5 18.5t10.5 52.5v283q0 19 -8.5 26.5t-28.5 9.5l-25 2q-5 1 -7 1.5t-3.5 3t-1.5 7.5v9q0 11 9 15l131 51q8 3 15 -1l9 -6q5 -4 5 -13v-83q74 104 170 104q65 0 108 -43t43 -118v-248q0 -38 8.5 -52.5
t39.5 -18.5l8 -1q15 -3 15 -18v-11q0 -8 -2.5 -11t-11.5 -3h-210q-11 0 -14 3.5t-3 12.5v10q0 15 14 17l8 1q32 4 42.5 18.5t10.5 52.5v228q0 50 -26 79.5t-68 29.5q-69 0 -132 -76v-261q0 -38 8.5 -52.5t39.5 -18.5l8 -1q15 -3 15 -18v-11q0 -8 -2.5 -11t-11.5 -3z" />
    <glyph glyph-name="o" unicode="o" horiz-adv-x="592" 
d="M298 -5q-110 0 -181.5 73.5t-71.5 193.5t71.5 189.5t180.5 69.5q112 0 181 -68t69 -188q0 -119 -67.5 -194.5t-181.5 -75.5zM309 36q128 0 128 207q0 101 -40.5 169t-110.5 68q-64 0 -98 -52.5t-34 -147.5q0 -57 17 -111.5t53.5 -93.5t84.5 -39z" />
    <glyph glyph-name="p" unicode="p" horiz-adv-x="625" 
d="M208 386v-216q5 -64 42 -97.5t96 -33.5q47 0 78 33t42.5 78t11.5 100q0 88 -39.5 143.5t-105.5 55.5q-69 0 -125 -63zM113 -163v561q0 19 -8.5 26.5t-28.5 9.5l-25 2q-5 1 -7 1.5t-3.5 3t-1.5 7.5v9q0 11 9 15l131 51q8 3 15 -1l9 -6q5 -4 5 -13v-64q82 82 161 82
q98 0 154.5 -65.5t56.5 -177.5q0 -122 -62 -202.5t-168 -80.5q-81 0 -142 37v-195q0 -39 9.5 -54t45.5 -17l13 -1q15 -1 15 -18v-11q0 -8 -2.5 -11t-11.5 -3h-222q-11 0 -14 3.5t-3 12.5v10q0 15 14 17l8 1q32 4 42.5 18.5t10.5 52.5z" />
    <glyph glyph-name="q" unicode="q" horiz-adv-x="600" 
d="M570 -278h-221q-9 0 -11.5 3t-2.5 11v11q0 17 15 18l13 1q36 2 45.5 17t9.5 54v231q-66 -73 -155 -73q-100 0 -159 71.5t-59 180.5q0 124 68.5 199t173.5 75q86 0 151 -41l41 41q9 9 19 5l7 -2q8 -2 8 -13v-674q0 -38 8.5 -52.5t39.5 -18.5l8 -1q15 -3 15 -18v-11
q0 -8 -2.5 -11t-11.5 -3zM418 118v200q0 77 -34.5 118t-95.5 41q-67 0 -104 -58t-37 -159q0 -84 40.5 -138.5t106.5 -54.5q42 0 69 12.5t55 38.5z" />
    <glyph glyph-name="r" unicode="r" horiz-adv-x="446" 
d="M289 0h-222q-11 0 -14 3.5t-3 12.5v10q0 15 14 17l8 1q32 4 42.5 18.5t10.5 52.5v283q0 19 -8.5 26.5t-28.5 9.5l-25 2q-5 1 -7 1.5t-3.5 3t-1.5 7.5v9q0 11 9 15l131 51q8 3 15 -1l9 -6q5 -4 5 -13v-83q62 105 138 105q30 0 47.5 -17.5t17.5 -45.5q0 -24 -13.5 -38.5
t-34.5 -14.5q-19 0 -41 16q-19 14 -35 14q-39 0 -79 -71v-253q0 -39 9.5 -54t45.5 -17l13 -1q15 -1 15 -18v-11q0 -8 -2.5 -11t-11.5 -3z" />
    <glyph glyph-name="s" unicode="s" horiz-adv-x="444" 
d="M71 22q-9 4 -11 22l-6 103q-1 17 14 18l16 1q10 0 13 -10q31 -119 130 -119q43 0 66.5 22t23.5 57q0 36 -24.5 57.5t-77.5 45.5q-78 34 -114.5 68.5t-36.5 92.5q0 69 50 105t122 36q71 0 126 -24q10 -5 12 -18l7 -90q1 -13 -12 -15l-15 -2q-11 -1 -16 13q-32 95 -107 95
q-37 0 -60 -19.5t-23 -52.5q0 -24 16.5 -44t35.5 -31t51 -26q7 -3 11 -5q33 -16 50.5 -26t41.5 -29t35 -43.5t11 -55.5q0 -71 -48.5 -112t-133.5 -41q-90 0 -147 27z" />
    <glyph glyph-name="t" unicode="t" horiz-adv-x="387" 
d="M333 449h-136l-3 -299q-1 -86 71 -86q38 0 79 26q10 6 19 -3l5 -6q8 -10 -3 -24q-59 -63 -136 -63q-60 0 -95 36t-35 100l3 319h-63q-12 0 -12 10v6q0 12 10 19q56 41 118 136q9 14 23 14h8q13 0 13 -16l-1 -102h159q17 0 11 -21l-10 -31q-5 -15 -25 -15z" />
    <glyph glyph-name="u" unicode="u" horiz-adv-x="628" 
d="M427 146v257q0 19 -8.5 26.5t-28.5 9.5l-25 2q-5 1 -7 1.5t-3.5 3t-1.5 7.5v8q0 11 9 15l132 48q10 3 17 -2l5 -4q6 -5 6 -13v-411q0 -22 15 -27l42 -14q7 -3 7 -10v-13q0 -8 -8 -10l-129 -28q-8 -1 -13 2l-4 3q-5 5 -5 13v80q-70 -98 -169 -98q-67 0 -109 42.5
t-42 109.5v259q0 19 -8.5 26.5t-28.5 9.5l-25 2q-5 1 -7 1.5t-3.5 3t-1.5 7.5v8q0 11 9 15l135 49q9 2 15 -2l4 -3q6 -4 6 -13v-329q0 -54 23 -84t67 -30q71 0 135 82z" />
    <glyph glyph-name="v" unicode="v" horiz-adv-x="571" 
d="M276 8l-178 407q-14 32 -27 43.5t-39 15.5q-9 2 -11.5 5t-2.5 11v10q0 9 3.5 12.5t14.5 3.5h198q13 0 13 -14v-10q0 -8 -2.5 -11t-13.5 -5l-8 -1q-46 -6 -25 -55l124 -289l99 270q24 64 -33 74l-7 1q-11 2 -13.5 5t-2.5 12v10q0 8 2.5 10.5t11.5 2.5h164q11 0 14.5 -3.5
t3.5 -12.5v-11q0 -8 -2.5 -10.5t-11.5 -4.5q-33 -10 -47 -25.5t-30 -51.5l-155 -389q-5 -15 -17 -15h-4q-13 0 -18 15z" />
    <glyph glyph-name="w" unicode="w" horiz-adv-x="861" 
d="M619 133l93 266q22 64 -36 76l-5 1q-8 2 -10 5t-2 11v10q0 8 3 11t12 3h160q11 0 14 -3t3 -13v-9q0 -9 -2.5 -12t-11.5 -5q-28 -6 -46 -21.5t-32 -49.5l-143 -389q-4 -12 -7 -15.5t-11 -3.5h-4q-15 0 -22 19l-141 360l-125 -360q-4 -12 -7.5 -15.5t-11.5 -3.5h-5
q-8 0 -11 3.5t-9 15.5l-169 401q-12 29 -25 42t-36 17q-9 2 -11.5 4.5t-2.5 10.5v11q0 11 3 13.5t15 2.5h187q14 0 14 -13v-10q0 -9 -2.5 -12.5t-13.5 -5.5l-10 -2q-42 -9 -22 -53l118 -289l99 298q-15 34 -65 45q-10 2 -12.5 5t-2.5 11v12q0 14 14 14h203q14 0 14 -14v-10
q0 -10 -2.5 -13t-13.5 -5l-7 -1q-45 -7 -26 -54z" />
    <glyph glyph-name="x" unicode="x" horiz-adv-x="571" 
d="M273 215l-86 -122q-30 -40 20 -49l6 -1q10 -2 13 -5t3 -14v-8q0 -16 -15 -16h-173q-17 0 -17 14v12q0 16 14 17q31 3 53 19.5t52 54.5l104 132l-131 172q-18 24 -34.5 37t-41.5 16q-9 2 -11.5 5.5t-2.5 11.5v10q0 10 3.5 12.5t14.5 2.5h208q13 0 13 -12v-12q0 -6 -1 -9.5
t-4.5 -5.5t-10.5 -2h-4q-59 0 -18 -53l80 -106l79 109q27 38 -24 49l-6 1q-9 2 -11.5 5t-2.5 11v11q0 14 14 14h169q12 0 15 -2.5t3 -13.5v-11q0 -14 -14 -16q-47 -6 -101 -73l-95 -118l138 -181q16 -20 24.5 -29t21.5 -17.5t28 -11.5q9 -2 11.5 -4.5t2.5 -10.5v-12
q0 -10 -3.5 -13t-14.5 -3h-204q-13 0 -13 13v9q0 7 1 10.5t4.5 6t10.5 2.5l14 1q19 1 25 8.5t1.5 18.5t-17.5 28z" />
    <glyph glyph-name="y" unicode="y" horiz-adv-x="606" 
d="M122 -284q-40 0 -62.5 21.5t-22.5 52.5q0 24 14.5 39t38.5 15q19 0 31 -7.5t16.5 -17t11.5 -17t16 -7.5q55 0 121 187l-188 438q-12 28 -24.5 38.5t-41.5 15.5q-14 3 -14 15v11q0 10 3.5 13t13.5 3h205q9 0 11.5 -3t2.5 -11v-10q0 -9 -2.5 -12t-13.5 -5l-7 -1
q-25 -4 -32 -17.5t6 -45.5l131 -317l102 283q31 86 -33 97l-6 1q-11 2 -13.5 5t-2.5 12v10q0 14 15 14h181q11 0 14 -3t3 -13v-11q0 -8 -2.5 -10.5t-11.5 -4.5q-30 -4 -47.5 -21.5t-32.5 -55.5q-186 -462 -198 -492q-41 -102 -84 -145.5t-98 -43.5z" />
    <glyph glyph-name="z" unicode="z" horiz-adv-x="522" 
d="M425 0h-367q-12 0 -12 10v4q0 10 7 20l282 415q15 21 -10 21h-92q-45 0 -69.5 -19.5t-56.5 -73.5l-24 -39q-8 -11 -19 -7l-9 3q-12 5 -8 18l47 139q6 17 12.5 21t25.5 4h327q13 0 13 -10v-4q0 -10 -8 -21l-279 -415q-5 -8 -3 -14t10 -6h120q96 0 141 98l9 19q5 11 17 8
l9 -2q12 -3 8 -16l-34 -125q-5 -17 -12.5 -22.5t-24.5 -5.5z" />
    <glyph glyph-name="braceleft" unicode="{" horiz-adv-x="374" 
d="M110 -139q0 43 33 132.5t33 127.5q0 31 -17.5 50t-62.5 40q-16 7 -20 10.5t-4 11.5v4q0 8 4.5 12t19.5 10q45 21 62.5 39t17.5 44q0 40 -33 129t-33 136q0 79 54 116t138 37q19 0 27 -1t10.5 -3.5t2.5 -10.5v-11q0 -10 -2.5 -12.5t-12.5 -2.5h-16q-57 0 -92 -30t-35 -93
q0 -36 20.5 -117.5t20.5 -129.5q0 -36 -17 -57t-58 -43q-12 -6 -12 -11v-2q0 -4 8 -9q41 -23 60 -47.5t19 -63.5q0 -46 -20.5 -127t-20.5 -117q0 -119 127 -119h16q10 0 12.5 -2.5t2.5 -12.5v-11q0 -13 -13 -14q-9 -1 -27 -1q-192 0 -192 149z" />
    <glyph glyph-name="bar" unicode="|" horiz-adv-x="343" 
d="M197 735v-998q0 -9 -3 -12t-13 -3h-19q-10 0 -13 3t-3 12v998q0 9 3 12t13 3h19q10 0 13 -3t3 -12z" />
    <glyph glyph-name="braceright" unicode="}" horiz-adv-x="374" 
d="M264 611q0 -43 -33 -132.5t-33 -127.5q0 -31 17.5 -50t62.5 -40q16 -7 20 -10.5t4 -11.5v-4q0 -8 -4.5 -12t-19.5 -10q-45 -21 -62.5 -39t-17.5 -44q0 -41 33 -129.5t33 -135.5q0 -79 -54 -116t-138 -37q-19 0 -27 1t-10.5 3.5t-2.5 10.5v11q0 10 2.5 12.5t12.5 2.5h16
q57 0 92 30t35 93q0 36 -20.5 117.5t-20.5 129.5q0 35 17.5 57t57.5 43q12 6 12 11v2q0 4 -8 9q-41 23 -60 47.5t-19 63.5q0 47 20.5 127t20.5 117q0 63 -35 91t-92 28h-16q-10 0 -12.5 2.5t-2.5 12.5v11q0 13 13 14q9 1 27 1q192 0 192 -149z" />
    <glyph glyph-name="uni00A0" unicode="&#xa0;" horiz-adv-x="250" 
 />
    <glyph glyph-name="exclamdown" unicode="&#xa1;" horiz-adv-x="303" 
d="M144 329h8q9 0 12 -3t3 -13v-63q0 -78 23 -204t23 -178q0 -33 -17.5 -51t-47.5 -18t-47.5 18t-17.5 51q0 52 23 178t23 204v63q0 10 3 13t12 3zM148 532q29 0 48 -19t19 -48q0 -28 -19 -47t-48 -19q-28 0 -47.5 19t-19.5 47q0 29 19.5 48t47.5 19z" />
    <glyph glyph-name="cent" unicode="&#xa2;" horiz-adv-x="620" 
d="M311 -93l2 94q-92 10 -153.5 81t-61.5 180q0 118 65 193t165 87l3 94q0 11 2 13.5t11 2.5h23q8 0 10 -2.5t2 -13.5l-3 -91q68 -2 113 -32t45 -72q0 -25 -15 -40t-37 -15q-45 0 -58 52q-6 26 -11 38q-12 28 -38 33l-13 -437h9q88 0 139 73q7 10 17 4l10 -6q7 -4 3 -16
q-55 -116 -180 -126l-2 -95v-8t-1.5 -4t-4 -2.5t-7.5 -0.5h-21q-9 0 -11 2.5t-2 13.5zM204 288q0 -78 27.5 -133t83.5 -75l12 425q-57 -16 -90 -75.5t-33 -141.5z" />
    <glyph glyph-name="sterling" unicode="&#xa3;" horiz-adv-x="620" 
d="M391 224h-115l-6 -14q-33 -59 -67 -89q20 5 33 5q53 0 107 -28l75 -39q33 -14 47 -14q19 0 19 16q0 10 -19 22q-1 1 -6 4t-6 4t-5 4t-5.5 5t-4 5t-3.5 6t-2 7t-1 8q0 16 11 26t29 10q28 0 41.5 -21.5t13.5 -52.5q0 -40 -32 -70t-77 -30q-48 0 -86 17q-16 7 -47 21.5
t-41 18.5q-48 22 -85 28l-18 -43q-17 -38 -45 -38q-17 0 -26.5 8.5t-9.5 21.5q0 20 19.5 38t59.5 41q16 38 43 123h-52q-12 0 -9 12l5 18q5 11 14 11h54q13 42 30 105q22 88 81.5 147t127.5 59q41 0 66.5 -15.5t25.5 -43.5q0 -18 -12 -29.5t-29 -11.5q-26 0 -40 37
q-10 23 -19 26q-4 1 -8 1q-41 0 -84 -159q-21 -73 -39 -116h106q12 0 9 -12l-5 -18q-4 -11 -13 -11z" />
    <glyph glyph-name="currency" unicode="&#xa4;" horiz-adv-x="704" 
d="M195 74l-93 -85q-10 -7 -18 0l-19 21q-10 9 0 19l92 85q-47 61 -47 147q0 85 48 148l-91 88q-13 11 -1 23l18 19q10 11 21 0l91 -91q62 49 146 49t147 -50l91 89q10 8 20 -2l19 -19q9 -9 0 -19l-92 -89q47 -62 47 -146q0 -80 -46 -145l90 -90q9 -9 0 -18l-19 -20
q-10 -10 -18 -1l-90 89q-62 -51 -149 -51q-85 0 -147 49zM342 78q73 0 123.5 52.5t50.5 130.5t-50.5 130.5t-123.5 52.5t-123.5 -52.5t-50.5 -130.5t50.5 -130.5t123.5 -52.5z" />
    <glyph glyph-name="yen" unicode="&#xa5;" horiz-adv-x="620" 
d="M463 443l-78 -157h93q10 0 12.5 -2t2.5 -10v-15q0 -8 -2.5 -9.5t-11.5 -1.5h-112l-10 -20v-44h121q10 0 12.5 -2t2.5 -10v-14q0 -8 -2.5 -10t-11.5 -2h-122v-60q0 -27 13 -38.5t48 -11.5h8q16 0 16 -14v-10q0 -12 -18 -12h-227q-17 0 -17 13v10q0 13 18 13h9
q33 0 46 11.5t13 38.5v60h-124q-9 0 -12 2t-3 10v14q0 8 3 10t12 2h124v35l-16 29h-108q-10 0 -12.5 1.5t-2.5 9.5v15q0 8 3 10t12 2h86l-85 153q-18 34 -34.5 49t-46.5 15q-21 0 -21 18v9q0 9 4.5 12.5t18.5 3.5h212q21 0 21 -17v-10q0 -9 -4.5 -12.5t-18.5 -3.5h-7
q-26 0 -31.5 -18t9.5 -46l90 -164l79 168q16 30 15.5 45t-23.5 15h-7q-14 0 -18.5 3.5t-4.5 12.5v10q0 17 21 17h143q14 0 18.5 -3.5t4.5 -12.5v-9q0 -17 -21 -17q-28 0 -45.5 -15t-33.5 -46z" />
    <glyph glyph-name="section" unicode="&#xa7;" horiz-adv-x="585" 
d="M266 -292q-79 0 -133 29t-54 74q0 23 13.5 36.5t34.5 13.5q16 0 28.5 -8t17.5 -16t15 -27q17 -35 35 -50.5t49 -15.5q52 0 84 34.5t32 82.5q0 45 -22 74t-76 57l-97 50q-70 36 -101.5 81t-31.5 111q0 115 115 180q-60 52 -60 130q0 80 57 125t137 45q71 0 117.5 -23.5
t46.5 -61.5q0 -21 -13 -33.5t-31 -12.5q-17 0 -31 9.5t-18 15t-18 26.5q-29 44 -70 44t-71.5 -28t-30.5 -72q0 -41 24.5 -69.5t78.5 -55.5l91 -46q66 -34 98.5 -77t32.5 -106q0 -108 -111 -192q62 -52 62 -138q0 -78 -55 -132t-145 -54zM337 324l-84 41q-19 9 -43 23
q-65 -45 -65 -123q0 -47 23.5 -79t78.5 -62l96 -51q5 -2 27 -16q60 59 60 138q0 45 -22.5 75.5t-70.5 53.5z" />
    <glyph glyph-name="dieresis" unicode="&#xa8;" horiz-adv-x="381" 
d="M40 660q0 25 16.5 42.5t41.5 17.5q24 0 41 -17.5t17 -42.5t-17 -42.5t-41 -17.5q-25 0 -41.5 17.5t-16.5 42.5zM225 660q0 25 16.5 42.5t41.5 17.5q24 0 41 -17.5t17 -42.5t-17 -42.5t-41 -17.5q-25 0 -41.5 17.5t-16.5 42.5z" />
    <glyph glyph-name="copyright" unicode="&#xa9;" horiz-adv-x="669" 
d="M335 559q124 0 205.5 -81.5t81.5 -205.5q0 -123 -81.5 -204t-205.5 -81t-206 81t-82 204q0 124 82 205.5t206 81.5zM335 519q-106 0 -173 -69.5t-67 -177.5q0 -106 67 -175.5t173 -69.5q105 0 172 69.5t67 175.5q0 108 -67 177.5t-172 69.5zM338 118q-62 0 -107.5 40
t-45.5 111q0 69 45.5 114.5t108.5 45.5q47 0 79 -22q8 -5 11 -5t5 6l3 8q1 6 8 6h8q6 0 6 -7l1 -86q0 -7 -7 -7h-10q-5 0 -7 5q-1 2 -2 3q-24 72 -84 72q-39 0 -66 -37.5t-27 -92.5q0 -57 24.5 -91.5t66.5 -34.5q70 0 88 78q1 7 8 7h11q7 0 7 -8l-1 -90q0 -7 -6 -7h-9
q-8 0 -9 7l-2 7q-1 6 -5 6q-2 0 -9 -4q-39 -24 -83 -24z" />
    <glyph glyph-name="guillemotleft" unicode="&#xab;" horiz-adv-x="570" 
d="M285 453l-114 -196l114 -199q5 -10 -5 -19l-13 -9q-11 -8 -20 3l-192 209q-5 7 -5 13v1q0 6 5 13l192 209q11 10 21 3l13 -9q11 -8 4 -19zM507 440l-101 -183l101 -186q6 -10 -4 -19l-15 -10q-10 -6 -19 4l-178 196q-5 7 -5 13v1q0 6 5 13l178 196q11 11 21 3l13 -9
q10 -6 4 -19z" />
    <glyph glyph-name="registered" unicode="&#xae;" horiz-adv-x="631" 
d="M315 263q-112 0 -183.5 72t-71.5 183q0 112 71.5 184.5t183.5 72.5t184 -72.5t72 -184.5q0 -111 -72 -183t-184 -72zM315 297q95 0 156.5 63t61.5 158q0 97 -61 160t-157 63t-157 -63t-61 -160q0 -95 61.5 -158t156.5 -63zM279 534h30q28 0 42 14.5t14 36.5
q0 26 -12.5 38t-42.5 12h-22q-9 0 -9 -10v-91zM312 404v-7q0 -7 -7 -7h-109q-7 0 -7 7v8q0 7 8 7h6q27 0 27 24v174q0 14 -6 20t-21 6h-6q-9 0 -9 8v6q0 8 8 8h118q100 0 100 -68q0 -57 -63 -69q11 -5 18 -15l50 -70q17 -23 42 -26q8 -2 8 -9v-4q0 -7 -8 -7h-60q-11 0 -17 9
l-67 98q-11 16 -27 16h-11v-77q0 -14 4 -19.5t15 -5.5h5q9 0 9 -7z" />
    <glyph glyph-name="overscore" unicode="&#xaf;" horiz-adv-x="350" 
d="M291 630h-232q-12 0 -15.5 3t-3.5 15v28q0 12 3.5 15t17.5 3h228q14 0 17.5 -3t3.5 -15v-28q0 -12 -3.5 -15t-15.5 -3z" />
    <glyph glyph-name="acute" unicode="&#xb4;" horiz-adv-x="288" 
d="M210 756q17 0 29 -14t12 -30q0 -27 -29 -43l-154 -89q-12 -8 -21 1l-6 7q-8 9 4 21l123 125q22 22 42 22z" />
    <glyph glyph-name="mu" unicode="&#xb5;" horiz-adv-x="622" 
d="M486 170q3 -53 13.5 -76.5t38.5 -23.5q19 0 38 7q12 5 16 -2l6 -8q8 -10 -1 -19q-55 -53 -101 -53q-71 0 -79 95q-65 -95 -154 -95q-59 0 -98 35l21 -288q2 -20 -19 -20h-67q-10 0 -14.5 4t-4.5 15q0 139 20 401q-2 37 -7 120t-9.5 150t-4.5 77q0 17 5.5 22t20.5 5h60
q14 0 18 -5.5t4 -23.5q0 -9 -3 -68t-7 -131t-5 -101q0 -58 31.5 -86t82.5 -28q41 0 69.5 17.5t56.5 53.5q-14 244 -14 345q0 17 5.5 22t20.5 5h60q14 0 18 -5.5t4 -23.5q0 -14 -4.5 -76.5t-9.5 -137t-7 -103.5z" />
    <glyph glyph-name="middot" unicode="&#xb7;" horiz-adv-x="240" 
d="M120 267q-29 0 -49.5 20t-20.5 49q0 30 20.5 50.5t49.5 20.5q30 0 50 -20.5t20 -50.5q0 -29 -20 -49t-50 -20z" />
    <glyph glyph-name="cedilla" unicode="&#xb8;" horiz-adv-x="299" 
d="M49 -274q-9 3 -9 11v11q0 13 11 13h16q50 0 83 16.5t33 48.5q0 24 -23.5 37t-72.5 22q-6 1 -7 5.5t4 11.5l83 107h46l-59 -76q105 -14 105 -90q0 -51 -45.5 -86t-119.5 -35q-29 0 -45 4z" />
    <glyph glyph-name="guillemotright" unicode="&#xbb;" horiz-adv-x="570" 
d="M303 30l-13 9q-10 9 -5 19l114 199l-114 196q-7 11 4 19l13 9q10 7 21 -3l192 -209q5 -7 5 -13v-1q0 -6 -5 -13l-192 -209q-9 -11 -20 -3zM82 42l-15 10q-10 9 -4 19l100 186l-100 183q-6 13 4 19l13 9q10 8 21 -3l178 -196q5 -7 5 -13v-1q0 -6 -5 -13l-178 -196
q-9 -10 -19 -4z" />
    <glyph glyph-name="questiondown" unicode="&#xbf;" horiz-adv-x="377" 
d="M235 329h8q9 0 12 -3t3 -13v-168q0 -28 -11.5 -42t-36.5 -25l-52 -22q-30 -12 -42 -26t-12 -39q0 -54 59 -71q31 -10 75 -16q60 -11 60 -58q0 -23 -16 -37.5t-43 -14.5q-74 0 -123 74.5t-49 172.5q0 47 14 71t47 42l42 22q30 14 40 29.5t10 51.5v56q0 10 3 13t12 3z
M239 532q29 0 48 -19t19 -48q0 -28 -19 -47t-48 -19q-28 0 -47 19t-19 47q0 29 19 48t47 19z" />
    <glyph glyph-name="Agrave" unicode="&#xc0;" 
d="M380 704l225 -578q16 -42 35 -61.5t51 -19.5h6q14 0 14 -18v-10q0 -17 -16 -17h-265q-16 0 -16 16v10q0 19 19 19h7q25 0 39.5 6.5t18 20t1.5 28t-10 36.5l-42 110h-239l-37 -103q-35 -98 47 -98h6q22 0 22 -19v-9q0 -17 -17 -17h-207q-22 0 -22 17v8q0 20 20 20h3
q57 0 93 98l182 481l-4 11q-8 20 6 28q24 14 51 44q7 7 16 7q10 0 13 -10zM324 566l-99 -275h204zM424 763l-176 67q-39 16 -39 43q0 19 12 33t30 14q17 0 38 -15l152 -108q15 -10 8 -22l-4 -7q-6 -11 -21 -5z" />
    <glyph glyph-name="Aacute" unicode="&#xc1;" 
d="M380 704l225 -578q16 -42 35 -61.5t51 -19.5h6q14 0 14 -18v-10q0 -17 -16 -17h-265q-16 0 -16 16v10q0 19 19 19h7q25 0 39.5 6.5t18 20t1.5 28t-10 36.5l-42 110h-239l-37 -103q-35 -98 47 -98h6q22 0 22 -19v-9q0 -17 -17 -17h-207q-22 0 -22 17v8q0 20 20 20h3
q57 0 93 98l182 481l-4 11q-8 20 6 28q24 14 51 44q7 7 16 7q10 0 13 -10zM324 566l-99 -275h204zM254 769l-3 6q-6 13 7 22l150 105q25 17 42 17q19 0 30.5 -13.5t11.5 -31.5q0 -27 -41 -44l-175 -67q-10 -4 -14 -3t-8 9z" />
    <glyph glyph-name="Acircumflex" unicode="&#xc2;" 
d="M380 704l225 -578q16 -42 35 -61.5t51 -19.5h6q14 0 14 -18v-10q0 -17 -16 -17h-265q-16 0 -16 16v10q0 19 19 19h7q25 0 39.5 6.5t18 20t1.5 28t-10 36.5l-42 110h-239l-37 -103q-35 -98 47 -98h6q22 0 22 -19v-9q0 -17 -17 -17h-207q-22 0 -22 17v8q0 20 20 20h3
q57 0 93 98l182 481l-4 11q-8 20 6 28q24 14 51 44q7 7 16 7q10 0 13 -10zM324 566l-99 -275h204zM337 918h22q11 0 20 -9l111 -114q9 -9 1 -19l-7 -9q-8 -9 -18 -3l-119 75l-125 -75q-11 -8 -19 3l-8 9q-8 9 2 19l120 114q9 9 20 9z" />
    <glyph glyph-name="Atilde" unicode="&#xc3;" 
d="M380 704l225 -578q16 -42 35 -61.5t51 -19.5h6q14 0 14 -18v-10q0 -17 -16 -17h-265q-16 0 -16 16v10q0 19 19 19h7q25 0 39.5 6.5t18 20t1.5 28t-10 36.5l-42 110h-239l-37 -103q-35 -98 47 -98h6q22 0 22 -19v-9q0 -17 -17 -17h-207q-22 0 -22 17v8q0 20 20 20h3
q57 0 93 98l182 481l-4 11q-8 20 6 28q24 14 51 44q7 7 16 7q10 0 13 -10zM324 566l-99 -275h204zM414 791q-22 0 -40 7l-62 20q-22 8 -37 8q-27 0 -49 -41q-5 -10 -16 -5l-11 4q-9 5 -5 17q37 97 91 97q16 0 39 -7l62 -20q26 -9 41 -9t25 7.5t22 29.5q6 11 17 7l11 -4
q8 -3 4 -17q-31 -94 -92 -94z" />
    <glyph glyph-name="Adieresis" unicode="&#xc4;" 
d="M380 704l225 -578q16 -42 35 -61.5t51 -19.5h6q14 0 14 -18v-10q0 -17 -16 -17h-265q-16 0 -16 16v10q0 19 19 19h7q25 0 39.5 6.5t18 20t1.5 28t-10 36.5l-42 110h-239l-37 -103q-35 -98 47 -98h6q22 0 22 -19v-9q0 -17 -17 -17h-207q-22 0 -22 17v8q0 20 20 20h3
q57 0 93 98l182 481l-4 11q-8 20 6 28q24 14 51 44q7 7 16 7q10 0 13 -10zM324 566l-99 -275h204zM178 850q0 26 18.5 44.5t44.5 18.5t44.5 -18.5t18.5 -44.5t-18.5 -44.5t-44.5 -18.5t-44.5 18.5t-18.5 44.5zM390 850q0 26 18.5 44.5t44.5 18.5t44.5 -18.5t18.5 -44.5
t-18.5 -44.5t-44.5 -18.5t-44.5 18.5t-18.5 44.5z" />
    <glyph glyph-name="Aring" unicode="&#xc5;" 
d="M380 704l225 -578q16 -42 35 -61.5t51 -19.5h6q14 0 14 -18v-10q0 -17 -16 -17h-265q-16 0 -16 16v10q0 19 19 19h7q25 0 39.5 6.5t18 20t1.5 28t-10 36.5l-42 110h-239l-37 -103q-35 -98 47 -98h6q22 0 22 -19v-9q0 -17 -17 -17h-207q-22 0 -22 17v8q0 20 20 20h3
q57 0 93 98l182 481l-4 11q-8 20 6 28q24 14 51 44q7 7 16 7q10 0 13 -10zM324 566l-99 -275h204zM350 750q-42 0 -70.5 29t-28.5 73q0 42 28.5 70t70.5 28q41 0 70.5 -28.5t29.5 -69.5q0 -43 -29 -72.5t-71 -29.5zM350 793q24 0 39.5 16.5t15.5 42.5q0 23 -15.5 39
t-39.5 16q-23 0 -38.5 -16t-15.5 -39q0 -26 15.5 -42.5t38.5 -16.5z" />
    <glyph glyph-name="AE" unicode="&#xc6;" horiz-adv-x="1008" 
d="M662 655h-63q-14 0 -18 -4.5t-4 -17.5v-247h105q33 0 48.5 24t15.5 61v7q0 19 19 19h11q17 0 17 -23v-209q0 -11 -3.5 -15t-13.5 -4h-10q-19 0 -19 20v8q0 67 -66 67h-104v-238q0 -30 10 -44t40 -14h73q73 0 114 21.5t72 71.5l26 42q10 17 26 12l10 -3q13 -4 9 -23
l-29 -136q-4 -18 -12.5 -24t-26.5 -6h-507q-21 0 -21 18v11q0 9 4.5 12.5t18.5 3.5h10q43 0 59.5 15t16.5 50v140h-212l-58 -107q-55 -98 27 -98h6q22 0 22 -19v-9q0 -17 -17 -17h-216q-22 0 -22 17v8q0 20 20 20h4q36 0 63 25.5t54 72.5l282 509q-17 3 -55 3h-6
q-21 0 -21 18v11q0 9 4.5 12.5t18.5 3.5h501q20 0 27.5 -5t9.5 -24l16 -122q2 -14 -10 -17l-8 -2q-14 -4 -25 14l-20 32q-29 46 -67.5 62.5t-125.5 16.5zM282 295h188v345z" />
    <glyph glyph-name="Ccedilla" unicode="&#xc7;" horiz-adv-x="798" 
d="M433 -14q-161 0 -266 103.5t-105 260.5q0 172 109 268t264 96q101 0 199 -53q10 -6 17 -6q5 0 9 7l13 26q3 8 11 8h14q10 0 10 -13l5 -184q0 -18 -13 -18h-19q-11 0 -14 11q-18 83 -84 131.5t-155 48.5q-111 0 -175 -85t-64 -227q0 -139 69 -235.5t185 -96.5
q90 0 150 50.5t77 140.5q3 13 15 13h20q13 0 13 -19l-4 -193q0 -12 -11 -12h-15q-10 0 -14 10l-10 23q-3 7 -9 7q-7 0 -11 -4q-94 -58 -211 -58zM327 -274q-9 3 -9 11v11q0 13 11 13h16q50 0 83 16.5t33 48.5q0 24 -23.5 37t-72.5 22q-6 1 -7 5.5t4 11.5l83 107h46l-59 -76
q105 -14 105 -90q0 -51 -45.5 -86t-119.5 -35q-29 0 -45 4z" />
    <glyph glyph-name="Egrave" unicode="&#xc8;" horiz-adv-x="730" 
d="M384 655h-88q-14 0 -18 -4.5t-4 -17.5v-247h130q33 0 48.5 24t15.5 61v7q0 19 19 19h11q17 0 17 -23v-209q0 -11 -3.5 -15t-13.5 -4h-10q-19 0 -19 20v8q0 67 -66 67h-129v-238q0 -30 10 -44t40 -14h98q73 0 114 21.5t72 71.5l26 42q10 17 26 12l10 -3q13 -4 9 -23
l-29 -136q-4 -18 -12.5 -24t-26.5 -6h-535q-21 0 -21 18v11q0 9 4.5 12.5t18.5 3.5h10q43 0 59.5 15t16.5 50v480q0 36 -17 50.5t-65 14.5h-6q-21 0 -21 18v11q0 9 4.5 12.5t18.5 3.5h509q20 0 27.5 -5t9.5 -24l16 -122q2 -14 -10 -17l-8 -2q-14 -4 -25 14l-20 32
q-29 46 -67.5 62.5t-125.5 16.5zM444 763l-176 67q-39 16 -39 43q0 19 12 33t30 14q17 0 38 -15l152 -108q15 -10 8 -22l-4 -7q-6 -11 -21 -5z" />
    <glyph glyph-name="Eacute" unicode="&#xc9;" horiz-adv-x="730" 
d="M384 655h-88q-14 0 -18 -4.5t-4 -17.5v-247h130q33 0 48.5 24t15.5 61v7q0 19 19 19h11q17 0 17 -23v-209q0 -11 -3.5 -15t-13.5 -4h-10q-19 0 -19 20v8q0 67 -66 67h-129v-238q0 -30 10 -44t40 -14h98q73 0 114 21.5t72 71.5l26 42q10 17 26 12l10 -3q13 -4 9 -23
l-29 -136q-4 -18 -12.5 -24t-26.5 -6h-535q-21 0 -21 18v11q0 9 4.5 12.5t18.5 3.5h10q43 0 59.5 15t16.5 50v480q0 36 -17 50.5t-65 14.5h-6q-21 0 -21 18v11q0 9 4.5 12.5t18.5 3.5h509q20 0 27.5 -5t9.5 -24l16 -122q2 -14 -10 -17l-8 -2q-14 -4 -25 14l-20 32
q-29 46 -67.5 62.5t-125.5 16.5zM286 769l-3 6q-6 13 7 22l150 105q25 17 42 17q19 0 30.5 -13.5t11.5 -31.5q0 -27 -41 -44l-175 -67q-10 -4 -14 -3t-8 9z" />
    <glyph glyph-name="Ecircumflex" unicode="&#xca;" horiz-adv-x="730" 
d="M384 655h-88q-14 0 -18 -4.5t-4 -17.5v-247h130q33 0 48.5 24t15.5 61v7q0 19 19 19h11q17 0 17 -23v-209q0 -11 -3.5 -15t-13.5 -4h-10q-19 0 -19 20v8q0 67 -66 67h-129v-238q0 -30 10 -44t40 -14h98q73 0 114 21.5t72 71.5l26 42q10 17 26 12l10 -3q13 -4 9 -23
l-29 -136q-4 -18 -12.5 -24t-26.5 -6h-535q-21 0 -21 18v11q0 9 4.5 12.5t18.5 3.5h10q43 0 59.5 15t16.5 50v480q0 36 -17 50.5t-65 14.5h-6q-21 0 -21 18v11q0 9 4.5 12.5t18.5 3.5h509q20 0 27.5 -5t9.5 -24l16 -122q2 -14 -10 -17l-8 -2q-14 -4 -25 14l-20 32
q-29 46 -67.5 62.5t-125.5 16.5zM355 928h22q11 0 20 -9l111 -114q8 -9 1 -19l-7 -9q-8 -9 -18 -3l-119 75l-125 -75q-11 -8 -19 3l-8 9q-8 9 2 19l120 114q9 9 20 9z" />
    <glyph glyph-name="Edieresis" unicode="&#xcb;" horiz-adv-x="730" 
d="M384 655h-88q-14 0 -18 -4.5t-4 -17.5v-247h130q33 0 48.5 24t15.5 61v7q0 19 19 19h11q17 0 17 -23v-209q0 -11 -3.5 -15t-13.5 -4h-10q-19 0 -19 20v8q0 67 -66 67h-129v-238q0 -30 10 -44t40 -14h98q73 0 114 21.5t72 71.5l26 42q10 17 26 12l10 -3q13 -4 9 -23
l-29 -136q-4 -18 -12.5 -24t-26.5 -6h-535q-21 0 -21 18v11q0 9 4.5 12.5t18.5 3.5h10q43 0 59.5 15t16.5 50v480q0 36 -17 50.5t-65 14.5h-6q-21 0 -21 18v11q0 9 4.5 12.5t18.5 3.5h509q20 0 27.5 -5t9.5 -24l16 -122q2 -14 -10 -17l-8 -2q-14 -4 -25 14l-20 32
q-29 46 -67.5 62.5t-125.5 16.5zM194 850q0 26 18.5 44.5t44.5 18.5t44.5 -18.5t18.5 -44.5t-18.5 -44.5t-44.5 -18.5t-44.5 18.5t-18.5 44.5zM406 850q0 26 18.5 44.5t44.5 18.5t44.5 -18.5t18.5 -44.5t-18.5 -44.5t-44.5 -18.5t-44.5 18.5t-18.5 44.5z" />
    <glyph glyph-name="Igrave" unicode="&#xcc;" horiz-adv-x="438" 
d="M164 110v480q0 36 -17 50.5t-65 14.5h-6q-21 0 -21 18v11q0 9 4.5 12.5t18.5 3.5h284q21 0 21 -18v-11q0 -9 -4.5 -12.5t-18.5 -3.5h-7q-45 0 -62 -14.5t-17 -50.5v-480q0 -36 16.5 -50.5t62.5 -14.5h9q21 0 21 -18v-11q0 -9 -4.5 -12.5t-18.5 -3.5h-284q-21 0 -21 18v11
q0 16 23 16h10q44 0 60 14.5t16 50.5zM307 763l-176 67q-39 16 -39 43q0 19 12 33t30 14q17 0 38 -15l152 -108q15 -10 8 -22l-4 -7q-6 -11 -21 -5z" />
    <glyph glyph-name="Iacute" unicode="&#xcd;" horiz-adv-x="438" 
d="M164 110v480q0 36 -17 50.5t-65 14.5h-6q-21 0 -21 18v11q0 9 4.5 12.5t18.5 3.5h284q21 0 21 -18v-11q0 -9 -4.5 -12.5t-18.5 -3.5h-7q-45 0 -62 -14.5t-17 -50.5v-480q0 -36 16.5 -50.5t62.5 -14.5h9q21 0 21 -18v-11q0 -9 -4.5 -12.5t-18.5 -3.5h-284q-21 0 -21 18v11
q0 16 23 16h10q44 0 60 14.5t16 50.5zM122 769l-3 6q-6 13 7 22l150 105q25 17 42 17q19 0 30.5 -13.5t11.5 -31.5q0 -27 -41 -44l-175 -67q-10 -4 -14 -3t-8 9z" />
    <glyph glyph-name="Icircumflex" unicode="&#xce;" horiz-adv-x="438" 
d="M164 110v480q0 36 -17 50.5t-65 14.5h-6q-21 0 -21 18v11q0 9 4.5 12.5t18.5 3.5h284q21 0 21 -18v-11q0 -9 -4.5 -12.5t-18.5 -3.5h-7q-45 0 -62 -14.5t-17 -50.5v-480q0 -36 16.5 -50.5t62.5 -14.5h9q21 0 21 -18v-11q0 -9 -4.5 -12.5t-18.5 -3.5h-284q-21 0 -21 18v11
q0 16 23 16h10q44 0 60 14.5t16 50.5zM215 928h22q11 0 20 -9l111 -114q8 -9 1 -19l-7 -9q-8 -9 -18 -3l-119 75l-125 -75q-11 -8 -19 3l-8 9q-8 9 2 19l120 114q9 9 20 9z" />
    <glyph glyph-name="Idieresis" unicode="&#xcf;" horiz-adv-x="438" 
d="M164 110v480q0 36 -17 50.5t-65 14.5h-6q-21 0 -21 18v11q0 9 4.5 12.5t18.5 3.5h284q21 0 21 -18v-11q0 -9 -4.5 -12.5t-18.5 -3.5h-7q-45 0 -62 -14.5t-17 -50.5v-480q0 -36 16.5 -50.5t62.5 -14.5h9q21 0 21 -18v-11q0 -9 -4.5 -12.5t-18.5 -3.5h-284q-21 0 -21 18v11
q0 16 23 16h10q44 0 60 14.5t16 50.5zM50 850q0 26 18.5 44.5t44.5 18.5t44.5 -18.5t18.5 -44.5t-18.5 -44.5t-44.5 -18.5t-44.5 18.5t-18.5 44.5zM262 850q0 26 18.5 44.5t44.5 18.5t44.5 -18.5t18.5 -44.5t-18.5 -44.5t-44.5 -18.5t-44.5 18.5t-18.5 44.5z" />
    <glyph glyph-name="Eth" unicode="&#xd0;" horiz-adv-x="849" 
d="M166 341h-94q-9 0 -12 3t-3 13v14q0 10 3 13t12 3h94v203q0 36 -17 50.5t-65 14.5h-6q-21 0 -21 18v11q0 9 4.5 12.5t18.5 3.5h344q70 0 133 -19.5t115.5 -58.5t83.5 -105.5t31 -152.5q0 -166 -108.5 -265t-267.5 -99h-333q-21 0 -21 18v11q0 9 4.5 12.5t18.5 3.5h10
q43 0 59.5 15t16.5 50v231zM275 341v-206q0 -52 20.5 -71t77.5 -19h38q119 0 184 86t65 224q0 134 -68 217t-176 83h-118q-23 0 -23 -24v-244h180q9 0 12 -3t3 -13v-14q0 -10 -3 -13t-12 -3h-180z" />
    <glyph glyph-name="Ntilde" unicode="&#xd1;" horiz-adv-x="820" 
d="M648 8l-448 553v-323q0 -81 9 -122.5t25 -54.5t49 -16l13 -1q13 -1 13 -18v-10q0 -16 -19 -16h-227q-13 0 -18 3.5t-5 14.5v9q0 16 21 17l12 1q40 2 58.5 43.5t18.5 149.5v272q0 81 -25 113t-72 32h-7q-16 0 -16 16v11q0 18 27 18h131q26 0 36 -5t25 -23l394 -483v294
q0 98 -19.5 133t-67.5 39l-11 1q-18 2 -18 17v9q0 11 4.5 14.5t16.5 3.5h227q23 0 23 -16v-11q0 -15 -17 -17l-12 -1q-41 -4 -58.5 -40t-17.5 -135v-466q0 -22 -17 -22h-3q-13 0 -25 16zM505 789q-22 0 -40 7l-62 20q-22 8 -37 8q-27 0 -49 -41q-5 -10 -16 -5l-11 4
q-9 5 -5 17q37 97 91 97q16 0 39 -7l62 -20q26 -9 41 -9t25 7.5t22 29.5q6 11 17 7l11 -4q8 -3 4 -17q-31 -94 -92 -94z" />
    <glyph glyph-name="Ograve" unicode="&#xd2;" horiz-adv-x="852" 
d="M663 340q0 143 -70 237.5t-180 94.5q-103 0 -163.5 -83t-60.5 -229q0 -90 28.5 -165t85.5 -121t133 -46q110 0 168.5 84t58.5 228zM790 350q0 -165 -106.5 -264.5t-257.5 -99.5q-69 0 -133.5 24t-116.5 68.5t-83 115t-31 156.5q0 116 53 200.5t134 124t177 39.5
q67 0 130 -22.5t116 -65.5t85.5 -115t32.5 -161zM515 763l-176 67q-39 16 -39 43q0 19 12 33t30 14q17 0 38 -15l152 -108q15 -10 8 -22l-4 -7q-6 -11 -21 -5z" />
    <glyph glyph-name="Oacute" unicode="&#xd3;" horiz-adv-x="852" 
d="M663 340q0 143 -70 237.5t-180 94.5q-103 0 -163.5 -83t-60.5 -229q0 -90 28.5 -165t85.5 -121t133 -46q110 0 168.5 84t58.5 228zM790 350q0 -165 -106.5 -264.5t-257.5 -99.5q-69 0 -133.5 24t-116.5 68.5t-83 115t-31 156.5q0 116 53 200.5t134 124t177 39.5
q67 0 130 -22.5t116 -65.5t85.5 -115t32.5 -161zM330 769l-3 6q-6 13 7 22l150 105q25 17 42 17q19 0 30.5 -13.5t11.5 -31.5q0 -27 -41 -44l-175 -67q-10 -4 -14 -3t-8 9z" />
    <glyph glyph-name="Ocircumflex" unicode="&#xd4;" horiz-adv-x="852" 
d="M663 340q0 143 -70 237.5t-180 94.5q-103 0 -163.5 -83t-60.5 -229q0 -90 28.5 -165t85.5 -121t133 -46q110 0 168.5 84t58.5 228zM790 350q0 -165 -106.5 -264.5t-257.5 -99.5q-69 0 -133.5 24t-116.5 68.5t-83 115t-31 156.5q0 116 53 200.5t134 124t177 39.5
q67 0 130 -22.5t116 -65.5t85.5 -115t32.5 -161zM411 928h22q11 0 20 -9l111 -114q8 -9 1 -19l-7 -9q-8 -9 -18 -3l-119 75l-125 -75q-11 -8 -19 3l-8 9q-8 9 2 19l120 114q9 9 20 9z" />
    <glyph glyph-name="Otilde" unicode="&#xd5;" horiz-adv-x="852" 
d="M663 340q0 143 -70 237.5t-180 94.5q-103 0 -163.5 -83t-60.5 -229q0 -90 28.5 -165t85.5 -121t133 -46q110 0 168.5 84t58.5 228zM790 350q0 -165 -106.5 -264.5t-257.5 -99.5q-69 0 -133.5 24t-116.5 68.5t-83 115t-31 156.5q0 116 53 200.5t134 124t177 39.5
q67 0 130 -22.5t116 -65.5t85.5 -115t32.5 -161zM493 794q-22 0 -40 7l-62 20q-22 8 -37 8q-27 0 -49 -41q-5 -10 -16 -5l-11 4q-9 5 -5 17q37 97 91 97q16 0 39 -7l62 -20q26 -9 41 -9t25 7.5t22 29.5q6 11 17 7l11 -4q8 -3 4 -17q-31 -94 -92 -94z" />
    <glyph glyph-name="Odieresis" unicode="&#xd6;" horiz-adv-x="852" 
d="M663 340q0 143 -70 237.5t-180 94.5q-103 0 -163.5 -83t-60.5 -229q0 -90 28.5 -165t85.5 -121t133 -46q110 0 168.5 84t58.5 228zM790 350q0 -165 -106.5 -264.5t-257.5 -99.5q-69 0 -133.5 24t-116.5 68.5t-83 115t-31 156.5q0 116 53 200.5t134 124t177 39.5
q67 0 130 -22.5t116 -65.5t85.5 -115t32.5 -161zM241 850q0 26 18.5 44.5t44.5 18.5t44.5 -18.5t18.5 -44.5t-18.5 -44.5t-44.5 -18.5t-44.5 18.5t-18.5 44.5zM453 850q0 26 18.5 44.5t44.5 18.5t44.5 -18.5t18.5 -44.5t-18.5 -44.5t-44.5 -18.5t-44.5 18.5t-18.5 44.5z" />
    <glyph glyph-name="Oslash" unicode="&#xd8;" horiz-adv-x="852" 
d="M706 682l-39 -52q123 -102 123 -280q0 -165 -106.5 -264.5t-257.5 -99.5q-115 0 -203 57l-40 -53q-9 -13 -20 -5l-14 10q-8 5 -8 9t6 13l40 52q-125 100 -125 281q0 116 53 200.5t134 124t177 39.5q110 0 204 -58l40 53q5 8 9.5 8.5t12.5 -5.5l12 -9q7 -5 7 -9t-5 -12z
M188 360q0 -128 56 -219l336 452q-69 79 -167 79q-103 0 -164 -83t-61 -229zM664 340q0 124 -56 216l-337 -452q66 -76 165 -76q110 0 169 84t59 228z" />
    <glyph glyph-name="Ugrave" unicode="&#xd9;" horiz-adv-x="800" 
d="M685 561v-262q0 -313 -269 -313q-61 0 -111.5 12.5t-93 40t-66 78.5t-23.5 121v352q0 36 -15 50.5t-53 14.5h-8q-12 0 -16.5 3t-4.5 14v11q0 9 4.5 13t18.5 4h267q21 0 21 -18v-11q0 -9 -3.5 -12.5t-14.5 -3.5h-5q-43 0 -59.5 -14.5t-16.5 -50.5v-351q0 -96 50 -146.5
t132 -50.5q109 0 156 56.5t47 189.5v278q0 47 -14.5 68t-56.5 21h-4q-20 0 -20 17v11q0 17 20 17h212q23 0 23 -16v-13q0 -16 -17 -16h-6q-43 0 -58.5 -19.5t-15.5 -74.5zM486 763l-176 67q-39 16 -39 43q0 19 12 33t30 14q17 0 38 -15l152 -108q15 -10 8 -22l-4 -7
q-6 -11 -21 -5z" />
    <glyph glyph-name="Uacute" unicode="&#xda;" horiz-adv-x="800" 
d="M685 561v-262q0 -313 -269 -313q-61 0 -111.5 12.5t-93 40t-66 78.5t-23.5 121v352q0 36 -15 50.5t-53 14.5h-8q-12 0 -16.5 3t-4.5 14v11q0 9 4.5 13t18.5 4h267q21 0 21 -18v-11q0 -9 -3.5 -12.5t-14.5 -3.5h-5q-43 0 -59.5 -14.5t-16.5 -50.5v-351q0 -96 50 -146.5
t132 -50.5q109 0 156 56.5t47 189.5v278q0 47 -14.5 68t-56.5 21h-4q-20 0 -20 17v11q0 17 20 17h212q23 0 23 -16v-13q0 -16 -17 -16h-6q-43 0 -58.5 -19.5t-15.5 -74.5zM352 769l-3 6q-6 13 7 22l150 105q25 17 42 17q19 0 30.5 -13.5t11.5 -31.5q0 -27 -41 -44l-175 -67
q-10 -4 -14 -3t-8 9z" />
    <glyph glyph-name="Ucircumflex" unicode="&#xdb;" horiz-adv-x="800" 
d="M685 561v-262q0 -313 -269 -313q-61 0 -111.5 12.5t-93 40t-66 78.5t-23.5 121v352q0 36 -15 50.5t-53 14.5h-8q-12 0 -16.5 3t-4.5 14v11q0 9 4.5 13t18.5 4h267q21 0 21 -18v-11q0 -9 -3.5 -12.5t-14.5 -3.5h-5q-43 0 -59.5 -14.5t-16.5 -50.5v-351q0 -96 50 -146.5
t132 -50.5q109 0 156 56.5t47 189.5v278q0 47 -14.5 68t-56.5 21h-4q-20 0 -20 17v11q0 17 20 17h212q23 0 23 -16v-13q0 -16 -17 -16h-6q-43 0 -58.5 -19.5t-15.5 -74.5zM416 918h22q11 0 20 -9l111 -114q9 -9 1 -19l-7 -9q-7 -9 -18 -3l-119 75l-125 -75q-11 -8 -19 3
l-8 9q-8 9 2 19l120 114q9 9 20 9z" />
    <glyph glyph-name="Udieresis" unicode="&#xdc;" horiz-adv-x="800" 
d="M685 561v-262q0 -313 -269 -313q-61 0 -111.5 12.5t-93 40t-66 78.5t-23.5 121v352q0 36 -15 50.5t-53 14.5h-8q-12 0 -16.5 3t-4.5 14v11q0 9 4.5 13t18.5 4h267q21 0 21 -18v-11q0 -9 -3.5 -12.5t-14.5 -3.5h-5q-43 0 -59.5 -14.5t-16.5 -50.5v-351q0 -96 50 -146.5
t132 -50.5q109 0 156 56.5t47 189.5v278q0 47 -14.5 68t-56.5 21h-4q-20 0 -20 17v11q0 17 20 17h212q23 0 23 -16v-13q0 -16 -17 -16h-6q-43 0 -58.5 -19.5t-15.5 -74.5zM247 850q0 26 18.5 44.5t44.5 18.5t44.5 -18.5t18.5 -44.5t-18.5 -44.5t-44.5 -18.5t-44.5 18.5
t-18.5 44.5zM459 850q0 26 18.5 44.5t44.5 18.5t44.5 -18.5t18.5 -44.5t-18.5 -44.5t-44.5 -18.5t-44.5 18.5t-18.5 44.5z" />
    <glyph glyph-name="Yacute" unicode="&#xdd;" horiz-adv-x="710" 
d="M303 279l-179 311q-22 38 -39 51.5t-51 13.5q-19 0 -19 17v11q0 17 18 17h259q16 0 16 -15v-10q0 -10 -4 -14t-15 -4h-7q-31 0 -39.5 -18.5t5.5 -41.5l143 -257l132 229q14 23 17 43t-7.5 32.5t-33.5 12.5h-10q-11 0 -14.5 4t-3.5 13v9q0 17 19 17h196q15 0 19.5 -4
t4.5 -15v-6q0 -19 -18 -19q-36 0 -58.5 -21t-55.5 -76l-165 -270v-179q0 -36 16.5 -50.5t62.5 -14.5h9q21 0 21 -18v-11q0 -9 -4.5 -12.5t-18.5 -3.5h-284q-21 0 -21 18v11q0 16 23 16h10q44 0 60 14.5t16 50.5v169zM309 769l-3 6q-6 13 7 22l150 105q25 17 42 17
q19 0 30.5 -13.5t11.5 -31.5q0 -27 -41 -44l-175 -67q-10 -4 -14 -3t-8 9z" />
    <glyph glyph-name="Thorn" unicode="&#xde;" horiz-adv-x="698" 
d="M164 110v480q0 36 -17 50.5t-65 14.5h-6q-21 0 -21 18v11q0 9 4.5 12.5t18.5 3.5h279q21 0 21 -18v-11q0 -9 -4.5 -12.5t-18.5 -3.5h-7q-45 0 -62 -14.5t-17 -50.5v-30q70 6 105 6q45 0 82 -5t71.5 -17.5t58.5 -33t38 -54t14 -77.5q0 -110 -77 -163.5t-197 -53.5
q-48 0 -95 5v-57q0 -36 16.5 -50.5t62.5 -14.5h9q21 0 21 -18v-11q0 -9 -4.5 -12.5t-18.5 -3.5h-279q-21 0 -21 18v11q0 16 23 16h10q44 0 60 14.5t16 50.5zM358 522q-62 0 -89 -3v-309q44 -4 91 -4q83 0 127.5 42t44.5 118q0 156 -174 156z" />
    <glyph glyph-name="germandbls" unicode="&#xdf;" horiz-adv-x="683" 
d="M591 633q0 -48 -24.5 -76.5t-89.5 -68.5q-34 -21 -51 -42t-17 -52q0 -47 61 -72l53 -23q64 -28 94.5 -62t30.5 -92q0 -71 -45.5 -110.5t-126.5 -39.5q-83 0 -137 24q-9 4 -11 22l-5 100q-1 16 13 18l13 1q10 1 13 -10q15 -57 43 -85t80 -28q36 0 58 21.5t22 54.5
q0 38 -18.5 59t-60.5 40l-68 31q-91 41 -91 127q0 48 25 77t84 69q32 22 47 46t15 63q0 43 -32 67.5t-96 24.5q-65 0 -105.5 -33t-40.5 -98v-471q0 -39 6 -54.5t29 -18.5l8 -1q15 -3 15 -18v-9q0 -8 -2.5 -11t-11.5 -3h-197q-11 0 -14 3.5t-3 12.5v10q0 15 14 17l8 1
q32 4 42.5 18.5t10.5 52.5v341h-77q-15 0 -9 19l9 28q4 13 18 13h59v57q0 86 68.5 136.5t181.5 50.5q89 0 150.5 -31.5t61.5 -95.5z" />
    <glyph glyph-name="agrave" unicode="&#xe0;" horiz-adv-x="532" 
d="M169 -5q-49 0 -80 30t-31 80q0 55 38.5 89t120.5 67q58 22 110 50l1 80q0 48 -21 69t-64 21q-31 0 -59 -17t-28 -37q0 -5 1 -18.5t1 -20.5q0 -28 -15 -46t-44 -18q-51 0 -51 48q0 56 81.5 104.5t160.5 48.5q64 0 99 -31t34 -90l-3 -293q0 -39 28 -39q27 0 45 48q3 8 13 7
l8 -2q8 -2 7 -12q-9 -46 -37.5 -81.5t-74.5 -35.5q-76 0 -81 96q-75 -97 -159 -97zM217 62q52 0 110 73v135l-82 -36q-50 -24 -72 -47t-22 -54q0 -32 18 -51.5t48 -19.5zM323 579l-154 92q-27 17 -27 43q0 17 13 30.5t30 13.5q21 0 39 -20l121 -130q11 -12 3 -20l-7 -9
q-6 -7 -18 0z" />
    <glyph glyph-name="aacute" unicode="&#xe1;" horiz-adv-x="532" 
d="M169 -5q-49 0 -80 30t-31 80q0 55 38.5 89t120.5 67q58 22 110 50l1 80q0 48 -21 69t-64 21q-31 0 -59 -17t-28 -37q0 -5 1 -18.5t1 -20.5q0 -28 -15 -46t-44 -18q-51 0 -51 48q0 56 81.5 104.5t160.5 48.5q64 0 99 -31t34 -90l-3 -293q0 -39 28 -39q27 0 45 48q3 8 13 7
l8 -2q8 -2 7 -12q-9 -46 -37.5 -81.5t-74.5 -35.5q-76 0 -81 96q-75 -97 -159 -97zM217 62q52 0 110 73v135l-82 -36q-50 -24 -72 -47t-22 -54q0 -32 18 -51.5t48 -19.5zM344 756q17 0 29 -14t12 -30q0 -27 -29 -43l-154 -89q-12 -8 -21 1l-6 7q-8 9 4 21l123 125
q22 22 42 22z" />
    <glyph glyph-name="acircumflex" unicode="&#xe2;" horiz-adv-x="532" 
d="M169 -5q-49 0 -80 30t-31 80q0 55 38.5 89t120.5 67q58 22 110 50l1 80q0 48 -21 69t-64 21q-31 0 -59 -17t-28 -37q0 -5 1 -18.5t1 -20.5q0 -28 -15 -46t-44 -18q-51 0 -51 48q0 56 81.5 104.5t160.5 48.5q64 0 99 -31t34 -90l-3 -293q0 -39 28 -39q27 0 45 48q3 8 13 7
l8 -2q8 -2 7 -12q-9 -46 -37.5 -81.5t-74.5 -35.5q-76 0 -81 96q-75 -97 -159 -97zM217 62q52 0 110 73v135l-82 -36q-50 -24 -72 -47t-22 -54q0 -32 18 -51.5t48 -19.5zM346 575l-99 98l-107 -98q-10 -9 -20 0l-7 6q-10 9 -1 20l114 149q8 10 18 10h7q8 0 16 -9l109 -151
q7 -10 -2 -18l-8 -7q-10 -9 -20 0z" />
    <glyph glyph-name="atilde" unicode="&#xe3;" horiz-adv-x="532" 
d="M169 -5q-49 0 -80 30t-31 80q0 55 38.5 89t120.5 67q58 22 110 50l1 80q0 48 -21 69t-64 21q-31 0 -59 -17t-28 -37q0 -5 1 -18.5t1 -20.5q0 -28 -15 -46t-44 -18q-51 0 -51 48q0 56 81.5 104.5t160.5 48.5q64 0 99 -31t34 -90l-3 -293q0 -39 28 -39q27 0 45 48q3 8 13 7
l8 -2q8 -2 7 -12q-9 -46 -37.5 -81.5t-74.5 -35.5q-76 0 -81 96q-75 -97 -159 -97zM217 62q52 0 110 73v135l-82 -36q-50 -24 -72 -47t-22 -54q0 -32 18 -51.5t48 -19.5zM186 716q22 0 55 -14l36 -15q19 -9 36 -9q30 0 49 40q5 12 16 9l11 -3q12 -3 7 -17q-11 -45 -35 -70.5
t-57 -25.5q-24 0 -54 13l-38 16q-21 8 -33 8q-31 0 -49 -42q-4 -10 -16 -7l-11 3q-13 3 -8 17q29 97 91 97z" />
    <glyph glyph-name="adieresis" unicode="&#xe4;" horiz-adv-x="532" 
d="M169 -5q-49 0 -80 30t-31 80q0 55 38.5 89t120.5 67q58 22 110 50l1 80q0 48 -21 69t-64 21q-31 0 -59 -17t-28 -37q0 -5 1 -18.5t1 -20.5q0 -28 -15 -46t-44 -18q-51 0 -51 48q0 56 81.5 104.5t160.5 48.5q64 0 99 -31t34 -90l-3 -293q0 -39 28 -39q27 0 45 48q3 8 13 7
l8 -2q8 -2 7 -12q-9 -46 -37.5 -81.5t-74.5 -35.5q-76 0 -81 96q-75 -97 -159 -97zM217 62q52 0 110 73v135l-82 -36q-50 -24 -72 -47t-22 -54q0 -32 18 -51.5t48 -19.5zM96 660q0 25 16.5 42.5t41.5 17.5q24 0 41 -17.5t17 -42.5t-17 -42.5t-41 -17.5q-25 0 -41.5 17.5
t-16.5 42.5zM281 660q0 25 16.5 42.5t41.5 17.5q24 0 41 -17.5t17 -42.5t-17 -42.5t-41 -17.5q-25 0 -41.5 17.5t-16.5 42.5z" />
    <glyph glyph-name="aring" unicode="&#xe5;" horiz-adv-x="532" 
d="M169 -5q-49 0 -80 30t-31 80q0 55 38.5 89t120.5 67q58 22 110 50l1 80q0 48 -21 69t-64 21q-31 0 -59 -17t-28 -37q0 -5 1 -18.5t1 -20.5q0 -28 -15 -46t-44 -18q-51 0 -51 48q0 56 81.5 104.5t160.5 48.5q64 0 99 -31t34 -90l-3 -293q0 -39 28 -39q27 0 45 48q3 8 13 7
l8 -2q8 -2 7 -12q-9 -46 -37.5 -81.5t-74.5 -35.5q-76 0 -81 96q-75 -97 -159 -97zM217 62q52 0 110 73v135l-82 -36q-50 -24 -72 -47t-22 -54q0 -32 18 -51.5t48 -19.5zM249 572q-41 0 -69.5 27.5t-28.5 71.5q0 43 28.5 70t69.5 27q43 0 71 -26.5t28 -70.5t-28 -71.5
t-71 -27.5zM249 614q24 0 38.5 15.5t14.5 41.5q0 25 -15 40t-38 15q-22 0 -37 -15.5t-15 -39.5q0 -26 15 -41.5t37 -15.5z" />
    <glyph glyph-name="ae" unicode="&#xe6;" horiz-adv-x="805" 
d="M290 525q87 0 119 -59q61 55 156 55q87 0 141.5 -55t54.5 -128q0 -19 -18 -19h-317q-1 -12 -1 -35q0 -93 42 -155t129 -62q75 0 130 70q9 12 20 4l8 -5q10 -6 3 -19q-63 -122 -193 -122q-68 0 -121 31t-82 88q-88 -119 -192 -119q-49 0 -80 30t-31 80q0 55 38.5 89
t120.5 67q73 28 110 50l1 80q1 48 -20 69t-65 21q-31 0 -59 -17t-28 -37q0 -5 1 -18.5t1 -20.5q0 -28 -15 -46t-44 -18q-51 0 -51 48q0 56 81.5 104.5t160.5 48.5zM217 62q33 0 63 21.5t66 64.5q-20 55 -19 116v6l-82 -36q-50 -24 -72 -47t-22 -54q0 -32 18 -51.5t48 -19.5z
M561 485q-95 0 -128 -124h197q13 0 18 4t5 16q0 48 -24.5 76t-67.5 28z" />
    <glyph glyph-name="ccedilla" unicode="&#xe7;" horiz-adv-x="514" 
d="M289 -5q-107 0 -175.5 71t-68.5 191q0 122 69 193t178 71q67 0 118.5 -32t51.5 -74q0 -25 -14.5 -39t-37.5 -14q-46 0 -58 50q-5 23 -10 37q-12 36 -54 36q-65 0 -101 -58t-36 -156q0 -84 43 -144t120 -60t132 69q9 13 19 6l10 -6q9 -4 4 -17q-20 -46 -69.5 -85
t-120.5 -39zM169 -274q-9 3 -9 11v11q0 13 11 13h16q50 0 83 16.5t33 48.5q0 24 -23.5 37t-72.5 22q-6 1 -7 5.5t4 11.5l83 107h46l-59 -76q105 -14 105 -90q0 -51 -45.5 -86t-119.5 -35q-29 0 -45 4z" />
    <glyph glyph-name="egrave" unicode="&#xe8;" horiz-adv-x="530" 
d="M321 67q75 0 130 70q9 12 20 4l8 -5q10 -6 3 -19q-63 -122 -193 -122q-107 0 -175.5 73.5t-68.5 192.5q0 122 69 191t176 69q87 0 141.5 -55t54.5 -128q0 -19 -18 -19h-317q-1 -12 -1 -35q0 -93 42 -155t129 -62zM286 485q-95 0 -128 -124h197q13 0 18 4t5 16
q0 48 -24.5 76t-67.5 28zM358 579l-154 92q-27 17 -27 43q0 17 13 30.5t30 13.5q21 0 39 -20l121 -130q11 -12 3 -20l-7 -9q-6 -7 -18 0z" />
    <glyph glyph-name="eacute" unicode="&#xe9;" horiz-adv-x="530" 
d="M321 67q75 0 130 70q9 12 20 4l8 -5q10 -6 3 -19q-63 -122 -193 -122q-107 0 -175.5 73.5t-68.5 192.5q0 122 69 191t176 69q87 0 141.5 -55t54.5 -128q0 -19 -18 -19h-317q-1 -12 -1 -35q0 -93 42 -155t129 -62zM286 485q-95 0 -128 -124h197q13 0 18 4t5 16
q0 48 -24.5 76t-67.5 28zM383 756q17 0 29 -14t12 -30q0 -27 -29 -43l-154 -89q-12 -8 -21 1l-6 7q-8 9 4 21l123 125q22 22 42 22z" />
    <glyph glyph-name="ecircumflex" unicode="&#xea;" horiz-adv-x="530" 
d="M321 67q75 0 130 70q9 12 20 4l8 -5q10 -6 3 -19q-63 -122 -193 -122q-107 0 -175.5 73.5t-68.5 192.5q0 122 69 191t176 69q87 0 141.5 -55t54.5 -128q0 -19 -18 -19h-317q-1 -12 -1 -35q0 -93 42 -155t129 -62zM286 485q-95 0 -128 -124h197q13 0 18 4t5 16
q0 48 -24.5 76t-67.5 28zM383 575l-99 98l-107 -98q-10 -9 -20 0l-7 6q-10 9 -1 20l114 149q8 10 18 10h7q8 0 16 -9l109 -151q7 -10 -2 -18l-8 -7q-10 -9 -20 0z" />
    <glyph glyph-name="edieresis" unicode="&#xeb;" horiz-adv-x="530" 
d="M321 67q75 0 130 70q9 12 20 4l8 -5q10 -6 3 -19q-63 -122 -193 -122q-107 0 -175.5 73.5t-68.5 192.5q0 122 69 191t176 69q87 0 141.5 -55t54.5 -128q0 -19 -18 -19h-317q-1 -12 -1 -35q0 -93 42 -155t129 -62zM286 485q-95 0 -128 -124h197q13 0 18 4t5 16
q0 48 -24.5 76t-67.5 28zM129 660q0 25 16.5 42.5t41.5 17.5q24 0 41 -17.5t17 -42.5t-17 -42.5t-41 -17.5q-25 0 -41.5 17.5t-16.5 42.5zM314 660q0 25 16.5 42.5t41.5 17.5q24 0 41 -17.5t17 -42.5t-17 -42.5t-41 -17.5q-25 0 -41.5 17.5t-16.5 42.5z" />
    <glyph glyph-name="igrave" unicode="&#xec;" horiz-adv-x="331" 
d="M125 115v283q0 19 -8.5 26.5t-28.5 9.5l-25 2q-5 1 -7 1.5t-3.5 3t-1.5 7.5v9q0 11 9 15l131 51q8 3 15 -1l9 -6q5 -4 5 -13v-388q0 -38 8.5 -52.5t39.5 -18.5l8 -1q15 -3 15 -18v-11q0 -8 -2.5 -11t-11.5 -3h-210q-11 0 -14 3.5t-3 12.5v10q0 15 14 17l8 1
q32 4 42.5 18.5t10.5 52.5zM230 579l-154 92q-27 17 -27 43q0 17 13 30.5t30 13.5q21 0 39 -20l121 -130q11 -12 3 -20l-7 -9q-6 -7 -18 0z" />
    <glyph glyph-name="iacute" unicode="&#xed;" horiz-adv-x="331" 
d="M125 115v283q0 19 -8.5 26.5t-28.5 9.5l-25 2q-5 1 -7 1.5t-3.5 3t-1.5 7.5v9q0 11 9 15l131 51q8 3 15 -1l9 -6q5 -4 5 -13v-388q0 -38 8.5 -52.5t39.5 -18.5l8 -1q15 -3 15 -18v-11q0 -8 -2.5 -11t-11.5 -3h-210q-11 0 -14 3.5t-3 12.5v10q0 15 14 17l8 1
q32 4 42.5 18.5t10.5 52.5zM243 756q17 0 29 -14t12 -30q0 -27 -29 -43l-154 -89q-12 -8 -21 1l-6 7q-8 9 4 21l123 125q22 22 42 22z" />
    <glyph glyph-name="icircumflex" unicode="&#xee;" horiz-adv-x="331" 
d="M125 115v283q0 19 -8.5 26.5t-28.5 9.5l-25 2q-5 1 -7 1.5t-3.5 3t-1.5 7.5v9q0 11 9 15l131 51q8 3 15 -1l9 -6q5 -4 5 -13v-388q0 -38 8.5 -52.5t39.5 -18.5l8 -1q15 -3 15 -18v-11q0 -8 -2.5 -11t-11.5 -3h-210q-11 0 -14 3.5t-3 12.5v10q0 15 14 17l8 1
q32 4 42.5 18.5t10.5 52.5zM261 575l-99 98l-107 -98q-10 -9 -20 0l-7 6q-10 9 -1 20l114 149q8 10 18 10h7q8 0 16 -9l109 -151q7 -10 -2 -18l-8 -7q-10 -9 -20 0z" />
    <glyph glyph-name="idieresis" unicode="&#xef;" horiz-adv-x="331" 
d="M125 115v283q0 19 -8.5 26.5t-28.5 9.5l-25 2q-5 1 -7 1.5t-3.5 3t-1.5 7.5v9q0 11 9 15l131 51q8 3 15 -1l9 -6q5 -4 5 -13v-388q0 -38 8.5 -52.5t39.5 -18.5l8 -1q15 -3 15 -18v-11q0 -8 -2.5 -11t-11.5 -3h-210q-11 0 -14 3.5t-3 12.5v10q0 15 14 17l8 1
q32 4 42.5 18.5t10.5 52.5zM18 660q0 25 16.5 42.5t41.5 17.5q24 0 41 -17.5t17 -42.5t-17 -42.5t-41 -17.5q-25 0 -41.5 17.5t-16.5 42.5zM203 660q0 25 16.5 42.5t41.5 17.5q24 0 41 -17.5t17 -42.5t-17 -42.5t-41 -17.5q-25 0 -41.5 17.5t-16.5 42.5z" />
    <glyph glyph-name="eth" unicode="&#xf0;" horiz-adv-x="601" 
d="M449 749l7 -10q9 -14 -3 -21l-91 -61q180 -138 180 -375q0 -130 -69 -208.5t-185 -78.5q-106 0 -172 68t-66 180q0 115 68 184.5t175 69.5q78 0 128 -44q-36 95 -116 166l-115 -78q-13 -9 -20 1l-8 12q-8 13 5 20l106 72q-58 44 -117 69q-12 4 -8 17l7 16q4 12 18 7
q86 -32 153 -73l104 70q10 8 19 -3zM302 44q61 0 98.5 52t37.5 155q0 94 -39 148t-106 54t-104 -54.5t-37 -143.5q0 -93 41.5 -152t108.5 -59z" />
    <glyph glyph-name="ntilde" unicode="&#xf1;" horiz-adv-x="640" 
d="M277 0h-210q-11 0 -14 3.5t-3 12.5v10q0 15 14 17l8 1q32 4 42.5 18.5t10.5 52.5v283q0 19 -8.5 26.5t-28.5 9.5l-25 2q-5 1 -7 1.5t-3.5 3t-1.5 7.5v9q0 11 9 15l131 51q8 3 15 -1l9 -6q5 -4 5 -13v-83q74 104 170 104q65 0 108 -43t43 -118v-248q0 -38 8.5 -52.5
t39.5 -18.5l8 -1q15 -3 15 -18v-11q0 -8 -2.5 -11t-11.5 -3h-210q-11 0 -14 3.5t-3 12.5v10q0 15 14 17l8 1q32 4 42.5 18.5t10.5 52.5v228q0 50 -26 79.5t-68 29.5q-69 0 -132 -76v-261q0 -38 8.5 -52.5t39.5 -18.5l8 -1q15 -3 15 -18v-11q0 -8 -2.5 -11t-11.5 -3zM277 716
q22 0 55 -14l36 -15q19 -9 36 -9q30 0 49 40q5 12 16 9l11 -3q12 -3 7 -17q-11 -45 -35 -70.5t-57 -25.5q-24 0 -54 13l-38 16q-21 8 -33 8q-31 0 -49 -42q-4 -10 -16 -7l-11 3q-13 3 -8 17q29 97 91 97z" />
    <glyph glyph-name="ograve" unicode="&#xf2;" horiz-adv-x="592" 
d="M298 -5q-110 0 -181.5 73.5t-71.5 193.5t71.5 189.5t180.5 69.5q112 0 181 -68t69 -188q0 -119 -67.5 -194.5t-181.5 -75.5zM309 36q128 0 128 207q0 101 -40.5 169t-110.5 68q-64 0 -98 -52.5t-34 -147.5q0 -57 17 -111.5t53.5 -93.5t84.5 -39zM377 579l-154 92
q-27 17 -27 43q0 17 13 30.5t30 13.5q21 0 39 -20l121 -130q11 -12 3 -20l-7 -9q-6 -7 -18 0z" />
    <glyph glyph-name="oacute" unicode="&#xf3;" horiz-adv-x="592" 
d="M298 -5q-110 0 -181.5 73.5t-71.5 193.5t71.5 189.5t180.5 69.5q112 0 181 -68t69 -188q0 -119 -67.5 -194.5t-181.5 -75.5zM309 36q128 0 128 207q0 101 -40.5 169t-110.5 68q-64 0 -98 -52.5t-34 -147.5q0 -57 17 -111.5t53.5 -93.5t84.5 -39zM389 756q17 0 29 -14
t12 -30q0 -27 -29 -43l-154 -89q-12 -8 -21 1l-6 7q-8 9 4 21l123 125q22 22 42 22z" />
    <glyph glyph-name="ocircumflex" unicode="&#xf4;" horiz-adv-x="592" 
d="M298 -5q-110 0 -181.5 73.5t-71.5 193.5t71.5 189.5t180.5 69.5q112 0 181 -68t69 -188q0 -119 -67.5 -194.5t-181.5 -75.5zM309 36q128 0 128 207q0 101 -40.5 169t-110.5 68q-64 0 -98 -52.5t-34 -147.5q0 -57 17 -111.5t53.5 -93.5t84.5 -39zM398 575l-99 98l-107 -98
q-10 -9 -20 0l-7 6q-10 9 -1 20l114 149q8 10 18 10h7q8 0 16 -9l109 -151q7 -10 -2 -18l-8 -7q-10 -9 -20 0z" />
    <glyph glyph-name="otilde" unicode="&#xf5;" horiz-adv-x="592" 
d="M298 -5q-110 0 -181.5 73.5t-71.5 193.5t71.5 189.5t180.5 69.5q112 0 181 -68t69 -188q0 -119 -67.5 -194.5t-181.5 -75.5zM309 36q128 0 128 207q0 101 -40.5 169t-110.5 68q-64 0 -98 -52.5t-34 -147.5q0 -57 17 -111.5t53.5 -93.5t84.5 -39zM235 716q22 0 55 -14
l36 -15q19 -9 36 -9q30 0 49 40q5 12 16 9l11 -3q12 -3 7 -17q-11 -45 -35 -70.5t-57 -25.5q-24 0 -54 13l-38 16q-21 8 -33 8q-31 0 -49 -42q-4 -10 -16 -7l-11 3q-13 3 -8 17q29 97 91 97z" />
    <glyph glyph-name="odieresis" unicode="&#xf6;" horiz-adv-x="592" 
d="M298 -5q-110 0 -181.5 73.5t-71.5 193.5t71.5 189.5t180.5 69.5q112 0 181 -68t69 -188q0 -119 -67.5 -194.5t-181.5 -75.5zM309 36q128 0 128 207q0 101 -40.5 169t-110.5 68q-64 0 -98 -52.5t-34 -147.5q0 -57 17 -111.5t53.5 -93.5t84.5 -39zM142 660q0 25 16.5 42.5
t41.5 17.5q24 0 41 -17.5t17 -42.5t-17 -42.5t-41 -17.5q-25 0 -41.5 17.5t-16.5 42.5zM327 660q0 25 16.5 42.5t41.5 17.5q24 0 41 -17.5t17 -42.5t-17 -42.5t-41 -17.5q-25 0 -41.5 17.5t-16.5 42.5z" />
    <glyph glyph-name="oslash" unicode="&#xf8;" horiz-adv-x="592" 
d="M498 502l-29 -39q77 -71 77 -196q0 -120 -67 -196t-181 -76q-80 0 -141 40l-31 -43q-8 -13 -20 -4l-9 6q-10 8 0 22l31 43q-82 76 -82 205q0 120 71 190t180 70q82 0 141 -38l29 39q8 11 20 3l9 -6q7 -5 7 -8.5t-5 -11.5zM151 282q0 -85 31 -150l212 292q-42 60 -108 60
q-135 0 -135 -202zM309 35q131 0 131 210q0 82 -26 143l-212 -291q43 -62 107 -62z" />
    <glyph glyph-name="ugrave" unicode="&#xf9;" horiz-adv-x="628" 
d="M427 146v257q0 19 -8.5 26.5t-28.5 9.5l-25 2q-5 1 -7 1.5t-3.5 3t-1.5 7.5v8q0 11 9 15l132 48q10 3 17 -2l5 -4q6 -5 6 -13v-411q0 -22 15 -27l42 -14q7 -3 7 -10v-13q0 -8 -8 -10l-129 -28q-8 -1 -13 2l-4 3q-5 5 -5 13v80q-70 -98 -169 -98q-67 0 -109 42.5
t-42 109.5v259q0 19 -8.5 26.5t-28.5 9.5l-25 2q-5 1 -7 1.5t-3.5 3t-1.5 7.5v8q0 11 9 15l135 49q9 2 15 -2l4 -3q6 -4 6 -13v-329q0 -54 23 -84t67 -30q71 0 135 82zM370 579l-154 92q-27 17 -27 43q0 17 13 30.5t30 13.5q21 0 39 -20l121 -130q11 -12 3 -20l-7 -9
q-6 -7 -18 0z" />
    <glyph glyph-name="uacute" unicode="&#xfa;" horiz-adv-x="628" 
d="M427 146v257q0 19 -8.5 26.5t-28.5 9.5l-25 2q-5 1 -7 1.5t-3.5 3t-1.5 7.5v8q0 11 9 15l132 48q10 3 17 -2l5 -4q6 -5 6 -13v-411q0 -22 15 -27l42 -14q7 -3 7 -10v-13q0 -8 -8 -10l-129 -28q-8 -1 -13 2l-4 3q-5 5 -5 13v80q-70 -98 -169 -98q-67 0 -109 42.5
t-42 109.5v259q0 19 -8.5 26.5t-28.5 9.5l-25 2q-5 1 -7 1.5t-3.5 3t-1.5 7.5v8q0 11 9 15l135 49q9 2 15 -2l4 -3q6 -4 6 -13v-329q0 -54 23 -84t67 -30q71 0 135 82zM422 756q17 0 29 -14t12 -30q0 -27 -29 -43l-154 -89q-12 -8 -21 1l-6 7q-8 9 4 21l123 125q22 22 42 22
z" />
    <glyph glyph-name="ucircumflex" unicode="&#xfb;" horiz-adv-x="628" 
d="M427 146v257q0 19 -8.5 26.5t-28.5 9.5l-25 2q-5 1 -7 1.5t-3.5 3t-1.5 7.5v8q0 11 9 15l132 48q10 3 17 -2l5 -4q6 -5 6 -13v-411q0 -22 15 -27l42 -14q7 -3 7 -10v-13q0 -8 -8 -10l-129 -28q-8 -1 -13 2l-4 3q-5 5 -5 13v80q-70 -98 -169 -98q-67 0 -109 42.5
t-42 109.5v259q0 19 -8.5 26.5t-28.5 9.5l-25 2q-5 1 -7 1.5t-3.5 3t-1.5 7.5v8q0 11 9 15l135 49q9 2 15 -2l4 -3q6 -4 6 -13v-329q0 -54 23 -84t67 -30q71 0 135 82zM412 575l-99 98l-107 -98q-10 -9 -20 0l-7 6q-10 9 -1 20l114 149q8 10 18 10h7q8 0 16 -9l109 -151
q7 -10 -2 -18l-8 -7q-10 -9 -20 0z" />
    <glyph glyph-name="udieresis" unicode="&#xfc;" horiz-adv-x="628" 
d="M427 146v257q0 19 -8.5 26.5t-28.5 9.5l-25 2q-5 1 -7 1.5t-3.5 3t-1.5 7.5v8q0 11 9 15l132 48q10 3 17 -2l5 -4q6 -5 6 -13v-411q0 -22 15 -27l42 -14q7 -3 7 -10v-13q0 -8 -8 -10l-129 -28q-8 -1 -13 2l-4 3q-5 5 -5 13v80q-70 -98 -169 -98q-67 0 -109 42.5
t-42 109.5v259q0 19 -8.5 26.5t-28.5 9.5l-25 2q-5 1 -7 1.5t-3.5 3t-1.5 7.5v8q0 11 9 15l135 49q9 2 15 -2l4 -3q6 -4 6 -13v-329q0 -54 23 -84t67 -30q71 0 135 82zM159 660q0 25 16.5 42.5t41.5 17.5q24 0 41 -17.5t17 -42.5t-17 -42.5t-41 -17.5q-25 0 -41.5 17.5
t-16.5 42.5zM344 660q0 25 16.5 42.5t41.5 17.5q24 0 41 -17.5t17 -42.5t-17 -42.5t-41 -17.5q-25 0 -41.5 17.5t-16.5 42.5z" />
    <glyph glyph-name="yacute" unicode="&#xfd;" horiz-adv-x="606" 
d="M122 -284q-40 0 -62.5 21.5t-22.5 52.5q0 24 14.5 39t38.5 15q19 0 31 -7.5t16.5 -17t11.5 -17t16 -7.5q55 0 121 187l-188 438q-12 28 -24.5 38.5t-41.5 15.5q-14 3 -14 15v11q0 10 3.5 13t13.5 3h205q9 0 11.5 -3t2.5 -11v-10q0 -9 -2.5 -12t-13.5 -5l-7 -1
q-25 -4 -32 -17.5t6 -45.5l131 -317l102 283q31 86 -33 97l-6 1q-11 2 -13.5 5t-2.5 12v10q0 14 15 14h181q11 0 14 -3t3 -13v-11q0 -8 -2.5 -10.5t-11.5 -4.5q-30 -4 -47.5 -21.5t-32.5 -55.5q-186 -462 -198 -492q-41 -102 -84 -145.5t-98 -43.5zM424 756q17 0 29 -14
t12 -30q0 -27 -29 -43l-154 -89q-12 -8 -21 1l-6 7q-8 9 4 21l123 125q22 22 42 22z" />
    <glyph glyph-name="thorn" unicode="&#xfe;" horiz-adv-x="604" 
d="M187 386v-216q5 -64 42 -97.5t96 -33.5q47 0 78 33t42.5 78t11.5 100q0 88 -39.5 143.5t-105.5 55.5q-69 0 -125 -63zM187 738v-299q82 82 161 82q98 0 154.5 -65.5t56.5 -177.5q0 -122 -62 -202.5t-168 -80.5q-81 0 -142 37v-195q0 -39 9.5 -54t45.5 -17l13 -1
q15 -1 15 -18v-11q0 -8 -2.5 -11t-11.5 -3h-222q-11 0 -14 3.5t-3 12.5v10q0 15 14 17l8 1q32 4 42.5 18.5t10.5 52.5v796q0 19 -8.5 26.5t-28.5 9.5l-25 2q-5 1 -7 1.5t-3.5 3t-1.5 7.5v9q0 10 9 15l131 51q8 3 15 -1l9 -6q5 -4 5 -13z" />
    <glyph glyph-name="ydieresis" unicode="&#xff;" horiz-adv-x="606" 
d="M122 -284q-40 0 -62.5 21.5t-22.5 52.5q0 24 14.5 39t38.5 15q19 0 31 -7.5t16.5 -17t11.5 -17t16 -7.5q55 0 121 187l-188 438q-12 28 -24.5 38.5t-41.5 15.5q-14 3 -14 15v11q0 10 3.5 13t13.5 3h205q9 0 11.5 -3t2.5 -11v-10q0 -9 -2.5 -12t-13.5 -5l-7 -1
q-25 -4 -32 -17.5t6 -45.5l131 -317l102 283q31 86 -33 97l-6 1q-11 2 -13.5 5t-2.5 12v10q0 14 15 14h181q11 0 14 -3t3 -13v-11q0 -8 -2.5 -10.5t-11.5 -4.5q-30 -4 -47.5 -21.5t-32.5 -55.5q-186 -462 -198 -492q-41 -102 -84 -145.5t-98 -43.5zM166 660q0 25 16.5 42.5
t41.5 17.5q24 0 41 -17.5t17 -42.5t-17 -42.5t-41 -17.5q-25 0 -41.5 17.5t-16.5 42.5zM351 660q0 25 16.5 42.5t41.5 17.5q24 0 41 -17.5t17 -42.5t-17 -42.5t-41 -17.5q-25 0 -41.5 17.5t-16.5 42.5z" />
    <glyph glyph-name="Amacron" unicode="&#x100;" 
d="M380 704l225 -578q16 -42 35 -61.5t51 -19.5h6q14 0 14 -18v-10q0 -17 -16 -17h-265q-16 0 -16 16v10q0 19 19 19h7q25 0 39.5 6.5t18 20t1.5 28t-10 36.5l-42 110h-239l-37 -103q-35 -98 47 -98h6q22 0 22 -19v-9q0 -17 -17 -17h-207q-22 0 -22 17v8q0 20 20 20h3
q57 0 93 98l182 481l-4 11q-8 20 6 28q24 14 51 44q7 7 16 7q10 0 13 -10zM324 566l-99 -275h204zM473 800h-256q-9 0 -12 3t-3 13v36q0 10 3 13t12 3h256q9 0 12 -3t3 -13v-36q0 -10 -3 -13t-12 -3z" />
    <glyph glyph-name="amacron" unicode="&#x101;" horiz-adv-x="532" 
d="M169 -5q-49 0 -80 30t-31 80q0 55 38.5 89t120.5 67q58 22 110 50l1 80q0 48 -21 69t-64 21q-31 0 -59 -17t-28 -37q0 -5 1 -18.5t1 -20.5q0 -28 -15 -46t-44 -18q-51 0 -51 48q0 56 81.5 104.5t160.5 48.5q64 0 99 -31t34 -90l-3 -293q0 -39 28 -39q27 0 45 48q3 8 13 7
l8 -2q8 -2 7 -12q-9 -46 -37.5 -81.5t-74.5 -35.5q-76 0 -81 96q-75 -97 -159 -97zM217 62q52 0 110 73v135l-82 -36q-50 -24 -72 -47t-22 -54q0 -32 18 -51.5t48 -19.5zM361 629h-232q-12 0 -15.5 3t-3.5 15v28q0 12 3.5 15t17.5 3h228q14 0 17.5 -3t3.5 -15v-28
q0 -12 -3.5 -15t-15.5 -3z" />
    <glyph glyph-name="Abreve" unicode="&#x102;" 
d="M380 704l225 -578q16 -42 35 -61.5t51 -19.5h6q14 0 14 -18v-10q0 -17 -16 -17h-265q-16 0 -16 16v10q0 19 19 19h7q25 0 39.5 6.5t18 20t1.5 28t-10 36.5l-42 110h-239l-37 -103q-35 -98 47 -98h6q22 0 22 -19v-9q0 -17 -17 -17h-207q-22 0 -22 17v8q0 20 20 20h3
q57 0 93 98l182 481l-4 11q-8 20 6 28q24 14 51 44q7 7 16 7q10 0 13 -10zM324 566l-99 -275h204zM347 769q-59 0 -96 37q-31 29 -47 79q-4 13 8 18l9 4q10 5 16 -5q17 -32 50 -49q25 -13 60 -13q38 0 64 14q29 16 46 43q7 11 16 7l10 -4q9 -5 5 -15q-21 -55 -46 -78
q-38 -38 -95 -38z" />
    <glyph glyph-name="abreve" unicode="&#x103;" horiz-adv-x="532" 
d="M169 -5q-49 0 -80 30t-31 80q0 55 38.5 89t120.5 67q58 22 110 50l1 80q0 48 -21 69t-64 21q-31 0 -59 -17t-28 -37q0 -5 1 -18.5t1 -20.5q0 -28 -15 -46t-44 -18q-51 0 -51 48q0 56 81.5 104.5t160.5 48.5q64 0 99 -31t34 -90l-3 -293q0 -39 28 -39q27 0 45 48q3 8 13 7
l8 -2q8 -2 7 -12q-9 -46 -37.5 -81.5t-74.5 -35.5q-76 0 -81 96q-75 -97 -159 -97zM217 62q52 0 110 73v135l-82 -36q-50 -24 -72 -47t-22 -54q0 -32 18 -51.5t48 -19.5zM243 590q-69 0 -107 66q-14 25 -26 65q-4 14 9 19l11 4q12 5 17 -7q13 -30 31 -50q25 -31 67 -31
q38 0 69 31q22 27 32 49q2 4 3.5 6t3.5 3t4 0.5t7 -1.5l9 -3q11 -5 7 -18q-10 -38 -27 -67q-40 -66 -110 -66z" />
    <glyph glyph-name="Aogonek" unicode="&#x104;" 
d="M380 704l225 -578q16 -42 35 -61.5t51 -19.5h6q14 0 14 -18v-10q0 -17 -16 -17h-265q-16 0 -16 16v10q0 19 19 19h7q25 0 39.5 6.5t18 20t1.5 28t-10 36.5l-42 110h-239l-37 -103q-35 -98 47 -98h6q22 0 22 -19v-9q0 -17 -17 -17h-207q-22 0 -22 17v8q0 20 20 20h3
q57 0 93 98l182 481l-4 11q-8 20 6 28q24 14 51 44q7 7 16 7q10 0 13 -10zM324 566l-99 -275h204zM567 -278q-46 0 -74 23.5t-28 66.5q0 94 136 198h41q-51 -48 -74.5 -85t-23.5 -77q0 -31 15.5 -49.5t40.5 -18.5q27 0 53 19q7 6 14 -1l7 -7q6 -6 -1 -15q-44 -54 -106 -54z
" />
    <glyph glyph-name="aogonek" unicode="&#x105;" horiz-adv-x="532" 
d="M169 -5q-49 0 -80 30t-31 80q0 55 38.5 89t120.5 67q58 22 110 50l1 80q0 48 -21 69t-64 21q-31 0 -59 -17t-28 -37q0 -5 1 -18.5t1 -20.5q0 -28 -15 -46t-44 -18q-51 0 -51 48q0 56 81.5 104.5t160.5 48.5q64 0 99 -31t34 -90l-3 -293q0 -39 28 -39q27 0 45 48q3 8 13 7
l8 -2q8 -2 7 -12q-9 -46 -37.5 -81.5t-74.5 -35.5q-76 0 -81 96q-75 -97 -159 -97zM217 62q52 0 110 73v135l-82 -36q-50 -24 -72 -47t-22 -54q0 -32 18 -51.5t48 -19.5zM384 -278q-46 0 -74 23.5t-28 66.5q0 94 136 198h41q-51 -48 -74.5 -85t-23.5 -77q0 -31 15.5 -49.5
t40.5 -18.5q27 0 53 19q7 6 14 -1l7 -7q6 -6 -1 -15q-44 -54 -106 -54z" />
    <glyph glyph-name="Cacute" unicode="&#x106;" horiz-adv-x="798" 
d="M433 -14q-161 0 -266 103.5t-105 260.5q0 172 109 268t264 96q101 0 199 -53q10 -6 17 -6q5 0 9 7l13 26q3 8 11 8h14q10 0 10 -13l5 -184q0 -18 -13 -18h-19q-11 0 -14 11q-18 83 -84 131.5t-155 48.5q-111 0 -175 -85t-64 -227q0 -139 69 -235.5t185 -96.5
q90 0 150 50.5t77 140.5q3 13 15 13h20q13 0 13 -19l-4 -193q0 -12 -11 -12h-15q-10 0 -14 10l-10 23q-3 7 -9 7q-7 0 -11 -4q-94 -58 -211 -58zM337 769l-3 6q-6 13 7 22l150 105q25 17 42 17q19 0 30.5 -13.5t11.5 -31.5q0 -27 -41 -44l-175 -67q-10 -4 -14 -3t-8 9z" />
    <glyph glyph-name="cacute" unicode="&#x107;" horiz-adv-x="514" 
d="M289 -5q-107 0 -175.5 71t-68.5 191q0 122 69 193t178 71q67 0 118.5 -32t51.5 -74q0 -25 -14.5 -39t-37.5 -14q-46 0 -58 50q-5 23 -10 37q-12 36 -54 36q-65 0 -101 -58t-36 -156q0 -84 43 -144t120 -60t132 69q9 13 19 6l10 -6q9 -4 4 -17q-20 -46 -69.5 -85
t-120.5 -39zM369 756q17 0 29 -14t12 -30q0 -27 -29 -43l-154 -89q-12 -8 -21 1l-6 7q-8 9 4 21l123 125q22 22 42 22z" />
    <glyph glyph-name="Ccircumflex" unicode="&#x108;" horiz-adv-x="798" 
d="M433 -14q-161 0 -266 103.5t-105 260.5q0 172 109 268t264 96q101 0 199 -53q10 -6 17 -6q5 0 9 7l13 26q3 8 11 8h14q10 0 10 -13l5 -184q0 -18 -13 -18h-19q-11 0 -14 11q-18 83 -84 131.5t-155 48.5q-111 0 -175 -85t-64 -227q0 -139 69 -235.5t185 -96.5
q90 0 150 50.5t77 140.5q3 13 15 13h20q13 0 13 -19l-4 -193q0 -12 -11 -12h-15q-10 0 -14 10l-10 23q-3 7 -9 7q-7 0 -11 -4q-94 -58 -211 -58zM418 928h22q11 0 20 -9l111 -114q9 -9 1 -19l-7 -9q-7 -9 -18 -3l-119 75l-125 -75q-11 -8 -19 3l-8 9q-8 9 2 19l120 114
q9 9 20 9z" />
    <glyph glyph-name="ccircumflex" unicode="&#x109;" horiz-adv-x="514" 
d="M289 -5q-107 0 -175.5 71t-68.5 191q0 122 69 193t178 71q67 0 118.5 -32t51.5 -74q0 -25 -14.5 -39t-37.5 -14q-46 0 -58 50q-5 23 -10 37q-12 36 -54 36q-65 0 -101 -58t-36 -156q0 -84 43 -144t120 -60t132 69q9 13 19 6l10 -6q9 -4 4 -17q-20 -46 -69.5 -85
t-120.5 -39zM387 575l-99 98l-107 -98q-10 -9 -20 0l-7 6q-10 9 -1 20l114 149q8 10 18 10h7q8 0 16 -9l109 -151q7 -10 -2 -18l-8 -7q-10 -9 -20 0z" />
    <glyph glyph-name="Cdotaccent" unicode="&#x10a;" horiz-adv-x="798" 
d="M433 -14q-161 0 -266 103.5t-105 260.5q0 172 109 268t264 96q101 0 199 -53q10 -6 17 -6q5 0 9 7l13 26q3 8 11 8h14q10 0 10 -13l5 -184q0 -18 -13 -18h-19q-11 0 -14 11q-18 83 -84 131.5t-155 48.5q-111 0 -175 -85t-64 -227q0 -139 69 -235.5t185 -96.5
q90 0 150 50.5t77 140.5q3 13 15 13h20q13 0 13 -19l-4 -193q0 -12 -11 -12h-15q-10 0 -14 10l-10 23q-3 7 -9 7q-7 0 -11 -4q-94 -58 -211 -58zM352 850q0 26 19 45t45 19t45 -19t19 -45t-19 -45t-45 -19t-45 19t-19 45z" />
    <glyph glyph-name="cdotaccent" unicode="&#x10b;" horiz-adv-x="514" 
d="M289 -5q-107 0 -175.5 71t-68.5 191q0 122 69 193t178 71q67 0 118.5 -32t51.5 -74q0 -25 -14.5 -39t-37.5 -14q-46 0 -58 50q-5 23 -10 37q-12 36 -54 36q-65 0 -101 -58t-36 -156q0 -84 43 -144t120 -60t132 69q9 13 19 6l10 -6q9 -4 4 -17q-20 -46 -69.5 -85
t-120.5 -39zM294 605q-27 0 -46.5 18.5t-19.5 45.5t20 46.5t46 19.5q27 0 46 -19.5t19 -46.5t-19 -45.5t-46 -18.5z" />
    <glyph glyph-name="Ccaron" unicode="&#x10c;" horiz-adv-x="798" 
d="M433 -14q-161 0 -266 103.5t-105 260.5q0 172 109 268t264 96q101 0 199 -53q10 -6 17 -6q5 0 9 7l13 26q3 8 11 8h14q10 0 10 -13l5 -184q0 -18 -13 -18h-19q-11 0 -14 11q-18 83 -84 131.5t-155 48.5q-111 0 -175 -85t-64 -227q0 -139 69 -235.5t185 -96.5
q90 0 150 50.5t77 140.5q3 13 15 13h20q13 0 13 -19l-4 -193q0 -12 -11 -12h-15q-10 0 -14 10l-10 23q-3 7 -9 7q-7 0 -11 -4q-94 -58 -211 -58zM431 760h-13q-11 0 -20 8l-120 117q-10 10 -1 20l8 9q8 9 17 3l123 -78l123 77q9 6 17 -3l6 -7q9 -9 -2 -20l-120 -118
q-8 -8 -18 -8z" />
    <glyph glyph-name="ccaron" unicode="&#x10d;" horiz-adv-x="514" 
d="M289 -5q-107 0 -175.5 71t-68.5 191q0 122 69 193t178 71q67 0 118.5 -32t51.5 -74q0 -25 -14.5 -39t-37.5 -14q-46 0 -58 50q-5 23 -10 37q-12 36 -54 36q-65 0 -101 -58t-36 -156q0 -84 43 -144t120 -60t132 69q9 13 19 6l10 -6q9 -4 4 -17q-20 -46 -69.5 -85
t-120.5 -39zM156 745l9 8q11 9 21 -1l101 -96l104 96q10 10 21 0l7 -6q10 -9 1 -21l-108 -138q-8 -10 -18 -10h-16q-10 0 -18 10l-105 136q-9 12 1 22z" />
    <glyph glyph-name="Dcaron" unicode="&#x10e;" horiz-adv-x="847" 
d="M274 631v-496q0 -52 21 -71t77 -19h37q119 0 184 86t65 224q0 134 -68 217t-176 83h-117q-23 0 -23 -24zM409 0h-333q-21 0 -21 18v11q0 9 4.5 12.5t18.5 3.5h10q43 0 59.5 15t16.5 50v480q0 36 -17 50.5t-65 14.5h-6q-21 0 -21 18v11q0 9 4.5 12.5t18.5 3.5h344
q70 0 133 -19.5t115.5 -58.5t83.5 -105.5t31 -152.5q0 -166 -108.5 -265t-267.5 -99zM408 760h-13q-11 0 -20 8l-120 117q-10 10 -1 20l8 9q8 9 17 3l123 -78l123 77q9 6 17 -3l6 -7q9 -9 -2 -20l-120 -118q-8 -8 -18 -8z" />
    <glyph glyph-name="dcaron" unicode="&#x10f;" horiz-adv-x="635" 
d="M514 738v-644q0 -22 15 -27l42 -14q7 -3 7 -10v-13q0 -8 -8 -10l-129 -28q-8 -1 -13 2l-4 3q-5 5 -5 13v60q-71 -75 -156 -75q-99 0 -158 70t-59 182q0 116 66.5 195t173.5 79q75 0 133 -30v142q0 20 -8.5 27.5t-28.5 8.5l-35 2q-7 0 -9.5 2t-2.5 10v9q0 10 9 15l141 51
q8 3 15 -1l9 -6q5 -4 5 -13zM293 67q70 0 126 51v194q0 82 -37 123.5t-96 41.5q-66 0 -102 -59t-36 -149q0 -84 39.5 -143t105.5 -59zM592 614q17 20 17 34q0 18 -18 29q-26 15 -26 43q0 20 13.5 33.5t34.5 13.5q25 0 41 -19t16 -50q0 -62 -50 -109q-21 -21 -39 -29
q-9 -4 -15 3l-6 9q-6 9 2 15q2 2 13 11t17 16z" />
    <glyph glyph-name="Dcroat" unicode="&#x110;" horiz-adv-x="849" 
d="M166 341h-94q-9 0 -12 3t-3 13v14q0 10 3 13t12 3h94v203q0 36 -17 50.5t-65 14.5h-6q-21 0 -21 18v11q0 9 4.5 12.5t18.5 3.5h344q70 0 133 -19.5t115.5 -58.5t83.5 -105.5t31 -152.5q0 -166 -108.5 -265t-267.5 -99h-333q-21 0 -21 18v11q0 9 4.5 12.5t18.5 3.5h10
q43 0 59.5 15t16.5 50v231zM275 341v-206q0 -52 20.5 -71t77.5 -19h38q119 0 184 86t65 224q0 134 -68 217t-176 83h-118q-23 0 -23 -24v-244h180q9 0 12 -3t3 -13v-14q0 -10 -3 -13t-12 -3h-180z" />
    <glyph glyph-name="dslash" unicode="&#x111;" horiz-adv-x="620" 
d="M421 627v32q0 19 -5.5 26t-23.5 9l-43 3q-5 1 -7 1.5t-3.5 3t-1.5 7.5v6q0 12 9 15l139 38q9 3 15 -1l9 -6q5 -4 5 -13v-121h59q9 0 12 -3t3 -13v-6q0 -10 -3 -13t-12 -3h-59v-495q0 -22 15 -27l42 -14q7 -3 7 -10v-13q0 -8 -8 -10l-127 -28q-8 -1 -13 2l-4 3q-5 5 -5 13
v62q-36 -36 -72 -56.5t-86 -20.5q-99 0 -158 68t-59 179q0 119 67 193.5t175 74.5q75 0 133 -30v109h-147q-9 0 -12 3t-3 13v6q0 10 3 13t12 3h147zM293 67q72 0 128 51v189q0 81 -37.5 120.5t-97.5 39.5q-66 0 -102 -56.5t-36 -146.5q0 -84 39.5 -140.5t105.5 -56.5z" />
    <glyph glyph-name="Emacron" unicode="&#x112;" horiz-adv-x="730" 
d="M384 655h-88q-14 0 -18 -4.5t-4 -17.5v-247h130q33 0 48.5 24t15.5 61v7q0 19 19 19h11q17 0 17 -23v-209q0 -11 -3.5 -15t-13.5 -4h-10q-19 0 -19 20v8q0 67 -66 67h-129v-238q0 -30 10 -44t40 -14h98q73 0 114 21.5t72 71.5l26 42q10 17 26 12l10 -3q13 -4 9 -23
l-29 -136q-4 -18 -12.5 -24t-26.5 -6h-535q-21 0 -21 18v11q0 9 4.5 12.5t18.5 3.5h10q43 0 59.5 15t16.5 50v480q0 36 -17 50.5t-65 14.5h-6q-21 0 -21 18v11q0 9 4.5 12.5t18.5 3.5h509q20 0 27.5 -5t9.5 -24l16 -122q2 -14 -10 -17l-8 -2q-14 -4 -25 14l-20 32
q-29 46 -67.5 62.5t-125.5 16.5zM495 800h-256q-9 0 -12 3t-3 13v36q0 10 3 13t12 3h256q9 0 12 -3t3 -13v-36q0 -10 -3 -13t-12 -3z" />
    <glyph glyph-name="emacron" unicode="&#x113;" horiz-adv-x="530" 
d="M321 67q75 0 130 70q9 12 20 4l8 -5q10 -6 3 -19q-63 -122 -193 -122q-107 0 -175.5 73.5t-68.5 192.5q0 122 69 191t176 69q87 0 141.5 -55t54.5 -128q0 -19 -18 -19h-317q-1 -12 -1 -35q0 -93 42 -155t129 -62zM286 485q-95 0 -128 -124h197q13 0 18 4t5 16
q0 48 -24.5 76t-67.5 28zM399 630h-232q-12 0 -15.5 3t-3.5 15v28q0 12 3.5 15t17.5 3h228q14 0 17.5 -3t3.5 -15v-28q0 -12 -3.5 -15t-15.5 -3z" />
    <glyph glyph-name="Ebreve" unicode="&#x114;" horiz-adv-x="730" 
d="M384 655h-88q-14 0 -18 -4.5t-4 -17.5v-247h130q33 0 48.5 24t15.5 61v7q0 19 19 19h11q17 0 17 -23v-209q0 -11 -3.5 -15t-13.5 -4h-10q-19 0 -19 20v8q0 67 -66 67h-129v-238q0 -30 10 -44t40 -14h98q73 0 114 21.5t72 71.5l26 42q10 17 26 12l10 -3q13 -4 9 -23
l-29 -136q-4 -18 -12.5 -24t-26.5 -6h-535q-21 0 -21 18v11q0 9 4.5 12.5t18.5 3.5h10q43 0 59.5 15t16.5 50v480q0 36 -17 50.5t-65 14.5h-6q-21 0 -21 18v11q0 9 4.5 12.5t18.5 3.5h509q20 0 27.5 -5t9.5 -24l16 -122q2 -14 -10 -17l-8 -2q-14 -4 -25 14l-20 32
q-29 46 -67.5 62.5t-125.5 16.5zM361 769q-59 0 -96 37q-31 29 -47 79q-4 13 8 18l9 4q10 5 16 -5q17 -32 50 -49q25 -13 60 -13q38 0 64 14q29 16 46 43q7 11 16 7l10 -4q9 -5 5 -15q-21 -55 -46 -78q-38 -38 -95 -38z" />
    <glyph glyph-name="ebreve" unicode="&#x115;" horiz-adv-x="530" 
d="M321 67q75 0 130 70q9 12 20 4l8 -5q10 -6 3 -19q-63 -122 -193 -122q-107 0 -175.5 73.5t-68.5 192.5q0 122 69 191t176 69q87 0 141.5 -55t54.5 -128q0 -19 -18 -19h-317q-1 -12 -1 -35q0 -93 42 -155t129 -62zM286 485q-95 0 -128 -124h197q13 0 18 4t5 16
q0 48 -24.5 76t-67.5 28zM276 590q-69 0 -107 66q-14 25 -26 65q-4 14 9 19l11 4q12 5 17 -7q13 -30 31 -50q25 -31 67 -31q38 0 69 31q22 27 32 49q2 4 3.5 6t3.5 3t4 0.5t7 -1.5l9 -3q11 -5 7 -18q-10 -38 -27 -67q-40 -66 -110 -66z" />
    <glyph glyph-name="Edotaccent" unicode="&#x116;" horiz-adv-x="730" 
d="M384 655h-88q-14 0 -18 -4.5t-4 -17.5v-247h130q33 0 48.5 24t15.5 61v7q0 19 19 19h11q17 0 17 -23v-209q0 -11 -3.5 -15t-13.5 -4h-10q-19 0 -19 20v8q0 67 -66 67h-129v-238q0 -30 10 -44t40 -14h98q73 0 114 21.5t72 71.5l26 42q10 17 26 12l10 -3q13 -4 9 -23
l-29 -136q-4 -18 -12.5 -24t-26.5 -6h-535q-21 0 -21 18v11q0 9 4.5 12.5t18.5 3.5h10q43 0 59.5 15t16.5 50v480q0 36 -17 50.5t-65 14.5h-6q-21 0 -21 18v11q0 9 4.5 12.5t18.5 3.5h509q20 0 27.5 -5t9.5 -24l16 -122q2 -14 -10 -17l-8 -2q-14 -4 -25 14l-20 32
q-29 46 -67.5 62.5t-125.5 16.5zM310 850q0 26 19 45t45 19t45 -19t19 -45t-19 -45t-45 -19t-45 19t-19 45z" />
    <glyph glyph-name="edotaccent" unicode="&#x117;" horiz-adv-x="530" 
d="M321 67q75 0 130 70q9 12 20 4l8 -5q10 -6 3 -19q-63 -122 -193 -122q-107 0 -175.5 73.5t-68.5 192.5q0 122 69 191t176 69q87 0 141.5 -55t54.5 -128q0 -19 -18 -19h-317q-1 -12 -1 -35q0 -93 42 -155t129 -62zM286 485q-95 0 -128 -124h197q13 0 18 4t5 16
q0 48 -24.5 76t-67.5 28zM289 605q-27 0 -46.5 18.5t-19.5 45.5t20 46.5t46 19.5q27 0 46 -19.5t19 -46.5t-19 -45.5t-46 -18.5z" />
    <glyph glyph-name="Eogonek" unicode="&#x118;" horiz-adv-x="730" 
d="M384 655h-88q-14 0 -18 -4.5t-4 -17.5v-247h130q33 0 48.5 24t15.5 61v7q0 19 19 19h11q17 0 17 -23v-209q0 -11 -3.5 -15t-13.5 -4h-10q-19 0 -19 20v8q0 67 -66 67h-129v-238q0 -30 10 -44t40 -14h98q73 0 114 21.5t72 71.5l26 42q10 17 26 12l10 -3q13 -4 9 -23
l-29 -136q-4 -18 -12.5 -24t-26.5 -6h-535q-21 0 -21 18v11q0 9 4.5 12.5t18.5 3.5h10q43 0 59.5 15t16.5 50v480q0 36 -17 50.5t-65 14.5h-6q-21 0 -21 18v11q0 9 4.5 12.5t18.5 3.5h509q20 0 27.5 -5t9.5 -24l16 -122q2 -14 -10 -17l-8 -2q-14 -4 -25 14l-20 32
q-29 46 -67.5 62.5t-125.5 16.5zM497 -278q-46 0 -74 23.5t-28 66.5q0 94 136 198h41q-51 -48 -74.5 -85t-23.5 -77q0 -31 15.5 -49.5t40.5 -18.5q27 0 53 19q7 6 14 -1l7 -7q6 -6 -1 -15q-44 -54 -106 -54z" />
    <glyph glyph-name="eogonek" unicode="&#x119;" horiz-adv-x="530" 
d="M321 67q75 0 130 70q9 12 20 4l8 -5q10 -6 3 -19q-63 -122 -193 -122q-107 0 -175.5 73.5t-68.5 192.5q0 122 69 191t176 69q87 0 141.5 -55t54.5 -128q0 -19 -18 -19h-317q-1 -12 -1 -35q0 -93 42 -155t129 -62zM286 485q-95 0 -128 -124h197q13 0 18 4t5 16
q0 48 -24.5 76t-67.5 28zM319 -266q-46 0 -74 23.5t-28 66.5q0 94 136 198h41q-51 -48 -74.5 -85t-23.5 -77q0 -31 15.5 -49.5t40.5 -18.5q27 0 53 19q7 6 14 -1l7 -7q6 -6 -1 -15q-44 -54 -106 -54z" />
    <glyph glyph-name="Ecaron" unicode="&#x11a;" horiz-adv-x="730" 
d="M384 655h-88q-14 0 -18 -4.5t-4 -17.5v-247h130q33 0 48.5 24t15.5 61v7q0 19 19 19h11q17 0 17 -23v-209q0 -11 -3.5 -15t-13.5 -4h-10q-19 0 -19 20v8q0 67 -66 67h-129v-238q0 -30 10 -44t40 -14h98q73 0 114 21.5t72 71.5l26 42q10 17 26 12l10 -3q13 -4 9 -23
l-29 -136q-4 -18 -12.5 -24t-26.5 -6h-535q-21 0 -21 18v11q0 9 4.5 12.5t18.5 3.5h10q43 0 59.5 15t16.5 50v480q0 36 -17 50.5t-65 14.5h-6q-21 0 -21 18v11q0 9 4.5 12.5t18.5 3.5h509q20 0 27.5 -5t9.5 -24l16 -122q2 -14 -10 -17l-8 -2q-14 -4 -25 14l-20 32
q-29 46 -67.5 62.5t-125.5 16.5zM374 760h-13q-11 0 -20 8l-120 117q-10 10 -1 20l8 9q8 9 17 3l123 -78l123 77q9 6 17 -3l6 -7q9 -9 -2 -20l-120 -118q-8 -8 -18 -8z" />
    <glyph glyph-name="ecaron" unicode="&#x11b;" horiz-adv-x="530" 
d="M321 67q75 0 130 70q9 12 20 4l8 -5q10 -6 3 -19q-63 -122 -193 -122q-107 0 -175.5 73.5t-68.5 192.5q0 122 69 191t176 69q87 0 141.5 -55t54.5 -128q0 -19 -18 -19h-317q-1 -12 -1 -35q0 -93 42 -155t129 -62zM286 485q-95 0 -128 -124h197q13 0 18 4t5 16
q0 48 -24.5 76t-67.5 28zM153 746l9 8q11 9 21 -1l101 -96l104 96q10 10 21 0l7 -6q10 -9 1 -21l-108 -138q-8 -10 -18 -10h-16q-10 0 -18 10l-105 136q-9 12 1 22z" />
    <glyph glyph-name="Gcircumflex" unicode="&#x11c;" horiz-adv-x="823" 
d="M431 714q110 0 209 -55q7 -4 11 -4q5 0 9 7l13 26q5 8 12 8h13q10 0 10 -13l5 -183q0 -19 -13 -19h-18q-12 0 -15 11q-20 84 -86 132t-153 48q-110 0 -174.5 -86.5t-64.5 -226.5q0 -143 68.5 -237t194.5 -94q80 0 121 41.5t41 110.5v25q0 89 -71 89h-8q-13 0 -18.5 3.5
t-5.5 14.5v10q0 17 19 17h243q14 0 19 -3t5 -14v-12q0 -16 -21 -16h-7q-34 0 -44 -14.5t-10 -48.5v-113q0 -23 -6 -36t-24 -27q-94 -69 -242 -69q-167 0 -274 97t-107 267q0 113 51 197t133.5 125.5t184.5 41.5zM408 928h22q11 0 20 -9l111 -114q9 -9 1 -19l-7 -9
q-7 -9 -18 -3l-119 75l-125 -75q-11 -8 -19 3l-8 9q-8 9 2 19l120 114q9 9 20 9z" />
    <glyph glyph-name="gcircumflex" unicode="&#x11d;" horiz-adv-x="593" 
d="M23 -160q0 47 36.5 83t88.5 49q-42 8 -65 31.5t-23 58.5q0 70 84 120q-80 52 -80 155q0 85 62.5 136t145.5 51q91 0 151 -47q61 55 113 55q29 0 45 -15t16 -42q0 -22 -11 -35.5t-31 -13.5q-24 0 -42 22q-18 20 -30 20q-16 0 -36 -14q41 -48 41 -119q0 -88 -57 -139.5
t-151 -51.5q-57 0 -102 19q-42 -27 -42 -66q0 -26 22 -39.5t57 -13.5h168q178 0 178 -138q0 -95 -80.5 -144.5t-205.5 -49.5q-51 0 -94 6t-79.5 20t-57.5 40t-21 62zM491 -119q0 78 -114 78h-111q-74 0 -115 -25.5t-41 -71.5q0 -51 50.5 -77t128.5 -26q93 0 147.5 32.5
t54.5 89.5zM395 332q0 65 -34 109.5t-90 44.5q-54 0 -83.5 -41t-29.5 -106q0 -63 33.5 -110t89.5 -47q57 0 85.5 43t28.5 107zM385 575l-99 98l-107 -98q-10 -9 -20 0l-7 6q-10 9 -1 20l114 149q8 10 18 10h7q8 0 16 -9l109 -151q7 -10 -2 -18l-8 -7q-10 -9 -20 0z" />
    <glyph glyph-name="Gbreve" unicode="&#x11e;" horiz-adv-x="823" 
d="M431 714q110 0 209 -55q7 -4 11 -4q5 0 9 7l13 26q5 8 12 8h13q10 0 10 -13l5 -183q0 -19 -13 -19h-18q-12 0 -15 11q-20 84 -86 132t-153 48q-110 0 -174.5 -86.5t-64.5 -226.5q0 -143 68.5 -237t194.5 -94q80 0 121 41.5t41 110.5v25q0 89 -71 89h-8q-13 0 -18.5 3.5
t-5.5 14.5v10q0 17 19 17h243q14 0 19 -3t5 -14v-12q0 -16 -21 -16h-7q-34 0 -44 -14.5t-10 -48.5v-113q0 -23 -6 -36t-24 -27q-94 -69 -242 -69q-167 0 -274 97t-107 267q0 113 51 197t133.5 125.5t184.5 41.5zM434 772q-59 0 -96 37q-31 29 -47 79q-4 13 8 18l9 4
q10 5 16 -5q17 -32 50 -49q25 -13 60 -13q38 0 64 14q29 16 46 43q7 11 16 7l10 -4q9 -5 5 -15q-21 -55 -46 -78q-38 -38 -95 -38z" />
    <glyph glyph-name="gbreve" unicode="&#x11f;" horiz-adv-x="593" 
d="M23 -160q0 47 36.5 83t88.5 49q-42 8 -65 31.5t-23 58.5q0 70 84 120q-80 52 -80 155q0 85 62.5 136t145.5 51q91 0 151 -47q61 55 113 55q29 0 45 -15t16 -42q0 -22 -11 -35.5t-31 -13.5q-24 0 -42 22q-18 20 -30 20q-16 0 -36 -14q41 -48 41 -119q0 -88 -57 -139.5
t-151 -51.5q-57 0 -102 19q-42 -27 -42 -66q0 -26 22 -39.5t57 -13.5h168q178 0 178 -138q0 -95 -80.5 -144.5t-205.5 -49.5q-51 0 -94 6t-79.5 20t-57.5 40t-21 62zM491 -119q0 78 -114 78h-111q-74 0 -115 -25.5t-41 -71.5q0 -51 50.5 -77t128.5 -26q93 0 147.5 32.5
t54.5 89.5zM395 332q0 65 -34 109.5t-90 44.5q-54 0 -83.5 -41t-29.5 -106q0 -63 33.5 -110t89.5 -47q57 0 85.5 43t28.5 107zM282 590q-69 0 -107 66q-14 25 -26 65q-4 14 9 19l11 4q12 5 17 -7q13 -30 31 -50q25 -31 67 -31q38 0 69 31q22 27 32 49q2 4 3.5 6t3.5 3t4 0.5
t7 -1.5l9 -3q11 -5 7 -18q-10 -38 -27 -67q-40 -66 -110 -66z" />
    <glyph glyph-name="Gdotaccent" unicode="&#x120;" horiz-adv-x="823" 
d="M431 714q110 0 209 -55q7 -4 11 -4q5 0 9 7l13 26q5 8 12 8h13q10 0 10 -13l5 -183q0 -19 -13 -19h-18q-12 0 -15 11q-20 84 -86 132t-153 48q-110 0 -174.5 -86.5t-64.5 -226.5q0 -143 68.5 -237t194.5 -94q80 0 121 41.5t41 110.5v25q0 89 -71 89h-8q-13 0 -18.5 3.5
t-5.5 14.5v10q0 17 19 17h243q14 0 19 -3t5 -14v-12q0 -16 -21 -16h-7q-34 0 -44 -14.5t-10 -48.5v-113q0 -23 -6 -36t-24 -27q-94 -69 -242 -69q-167 0 -274 97t-107 267q0 113 51 197t133.5 125.5t184.5 41.5zM362 850q0 26 19 45t45 19t45 -19t19 -45t-19 -45t-45 -19
t-45 19t-19 45z" />
    <glyph glyph-name="gdotaccent" unicode="&#x121;" horiz-adv-x="593" 
d="M23 -160q0 47 36.5 83t88.5 49q-42 8 -65 31.5t-23 58.5q0 70 84 120q-80 52 -80 155q0 85 62.5 136t145.5 51q91 0 151 -47q61 55 113 55q29 0 45 -15t16 -42q0 -22 -11 -35.5t-31 -13.5q-24 0 -42 22q-18 20 -30 20q-16 0 -36 -14q41 -48 41 -119q0 -88 -57 -139.5
t-151 -51.5q-57 0 -102 19q-42 -27 -42 -66q0 -26 22 -39.5t57 -13.5h168q178 0 178 -138q0 -95 -80.5 -144.5t-205.5 -49.5q-51 0 -94 6t-79.5 20t-57.5 40t-21 62zM491 -119q0 78 -114 78h-111q-74 0 -115 -25.5t-41 -71.5q0 -51 50.5 -77t128.5 -26q93 0 147.5 32.5
t54.5 89.5zM395 332q0 65 -34 109.5t-90 44.5q-54 0 -83.5 -41t-29.5 -106q0 -63 33.5 -110t89.5 -47q57 0 85.5 43t28.5 107zM291 605q-27 0 -46.5 18.5t-19.5 45.5t20 46.5t46 19.5q27 0 46 -19.5t19 -46.5t-19 -45.5t-46 -18.5z" />
    <glyph glyph-name="Gcommaaccent" unicode="&#x122;" horiz-adv-x="823" 
d="M431 714q110 0 209 -55q7 -4 11 -4q5 0 9 7l13 26q5 8 12 8h13q10 0 10 -13l5 -183q0 -19 -13 -19h-18q-12 0 -15 11q-20 84 -86 132t-153 48q-110 0 -174.5 -86.5t-64.5 -226.5q0 -143 68.5 -237t194.5 -94q80 0 121 41.5t41 110.5v25q0 89 -71 89h-8q-13 0 -18.5 3.5
t-5.5 14.5v10q0 17 19 17h243q14 0 19 -3t5 -14v-12q0 -16 -21 -16h-7q-34 0 -44 -14.5t-10 -48.5v-113q0 -23 -6 -36t-24 -27q-94 -69 -242 -69q-167 0 -274 97t-107 267q0 113 51 197t133.5 125.5t184.5 41.5zM414 -222q24 26 36 59q-13 -5 -24 -5q-23 0 -36 13t-13 35
q0 23 15.5 39t38.5 16q31 0 47 -21.5t16 -55.5q0 -65 -51 -109q-29 -26 -58 -38q-10 -4 -15 4l-5 9q-5 9 3 15q24 16 46 39z" />
    <glyph glyph-name="gcommaaccent" unicode="&#x123;" horiz-adv-x="593" 
d="M304 727q-27 -28 -34 -58q9 4 23 4q23 0 35.5 -14t12.5 -36q0 -23 -15.5 -38t-38.5 -15q-31 0 -47 21.5t-16 55.5q0 64 51 108q30 27 58 39q10 4 15 -5l5 -8q6 -9 -2 -15q-28 -20 -47 -39zM23 -160q0 47 36.5 83t88.5 49q-42 8 -65 31.5t-23 58.5q0 70 84 120
q-80 52 -80 155q0 85 62.5 136t145.5 51q91 0 151 -47q61 55 113 55q29 0 45 -15t16 -42q0 -22 -11 -35.5t-31 -13.5q-24 0 -42 22q-18 20 -30 20q-16 0 -36 -14q41 -48 41 -119q0 -88 -57 -139.5t-151 -51.5q-57 0 -102 19q-42 -27 -42 -66q0 -26 22 -39.5t57 -13.5h168
q178 0 178 -138q0 -95 -80.5 -144.5t-205.5 -49.5q-51 0 -94 6t-79.5 20t-57.5 40t-21 62zM491 -119q0 78 -114 78h-111q-74 0 -115 -25.5t-41 -71.5q0 -51 50.5 -77t128.5 -26q93 0 147.5 32.5t54.5 89.5zM395 332q0 65 -34 109.5t-90 44.5q-54 0 -83.5 -41t-29.5 -106
q0 -63 33.5 -110t89.5 -47q57 0 85.5 43t28.5 107z" />
    <glyph glyph-name="Hcircumflex" unicode="&#x124;" horiz-adv-x="944" 
d="M164 110v480q0 36 -17 50.5t-65 14.5h-6q-21 0 -21 18v11q0 9 4.5 12.5t18.5 3.5h284q21 0 21 -18v-11q0 -9 -4.5 -12.5t-18.5 -3.5h-7q-45 0 -62 -14.5t-17 -50.5v-204h396v204q0 36 -17 50.5t-65 14.5h-6q-21 0 -21 18v11q0 9 4.5 12.5t18.5 3.5h284q21 0 21 -18v-11
q0 -9 -4.5 -12.5t-18.5 -3.5h-7q-45 0 -62 -14.5t-17 -50.5v-480q0 -36 16.5 -50.5t62.5 -14.5h9q21 0 21 -18v-11q0 -9 -4.5 -12.5t-18.5 -3.5h-284q-21 0 -21 18v11q0 16 23 16h10q44 0 60 14.5t16 50.5v231h-396v-231q0 -36 16.5 -50.5t62.5 -14.5h9q21 0 21 -18v-11
q0 -9 -4.5 -12.5t-18.5 -3.5h-284q-21 0 -21 18v11q0 16 23 16h10q44 0 60 14.5t16 50.5zM461 928h22q11 0 20 -9l111 -114q8 -9 1 -19l-7 -9q-8 -9 -18 -3l-119 75l-125 -75q-11 -8 -19 3l-8 9q-8 9 2 19l120 114q9 9 20 9z" />
    <glyph glyph-name="hcircumflex" unicode="&#x125;" horiz-adv-x="620" 
d="M133 940h19q11 0 19 -9l104 -122q7 -7 -2 -17l-9 -9q-8 -8 -19 1l-102 82l-106 -82q-10 -9 -19 0l-7 7q-9 9 1 20l102 119q8 10 19 10zM107 115v518q0 19 -8.5 26.5t-28.5 9.5l-25 2q-5 1 -7 1.5t-3.5 3t-1.5 7.5v9q0 10 9 15l131 51q8 3 15 -1l9 -6q5 -4 5 -13v-311
q70 97 170 97q65 0 107 -39.5t42 -97.5v-272q0 -38 8.5 -52.5t39.5 -18.5l8 -1q15 -3 15 -18v-11q0 -8 -2.5 -11t-11.5 -3h-210q-11 0 -14 3.5t-3 12.5v10q0 15 14 17l8 1q32 4 42.5 18.5t10.5 52.5v235q0 47 -26.5 74.5t-69.5 27.5q-33 0 -71 -23.5t-57 -52.5v-261
q0 -38 8.5 -52.5t39.5 -18.5l8 -1q15 -3 15 -18v-11q0 -8 -2.5 -11t-11.5 -3h-210q-11 0 -14 3.5t-3 12.5v10q0 15 14 17l8 1q32 4 42.5 18.5t10.5 52.5z" />
    <glyph glyph-name="Hbar" unicode="&#x126;" horiz-adv-x="944" 
d="M166 497h-94q-9 0 -12 3t-3 13v8q0 10 3 13t12 3h94v53q0 36 -17 50.5t-65 14.5h-6q-21 0 -21 18v11q0 9 4.5 12.5t18.5 3.5h282q21 0 21 -18v-11q0 -9 -4.5 -12.5t-18.5 -3.5h-7q-45 0 -62 -14.5t-17 -50.5v-53h396v53q0 36 -17 50.5t-65 14.5h-6q-21 0 -21 18v11
q0 9 4.5 12.5t18.5 3.5h282q21 0 21 -18v-11q0 -9 -4.5 -12.5t-18.5 -3.5h-7q-45 0 -62 -14.5t-17 -50.5v-53h94q9 0 12 -3t3 -13v-8q0 -10 -3 -13t-12 -3h-94v-387q0 -36 16.5 -50.5t62.5 -14.5h9q21 0 21 -18v-11q0 -9 -4.5 -12.5t-18.5 -3.5h-282q-21 0 -21 18v11
q0 16 23 16h10q44 0 60 14.5t16 50.5v231h-396v-231q0 -36 16.5 -50.5t62.5 -14.5h9q21 0 21 -18v-11q0 -9 -4.5 -12.5t-18.5 -3.5h-282q-21 0 -21 18v11q0 16 23 16h10q44 0 60 14.5t16 50.5v387zM274 497v-111h396v111h-396z" />
    <glyph glyph-name="hbar" unicode="&#x127;" horiz-adv-x="618" 
d="M107 627v34q0 19 -5.5 25.5t-23.5 8.5l-33 3q-5 1 -7 1.5t-3.5 3t-1.5 7.5v5q0 12 9 15l129 38q9 3 15 -1l9 -6q5 -4 5 -13v-121h145q9 0 12 -3t3 -13v-6q0 -10 -3 -13t-12 -3h-145v-172q70 97 170 97q65 0 107 -39.5t42 -97.5v-262q0 -38 8.5 -52.5t39.5 -18.5l8 -1
q15 -3 15 -18v-11q0 -8 -2.5 -11t-11.5 -3h-210q-11 0 -14 3.5t-3 12.5v10q0 15 14 17l8 1q32 4 42.5 18.5t10.5 52.5v225q0 47 -26.5 74.5t-69.5 27.5q-33 0 -71 -23.5t-57 -52.5v-251q0 -38 8.5 -52.5t39.5 -18.5l8 -1q15 -3 15 -18v-11q0 -8 -2.5 -11t-11.5 -3h-208
q-11 0 -14 3.5t-3 12.5v10q0 15 14 17l8 1q32 4 42.5 18.5t10.5 52.5v474h-59q-9 0 -12 3t-3 13v6q0 10 3 13t12 3h59z" />
    <glyph glyph-name="Itilde" unicode="&#x128;" horiz-adv-x="438" 
d="M164 110v480q0 36 -17 50.5t-65 14.5h-6q-21 0 -21 18v11q0 9 4.5 12.5t18.5 3.5h284q21 0 21 -18v-11q0 -9 -4.5 -12.5t-18.5 -3.5h-7q-45 0 -62 -14.5t-17 -50.5v-480q0 -36 16.5 -50.5t62.5 -14.5h9q21 0 21 -18v-11q0 -9 -4.5 -12.5t-18.5 -3.5h-284q-21 0 -21 18v11
q0 16 23 16h10q44 0 60 14.5t16 50.5zM290 794q-22 0 -40 7l-62 20q-22 8 -37 8q-27 0 -49 -41q-5 -10 -16 -5l-11 4q-9 5 -5 17q37 97 91 97q16 0 39 -7l62 -20q26 -9 41 -9t25 7.5t22 29.5q6 11 17 7l11 -4q8 -3 4 -17q-31 -94 -92 -94z" />
    <glyph glyph-name="itilde" unicode="&#x129;" horiz-adv-x="331" 
d="M125 115v283q0 19 -8.5 26.5t-28.5 9.5l-25 2q-5 1 -7 1.5t-3.5 3t-1.5 7.5v9q0 11 9 15l131 51q8 3 15 -1l9 -6q5 -4 5 -13v-388q0 -38 8.5 -52.5t39.5 -18.5l8 -1q15 -3 15 -18v-11q0 -8 -2.5 -11t-11.5 -3h-210q-11 0 -14 3.5t-3 12.5v10q0 15 14 17l8 1
q32 4 42.5 18.5t10.5 52.5zM99 716q22 0 55 -14l36 -15q19 -9 36 -9q30 0 49 40q5 12 16 9l11 -3q12 -3 7 -17q-11 -45 -35 -70.5t-57 -25.5q-24 0 -54 13l-38 16q-21 8 -33 8q-31 0 -49 -42q-4 -10 -16 -7l-11 3q-13 3 -8 17q29 97 91 97z" />
    <glyph glyph-name="Imacron" unicode="&#x12a;" horiz-adv-x="438" 
d="M164 110v480q0 36 -17 50.5t-65 14.5h-6q-21 0 -21 18v11q0 9 4.5 12.5t18.5 3.5h284q21 0 21 -18v-11q0 -9 -4.5 -12.5t-18.5 -3.5h-7q-45 0 -62 -14.5t-17 -50.5v-480q0 -36 16.5 -50.5t62.5 -14.5h9q21 0 21 -18v-11q0 -9 -4.5 -12.5t-18.5 -3.5h-284q-21 0 -21 18v11
q0 16 23 16h10q44 0 60 14.5t16 50.5zM348 800h-256q-9 0 -12 3t-3 13v36q0 10 3 13t12 3h256q9 0 12 -3t3 -13v-36q0 -10 -3 -13t-12 -3z" />
    <glyph glyph-name="imacron" unicode="&#x12b;" horiz-adv-x="331" 
d="M125 115v283q0 19 -8.5 26.5t-28.5 9.5l-25 2q-5 1 -7 1.5t-3.5 3t-1.5 7.5v9q0 11 9 15l131 51q8 3 15 -1l9 -6q5 -4 5 -13v-388q0 -38 8.5 -52.5t39.5 -18.5l8 -1q15 -3 15 -18v-11q0 -8 -2.5 -11t-11.5 -3h-210q-11 0 -14 3.5t-3 12.5v10q0 15 14 17l8 1
q32 4 42.5 18.5t10.5 52.5zM274 630h-232q-12 0 -15.5 3t-3.5 15v28q0 12 3.5 15t17.5 3h228q14 0 17.5 -3t3.5 -15v-28q0 -12 -3.5 -15t-15.5 -3z" />
    <glyph glyph-name="Ibreve" unicode="&#x12c;" horiz-adv-x="438" 
d="M164 110v480q0 36 -17 50.5t-65 14.5h-6q-21 0 -21 18v11q0 9 4.5 12.5t18.5 3.5h284q21 0 21 -18v-11q0 -9 -4.5 -12.5t-18.5 -3.5h-7q-45 0 -62 -14.5t-17 -50.5v-480q0 -36 16.5 -50.5t62.5 -14.5h9q21 0 21 -18v-11q0 -9 -4.5 -12.5t-18.5 -3.5h-284q-21 0 -21 18v11
q0 16 23 16h10q44 0 60 14.5t16 50.5zM222 769q-59 0 -96 37q-31 29 -47 79q-4 13 8 18l9 4q10 5 16 -5q17 -32 50 -49q25 -13 60 -13q38 0 64 14q29 16 46 43q7 11 16 7l10 -4q9 -5 5 -15q-21 -55 -46 -78q-38 -38 -95 -38z" />
    <glyph glyph-name="ibreve" unicode="&#x12d;" horiz-adv-x="331" 
d="M125 115v283q0 19 -8.5 26.5t-28.5 9.5l-25 2q-5 1 -7 1.5t-3.5 3t-1.5 7.5v9q0 11 9 15l131 51q8 3 15 -1l9 -6q5 -4 5 -13v-388q0 -38 8.5 -52.5t39.5 -18.5l8 -1q15 -3 15 -18v-11q0 -8 -2.5 -11t-11.5 -3h-210q-11 0 -14 3.5t-3 12.5v10q0 15 14 17l8 1
q32 4 42.5 18.5t10.5 52.5zM160 590q-69 0 -107 66q-14 25 -26 65q-4 14 9 19l11 4q12 5 17 -7q13 -30 31 -50q25 -31 67 -31q38 0 69 31q22 27 32 49q2 4 3.5 6t3.5 3t4 0.5t7 -1.5l9 -3q11 -5 7 -18q-10 -38 -27 -67q-40 -66 -110 -66z" />
    <glyph glyph-name="Iogonek" unicode="&#x12e;" horiz-adv-x="438" 
d="M164 110v480q0 36 -17 50.5t-65 14.5h-6q-21 0 -21 18v11q0 9 4.5 12.5t18.5 3.5h284q21 0 21 -18v-11q0 -9 -4.5 -12.5t-18.5 -3.5h-7q-45 0 -62 -14.5t-17 -50.5v-480q0 -36 16.5 -50.5t62.5 -14.5h9q21 0 21 -18v-11q0 -9 -4.5 -12.5t-18.5 -3.5h-284q-21 0 -21 18v11
q0 16 23 16h10q44 0 60 14.5t16 50.5zM228 -278q-46 0 -74 23.5t-28 66.5q0 94 136 198h41q-51 -48 -74.5 -85t-23.5 -77q0 -31 15.5 -49.5t40.5 -18.5q27 0 53 19q7 6 14 -1l7 -7q6 -6 -1 -15q-44 -54 -106 -54z" />
    <glyph glyph-name="iogonek" unicode="&#x12f;" horiz-adv-x="331" 
d="M162 600q-27 0 -46.5 18.5t-19.5 45.5t20 46.5t46 19.5q27 0 46 -19.5t19 -46.5t-19 -45.5t-46 -18.5zM125 115v283q0 19 -8.5 26.5t-28.5 9.5l-25 2q-5 1 -7 1.5t-3.5 3t-1.5 7.5v9q0 11 9 15l131 51q8 3 15 -1l9 -6q5 -4 5 -13v-388q0 -38 8.5 -52.5t39.5 -18.5l8 -1
q15 -3 15 -18v-11q0 -8 -2.5 -11t-11.5 -3h-210q-11 0 -14 3.5t-3 12.5v10q0 15 14 17l8 1q32 4 42.5 18.5t10.5 52.5zM169 -278q-46 0 -74 23.5t-28 66.5q0 94 136 198h41q-51 -48 -74.5 -85t-23.5 -77q0 -31 15.5 -49.5t40.5 -18.5q27 0 53 19q7 6 14 -1l7 -7q6 -6 -1 -15
q-44 -54 -106 -54z" />
    <glyph glyph-name="Idot" unicode="&#x130;" horiz-adv-x="438" 
d="M164 110v480q0 36 -17 50.5t-65 14.5h-6q-21 0 -21 18v11q0 9 4.5 12.5t18.5 3.5h284q21 0 21 -18v-11q0 -9 -4.5 -12.5t-18.5 -3.5h-7q-45 0 -62 -14.5t-17 -50.5v-480q0 -36 16.5 -50.5t62.5 -14.5h9q21 0 21 -18v-11q0 -9 -4.5 -12.5t-18.5 -3.5h-284q-21 0 -21 18v11
q0 16 23 16h10q44 0 60 14.5t16 50.5zM154 850q0 26 19 45t45 19t45 -19t19 -45t-19 -45t-45 -19t-45 19t-19 45z" />
    <glyph glyph-name="dotlessi" unicode="&#x131;" horiz-adv-x="331" 
d="M125 115v283q0 19 -8.5 26.5t-28.5 9.5l-25 2q-5 1 -7 1.5t-3.5 3t-1.5 7.5v9q0 11 9 15l131 51q8 3 15 -1l9 -6q5 -4 5 -13v-388q0 -38 8.5 -52.5t39.5 -18.5l8 -1q15 -3 15 -18v-11q0 -8 -2.5 -11t-11.5 -3h-210q-11 0 -14 3.5t-3 12.5v10q0 15 14 17l8 1
q32 4 42.5 18.5t10.5 52.5z" />
    <glyph glyph-name="IJ" unicode="&#x132;" horiz-adv-x="823" 
d="M147 361v231q0 36 -14.5 50.5t-55.5 14.5h-6q-21 0 -21 18v9q0 9 4.5 12.5t18.5 3.5h250q21 0 21 -18v-9q0 -9 -4.5 -12.5t-18.5 -3.5h-7q-38 0 -52.5 -14.5t-14.5 -50.5v-231q0 -36 14.5 -50.5t52.5 -14.5h9q21 0 21 -18v-9q0 -9 -4.5 -12.5t-18.5 -3.5h-250
q-21 0 -21 18v9q0 16 23 16h10q36 0 50 14.5t14 50.5zM584 247v343q0 36 -19 50.5t-71 14.5h-8q-21 0 -21 18v11q0 9 4.5 12.5t18.5 3.5h294q21 0 21 -18v-11q0 -9 -4.5 -12.5t-18.5 -3.5h-7q-45 0 -62 -14.5t-17 -50.5v-311q0 -155 -83 -226.5t-225 -71.5q-109 0 -174 40
t-65 106q0 32 18 50.5t46 18.5q23 0 36.5 -14.5t13.5 -38.5q0 -5 -1.5 -17.5t-1.5 -21.5q0 -36 32 -57.5t93 -21.5q201 0 201 222z" />
    <glyph glyph-name="ij" unicode="&#x133;" horiz-adv-x="624" 
d="M162 600q-27 0 -46.5 18.5t-19.5 45.5t20 46.5t46 19.5q27 0 46 -19.5t19 -46.5t-19 -45.5t-46 -18.5zM125 115v283q0 19 -8.5 26.5t-28.5 9.5l-25 2q-5 1 -7 1.5t-3.5 3t-1.5 7.5v9q0 11 9 15l131 51q8 3 15 -1l9 -6q5 -4 5 -13v-388q0 -38 8.5 -52.5t39.5 -18.5l8 -1
q15 -3 15 -18v-11q0 -8 -2.5 -11t-11.5 -3h-210q-11 0 -14 3.5t-3 12.5v10q0 15 14 17l8 1q32 4 42.5 18.5t10.5 52.5zM475 599q-27 0 -46.5 19t-19.5 46q0 26 20 46t46 20q27 0 46 -19.5t19 -46.5t-19 -46t-46 -19zM435 -100v498q0 19 -8.5 26.5t-28.5 9.5l-25 2
q-5 1 -7 1.5t-3.5 3t-1.5 7.5v9q0 11 9 15l131 51q8 3 15 -1l9 -6q5 -4 5 -13v-503q0 -72 -22.5 -129t-58.5 -89.5t-75.5 -49t-79.5 -16.5q-34 0 -52.5 17.5t-18.5 43.5q0 23 14.5 37t36.5 14q30 0 58 -32q17 -20 35 -20q32 0 50 34t18 90z" />
    <glyph glyph-name="Jcircumflex" unicode="&#x134;" horiz-adv-x="423" 
d="M179 -98v688q0 37 -18 51t-72 14h-8q-21 0 -21 18v11q0 9 4.5 12.5t18.5 3.5h294q21 0 21 -18v-11q0 -9 -4.5 -12.5t-18.5 -3.5h-7q-45 0 -62 -14.5t-17 -50.5v-616q0 -121 -58.5 -189.5t-142.5 -68.5q-51 0 -79.5 21t-28.5 60q0 28 17.5 44t42.5 16q23 0 36.5 -15
t13.5 -39q0 -6 -1 -15t-1 -13q0 -19 17 -19q74 0 74 146zM219 928h22q11 0 20 -9l111 -114q8 -9 1 -19l-7 -9q-8 -9 -18 -3l-119 75l-125 -75q-11 -8 -19 3l-8 9q-8 9 2 19l120 114q9 9 20 9z" />
    <glyph glyph-name="jcircumflex" unicode="&#x135;" horiz-adv-x="302" 
d="M245 565l-99 98l-107 -98q-10 -9 -20 0l-7 6q-10 9 -1 20l114 149q8 10 18 10h7q8 0 16 -9l109 -151q7 -10 -2 -18l-8 -7q-10 -9 -20 0zM113 -100v498q0 19 -8.5 26.5t-28.5 9.5l-25 2q-5 1 -7 1.5t-3.5 3t-1.5 7.5v9q0 11 9 15l131 51q8 3 15 -1l9 -6q5 -4 5 -13v-503
q0 -72 -22.5 -129t-58.5 -89.5t-75.5 -49t-79.5 -16.5q-34 0 -52.5 17.5t-18.5 43.5q0 23 14.5 37t36.5 14q30 0 58 -32q17 -20 35 -20q32 0 50 34t18 90z" />
    <glyph glyph-name="Kcommaaccent" unicode="&#x136;" horiz-adv-x="787" 
d="M516 108l-206 229h-36v-227q0 -36 16.5 -50.5t62.5 -14.5h9q21 0 21 -18v-11q0 -9 -4.5 -12.5t-18.5 -3.5h-284q-21 0 -21 18v11q0 16 23 16h10q44 0 60 14.5t16 50.5v480q0 36 -17 50.5t-65 14.5h-6q-21 0 -21 18v11q0 9 4.5 12.5t18.5 3.5h284q21 0 21 -18v-11
q0 -9 -4.5 -12.5t-18.5 -3.5h-7q-45 0 -62 -14.5t-17 -50.5v-208h36l201 191q31 30 27.5 56t-38.5 26h-6q-20 0 -20 17v11q0 17 17 17h245q19 0 19 -16v-9q0 -12 -4.5 -16t-18.5 -4q-40 0 -71.5 -17.5t-80.5 -65.5l-186 -176l236 -261q48 -54 73 -72t59 -18q15 0 15 -18v-10
q0 -17 -24 -17h-246q-18 0 -18 15v10q0 19 19 19h4q16 0 22.5 8.5t1.5 23.5t-20 32zM418 -217q24 26 36 59q-13 -5 -24 -5q-23 0 -36 13t-13 35q0 23 15.5 39t38.5 16q31 0 47 -21.5t16 -55.5q0 -65 -51 -109q-29 -26 -58 -38q-10 -4 -15 4l-5 9q-5 9 3 15q24 16 46 39z" />
    <glyph glyph-name="kcommaaccent" unicode="&#x137;" horiz-adv-x="600" 
d="M107 115v518q0 19 -8.5 26.5t-28.5 9.5l-25 2q-5 1 -7 1.5t-3.5 3t-1.5 7.5v9q0 10 9 15l131 51q8 3 15 -1l9 -6q5 -4 5 -13v-448h41l128 126q19 17 16 35t-29 22l-8 1q-10 2 -13 5.5t-3 12.5v10q0 14 14 14h200q11 0 14 -3t3 -13v-11q0 -8 -3 -11t-12 -5
q-63 -9 -128 -70l-108 -102l169 -191q52 -59 93 -67q14 -3 14 -16v-11q0 -9 -3 -12.5t-14 -3.5h-213q-13 0 -13 14v11q0 16 13 17l10 1q50 6 16 43l-142 159h-42v-130q0 -38 8.5 -52.5t39.5 -18.5l8 -1q15 -3 15 -18v-11q0 -8 -2.5 -11t-11.5 -3h-210q-11 0 -14 3.5t-3 12.5
v10q0 15 14 17l8 1q32 4 42.5 18.5t10.5 52.5zM298 -222q24 26 36 59q-13 -5 -24 -5q-23 0 -36 13t-13 35q0 23 15.5 39t38.5 16q31 0 47 -21.5t16 -55.5q0 -65 -51 -109q-29 -26 -58 -38q-10 -4 -15 4l-5 9q-5 9 3 15q24 16 46 39z" />
    <glyph glyph-name="Lacute" unicode="&#x139;" horiz-adv-x="713" 
d="M606 0h-530q-21 0 -21 18v11q0 9 4.5 12.5t18.5 3.5h10q43 0 59.5 15t16.5 50v480q0 36 -17 50.5t-65 14.5h-6q-21 0 -21 18v11q0 9 4.5 12.5t18.5 3.5h284q21 0 21 -18v-11q0 -9 -4.5 -12.5t-18.5 -3.5h-7q-45 0 -62 -14.5t-17 -50.5v-485q0 -32 9.5 -46t40.5 -14h72
q153 0 215 119q21 43 25 51q6 11 10.5 14t15.5 0l8 -2q16 -4 12 -24l-36 -174q-4 -17 -12.5 -23t-27.5 -6zM156 769l-3 6q-6 13 7 22l150 105q25 17 42 17q19 0 30.5 -13.5t11.5 -31.5q0 -27 -41 -44l-175 -67q-10 -4 -14 -3t-8 9z" />
    <glyph glyph-name="lacute" unicode="&#x13a;" horiz-adv-x="305" 
d="M220 946q17 0 28.5 -14t11.5 -31q0 -29 -39 -45l-163 -63q-10 -4 -14 -3t-8 9l-3 6q-6 13 7 22l139 103q22 16 41 16zM106 115v518q0 19 -8.5 26.5t-28.5 9.5l-25 2q-5 1 -7 1.5t-3.5 3t-1.5 7.5v9q0 10 9 15l131 51q8 3 15 -1l9 -6q5 -4 5 -13v-623q0 -38 8.5 -52.5
t39.5 -18.5l8 -1q15 -3 15 -18v-11q0 -8 -2.5 -11t-11.5 -3h-209q-11 0 -14 3.5t-3 12.5v10q0 15 14 17l8 1q31 4 41.5 18.5t10.5 52.5z" />
    <glyph glyph-name="Lcommaaccent" unicode="&#x13b;" horiz-adv-x="713" 
d="M606 0h-530q-21 0 -21 18v11q0 9 4.5 12.5t18.5 3.5h10q43 0 59.5 15t16.5 50v480q0 36 -17 50.5t-65 14.5h-6q-21 0 -21 18v11q0 9 4.5 12.5t18.5 3.5h284q21 0 21 -18v-11q0 -9 -4.5 -12.5t-18.5 -3.5h-7q-45 0 -62 -14.5t-17 -50.5v-485q0 -32 9.5 -46t40.5 -14h72
q153 0 215 119q21 43 25 51q6 11 10.5 14t15.5 0l8 -2q16 -4 12 -24l-36 -174q-4 -17 -12.5 -23t-27.5 -6zM377 -217q24 26 36 59q-13 -5 -24 -5q-23 0 -36 13t-13 35q0 23 15.5 39t38.5 16q31 0 47 -21.5t16 -55.5q0 -65 -51 -109q-29 -26 -58 -38q-10 -4 -15 4l-5 9
q-4 9 3 15q24 16 46 39z" />
    <glyph glyph-name="lcommaaccent" unicode="&#x13c;" horiz-adv-x="305" 
d="M106 115v518q0 19 -8.5 26.5t-28.5 9.5l-25 2q-5 1 -7 1.5t-3.5 3t-1.5 7.5v9q0 10 9 15l131 51q8 3 15 -1l9 -6q5 -4 5 -13v-623q0 -38 8.5 -52.5t39.5 -18.5l8 -1q15 -3 15 -18v-11q0 -8 -2.5 -11t-11.5 -3h-209q-11 0 -14 3.5t-3 12.5v10q0 15 14 17l8 1
q31 4 41.5 18.5t10.5 52.5zM133 -222q24 26 36 59q-13 -5 -24 -5q-23 0 -36 13t-13 35q0 23 15.5 39t38.5 16q31 0 47 -21.5t16 -55.5q0 -65 -51 -109q-29 -26 -58 -38q-10 -4 -15 4l-5 9q-4 9 3 15q24 16 46 39z" />
    <glyph glyph-name="Lcaron" unicode="&#x13d;" horiz-adv-x="713" 
d="M606 0h-530q-21 0 -21 18v11q0 9 4.5 12.5t18.5 3.5h10q43 0 59.5 15t16.5 50v480q0 36 -17 50.5t-65 14.5h-6q-21 0 -21 18v11q0 9 4.5 12.5t18.5 3.5h284q21 0 21 -18v-11q0 -9 -4.5 -12.5t-18.5 -3.5h-7q-45 0 -62 -14.5t-17 -50.5v-485q0 -32 9.5 -46t40.5 -14h72
q153 0 215 119q21 43 25 51q6 11 10.5 14t15.5 0l8 -2q16 -4 12 -24l-36 -174q-4 -17 -12.5 -23t-27.5 -6zM462 556q17 20 17 34q0 18 -18 29q-26 15 -26 43q0 20 13.5 33.5t34.5 13.5q25 0 41 -19t16 -50q0 -62 -50 -109q-21 -21 -39 -29q-9 -4 -15 3l-6 9q-6 9 2 15
q2 2 13 11t17 16z" />
    <glyph glyph-name="lcaron" unicode="&#x13e;" horiz-adv-x="322" 
d="M106 115v518q0 19 -8.5 26.5t-28.5 9.5l-25 2q-5 1 -7 1.5t-3.5 3t-1.5 7.5v9q0 10 9 15l131 51q8 3 15 -1l9 -6q5 -4 5 -13v-623q0 -38 8.5 -52.5t39.5 -18.5l8 -1q15 -3 15 -18v-11q0 -8 -2.5 -11t-11.5 -3h-209q-11 0 -14 3.5t-3 12.5v10q0 15 14 17l8 1
q31 4 41.5 18.5t10.5 52.5zM279 614q17 20 17 34q0 18 -18 29q-26 15 -26 43q0 20 13.5 33.5t34.5 13.5q25 0 41 -19t16 -50q0 -62 -50 -109q-21 -21 -39 -29q-9 -4 -15 3l-6 9q-6 9 2 15q2 2 13 11t17 16z" />
    <glyph glyph-name="Ldot" unicode="&#x13f;" horiz-adv-x="709" 
d="M606 0h-530q-21 0 -21 18v11q0 9 4.5 12.5t18.5 3.5h10q43 0 59.5 15t16.5 50v480q0 36 -17 50.5t-65 14.5h-6q-21 0 -21 18v11q0 9 4.5 12.5t18.5 3.5h284q21 0 21 -18v-11q0 -9 -4.5 -12.5t-18.5 -3.5h-7q-45 0 -62 -14.5t-17 -50.5v-485q0 -32 9.5 -46t40.5 -14h72
q87 0 136 25.5t81 86.5l19 39q9 18 24 14l12 -3q13 -3 10 -19l-32 -159q-5 -29 -40 -29zM578 285q-29 0 -49.5 20t-20.5 49q0 30 20.5 50.5t49.5 20.5q30 0 50 -20.5t20 -50.5q0 -29 -20 -49t-50 -20z" />
    <glyph glyph-name="ldot" unicode="&#x140;" horiz-adv-x="348" 
d="M106 115v518q0 19 -8.5 26.5t-28.5 9.5l-25 2q-5 1 -7 1.5t-3.5 3t-1.5 7.5v9q0 10 9 15l131 51q8 3 15 -1l9 -6q5 -4 5 -13v-623q0 -38 8.5 -52.5t39.5 -18.5l8 -1q15 -3 15 -18v-11q0 -8 -2.5 -11t-11.5 -3h-209q-11 0 -14 3.5t-3 12.5v10q0 15 14 17l8 1
q31 4 41.5 18.5t10.5 52.5zM326 227q-29 0 -49.5 20t-20.5 49q0 30 20.5 50.5t49.5 20.5q30 0 50 -20.5t20 -50.5q0 -29 -20 -49t-50 -20z" />
    <glyph glyph-name="Lslash" unicode="&#x141;" horiz-adv-x="713" 
d="M164 294l-92 -52q-17 -9 -17 9v19q0 15 12 22l97 55v243q0 36 -17 50.5t-65 14.5h-6q-21 0 -21 18v11q0 9 4.5 12.5t18.5 3.5h283q21 0 21 -18v-11q0 -9 -4.5 -12.5t-18.5 -3.5h-7q-45 0 -62 -14.5t-17 -50.5v-187l110 64q17 11 17 -9v-21q0 -15 -13 -23l-114 -65v-244
q0 -32 9.5 -46t40.5 -14h73q153 0 215 119q21 43 25 51q6 11 10.5 14t15.5 0l8 -2q16 -4 12 -24l-36 -174q-4 -17 -12.5 -23t-27.5 -6h-530q-21 0 -21 18v11q0 9 4.5 12.5t18.5 3.5h10q43 0 59.5 15t16.5 50v184z" />
    <glyph glyph-name="lslash" unicode="&#x142;" horiz-adv-x="324" 
d="M119 318l-69 -40q-15 -8 -15 9v17q0 14 12 21l72 42v266q0 19 -8.5 26.5t-28.5 9.5l-25 2q-5 1 -7 1.5t-3.5 3t-1.5 7.5v9q0 10 9 15l129 51q8 3 15 -1l9 -6q5 -4 5 -13v-324l67 39q16 9 16 -9v-17q0 -14 -11 -20l-72 -42v-250q0 -38 8.5 -52.5t39.5 -18.5l8 -1
q15 -3 15 -18v-11q0 -8 -2.5 -11t-11.5 -3h-207q-11 0 -14 3.5t-3 12.5v10q0 15 14 17l8 1q31 4 41.5 18.5t10.5 52.5v203z" />
    <glyph glyph-name="Nacute" unicode="&#x143;" horiz-adv-x="820" 
d="M648 8l-448 553v-323q0 -81 9 -122.5t25 -54.5t49 -16l13 -1q13 -1 13 -18v-10q0 -16 -19 -16h-227q-13 0 -18 3.5t-5 14.5v9q0 16 21 17l12 1q40 2 58.5 43.5t18.5 149.5v272q0 81 -25 113t-72 32h-7q-16 0 -16 16v11q0 18 27 18h131q26 0 36 -5t25 -23l394 -483v294
q0 98 -19.5 133t-67.5 39l-11 1q-18 2 -18 17v9q0 11 4.5 14.5t16.5 3.5h227q23 0 23 -16v-11q0 -15 -17 -17l-12 -1q-41 -4 -58.5 -40t-17.5 -135v-466q0 -22 -17 -22h-3q-13 0 -25 16zM348 769l-3 6q-6 13 7 22l150 105q25 17 42 17q19 0 30.5 -13.5t11.5 -31.5
q0 -27 -41 -44l-175 -67q-10 -4 -14 -3t-8 9z" />
    <glyph glyph-name="nacute" unicode="&#x144;" horiz-adv-x="640" 
d="M277 0h-210q-11 0 -14 3.5t-3 12.5v10q0 15 14 17l8 1q32 4 42.5 18.5t10.5 52.5v283q0 19 -8.5 26.5t-28.5 9.5l-25 2q-5 1 -7 1.5t-3.5 3t-1.5 7.5v9q0 11 9 15l131 51q8 3 15 -1l9 -6q5 -4 5 -13v-83q74 104 170 104q65 0 108 -43t43 -118v-248q0 -38 8.5 -52.5
t39.5 -18.5l8 -1q15 -3 15 -18v-11q0 -8 -2.5 -11t-11.5 -3h-210q-11 0 -14 3.5t-3 12.5v10q0 15 14 17l8 1q32 4 42.5 18.5t10.5 52.5v228q0 50 -26 79.5t-68 29.5q-69 0 -132 -76v-261q0 -38 8.5 -52.5t39.5 -18.5l8 -1q15 -3 15 -18v-11q0 -8 -2.5 -11t-11.5 -3zM434 756
q17 0 29 -14t12 -30q0 -27 -29 -43l-154 -89q-12 -8 -21 1l-6 7q-8 9 4 21l123 125q22 22 42 22z" />
    <glyph glyph-name="Ncommaaccent" unicode="&#x145;" horiz-adv-x="820" 
d="M648 8l-448 553v-323q0 -81 9 -122.5t25 -54.5t49 -16l13 -1q13 -1 13 -18v-10q0 -16 -19 -16h-227q-13 0 -18 3.5t-5 14.5v9q0 16 21 17l12 1q40 2 58.5 43.5t18.5 149.5v272q0 81 -25 113t-72 32h-7q-16 0 -16 16v11q0 18 27 18h131q26 0 36 -5t25 -23l394 -483v294
q0 98 -19.5 133t-67.5 39l-11 1q-18 2 -18 17v9q0 11 4.5 14.5t16.5 3.5h227q23 0 23 -16v-11q0 -15 -17 -17l-12 -1q-41 -4 -58.5 -40t-17.5 -135v-466q0 -22 -17 -22h-3q-13 0 -25 16zM426 -217q24 26 36 59q-13 -5 -24 -5q-23 0 -36 13t-13 35q0 23 15.5 39t38.5 16
q31 0 47 -21.5t16 -55.5q0 -65 -51 -109q-29 -26 -58 -38q-10 -4 -15 4l-5 9q-5 9 3 15q24 16 46 39z" />
    <glyph glyph-name="ncommaaccent" unicode="&#x146;" horiz-adv-x="640" 
d="M277 0h-210q-11 0 -14 3.5t-3 12.5v10q0 15 14 17l8 1q32 4 42.5 18.5t10.5 52.5v283q0 19 -8.5 26.5t-28.5 9.5l-25 2q-5 1 -7 1.5t-3.5 3t-1.5 7.5v9q0 11 9 15l131 51q8 3 15 -1l9 -6q5 -4 5 -13v-83q74 104 170 104q65 0 108 -43t43 -118v-248q0 -38 8.5 -52.5
t39.5 -18.5l8 -1q15 -3 15 -18v-11q0 -8 -2.5 -11t-11.5 -3h-210q-11 0 -14 3.5t-3 12.5v10q0 15 14 17l8 1q32 4 42.5 18.5t10.5 52.5v228q0 50 -26 79.5t-68 29.5q-69 0 -132 -76v-261q0 -38 8.5 -52.5t39.5 -18.5l8 -1q15 -3 15 -18v-11q0 -8 -2.5 -11t-11.5 -3z
M312 -222q24 26 36 59q-13 -5 -24 -5q-23 0 -36 13t-13 35q0 23 15.5 39t38.5 16q31 0 47 -21.5t16 -55.5q0 -65 -51 -109q-29 -26 -58 -38q-10 -4 -15 4l-5 9q-5 9 3 15q24 16 46 39z" />
    <glyph glyph-name="Ncaron" unicode="&#x147;" horiz-adv-x="820" 
d="M648 8l-448 553v-323q0 -81 9 -122.5t25 -54.5t49 -16l13 -1q13 -1 13 -18v-10q0 -16 -19 -16h-227q-13 0 -18 3.5t-5 14.5v9q0 16 21 17l12 1q40 2 58.5 43.5t18.5 149.5v272q0 81 -25 113t-72 32h-7q-16 0 -16 16v11q0 18 27 18h131q26 0 36 -5t25 -23l394 -483v294
q0 98 -19.5 133t-67.5 39l-11 1q-18 2 -18 17v9q0 11 4.5 14.5t16.5 3.5h227q23 0 23 -16v-11q0 -15 -17 -17l-12 -1q-41 -4 -58.5 -40t-17.5 -135v-466q0 -22 -17 -22h-3q-13 0 -25 16zM435 750h-13q-11 0 -20 8l-120 117q-10 10 -1 20l8 9q8 9 17 3l123 -78l123 77
q9 6 17 -3l6 -7q9 -9 -2 -20l-120 -118q-8 -8 -18 -8z" />
    <glyph glyph-name="ncaron" unicode="&#x148;" horiz-adv-x="640" 
d="M277 0h-210q-11 0 -14 3.5t-3 12.5v10q0 15 14 17l8 1q32 4 42.5 18.5t10.5 52.5v283q0 19 -8.5 26.5t-28.5 9.5l-25 2q-5 1 -7 1.5t-3.5 3t-1.5 7.5v9q0 11 9 15l131 51q8 3 15 -1l9 -6q5 -4 5 -13v-83q74 104 170 104q65 0 108 -43t43 -118v-248q0 -38 8.5 -52.5
t39.5 -18.5l8 -1q15 -3 15 -18v-11q0 -8 -2.5 -11t-11.5 -3h-210q-11 0 -14 3.5t-3 12.5v10q0 15 14 17l8 1q32 4 42.5 18.5t10.5 52.5v228q0 50 -26 79.5t-68 29.5q-69 0 -132 -76v-261q0 -38 8.5 -52.5t39.5 -18.5l8 -1q15 -3 15 -18v-11q0 -8 -2.5 -11t-11.5 -3zM204 746
l9 8q11 9 21 -1l101 -96l104 96q10 10 21 0l7 -6q10 -9 1 -21l-108 -138q-8 -10 -18 -10h-16q-10 0 -18 10l-105 136q-9 12 1 22z" />
    <glyph glyph-name="Eng" unicode="&#x14a;" horiz-adv-x="820" 
d="M200 561v-323q0 -81 9 -122.5t25 -54.5t49 -16l13 -1q13 -1 13 -18v-10q0 -16 -19 -16h-227q-13 0 -18 3.5t-5 14.5v9q0 16 21 17l12 1q40 2 58.5 43.5t18.5 149.5v272q0 81 -25 113t-72 32h-7q-16 0 -16 16v11q0 18 27 18h131q26 0 36 -5t25 -23l394 -483v294
q0 98 -19.5 133t-67.5 39l-11 1q-18 2 -18 17v9q0 11 4.5 14.5t16.5 3.5h227q23 0 23 -16v-11q0 -15 -17 -17l-12 -1q-41 -4 -58.5 -40t-17.5 -135v-452q0 -127 -46 -192.5t-128 -65.5q-43 0 -71.5 20t-28.5 52q0 27 16.5 42t41.5 15q32 0 48 -37q6 -15 12 -24q9 -13 23 -13
q35 0 56.5 52t22.5 142z" />
    <glyph glyph-name="eng" unicode="&#x14b;" horiz-adv-x="625" 
d="M446 -92v426q0 57 -26.5 87.5t-74.5 30.5q-33 0 -61 -17t-64 -59v-261q0 -38 8.5 -52.5t39.5 -18.5l8 -1q15 -3 15 -18v-11q0 -8 -2.5 -11t-11.5 -3h-210q-11 0 -14 3.5t-3 12.5v10q0 15 14 17l8 1q32 4 42.5 18.5t10.5 52.5v283q0 19 -8.5 26.5t-28.5 9.5l-25 2
q-5 1 -7 1.5t-3.5 3t-1.5 7.5v9q0 11 9 15l131 51q8 3 15 -1l9 -6q5 -4 5 -13v-83q75 104 167 104q64 0 109 -44t45 -107v-373q0 -70 -20 -126t-53 -89.5t-71 -51t-77 -17.5q-35 0 -53 15.5t-18 42.5q0 23 14 36.5t36 13.5q26 0 51 -34q16 -21 29 -21q27 0 47 40t20 99z" />
    <glyph glyph-name="Omacron" unicode="&#x14c;" horiz-adv-x="852" 
d="M663 340q0 143 -70 237.5t-180 94.5q-103 0 -163.5 -83t-60.5 -229q0 -90 28.5 -165t85.5 -121t133 -46q110 0 168.5 84t58.5 228zM790 350q0 -165 -106.5 -264.5t-257.5 -99.5q-69 0 -133.5 24t-116.5 68.5t-83 115t-31 156.5q0 116 53 200.5t134 124t177 39.5
q67 0 130 -22.5t116 -65.5t85.5 -115t32.5 -161zM547 800h-256q-9 0 -12 3t-3 13v36q0 10 3 13t12 3h256q9 0 12 -3t3 -13v-36q0 -10 -3 -13t-12 -3z" />
    <glyph glyph-name="omacron" unicode="&#x14d;" horiz-adv-x="592" 
d="M298 -5q-110 0 -181.5 73.5t-71.5 193.5t71.5 189.5t180.5 69.5q112 0 181 -68t69 -188q0 -119 -67.5 -194.5t-181.5 -75.5zM309 36q128 0 128 207q0 101 -40.5 169t-110.5 68q-64 0 -98 -52.5t-34 -147.5q0 -57 17 -111.5t53.5 -93.5t84.5 -39zM412 630h-232
q-12 0 -15.5 3t-3.5 15v28q0 12 3.5 15t17.5 3h228q14 0 17.5 -3t3.5 -15v-28q0 -12 -3.5 -15t-15.5 -3z" />
    <glyph glyph-name="Obreve" unicode="&#x14e;" horiz-adv-x="852" 
d="M663 340q0 143 -70 237.5t-180 94.5q-103 0 -163.5 -83t-60.5 -229q0 -90 28.5 -165t85.5 -121t133 -46q110 0 168.5 84t58.5 228zM790 350q0 -165 -106.5 -264.5t-257.5 -99.5q-69 0 -133.5 24t-116.5 68.5t-83 115t-31 156.5q0 116 53 200.5t134 124t177 39.5
q67 0 130 -22.5t116 -65.5t85.5 -115t32.5 -161zM422 769q-59 0 -96 37q-31 29 -47 79q-4 13 8 18l9 4q10 5 16 -5q17 -32 50 -49q25 -13 60 -13q38 0 64 14q29 16 46 43q7 11 16 7l10 -4q9 -5 5 -15q-21 -55 -46 -78q-38 -38 -95 -38z" />
    <glyph glyph-name="obreve" unicode="&#x14f;" horiz-adv-x="592" 
d="M298 -5q-110 0 -181.5 73.5t-71.5 193.5t71.5 189.5t180.5 69.5q112 0 181 -68t69 -188q0 -119 -67.5 -194.5t-181.5 -75.5zM309 36q128 0 128 207q0 101 -40.5 169t-110.5 68q-64 0 -98 -52.5t-34 -147.5q0 -57 17 -111.5t53.5 -93.5t84.5 -39zM292 590q-69 0 -107 66
q-14 25 -26 65q-4 14 9 19l11 4q12 5 17 -7q13 -30 31 -50q25 -31 67 -31q38 0 69 31q22 27 32 49q2 4 3.5 6t3.5 3t4 0.5t7 -1.5l9 -3q11 -5 7 -18q-10 -38 -27 -67q-40 -66 -110 -66z" />
    <glyph glyph-name="Ohungarumlaut" unicode="&#x150;" horiz-adv-x="852" 
d="M663 340q0 143 -70 237.5t-180 94.5q-103 0 -163.5 -83t-60.5 -229q0 -90 28.5 -165t85.5 -121t133 -46q110 0 168.5 84t58.5 228zM790 350q0 -165 -106.5 -264.5t-257.5 -99.5q-69 0 -133.5 24t-116.5 68.5t-83 115t-31 156.5q0 116 53 200.5t134 124t177 39.5
q67 0 130 -22.5t116 -65.5t85.5 -115t32.5 -161zM267 794l124 117q16 16 34 16q17 0 27 -11.5t10 -27.5q0 -22 -29 -39l-145 -83q-13 -7 -19 2l-5 7q-7 10 3 19zM448 795l135 108q18 15 36 15q17 0 27.5 -13t10.5 -29q0 -25 -34 -40l-158 -71q-11 -5 -16 3l-5 8q-6 10 4 19z
" />
    <glyph glyph-name="ohungarumlaut" unicode="&#x151;" horiz-adv-x="592" 
d="M298 -5q-110 0 -181.5 73.5t-71.5 193.5t71.5 189.5t180.5 69.5q112 0 181 -68t69 -188q0 -119 -67.5 -194.5t-181.5 -75.5zM309 36q128 0 128 207q0 101 -40.5 169t-110.5 68q-64 0 -98 -52.5t-34 -147.5q0 -57 17 -111.5t53.5 -93.5t84.5 -39zM313 755q14 0 25.5 -11
t11.5 -25q0 -21 -27 -41l-123 -92q-14 -10 -22 -2l-6 6q-9 9 1 21l106 126q15 18 34 18zM488 752q14 0 25.5 -12t11.5 -26q0 -22 -29 -40l-140 -90q-13 -8 -21 0l-6 7q-8 8 4 21l120 122q18 18 35 18z" />
    <glyph glyph-name="OE" unicode="&#x152;" horiz-adv-x="1093" 
d="M747 655h-63q-14 0 -18 -4.5t-4 -17.5v-247h105q33 0 48.5 24t15.5 61v7q0 19 19 19h11q17 0 17 -23v-209q0 -11 -4 -15t-13 -4h-10q-19 0 -19 20v8q0 67 -66 67h-104v-238q0 -30 10 -44t40 -14h73q73 0 114 21.5t72 71.5l26 42q10 17 26 12l10 -3q13 -4 9 -23l-29 -136
q-4 -18 -12.5 -24t-26.5 -6h-559q-70 0 -132 19.5t-112 58.5t-79.5 105.5t-29.5 152.5q0 167 104 265.5t262 98.5h522q20 0 27.5 -5t9.5 -24l16 -122q2 -14 -10 -17l-8 -2q-14 -4 -25 14l-20 32q-29 46 -67.5 62.5t-125.5 16.5zM423 45h32q57 0 77.5 19t20.5 71v430
q0 52 -21 71t-77 19h-27q-118 0 -178.5 -85.5t-60.5 -224.5q0 -136 63.5 -218t170.5 -82z" />
    <glyph glyph-name="oe" unicode="&#x153;" horiz-adv-x="923" 
d="M682 -5q-123 0 -191 95q-63 -95 -193 -95q-110 0 -181.5 74t-71.5 195q0 120 71.5 190t180.5 70q129 0 195 -91q69 88 191 88q87 0 141.5 -55t54.5 -128q0 -19 -18 -19h-317q-1 -12 -1 -35q0 -93 42 -155t129 -62q75 0 130 70q9 12 20 4l8 -5q10 -6 3 -19
q-63 -122 -193 -122zM309 36q128 0 128 209q0 101 -40.5 169.5t-110.5 68.5q-64 0 -98 -53t-34 -148q0 -57 17 -112t53.5 -94.5t84.5 -39.5zM679 485q-95 0 -128 -124h197q13 0 18 4t5 16q0 48 -24.5 76t-67.5 28z" />
    <glyph glyph-name="Racute" unicode="&#x154;" horiz-adv-x="767" 
d="M304 328h-30v-218q0 -36 16.5 -50.5t62.5 -14.5h9q21 0 21 -18v-11q0 -9 -4.5 -12.5t-18.5 -3.5h-284q-21 0 -21 18v11q0 16 23 16h10q44 0 60 14.5t16 50.5v480q0 36 -17 50.5t-65 14.5h-6q-21 0 -21 18v11q0 9 4.5 12.5t18.5 3.5h320q102 0 164 -44.5t62 -131.5
q0 -69 -44.5 -116t-124.5 -61q20 -13 49 -50l129 -187q23 -34 46 -49.5t61 -15.5q17 0 17 -17v-12q0 -16 -20 -16h-130q-20 0 -29 4.5t-18 18.5l-173 255q-19 28 -37 39t-46 11zM274 627v-255h77q77 0 120.5 38t43.5 102q0 143 -157 143h-57q-17 0 -22 -6t-5 -22zM266 769
l-3 6q-6 13 7 22l150 105q25 17 42 17q19 0 30.5 -13.5t11.5 -31.5q0 -27 -41 -44l-175 -67q-10 -4 -14 -3t-8 9z" />
    <glyph glyph-name="racute" unicode="&#x155;" horiz-adv-x="446" 
d="M289 0h-222q-11 0 -14 3.5t-3 12.5v10q0 15 14 17l8 1q32 4 42.5 18.5t10.5 52.5v283q0 19 -8.5 26.5t-28.5 9.5l-25 2q-5 1 -7 1.5t-3.5 3t-1.5 7.5v9q0 11 9 15l131 51q8 3 15 -1l9 -6q5 -4 5 -13v-83q62 105 138 105q30 0 47.5 -17.5t17.5 -45.5q0 -24 -13.5 -38.5
t-34.5 -14.5q-19 0 -41 16q-19 14 -35 14q-39 0 -79 -71v-253q0 -39 9.5 -54t45.5 -17l13 -1q15 -1 15 -18v-11q0 -8 -2.5 -11t-11.5 -3zM353 756q17 0 29 -14t12 -30q0 -27 -29 -43l-154 -89q-12 -8 -21 1l-6 7q-8 9 4 21l123 125q22 22 42 22z" />
    <glyph glyph-name="Rcommaaccent" unicode="&#x156;" horiz-adv-x="767" 
d="M304 328h-30v-218q0 -36 16.5 -50.5t62.5 -14.5h9q21 0 21 -18v-11q0 -9 -4.5 -12.5t-18.5 -3.5h-284q-21 0 -21 18v11q0 16 23 16h10q44 0 60 14.5t16 50.5v480q0 36 -17 50.5t-65 14.5h-6q-21 0 -21 18v11q0 9 4.5 12.5t18.5 3.5h320q102 0 164 -44.5t62 -131.5
q0 -69 -44.5 -116t-124.5 -61q20 -13 49 -50l129 -187q23 -34 46 -49.5t61 -15.5q17 0 17 -17v-12q0 -16 -20 -16h-130q-20 0 -29 4.5t-18 18.5l-173 255q-19 28 -37 39t-46 11zM274 627v-255h77q77 0 120.5 38t43.5 102q0 143 -157 143h-57q-17 0 -22 -6t-5 -22zM420 -217
q24 26 36 59q-13 -5 -24 -5q-23 0 -36 13t-13 35q0 23 15.5 39t38.5 16q31 0 47 -21.5t16 -55.5q0 -65 -51 -109q-29 -26 -58 -38q-10 -4 -15 4l-5 9q-5 9 3 15q24 16 46 39z" />
    <glyph glyph-name="rcommaaccent" unicode="&#x157;" horiz-adv-x="446" 
d="M289 0h-222q-11 0 -14 3.5t-3 12.5v10q0 15 14 17l8 1q32 4 42.5 18.5t10.5 52.5v283q0 19 -8.5 26.5t-28.5 9.5l-25 2q-5 1 -7 1.5t-3.5 3t-1.5 7.5v9q0 11 9 15l131 51q8 3 15 -1l9 -6q5 -4 5 -13v-83q62 105 138 105q30 0 47.5 -17.5t17.5 -45.5q0 -24 -13.5 -38.5
t-34.5 -14.5q-19 0 -41 16q-19 14 -35 14q-39 0 -79 -71v-253q0 -39 9.5 -54t45.5 -17l13 -1q15 -1 15 -18v-11q0 -8 -2.5 -11t-11.5 -3zM160 -219q24 26 36 59q-13 -5 -24 -5q-23 0 -36 13t-13 35q0 23 15.5 39t38.5 16q31 0 47 -21.5t16 -55.5q0 -65 -51 -109
q-29 -26 -58 -38q-10 -4 -15 4l-5 9q-5 9 3 15q24 16 46 39z" />
    <glyph glyph-name="Rcaron" unicode="&#x158;" horiz-adv-x="767" 
d="M304 328h-30v-218q0 -36 16.5 -50.5t62.5 -14.5h9q21 0 21 -18v-11q0 -9 -4.5 -12.5t-18.5 -3.5h-284q-21 0 -21 18v11q0 16 23 16h10q44 0 60 14.5t16 50.5v480q0 36 -17 50.5t-65 14.5h-6q-21 0 -21 18v11q0 9 4.5 12.5t18.5 3.5h320q102 0 164 -44.5t62 -131.5
q0 -69 -44.5 -116t-124.5 -61q20 -13 49 -50l129 -187q23 -34 46 -49.5t61 -15.5q17 0 17 -17v-12q0 -16 -20 -16h-130q-20 0 -29 4.5t-18 18.5l-173 255q-19 28 -37 39t-46 11zM274 627v-255h77q77 0 120.5 38t43.5 102q0 143 -157 143h-57q-17 0 -22 -6t-5 -22zM361 760
h-13q-11 0 -20 8l-120 117q-10 10 -1 20l8 9q8 9 17 3l123 -78l123 77q9 6 17 -3l6 -7q9 -9 -2 -20l-120 -118q-8 -8 -18 -8z" />
    <glyph glyph-name="rcaron" unicode="&#x159;" horiz-adv-x="446" 
d="M289 0h-222q-11 0 -14 3.5t-3 12.5v10q0 15 14 17l8 1q32 4 42.5 18.5t10.5 52.5v283q0 19 -8.5 26.5t-28.5 9.5l-25 2q-5 1 -7 1.5t-3.5 3t-1.5 7.5v9q0 11 9 15l131 51q8 3 15 -1l9 -6q5 -4 5 -13v-83q62 105 138 105q30 0 47.5 -17.5t17.5 -45.5q0 -24 -13.5 -38.5
t-34.5 -14.5q-19 0 -41 16q-19 14 -35 14q-39 0 -79 -71v-253q0 -39 9.5 -54t45.5 -17l13 -1q15 -1 15 -18v-11q0 -8 -2.5 -11t-11.5 -3zM134 746l9 8q11 9 21 -1l101 -96l104 96q10 10 21 0l7 -6q10 -9 1 -21l-108 -138q-8 -10 -18 -10h-16q-10 0 -18 10l-105 136
q-9 12 1 22z" />
    <glyph glyph-name="Sacute" unicode="&#x15a;" horiz-adv-x="596" 
d="M293 667q-54 0 -88 -26.5t-34 -75.5q0 -28 11 -49.5t36.5 -39.5t45 -28t58.5 -27q98 -45 131 -70q83 -62 83 -168q0 -90 -64 -143.5t-156 -53.5q-86 0 -162 41q-18 8 -20 8q-8 0 -11 -10l-5 -16q-3 -10 -13 -10h-17q-11 0 -11 13l-2 183q0 16 14 16h18q12 0 15 -12
q16 -80 65.5 -123t124.5 -43q62 0 95.5 30t33.5 84q0 56 -38.5 90.5t-112.5 65.5q-43 18 -66 29t-55 31.5t-47.5 41t-27.5 52.5t-12 71q0 86 61.5 136t153.5 50q77 0 143 -36q13 -7 18 -7q8 0 11 9l5 15q3 8 11 8h15q10 0 10 -13l4 -156q0 -10 -2.5 -14t-11.5 -4h-18
q-11 0 -16 14q-36 137 -173 137zM208 769l-3 6q-6 13 7 22l150 105q25 17 42 17q19 0 30.5 -13.5t11.5 -31.5q0 -27 -41 -44l-175 -67q-10 -4 -14 -3t-8 9z" />
    <glyph glyph-name="sacute" unicode="&#x15b;" horiz-adv-x="444" 
d="M71 22q-9 4 -11 22l-6 103q-1 17 14 18l16 1q10 0 13 -10q31 -119 130 -119q43 0 66.5 22t23.5 57q0 36 -24.5 57.5t-77.5 45.5q-78 34 -114.5 68.5t-36.5 92.5q0 69 50 105t122 36q71 0 126 -24q10 -5 12 -18l7 -90q1 -13 -12 -15l-15 -2q-11 -1 -16 13q-32 95 -107 95
q-37 0 -60 -19.5t-23 -52.5q0 -24 16.5 -44t35.5 -31t51 -26q7 -3 11 -5q33 -16 50.5 -26t41.5 -29t35 -43.5t11 -55.5q0 -71 -48.5 -112t-133.5 -41q-90 0 -147 27zM326 756q17 0 29 -14t12 -30q0 -27 -29 -43l-154 -89q-12 -8 -21 1l-6 7q-8 9 4 21l123 125q22 22 42 22z
" />
    <glyph glyph-name="Scircumflex" unicode="&#x15c;" horiz-adv-x="596" 
d="M293 667q-54 0 -88 -26.5t-34 -75.5q0 -28 11 -49.5t36.5 -39.5t45 -28t58.5 -27q98 -45 131 -70q83 -62 83 -168q0 -90 -64 -143.5t-156 -53.5q-86 0 -162 41q-18 8 -20 8q-8 0 -11 -10l-5 -16q-3 -10 -13 -10h-17q-11 0 -11 13l-2 183q0 16 14 16h18q12 0 15 -12
q16 -80 65.5 -123t124.5 -43q62 0 95.5 30t33.5 84q0 56 -38.5 90.5t-112.5 65.5q-43 18 -66 29t-55 31.5t-47.5 41t-27.5 52.5t-12 71q0 86 61.5 136t153.5 50q77 0 143 -36q13 -7 18 -7q8 0 11 9l5 15q3 8 11 8h15q10 0 10 -13l4 -156q0 -10 -2.5 -14t-11.5 -4h-18
q-11 0 -16 14q-36 137 -173 137zM297 928h22q11 0 20 -9l111 -114q9 -9 1 -19l-7 -9q-8 -9 -18 -3l-119 75l-125 -75q-11 -8 -19 3l-8 9q-8 9 2 19l120 114q9 9 20 9z" />
    <glyph glyph-name="scircumflex" unicode="&#x15d;" horiz-adv-x="444" 
d="M71 22q-9 4 -11 22l-6 103q-1 17 14 18l16 1q10 0 13 -10q31 -119 130 -119q43 0 66.5 22t23.5 57q0 36 -24.5 57.5t-77.5 45.5q-78 34 -114.5 68.5t-36.5 92.5q0 69 50 105t122 36q71 0 126 -24q10 -5 12 -18l7 -90q1 -13 -12 -15l-15 -2q-11 -1 -16 13q-32 95 -107 95
q-37 0 -60 -19.5t-23 -52.5q0 -24 16.5 -44t35.5 -31t51 -26q7 -3 11 -5q33 -16 50.5 -26t41.5 -29t35 -43.5t11 -55.5q0 -71 -48.5 -112t-133.5 -41q-90 0 -147 27zM331 575l-99 98l-107 -98q-10 -9 -20 0l-7 6q-10 9 -1 20l114 149q8 10 18 10h7q8 0 16 -9l109 -151
q7 -10 -2 -18l-8 -7q-10 -9 -20 0z" />
    <glyph glyph-name="Scedilla" unicode="&#x15e;" horiz-adv-x="596" 
d="M293 667q-54 0 -88 -26.5t-34 -75.5q0 -28 11 -49.5t36.5 -39.5t45 -28t58.5 -27q98 -45 131 -70q83 -62 83 -168q0 -90 -64 -143.5t-156 -53.5q-86 0 -162 41q-18 8 -20 8q-8 0 -11 -10l-5 -16q-3 -10 -13 -10h-17q-11 0 -11 13l-2 183q0 16 14 16h18q12 0 15 -12
q16 -80 65.5 -123t124.5 -43q62 0 95.5 30t33.5 84q0 56 -38.5 90.5t-112.5 65.5q-43 18 -66 29t-55 31.5t-47.5 41t-27.5 52.5t-12 71q0 86 61.5 136t153.5 50q77 0 143 -36q13 -7 18 -7q8 0 11 9l5 15q3 8 11 8h15q10 0 10 -13l4 -156q0 -10 -2.5 -14t-11.5 -4h-18
q-11 0 -16 14q-36 137 -173 137zM196 -274q-9 3 -9 11v11q0 13 11 13h16q50 0 83 16.5t33 48.5q0 24 -23.5 37t-72.5 22q-6 1 -7 5.5t4 11.5l83 107h46l-59 -76q105 -14 105 -90q0 -51 -45.5 -86t-119.5 -35q-29 0 -45 4z" />
    <glyph glyph-name="scedilla" unicode="&#x15f;" horiz-adv-x="444" 
d="M71 22q-9 4 -11 22l-6 103q-1 17 14 18l16 1q10 0 13 -10q31 -119 130 -119q43 0 66.5 22t23.5 57q0 36 -24.5 57.5t-77.5 45.5q-78 34 -114.5 68.5t-36.5 92.5q0 69 50 105t122 36q71 0 126 -24q10 -5 12 -18l7 -90q1 -13 -12 -15l-15 -2q-11 -1 -16 13q-32 95 -107 95
q-37 0 -60 -19.5t-23 -52.5q0 -24 16.5 -44t35.5 -31t51 -26q7 -3 11 -5q33 -16 50.5 -26t41.5 -29t35 -43.5t11 -55.5q0 -71 -48.5 -112t-133.5 -41q-90 0 -147 27zM105 -274q-9 3 -9 11v11q0 13 11 13h16q50 0 83 16.5t33 48.5q0 24 -23.5 37t-72.5 22q-6 1 -7 5.5t4 11.5
l83 107h46l-59 -76q105 -14 105 -90q0 -51 -45.5 -86t-119.5 -35q-29 0 -45 4z" />
    <glyph glyph-name="Scaron" unicode="&#x160;" horiz-adv-x="596" 
d="M293 667q-54 0 -88 -26.5t-34 -75.5q0 -28 11 -49.5t36.5 -39.5t45 -28t58.5 -27q98 -45 131 -70q83 -62 83 -168q0 -90 -64 -143.5t-156 -53.5q-86 0 -162 41q-18 8 -20 8q-8 0 -11 -10l-5 -16q-3 -10 -13 -10h-17q-11 0 -11 13l-2 183q0 16 14 16h18q12 0 15 -12
q16 -80 65.5 -123t124.5 -43q62 0 95.5 30t33.5 84q0 56 -38.5 90.5t-112.5 65.5q-43 18 -66 29t-55 31.5t-47.5 41t-27.5 52.5t-12 71q0 86 61.5 136t153.5 50q77 0 143 -36q13 -7 18 -7q8 0 11 9l5 15q3 8 11 8h15q10 0 10 -13l4 -156q0 -10 -2.5 -14t-11.5 -4h-18
q-11 0 -16 14q-36 137 -173 137zM316 760h-13q-11 0 -20 8l-120 117q-10 10 -1 20l8 9q8 9 17 3l123 -78l123 77q9 6 17 -3l6 -7q9 -9 -2 -20l-120 -118q-8 -8 -18 -8z" />
    <glyph glyph-name="scaron" unicode="&#x161;" horiz-adv-x="444" 
d="M71 22q-9 4 -11 22l-6 103q-1 17 14 18l16 1q10 0 13 -10q31 -119 130 -119q43 0 66.5 22t23.5 57q0 36 -24.5 57.5t-77.5 45.5q-78 34 -114.5 68.5t-36.5 92.5q0 69 50 105t122 36q71 0 126 -24q10 -5 12 -18l7 -90q1 -13 -12 -15l-15 -2q-11 -1 -16 13q-32 95 -107 95
q-37 0 -60 -19.5t-23 -52.5q0 -24 16.5 -44t35.5 -31t51 -26q7 -3 11 -5q33 -16 50.5 -26t41.5 -29t35 -43.5t11 -55.5q0 -71 -48.5 -112t-133.5 -41q-90 0 -147 27zM101 746l9 8q11 9 21 -1l101 -96l104 96q10 10 21 0l7 -6q10 -9 1 -21l-108 -138q-8 -10 -18 -10h-16
q-10 0 -18 10l-105 136q-9 12 1 22z" />
    <glyph glyph-name="Tcommaaccent" unicode="&#x162;" horiz-adv-x="798" 
d="M319 655h-69q-113 0 -159 -77l-21 -35q-9 -17 -24 -13l-11 4q-14 5 -7 30l40 132q6 18 19 18q7 0 35 -7t50 -7h455q27 0 56 7t36 7q12 0 16 -16l36 -133q5 -21 -7 -25l-10 -4q-15 -5 -27 15l-14 23q-26 44 -66.5 62.5t-101.5 18.5h-60q-17 0 -22.5 -7t-5.5 -25v-513
q0 -36 16.5 -50.5t62.5 -14.5h9q21 0 21 -18v-11q0 -9 -4.5 -12.5t-18.5 -3.5h-284q-21 0 -21 18v11q0 16 23 16h10q44 0 60 14.5t16 50.5v512q0 19 -5.5 26t-22.5 7zM384 -217q24 26 36 59q-13 -5 -24 -5q-23 0 -36 13t-13 35q0 23 15.5 39t38.5 16q31 0 47 -21.5t16 -55.5
q0 -65 -51 -109q-29 -26 -58 -38q-10 -4 -15 4l-5 9q-5 9 3 15q24 16 46 39z" />
    <glyph glyph-name="Tcaron" unicode="&#x164;" horiz-adv-x="798" 
d="M319 655h-69q-113 0 -159 -77l-21 -35q-9 -17 -24 -13l-11 4q-14 5 -7 30l40 132q6 18 19 18q7 0 35 -7t50 -7h455q27 0 56 7t36 7q12 0 16 -16l36 -133q5 -21 -7 -25l-10 -4q-15 -5 -27 15l-14 23q-26 44 -66.5 62.5t-101.5 18.5h-60q-17 0 -22.5 -7t-5.5 -25v-513
q0 -36 16.5 -50.5t62.5 -14.5h9q21 0 21 -18v-11q0 -9 -4.5 -12.5t-18.5 -3.5h-284q-21 0 -21 18v11q0 16 23 16h10q44 0 60 14.5t16 50.5v512q0 19 -5.5 26t-22.5 7zM408 760h-13q-11 0 -20 8l-120 117q-10 10 -1 20l8 9q8 9 17 3l123 -78l123 77q9 6 17 -3l6 -7
q9 -9 -2 -20l-120 -118q-8 -8 -18 -8z" />
    <glyph glyph-name="tcaron" unicode="&#x165;" horiz-adv-x="387" 
d="M333 449h-136l-3 -299q-1 -86 71 -86q38 0 79 26q10 6 19 -3l5 -6q8 -10 -3 -24q-59 -63 -136 -63q-60 0 -95 36t-35 100l3 319h-63q-12 0 -12 10v6q0 12 10 19q56 41 118 136q9 14 23 14h8q13 0 13 -16l-1 -102h159q17 0 11 -21l-10 -31q-5 -15 -25 -15zM313 622
q17 20 17 34q0 18 -18 29q-26 15 -26 43q0 20 13.5 33.5t34.5 13.5q25 0 41 -19t16 -50q0 -62 -50 -109q-21 -21 -39 -29q-9 -4 -15 3l-6 9q-6 9 2 15q2 2 13 11t17 16z" />
    <glyph glyph-name="Tbar" unicode="&#x166;" horiz-adv-x="798" 
d="M320 655h-70q-113 0 -159 -77l-21 -35q-9 -17 -24 -13l-11 4q-14 5 -7 30l40 132q6 18 19 18q7 0 35 -7t50 -7h455q27 0 56 7t36 7q12 0 16 -16l36 -133q5 -21 -7 -25l-10 -4q-15 -5 -27 15l-14 23q-26 44 -66.5 62.5t-101.5 18.5h-61q-17 0 -22.5 -7t-5.5 -25v-245h142
q9 0 12 -3t3 -13v-14q0 -10 -3 -13t-12 -3h-142v-222q0 -36 16.5 -50.5t62.5 -14.5h9q21 0 21 -18v-11q0 -9 -4.5 -12.5t-18.5 -3.5h-282q-21 0 -21 18v11q0 16 23 16h10q44 0 60 14.5t16 50.5v222h-142q-9 0 -12 3t-3 13v14q0 10 3 13t12 3h142v244q0 19 -5.5 26t-22.5 7z
" />
    <glyph glyph-name="tbar" unicode="&#x167;" horiz-adv-x="385" 
d="M331 449h-136l-1 -138h108q9 0 12 -2.5t3 -12.5v-10q0 -10 -3 -12.5t-12 -2.5h-109l-1 -121q-1 -86 71 -86q38 0 79 26q10 6 19 -3l5 -6q8 -10 -3 -24q-59 -63 -136 -63q-60 0 -94 36t-34 100l1 141h-58q-9 0 -12 2.5t-3 12.5v10q0 10 3 12.5t12 2.5h59l1 138h-63
q-12 0 -12 10v6q0 12 10 19q26 19 50.5 46.5t34 41.5t31.5 48q9 14 23 14h8q13 0 13 -16l-1 -102h159q17 0 11 -21l-10 -31q-5 -15 -25 -15z" />
    <glyph glyph-name="Utilde" unicode="&#x168;" horiz-adv-x="800" 
d="M685 561v-262q0 -313 -269 -313q-61 0 -111.5 12.5t-93 40t-66 78.5t-23.5 121v352q0 36 -15 50.5t-53 14.5h-8q-12 0 -16.5 3t-4.5 14v11q0 9 4.5 13t18.5 4h267q21 0 21 -18v-11q0 -9 -3.5 -12.5t-14.5 -3.5h-5q-43 0 -59.5 -14.5t-16.5 -50.5v-351q0 -96 50 -146.5
t132 -50.5q109 0 156 56.5t47 189.5v278q0 47 -14.5 68t-56.5 21h-4q-20 0 -20 17v11q0 17 20 17h212q23 0 23 -16v-13q0 -16 -17 -16h-6q-43 0 -58.5 -19.5t-15.5 -74.5zM501 794q-22 0 -40 7l-62 20q-22 8 -37 8q-27 0 -49 -41q-5 -10 -16 -5l-11 4q-9 5 -5 17
q37 97 91 97q16 0 39 -7l62 -20q26 -9 41 -9t25 7.5t22 29.5q6 11 17 7l11 -4q8 -3 4 -17q-31 -94 -92 -94z" />
    <glyph glyph-name="utilde" unicode="&#x169;" horiz-adv-x="628" 
d="M427 146v257q0 19 -8.5 26.5t-28.5 9.5l-25 2q-5 1 -7 1.5t-3.5 3t-1.5 7.5v8q0 11 9 15l132 48q10 3 17 -2l5 -4q6 -5 6 -13v-411q0 -22 15 -27l42 -14q7 -3 7 -10v-13q0 -8 -8 -10l-129 -28q-8 -1 -13 2l-4 3q-5 5 -5 13v80q-70 -98 -169 -98q-67 0 -109 42.5
t-42 109.5v259q0 19 -8.5 26.5t-28.5 9.5l-25 2q-5 1 -7 1.5t-3.5 3t-1.5 7.5v8q0 11 9 15l135 49q9 2 15 -2l4 -3q6 -4 6 -13v-329q0 -54 23 -84t67 -30q71 0 135 82zM260 716q22 0 55 -14l36 -15q19 -9 36 -9q30 0 49 40q5 12 16 9l11 -3q12 -3 7 -17q-11 -45 -35 -70.5
t-57 -25.5q-24 0 -54 13l-38 16q-21 8 -33 8q-31 0 -49 -42q-4 -10 -16 -7l-11 3q-13 3 -8 17q29 97 91 97z" />
    <glyph glyph-name="Umacron" unicode="&#x16a;" horiz-adv-x="800" 
d="M685 561v-262q0 -313 -269 -313q-61 0 -111.5 12.5t-93 40t-66 78.5t-23.5 121v352q0 36 -15 50.5t-53 14.5h-8q-12 0 -16.5 3t-4.5 14v11q0 9 4.5 13t18.5 4h267q21 0 21 -18v-11q0 -9 -3.5 -12.5t-14.5 -3.5h-5q-43 0 -59.5 -14.5t-16.5 -50.5v-351q0 -96 50 -146.5
t132 -50.5q109 0 156 56.5t47 189.5v278q0 47 -14.5 68t-56.5 21h-4q-20 0 -20 17v11q0 17 20 17h212q23 0 23 -16v-13q0 -16 -17 -16h-6q-43 0 -58.5 -19.5t-15.5 -74.5zM553 800h-256q-9 0 -12 3t-3 13v36q0 10 3 13t12 3h256q9 0 12 -3t3 -13v-36q0 -10 -3 -13t-12 -3z
" />
    <glyph glyph-name="umacron" unicode="&#x16b;" horiz-adv-x="628" 
d="M427 146v257q0 19 -8.5 26.5t-28.5 9.5l-25 2q-5 1 -7 1.5t-3.5 3t-1.5 7.5v8q0 11 9 15l132 48q10 3 17 -2l5 -4q6 -5 6 -13v-411q0 -22 15 -27l42 -14q7 -3 7 -10v-13q0 -8 -8 -10l-129 -28q-8 -1 -13 2l-4 3q-5 5 -5 13v80q-70 -98 -169 -98q-67 0 -109 42.5
t-42 109.5v259q0 19 -8.5 26.5t-28.5 9.5l-25 2q-5 1 -7 1.5t-3.5 3t-1.5 7.5v8q0 11 9 15l135 49q9 2 15 -2l4 -3q6 -4 6 -13v-329q0 -54 23 -84t67 -30q71 0 135 82zM434 630h-232q-12 0 -15.5 3t-3.5 15v28q0 12 3.5 15t17.5 3h228q14 0 17.5 -3t3.5 -15v-28
q0 -12 -3.5 -15t-15.5 -3z" />
    <glyph glyph-name="Ubreve" unicode="&#x16c;" horiz-adv-x="800" 
d="M685 561v-262q0 -313 -269 -313q-61 0 -111.5 12.5t-93 40t-66 78.5t-23.5 121v352q0 36 -15 50.5t-53 14.5h-8q-12 0 -16.5 3t-4.5 14v11q0 9 4.5 13t18.5 4h267q21 0 21 -18v-11q0 -9 -3.5 -12.5t-14.5 -3.5h-5q-43 0 -59.5 -14.5t-16.5 -50.5v-351q0 -96 50 -146.5
t132 -50.5q109 0 156 56.5t47 189.5v278q0 47 -14.5 68t-56.5 21h-4q-20 0 -20 17v11q0 17 20 17h212q23 0 23 -16v-13q0 -16 -17 -16h-6q-43 0 -58.5 -19.5t-15.5 -74.5zM425 769q-59 0 -96 37q-31 29 -47 79q-4 13 8 18l9 4q10 5 16 -5q17 -32 50 -49q25 -13 60 -13
q38 0 64 14q29 16 46 43q7 11 16 7l10 -4q9 -5 5 -15q-21 -55 -46 -78q-38 -38 -95 -38z" />
    <glyph glyph-name="ubreve" unicode="&#x16d;" horiz-adv-x="628" 
d="M427 146v257q0 19 -8.5 26.5t-28.5 9.5l-25 2q-5 1 -7 1.5t-3.5 3t-1.5 7.5v8q0 11 9 15l132 48q10 3 17 -2l5 -4q6 -5 6 -13v-411q0 -22 15 -27l42 -14q7 -3 7 -10v-13q0 -8 -8 -10l-129 -28q-8 -1 -13 2l-4 3q-5 5 -5 13v80q-70 -98 -169 -98q-67 0 -109 42.5
t-42 109.5v259q0 19 -8.5 26.5t-28.5 9.5l-25 2q-5 1 -7 1.5t-3.5 3t-1.5 7.5v8q0 11 9 15l135 49q9 2 15 -2l4 -3q6 -4 6 -13v-329q0 -54 23 -84t67 -30q71 0 135 82zM308 590q-69 0 -107 66q-14 25 -26 65q-4 14 9 19l11 4q12 5 17 -7q13 -30 31 -50q25 -31 67 -31
q38 0 69 31q22 27 32 49q2 4 3.5 6t3.5 3t4 0.5t7 -1.5l9 -3q11 -5 7 -18q-10 -38 -27 -67q-40 -66 -110 -66z" />
    <glyph glyph-name="Uring" unicode="&#x16e;" horiz-adv-x="800" 
d="M685 561v-262q0 -313 -269 -313q-61 0 -111.5 12.5t-93 40t-66 78.5t-23.5 121v352q0 36 -15 50.5t-53 14.5h-8q-12 0 -16.5 3t-4.5 14v11q0 9 4.5 13t18.5 4h267q21 0 21 -18v-11q0 -9 -3.5 -12.5t-14.5 -3.5h-5q-43 0 -59.5 -14.5t-16.5 -50.5v-351q0 -96 50 -146.5
t132 -50.5q109 0 156 56.5t47 189.5v278q0 47 -14.5 68t-56.5 21h-4q-20 0 -20 17v11q0 17 20 17h212q23 0 23 -16v-13q0 -16 -17 -16h-6q-43 0 -58.5 -19.5t-15.5 -74.5zM432 750q-42 0 -70.5 29t-28.5 73q0 42 28.5 70t70.5 28q41 0 70.5 -28.5t29.5 -69.5
q0 -43 -29 -72.5t-71 -29.5zM432 793q24 0 39.5 16.5t15.5 42.5q0 23 -15.5 39t-39.5 16q-23 0 -38.5 -16t-15.5 -39q0 -26 15.5 -42.5t38.5 -16.5z" />
    <glyph glyph-name="uring" unicode="&#x16f;" horiz-adv-x="628" 
d="M427 146v257q0 19 -8.5 26.5t-28.5 9.5l-25 2q-5 1 -7 1.5t-3.5 3t-1.5 7.5v8q0 11 9 15l132 48q10 3 17 -2l5 -4q6 -5 6 -13v-411q0 -22 15 -27l42 -14q7 -3 7 -10v-13q0 -8 -8 -10l-129 -28q-8 -1 -13 2l-4 3q-5 5 -5 13v80q-70 -98 -169 -98q-67 0 -109 42.5
t-42 109.5v259q0 19 -8.5 26.5t-28.5 9.5l-25 2q-5 1 -7 1.5t-3.5 3t-1.5 7.5v8q0 11 9 15l135 49q9 2 15 -2l4 -3q6 -4 6 -13v-329q0 -54 23 -84t67 -30q71 0 135 82zM310 572q-41 0 -69.5 27.5t-28.5 71.5q0 43 28.5 70t69.5 27q43 0 71 -26.5t28 -70.5t-28 -71.5
t-71 -27.5zM310 614q24 0 38.5 15.5t14.5 41.5q0 25 -15 40t-38 15q-22 0 -37 -15.5t-15 -39.5q0 -26 15 -41.5t37 -15.5z" />
    <glyph glyph-name="Uhungarumlaut" unicode="&#x170;" horiz-adv-x="800" 
d="M685 561v-262q0 -313 -269 -313q-61 0 -111.5 12.5t-93 40t-66 78.5t-23.5 121v352q0 36 -15 50.5t-53 14.5h-8q-12 0 -16.5 3t-4.5 14v11q0 9 4.5 13t18.5 4h267q21 0 21 -18v-11q0 -9 -3.5 -12.5t-14.5 -3.5h-5q-43 0 -59.5 -14.5t-16.5 -50.5v-351q0 -96 50 -146.5
t132 -50.5q109 0 156 56.5t47 189.5v278q0 47 -14.5 68t-56.5 21h-4q-20 0 -20 17v11q0 17 20 17h212q23 0 23 -16v-13q0 -16 -17 -16h-6q-43 0 -58.5 -19.5t-15.5 -74.5zM261 794l124 117q16 16 34 16q17 0 27 -11.5t10 -27.5q0 -22 -29 -39l-145 -83q-13 -7 -19 2l-5 7
q-7 10 3 19zM442 795l135 108q18 15 36 15q17 0 27.5 -13t10.5 -29q0 -25 -34 -40l-158 -71q-11 -5 -16 3l-5 8q-6 10 4 19z" />
    <glyph glyph-name="uhungarumlaut" unicode="&#x171;" horiz-adv-x="628" 
d="M427 146v257q0 19 -8.5 26.5t-28.5 9.5l-25 2q-5 1 -7 1.5t-3.5 3t-1.5 7.5v8q0 11 9 15l132 48q10 3 17 -2l5 -4q6 -5 6 -13v-411q0 -22 15 -27l42 -14q7 -3 7 -10v-13q0 -8 -8 -10l-129 -28q-8 -1 -13 2l-4 3q-5 5 -5 13v80q-70 -98 -169 -98q-67 0 -109 42.5
t-42 109.5v259q0 19 -8.5 26.5t-28.5 9.5l-25 2q-5 1 -7 1.5t-3.5 3t-1.5 7.5v8q0 11 9 15l135 49q9 2 15 -2l4 -3q6 -4 6 -13v-329q0 -54 23 -84t67 -30q71 0 135 82zM330 755q14 0 25.5 -11t11.5 -25q0 -21 -27 -41l-123 -92q-13 -10 -22 -2l-6 6q-9 9 1 21l106 126
q15 18 34 18zM505 752q14 0 25.5 -12t11.5 -26q0 -22 -29 -40l-140 -90q-13 -8 -21 0l-6 7q-8 8 4 21l120 122q18 18 35 18z" />
    <glyph glyph-name="Uogonek" unicode="&#x172;" horiz-adv-x="800" 
d="M685 561v-262q0 -313 -269 -313q-61 0 -111.5 12.5t-93 40t-66 78.5t-23.5 121v352q0 36 -15 50.5t-53 14.5h-8q-12 0 -16.5 3t-4.5 14v11q0 9 4.5 13t18.5 4h267q21 0 21 -18v-11q0 -9 -3.5 -12.5t-14.5 -3.5h-5q-43 0 -59.5 -14.5t-16.5 -50.5v-351q0 -96 50 -146.5
t132 -50.5q109 0 156 56.5t47 189.5v278q0 47 -14.5 68t-56.5 21h-4q-20 0 -20 17v11q0 17 20 17h212q23 0 23 -16v-13q0 -16 -17 -16h-6q-43 0 -58.5 -19.5t-15.5 -74.5zM425 -278q-46 0 -74 23.5t-28 66.5q0 94 136 198h41q-51 -48 -74.5 -85t-23.5 -77q0 -31 15.5 -49.5
t40.5 -18.5q27 0 53 19q7 6 14 -1l7 -7q6 -6 -1 -15q-44 -54 -106 -54z" />
    <glyph glyph-name="uogonek" unicode="&#x173;" horiz-adv-x="628" 
d="M427 146v257q0 19 -8.5 26.5t-28.5 9.5l-25 2q-5 1 -7 1.5t-3.5 3t-1.5 7.5v8q0 11 9 15l132 48q10 3 17 -2l5 -4q6 -5 6 -13v-411q0 -22 15 -27l42 -14q7 -3 7 -10v-13q0 -8 -8 -10l-129 -28q-8 -1 -13 2l-4 3q-5 5 -5 13v80q-70 -98 -169 -98q-67 0 -109 42.5
t-42 109.5v259q0 19 -8.5 26.5t-28.5 9.5l-25 2q-5 1 -7 1.5t-3.5 3t-1.5 7.5v8q0 11 9 15l135 49q9 2 15 -2l4 -3q6 -4 6 -13v-329q0 -54 23 -84t67 -30q71 0 135 82zM400 -278q-46 0 -74 23.5t-28 66.5q0 94 136 198h41q-51 -48 -74.5 -85t-23.5 -77q0 -31 15.5 -49.5
t40.5 -18.5q27 0 53 19q7 6 14 -1l7 -7q6 -6 -1 -15q-44 -54 -106 -54z" />
    <glyph glyph-name="Wcircumflex" unicode="&#x174;" horiz-adv-x="1089" 
d="M782 166l135 388q35 103 -51 103h-5q-19 0 -19 17v10q0 16 16 16h207q14 0 19 -4t5 -15v-8q0 -18 -21 -18h-4q-31 0 -51.5 -24.5t-39.5 -77.5l-196 -545q-7 -18 -21 -18h-2q-15 0 -22 19l-179 491l-180 -492q-7 -18 -21 -18h-2q-15 0 -22 18l-210 567q-16 43 -29.5 59.5
t-42.5 19.5l-11 1q-20 2 -20 18v10q0 17 19 17h240q16 0 16 -16v-9q0 -7 -3 -10.5t-6 -4.5t-14 -3l-10 -1q-35 -4 -42 -19t9 -57l155 -416l145 405l-6 20q-13 37 -29 52.5t-50 15.5h-8q-19 0 -19 18v8q0 17 17 17h258q17 0 17 -15v-10q0 -18 -21 -18h-8q-38 0 -48 -19t5 -58
zM547 928h22q11 0 20 -9l111 -114q9 -9 1 -19l-7 -9q-8 -9 -18 -3l-119 75l-125 -75q-11 -8 -19 3l-8 9q-8 9 2 19l120 114q9 9 20 9z" />
    <glyph glyph-name="wcircumflex" unicode="&#x175;" horiz-adv-x="861" 
d="M619 133l93 266q22 64 -36 76l-5 1q-8 2 -10 5t-2 11v10q0 8 3 11t12 3h160q11 0 14 -3t3 -13v-9q0 -9 -2.5 -12t-11.5 -5q-28 -6 -46 -21.5t-32 -49.5l-143 -389q-4 -12 -7 -15.5t-11 -3.5h-4q-15 0 -22 19l-141 360l-125 -360q-4 -12 -7.5 -15.5t-11.5 -3.5h-5
q-8 0 -11 3.5t-9 15.5l-169 401q-12 29 -25 42t-36 17q-9 2 -11.5 4.5t-2.5 10.5v11q0 11 3 13.5t15 2.5h187q14 0 14 -13v-10q0 -9 -2.5 -12.5t-13.5 -5.5l-10 -2q-42 -9 -22 -53l118 -289l99 298q-15 34 -65 45q-10 2 -12.5 5t-2.5 11v12q0 14 14 14h203q14 0 14 -14v-10
q0 -10 -2.5 -13t-13.5 -5l-7 -1q-45 -7 -26 -54zM536 575l-99 98l-107 -98q-10 -9 -20 0l-7 6q-10 9 -1 20l114 149q8 10 18 10h7q8 0 16 -9l109 -151q7 -10 -2 -18l-8 -7q-10 -9 -20 0z" />
    <glyph glyph-name="Ycircumflex" unicode="&#x176;" horiz-adv-x="710" 
d="M303 279l-179 311q-22 38 -39 51.5t-51 13.5q-19 0 -19 17v11q0 17 18 17h259q16 0 16 -15v-10q0 -10 -4 -14t-15 -4h-7q-31 0 -39.5 -18.5t5.5 -41.5l143 -257l132 229q14 23 17 43t-7.5 32.5t-33.5 12.5h-10q-11 0 -14.5 4t-3.5 13v9q0 17 19 17h196q15 0 19.5 -4
t4.5 -15v-6q0 -19 -18 -19q-36 0 -58.5 -21t-55.5 -76l-165 -270v-179q0 -36 16.5 -50.5t62.5 -14.5h9q21 0 21 -18v-11q0 -9 -4.5 -12.5t-18.5 -3.5h-284q-21 0 -21 18v11q0 16 23 16h10q44 0 60 14.5t16 50.5v169zM374 928h22q11 0 20 -9l111 -114q9 -9 1 -19l-7 -9
q-7 -9 -18 -3l-119 75l-125 -75q-11 -8 -19 3l-8 9q-8 9 2 19l120 114q9 9 20 9z" />
    <glyph glyph-name="Ydieresis" unicode="&#x178;" horiz-adv-x="710" 
d="M303 279l-179 311q-22 38 -39 51.5t-51 13.5q-19 0 -19 17v11q0 17 18 17h259q16 0 16 -15v-10q0 -10 -4 -14t-15 -4h-7q-31 0 -39.5 -18.5t5.5 -41.5l143 -257l132 229q14 23 17 43t-7.5 32.5t-33.5 12.5h-10q-11 0 -14.5 4t-3.5 13v9q0 17 19 17h196q15 0 19.5 -4
t4.5 -15v-6q0 -19 -18 -19q-36 0 -58.5 -21t-55.5 -76l-165 -270v-179q0 -36 16.5 -50.5t62.5 -14.5h9q21 0 21 -18v-11q0 -9 -4.5 -12.5t-18.5 -3.5h-284q-21 0 -21 18v11q0 16 23 16h10q44 0 60 14.5t16 50.5v169zM207 850q0 26 18.5 44.5t44.5 18.5t44.5 -18.5
t18.5 -44.5t-18.5 -44.5t-44.5 -18.5t-44.5 18.5t-18.5 44.5zM419 850q0 26 18.5 44.5t44.5 18.5t44.5 -18.5t18.5 -44.5t-18.5 -44.5t-44.5 -18.5t-44.5 18.5t-18.5 44.5z" />
    <glyph glyph-name="Zacute" unicode="&#x179;" horiz-adv-x="719" 
d="M73 44l398 588q15 23 -8 23h-177q-48 0 -82.5 -22.5t-62.5 -70.5l-29 -49q-9 -15 -22 -11l-10 3q-14 5 -10 21l40 140q6 21 15 27.5t32 6.5h451q16 0 16 -13v-5q0 -13 -8 -26l-394 -587q-16 -24 9 -24h209q65 0 104 27.5t66 78.5l17 33q6 9 10 11.5t13 0.5l8 -2
q8 -2 10 -6t-1 -15l-37 -138q-6 -22 -14.5 -28.5t-34.5 -6.5h-500q-16 0 -16 13v5q0 13 8 26zM285 769l-3 6q-6 13 7 22l150 105q25 17 42 17q19 0 30.5 -13.5t11.5 -31.5q0 -27 -41 -44l-175 -67q-10 -4 -14 -3t-8 9z" />
    <glyph glyph-name="zacute" unicode="&#x17a;" horiz-adv-x="522" 
d="M425 0h-367q-12 0 -12 10v4q0 10 7 20l282 415q15 21 -10 21h-92q-45 0 -69.5 -19.5t-56.5 -73.5l-24 -39q-8 -11 -19 -7l-9 3q-12 5 -8 18l47 139q6 17 12.5 21t25.5 4h327q13 0 13 -10v-4q0 -10 -8 -21l-279 -415q-5 -8 -3 -14t10 -6h120q96 0 141 98l9 19q5 11 17 8
l9 -2q12 -3 8 -16l-34 -125q-5 -17 -12.5 -22.5t-24.5 -5.5zM377 756q17 0 29 -14t12 -30q0 -27 -29 -43l-154 -89q-12 -8 -21 1l-6 7q-8 9 4 21l123 125q22 22 42 22z" />
    <glyph glyph-name="Zdotaccent" unicode="&#x17b;" horiz-adv-x="719" 
d="M73 44l398 588q15 23 -8 23h-177q-48 0 -82.5 -22.5t-62.5 -70.5l-29 -49q-9 -15 -22 -11l-10 3q-14 5 -10 21l40 140q6 21 15 27.5t32 6.5h451q16 0 16 -13v-5q0 -13 -8 -26l-394 -587q-16 -24 9 -24h209q65 0 104 27.5t66 78.5l17 33q6 9 10 11.5t13 0.5l8 -2
q8 -2 10 -6t-1 -15l-37 -138q-6 -22 -14.5 -28.5t-34.5 -6.5h-500q-16 0 -16 13v5q0 13 8 26zM297 850q0 26 19 45t45 19t45 -19t19 -45t-19 -45t-45 -19t-45 19t-19 45z" />
    <glyph glyph-name="zdotaccent" unicode="&#x17c;" horiz-adv-x="522" 
d="M425 0h-367q-12 0 -12 10v4q0 10 7 20l282 415q15 21 -10 21h-92q-45 0 -69.5 -19.5t-56.5 -73.5l-24 -39q-8 -11 -19 -7l-9 3q-12 5 -8 18l47 139q6 17 12.5 21t25.5 4h327q13 0 13 -10v-4q0 -10 -8 -21l-279 -415q-5 -8 -3 -14t10 -6h120q96 0 141 98l9 19q5 11 17 8
l9 -2q12 -3 8 -16l-34 -125q-5 -17 -12.5 -22.5t-24.5 -5.5zM279 605q-27 0 -46.5 18.5t-19.5 45.5t20 46.5t46 19.5q27 0 46 -19.5t19 -46.5t-19 -45.5t-46 -18.5z" />
    <glyph glyph-name="Zcaron" unicode="&#x17d;" horiz-adv-x="719" 
d="M73 44l398 588q15 23 -8 23h-177q-48 0 -82.5 -22.5t-62.5 -70.5l-29 -49q-9 -15 -22 -11l-10 3q-14 5 -10 21l40 140q6 21 15 27.5t32 6.5h451q16 0 16 -13v-5q0 -13 -8 -26l-394 -587q-16 -24 9 -24h209q65 0 104 27.5t66 78.5l17 33q6 9 10 11.5t13 0.5l8 -2
q8 -2 10 -6t-1 -15l-37 -138q-6 -22 -14.5 -28.5t-34.5 -6.5h-500q-16 0 -16 13v5q0 13 8 26zM373 760h-13q-11 0 -20 8l-120 117q-10 10 -1 20l8 9q8 9 17 3l123 -78l123 77q9 6 17 -3l6 -7q9 -9 -2 -20l-120 -118q-8 -8 -18 -8z" />
    <glyph glyph-name="zcaron" unicode="&#x17e;" horiz-adv-x="522" 
d="M425 0h-367q-12 0 -12 10v4q0 10 7 20l282 415q15 21 -10 21h-92q-45 0 -69.5 -19.5t-56.5 -73.5l-24 -39q-8 -11 -19 -7l-9 3q-12 5 -8 18l47 139q6 17 12.5 21t25.5 4h327q13 0 13 -10v-4q0 -10 -8 -21l-279 -415q-5 -8 -3 -14t10 -6h120q96 0 141 98l9 19q5 11 17 8
l9 -2q12 -3 8 -16l-34 -125q-5 -17 -12.5 -22.5t-24.5 -5.5zM155 746l9 8q11 9 21 -1l101 -96l104 96q10 10 21 0l7 -6q10 -9 1 -21l-108 -138q-8 -10 -18 -10h-16q-10 0 -18 10l-105 136q-9 12 1 22z" />
    <glyph glyph-name="uni018F" unicode="&#x18f;" horiz-adv-x="818" 
d="M403 671q-93 0 -158 -46t-98 -127q-5 -11 -8.5 -14t-13.5 -3h-11q-15 0 -15 17l4 184q0 14 12 14h12q11 0 15 -10l9 -29q3 -8 9 -8q4 0 18 6q116 59 236 59q155 0 248.5 -97t93.5 -261q0 -170 -99 -270t-251 -100q-159 0 -242.5 91t-83.5 241q0 17 6 24t20 7h528
q0 86 -23 156.5t-77 118t-131 47.5zM409 26q98 0 155.5 77t67.5 201h-408q-21 0 -21 -21q2 -67 23 -123.5t68.5 -95t114.5 -38.5z" />
    <glyph glyph-name="Ohorn" unicode="&#x1a0;" horiz-adv-x="852" 
d="M640 653q56 -30 93 -30q39 0 39 23q0 12 -13 24q-21 17 -21 42q0 23 14 35.5t38 12.5q26 0 42 -19t16 -51q0 -50 -35 -78.5t-97 -28.5h-3q77 -97 77 -233q0 -165 -106.5 -264.5t-257.5 -99.5q-69 0 -133.5 24t-116.5 68.5t-83 115t-31 156.5q0 116 53 200.5t134 124
t177 39.5q102 0 214 -61zM663 340q0 143 -70 237.5t-180 94.5q-103 0 -163.5 -83t-60.5 -229q0 -90 28.5 -165t85.5 -121t133 -46q110 0 168.5 84t58.5 228z" />
    <glyph glyph-name="ohorn" unicode="&#x1a1;" horiz-adv-x="597" 
d="M597 525q0 -39 -27 -65.5t-72 -30.5q49 -68 49 -164q0 -119 -67.5 -194.5t-181.5 -75.5q-110 0 -181.5 73.5t-71.5 193.5t71.5 189.5t180.5 69.5q71 0 129 -30q52 -27 67 -27q33 0 33 22q0 11 -16 23q-20 16 -20 36t14.5 33t35.5 13q26 0 41.5 -18t15.5 -48zM309 36
q128 0 128 207q0 101 -40.5 169t-110.5 68q-64 0 -98 -52.5t-34 -147.5q0 -57 17 -111.5t53.5 -93.5t84.5 -39z" />
    <glyph glyph-name="Uhorn" unicode="&#x1af;" horiz-adv-x="800" 
d="M527 672v11q0 17 20 17h176q72 0 72 25q0 12 -14 21q-23 15 -23 41q0 17 13 30t36 13q25 0 40.5 -17t15.5 -46q0 -80 -100 -107q-45 -11 -61.5 -28t-16.5 -71v-262q0 -313 -269 -313q-61 0 -111.5 12.5t-93 40t-66 78.5t-23.5 121v352q0 36 -15 50.5t-53 14.5h-8
q-12 0 -16.5 3t-4.5 14v11q0 9 4.5 13t18.5 4h267q21 0 21 -18v-11q0 -9 -3.5 -12.5t-14.5 -3.5h-5q-43 0 -59.5 -14.5t-16.5 -50.5v-351q0 -96 50 -146.5t132 -50.5q109 0 156 56.5t47 189.5v278q0 47 -14.5 68t-56.5 21h-4q-20 0 -20 17z" />
    <glyph glyph-name="uhorn" unicode="&#x1b0;" horiz-adv-x="628" 
d="M427 146v257q0 19 -8.5 26.5t-28.5 9.5l-25 2q-5 1 -7 1.5t-3.5 3t-1.5 7.5v8q0 12 9 15l140 45q39 12 39 29q0 10 -13 20q-20 15 -20 39q0 19 13 31.5t36 12.5q25 0 40 -16.5t15 -44.5q0 -77 -90 -104v-394q0 -22 15 -27l42 -14q7 -3 7 -10v-13q0 -8 -8 -10l-129 -28
q-8 -1 -13 2l-4 3q-5 5 -5 13v80q-70 -98 -169 -98q-67 0 -109 42.5t-42 109.5v259q0 19 -8.5 26.5t-28.5 9.5l-25 2q-5 1 -7 1.5t-3.5 3t-1.5 7.5v8q0 11 9 15l135 49q9 2 15 -2l4 -3q6 -4 6 -13v-329q0 -54 23 -84t67 -30q71 0 135 82z" />
    <glyph glyph-name="uni01CD" unicode="&#x1cd;" 
d="M380 704l225 -578q16 -42 35 -61.5t51 -19.5h6q14 0 14 -18v-10q0 -17 -16 -17h-265q-16 0 -16 16v10q0 19 19 19h7q25 0 39.5 6.5t18 20t1.5 28t-10 36.5l-42 110h-239l-37 -103q-35 -98 47 -98h6q22 0 22 -19v-9q0 -17 -17 -17h-207q-22 0 -22 17v8q0 20 20 20h3
q57 0 93 98l182 481l-4 11q-8 20 6 28q24 14 51 44q7 7 16 7q10 0 13 -10zM324 566l-99 -275h204zM357 760h-13q-11 0 -20 8l-120 117q-10 10 -1 20l8 9q8 9 17 3l123 -78l123 77q9 6 17 -3l6 -7q9 -9 -2 -20l-120 -118q-8 -8 -18 -8z" />
    <glyph glyph-name="uni01CE" unicode="&#x1ce;" horiz-adv-x="532" 
d="M169 -5q-49 0 -80 30t-31 80q0 55 38.5 89t120.5 67q58 22 110 50l1 80q0 48 -21 69t-64 21q-31 0 -59 -17t-28 -37q0 -5 1 -18.5t1 -20.5q0 -28 -15 -46t-44 -18q-51 0 -51 48q0 56 81.5 104.5t160.5 48.5q64 0 99 -31t34 -90l-3 -293q0 -39 28 -39q27 0 45 48q3 8 13 7
l8 -2q8 -2 7 -12q-9 -46 -37.5 -81.5t-74.5 -35.5q-76 0 -81 96q-75 -97 -159 -97zM217 62q52 0 110 73v135l-82 -36q-50 -24 -72 -47t-22 -54q0 -32 18 -51.5t48 -19.5zM124 746l9 8q11 9 21 -1l101 -96l104 96q10 10 21 0l7 -6q10 -9 1 -21l-108 -138q-8 -10 -18 -10h-16
q-10 0 -18 10l-105 136q-9 12 1 22z" />
    <glyph glyph-name="uni01CF" unicode="&#x1cf;" horiz-adv-x="438" 
d="M164 110v480q0 36 -17 50.5t-65 14.5h-6q-21 0 -21 18v11q0 9 4.5 12.5t18.5 3.5h284q21 0 21 -18v-11q0 -9 -4.5 -12.5t-18.5 -3.5h-7q-45 0 -62 -14.5t-17 -50.5v-480q0 -36 16.5 -50.5t62.5 -14.5h9q21 0 21 -18v-11q0 -9 -4.5 -12.5t-18.5 -3.5h-284q-21 0 -21 18v11
q0 16 23 16h10q44 0 60 14.5t16 50.5zM226 760h-13q-11 0 -20 8l-120 117q-10 10 -1 20l8 9q8 9 17 3l123 -78l123 77q9 6 17 -3l6 -7q9 -9 -2 -20l-120 -118q-8 -8 -18 -8z" />
    <glyph glyph-name="uni01D0" unicode="&#x1d0;" horiz-adv-x="331" 
d="M125 115v283q0 19 -8.5 26.5t-28.5 9.5l-25 2q-5 1 -7 1.5t-3.5 3t-1.5 7.5v9q0 11 9 15l131 51q8 3 15 -1l9 -6q5 -4 5 -13v-388q0 -38 8.5 -52.5t39.5 -18.5l8 -1q15 -3 15 -18v-11q0 -8 -2.5 -11t-11.5 -3h-210q-11 0 -14 3.5t-3 12.5v10q0 15 14 17l8 1
q32 4 42.5 18.5t10.5 52.5zM40 746l9 8q11 9 21 -1l101 -96l104 96q10 10 21 0l7 -6q10 -9 1 -21l-108 -138q-8 -10 -18 -10h-16q-10 0 -18 10l-105 136q-9 12 1 22z" />
    <glyph glyph-name="uni01D1" unicode="&#x1d1;" horiz-adv-x="852" 
d="M663 340q0 143 -70 237.5t-180 94.5q-103 0 -163.5 -83t-60.5 -229q0 -90 28.5 -165t85.5 -121t133 -46q110 0 168.5 84t58.5 228zM790 350q0 -165 -106.5 -264.5t-257.5 -99.5q-69 0 -133.5 24t-116.5 68.5t-83 115t-31 156.5q0 116 53 200.5t134 124t177 39.5
q67 0 130 -22.5t116 -65.5t85.5 -115t32.5 -161zM433 760h-13q-11 0 -20 8l-120 117q-10 10 -1 20l8 9q8 9 17 3l123 -78l123 77q9 6 17 -3l6 -7q9 -9 -2 -20l-120 -118q-8 -8 -18 -8z" />
    <glyph glyph-name="uni01D2" unicode="&#x1d2;" horiz-adv-x="592" 
d="M298 -5q-110 0 -181.5 73.5t-71.5 193.5t71.5 189.5t180.5 69.5q112 0 181 -68t69 -188q0 -119 -67.5 -194.5t-181.5 -75.5zM309 36q128 0 128 207q0 101 -40.5 169t-110.5 68q-64 0 -98 -52.5t-34 -147.5q0 -57 17 -111.5t53.5 -93.5t84.5 -39zM164 746l9 8q11 9 21 -1
l101 -96l104 96q10 10 21 0l7 -6q10 -9 1 -21l-108 -138q-8 -10 -18 -10h-16q-10 0 -18 10l-105 136q-9 12 1 22z" />
    <glyph glyph-name="uni01D3" unicode="&#x1d3;" horiz-adv-x="800" 
d="M685 561v-262q0 -313 -269 -313q-61 0 -111.5 12.5t-93 40t-66 78.5t-23.5 121v352q0 36 -15 50.5t-53 14.5h-8q-12 0 -16.5 3t-4.5 14v11q0 9 4.5 13t18.5 4h267q21 0 21 -18v-11q0 -9 -3.5 -12.5t-14.5 -3.5h-5q-43 0 -59.5 -14.5t-16.5 -50.5v-351q0 -96 50 -146.5
t132 -50.5q109 0 156 56.5t47 189.5v278q0 47 -14.5 68t-56.5 21h-4q-20 0 -20 17v11q0 17 20 17h212q23 0 23 -16v-13q0 -16 -17 -16h-6q-43 0 -58.5 -19.5t-15.5 -74.5zM441 760h-13q-11 0 -20 8l-120 117q-10 10 -1 20l8 9q8 9 17 3l123 -78l123 77q9 6 17 -3l6 -7
q9 -9 -2 -20l-120 -118q-8 -8 -18 -8z" />
    <glyph glyph-name="uni01D4" unicode="&#x1d4;" horiz-adv-x="628" 
d="M427 146v257q0 19 -8.5 26.5t-28.5 9.5l-25 2q-5 1 -7 1.5t-3.5 3t-1.5 7.5v8q0 11 9 15l132 48q10 3 17 -2l5 -4q6 -5 6 -13v-411q0 -22 15 -27l42 -14q7 -3 7 -10v-13q0 -8 -8 -10l-129 -28q-8 -1 -13 2l-4 3q-5 5 -5 13v80q-70 -98 -169 -98q-67 0 -109 42.5
t-42 109.5v259q0 19 -8.5 26.5t-28.5 9.5l-25 2q-5 1 -7 1.5t-3.5 3t-1.5 7.5v8q0 11 9 15l135 49q9 2 15 -2l4 -3q6 -4 6 -13v-329q0 -54 23 -84t67 -30q71 0 135 82zM177 746l9 8q11 9 21 -1l101 -96l104 96q10 10 21 0l7 -6q10 -9 1 -21l-108 -138q-8 -10 -18 -10h-16
q-10 0 -18 10l-105 136q-9 12 1 22z" />
    <glyph glyph-name="uni01D5" unicode="&#x1d5;" horiz-adv-x="800" 
d="M685 561v-262q0 -313 -269 -313q-61 0 -111.5 12.5t-93 40t-66 78.5t-23.5 121v352q0 36 -15 50.5t-53 14.5h-8q-12 0 -16.5 3t-4.5 14v11q0 9 4.5 13t18.5 4h267q21 0 21 -18v-11q0 -9 -3.5 -12.5t-14.5 -3.5h-5q-43 0 -59.5 -14.5t-16.5 -50.5v-351q0 -96 50 -146.5
t132 -50.5q109 0 156 56.5t47 189.5v278q0 47 -14.5 68t-56.5 21h-4q-20 0 -20 17v11q0 17 20 17h212q23 0 23 -16v-13q0 -16 -17 -16h-6q-43 0 -58.5 -19.5t-15.5 -74.5zM559 918h-256q-9 0 -12 3t-3 13v36q0 10 3 13t12 3h256q9 0 12 -3t3 -13v-36q0 -10 -3 -13t-12 -3z
M265 820q0 26 18.5 44.5t44.5 18.5t44.5 -18.5t18.5 -44.5t-18.5 -44.5t-44.5 -18.5t-44.5 18.5t-18.5 44.5zM477 820q0 26 18.5 44.5t44.5 18.5t44.5 -18.5t18.5 -44.5t-18.5 -44.5t-44.5 -18.5t-44.5 18.5t-18.5 44.5z" />
    <glyph glyph-name="uni01D6" unicode="&#x1d6;" horiz-adv-x="628" 
d="M427 146v257q0 19 -8.5 26.5t-28.5 9.5l-25 2q-5 1 -7 1.5t-3.5 3t-1.5 7.5v8q0 11 9 15l132 48q10 3 17 -2l5 -4q6 -5 6 -13v-411q0 -22 15 -27l42 -14q7 -3 7 -10v-13q0 -8 -8 -10l-129 -28q-8 -1 -13 2l-4 3q-5 5 -5 13v80q-70 -98 -169 -98q-67 0 -109 42.5
t-42 109.5v259q0 19 -8.5 26.5t-28.5 9.5l-25 2q-5 1 -7 1.5t-3.5 3t-1.5 7.5v8q0 11 9 15l135 49q9 2 15 -2l4 -3q6 -4 6 -13v-329q0 -54 23 -84t67 -30q71 0 135 82zM419 770h-232q-12 0 -15.5 3t-3.5 15v28q0 12 3.5 15t17.5 3h228q14 0 17.5 -3t3.5 -15v-28
q0 -12 -3.5 -15t-15.5 -3zM159 660q0 25 16.5 42.5t41.5 17.5q24 0 41 -17.5t17 -42.5t-17 -42.5t-41 -17.5q-25 0 -41.5 17.5t-16.5 42.5zM344 660q0 25 16.5 42.5t41.5 17.5q24 0 41 -17.5t17 -42.5t-17 -42.5t-41 -17.5q-25 0 -41.5 17.5t-16.5 42.5z" />
    <glyph glyph-name="uni01D7" unicode="&#x1d7;" horiz-adv-x="800" 
d="M685 561v-262q0 -313 -269 -313q-61 0 -111.5 12.5t-93 40t-66 78.5t-23.5 121v352q0 36 -15 50.5t-53 14.5h-8q-12 0 -16.5 3t-4.5 14v11q0 9 4.5 13t18.5 4h267q21 0 21 -18v-11q0 -9 -3.5 -12.5t-14.5 -3.5h-5q-43 0 -59.5 -14.5t-16.5 -50.5v-351q0 -96 50 -146.5
t132 -50.5q109 0 156 56.5t47 189.5v278q0 47 -14.5 68t-56.5 21h-4q-20 0 -20 17v11q0 17 20 17h212q23 0 23 -16v-13q0 -16 -17 -16h-6q-43 0 -58.5 -19.5t-15.5 -74.5zM414 908l-3 6q-6 13 7 22l150 105q25 17 42 17q19 0 30.5 -13.5t11.5 -31.5q0 -27 -41 -44l-175 -67
q-10 -4 -14 -3t-8 9zM265 820q0 26 18.5 44.5t44.5 18.5t44.5 -18.5t18.5 -44.5t-18.5 -44.5t-44.5 -18.5t-44.5 18.5t-18.5 44.5zM477 820q0 26 18.5 44.5t44.5 18.5t44.5 -18.5t18.5 -44.5t-18.5 -44.5t-44.5 -18.5t-44.5 18.5t-18.5 44.5z" />
    <glyph glyph-name="uni01D8" unicode="&#x1d8;" horiz-adv-x="628" 
d="M427 146v257q0 19 -8.5 26.5t-28.5 9.5l-25 2q-5 1 -7 1.5t-3.5 3t-1.5 7.5v8q0 11 9 15l132 48q10 3 17 -2l5 -4q6 -5 6 -13v-411q0 -22 15 -27l42 -14q7 -3 7 -10v-13q0 -8 -8 -10l-129 -28q-8 -1 -13 2l-4 3q-5 5 -5 13v80q-70 -98 -169 -98q-67 0 -109 42.5
t-42 109.5v259q0 19 -8.5 26.5t-28.5 9.5l-25 2q-5 1 -7 1.5t-3.5 3t-1.5 7.5v8q0 11 9 15l135 49q9 2 15 -2l4 -3q6 -4 6 -13v-329q0 -54 23 -84t67 -30q71 0 135 82zM451 906q17 0 29 -14t12 -30q0 -27 -29 -43l-154 -89q-12 -8 -21 1l-6 7q-8 9 4 21l123 125q22 22 42 22
zM159 660q0 25 16.5 42.5t41.5 17.5q24 0 41 -17.5t17 -42.5t-17 -42.5t-41 -17.5q-25 0 -41.5 17.5t-16.5 42.5zM344 660q0 25 16.5 42.5t41.5 17.5q24 0 41 -17.5t17 -42.5t-17 -42.5t-41 -17.5q-25 0 -41.5 17.5t-16.5 42.5z" />
    <glyph glyph-name="uni01D9" unicode="&#x1d9;" horiz-adv-x="800" 
d="M685 561v-262q0 -313 -269 -313q-61 0 -111.5 12.5t-93 40t-66 78.5t-23.5 121v352q0 36 -15 50.5t-53 14.5h-8q-12 0 -16.5 3t-4.5 14v11q0 9 4.5 13t18.5 4h267q21 0 21 -18v-11q0 -9 -3.5 -12.5t-14.5 -3.5h-5q-43 0 -59.5 -14.5t-16.5 -50.5v-351q0 -96 50 -146.5
t132 -50.5q109 0 156 56.5t47 189.5v278q0 47 -14.5 68t-56.5 21h-4q-20 0 -20 17v11q0 17 20 17h212q23 0 23 -16v-13q0 -16 -17 -16h-6q-43 0 -58.5 -19.5t-15.5 -74.5zM441 884h-13q-11 0 -20 8l-120 117q-10 10 -1 20l8 9q8 9 17 3l123 -78l123 77q9 6 17 -3l6 -7
q9 -9 -2 -20l-120 -118q-8 -8 -18 -8zM265 820q0 26 18.5 44.5t44.5 18.5t44.5 -18.5t18.5 -44.5t-18.5 -44.5t-44.5 -18.5t-44.5 18.5t-18.5 44.5zM477 820q0 26 18.5 44.5t44.5 18.5t44.5 -18.5t18.5 -44.5t-18.5 -44.5t-44.5 -18.5t-44.5 18.5t-18.5 44.5z" />
    <glyph glyph-name="uni01DA" unicode="&#x1da;" horiz-adv-x="628" 
d="M427 146v257q0 19 -8.5 26.5t-28.5 9.5l-25 2q-5 1 -7 1.5t-3.5 3t-1.5 7.5v8q0 11 9 15l132 48q10 3 17 -2l5 -4q6 -5 6 -13v-411q0 -22 15 -27l42 -14q7 -3 7 -10v-13q0 -8 -8 -10l-129 -28q-8 -1 -13 2l-4 3q-5 5 -5 13v80q-70 -98 -169 -98q-67 0 -109 42.5
t-42 109.5v259q0 19 -8.5 26.5t-28.5 9.5l-25 2q-5 1 -7 1.5t-3.5 3t-1.5 7.5v8q0 11 9 15l135 49q9 2 15 -2l4 -3q6 -4 6 -13v-329q0 -54 23 -84t67 -30q71 0 135 82zM177 897l9 8q11 9 21 -1l101 -96l104 96q10 10 21 0l7 -6q10 -9 1 -21l-108 -138q-8 -10 -18 -10h-16
q-10 0 -18 10l-105 136q-9 12 1 22zM159 660q0 25 16.5 42.5t41.5 17.5q24 0 41 -17.5t17 -42.5t-17 -42.5t-41 -17.5q-25 0 -41.5 17.5t-16.5 42.5zM344 660q0 25 16.5 42.5t41.5 17.5q24 0 41 -17.5t17 -42.5t-17 -42.5t-41 -17.5q-25 0 -41.5 17.5t-16.5 42.5z" />
    <glyph glyph-name="uni01DB" unicode="&#x1db;" horiz-adv-x="800" 
d="M452 917l-4 -10q-5 -9 -18 -5l-171 49q-40 10 -40 45q0 18 11.5 31t28.5 13q19 0 38 -13l147 -91q13 -8 8 -19zM685 561v-262q0 -313 -269 -313q-61 0 -111.5 12.5t-93 40t-66 78.5t-23.5 121v352q0 36 -15 50.5t-53 14.5h-8q-12 0 -16.5 3t-4.5 14v11q0 9 4.5 13t18.5 4
h267q21 0 21 -18v-11q0 -9 -3.5 -12.5t-14.5 -3.5h-5q-43 0 -59.5 -14.5t-16.5 -50.5v-351q0 -96 50 -146.5t132 -50.5q109 0 156 56.5t47 189.5v278q0 47 -14.5 68t-56.5 21h-4q-20 0 -20 17v11q0 17 20 17h212q23 0 23 -16v-13q0 -16 -17 -16h-6q-43 0 -58.5 -19.5
t-15.5 -74.5zM265 820q0 26 18.5 44.5t44.5 18.5t44.5 -18.5t18.5 -44.5t-18.5 -44.5t-44.5 -18.5t-44.5 18.5t-18.5 44.5zM477 820q0 26 18.5 44.5t44.5 18.5t44.5 -18.5t18.5 -44.5t-18.5 -44.5t-44.5 -18.5t-44.5 18.5t-18.5 44.5z" />
    <glyph glyph-name="uni01DC" unicode="&#x1dc;" horiz-adv-x="628" 
d="M427 146v257q0 19 -8.5 26.5t-28.5 9.5l-25 2q-5 1 -7 1.5t-3.5 3t-1.5 7.5v8q0 11 9 15l132 48q10 3 17 -2l5 -4q6 -5 6 -13v-411q0 -22 15 -27l42 -14q7 -3 7 -10v-13q0 -8 -8 -10l-129 -28q-8 -1 -13 2l-4 3q-5 5 -5 13v80q-70 -98 -169 -98q-67 0 -109 42.5
t-42 109.5v259q0 19 -8.5 26.5t-28.5 9.5l-25 2q-5 1 -7 1.5t-3.5 3t-1.5 7.5v8q0 11 9 15l135 49q9 2 15 -2l4 -3q6 -4 6 -13v-329q0 -54 23 -84t67 -30q71 0 135 82zM314 729l-154 92q-27 17 -27 43q0 17 13 30.5t30 13.5q21 0 39 -20l121 -130q11 -12 3 -20l-7 -9
q-6 -7 -18 0zM159 660q0 25 16.5 42.5t41.5 17.5q24 0 41 -17.5t17 -42.5t-17 -42.5t-41 -17.5q-25 0 -41.5 17.5t-16.5 42.5zM344 660q0 25 16.5 42.5t41.5 17.5q24 0 41 -17.5t17 -42.5t-17 -42.5t-41 -17.5q-25 0 -41.5 17.5t-16.5 42.5z" />
    <glyph glyph-name="uni01DD" unicode="&#x1dd;" horiz-adv-x="538" 
d="M229 449q-81 0 -142 -70q-10 -12 -20 -4l-8 5q-10 6 -3 19q30 53 84.5 87.5t125.5 34.5q101 0 164 -69t63 -187q0 -121 -68.5 -195.5t-171.5 -74.5q-92 0 -146.5 52t-54.5 127q0 14 4.5 18.5t14.5 4.5h314q3 22 3 47q0 90 -42.5 147.5t-116.5 57.5zM258 31q93 0 121 124
h-196q-13 0 -18.5 -4t-4.5 -16q2 -45 28 -74.5t70 -29.5z" />
    <glyph glyph-name="uni01E6" unicode="&#x1e6;" horiz-adv-x="823" 
d="M431 714q110 0 209 -55q7 -4 11 -4q5 0 9 7l13 26q5 8 12 8h13q10 0 10 -13l5 -183q0 -19 -13 -19h-18q-12 0 -15 11q-20 84 -86 132t-153 48q-110 0 -174.5 -86.5t-64.5 -226.5q0 -143 68.5 -237t194.5 -94q80 0 121 41.5t41 110.5v25q0 89 -71 89h-8q-13 0 -18.5 3.5
t-5.5 14.5v10q0 17 19 17h243q14 0 19 -3t5 -14v-12q0 -16 -21 -16h-7q-34 0 -44 -14.5t-10 -48.5v-113q0 -23 -6 -36t-24 -27q-94 -69 -242 -69q-167 0 -274 97t-107 267q0 113 51 197t133.5 125.5t184.5 41.5zM436 760h-13q-11 0 -20 8l-120 117q-10 10 -1 20l8 9
q8 9 17 3l123 -78l123 77q9 6 17 -3l6 -7q9 -9 -2 -20l-120 -118q-8 -8 -18 -8z" />
    <glyph glyph-name="uni01E7" unicode="&#x1e7;" horiz-adv-x="593" 
d="M23 -160q0 47 36.5 83t88.5 49q-42 8 -65 31.5t-23 58.5q0 70 84 120q-80 52 -80 155q0 85 62.5 136t145.5 51q91 0 151 -47q61 55 113 55q29 0 45 -15t16 -42q0 -22 -11 -35.5t-31 -13.5q-24 0 -42 22q-18 20 -30 20q-16 0 -36 -14q41 -48 41 -119q0 -88 -57 -139.5
t-151 -51.5q-57 0 -102 19q-42 -27 -42 -66q0 -26 22 -39.5t57 -13.5h168q178 0 178 -138q0 -95 -80.5 -144.5t-205.5 -49.5q-51 0 -94 6t-79.5 20t-57.5 40t-21 62zM491 -119q0 78 -114 78h-111q-74 0 -115 -25.5t-41 -71.5q0 -51 50.5 -77t128.5 -26q93 0 147.5 32.5
t54.5 89.5zM395 332q0 65 -34 109.5t-90 44.5q-54 0 -83.5 -41t-29.5 -106q0 -63 33.5 -110t89.5 -47q57 0 85.5 43t28.5 107zM150 746l9 8q11 9 21 -1l101 -96l104 96q10 10 21 0l7 -6q10 -9 1 -21l-108 -138q-8 -10 -18 -10h-16q-10 0 -18 10l-105 136q-9 12 1 22z" />
    <glyph glyph-name="uni01E8" unicode="&#x1e8;" horiz-adv-x="787" 
d="M516 108l-206 229h-36v-227q0 -36 16.5 -50.5t62.5 -14.5h9q21 0 21 -18v-11q0 -9 -4.5 -12.5t-18.5 -3.5h-284q-21 0 -21 18v11q0 16 23 16h10q44 0 60 14.5t16 50.5v480q0 36 -17 50.5t-65 14.5h-6q-21 0 -21 18v11q0 9 4.5 12.5t18.5 3.5h284q21 0 21 -18v-11
q0 -9 -4.5 -12.5t-18.5 -3.5h-7q-45 0 -62 -14.5t-17 -50.5v-208h36l201 191q31 30 27.5 56t-38.5 26h-6q-20 0 -20 17v11q0 17 17 17h245q19 0 19 -16v-9q0 -12 -4.5 -16t-18.5 -4q-40 0 -71.5 -17.5t-80.5 -65.5l-186 -176l236 -261q48 -54 73 -72t59 -18q15 0 15 -18v-10
q0 -17 -24 -17h-246q-18 0 -18 15v10q0 19 19 19h4q16 0 22.5 8.5t1.5 23.5t-20 32zM424 760h-13q-11 0 -20 8l-120 117q-10 10 -1 20l8 9q8 9 17 3l123 -78l123 77q9 6 17 -3l6 -7q9 -9 -2 -20l-120 -118q-8 -8 -18 -8z" />
    <glyph glyph-name="uni01E9" unicode="&#x1e9;" horiz-adv-x="600" 
d="M107 115v518q0 19 -8.5 26.5t-28.5 9.5l-25 2q-5 1 -7 1.5t-3.5 3t-1.5 7.5v9q0 10 9 15l131 51q8 3 15 -1l9 -6q5 -4 5 -13v-448h41l128 126q19 17 16 35t-29 22l-8 1q-10 2 -13 5.5t-3 12.5v10q0 14 14 14h200q11 0 14 -3t3 -13v-11q0 -8 -3 -11t-12 -5
q-63 -9 -128 -70l-108 -102l169 -191q52 -59 93 -67q14 -3 14 -16v-11q0 -9 -3 -12.5t-14 -3.5h-213q-13 0 -13 14v11q0 16 13 17l10 1q50 6 16 43l-142 159h-42v-130q0 -38 8.5 -52.5t39.5 -18.5l8 -1q15 -3 15 -18v-11q0 -8 -2.5 -11t-11.5 -3h-210q-11 0 -14 3.5t-3 12.5
v10q0 15 14 17l8 1q32 4 42.5 18.5t10.5 52.5zM242 839l9 8q11 9 21 -1l101 -96l104 96q10 10 21 0l7 -6q10 -9 1 -21l-108 -138q-8 -10 -18 -10h-16q-10 0 -18 10l-105 136q-9 12 1 22z" />
    <glyph glyph-name="uni01EE" unicode="&#x1ee;" horiz-adv-x="667" 
d="M309 -14q-105 0 -172 45.5t-67 120.5q0 34 19 55.5t49 21.5q29 0 45 -15t16 -42q0 -15 -11.5 -36t-11.5 -30q0 -34 36.5 -56.5t99.5 -22.5q81 0 127.5 45.5t46.5 115.5q0 72 -42.5 106.5t-130.5 34.5h-38q-11 0 -11 13v16q0 15 8 23l200 203q9 9 7 15.5t-13 6.5h-189
q-50 0 -78 -16t-47 -52l-19 -36q-5 -8 -9 -10t-12 0l-10 2q-14 3 -11 18l38 172q3 16 19 16h430q16 0 16 -13v-27q0 -15 -12 -27l-227 -229q112 -4 176 -51.5t64 -142.5q0 -108 -79.5 -166t-206.5 -58zM347 760h-13q-11 0 -20 8l-120 117q-10 10 -1 20l8 9q8 9 17 3l123 -78
l123 77q9 6 17 -3l6 -7q9 -9 -2 -20l-120 -118q-8 -8 -18 -8z" />
    <glyph glyph-name="uni01EF" unicode="&#x1ef;" horiz-adv-x="544" 
d="M50 347l33 153q3 16 18 16h376q11 0 11 -10v-31q0 -13 -9 -24l-220 -263q116 -23 176 -78t60 -150q0 -112 -78.5 -179.5t-185.5 -67.5q-91 0 -147.5 32.5t-56.5 94.5q0 29 17 47.5t46 18.5q22 0 35.5 -13.5t13.5 -37.5q0 -9 -2 -23.5t-2 -20.5q0 -26 27.5 -41t69.5 -15
q73 0 119.5 51t46.5 124q0 43 -16 74t-47 50t-66 30t-84 18q-12 2 -12 17v19q0 15 8 25l199 244q17 20 -8 20h-161q-42 0 -66 -15.5t-45 -54.5l-11 -21q-9 -16 -20 -12l-9 2q-8 2 -10 6t0 15zM154 746l9 8q11 9 21 -1l101 -96l104 96q10 10 21 0l7 -6q10 -9 1 -21l-108 -138
q-8 -10 -18 -10h-16q-10 0 -18 10l-105 136q-9 12 1 22z" />
    <glyph glyph-name="uni01F4" unicode="&#x1f4;" horiz-adv-x="823" 
d="M431 714q110 0 209 -55q7 -4 11 -4q5 0 9 7l13 26q5 8 12 8h13q10 0 10 -13l5 -183q0 -19 -13 -19h-18q-12 0 -15 11q-20 84 -86 132t-153 48q-110 0 -174.5 -86.5t-64.5 -226.5q0 -143 68.5 -237t194.5 -94q80 0 121 41.5t41 110.5v25q0 89 -71 89h-8q-13 0 -18.5 3.5
t-5.5 14.5v10q0 17 19 17h243q14 0 19 -3t5 -14v-12q0 -16 -21 -16h-7q-34 0 -44 -14.5t-10 -48.5v-113q0 -23 -6 -36t-24 -27q-94 -69 -242 -69q-167 0 -274 97t-107 267q0 113 51 197t133.5 125.5t184.5 41.5zM333 769l-3 6q-6 13 7 22l150 105q25 17 42 17
q19 0 30.5 -13.5t11.5 -31.5q0 -27 -41 -44l-175 -67q-10 -4 -14 -3t-8 9z" />
    <glyph glyph-name="uni01F5" unicode="&#x1f5;" horiz-adv-x="593" 
d="M23 -160q0 47 36.5 83t88.5 49q-42 8 -65 31.5t-23 58.5q0 70 84 120q-80 52 -80 155q0 85 62.5 136t145.5 51q91 0 151 -47q61 55 113 55q29 0 45 -15t16 -42q0 -22 -11 -35.5t-31 -13.5q-24 0 -42 22q-18 20 -30 20q-16 0 -36 -14q41 -48 41 -119q0 -88 -57 -139.5
t-151 -51.5q-57 0 -102 19q-42 -27 -42 -66q0 -26 22 -39.5t57 -13.5h168q178 0 178 -138q0 -95 -80.5 -144.5t-205.5 -49.5q-51 0 -94 6t-79.5 20t-57.5 40t-21 62zM491 -119q0 78 -114 78h-111q-74 0 -115 -25.5t-41 -71.5q0 -51 50.5 -77t128.5 -26q93 0 147.5 32.5
t54.5 89.5zM395 332q0 65 -34 109.5t-90 44.5q-54 0 -83.5 -41t-29.5 -106q0 -63 33.5 -110t89.5 -47q57 0 85.5 43t28.5 107zM366 756q17 0 29 -14t12 -30q0 -27 -29 -43l-154 -89q-12 -8 -21 1l-6 7q-8 9 4 21l123 125q22 22 42 22z" />
    <glyph glyph-name="uni01FA" unicode="&#x1fa;" 
d="M241 960l-3 6q-6 13 7 22l150 105q25 17 42 17q19 0 30.5 -13.5t11.5 -31.5q0 -27 -41 -44l-175 -67q-10 -4 -14 -3t-8 9zM380 704l225 -578q16 -42 35 -61.5t51 -19.5h6q14 0 14 -18v-10q0 -17 -16 -17h-265q-16 0 -16 16v10q0 19 19 19h7q25 0 39.5 6.5t18 20t1.5 28
t-10 36.5l-42 110h-239l-37 -103q-35 -98 47 -98h6q22 0 22 -19v-9q0 -17 -17 -17h-207q-22 0 -22 17v8q0 20 20 20h3q57 0 93 98l182 481l-4 11q-8 20 6 28q24 14 51 44q7 7 16 7q10 0 13 -10zM324 566l-99 -275h204zM343 742q-42 0 -70.5 29t-28.5 73q0 42 28.5 70
t70.5 28q41 0 70.5 -28.5t29.5 -69.5q0 -43 -29 -72.5t-71 -29.5zM343 785q24 0 39.5 16.5t15.5 42.5q0 23 -15.5 39t-39.5 16q-23 0 -38.5 -16t-15.5 -39q0 -26 15.5 -42.5t38.5 -16.5z" />
    <glyph glyph-name="uni01FB" unicode="&#x1fb;" horiz-adv-x="532" 
d="M169 -5q-49 0 -80 30t-31 80q0 55 38.5 89t120.5 67q58 22 110 50l1 80q0 48 -21 69t-64 21q-31 0 -59 -17t-28 -37q0 -5 1 -18.5t1 -20.5q0 -28 -15 -46t-44 -18q-51 0 -51 48q0 56 81.5 104.5t160.5 48.5q64 0 99 -31t34 -90l-3 -293q0 -39 28 -39q27 0 45 48q3 8 13 7
l8 -2q8 -2 7 -12q-9 -46 -37.5 -81.5t-74.5 -35.5q-76 0 -81 96q-75 -97 -159 -97zM217 62q52 0 110 73v135l-82 -36q-50 -24 -72 -47t-22 -54q0 -32 18 -51.5t48 -19.5zM251 572q-41 0 -69.5 27.5t-28.5 71.5q0 43 28.5 70t69.5 27q43 0 71 -26.5t28 -70.5t-28 -71.5
t-71 -27.5zM251 614q24 0 38.5 15.5t14.5 41.5q0 25 -15 40t-38 15q-22 0 -37 -15.5t-15 -39.5q0 -26 15 -41.5t37 -15.5zM317 956q17 0 29 -14t12 -30q0 -27 -29 -43l-154 -89q-12 -8 -21 1l-6 7q-8 9 4 21l123 125q22 22 42 22z" />
    <glyph glyph-name="AEacute" unicode="&#x1fc;" horiz-adv-x="1008" 
d="M662 655h-63q-14 0 -18 -4.5t-4 -17.5v-247h105q33 0 48.5 24t15.5 61v7q0 19 19 19h11q17 0 17 -23v-209q0 -11 -3.5 -15t-13.5 -4h-10q-19 0 -19 20v8q0 67 -66 67h-104v-238q0 -30 10 -44t40 -14h73q73 0 114 21.5t72 71.5l26 42q10 17 26 12l10 -3q13 -4 9 -23
l-29 -136q-4 -18 -12.5 -24t-26.5 -6h-507q-21 0 -21 18v11q0 9 4.5 12.5t18.5 3.5h10q43 0 59.5 15t16.5 50v140h-212l-58 -107q-55 -98 27 -98h6q22 0 22 -19v-9q0 -17 -17 -17h-216q-22 0 -22 17v8q0 20 20 20h4q36 0 63 25.5t54 72.5l282 509q-17 3 -55 3h-6
q-21 0 -21 18v11q0 9 4.5 12.5t18.5 3.5h501q20 0 27.5 -5t9.5 -24l16 -122q2 -14 -10 -17l-8 -2q-14 -4 -25 14l-20 32q-29 46 -67.5 62.5t-125.5 16.5zM282 295h188v345zM525 768l-3 6q-6 13 7 22l150 105q25 17 42 17q19 0 30.5 -13.5t11.5 -31.5q0 -27 -41 -44l-175 -67
q-10 -4 -14 -3t-8 9z" />
    <glyph glyph-name="aeacute" unicode="&#x1fd;" horiz-adv-x="805" 
d="M290 525q87 0 119 -59q61 55 156 55q87 0 141.5 -55t54.5 -128q0 -19 -18 -19h-317q-1 -12 -1 -35q0 -93 42 -155t129 -62q75 0 130 70q9 12 20 4l8 -5q10 -6 3 -19q-63 -122 -193 -122q-68 0 -121 31t-82 88q-88 -119 -192 -119q-49 0 -80 30t-31 80q0 55 38.5 89
t120.5 67q73 28 110 50l1 80q1 48 -20 69t-65 21q-31 0 -59 -17t-28 -37q0 -5 1 -18.5t1 -20.5q0 -28 -15 -46t-44 -18q-51 0 -51 48q0 56 81.5 104.5t160.5 48.5zM217 62q33 0 63 21.5t66 64.5q-20 55 -19 116v6l-82 -36q-50 -24 -72 -47t-22 -54q0 -32 18 -51.5t48 -19.5z
M561 485q-95 0 -128 -124h197q13 0 18 4t5 16q0 48 -24.5 76t-67.5 28zM526 756q17 0 29 -14t12 -30q0 -27 -29 -43l-154 -89q-12 -8 -21 1l-6 7q-8 9 4 21l123 125q22 22 42 22z" />
    <glyph glyph-name="Oslashacute" unicode="&#x1fe;" horiz-adv-x="852" 
d="M706 682l-39 -52q123 -102 123 -280q0 -165 -106.5 -264.5t-257.5 -99.5q-115 0 -203 57l-40 -53q-9 -13 -20 -5l-14 10q-8 5 -8 9t6 13l40 52q-125 100 -125 281q0 116 53 200.5t134 124t177 39.5q110 0 204 -58l40 53q5 8 9.5 8.5t12.5 -5.5l12 -9q7 -5 7 -9t-5 -12z
M188 360q0 -128 56 -219l336 452q-69 79 -167 79q-103 0 -164 -83t-61 -229zM664 340q0 124 -56 216l-337 -452q66 -76 165 -76q110 0 169 84t59 228zM330 769l-3 6q-6 13 7 22l150 105q25 17 42 17q19 0 30.5 -13.5t11.5 -31.5q0 -27 -41 -44l-175 -67q-10 -4 -14 -3t-8 9z
" />
    <glyph glyph-name="oslashacute" unicode="&#x1ff;" horiz-adv-x="592" 
d="M498 502l-29 -39q77 -71 77 -196q0 -120 -67 -196t-181 -76q-80 0 -141 40l-31 -43q-8 -13 -20 -4l-9 6q-10 8 0 22l31 43q-82 76 -82 205q0 120 71 190t180 70q82 0 141 -38l29 39q8 11 20 3l9 -6q7 -5 7 -8.5t-5 -11.5zM151 282q0 -85 31 -150l212 292q-42 60 -108 60
q-135 0 -135 -202zM309 35q131 0 131 210q0 82 -26 143l-212 -291q43 -62 107 -62zM389 756q17 0 29 -14t12 -30q0 -27 -29 -43l-154 -89q-12 -8 -21 1l-6 7q-8 9 4 21l123 125q22 22 42 22z" />
    <glyph glyph-name="Scommaaccent" unicode="&#x218;" horiz-adv-x="596" 
d="M293 667q-54 0 -88 -26.5t-34 -75.5q0 -28 11 -49.5t36.5 -39.5t45 -28t58.5 -27q98 -45 131 -70q83 -62 83 -168q0 -90 -64 -143.5t-156 -53.5q-86 0 -162 41q-18 8 -20 8q-8 0 -11 -10l-5 -16q-3 -10 -13 -10h-17q-11 0 -11 13l-2 183q0 16 14 16h18q12 0 15 -12
q16 -80 65.5 -123t124.5 -43q62 0 95.5 30t33.5 84q0 56 -38.5 90.5t-112.5 65.5q-43 18 -66 29t-55 31.5t-47.5 41t-27.5 52.5t-12 71q0 86 61.5 136t153.5 50q77 0 143 -36q13 -7 18 -7q8 0 11 9l5 15q3 8 11 8h15q10 0 10 -13l4 -156q0 -10 -2.5 -14t-11.5 -4h-18
q-11 0 -16 14q-36 137 -173 137zM293 -217q24 26 36 59q-13 -5 -24 -5q-23 0 -36 13t-13 35q0 23 15.5 39t38.5 16q31 0 47 -21.5t16 -55.5q0 -65 -51 -109q-29 -26 -58 -38q-10 -4 -15 4l-5 9q-4 9 3 15q24 16 46 39z" />
    <glyph glyph-name="scommaaccent" unicode="&#x219;" horiz-adv-x="444" 
d="M71 22q-9 4 -11 22l-6 103q-1 17 14 18l16 1q10 0 13 -10q31 -119 130 -119q43 0 66.5 22t23.5 57q0 36 -24.5 57.5t-77.5 45.5q-78 34 -114.5 68.5t-36.5 92.5q0 69 50 105t122 36q71 0 126 -24q10 -5 12 -18l7 -90q1 -13 -12 -15l-15 -2q-11 -1 -16 13q-32 95 -107 95
q-37 0 -60 -19.5t-23 -52.5q0 -24 16.5 -44t35.5 -31t51 -26q7 -3 11 -5q33 -16 50.5 -26t41.5 -29t35 -43.5t11 -55.5q0 -71 -48.5 -112t-133.5 -41q-90 0 -147 27zM202 -214q24 26 36 59q-13 -5 -24 -5q-23 0 -36 13t-13 35q0 23 15.5 39t38.5 16q31 0 47 -21.5t16 -55.5
q0 -65 -51 -109q-29 -26 -58 -38q-10 -4 -15 4l-5 9q-5 9 3 15q24 16 46 39z" />
    <glyph glyph-name="uni021A" unicode="&#x21a;" horiz-adv-x="798" 
d="M319 655h-69q-113 0 -159 -77l-21 -35q-9 -17 -24 -13l-11 4q-14 5 -7 30l40 132q6 18 19 18q7 0 35 -7t50 -7h455q27 0 56 7t36 7q12 0 16 -16l36 -133q5 -21 -7 -25l-10 -4q-15 -5 -27 15l-14 23q-26 44 -66.5 62.5t-101.5 18.5h-60q-17 0 -22.5 -7t-5.5 -25v-513
q0 -36 16.5 -50.5t62.5 -14.5h9q21 0 21 -18v-11q0 -9 -4.5 -12.5t-18.5 -3.5h-284q-21 0 -21 18v11q0 16 23 16h10q44 0 60 14.5t16 50.5v512q0 19 -5.5 26t-22.5 7zM384 -217q24 26 36 59q-13 -5 -24 -5q-23 0 -36 13t-13 35q0 23 15.5 39t38.5 16q31 0 47 -21.5t16 -55.5
q0 -65 -51 -109q-29 -26 -58 -38q-10 -4 -15 4l-5 9q-5 9 3 15q24 16 46 39z" />
    <glyph glyph-name="uni021B" unicode="&#x21b;" horiz-adv-x="387" 
d="M333 449h-136l-3 -299q-1 -86 71 -86q38 0 79 26q10 6 19 -3l5 -6q8 -10 -3 -24q-59 -63 -136 -63q-60 0 -95 36t-35 100l3 319h-63q-12 0 -12 10v6q0 12 10 19q56 41 118 136q9 14 23 14h8q13 0 13 -16l-1 -102h159q17 0 11 -21l-10 -31q-5 -15 -25 -15zM204 -214
q24 26 36 59q-13 -5 -24 -5q-23 0 -36 13t-13 35q0 23 15.5 39t38.5 16q31 0 47 -21.5t16 -55.5q0 -65 -51 -109q-29 -26 -58 -38q-10 -4 -15 4l-5 9q-5 9 3 15q24 16 46 39z" />
    <glyph glyph-name="uni021C" unicode="&#x21c;" horiz-adv-x="667" 
d="M309 -14q-105 0 -172 45.5t-67 120.5q0 34 19 55.5t49 21.5q29 0 45 -15t16 -42q0 -15 -11.5 -36t-11.5 -30q0 -34 36.5 -56.5t99.5 -22.5q81 0 127.5 45.5t46.5 115.5q0 72 -42.5 106.5t-130.5 34.5h-38q-11 0 -11 13v16q0 15 8 23l200 203q9 9 7 15.5t-13 6.5h-189
q-50 0 -78 -16t-47 -52l-19 -36q-5 -8 -9 -10t-12 0l-10 2q-14 3 -11 18l38 172q3 16 19 16h430q16 0 16 -13v-27q0 -15 -12 -27l-227 -229q112 -4 176 -51.5t64 -142.5q0 -108 -79.5 -166t-206.5 -58z" />
    <glyph glyph-name="uni021D" unicode="&#x21d;" horiz-adv-x="544" 
d="M50 347l33 153q3 16 18 16h376q11 0 11 -10v-31q0 -13 -9 -24l-220 -263q116 -23 176 -78t60 -150q0 -112 -78.5 -179.5t-185.5 -67.5q-91 0 -147.5 32.5t-56.5 94.5q0 29 17 47.5t46 18.5q22 0 35.5 -13.5t13.5 -37.5q0 -9 -2 -23.5t-2 -20.5q0 -26 27.5 -41t69.5 -15
q73 0 119.5 51t46.5 124q0 43 -16 74t-47 50t-66 30t-84 18q-12 2 -12 17v19q0 15 8 25l199 244q17 20 -8 20h-161q-42 0 -66 -15.5t-45 -54.5l-11 -21q-9 -16 -20 -12l-9 2q-8 2 -10 6t0 15z" />
    <glyph glyph-name="uni021E" unicode="&#x21e;" horiz-adv-x="944" 
d="M164 110v480q0 36 -17 50.5t-65 14.5h-6q-21 0 -21 18v11q0 9 4.5 12.5t18.5 3.5h284q21 0 21 -18v-11q0 -9 -4.5 -12.5t-18.5 -3.5h-7q-45 0 -62 -14.5t-17 -50.5v-204h396v204q0 36 -17 50.5t-65 14.5h-6q-21 0 -21 18v11q0 9 4.5 12.5t18.5 3.5h284q21 0 21 -18v-11
q0 -9 -4.5 -12.5t-18.5 -3.5h-7q-45 0 -62 -14.5t-17 -50.5v-480q0 -36 16.5 -50.5t62.5 -14.5h9q21 0 21 -18v-11q0 -9 -4.5 -12.5t-18.5 -3.5h-284q-21 0 -21 18v11q0 16 23 16h10q44 0 60 14.5t16 50.5v231h-396v-231q0 -36 16.5 -50.5t62.5 -14.5h9q21 0 21 -18v-11
q0 -9 -4.5 -12.5t-18.5 -3.5h-284q-21 0 -21 18v11q0 16 23 16h10q44 0 60 14.5t16 50.5zM479 760h-13q-11 0 -20 8l-120 117q-10 10 -1 20l8 9q8 9 17 3l123 -78l123 77q9 6 17 -3l6 -7q9 -9 -2 -20l-120 -118q-8 -8 -18 -8z" />
    <glyph glyph-name="uni021F" unicode="&#x21f;" horiz-adv-x="620" 
d="M107 115v518q0 19 -8.5 26.5t-28.5 9.5l-25 2q-5 1 -7 1.5t-3.5 3t-1.5 7.5v9q0 10 9 15l131 51q8 3 15 -1l9 -6q5 -4 5 -13v-311q70 97 170 97q65 0 107 -39.5t42 -97.5v-272q0 -38 8.5 -52.5t39.5 -18.5l8 -1q15 -3 15 -18v-11q0 -8 -2.5 -11t-11.5 -3h-210
q-11 0 -14 3.5t-3 12.5v10q0 15 14 17l8 1q32 4 42.5 18.5t10.5 52.5v235q0 47 -26.5 74.5t-69.5 27.5q-33 0 -71 -23.5t-57 -52.5v-261q0 -38 8.5 -52.5t39.5 -18.5l8 -1q15 -3 15 -18v-11q0 -8 -2.5 -11t-11.5 -3h-210q-11 0 -14 3.5t-3 12.5v10q0 15 14 17l8 1
q32 4 42.5 18.5t10.5 52.5zM201 916l9 8q11 9 21 -1l101 -96l104 96q10 10 21 0l7 -6q10 -9 1 -21l-108 -138q-8 -10 -18 -10h-16q-10 0 -18 10l-105 136q-9 12 1 22z" />
    <glyph glyph-name="uni0227" unicode="&#x227;" horiz-adv-x="532" 
d="M169 -5q-49 0 -80 30t-31 80q0 55 38.5 89t120.5 67q58 22 110 50l1 80q0 48 -21 69t-64 21q-31 0 -59 -17t-28 -37q0 -5 1 -18.5t1 -20.5q0 -28 -15 -46t-44 -18q-51 0 -51 48q0 56 81.5 104.5t160.5 48.5q64 0 99 -31t34 -90l-3 -293q0 -39 28 -39q27 0 45 48q3 8 13 7
l8 -2q8 -2 7 -12q-9 -46 -37.5 -81.5t-74.5 -35.5q-76 0 -81 96q-75 -97 -159 -97zM217 62q52 0 110 73v135l-82 -36q-50 -24 -72 -47t-22 -54q0 -32 18 -51.5t48 -19.5zM268 596q-27 0 -46.5 18.5t-19.5 45.5t20 46.5t46 19.5q27 0 46 -19.5t19 -46.5t-19 -45.5t-46 -18.5z
" />
    <glyph glyph-name="uni0228" unicode="&#x228;" horiz-adv-x="730" 
d="M384 655h-88q-14 0 -18 -4.5t-4 -17.5v-247h130q33 0 48.5 24t15.5 61v7q0 19 19 19h11q17 0 17 -23v-209q0 -11 -3.5 -15t-13.5 -4h-10q-19 0 -19 20v8q0 67 -66 67h-129v-238q0 -30 10 -44t40 -14h98q73 0 114 21.5t72 71.5l26 42q10 17 26 12l10 -3q13 -4 9 -23
l-29 -136q-4 -18 -12.5 -24t-26.5 -6h-535q-21 0 -21 18v11q0 9 4.5 12.5t18.5 3.5h10q43 0 59.5 15t16.5 50v480q0 36 -17 50.5t-65 14.5h-6q-21 0 -21 18v11q0 9 4.5 12.5t18.5 3.5h509q20 0 27.5 -5t9.5 -24l16 -122q2 -14 -10 -17l-8 -2q-14 -4 -25 14l-20 32
q-29 46 -67.5 62.5t-125.5 16.5zM267 -274q-9 3 -9 11v11q0 13 11 13h16q50 0 83 16.5t33 48.5q0 24 -23.5 37t-72.5 22q-6 1 -7 5.5t4 11.5l83 107h46l-59 -76q105 -14 105 -90q0 -51 -45.5 -86t-119.5 -35q-29 0 -45 4z" />
    <glyph glyph-name="uni0229" unicode="&#x229;" horiz-adv-x="530" 
d="M321 67q75 0 130 70q9 12 20 4l8 -5q10 -6 3 -19q-63 -122 -193 -122q-107 0 -175.5 73.5t-68.5 192.5q0 122 69 191t176 69q87 0 141.5 -55t54.5 -128q0 -19 -18 -19h-317q-1 -12 -1 -35q0 -93 42 -155t129 -62zM286 485q-95 0 -128 -124h197q13 0 18 4t5 16
q0 48 -24.5 76t-67.5 28zM158 -274q-9 3 -9 11v11q0 13 11 13h16q50 0 83 16.5t33 48.5q0 24 -23.5 37t-72.5 22q-6 1 -7 5.5t4 11.5l83 107h46l-59 -76q105 -14 105 -90q0 -51 -45.5 -86t-119.5 -35q-29 0 -45 4z" />
    <glyph glyph-name="uni022F" unicode="&#x22f;" horiz-adv-x="592" 
d="M298 -5q-110 0 -181.5 73.5t-71.5 193.5t71.5 189.5t180.5 69.5q112 0 181 -68t69 -188q0 -119 -67.5 -194.5t-181.5 -75.5zM309 36q128 0 128 207q0 101 -40.5 169t-110.5 68q-64 0 -98 -52.5t-34 -147.5q0 -57 17 -111.5t53.5 -93.5t84.5 -39zM296 596
q-27 0 -46.5 18.5t-19.5 45.5t20 46.5t46 19.5q27 0 46 -19.5t19 -46.5t-19 -45.5t-46 -18.5z" />
    <glyph glyph-name="uni0232" unicode="&#x232;" horiz-adv-x="710" 
d="M303 279l-179 311q-22 38 -39 51.5t-51 13.5q-19 0 -19 17v11q0 17 18 17h259q16 0 16 -15v-10q0 -10 -4 -14t-15 -4h-7q-31 0 -39.5 -18.5t5.5 -41.5l143 -257l132 229q14 23 17 43t-7.5 32.5t-33.5 12.5h-10q-11 0 -14.5 4t-3.5 13v9q0 17 19 17h196q15 0 19.5 -4
t4.5 -15v-6q0 -19 -18 -19q-36 0 -58.5 -21t-55.5 -76l-165 -270v-179q0 -36 16.5 -50.5t62.5 -14.5h9q21 0 21 -18v-11q0 -9 -4.5 -12.5t-18.5 -3.5h-284q-21 0 -21 18v11q0 16 23 16h10q44 0 60 14.5t16 50.5v169zM498 800h-256q-9 0 -12 3t-3 13v36q0 10 3 13t12 3h256
q9 0 12 -3t3 -13v-36q0 -10 -3 -13t-12 -3z" />
    <glyph glyph-name="uni0237" unicode="&#x237;" horiz-adv-x="302" 
d="M113 -100v498q0 19 -8.5 26.5t-28.5 9.5l-25 2q-5 1 -7 1.5t-3.5 3t-1.5 7.5v9q0 11 9 15l131 51q8 3 15 -1l9 -6q5 -4 5 -13v-503q0 -72 -22.5 -129t-58.5 -89.5t-75.5 -49t-79.5 -16.5q-34 0 -52.5 17.5t-18.5 43.5q0 23 14.5 37t36.5 14q30 0 58 -32q17 -20 35 -20
q32 0 50 34t18 90z" />
    <glyph glyph-name="uni0259" unicode="&#x259;" horiz-adv-x="538" 
d="M229 449q-81 0 -142 -70q-10 -12 -20 -4l-8 5q-10 6 -3 19q30 53 84.5 87.5t125.5 34.5q101 0 164 -69t63 -187q0 -121 -68.5 -195.5t-171.5 -74.5q-92 0 -146.5 52t-54.5 127q0 14 4.5 18.5t14.5 4.5h314q3 22 3 47q0 90 -42.5 147.5t-116.5 57.5zM258 31q93 0 121 124
h-196q-13 0 -18.5 -4t-4.5 -16q2 -45 28 -74.5t70 -29.5z" />
    <glyph glyph-name="circumflex" unicode="&#x2c6;" horiz-adv-x="353" 
d="M279 575l-99 98l-107 -98q-10 -9 -20 0l-7 6q-10 9 -1 20l114 149q8 10 18 10h7q8 0 16 -9l109 -151q7 -10 -2 -18l-8 -7q-10 -9 -20 0z" />
    <glyph glyph-name="caron" unicode="&#x2c7;" horiz-adv-x="355" 
d="M46 746l9 8q11 9 21 -1l101 -96l104 96q10 10 21 0l7 -6q10 -9 1 -21l-108 -138q-8 -10 -18 -10h-16q-10 0 -18 10l-105 136q-9 12 1 22z" />
    <glyph glyph-name="breve" unicode="&#x2d8;" horiz-adv-x="353" 
d="M174 590q-69 0 -107 66q-14 25 -26 65q-4 14 9 19l11 4q12 5 17 -7q13 -30 31 -50q25 -31 67 -31q38 0 69 31q22 27 32 49q2 4 3.5 6t3.5 3t4 0.5t7 -1.5l9 -3q11 -5 7 -18q-10 -38 -27 -67q-40 -66 -110 -66z" />
    <glyph glyph-name="dotaccent" unicode="&#x2d9;" horiz-adv-x="211" 
d="M106 596q-27 0 -46.5 18.5t-19.5 45.5t20 46.5t46 19.5q27 0 46 -19.5t19 -46.5t-19 -45.5t-46 -18.5z" />
    <glyph glyph-name="ring" unicode="&#x2da;" horiz-adv-x="277" 
d="M138 572q-41 0 -69.5 27.5t-28.5 71.5q0 43 28.5 70t69.5 27q43 0 71 -26.5t28 -70.5t-28 -71.5t-71 -27.5zM138 614q24 0 38.5 15.5t14.5 41.5q0 25 -15 40t-38 15q-22 0 -37 -15.5t-15 -39.5q0 -26 15 -41.5t37 -15.5z" />
    <glyph glyph-name="ogonek" unicode="&#x2db;" horiz-adv-x="292" 
d="M142 -278q-46 0 -74 23.5t-28 66.5q0 94 136 198h41q-51 -48 -74.5 -85t-23.5 -77q0 -31 15.5 -49.5t40.5 -18.5q27 0 53 19q7 6 14 -1l7 -7q6 -6 -1 -15q-44 -54 -106 -54z" />
    <glyph glyph-name="tilde" unicode="&#x2dc;" horiz-adv-x="383" 
d="M132 716q22 0 55 -14l36 -15q19 -9 36 -9q30 0 49 40q5 12 16 9l11 -3q12 -3 7 -17q-11 -45 -35 -70.5t-57 -25.5q-24 0 -54 13l-38 16q-21 8 -33 8q-31 0 -49 -42q-4 -10 -16 -7l-11 3q-13 3 -8 17q29 97 91 97z" />
    <glyph glyph-name="hungarumlaut" unicode="&#x2dd;" horiz-adv-x="438" 
d="M186 755q14 0 25.5 -11t11.5 -25q0 -21 -27 -41l-123 -92q-13 -10 -22 -2l-6 6q-9 9 1 21l106 126q15 18 34 18zM361 752q14 0 25.5 -12t11.5 -26q0 -22 -29 -40l-140 -90q-13 -8 -21 0l-6 7q-8 8 4 21l120 122q18 18 35 18z" />
    <glyph glyph-name="uni0308" unicode="&#x308;" horiz-adv-x="0" 
d="M-422 660q0 25 16.5 42.5t41.5 17.5q24 0 41 -17.5t17 -42.5t-17 -42.5t-41 -17.5q-25 0 -41.5 17.5t-16.5 42.5zM-237 660q0 25 16.5 42.5t41.5 17.5q24 0 41 -17.5t17 -42.5t-17 -42.5t-41 -17.5q-25 0 -41.5 17.5t-16.5 42.5z" />
    <glyph glyph-name="uni030C" unicode="&#x30c;" horiz-adv-x="0" 
d="M-413 746l9 8q11 9 21 -1l101 -96l104 96q10 10 21 0l7 -6q10 -9 1 -21l-108 -138q-8 -10 -18 -10h-16q-10 0 -18 10l-105 136q-9 12 1 22z" />
    <glyph glyph-name="dotbelowcmb" unicode="&#x323;" horiz-adv-x="0" 
d="M-346 -133q0 26 17.5 44.5t43.5 18.5t43.5 -18.5t17.5 -44.5t-17.5 -44.5t-43.5 -18.5t-43.5 18.5t-17.5 44.5z" />
    <glyph glyph-name="tonos" unicode="&#x384;" horiz-adv-x="229" 
d="M80 582q-7 -7 -15 -1l-12 7q-8 5 -2 14q18 32 28.5 83.5t4.5 88.5q-2 15 14 15h69q14 0 11 -16q-10 -50 -38 -105.5t-60 -85.5z" />
    <glyph glyph-name="dieresistonos" unicode="&#x385;" horiz-adv-x="463" 
d="M47 660q0 25 16.5 42.5t41.5 17.5q24 0 41 -17.5t17 -42.5t-17 -42.5t-41 -17.5q-25 0 -41.5 17.5t-16.5 42.5zM306 660q0 25 16.5 42.5t41.5 17.5q24 0 41 -17.5t17 -42.5t-17 -42.5t-41 -17.5q-25 0 -41.5 17.5t-16.5 42.5zM210 582q-7 -7 -15 -1l-12 8q-8 5 -2 14
q18 35 28.5 84.5t4.5 86.5q-2 15 14 15h69q14 0 11 -16q-10 -50 -38 -105.5t-60 -85.5z" />
    <glyph glyph-name="Alphatonos" unicode="&#x386;" 
d="M48 495q-6 -6 -14 -1l-6 4q-6 5 -1 13q18 31 27.5 83.5t3.5 90.5q-2 15 14 15h69q14 0 11 -13q-10 -46 -41 -103t-63 -89zM380 704l225 -578q16 -42 35 -61.5t51 -19.5h6q14 0 14 -18v-10q0 -17 -16 -17h-265q-16 0 -16 16v10q0 19 19 19h7q25 0 39.5 6.5t18 20t1.5 28
t-10 36.5l-42 110h-239l-37 -103q-35 -98 47 -98h6q22 0 22 -19v-9q0 -17 -17 -17h-207q-22 0 -22 17v8q0 20 20 20h3q57 0 93 98l182 481l-4 11q-8 20 6 28q24 14 51 44q7 7 16 7q10 0 13 -10zM324 566l-99 -275h204z" />
    <glyph glyph-name="Epsilontonos" unicode="&#x388;" horiz-adv-x="730" 
d="M-95 495q-6 -6 -14 -1l-6 4q-6 5 -1 13q18 31 27.5 83.5t3.5 90.5q-1 15 14 15h69q14 0 11 -13q-10 -46 -41 -103t-63 -89zM384 655h-88q-14 0 -18 -4.5t-4 -17.5v-247h130q33 0 48.5 24t15.5 61v7q0 19 19 19h11q17 0 17 -23v-209q0 -11 -3.5 -15t-13.5 -4h-10
q-19 0 -19 20v8q0 67 -66 67h-129v-238q0 -30 10 -44t40 -14h98q73 0 114 21.5t72 71.5l26 42q10 17 26 12l10 -3q13 -4 9 -23l-29 -136q-4 -18 -12.5 -24t-26.5 -6h-535q-21 0 -21 18v11q0 9 4.5 12.5t18.5 3.5h10q43 0 59.5 15t16.5 50v480q0 36 -17 50.5t-65 14.5h-6
q-21 0 -21 18v11q0 9 4.5 12.5t18.5 3.5h509q20 0 27.5 -5t9.5 -24l16 -122q2 -14 -10 -17l-8 -2q-14 -4 -25 14l-20 32q-29 46 -67.5 62.5t-125.5 16.5z" />
    <glyph glyph-name="Etatonos" unicode="&#x389;" horiz-adv-x="944" 
d="M-96 495q-6 -6 -14 -1l-6 4q-6 5 -1 13q18 31 27.5 83.5t3.5 90.5q-2 15 14 15h69q14 0 11 -13q-10 -46 -41 -103t-63 -89zM164 110v480q0 36 -17 50.5t-65 14.5h-6q-21 0 -21 18v11q0 9 4.5 12.5t18.5 3.5h284q21 0 21 -18v-11q0 -9 -4.5 -12.5t-18.5 -3.5h-7
q-45 0 -62 -14.5t-17 -50.5v-204h396v204q0 36 -17 50.5t-65 14.5h-6q-21 0 -21 18v11q0 9 4.5 12.5t18.5 3.5h284q21 0 21 -18v-11q0 -9 -4.5 -12.5t-18.5 -3.5h-7q-45 0 -62 -14.5t-17 -50.5v-480q0 -36 16.5 -50.5t62.5 -14.5h9q21 0 21 -18v-11q0 -9 -4.5 -12.5
t-18.5 -3.5h-284q-21 0 -21 18v11q0 16 23 16h10q44 0 60 14.5t16 50.5v231h-396v-231q0 -36 16.5 -50.5t62.5 -14.5h9q21 0 21 -18v-11q0 -9 -4.5 -12.5t-18.5 -3.5h-284q-21 0 -21 18v11q0 16 23 16h10q44 0 60 14.5t16 50.5z" />
    <glyph glyph-name="Iotatonos" unicode="&#x38a;" horiz-adv-x="438" 
d="M-96 495q-6 -6 -14 -1l-6 4q-6 5 -1 13q18 31 27.5 83.5t3.5 90.5q-2 15 14 15h69q14 0 11 -13q-10 -46 -41 -103t-63 -89zM164 110v480q0 36 -17 50.5t-65 14.5h-6q-21 0 -21 18v11q0 9 4.5 12.5t18.5 3.5h284q21 0 21 -18v-11q0 -9 -4.5 -12.5t-18.5 -3.5h-7
q-45 0 -62 -14.5t-17 -50.5v-480q0 -36 16.5 -50.5t62.5 -14.5h9q21 0 21 -18v-11q0 -9 -4.5 -12.5t-18.5 -3.5h-284q-21 0 -21 18v11q0 16 23 16h10q44 0 60 14.5t16 50.5z" />
    <glyph glyph-name="Omicrontonos" unicode="&#x38c;" horiz-adv-x="852" 
d="M-42 495q-6 -6 -14 -1l-6 4q-6 5 -1 13q18 31 27.5 83.5t3.5 90.5q-2 15 14 15h69q14 0 11 -13q-10 -46 -41 -103t-63 -89zM663 340q0 143 -70 237.5t-180 94.5q-103 0 -163.5 -83t-60.5 -229q0 -90 28.5 -165t85.5 -121t133 -46q110 0 168.5 84t58.5 228zM790 350
q0 -165 -106.5 -264.5t-257.5 -99.5q-69 0 -133.5 24t-116.5 68.5t-83 115t-31 156.5q0 116 53 200.5t134 124t177 39.5q67 0 130 -22.5t116 -65.5t85.5 -115t32.5 -161z" />
    <glyph glyph-name="Upsilontonos" unicode="&#x38e;" horiz-adv-x="710" 
d="M-141 495q-6 -6 -14 -1l-6 4q-6 5 -1 13q18 31 27.5 83.5t3.5 90.5q-1 15 14 15h69q14 0 11 -13q-10 -46 -41 -103t-63 -89zM303 279l-179 311q-22 38 -39 51.5t-51 13.5q-19 0 -19 17v11q0 17 18 17h259q16 0 16 -15v-10q0 -10 -4 -14t-15 -4h-7q-31 0 -39.5 -18.5
t5.5 -41.5l143 -257l132 229q14 23 17 43t-7.5 32.5t-33.5 12.5h-10q-11 0 -14.5 4t-3.5 13v9q0 17 19 17h196q15 0 19.5 -4t4.5 -15v-6q0 -19 -18 -19q-36 0 -58.5 -21t-55.5 -76l-165 -270v-179q0 -36 16.5 -50.5t62.5 -14.5h9q21 0 21 -18v-11q0 -9 -4.5 -12.5
t-18.5 -3.5h-284q-21 0 -21 18v11q0 16 23 16h10q44 0 60 14.5t16 50.5v169z" />
    <glyph glyph-name="Omegatonos" unicode="&#x38f;" horiz-adv-x="871" 
d="M757 0h-229q-18 0 -18 17v31q0 22 17 39q124 124 124 314q0 123 -57 196t-156 73q-96 0 -156 -70t-60 -185q0 -92 38.5 -181.5t102.5 -147.5q17 -16 17 -31v-39q0 -10 -4 -13t-16 -3h-249q-20 0 -26.5 6.5t-10.5 27.5l-23 122q-3 18 11 21l12 3q13 3 17 -9l8 -22
q14 -35 34.5 -50.5t61.5 -15.5h118q-95 51 -152.5 131.5t-57.5 182.5q0 153 97.5 235.5t251.5 82.5q141 0 230 -80t89 -225q0 -97 -55 -181.5t-147 -145.5h106q68 0 96 65l10 24q5 12 18 9l11 -2q14 -4 10 -19l-25 -126q-4 -21 -11 -27.5t-27 -6.5zM6 495q-6 -6 -14 -1l-6 4
q-6 5 -1 13q18 31 27.5 83.5t3.5 90.5q-2 15 14 15h69q14 0 11 -13q-10 -46 -41 -103t-63 -89z" />
    <glyph glyph-name="iotadieresistonos" unicode="&#x390;" horiz-adv-x="345" 
d="M187 489v-293q0 -77 19.5 -106t62.5 -29q23 0 48 9q12 5 17 -8l4 -9q4 -10 -4 -17q-58 -41 -120 -41q-63 0 -91 34t-28 109v351q0 16 4 21.5t18 5.5h49q13 0 17 -6t4 -21zM-31 660q0 25 16.5 42.5t41.5 17.5q24 0 41 -17.5t17 -42.5t-17 -42.5t-41 -17.5
q-25 0 -41.5 17.5t-16.5 42.5zM228 660q0 25 16.5 42.5t41.5 17.5q24 0 41 -17.5t17 -42.5t-17 -42.5t-41 -17.5q-25 0 -41.5 17.5t-16.5 42.5zM132 582q-7 -7 -15 -1l-12 8q-8 5 -2 14q18 35 28.5 84.5t4.5 86.5q-2 15 14 15h69q14 0 11 -16q-10 -50 -38 -105.5t-60 -85.5z
" />
    <glyph glyph-name="Alpha" unicode="&#x391;" 
d="M380 704l225 -578q16 -42 35 -61.5t51 -19.5h6q14 0 14 -18v-10q0 -17 -16 -17h-265q-16 0 -16 16v10q0 19 19 19h7q25 0 39.5 6.5t18 20t1.5 28t-10 36.5l-42 110h-239l-37 -103q-35 -98 47 -98h6q22 0 22 -19v-9q0 -17 -17 -17h-207q-22 0 -22 17v8q0 20 20 20h3
q57 0 93 98l182 481l-4 11q-8 20 6 28q24 14 51 44q7 7 16 7q10 0 13 -10zM324 566l-99 -275h204z" />
    </font>
</defs>
</svg>
