<svg xmlns="http://www.w3.org/2000/svg" width="36" height="36" viewBox="0 0 36 36">
  <path fill="#231F20" fill-rule="evenodd" d="M80.623,57.4710646 L78.8622279,57.4710646 L78.8622279,67.1040042 C76.2266484,60.9248807 70.2852802,56.595 63.1208786,56.595 C54.709401,56.595 47.6659984,62.5613537 45.9980971,70.4839637 C45.752799,71.6490118 45.623,72.8560168 45.623,74.0928786 C45.623,75.3297404 45.752799,76.5367453 45.9980971,77.7017935 C47.6659984,85.6245606 54.709401,91.5906 63.1208786,91.5906 C71.5321991,91.5906 78.5756016,85.6245606 80.2435029,77.7017935 L78.4487883,77.7017935 C76.8129438,84.6505967 70.5616923,89.838785 63.1208786,89.838785 C55.6799077,89.838785 49.4286562,84.6505967 47.7929689,77.7017935 C47.5200139,76.5424024 47.3749721,75.3342975 47.3749721,74.0928786 C47.3749721,72.8514596 47.5200139,71.6433547 47.7929689,70.4839637 C49.4286562,63.5353176 55.6799077,58.3471293 63.1208786,58.3471293 C69.9152116,58.3471293 75.4538258,62.6740243 77.6105948,68.7162774 L67.6171723,68.7162774 L67.6171723,70.4770495 L78.1326193,70.4770495 C78.1332479,70.4794066 78.1338764,70.4816066 78.134505,70.4839637 L79.9292197,70.4839637 C79.9287482,70.4816066 79.9281197,70.4794066 79.9274911,70.4770495 L80.623,70.4770495 L80.623,57.4710646 Z" transform="translate(-45 -56)"/>
</svg>
