<?xml version="1.0" standalone="no"?>
<!DOCTYPE svg PUBLIC "-//W3C//DTD SVG 1.1//EN" "http://www.w3.org/Graphics/SVG/1.1/DTD/svg11.dtd" >
<svg xmlns="http://www.w3.org/2000/svg" xmlns:xlink="http://www.w3.org/1999/xlink" version="1.1">
<metadata>
Created by FontForge 20170731 at Wed Nov 27 13:21:59 2019
 By Aleksey,,,
Copyright (c) 2015 Monotype Imaging Inc.  All rights reserved.
</metadata>
<defs>
<font id="NeueHaasUnica-Medium" horiz-adv-x="588" >
  <font-face 
    font-family="Neue Haas Unica Med"
    font-weight="500"
    font-stretch="normal"
    units-per-em="1000"
    panose-1="2 11 6 4 3 2 6 2 2 3"
    ascent="800"
    descent="-200"
    x-height="508"
    cap-height="712"
    bbox="-500 -275 1136 1104"
    underline-thickness="50"
    underline-position="-225"
    unicode-range="U+0020-FEFF"
  />
<missing-glyph horiz-adv-x="633" 
d="M579 -29q-36 -36 -97 -36h-331q-61 0 -97 36t-36 97v576q0 62 36 97.5t97 35.5h331q61 0 96.5 -36t35.5 -97v-576q0 -60 -35 -97zM482 -9q35 0 56 21q20 22 20 56v576q0 35 -20.5 56t-55.5 21h-331q-35 0 -55.5 -21t-20.5 -56v-576q0 -35 20.5 -56t55.5 -21h331zM415 357
q-24 -22 -41 -44q-25 -33 -25 -102h-87q-1 7 -1 29q0 55 14 88q12 28 58 74q31 30 43 50q9 18 9 44q0 30 -18 47t-51 17q-76 0 -79 -89h-104q2 86 49 131t134 45q81 0 128 -40.5t47 -108.5q0 -42 -15 -71q-16 -31 -61 -70zM250 167h111v-102h-111v102z" />
    <glyph glyph-name="f_f.liga" unicode="ff" horiz-adv-x="615" 
d="M603 628q-11 4 -27 4q-37 0 -55 -19.5t-18 -63.5v-41h98v-87h-98v-421h-113v421h-179v-421h-113v421h-86v87h86v54q0 157 154 157q28 0 60 -7v-84q-12 4 -28 4q-37 0 -55 -19.5t-18 -63.5v-41h179v54q0 157 154 157q28 0 59 -7v-84z" />
    <glyph glyph-name="f_f_i.liga" unicode="ffi" horiz-adv-x="875" 
d="M98 508v54q0 157 154 157q28 0 60 -7v-84q-12 4 -28 4q-37 0 -55 -19.5t-18 -63.5v-41h179v54q0 157 154 157q28 0 59 -7v-84q-11 4 -27 4q-37 0 -55 -19.5t-18 -63.5v-41h98v-87h-98v-421h-113v421h-179v-421h-113v421h-86v87h86zM688 508h114v-508h-114v508zM802 712
v-109h-114v109h114z" />
    <glyph glyph-name="f_f_l.liga" unicode="ffl" horiz-adv-x="875" 
d="M603 628q-11 4 -27 4q-37 0 -55 -19.5t-18 -63.5v-41h98v-87h-98v-421h-113v421h-179v-421h-113v421h-86v87h86v54q0 157 154 157q28 0 60 -7v-84q-12 4 -28 4q-37 0 -55 -19.5t-18 -63.5v-41h179v54q0 157 154 157q28 0 59 -7v-84zM802 712v-712h-114v712h114z" />
    <glyph glyph-name="f_i.liga" unicode="fi" horiz-adv-x="583" 
d="M12 508h86v54q0 157 154 157q28 0 60 -7v-84q-12 4 -28 4q-37 0 -55 -19.5t-18 -63.5v-41h98v-87h-98v-421h-113v421h-86v87zM396 0v508h114v-508h-114zM510 712v-109h-114v109h114z" />
    <glyph glyph-name="f_l.liga" unicode="fl" horiz-adv-x="583" 
d="M98 508v54q0 157 154 157q28 0 60 -7v-84q-12 4 -28 4q-37 0 -55 -19.5t-18 -63.5v-41h98v-87h-98v-421h-113v421h-86v87h86zM510 0h-114v712h114v-712z" />
    <glyph glyph-name=".notdef" horiz-adv-x="633" 
d="M579 -29q-36 -36 -97 -36h-331q-61 0 -97 36t-36 97v576q0 62 36 97.5t97 35.5h331q61 0 96.5 -36t35.5 -97v-576q0 -60 -35 -97zM482 -9q35 0 56 21q20 22 20 56v576q0 35 -20.5 56t-55.5 21h-331q-35 0 -55.5 -21t-20.5 -56v-576q0 -35 20.5 -56t55.5 -21h331zM415 357
q-24 -22 -41 -44q-25 -33 -25 -102h-87q-1 7 -1 29q0 55 14 88q12 28 58 74q31 30 43 50q9 18 9 44q0 30 -18 47t-51 17q-76 0 -79 -89h-104q2 86 49 131t134 45q81 0 128 -40.5t47 -108.5q0 -42 -15 -71q-16 -31 -61 -70zM250 167h111v-102h-111v102z" />
    <glyph glyph-name=".null" horiz-adv-x="0" 
 />
    <glyph glyph-name="nonmarkingreturn" horiz-adv-x="333" 
 />
    <glyph glyph-name="NULL" horiz-adv-x="0" 
 />
    <glyph glyph-name="NULL" horiz-adv-x="0" 
 />
    <glyph glyph-name="space" unicode=" " horiz-adv-x="230" 
 />
    <glyph glyph-name="exclam" unicode="!" horiz-adv-x="300" 
d="M105 187l-26 525h141l-26 -525h-89zM214 0h-129v119h129v-119z" />
    <glyph glyph-name="quotedbl" unicode="&#x22;" horiz-adv-x="404" 
d="M231 712h109l-13 -268h-83zM173 712l-13 -268h-83l-13 268h109z" />
    <glyph glyph-name="numbersign" unicode="#" horiz-adv-x="660" 
d="M625 494l-13 -83h-108l-23 -146h108l-13 -83h-108l-29 -182h-98l29 182h-128l-29 -182h-98l29 182h-109l13 83h109l23 146h-109l13 83h109l29 180h98l-29 -180h128l29 180h98l-29 -180h108zM255 265h128l23 146h-128z" />
    <glyph glyph-name="dollar" unicode="$" horiz-adv-x="581" 
d="M524 466h-110q0 112 -88 131v-205q77 -21 118 -41t69 -58q29 -41 29 -109q0 -83 -58 -136t-158 -61v-86h-72v85q-105 9 -160 69t-55 165h111q0 -123 104 -143v224q-70 20 -109.5 40.5t-66.5 56.5q-29 38 -29 99q0 81 55 132t150 59v76h72v-77q198 -18 198 -221zM326 280
v-204q103 14 103 103q0 40 -23.5 61.5t-79.5 39.5zM163 506q0 -38 21 -59t70 -36v188q-91 -12 -91 -93z" />
    <glyph glyph-name="percent" unicode="%" horiz-adv-x="886" 
d="M682 373q76 0 117.5 -50.5t41.5 -143.5t-41.5 -143.5t-117.5 -50.5t-117.5 50.5t-41.5 143.5t41.5 143.5t117.5 50.5zM45 495q0 93 42 144q41 50 117 50t117.5 -50.5t41.5 -143.5t-41.5 -143.5t-117.5 -50.5t-117.5 50.5t-41.5 143.5zM217 -30l377 734h75l-377 -734h-75z
M749 179q0 123 -67 123q-66 0 -66 -123t66 -123q67 0 67 123zM138 495q0 -123 66 -123t66 123t-66 123t-66 -123z" />
    <glyph glyph-name="ampersand" unicode="&#x26;" horiz-adv-x="743" 
d="M559 400h114q-1 -150 -74 -253l144 -147h-156l-67 68q-81 -83 -218 -83q-118 0 -186 56q-67 55 -67 150q0 139 152 208q-43 47 -60 81q-17 36 -17 82q0 74 52 120q52 45 138 45q85 0 136 -43.5t51 -116.5q0 -60 -30.5 -105t-99.5 -84l150 -153q38 71 38 175zM170 198
q0 -50 39 -82q38 -32 103 -32q78 0 140 53l-188 191q-94 -50 -94 -130zM236 556q0 -27 14 -52t54 -65q88 54 88 119q0 33 -21.5 53.5t-56.5 20.5q-36 0 -57 -20t-21 -56z" />
    <glyph glyph-name="quotesingle" unicode="'" horiz-adv-x="237" 
d="M64 712h109l-13 -268h-83z" />
    <glyph glyph-name="parenleft" unicode="(" horiz-adv-x="310" 
d="M46 297q0 130 34 235q32 103 104 209h96q-111 -215 -111 -444t111 -444h-96q-72 105 -105 211t-33 233z" />
    <glyph glyph-name="parenright" unicode=")" horiz-adv-x="310" 
d="M126 -147h-96q58 111 85 217q26 107 26 227t-26 227q-24 100 -85 217h96q72 -103 105 -209.5t33 -234.5q0 -127 -33 -233t-105 -211z" />
    <glyph glyph-name="asterisk" unicode="*" horiz-adv-x="417" 
d="M161 522l-132 25l27 86l124 -56l-16 135h89l-16 -135l124 56l27 -86l-133 -25l91 -98l-72 -53l-66 118l-66 -118l-72 53z" />
    <glyph glyph-name="plus" unicode="+" horiz-adv-x="566" 
d="M238 271h-171v91h171v171h90v-171h171v-91h-171v-170h-90v170z" />
    <glyph glyph-name="comma" unicode="," horiz-adv-x="242" 
d="M124 -158h-71l46 158h-44v142h132v-142z" />
    <glyph glyph-name="hyphen" unicode="-" horiz-adv-x="310" 
d="M30 245v94h250v-94h-250z" />
    <glyph glyph-name="period" unicode="." horiz-adv-x="242" 
d="M55 0v142h132v-142h-132z" />
    <glyph glyph-name="slash" unicode="/" horiz-adv-x="473" 
d="M124 -89h-94l298 834h94z" />
    <glyph glyph-name="zero" unicode="0" horiz-adv-x="581" 
d="M101 598q66 91 190 91t190 -91t66 -261t-66 -261t-190 -91t-190 91q-67 91 -67 261t67 261zM157 337q0 -122 34.5 -187.5t99.5 -65.5q64 0 98.5 65.5t34.5 187.5t-34.5 186.5t-98.5 64.5q-65 0 -99.5 -64.5t-34.5 -186.5z" />
    <glyph glyph-name="one" unicode="1" horiz-adv-x="581" 
d="M100 560q82 0 121.5 26.5t48.5 87.5h105v-674h-118v474h-157v86z" />
    <glyph glyph-name="two" unicode="2" horiz-adv-x="581" 
d="M532 98v-98h-486q-1 5 -1 21q2 107 40.5 169t155.5 132q89 53 119 84.5t33 87.5q0 43 -27.5 69t-75.5 26q-112 0 -117 -119h-119q3 105 65 162t171 57q102 0 164 -52t62 -138q0 -106 -80 -170q-38 -31 -98 -65q-94 -56 -124 -89t-32 -77h350z" />
    <glyph glyph-name="three" unicode="3" horiz-adv-x="581" 
d="M530 179q0 -87 -66 -140.5t-174 -53.5q-118 0 -182.5 59t-64.5 168h120q0 -128 127 -128q54 0 87 27.5t33 72.5q0 106 -148 106h-24v97h24q64 0 101.5 28.5t37.5 75.5q0 44 -32 71.5t-84 27.5q-116 0 -116 -122h-119q0 104 63.5 162.5t175.5 58.5q107 0 168 -51
q62 -51 62 -136q0 -112 -117 -154v-2q66 -22 97 -62t31 -105z" />
    <glyph glyph-name="four" unicode="4" horiz-adv-x="581" 
d="M298 674h158v-417h103v-95h-103v-162h-118v162h-321v102zM128 257h213v87q0 90 5 237h-2q-56 -89 -145 -222z" />
    <glyph glyph-name="five" unicode="5" horiz-adv-x="581" 
d="M503 340q27 -51 27 -117q0 -108 -68.5 -173t-179.5 -65q-105 0 -167 53q-63 52 -63 144h119q1 -45 32 -71.5t79 -26.5q59 0 92 35t33 99q0 63 -32 97.5t-89 34.5q-91 0 -112 -83l-117 8l38 399h402v-98h-307l-18 -183h2q48 53 134 53q136 0 195 -106z" />
    <glyph glyph-name="six" unicode="6" horiz-adv-x="581" 
d="M511 334q27 -50 27 -115q0 -104 -67.5 -169t-174.5 -65q-121 0 -185 83.5t-64 245.5q0 180 69.5 277.5t195.5 97.5q95 0 152 -51.5t64 -142.5h-120q-14 95 -101 95q-67 0 -106 -57.5t-42 -170.5h2q61 78 160 78q64 0 113.5 -28t76.5 -78zM179 214q0 -60 32 -95t85 -35
q54 0 86.5 35.5t32.5 96.5q0 59 -32 95t-85 36q-54 0 -86.5 -36.5t-32.5 -96.5z" />
    <glyph glyph-name="seven" unicode="7" horiz-adv-x="581" 
d="M411 573h-368v101h485v-103q-168 -241 -228 -571h-130q38 177 104 329q63 146 137 244z" />
    <glyph glyph-name="eight" unicode="8" horiz-adv-x="581" 
d="M411 666q53 -23 83 -65q29 -43 29 -97q0 -55 -31.5 -95t-88.5 -58v-2q63 -18 98.5 -61.5t35.5 -105.5q0 -90 -67.5 -143.5t-178.5 -53.5q-112 0 -179.5 53.5t-67.5 143.5q0 62 35.5 105.5t98.5 61.5v2q-57 18 -88.5 58t-31.5 95q0 83 65 134t168 51q66 0 120 -23z
M199 270q-35 -30 -35 -78q0 -49 34 -78t93 -29q58 0 92.5 29t34.5 78q0 47 -35 77t-92 30t-92 -29zM173 496q0 -47 31.5 -74t86.5 -27q54 0 85.5 27t31.5 74q0 43 -32 69t-85 26t-85.5 -26t-32.5 -69z" />
    <glyph glyph-name="nine" unicode="9" horiz-adv-x="581" 
d="M456 606q64 -82 64 -246q0 -180 -69 -277.5t-196 -97.5q-94 0 -151.5 51.5t-64.5 142.5h120q14 -95 102 -95q67 0 106 57.5t42 170.5h-2q-61 -78 -160 -78q-97 0 -157 61.5t-60 159.5q0 104 67.5 169t174.5 65q119 0 184 -83zM153 458q0 -60 32 -95q32 -36 85 -36t86 37
t33 96t-31.5 94.5t-85.5 35.5q-55 0 -87 -35.5t-32 -96.5z" />
    <glyph glyph-name="colon" unicode=":" horiz-adv-x="242" 
d="M55 366v142h132v-142h-132zM55 0v142h132v-142h-132z" />
    <glyph glyph-name="semicolon" unicode=";" horiz-adv-x="242" 
d="M53 -158l46 158h-44v142h132v-142l-63 -158h-71zM187 508v-142h-132v142h132z" />
    <glyph glyph-name="less" unicode="&#x3c;" horiz-adv-x="566" 
d="M67 264v106l432 180v-100l-326 -132v-2l326 -132v-100z" />
    <glyph glyph-name="equal" unicode="=" horiz-adv-x="566" 
d="M67 451h432v-91h-432v91zM67 182v91h432v-91h-432z" />
    <glyph glyph-name="greater" unicode="&#x3e;" horiz-adv-x="566" 
d="M499 264l-432 -180v100l326 132v2l-326 132v100l432 -180v-106z" />
    <glyph glyph-name="question" unicode="?" horiz-adv-x="532" 
d="M494 543q0 -35 -8 -62q-16 -48 -96 -115q-59 -52 -73 -82t-15 -108h-99q-1 7 -1 31q1 79 18.5 115.5t80.5 94.5q47 42 60 66q13 22 13 57q0 39 -28.5 62.5t-76.5 23.5q-113 0 -119 -115h-118q4 105 65 160t172 55q103 0 164 -49t61 -134zM187 0v119h129v-119h-129z" />
    <glyph glyph-name="at" unicode="@" horiz-adv-x="870" 
d="M552 94q-30 21 -39 64h-2q-42 -86 -134 -86q-70 0 -109 51t-40 144q0 111 53.5 181t137.5 70q81 0 111 -73h2q9 51 12 63h93q-18 -92 -29 -167q-12 -83 -12 -123q0 -67 50 -67q47 0 76 46.5t29 130.5q0 134 -83 215t-222 81q-150 2 -239 -97.5t-88 -249.5
q0 -145 84.5 -229.5t227.5 -84.5q132 0 219 54l34 -66q-108 -63 -253 -63q-179 0 -283.5 104t-104.5 285q-2 178 110.5 301t292.5 121q170 2 276.5 -101.5t104.5 -269.5q0 -122 -56 -189t-141 -67q-49 0 -78 22zM329 270q0 -54 20 -82t56 -28q46 0 74.5 45t28.5 127
q0 47 -19 73t-54 26q-47 0 -76.5 -44t-29.5 -117z" />
    <glyph glyph-name="A" unicode="A" horiz-adv-x="687" 
d="M130 0h-126l259 712h161l259 -712h-126l-66 193h-295zM232 297h223l-19 56q-66 196 -92 283h-2q-47 -155 -91 -283z" />
    <glyph glyph-name="B" unicode="B" horiz-adv-x="638" 
d="M598 195q0 -89 -65 -142t-180 -53h-265v712h245q122 0 185.5 -48t63.5 -134q0 -121 -121 -166v-2q137 -32 137 -167zM327 314h-119v-214h127q73 0 107 26t34 80q0 55 -36 81.5t-113 26.5zM332 613h-124v-203h118q140 0 140 102q0 51 -32.5 76t-101.5 25z" />
    <glyph glyph-name="C" unicode="C" horiz-adv-x="695" 
d="M609 603q35 -59 39 -135h-121q-8 71 -52.5 111.5t-115.5 40.5q-91 0 -143 -70.5t-52 -193.5t52 -193q51 -71 140 -71q71 0 116.5 41t55.5 114h123q-10 -123 -89 -192q-77 -70 -206 -70q-146 0 -231 100t-85 271t85.5 271t233.5 100q84 0 149 -32.5t101 -91.5z" />
    <glyph glyph-name="D" unicode="D" horiz-adv-x="729" 
d="M316 0h-228v712h228q179 0 276 -92.5t97 -263.5t-97 -263.5t-276 -92.5zM207 104h107q251 0 251 252t-251 252h-107v-504z" />
    <glyph glyph-name="E" unicode="E" horiz-adv-x="625" 
d="M574 0h-486v712h476v-104h-356v-193h334v-103h-334v-208h366v-104z" />
    <glyph glyph-name="F" unicode="F" horiz-adv-x="579" 
d="M88 0v712h461v-104h-341v-219h317v-103h-317v-286h-120z" />
    <glyph glyph-name="G" unicode="G" horiz-adv-x="737" 
d="M658 385v-385h-103v88h-2q-29 -47 -86 -74t-129 -27q-137 0 -217.5 98t-80.5 268q0 173 89 273.5t241 100.5q126 0 203 -63q76 -63 87 -170h-128q-11 61 -52.5 93.5t-109.5 32.5q-94 0 -150 -71q-56 -73 -56 -196q0 -125 54 -197t147 -72q86 0 133 50.5t48 150.5h-182
v100h294z" />
    <glyph glyph-name="H" unicode="H" horiz-adv-x="744" 
d="M88 0v712h120v-290h328v290h119v-712h-119v318h-328v-318h-120z" />
    <glyph glyph-name="I" unicode="I" horiz-adv-x="296" 
d="M88 0v712h120v-712h-120z" />
    <glyph glyph-name="J" unicode="J" horiz-adv-x="374" 
d="M15 104q19 -4 45 -4q59 0 85 30.5t26 106.5v475h120v-496q0 -113 -53.5 -167.5t-165.5 -54.5q-33 0 -57 7v103z" />
    <glyph glyph-name="K" unicode="K" horiz-adv-x="644" 
d="M88 712h120v-317h2l260 317h144l-291 -339l317 -373h-155l-275 343h-2v-343h-120v712z" />
    <glyph glyph-name="L" unicode="L" horiz-adv-x="568" 
d="M88 712h120v-608h350v-104h-470v712z" />
    <glyph glyph-name="M" unicode="M" horiz-adv-x="959" 
d="M871 712v-712h-116v358q0 163 4 270h-2q-30 -101 -86 -268l-123 -360h-137l-123 360q-56 167 -86 268h-2q4 -107 4 -270v-358h-116v712h193l115 -339q50 -146 82 -268h2q36 128 83 268l115 339h193z" />
    <glyph glyph-name="N" unicode="N" horiz-adv-x="766" 
d="M88 0v712h173l153 -298q74 -145 151 -306h2q-5 200 -5 324v280h115v-712h-172l-154 298q-74 145 -151 306h-2q6 -162 6 -324v-280h-116z" />
    <glyph glyph-name="O" unicode="O" horiz-adv-x="740" 
d="M700 356q0 -171 -89 -271t-241 -100t-241 100t-89 271t89 271t241 100t241 -100t89 -271zM164 356q0 -122 56 -193t150 -71q95 0 151 71q55 70 55 193t-55 193q-56 71 -151 71q-94 0 -150 -71t-56 -193z" />
    <glyph glyph-name="P" unicode="P" horiz-adv-x="626" 
d="M208 0h-120v712h257q122 0 188.5 -59.5t66.5 -162.5q0 -104 -66.5 -163.5t-188.5 -59.5h-137v-267zM208 611v-243h123q146 0 146 122q0 121 -146 121h-123z" />
    <glyph glyph-name="Q" unicode="Q" horiz-adv-x="740" 
d="M700 356q0 -86 -22 -152q-22 -68 -65 -117l80 -89l-67 -63l-84 92q-75 -42 -171 -42q-153 0 -242 100t-89 271t89 271t242 100q152 0 240.5 -100t88.5 -271zM164 353q0 -123 56 -194q56 -72 153 -72q53 0 94 22l-97 107l69 64l96 -107q45 71 45 180q0 124 -55 195
q-55 72 -152 72t-153 -72q-56 -73 -56 -195z" />
    <glyph glyph-name="R" unicode="R" horiz-adv-x="653" 
d="M561 201l73 -201h-131l-60 179q-21 62 -49 84q-29 23 -83 23h-103v-286h-120v712h245q254 0 254 -197q0 -67 -35.5 -114t-96.5 -62v-2q39 -14 60 -41q22 -28 46 -95zM208 613v-229h119q139 0 139 116q0 113 -146 113h-112z" />
    <glyph glyph-name="S" unicode="S" horiz-adv-x="620" 
d="M546 316q31 -41 31 -113q0 -98 -73.5 -158t-192.5 -60q-132 0 -204.5 65t-72.5 185h123q0 -75 40 -113t115 -38q66 0 103.5 29t37.5 79q0 62 -65 87q-28 10 -96 28q-85 21 -134 42q-50 21 -81 63q-32 41 -32 111q0 91 69 147.5t181 56.5q129 0 195.5 -59.5t66.5 -174.5
h-121q0 66 -37 101t-106 35q-58 0 -91.5 -25.5t-33.5 -69.5q3 -47 34.5 -68t128.5 -45q78 -19 133 -41q52 -23 82 -64z" />
    <glyph glyph-name="T" unicode="T" horiz-adv-x="607" 
d="M10 712h587v-104h-234v-608h-119v608h-234v104z" />
    <glyph glyph-name="U" unicode="U" horiz-adv-x="712" 
d="M82 712h120v-439q0 -89 39.5 -135t114.5 -46t114.5 46t39.5 135v439h119v-443q0 -138 -70.5 -211t-202.5 -73t-203 73t-71 211v443z" />
    <glyph glyph-name="V" unicode="V" horiz-adv-x="631" 
d="M6 712h123l97 -297q37 -108 89 -298h2q39 150 88 298l97 297h123l-233 -712h-152z" />
    <glyph glyph-name="W" unicode="W" horiz-adv-x="936" 
d="M808 712h118l-157 -712h-161l-71 296q-36 148 -68 313h-2q-32 -165 -68 -313l-71 -296h-161l-157 712h118l58 -274q39 -180 63 -321h2q40 186 72 322l66 273h158l66 -273q32 -136 72 -322h2q18 105 62 321z" />
    <glyph glyph-name="X" unicode="X" horiz-adv-x="626" 
d="M5 0l235 364l-223 348h139l156 -261h2l156 261h138l-222 -348l234 -364h-140l-166 272h-2l-166 -272h-141z" />
    <glyph glyph-name="Y" unicode="Y" horiz-adv-x="626" 
d="M3 712h136l78 -141q55 -100 95 -184h2q47 97 96 184l77 141h135l-249 -426v-286h-120v286z" />
    <glyph glyph-name="Z" unicode="Z" horiz-adv-x="574" 
d="M555 0h-536v109l376 499v2h-362v102h504v-109l-376 -499v-2h394v-102z" />
    <glyph glyph-name="bracketleft" unicode="[" horiz-adv-x="313" 
d="M73 741h223v-70h-115v-750h115v-70h-223v890z" />
    <glyph glyph-name="backslash" unicode="\" horiz-adv-x="473" 
d="M349 -89l-298 834h94l298 -834h-94z" />
    <glyph glyph-name="bracketright" unicode="]" horiz-adv-x="313" 
d="M17 741h223v-890h-223v70h115v750h-115v70z" />
    <glyph glyph-name="asciicircum" unicode="^" horiz-adv-x="473" 
d="M10 371l166 341h121l166 -341h-106l-120 251h-2l-120 -251h-105z" />
    <glyph glyph-name="underscore" unicode="_" horiz-adv-x="500" 
d="M0 -113v63h500v-63h-500z" />
    <glyph glyph-name="grave" unicode="`" horiz-adv-x="325" 
d="M50 712h143l82 -144h-93z" />
    <glyph glyph-name="a" unicode="a" horiz-adv-x="539" 
d="M472 324v-190q0 -83 13 -134h-103q-7 29 -7 71h-2q-55 -82 -171 -82q-79 0 -125 43q-47 42 -47 108t45.5 104.5t149.5 55.5q65 11 137 15v20q0 105 -99 105q-45 0 -71.5 -23.5t-28.5 -65.5h-112q4 78 59.5 125t152.5 47q102 0 155.5 -50t53.5 -149zM168 201
q-23 -18 -23 -53q0 -34 24 -54q23 -21 66 -21q58 0 92 34q20 21 27.5 44.5t7.5 64.5v25q-69 -5 -117 -13q-54 -9 -77 -27z" />
    <glyph glyph-name="b" unicode="b" horiz-adv-x="587" 
d="M523 395q26 -63 26 -141q0 -121 -57.5 -193.5t-154.5 -72.5q-49 0 -89 21.5t-62 60.5h-2v-70h-111v712h114v-270h2q22 37 61.5 58t87.5 21q63 0 111 -33t74 -93zM215 385q-34 -47 -34 -131q0 -82 33.5 -130t89.5 -48q58 0 92 48.5t34 129.5t-34 129.5t-92 48.5
q-56 0 -89 -47z" />
    <glyph glyph-name="c" unicode="c" horiz-adv-x="548" 
d="M479 427q31 -46 35 -103h-119q-4 50 -34 79.5t-76 29.5q-60 0 -93.5 -47.5t-33.5 -131.5t33.5 -131.5t93.5 -47.5q45 0 75 33t34 85h120q-7 -92 -70 -150q-61 -58 -159 -58q-112 0 -179.5 73t-67.5 196t67.5 196t179.5 73q130 0 194 -96z" />
    <glyph glyph-name="d" unicode="d" horiz-adv-x="587" 
d="M514 712v-712h-111v70h-2q-22 -39 -62 -60.5t-89 -21.5q-97 0 -154.5 72.5t-57.5 193.5t57.5 194t153.5 73q48 0 87.5 -21t61.5 -58h2v270h114zM157 254q0 -81 34 -129.5t92 -48.5q56 0 89.5 48t33.5 130q0 83 -33 130.5t-90 47.5q-58 0 -92 -48.5t-34 -129.5z" />
    <glyph glyph-name="e" unicode="e" horiz-adv-x="562" 
d="M510 350q14 -47 14 -119h-373q3 -80 38.5 -121t94.5 -41q47 0 78 22.5t39 61.5h117q-15 -72 -77 -120q-61 -48 -157 -48q-114 0 -180 75.5t-66 199.5q0 116 66 189.5t178 73.5q86 0 146.5 -46t81.5 -127zM153 306h257q-6 64 -40 98.5t-88 34.5t-88 -34.5t-41 -98.5z" />
    <glyph glyph-name="f" unicode="f" horiz-adv-x="323" 
d="M312 712v-84q-12 4 -28 4q-37 0 -55 -19.5t-18 -63.5v-41h98v-87h-98v-421h-113v421h-86v87h86v54q0 157 154 157q28 0 60 -7z" />
    <glyph glyph-name="g" unicode="g" horiz-adv-x="582" 
d="M509 32q0 -112 -60 -169q-62 -56 -171 -56q-101 0 -157.5 42.5t-60.5 118.5h114q2 -37 30 -57t76 -20q60 0 89 34.5t29 110.5v50h-2q-54 -80 -147 -80q-96 0 -153.5 70t-57.5 188t58 188t155 70q92 0 148 -85h2v71h108v-476zM157 264q0 -76 33 -119q32 -45 87 -45
q58 0 91.5 44.5t33.5 119.5t-33.5 119t-91.5 44q-55 0 -87.5 -44t-32.5 -119z" />
    <glyph glyph-name="h" unicode="h" 
d="M73 0v712h114v-264h2q53 72 146 72q89 0 137 -53.5t48 -155.5v-311h-114v301q0 127 -103 127q-52 0 -84 -39t-32 -107v-282h-114z" />
    <glyph glyph-name="i" unicode="i" horiz-adv-x="260" 
d="M73 0v508h114v-508h-114zM73 603v109h114v-109h-114z" />
    <glyph glyph-name="j" unicode="j" horiz-adv-x="264" 
d="M1 -101q40 0 58 22t18 74v513h114v-528q0 -170 -160 -170q-29 0 -58 7v85q13 -3 28 -3zM191 712v-109h-114v109h114z" />
    <glyph glyph-name="k" unicode="k" horiz-adv-x="522" 
d="M73 712h114v-412h2l185 208h133l-210 -232l234 -276h-144l-198 246h-2v-246h-114v712z" />
    <glyph glyph-name="l" unicode="l" horiz-adv-x="260" 
d="M73 0v712h114v-712h-114z" />
    <glyph glyph-name="m" unicode="m" horiz-adv-x="880" 
d="M812 313v-313h-114v302q0 126 -92 126q-50 0 -78.5 -40.5t-28.5 -113.5v-274h-114v314q0 54 -23.5 84t-67.5 30q-51 0 -79 -41t-28 -115v-272h-114v508h109v-61h2q54 73 141 73q112 0 150 -92q60 92 163 92q83 0 128.5 -53.5t45.5 -153.5z" />
    <glyph glyph-name="n" unicode="n" 
d="M73 0v508h108v-66h2q54 78 152 78q89 0 137 -53.5t48 -155.5v-311h-114v301q0 127 -103 127q-52 0 -84 -39t-32 -107v-282h-114z" />
    <glyph glyph-name="o" unicode="o" horiz-adv-x="577" 
d="M539 254q0 -123 -67.5 -196t-182.5 -73t-183 73t-68 196t68 196t183 73t182.5 -73t67.5 -196zM193 385q-35 -49 -35 -131q0 -83 35 -131t96 -48t96 48t35 131t-35 131t-96 48t-96 -48z" />
    <glyph glyph-name="p" unicode="p" horiz-adv-x="587" 
d="M549 254q0 -121 -57.5 -193.5t-153.5 -72.5q-48 0 -87.5 20.5t-61.5 57.5h-2v-251h-114v693h111v-70h2q22 39 62.5 61t88.5 22q97 0 154.5 -73t57.5 -194zM181 254q0 -83 34 -130q33 -48 89 -48q58 0 92 48.5t34 129.5t-34 129.5t-92 48.5q-57 0 -90 -47.5t-33 -130.5z
" />
    <glyph glyph-name="q" unicode="q" horiz-adv-x="587" 
d="M514 508v-693h-114v251h-2q-22 -37 -61.5 -57.5t-87.5 -20.5q-96 0 -153.5 72.5t-57.5 193.5t57.5 194t154.5 73q48 0 88.5 -22t62.5 -61h2v70h111zM157 254q0 -82 34 -129q34 -49 92 -49q56 0 89.5 48t33.5 130q0 83 -33 130.5t-90 47.5q-58 0 -92 -48.5t-34 -129.5z
" />
    <glyph glyph-name="r" unicode="r" horiz-adv-x="377" 
d="M73 508h106v-75h2q51 82 145 82q17 0 42 -5v-101q-17 4 -40 4q-68 0 -104.5 -42.5t-36.5 -121.5v-249h-114v508z" />
    <glyph glyph-name="s" unicode="s" horiz-adv-x="509" 
d="M444 229q26 -34 26 -89q0 -70 -58 -112q-58 -43 -155 -43q-105 0 -162 46.5t-58 135.5h116q0 -47 27.5 -72t78.5 -25q43 0 67.5 17t24.5 46q0 44 -50 63q-25 8 -78 21q-63 16 -92 28q-34 13 -58 43t-24 83q0 68 55 110t144 42q99 0 152 -44.5t54 -128.5h-110q0 90 -97 90
q-40 0 -62 -16t-22 -44q0 -37 45 -53q30 -10 70 -20q55 -14 103 -31q35 -15 63 -47z" />
    <glyph glyph-name="t" unicode="t" horiz-adv-x="339" 
d="M312 92v-89q-32 -9 -64 -9q-81 0 -117.5 36.5t-36.5 119.5v271h-85v87h85v127h114v-127h99v-87h-99v-254q0 -43 16 -61.5t53 -18.5q20 0 35 5z" />
    <glyph glyph-name="u" unicode="u" 
d="M117 41q-49 52 -49 156v311h114v-301q0 -127 103 -127q52 0 84 39t32 107v282h114v-508h-108v66h-2q-54 -78 -152 -78q-88 0 -136 53z" />
    <glyph glyph-name="v" unicode="v" horiz-adv-x="490" 
d="M-6 508h119l66 -207q35 -108 65 -222h2q30 114 65 222l66 207h119l-177 -508h-148z" />
    <glyph glyph-name="w" unicode="w" horiz-adv-x="790" 
d="M670 508h114l-124 -508h-163l-52 210q-21 84 -49 219h-2q-28 -135 -49 -219l-52 -210h-163l-124 508h114l46 -204q27 -112 46 -225h2q26 123 50 221l51 208h160l51 -208q24 -98 50 -221h2q19 113 46 225z" />
    <glyph glyph-name="x" unicode="x" horiz-adv-x="494" 
d="M-4 0l181 263l-168 245h133l104 -165h2l104 165h133l-168 -245l181 -263h-134l-116 188h-2l-116 -188h-134z" />
    <glyph glyph-name="y" unicode="y" horiz-adv-x="488" 
d="M180 -4l-186 512h122l127 -378h2l131 378h118l-196 -530q-36 -96 -84 -132t-138 -36q-33 0 -57 7v93q21 -7 48 -7q46 0 70.5 20t42.5 73z" />
    <glyph glyph-name="z" unicode="z" horiz-adv-x="476" 
d="M449 0h-422v95l274 320v2h-264v91h402v-95l-274 -320v-2h284v-91z" />
    <glyph glyph-name="braceleft" unicode="{" horiz-adv-x="320" 
d="M295 741v-68q-46 -2 -65 -23t-19 -72v-154q0 -54 -20.5 -84t-68.5 -43v-3q48 -14 68.5 -43.5t20.5 -84.5v-153q0 -52 19 -73t65 -22v-69h-23q-89 0 -127.5 39.5t-38.5 130.5v145q0 44 -14.5 64t-51.5 30v74q38 11 52 31.5t14 63.5v145q0 90 38 129.5t128 39.5h23z" />
    <glyph glyph-name="bar" unicode="|" horiz-adv-x="283" 
d="M90 -205v937h103v-937h-103z" />
    <glyph glyph-name="braceright" unicode="}" horiz-adv-x="320" 
d="M280 332v-74q-38 -10 -52.5 -30.5t-14.5 -63.5v-145q0 -91 -38 -130.5t-127 -39.5h-24v69q46 1 65 22t19 73v153q0 54 21 84t68 44v3q-47 14 -68 43.5t-21 83.5v154q0 51 -19 72t-65 23v68h24q89 0 127 -39t38 -130v-145q0 -43 14.5 -63.5t52.5 -31.5z" />
    <glyph glyph-name="asciitilde" unicode="~" horiz-adv-x="589" 
d="M564 405q0 -54 -20 -97q-42 -89 -136 -89q-36 0 -64 13t-72 46q-60 45 -93 45q-35 0 -56.5 -25.5t-21.5 -68.5h-76q0 82 44 134q43 51 112 51q36 0 64.5 -13.5t70.5 -45.5q60 -45 93 -45q35 0 56.5 26t21.5 69h77z" />
    <glyph glyph-name="uni00A0" unicode="&#xa0;" horiz-adv-x="230" 
 />
    <glyph glyph-name="exclamdown" unicode="&#xa1;" horiz-adv-x="300" 
d="M220 -204h-141l26 525h89zM214 389h-129v119h129v-119z" />
    <glyph glyph-name="cent" unicode="&#xa2;" horiz-adv-x="581" 
d="M529 272q-7 -84 -60 -140t-135 -66v-91h-72v91q-97 12 -153 83t-56 184q0 112 56 183q55 70 153 84v89h72v-89q83 -11 135 -64q52 -54 60 -134h-119q-8 81 -76 105v-347q32 10 52 40t23 72h120zM172 333q0 -69 24 -114q23 -46 66 -59v346q-43 -14 -66.5 -59t-23.5 -114z
" />
    <glyph glyph-name="sterling" unicode="&#xa3;" horiz-adv-x="581" 
d="M542 96v-96h-518v97q48 0 70.5 31.5t22.5 101.5v55h-93v97h93v78q0 113 56 171t165 58q98 0 154 -56.5t56 -154.5h-115q0 54 -25 82.5t-70 28.5q-102 0 -102 -129v-78h124v-97h-124v-54q0 -53 -13 -82.5t-44 -50.5v-2h363z" />
    <glyph glyph-name="currency" unicode="&#xa4;" horiz-adv-x="581" 
d="M475 560l73 -68l-74 -78q33 -52 33 -123t-33 -123l74 -78l-73 -68l-73 79q-46 -27 -111 -27q-62 0 -112 26l-73 -78l-72 68l73 78q-33 52 -33 123t33 123l-73 78l72 68l73 -78q50 26 112 26q65 0 111 -27zM203 383q-33 -35 -33 -92t33 -92t88 -35t87.5 35t32.5 92
t-32.5 92t-87.5 35t-88 -35z" />
    <glyph glyph-name="yen" unicode="&#xa5;" horiz-adv-x="581" 
d="M517 241v-64h-166v-177h-121v177h-166v64h166v48h-166v65h129l-182 320h134l53 -99q53 -102 92 -185h2q42 93 91 185l53 99h134l-182 -320h129v-65h-166v-48h166z" />
    <glyph glyph-name="brokenbar" unicode="&#xa6;" horiz-adv-x="283" 
d="M90 732h103v-350h-103v350zM90 -205v350h103v-350h-103z" />
    <glyph glyph-name="section" unicode="&#xa7;" horiz-adv-x="612" 
d="M393 548q-1 41 -24 64q-23 21 -66 21q-36 0 -57.5 -17t-21.5 -47q0 -24 9.5 -37.5t33.5 -25.5q26 -14 81 -35q77 -31 115 -54q40 -24 63 -59q22 -35 22 -91q0 -92 -86 -146v-2q48 -37 48 -108q0 -77 -55.5 -120.5t-149.5 -43.5q-102 0 -158.5 46t-58.5 135h115
q6 -87 100 -87q40 0 64 18.5t24 51.5q0 24 -12 40.5t-40 31.5q-58 27 -94 43q-68 29 -103.5 53t-55.5 56q-22 32 -22 84q0 95 86 146v2q-45 37 -45 100q0 72 56 116t142 44q197 0 205 -179h-115zM391 171q22 13 35 35q12 22 12 48q0 37 -24 62q-28 28 -94 55q-44 17 -99 44
q-46 -30 -46 -79q0 -38 26 -64q28 -28 98 -58q31 -11 92 -43z" />
    <glyph glyph-name="dieresis" unicode="&#xa8;" horiz-adv-x="408" 
d="M256 712h102v-109h-102v109zM50 712h102v-109h-102v109z" />
    <glyph glyph-name="copyright" unicode="&#xa9;" horiz-adv-x="806" 
d="M718 163q-45 -84 -126.5 -130t-188.5 -46q-158 -2 -259.5 102t-99.5 267q-2 163 99.5 267t259.5 102q107 0 188.5 -46t126.5 -130q44 -85 44 -193t-44 -193zM675 523q-39 72 -109.5 111.5t-162.5 39.5q-139 0 -224 -87.5t-85 -230.5t85 -230.5t224 -87.5q92 0 162.5 39.5
t109.5 111.5q38 73 38 167t-38 167zM597 291q-7 -80 -59 -126t-135 -46q-94 0 -148.5 63t-54.5 173q0 111 55 174.5t150 63.5q83 0 134 -46.5t55 -122.5h-85q-4 45 -31.5 71t-72.5 26q-55 0 -87 -44.5t-32 -121.5q0 -76 31.5 -120t85.5 -44q45 0 74 27t34 73h86z" />
    <glyph glyph-name="ordfeminine" unicode="&#xaa;" horiz-adv-x="402" 
d="M354 554v-126q0 -59 10 -98h-88q-6 22 -6 48h-1q-41 -56 -122 -56q-57 0 -91.5 30t-34.5 78t33.5 74.5t111.5 38.5q59 8 93 10v14q0 65 -63 65q-62 0 -64 -57h-96q3 55 44.5 88t115.5 33q158 0 158 -142zM119 436q0 -22 15 -35t42 -13q39 0 60 22q23 21 23 70v16
q-32 -1 -76 -9q-35 -6 -49.5 -18t-14.5 -33z" />
    <glyph glyph-name="guillemotleft" unicode="&#xab;" horiz-adv-x="498" 
d="M350 454h102l-109 -200l109 -200h-102l-114 200zM46 254l114 200h102l-109 -200l109 -200h-102z" />
    <glyph glyph-name="logicalnot" unicode="&#xac;" horiz-adv-x="566" 
d="M67 366v92h432v-322h-91v230h-341z" />
    <glyph glyph-name="uni00AD" unicode="&#xad;" horiz-adv-x="310" 
d="M280 339v-94h-250v94h250z" />
    <glyph glyph-name="registered" unicode="&#xae;" horiz-adv-x="589" 
d="M426 695q56 -31 87 -90q31 -58 31 -135q0 -115 -68.5 -185.5t-180.5 -70.5t-181 70.5t-69 185.5t69 186t181 71q73 0 131 -32zM408 276q48 27 75 77.5t27 116.5t-27 116.5t-75 78.5q-50 27 -113 27q-96 0 -155.5 -61t-59.5 -161t59.5 -161t155.5 -61q64 0 113 28z
M395 494q-16 -21 -42 -29v-2q16 -4 25.5 -15.5t19.5 -37.5l33 -94h-65l-27 79q-12 44 -58 44h-41v-123h-61v317h122q53 0 81 -24t28 -67q0 -27 -15 -48zM289 582h-49v-93h46q63 0 63 49q0 44 -60 44z" />
    <glyph glyph-name="macron" unicode="&#xaf;" horiz-adv-x="405" 
d="M50 607v78h305v-78h-305z" />
    <glyph glyph-name="degree" unicode="&#xb0;" horiz-adv-x="329" 
d="M292 594q0 -52 -37.5 -89.5t-89.5 -37.5q-53 0 -90.5 37.5t-37.5 89.5q0 53 38 91q37 37 90 37q52 0 89.5 -37.5t37.5 -90.5zM99 594q0 -27 19 -46t47 -19q27 0 46.5 19t19.5 46q0 28 -19.5 47t-46.5 19q-28 0 -47 -19t-19 -47z" />
    <glyph glyph-name="plusminus" unicode="&#xb1;" horiz-adv-x="566" 
d="M238 305h-171v91h171v163h90v-163h171v-91h-171v-164h-90v164zM499 0h-432v91h432v-91z" />
    <glyph glyph-name="uni00B2" unicode="&#xb2;" horiz-adv-x="439" 
d="M405 413v-83h-367q-2 8 -2 20q0 76 29.5 121.5t112.5 91.5q56 29 85 55q25 22 25 56q0 26 -18 42t-49 16q-73 0 -76 -77h-102q1 75 48.5 116.5t129.5 41.5q78 0 125 -38q47 -39 47 -100q0 -54 -31 -90t-100 -72q-66 -34 -86 -54q-21 -20 -23 -46h252z" />
    <glyph glyph-name="uni00B3" unicode="&#xb3;" horiz-adv-x="433" 
d="M376 529q22 -26 22 -71q0 -63 -49.5 -101t-131.5 -38q-90 0 -138.5 42.5t-48.5 119.5h103q0 -81 84 -81q35 0 56.5 17t21.5 45q0 67 -98 67h-15v78h17q42 0 66.5 17t24.5 47q0 28 -20.5 44.5t-55.5 16.5q-77 0 -77 -78h-101q0 75 47.5 117t132.5 42q81 0 128 -36t47 -97
q0 -39 -20 -64t-64 -42v-2q47 -17 69 -43z" />
    <glyph glyph-name="acute" unicode="&#xb4;" horiz-adv-x="325" 
d="M50 568l81 144h144l-132 -144h-93z" />
    <glyph glyph-name="uni00B5" unicode="&#xb5;" horiz-adv-x="598" 
d="M586 87v-84q-27 -10 -72 -10q-86 0 -102 81h-2q-16 -38 -51 -59.5t-81 -21.5q-61 0 -91 32v-210h-114v693h114v-300q0 -128 100 -128q52 0 84 39t32 108v281h114v-352q0 -41 10.5 -56.5t34.5 -15.5q12 0 24 3z" />
    <glyph glyph-name="paragraph" unicode="&#xb6;" horiz-adv-x="622" 
d="M93 355q-53 56 -53 150q0 95 53 151t144 56h362v-79h-80v-753h-85v753h-84v-753h-85v419h-28q-91 0 -144 56z" />
    <glyph glyph-name="periodcentered" unicode="&#xb7;" horiz-adv-x="242" 
d="M55 235v141h132v-141h-132z" />
    <glyph glyph-name="cedilla" unicode="&#xb8;" horiz-adv-x="326" 
d="M119 -103l-19 21l52 82h51l-39 -62q8 4 29 4q36 0 59.5 -20.5t23.5 -53.5q0 -40 -31 -65.5t-86 -25.5q-56 0 -109 29l20 40q39 -21 79 -21q53 0 53 38q0 18 -13.5 29t-37.5 11q-17 0 -32 -6z" />
    <glyph glyph-name="uni00B9" unicode="&#xb9;" horiz-adv-x="300" 
d="M11 721q64 0 95 19t38 62h89v-472h-102v317h-120v74z" />
    <glyph glyph-name="ordmasculine" unicode="&#xba;" horiz-adv-x="427" 
d="M78 645q50 51 136 51q85 0 136 -51q50 -52 50 -137q0 -87 -50 -138t-136 -51t-136 51q-51 51 -51 138q0 86 51 137zM130 508q0 -52 22.5 -82.5t61.5 -30.5t61 30t22 83t-22 82.5t-61 29.5t-61.5 -30t-22.5 -82z" />
    <glyph glyph-name="guillemotright" unicode="&#xbb;" horiz-adv-x="498" 
d="M338 54h-102l109 200l-109 200h102l114 -200zM46 54l109 200l-109 200h102l114 -200l-114 -200h-102z" />
    <glyph glyph-name="onequarter" unicode="&#xbc;" horiz-adv-x="761" 
d="M752 88h-67v-88h-93v88h-197v77l167 239h123v-242h67v-74zM479 674h82l-376 -674h-83zM9 604q94 0 110 70h85v-404h-96v265h-99v69zM480 162h116v46q0 65 3 128h-1q-46 -73 -78 -118z" />
    <glyph glyph-name="onehalf" unicode="&#xbd;" horiz-adv-x="792" 
d="M764 0h-326q-1 4 -1 19q0 65 26 106q25 40 98 78q55 30 74 46q21 17 21 46q0 20 -15 32.5t-40 12.5q-61 0 -62 -64h-95q1 65 42.5 101.5t114.5 36.5q69 0 110 -33t41 -87q0 -47 -28 -79t-86 -60q-54 -25 -72 -42q-19 -16 -21 -37h219v-76zM479 674h82l-376 -674h-83z
M9 535v69q94 0 110 70h85v-404h-96v265h-99z" />
    <glyph glyph-name="threequarters" unicode="&#xbe;" horiz-adv-x="885" 
d="M519 165l167 239h123v-242h67v-74h-67v-88h-93v88h-197v77zM121 400q0 -65 71 -65q29 0 47 13.5t18 35.5q0 54 -81 54h-14v71h13q35 0 56 14.5t21 39.5q0 21 -16.5 34t-45.5 13q-66 0 -66 -62h-93q0 64 42.5 100t116.5 36q72 0 114 -31.5t42 -83.5q0 -63 -72 -90v-1
q41 -13 59 -36.5t18 -62.5q0 -55 -43 -87t-116 -32q-79 0 -122.5 36.5t-43.5 103.5h95zM685 674l-376 -674h-83l377 674h82zM720 162v46q0 65 3 128h-1q-46 -73 -78 -118l-40 -56h116z" />
    <glyph glyph-name="questiondown" unicode="&#xbf;" horiz-adv-x="500" 
d="M500 -3q-4 -106 -65 -161q-61 -54 -172 -54q-103 0 -164 49t-61 134q0 54 20 89.5t83 87.5q59 52 73.5 82.5t15.5 107.5h99v-31q-2 -80 -19 -116.5t-79 -93.5q-43 -38 -59 -64q-14 -25 -14 -59q0 -39 28.5 -62.5t76.5 -23.5q112 0 118 115h119zM345 389h-129v119h129
v-119z" />
    <glyph glyph-name="Agrave" unicode="&#xc0;" horiz-adv-x="687" 
d="M557 0l-66 193h-295l-66 -193h-126l259 712h161l259 -712h-126zM232 297h223l-19 56q-66 196 -92 283h-2q-47 -155 -91 -283zM338 902l82 -142h-93l-132 142h143z" />
    <glyph glyph-name="Aacute" unicode="&#xc1;" horiz-adv-x="687" 
d="M557 0l-66 193h-295l-66 -193h-126l259 712h161l259 -712h-126zM232 297h223l-19 56q-66 196 -92 283h-2q-47 -155 -91 -283zM348 902h144l-132 -142h-93z" />
    <glyph glyph-name="Acircumflex" unicode="&#xc2;" horiz-adv-x="687" 
d="M557 0l-66 193h-295l-66 -193h-126l259 712h161l259 -712h-126zM455 297l-19 56q-66 196 -92 283h-2q-47 -155 -91 -283l-19 -56h223zM168 760l114 142h123l114 -142h-108l-68 82l-67 -82h-108z" />
    <glyph glyph-name="Atilde" unicode="&#xc3;" horiz-adv-x="687" 
d="M557 0l-66 193h-295l-66 -193h-126l259 712h161l259 -712h-126zM455 297l-19 56q-66 196 -92 283h-2q-47 -155 -91 -283l-19 -56h223zM195 866q29 33 78 33q31 0 82 -28q37 -20 54 -20q41 0 46 48h68q-3 -59 -31.5 -92t-77.5 -33q-33 0 -82 28q-35 21 -55 21
q-40 0 -46 -49h-68q3 58 32 92z" />
    <glyph glyph-name="Adieresis" unicode="&#xc4;" horiz-adv-x="687" 
d="M557 0l-66 193h-295l-66 -193h-126l259 712h161l259 -712h-126zM455 297l-19 56q-66 196 -92 283h-2q-47 -155 -91 -283l-19 -56h223zM395 881h102v-109h-102v109zM189 772v109h102v-109h-102z" />
    <glyph glyph-name="Aring" unicode="&#xc5;" horiz-adv-x="687" 
d="M557 0l-66 193h-295l-66 -193h-126l259 712h161l259 -712h-126zM455 297l-19 56q-66 196 -92 283h-2q-47 -155 -91 -283l-19 -56h223zM239 855q0 44 31 74q30 30 73 30t73.5 -30.5t30.5 -73.5t-30 -73q-30 -31 -74 -31q-43 0 -73 31q-31 30 -31 73zM287 855
q0 -23 16.5 -39.5t39.5 -16.5t39.5 16.5t16.5 39.5t-16.5 39.5t-39.5 16.5t-39.5 -16.5t-16.5 -39.5z" />
    <glyph glyph-name="AE" unicode="&#xc6;" horiz-adv-x="951" 
d="M900 104v-104h-385l-30 202h-264l-92 -202h-135l340 712h556v-104h-348l28 -193h298v-103h-283l31 -208h284zM410 614l-142 -310h202l-45 310h-15z" />
    <glyph glyph-name="Ccedilla" unicode="&#xc7;" horiz-adv-x="695" 
d="M527 468q-8 71 -52 112q-44 40 -116 40q-91 0 -143 -70.5t-52 -193.5t52 -193q51 -71 140 -71q71 0 116.5 41t55.5 114h123q-10 -114 -79 -183t-184 -78l-30 -48q8 4 29 4q36 0 59.5 -20.5t23.5 -53.5q0 -40 -31 -65.5t-86 -25.5q-56 0 -109 29l20 40q39 -21 79 -21
q53 0 53 38q0 18 -13.5 29t-37.5 11q-17 0 -32 -6l-19 21l43 67q-138 6 -217.5 105.5t-79.5 265.5q0 171 85.5 271t233.5 100q128 0 205.5 -71.5t83.5 -187.5h-121z" />
    <glyph glyph-name="Egrave" unicode="&#xc8;" horiz-adv-x="625" 
d="M88 712h476v-104h-356v-193h334v-103h-334v-208h366v-104h-486v712zM320 902l82 -142h-93l-132 142h143z" />
    <glyph glyph-name="Eacute" unicode="&#xc9;" horiz-adv-x="625" 
d="M88 712h476v-104h-356v-193h334v-103h-334v-208h366v-104h-486v712zM331 902h144l-132 -142h-93z" />
    <glyph glyph-name="Ecircumflex" unicode="&#xca;" horiz-adv-x="625" 
d="M574 0h-486v712h476v-104h-356v-193h334v-103h-334v-208h366v-104zM264 902h123l114 -142h-108l-68 82l-67 -82h-108z" />
    <glyph glyph-name="Edieresis" unicode="&#xcb;" horiz-adv-x="625" 
d="M574 0h-486v712h476v-104h-356v-193h334v-103h-334v-208h366v-104zM480 881v-109h-102v109h102zM172 772v109h102v-109h-102z" />
    <glyph glyph-name="Igrave" unicode="&#xcc;" horiz-adv-x="296" 
d="M208 712v-712h-120v712h120zM0 902h143l82 -142h-93z" />
    <glyph glyph-name="Iacute" unicode="&#xcd;" horiz-adv-x="296" 
d="M208 712v-712h-120v712h120zM73 760l81 142h144l-132 -142h-93z" />
    <glyph glyph-name="Icircumflex" unicode="&#xce;" horiz-adv-x="296" 
d="M88 712h120v-712h-120v712zM-27 760l114 142h123l114 -142h-108l-68 82l-67 -82h-108z" />
    <glyph glyph-name="Idieresis" unicode="&#xcf;" horiz-adv-x="296" 
d="M88 712h120v-712h-120v712zM200 881h102v-109h-102v109zM-6 881h102v-109h-102v109z" />
    <glyph glyph-name="Eth" unicode="&#xd0;" horiz-adv-x="729" 
d="M689 356q0 -171 -97 -263.5t-276 -92.5h-228v316h-64v89h64v307h228q179 0 276 -92.5t97 -263.5zM207 405h184v-89h-184v-212h107q251 0 251 252t-251 252h-107v-203z" />
    <glyph glyph-name="Ntilde" unicode="&#xd1;" horiz-adv-x="766" 
d="M677 0h-172l-154 298q-74 145 -151 306h-2q6 -162 6 -324v-280h-116v712h173l153 -298q74 -145 151 -306h2q-5 200 -5 324v280h115v-712zM203 774q3 59 32 92t78 33q31 0 82 -28q37 -20 54 -20q41 0 46 48h68q-3 -59 -31.5 -92t-77.5 -33q-33 0 -82 28q-35 21 -55 21
q-40 0 -46 -49h-68z" />
    <glyph glyph-name="Ograve" unicode="&#xd2;" horiz-adv-x="740" 
d="M700 356q0 -171 -89 -271t-241 -100t-241 100t-89 271t89 271t241 100t241 -100t89 -271zM164 356q0 -122 56 -193t150 -71q95 0 151 71q55 70 55 193t-55 193q-56 71 -151 71q-94 0 -150 -71t-56 -193zM364 902l82 -142h-93l-132 142h143z" />
    <glyph glyph-name="Oacute" unicode="&#xd3;" horiz-adv-x="740" 
d="M660 159q-40 -84 -114.5 -129t-175.5 -45q-152 0 -241 100t-89 271t89 271t241 100t241 -100t89 -271q0 -116 -40 -197zM164 356q0 -122 56 -193t150 -71q95 0 151 71q55 70 55 193t-55 193q-56 71 -151 71q-94 0 -150 -71t-56 -193zM375 902h144l-132 -142h-93z" />
    <glyph glyph-name="Ocircumflex" unicode="&#xd4;" horiz-adv-x="740" 
d="M660 159q-40 -84 -114.5 -129t-175.5 -45q-152 0 -241 100t-89 271t89 271t241 100t241 -100t89 -271q0 -116 -40 -197zM164 356q0 -122 56 -193t150 -71q95 0 151 71q55 70 55 193t-55 193q-56 71 -151 71q-94 0 -150 -71t-56 -193zM308 902h123l114 -142h-108l-68 82
l-67 -82h-108z" />
    <glyph glyph-name="Otilde" unicode="&#xd5;" horiz-adv-x="740" 
d="M80 554q40 84 114.5 128.5t175.5 44.5q152 0 241 -100t89 -271t-89 -271t-241 -100t-241 100t-89 271q0 115 40 198zM576 356q0 123 -55 193q-56 71 -151 71q-94 0 -150 -71t-56 -193t56 -193t150 -71q95 0 151 71q55 70 55 193zM222 866q28 33 78 33q31 0 82 -28
q37 -20 54 -20q42 0 46 48h68q-3 -59 -31.5 -92t-77.5 -33q-33 0 -82 28q-35 21 -55 21q-40 0 -46 -49h-68q3 58 32 92z" />
    <glyph glyph-name="Odieresis" unicode="&#xd6;" horiz-adv-x="740" 
d="M660 159q-40 -84 -114.5 -129t-175.5 -45q-152 0 -241 100t-89 271t89 271t241 100t241 -100t89 -271q0 -116 -40 -197zM164 356q0 -122 56 -193t150 -71q95 0 151 71q55 70 55 193t-55 193q-56 71 -151 71q-94 0 -150 -71t-56 -193zM422 772v109h102v-109h-102zM216 772
v109h102v-109h-102z" />
    <glyph glyph-name="multiply" unicode="&#xd7;" horiz-adv-x="566" 
d="M219 307l-189 188l65 64l188 -188l189 188l64 -64l-189 -188l189 -189l-64 -64l-189 189l-188 -189l-65 64z" />
    <glyph glyph-name="Oslash" unicode="&#xd8;" horiz-adv-x="740" 
d="M678 508q22 -66 22 -152q0 -171 -89 -271t-241 -100q-112 0 -192 56l-59 -79l-56 44l62 83q-85 97 -85 267q0 171 89 271t241 100q111 0 193 -56l59 79l55 -43l-62 -83q40 -48 63 -116zM160 356q0 -102 38 -170l298 396q-52 43 -126 43q-98 0 -153 -72q-57 -72 -57 -197z
M245 130q50 -43 125 -43q97 0 154 72q56 73 56 197q0 102 -38 170z" />
    <glyph glyph-name="Ugrave" unicode="&#xd9;" horiz-adv-x="712" 
d="M629 269q0 -138 -70.5 -211t-202.5 -73t-203 73t-71 211v443h120v-439q0 -89 39.5 -135t114.5 -46t114.5 46t39.5 135v439h119v-443zM207 902h143l82 -142h-93z" />
    <glyph glyph-name="Uacute" unicode="&#xda;" horiz-adv-x="712" 
d="M629 269q0 -138 -70.5 -211t-202.5 -73t-203 73t-71 211v443h120v-439q0 -89 39.5 -135t114.5 -46t114.5 46t39.5 135v439h119v-443zM361 902h144l-132 -142h-93z" />
    <glyph glyph-name="Ucircumflex" unicode="&#xdb;" horiz-adv-x="712" 
d="M629 269q0 -138 -70.5 -211t-202.5 -73t-203 73t-71 211v443h120v-439q0 -89 39.5 -135t114.5 -46t114.5 46t39.5 135v439h119v-443zM294 902h123l114 -142h-108l-68 82l-67 -82h-108z" />
    <glyph glyph-name="Udieresis" unicode="&#xdc;" horiz-adv-x="712" 
d="M629 269q0 -138 -70.5 -211t-202.5 -73t-203 73t-71 211v443h120v-439q0 -89 39.5 -135t114.5 -46t114.5 46t39.5 135v439h119v-443zM510 881v-109h-102v109h102zM304 881v-109h-102v109h102z" />
    <glyph glyph-name="Yacute" unicode="&#xdd;" horiz-adv-x="626" 
d="M217 571q55 -100 95 -184h2q47 97 96 184l77 141h135l-249 -426v-286h-120v286l-250 426h136zM318 902h144l-132 -142h-93z" />
    <glyph glyph-name="Thorn" unicode="&#xde;" horiz-adv-x="626" 
d="M534 529q66 -60 66 -163q0 -104 -66.5 -163t-188.5 -59h-137v-144h-120v712h120v-123h137q123 0 189 -60zM208 488v-243h123q146 0 146 121q0 122 -146 122h-123z" />
    <glyph glyph-name="germandbls" unicode="&#xdf;" horiz-adv-x="566" 
d="M491 334q39 -50 39 -128q0 -99 -62 -155q-64 -56 -166 -56q-23 0 -51 5v94q11 -3 31 -3q63 0 96.5 32t33.5 94q0 60 -35 94t-99 34h-13v96q121 0 121 101q0 44 -25.5 68.5t-70.5 24.5q-103 0 -103 -133v-502h-114v510q0 103 56.5 160t158.5 57q94 0 152 -47
q56 -48 56 -127q0 -118 -118 -155v-2q72 -13 113 -62z" />
    <glyph glyph-name="agrave" unicode="&#xe0;" horiz-adv-x="539" 
d="M382 0q-7 29 -7 71h-2q-55 -82 -171 -82q-79 0 -125 43q-47 42 -47 108t45.5 104.5t149.5 55.5q65 11 137 15v20q0 105 -99 105q-45 0 -71.5 -23.5t-28.5 -65.5h-112q4 78 59.5 125t152.5 47q102 0 155.5 -50t53.5 -149v-190q0 -83 13 -134h-103zM145 148q0 -34 24 -54.5
t66 -20.5q58 0 92 34q20 21 27.5 44.5t7.5 64.5v25q-69 -5 -117 -13q-55 -9 -77.5 -27t-22.5 -53zM251 712l82 -144h-93l-132 144h143z" />
    <glyph glyph-name="aacute" unicode="&#xe1;" horiz-adv-x="539" 
d="M382 0q-7 29 -7 71h-2q-55 -82 -171 -82q-79 0 -125 43q-47 42 -47 108t45.5 104.5t149.5 55.5q65 11 137 15v20q0 105 -99 105q-45 0 -71.5 -23.5t-28.5 -65.5h-112q4 78 59.5 125t152.5 47q102 0 155.5 -50t53.5 -149v-190q0 -83 13 -134h-103zM169 94q23 -21 66 -21
q58 0 92 34q20 21 27.5 44.5t7.5 64.5v25q-69 -5 -117 -13q-55 -9 -77.5 -27t-22.5 -53q0 -34 24 -54zM262 712h144l-132 -144h-93z" />
    <glyph glyph-name="acircumflex" unicode="&#xe2;" horiz-adv-x="539" 
d="M373 71q-55 -82 -171 -82q-79 0 -125 43q-47 42 -47 108t45.5 104.5t149.5 55.5q65 11 137 15v20q0 105 -99 105q-45 0 -71.5 -23.5t-28.5 -65.5h-112q4 78 59.5 125t152.5 47q102 0 155.5 -50t53.5 -149v-190q0 -83 13 -134h-103q-7 29 -7 71h-2zM169 94q23 -21 66 -21
q58 0 92 34q20 21 27.5 44.5t7.5 64.5v25q-69 -5 -117 -13q-55 -9 -77.5 -27t-22.5 -53q0 -34 24 -54zM195 712h123l114 -144h-108l-67 84l-68 -84h-108z" />
    <glyph glyph-name="atilde" unicode="&#xe3;" horiz-adv-x="539" 
d="M336 415q-26 25 -73 25q-45 0 -71.5 -23.5t-28.5 -65.5h-112q4 78 59.5 125t152.5 47q102 0 155.5 -50t53.5 -149v-190q0 -83 13 -134h-103q-7 29 -7 71h-2q-55 -82 -171 -82q-79 0 -125 43q-47 42 -47 108t45.5 104.5t149.5 55.5q65 11 137 15v20q0 54 -26 80zM369 709
h68q-3 -59 -31.5 -92t-77.5 -33q-33 0 -82 27q-35 21 -55 21q-40 0 -46 -48h-68q3 59 32 92t78 33q31 0 82 -28q35 -21 54 -21q42 0 46 49zM355 152q7 21 7 64v25q-69 -5 -117 -13q-55 -9 -77.5 -27t-22.5 -53q0 -34 24 -54.5t66 -20.5q58 0 92 34q21 23 28 45z" />
    <glyph glyph-name="adieresis" unicode="&#xe4;" horiz-adv-x="539" 
d="M373 71q-55 -82 -171 -82q-79 0 -125 43q-47 42 -47 108t45.5 104.5t149.5 55.5q65 11 137 15v20q0 105 -99 105q-45 0 -71.5 -23.5t-28.5 -65.5h-112q4 78 59.5 125t152.5 47q102 0 155.5 -50t53.5 -149v-190q0 -83 13 -134h-103q-7 29 -7 71h-2zM145 148
q0 -34 24 -54.5t66 -20.5q58 0 92 34q20 21 27.5 44.5t7.5 64.5v25q-69 -5 -117 -13q-55 -9 -77.5 -27t-22.5 -53zM103 712h102v-109h-102v109zM411 603h-102v109h102v-109z" />
    <glyph glyph-name="aring" unicode="&#xe5;" horiz-adv-x="539" 
d="M336 415q-26 25 -73 25q-45 0 -71.5 -23.5t-28.5 -65.5h-112q4 78 59.5 125t152.5 47q102 0 155.5 -50t53.5 -149v-190q0 -83 13 -134h-103q-7 29 -7 71h-2q-55 -82 -171 -82q-79 0 -125 43q-47 42 -47 108t45.5 104.5t149.5 55.5q65 11 137 15v20q0 54 -26 80zM331 592
q-30 -31 -74 -31q-43 0 -73 31q-31 30 -31 73q0 44 31 74q30 30 73 30t73.5 -30.5t30.5 -73.5t-30 -73zM355 152q7 21 7 64v25q-69 -5 -117 -13q-55 -9 -77.5 -27t-22.5 -53q0 -34 24 -54.5t66 -20.5q58 0 92 34q21 23 28 45zM313 665q0 23 -16.5 39.5t-39.5 16.5
t-39.5 -16.5t-16.5 -39.5t16.5 -39.5t39.5 -16.5t39.5 16.5t16.5 39.5z" />
    <glyph glyph-name="ae" unicode="&#xe6;" horiz-adv-x="871" 
d="M600 -15q-61 0 -108 26t-77 72q-61 -98 -196 -98q-85 0 -137 43.5t-52 111.5q0 163 245 163h94v32q0 105 -102 105q-47 0 -74 -23.5t-29 -65.5h-113q5 78 62 125t154 47q117 0 168 -69q63 69 163 69q83 0 142.5 -46.5t80.5 -126.5q12 -48 12 -119h-359q2 -80 36 -121
t90 -41q45 0 74 22.5t36 61.5h117q-14 -73 -75 -120.5t-152 -47.5zM145 148q0 -36 24.5 -57.5t67.5 -21.5q61 0 95 36q21 21 29 45t8 66v15h-81q-77 0 -110 -20t-33 -63zM598 439q-51 0 -83 -35q-32 -34 -40 -101h244q-4 65 -36.5 100.5t-84.5 35.5z" />
    <glyph glyph-name="ccedilla" unicode="&#xe7;" horiz-adv-x="548" 
d="M394 193h120q-8 -85 -60 -141q-53 -56 -137 -65l-31 -49q8 4 29 4q36 0 59.5 -20.5t23.5 -53.5q0 -40 -31 -65.5t-86 -25.5q-56 0 -109 29l20 40q39 -21 79 -21q53 0 53 38q0 18 -13.5 29t-37.5 11q-17 0 -32 -6l-19 21l43 68q-105 7 -166 79q-61 70 -61 189
q0 123 67.5 196t179.5 73q95 0 158 -55.5t71 -143.5h-119q-4 50 -34 79.5t-76 29.5q-60 0 -93.5 -47.5t-33.5 -131.5t33.5 -131.5t93.5 -47.5q45 0 75 33t34 85z" />
    <glyph glyph-name="egrave" unicode="&#xe8;" horiz-adv-x="562" 
d="M524 231h-373q3 -80 38.5 -121t94.5 -41q47 0 78 22.5t39 61.5h117q-15 -72 -77 -120q-61 -48 -157 -48q-114 0 -180 75.5t-66 199.5q0 116 66 189.5t178 73.5q86 0 146.5 -46t81.5 -127q14 -47 14 -119zM410 306q-6 64 -40 98.5t-88 34.5t-88 -34.5t-41 -98.5h257z
M132 712h143l82 -144h-93z" />
    <glyph glyph-name="eacute" unicode="&#xe9;" horiz-adv-x="562" 
d="M524 231h-373q3 -80 38.5 -121t94.5 -41q47 0 78 22.5t39 61.5h117q-15 -72 -77 -120q-61 -48 -157 -48q-114 0 -180 75.5t-66 199.5q0 116 66 189.5t178 73.5q86 0 146.5 -46t81.5 -127q14 -47 14 -119zM153 306h257q-6 64 -40 98.5t-88 34.5t-88 -34.5t-41 -98.5z
M285 712h144l-132 -144h-93z" />
    <glyph glyph-name="ecircumflex" unicode="&#xea;" horiz-adv-x="562" 
d="M524 231h-373q3 -80 38.5 -121t94.5 -41q47 0 78 22.5t39 61.5h117q-15 -72 -77 -120q-61 -48 -157 -48q-114 0 -180 75.5t-66 199.5q0 116 66 189.5t178 73.5q86 0 146.5 -46t81.5 -127q14 -47 14 -119zM219 712h123l114 -144h-108l-67 84l-68 -84h-108zM410 306
q-6 64 -40 98.5t-88 34.5t-88 -34.5t-41 -98.5h257z" />
    <glyph glyph-name="edieresis" unicode="&#xeb;" horiz-adv-x="562" 
d="M524 231h-373q3 -80 38.5 -121t94.5 -41q47 0 78 22.5t39 61.5h117q-15 -72 -77 -120q-61 -48 -157 -48q-114 0 -180 75.5t-66 199.5q0 116 66 189.5t178 73.5q86 0 146.5 -46t81.5 -127q14 -47 14 -119zM153 306h257q-6 64 -40 98.5t-88 34.5t-88 -34.5t-41 -98.5z
M332 603v109h102v-109h-102zM126 603v109h102v-109h-102z" />
    <glyph glyph-name="igrave" unicode="&#xec;" horiz-adv-x="260" 
d="M187 508v-508h-114v508h114zM-19 712h143l82 -144h-93z" />
    <glyph glyph-name="iacute" unicode="&#xed;" horiz-adv-x="260" 
d="M187 508v-508h-114v508h114zM54 568l81 144h144l-132 -144h-93z" />
    <glyph glyph-name="icircumflex" unicode="&#xee;" horiz-adv-x="260" 
d="M73 508h114v-508h-114v508zM70 712h119l101 -143h-102l-58 85l-58 -85h-103z" />
    <glyph glyph-name="idieresis" unicode="&#xef;" horiz-adv-x="260" 
d="M73 508h114v-508h-114v508zM160 712h103v-109h-103v109zM-3 712h102v-109h-102v109z" />
    <glyph glyph-name="eth" unicode="&#xf0;" horiz-adv-x="578" 
d="M517 399q23 -66 23 -141q0 -125 -67.5 -199t-182.5 -74q-116 0 -184 71t-68 191q0 121 61 192t164 71q48 0 89 -26v2q-44 53 -96 100l-130 -55l-23 54l103 44q-35 27 -67 49l87 49q36 -23 78 -57l125 53l23 -54l-99 -42q50 -44 91 -98q48 -62 73 -130zM158 253
q0 -82 35 -130t96 -48t96 48t35 130q0 83 -35 131t-96 48t-96 -48t-35 -131z" />
    <glyph glyph-name="ntilde" unicode="&#xf1;" 
d="M520 0h-114v301q0 127 -103 127q-52 0 -84 -39t-32 -107v-282h-114v508h108v-66h2q54 78 152 78q89 0 137 -53.5t48 -155.5v-311zM149 676q29 33 78 33q31 0 82 -28q35 -21 54 -21q42 0 46 49h68q-3 -59 -31.5 -92t-77.5 -33q-33 0 -82 27q-35 21 -55 21q-40 0 -46 -48
h-68q3 58 32 92z" />
    <glyph glyph-name="ograve" unicode="&#xf2;" horiz-adv-x="577" 
d="M539 254q0 -123 -67.5 -196t-182.5 -73t-183 73t-68 196t68 196t183 73t182.5 -73t67.5 -196zM158 254q0 -83 35 -131t96 -48t96 48t35 131t-35 131t-96 48t-96 -48t-35 -131zM283 712l82 -144h-93l-132 144h143z" />
    <glyph glyph-name="oacute" unicode="&#xf3;" horiz-adv-x="577" 
d="M509 112q-31 -61 -88 -94t-132 -33q-115 0 -183 73t-68 196t68 196t183 73t182.5 -73t67.5 -196q0 -82 -30 -142zM158 254q0 -83 35 -131t96 -48t96 48t35 131t-35 131t-96 48t-96 -48t-35 -131zM294 712h144l-132 -144h-93z" />
    <glyph glyph-name="ocircumflex" unicode="&#xf4;" horiz-adv-x="577" 
d="M539 254q0 -123 -67.5 -196t-182.5 -73t-183 73t-68 196t68 196t183 73t182.5 -73t67.5 -196zM193 123q35 -48 96 -48t96 48t35 131t-35 131t-96 48t-96 -48t-35 -131q0 -82 35 -131zM113 568l114 144h123l114 -144h-108l-67 84l-68 -84h-108z" />
    <glyph glyph-name="otilde" unicode="&#xf5;" horiz-adv-x="577" 
d="M422 18q-57 -33 -133 -33q-115 0 -183 73t-68 196t68 196t183 73t182.5 -73t67.5 -196q0 -167 -117 -236zM158 254q0 -83 35 -131t96 -48t96 48t35 131t-35 131t-96 48t-96 -48t-35 -131zM109 584q3 59 32 92t78 33q31 0 82 -28q35 -21 54 -21q42 0 46 49h68
q-3 -59 -31.5 -92t-77.5 -33q-33 0 -82 27q-35 21 -55 21q-40 0 -46 -48h-68z" />
    <glyph glyph-name="odieresis" unicode="&#xf6;" horiz-adv-x="577" 
d="M509 112q-31 -61 -88 -94t-132 -33q-115 0 -183 73t-68 196t68 196t183 73t182.5 -73t67.5 -196q0 -82 -30 -142zM158 254q0 -83 35 -131t96 -48t96 48t35 131t-35 131t-96 48t-96 -48t-35 -131zM340 603v109h102v-109h-102zM134 603v109h102v-109h-102z" />
    <glyph glyph-name="divide" unicode="&#xf7;" horiz-adv-x="566" 
d="M67 271v91h432v-91h-432zM333 95h-100v97h100v-97zM233 538h100v-97h-100v97z" />
    <glyph glyph-name="oslash" unicode="&#xf8;" horiz-adv-x="578" 
d="M523 364q17 -51 17 -110q0 -123 -68 -196t-183 -73q-81 0 -138 36l-51 -68l-48 36l53 70q-67 72 -67 195t68 196t183 73q81 0 139 -36l51 68l48 -37l-53 -70q33 -36 49 -84zM152 254q0 -60 20 -105l197 260q-34 28 -80 28q-63 0 -100 -49.5t-37 -133.5zM209 98
q33 -27 80 -27q63 0 100 49t37 134q0 56 -20 105z" />
    <glyph glyph-name="ugrave" unicode="&#xf9;" 
d="M515 0h-108v66h-2q-54 -78 -152 -78q-89 0 -137 53.5t-48 155.5v311h114v-301q0 -127 103 -127q52 0 84 39t32 107v282h114v-508zM288 712l82 -144h-93l-132 144h143z" />
    <glyph glyph-name="uacute" unicode="&#xfa;" 
d="M515 0h-108v66h-2q-54 -78 -152 -78q-89 0 -137 53.5t-48 155.5v311h114v-301q0 -127 103 -127q52 0 84 39t32 107v282h114v-508zM218 568l81 144h144l-132 -144h-93z" />
    <glyph glyph-name="ucircumflex" unicode="&#xfb;" 
d="M515 0h-108v66h-2q-54 -78 -152 -78q-89 0 -137 53.5t-48 155.5v311h114v-301q0 -127 103 -127q52 0 84 39t32 107v282h114v-508zM118 568l114 144h123l114 -144h-108l-67 84l-68 -84h-108z" />
    <glyph glyph-name="udieresis" unicode="&#xfc;" 
d="M515 0h-108v66h-2q-54 -78 -152 -78q-89 0 -137 53.5t-48 155.5v311h114v-301q0 -127 103 -127q52 0 84 39t32 107v282h114v-508zM346 603v109h102v-109h-102zM242 712v-109h-102v109h102z" />
    <glyph glyph-name="yacute" unicode="&#xfd;" horiz-adv-x="488" 
d="M494 508l-196 -530q-36 -96 -84 -132t-138 -36q-33 0 -57 7v93q21 -7 48 -7q46 0 70.5 20t42.5 73l-186 512h122l127 -378h2l131 378h118zM249 712h144l-132 -144h-93z" />
    <glyph glyph-name="thorn" unicode="&#xfe;" horiz-adv-x="587" 
d="M549 254q0 -79 -26 -140t-73.5 -93.5t-111.5 -32.5q-48 0 -87.5 20.5t-61.5 57.5h-2v-251h-114v897h114v-270h2q22 37 61.5 58t86.5 21q97 0 154.5 -73t57.5 -194zM181 254q0 -82 33.5 -130t89.5 -48q58 0 92 48.5t34 129.5t-34 129.5t-92 48.5q-57 0 -90 -47.5
t-33 -130.5z" />
    <glyph glyph-name="ydieresis" unicode="&#xff;" horiz-adv-x="488" 
d="M-6 508h122l127 -378h2l131 378h118l-196 -530q-36 -96 -84 -132t-138 -36q-33 0 -57 7v93q21 -7 48 -7q46 0 70.5 20t42.5 73zM192 712v-109h-102v109h102zM398 603h-102v109h102v-109z" />
    <glyph glyph-name="Amacron" unicode="&#x100;" horiz-adv-x="687" 
d="M557 0l-66 193h-295l-66 -193h-126l259 712h161l259 -712h-126zM455 297l-19 56q-66 196 -92 283h-2q-47 -155 -91 -283l-19 -56h223zM191 861h305v-78h-305v78z" />
    <glyph glyph-name="amacron" unicode="&#x101;" horiz-adv-x="539" 
d="M30 140q0 66 45.5 104.5t149.5 55.5q65 11 137 15v20q0 105 -99 105q-45 0 -71.5 -23.5t-28.5 -65.5h-112q4 78 59.5 125t152.5 47q102 0 155.5 -50t53.5 -149v-190q0 -83 13 -134h-103q-7 29 -7 71h-2q-55 -82 -171 -82q-79 0 -125 43q-47 42 -47 108zM169 94
q23 -21 66 -21q58 0 92 34q20 21 27.5 44.5t7.5 64.5v25q-69 -5 -117 -13q-55 -9 -77.5 -27t-22.5 -53q0 -34 24 -54zM409 607h-305v78h305v-78z" />
    <glyph glyph-name="Abreve" unicode="&#x102;" horiz-adv-x="687" 
d="M557 0l-66 193h-295l-66 -193h-126l259 712h161l259 -712h-126zM455 297l-19 56q-66 196 -92 283h-2q-47 -155 -91 -283l-19 -56h223zM258 902q4 -34 26 -53t59 -19t59 19t26 53h81q-5 -70 -48.5 -108.5t-117.5 -38.5q-73 0 -116.5 38.5t-48.5 108.5h80z" />
    <glyph glyph-name="abreve" unicode="&#x103;" horiz-adv-x="539" 
d="M362 335q0 105 -99 105q-45 0 -71.5 -23.5t-28.5 -65.5h-112q4 78 59.5 125t152.5 47q102 0 155.5 -50t53.5 -149v-190q0 -83 13 -134h-103q-7 29 -7 71h-2q-55 -82 -171 -82q-79 0 -125 43q-47 42 -47 108t45.5 104.5t149.5 55.5q65 11 137 15v20zM375 604
q-43 -39 -118 -39q-73 0 -116.5 38.5t-48.5 108.5h80q4 -34 26 -53t59 -19t59 19t26 53h81q-5 -70 -48 -108zM362 241q-69 -5 -117 -13q-55 -9 -77.5 -27t-22.5 -53q0 -34 24 -54.5t66 -20.5q58 0 92 34q20 21 27.5 44.5t7.5 64.5v25z" />
    <glyph glyph-name="Aogonek" unicode="&#x104;" horiz-adv-x="687" 
d="M685 -122v-62q-28 -11 -68 -11q-106 0 -106 83q0 31 18 56t60 56h-32l-66 193h-295l-66 -193h-126l259 712h161l259 -712h-1q-72 -50 -72 -95q0 -33 38 -33q20 0 37 6zM251 353l-19 -56h223l-19 56q-66 196 -92 283h-2q-44 -145 -91 -283z" />
    <glyph glyph-name="aogonek" unicode="&#x105;" horiz-adv-x="539" 
d="M413 -95q0 -33 38 -33q21 0 37 6v-62q-28 -11 -68 -11q-106 0 -106 83q0 31 18 56t60 56h-10q-7 29 -7 71h-2q-55 -82 -171 -82q-79 0 -125 43q-47 42 -47 108t45.5 104.5t149.5 55.5q65 11 137 15v20q0 105 -99 105q-45 0 -71.5 -23.5t-28.5 -65.5h-112q4 78 59.5 125
t152.5 47q102 0 155.5 -50t53.5 -149v-190q0 -83 13 -134q-72 -50 -72 -95zM145 148q0 -34 24 -54.5t66 -20.5q58 0 92 34q20 21 27.5 44.5t7.5 64.5v25q-69 -5 -117 -13q-55 -9 -77.5 -27t-22.5 -53z" />
    <glyph glyph-name="Cacute" unicode="&#x106;" horiz-adv-x="695" 
d="M648 468h-121q-8 71 -52.5 111.5t-115.5 40.5q-91 0 -143 -70.5t-52 -193.5t52 -193q51 -71 140 -71q71 0 116.5 41t55.5 114h123q-10 -123 -89 -192q-77 -70 -206 -70q-146 0 -231 100t-85 271t85.5 271t233.5 100q128 0 205.5 -71.5t83.5 -187.5zM364 902h144
l-132 -142h-93z" />
    <glyph glyph-name="cacute" unicode="&#x107;" horiz-adv-x="548" 
d="M514 324h-119q-4 50 -34 79.5t-76 29.5q-60 0 -93.5 -47.5t-33.5 -131.5t33.5 -131.5t93.5 -47.5q45 0 75 33t34 85h120q-7 -92 -70 -150q-61 -58 -159 -58q-112 0 -179.5 73t-67.5 196t67.5 196t179.5 73q95 0 158 -55.5t71 -143.5zM290 712h144l-132 -144h-93z" />
    <glyph glyph-name="Ccircumflex" unicode="&#x108;" horiz-adv-x="695" 
d="M648 468h-121q-8 71 -52.5 111.5t-115.5 40.5q-91 0 -143 -70.5t-52 -193.5t52 -193q51 -71 140 -71q71 0 116.5 41t55.5 114h123q-10 -123 -89 -192q-77 -70 -206 -70q-146 0 -231 100t-85 271t85.5 271t233.5 100q128 0 205.5 -71.5t83.5 -187.5zM183 760l114 142h123
l114 -142h-108l-68 82l-67 -82h-108z" />
    <glyph glyph-name="ccircumflex" unicode="&#x109;" horiz-adv-x="548" 
d="M514 324h-119q-4 50 -34 79.5t-76 29.5q-60 0 -93.5 -47.5t-33.5 -131.5t33.5 -131.5t93.5 -47.5q45 0 75 33t34 85h120q-7 -92 -70 -150q-61 -58 -159 -58q-112 0 -179.5 73t-67.5 196t67.5 196t179.5 73q95 0 158 -55.5t71 -143.5zM110 568l114 144h123l114 -144h-108
l-67 84l-68 -84h-108z" />
    <glyph glyph-name="Cdotaccent" unicode="&#x10a;" horiz-adv-x="695" 
d="M648 468h-121q-8 71 -52.5 111.5t-115.5 40.5q-91 0 -143 -70.5t-52 -193.5t52 -193q51 -71 140 -71q71 0 116.5 41t55.5 114h123q-10 -123 -89 -192q-77 -70 -206 -70q-146 0 -231 100t-85 271t85.5 271t233.5 100q128 0 205.5 -71.5t83.5 -187.5zM416 878v-109h-114
v109h114z" />
    <glyph glyph-name="cdotaccent" unicode="&#x10b;" horiz-adv-x="548" 
d="M514 324h-119q-4 50 -34 79.5t-76 29.5q-60 0 -93.5 -47.5t-33.5 -131.5t33.5 -131.5t93.5 -47.5q45 0 75 33t34 85h120q-7 -92 -70 -150q-61 -58 -159 -58q-112 0 -179.5 73t-67.5 196t67.5 196t179.5 73q95 0 158 -55.5t71 -143.5zM342 712v-109h-114v109h114z" />
    <glyph glyph-name="Ccaron" unicode="&#x10c;" horiz-adv-x="695" 
d="M648 468h-121q-8 71 -52.5 111.5t-115.5 40.5q-91 0 -143 -70.5t-52 -193.5t52 -193q51 -71 140 -71q71 0 116.5 41t55.5 114h123q-10 -123 -89 -192q-77 -70 -206 -70q-146 0 -231 100t-85 271t85.5 271t233.5 100q128 0 205.5 -71.5t83.5 -187.5zM183 902h108l68 -82
l67 82h108l-114 -142h-123z" />
    <glyph glyph-name="ccaron" unicode="&#x10d;" horiz-adv-x="548" 
d="M514 324h-119q-4 50 -34 79.5t-76 29.5q-60 0 -93.5 -47.5t-33.5 -131.5t33.5 -131.5t93.5 -47.5q45 0 75 33t34 85h120q-7 -92 -70 -150q-61 -58 -159 -58q-112 0 -179.5 73t-67.5 196t67.5 196t179.5 73q95 0 158 -55.5t71 -143.5zM110 712h108l68 -84l67 84h108
l-114 -144h-123z" />
    <glyph glyph-name="Dcaron" unicode="&#x10e;" horiz-adv-x="729" 
d="M689 356q0 -171 -97 -263.5t-276 -92.5h-228v712h228q179 0 276 -92.5t97 -263.5zM314 104q251 0 251 252t-251 252h-107v-504h107zM264 902l68 -82l67 82h108l-114 -142h-123l-114 142h108z" />
    <glyph glyph-name="dcaron" unicode="&#x10f;" horiz-adv-x="587" 
d="M38 254q0 121 57.5 194t153.5 73q48 0 87.5 -21t61.5 -58h2v270h114v-712h-111v70h-2q-22 -39 -62 -60.5t-89 -21.5q-97 0 -154.5 72.5t-57.5 193.5zM191 125q34 -49 92 -49q56 0 89.5 48t33.5 130q0 83 -33 130.5t-90 47.5q-58 0 -92 -48.5t-34 -129.5q0 -82 34 -129z
M611 535h-66l28 177h95z" />
    <glyph glyph-name="Dcroat" unicode="&#x110;" horiz-adv-x="729" 
d="M689 356q0 -171 -97 -263.5t-276 -92.5h-228v316h-64v89h64v307h228q179 0 276 -92.5t97 -263.5zM207 405h184v-89h-184v-212h107q251 0 251 252t-251 252h-107v-203z" />
    <glyph glyph-name="dcroat" unicode="&#x111;" horiz-adv-x="580" 
d="M514 642h65v-64h-65v-578h-111v70h-2q-22 -39 -62 -60.5t-89 -21.5q-97 0 -154.5 72.5t-57.5 193.5t57.5 194t153.5 73q48 0 87.5 -21t61.5 -58h2v136h-126v64h126v70h114v-70zM191 384q-34 -49 -34 -130q0 -82 34 -129q34 -49 92 -49q56 0 89.5 48t33.5 130
q0 83 -33 130.5t-90 47.5t-92 -48z" />
    <glyph glyph-name="Emacron" unicode="&#x112;" horiz-adv-x="625" 
d="M88 712h476v-104h-356v-193h334v-103h-334v-208h366v-104h-486v712zM173 861h305v-78h-305v78z" />
    <glyph glyph-name="emacron" unicode="&#x113;" horiz-adv-x="562" 
d="M524 231h-373q3 -80 38.5 -121t94.5 -41q47 0 78 22.5t39 61.5h117q-15 -72 -77 -120q-61 -48 -157 -48q-114 0 -180 75.5t-66 199.5q0 116 66 189.5t178 73.5q86 0 146.5 -46t81.5 -127q14 -47 14 -119zM410 306q-6 64 -40 98.5t-88 34.5t-88 -34.5t-41 -98.5h257z
M433 685v-78h-305v78h305z" />
    <glyph glyph-name="Ebreve" unicode="&#x114;" horiz-adv-x="625" 
d="M574 0h-486v712h476v-104h-356v-193h334v-103h-334v-208h366v-104zM241 902q4 -34 26 -53t59 -19t59 19t26 53h81q-5 -70 -48.5 -108.5t-117.5 -38.5q-73 0 -116.5 38.5t-48.5 108.5h80z" />
    <glyph glyph-name="ebreve" unicode="&#x115;" horiz-adv-x="562" 
d="M524 231h-373q3 -80 38.5 -121t94.5 -41q47 0 78 22.5t39 61.5h117q-15 -72 -77 -120q-61 -48 -157 -48q-114 0 -180 75.5t-66 199.5q0 116 66 189.5t178 73.5q86 0 146.5 -46t81.5 -127q14 -47 14 -119zM195 712q4 -34 26 -53t59 -19t59 19t26 53h81
q-5 -70 -48.5 -108.5t-117.5 -38.5q-73 0 -116.5 38.5t-48.5 108.5h80zM153 306h257q-6 64 -40 98.5t-88 34.5t-88 -34.5t-41 -98.5z" />
    <glyph glyph-name="Edotaccent" unicode="&#x116;" horiz-adv-x="625" 
d="M88 712h476v-104h-356v-193h334v-103h-334v-208h366v-104h-486v712zM383 878v-109h-114v109h114z" />
    <glyph glyph-name="edotaccent" unicode="&#x117;" horiz-adv-x="562" 
d="M524 231h-373q3 -80 38.5 -121t94.5 -41q47 0 78 22.5t39 61.5h117q-15 -72 -77 -120q-61 -48 -157 -48q-114 0 -180 75.5t-66 199.5q0 116 66 189.5t178 73.5q86 0 146.5 -46t81.5 -127q14 -47 14 -119zM153 306h257q-6 64 -40 98.5t-88 34.5t-88 -34.5t-41 -98.5z
M337 712v-109h-114v109h114z" />
    <glyph glyph-name="Eogonek" unicode="&#x118;" horiz-adv-x="625" 
d="M577 -122v-62q-28 -11 -68 -11q-106 0 -106 83q0 31 18 56t60 56h-393v712h476v-104h-356v-193h334v-103h-334v-208h366v-104q-72 -50 -72 -95q0 -33 38 -33q20 0 37 6z" />
    <glyph glyph-name="eogonek" unicode="&#x119;" horiz-adv-x="562" 
d="M441 -122v-62q-28 -11 -68 -11q-106 0 -106 83q0 53 54 98v2q-16 -3 -37 -3q-114 0 -180 75.5t-66 199.5q0 116 66 189.5t178 73.5q86 0 146.5 -46t81.5 -127q14 -47 14 -119h-373q3 -80 38.5 -121t94.5 -41q47 0 78 22.5t39 61.5h117q-13 -65 -79 -129q-41 -36 -57 -62
t-16 -53q0 -37 38 -37q20 0 37 6zM195 405q-35 -35 -42 -99h257q-6 64 -40 98.5t-88 34.5q-53 0 -87 -34z" />
    <glyph glyph-name="Ecaron" unicode="&#x11a;" horiz-adv-x="625" 
d="M574 0h-486v712h476v-104h-356v-193h334v-103h-334v-208h366v-104zM258 902l68 -82l67 82h108l-114 -142h-123l-114 142h108z" />
    <glyph glyph-name="ecaron" unicode="&#x11b;" horiz-adv-x="562" 
d="M524 231h-373q3 -80 38.5 -121t94.5 -41q47 0 78 22.5t39 61.5h117q-15 -72 -77 -120q-61 -48 -157 -48q-114 0 -180 75.5t-66 199.5q0 116 66 189.5t178 73.5q86 0 146.5 -46t81.5 -127q14 -47 14 -119zM213 712l68 -84l67 84h108l-114 -144h-123l-114 144h108zM410 306
q-6 64 -40 98.5t-88 34.5t-88 -34.5t-41 -98.5h257z" />
    <glyph glyph-name="Gcircumflex" unicode="&#x11c;" horiz-adv-x="737" 
d="M660 494h-128q-11 61 -52.5 93.5t-109.5 32.5q-94 0 -150 -71q-56 -73 -56 -196q0 -125 54 -197t147 -72q86 0 133 50.5t48 150.5h-182v100h294v-385h-103v88h-2q-29 -47 -86 -74t-129 -27q-137 0 -217.5 98t-80.5 268q0 173 89 273.5t241 100.5q126 0 203 -63
q76 -63 87 -170zM301 902h123l114 -142h-108l-68 82l-67 -82h-108z" />
    <glyph glyph-name="gcircumflex" unicode="&#x11d;" horiz-adv-x="582" 
d="M398 36v50h-2q-54 -80 -147 -80q-96 0 -153.5 70t-57.5 188t58 188t155 70q92 0 148 -85h2v71h108v-476q0 -111 -60 -168t-171 -57q-101 0 -157.5 42.5t-60.5 118.5h114q2 -37 30 -57t76 -20q60 0 89 34.5t29 110.5zM157 264q0 -75 32.5 -119.5t87.5 -44.5
q58 0 91.5 44.5t33.5 119.5t-33.5 119t-91.5 44q-55 0 -87.5 -44t-32.5 -119zM100 568l114 144h123l114 -144h-108l-67 84l-68 -84h-108z" />
    <glyph glyph-name="Gbreve" unicode="&#x11e;" horiz-adv-x="737" 
d="M553 88q-29 -47 -86 -74t-129 -27q-137 0 -217.5 98t-80.5 268q0 173 89 273.5t241 100.5q126 0 203 -63q76 -63 87 -170h-128q-11 61 -52.5 93.5t-109.5 32.5q-94 0 -150 -71q-56 -73 -56 -196q0 -125 54 -197t147 -72q86 0 133 50.5t48 150.5h-182v100h294v-385h-103
v88h-2zM198 902h80q4 -34 26 -53t59 -19t59 19t26 53h81q-5 -70 -48.5 -108.5t-117.5 -38.5q-73 0 -116.5 38.5t-48.5 108.5z" />
    <glyph glyph-name="gbreve" unicode="&#x11f;" horiz-adv-x="582" 
d="M398 36v50h-2q-54 -80 -147 -80q-96 0 -153.5 70t-57.5 188t58 188t155 70q92 0 148 -85h2v71h108v-476q0 -111 -60 -168t-171 -57q-101 0 -157.5 42.5t-60.5 118.5h114q2 -37 30 -57t76 -20q60 0 89 34.5t29 110.5zM369 383q-35 44 -92 44q-55 0 -87.5 -44t-32.5 -119
t32.5 -119.5t87.5 -44.5q58 0 91.5 44.5t33.5 119.5q0 76 -33 119zM393 604q-43 -39 -118 -39q-73 0 -116.5 38.5t-48.5 108.5h80q4 -34 26 -53t59 -19t59 19t26 53h81q-5 -70 -48 -108z" />
    <glyph glyph-name="Gdotaccent" unicode="&#x120;" horiz-adv-x="737" 
d="M658 0h-103v88h-2q-29 -47 -86 -74t-129 -27q-137 0 -217.5 98t-80.5 268q0 173 89 273.5t241 100.5q126 0 203 -63q76 -63 87 -170h-128q-11 61 -52.5 93.5t-109.5 32.5q-94 0 -150 -71q-56 -73 -56 -196q0 -125 54 -197t147 -72q86 0 133 50.5t48 150.5h-182v100h294
v-385zM420 878v-109h-114v109h114z" />
    <glyph glyph-name="gdotaccent" unicode="&#x121;" horiz-adv-x="582" 
d="M398 86h-2q-54 -80 -147 -80q-96 0 -153.5 70t-57.5 188t58 188t155 70q92 0 148 -85h2v71h108v-476q0 -111 -60 -168t-171 -57q-101 0 -157.5 42.5t-60.5 118.5h114q2 -37 30 -57t76 -20q60 0 89 34.5t29 110.5v50zM190 145q32 -45 87 -45q58 0 91.5 44.5t33.5 119.5
t-33.5 119t-91.5 44q-55 0 -87.5 -44t-32.5 -119q0 -76 33 -119zM333 712v-109h-114v109h114z" />
    <glyph glyph-name="Gcommaaccent" unicode="&#x122;" horiz-adv-x="737" 
d="M660 494h-128q-11 61 -52.5 93.5t-109.5 32.5q-94 0 -150 -71q-56 -73 -56 -196q0 -125 54 -197t147 -72q86 0 133 50.5t48 150.5h-182v100h294v-385h-103v88h-2q-29 -47 -86 -74t-129 -27q-137 0 -217.5 98t-80.5 268q0 173 89 273.5t241 100.5q126 0 203 -63
q76 -63 87 -170zM307 -264l42 106h-40v96h107v-96l-62 -106h-47z" />
    <glyph glyph-name="gcommaaccent" unicode="&#x123;" horiz-adv-x="582" 
d="M396 86q-54 -80 -147 -80q-96 0 -153.5 70t-57.5 188t58 188t155 70q92 0 148 -85h2v71h108v-476q0 -111 -60 -168t-171 -57q-101 0 -157.5 42.5t-60.5 118.5h114q2 -37 30 -57t76 -20q60 0 89 34.5t29 110.5v50h-2zM402 264q0 75 -33.5 119t-91.5 44q-55 0 -87.5 -44
t-32.5 -119t32.5 -119.5t87.5 -44.5q58 0 91.5 44.5t33.5 119.5zM283 782h47l-42 -106h39v-96h-106v96z" />
    <glyph glyph-name="Hcircumflex" unicode="&#x124;" horiz-adv-x="744" 
d="M655 0h-119v318h-328v-318h-120v712h120v-290h328v290h119v-712zM196 760l114 142h123l114 -142h-108l-68 82l-67 -82h-108z" />
    <glyph glyph-name="hcircumflex" unicode="&#x125;" 
d="M520 0h-114v301q0 127 -103 127q-52 0 -84 -39t-32 -107v-282h-114v712h114v-264h2q53 72 146 72q89 0 137 -53.5t48 -155.5v-311zM232 902h123l114 -142h-108l-68 82l-67 -82h-108z" />
    <glyph glyph-name="Hbar" unicode="&#x126;" horiz-adv-x="744" 
d="M712 636v-65h-57v-571h-119v318h-328v-318h-120v571h-56v65h56v76h120v-76h328v76h119v-76h57zM536 571h-328v-149h328v149z" />
    <glyph glyph-name="hbar" unicode="&#x127;" 
d="M520 311v-311h-114v301q0 127 -103 127q-52 0 -84 -39t-32 -107v-282h-114v578h-72v58h72v76h114v-76h119v-58h-119v-130h2q53 72 146 72q89 0 137 -53.5t48 -155.5z" />
    <glyph glyph-name="Itilde" unicode="&#x128;" horiz-adv-x="296" 
d="M208 712v-712h-120v712h120zM297 807q-29 -33 -78 -33q-33 0 -82 28q-35 21 -55 21q-40 0 -46 -49h-68q3 59 32 92t78 33q31 0 82 -28q37 -20 54 -20q41 0 46 48h68q-3 -60 -31 -92z" />
    <glyph glyph-name="itilde" unicode="&#x129;" horiz-adv-x="260" 
d="M187 508v-508h-114v508h114zM260 617q-27 -33 -72 -33q-33 0 -70 29q-30 21 -46 21q-36 0 -41 -50h-59q3 60 29 92.5t71 32.5q33 0 70 -29q30 -21 46 -21q36 0 41 50h60q-3 -58 -29 -92z" />
    <glyph glyph-name="Imacron" unicode="&#x12a;" horiz-adv-x="296" 
d="M88 712h120v-712h-120v712zM-4 861h305v-78h-305v78z" />
    <glyph glyph-name="imacron" unicode="&#x12b;" horiz-adv-x="260" 
d="M73 508h114v-508h-114v508zM-6 688h271v-78h-271v78z" />
    <glyph glyph-name="Ibreve" unicode="&#x12c;" horiz-adv-x="296" 
d="M208 712v-712h-120v712h120zM63 902q4 -34 26 -53t59 -19t59 19t26 53h81q-5 -70 -48.5 -108.5t-117.5 -38.5q-73 0 -116.5 38.5t-48.5 108.5h80z" />
    <glyph glyph-name="ibreve" unicode="&#x12d;" horiz-adv-x="260" 
d="M187 508v-508h-114v508h114zM56 712q6 -75 74 -75t73 75h76q-3 -69 -42 -108t-107 -39t-107 38.5t-42 108.5h75z" />
    <glyph glyph-name="Iogonek" unicode="&#x12e;" horiz-adv-x="296" 
d="M64 -174q-27 22 -27 62q0 31 18 56t60 56h-27v712h120v-712q-72 -50 -72 -95q0 -33 38 -33q20 0 37 6v-62q-28 -11 -68 -11q-53 0 -79 21z" />
    <glyph glyph-name="iogonek" unicode="&#x12f;" horiz-adv-x="260" 
d="M190 -122v-62q-28 -11 -68 -11q-106 0 -106 83q0 31 18 56t60 56h-21v508h114v-508q-72 -50 -72 -95q0 -33 38 -33q21 0 37 6zM73 712h114v-109h-114v109z" />
    <glyph glyph-name="Idotaccent" unicode="&#x130;" horiz-adv-x="296" 
d="M88 0v712h120v-712h-120zM205 878v-109h-114v109h114z" />
    <glyph glyph-name="dotlessi" unicode="&#x131;" horiz-adv-x="260" 
d="M73 0v508h114v-508h-114z" />
    <glyph glyph-name="IJ" unicode="&#x132;" horiz-adv-x="670" 
d="M311 1v103q19 -4 45 -4q59 0 85 30.5t26 106.5v475h120v-496q0 -113 -53.5 -167.5t-165.5 -54.5q-33 0 -57 7zM88 0v712h120v-712h-120z" />
    <glyph glyph-name="ij" unicode="&#x133;" horiz-adv-x="524" 
d="M451 508v-528q0 -170 -160 -170q-29 0 -58 7v85q13 -3 28 -3q40 0 58 22t18 74v513h114zM187 0h-114v508h114v-508zM337 712h114v-109h-114v109zM73 603v109h114v-109h-114z" />
    <glyph glyph-name="Jcircumflex" unicode="&#x134;" horiz-adv-x="374" 
d="M145 130q26 31 26 107v475h120v-496q0 -113 -53.5 -167.5t-165.5 -54.5q-33 0 -57 7v103q19 -4 45 -4q58 0 85 30zM55 760l114 142h123l114 -142h-108l-68 82l-67 -82h-108z" />
    <glyph glyph-name="jcircumflex" unicode="&#x135;" horiz-adv-x="264" 
d="M-27 -183v85q13 -3 28 -3q40 0 58 22t18 74v513h114v-528q0 -170 -160 -170q-29 0 -58 7zM-27 569l101 143h119l101 -143h-102l-58 85l-58 -85h-103z" />
    <glyph glyph-name="Kcommaaccent" unicode="&#x136;" horiz-adv-x="644" 
d="M485 0l-275 343h-2v-343h-120v712h120v-317h2l260 317h144l-291 -339l317 -373h-155zM274 -264l42 106h-40v96h107v-96l-62 -106h-47z" />
    <glyph glyph-name="kcommaaccent" unicode="&#x137;" horiz-adv-x="522" 
d="M387 0l-198 246h-2v-246h-114v712h114v-412h2l185 208h133l-210 -232l234 -276h-144zM227 -264l42 106h-40v96h107v-96l-62 -106h-47z" />
    <glyph glyph-name="kgreenlandic" unicode="&#x138;" horiz-adv-x="539" 
d="M73 508h114v-208h2l185 208h133l-210 -232l234 -276h-144l-198 246h-2v-246h-114v508z" />
    <glyph glyph-name="Lacute" unicode="&#x139;" horiz-adv-x="568" 
d="M208 712v-608h350v-104h-470v712h120zM103 760l81 142h144l-132 -142h-93z" />
    <glyph glyph-name="lacute" unicode="&#x13a;" horiz-adv-x="260" 
d="M187 712v-712h-114v712h114zM71 772l81 144h144l-132 -144h-93z" />
    <glyph glyph-name="Lcommaaccent" unicode="&#x13b;" horiz-adv-x="568" 
d="M88 0v712h120v-608h350v-104h-470zM310 -158h-40v96h107v-96l-62 -106h-47z" />
    <glyph glyph-name="lcommaaccent" unicode="&#x13c;" horiz-adv-x="260" 
d="M187 712v-712h-114v712h114zM75 -264l42 106h-40v96h107v-96l-62 -106h-47z" />
    <glyph glyph-name="Lcaron" unicode="&#x13d;" horiz-adv-x="568" 
d="M208 712v-608h350v-104h-470v712h120zM285 712h95l-57 -221h-66z" />
    <glyph glyph-name="lcaron" unicode="&#x13e;" horiz-adv-x="260" 
d="M73 0v712h114v-712h-114zM247 712h95l-57 -177h-66z" />
    <glyph glyph-name="Ldot" unicode="&#x13f;" horiz-adv-x="648" 
d="M88 0v712h120v-608h350v-104h-470zM533 493v-141h-132v141h132z" />
    <glyph glyph-name="ldot" unicode="&#x140;" horiz-adv-x="441" 
d="M187 712v-712h-114v712h114zM417 426v-141h-132v141h132z" />
    <glyph glyph-name="Lslash" unicode="&#x141;" horiz-adv-x="568" 
d="M14 350l74 44v318h120v-255l143 86v-103l-143 -86v-250h350v-104h-470v292l-74 -44v102z" />
    <glyph glyph-name="lslash" unicode="&#x142;" horiz-adv-x="309" 
d="M10 352l87 52v308h114v-254l88 52v-97l-88 -52v-361h-114v307l-87 -52v97z" />
    <glyph glyph-name="Nacute" unicode="&#x143;" horiz-adv-x="766" 
d="M677 0h-172l-154 298q-74 145 -151 306h-2q6 -162 6 -324v-280h-116v712h173l153 -298q74 -145 151 -306h2q-5 200 -5 324v280h115v-712zM307 760l81 142h144l-132 -142h-93z" />
    <glyph glyph-name="nacute" unicode="&#x144;" 
d="M520 0h-114v301q0 127 -103 127q-52 0 -84 -39t-32 -107v-282h-114v508h108v-66h2q54 78 152 78q89 0 137 -53.5t48 -155.5v-311zM221 568l81 144h144l-132 -144h-93z" />
    <glyph glyph-name="Ncommaaccent" unicode="&#x145;" horiz-adv-x="766" 
d="M677 0h-172l-154 298q-74 145 -151 306h-2q6 -162 6 -324v-280h-116v712h173l153 -298q74 -145 151 -306h2q-5 200 -5 324v280h115v-712zM370 -158h-40v96h107v-96l-62 -106h-47z" />
    <glyph glyph-name="ncommaaccent" unicode="&#x146;" 
d="M520 0h-114v301q0 127 -103 127q-52 0 -84 -39t-32 -107v-282h-114v508h108v-66h2q54 78 152 78q89 0 137 -53.5t48 -155.5v-311zM283 -158h-40v96h107v-96l-62 -106h-47z" />
    <glyph glyph-name="Ncaron" unicode="&#x147;" horiz-adv-x="766" 
d="M677 0h-172l-154 298q-74 145 -151 306h-2q6 -162 6 -324v-280h-116v712h173l153 -298q74 -145 151 -306h2q-5 200 -5 324v280h115v-712zM315 902l68 -82l67 82h108l-114 -142h-123l-114 142h108z" />
    <glyph glyph-name="ncaron" unicode="&#x148;" 
d="M520 0h-114v301q0 127 -103 127q-52 0 -84 -39t-32 -107v-282h-114v508h108v-66h2q54 78 152 78q89 0 137 -53.5t48 -155.5v-311zM121 712h108l68 -84l67 84h108l-114 -144h-123z" />
    <glyph glyph-name="napostrophe" unicode="&#x149;" horiz-adv-x="722" 
d="M654 0h-114v301q0 127 -103 127q-52 0 -84 -39t-32 -107v-282h-114v508h108v-66h2q54 78 152 78q89 0 137 -53.5t48 -155.5v-311zM63 447l41 140h-39v125h115v-125l-55 -140h-62z" />
    <glyph glyph-name="Eng" unicode="&#x14a;" horiz-adv-x="745" 
d="M657 712v-737q0 -84 -42 -125.5t-119 -41.5q-29 0 -58 7v85q15 -3 30 -3q39 0 56.5 20.5t17.5 67.5v15l-194 324q-80 132 -149 261h-2q7 -125 7 -285v-300h-116v712h155l154 -258q83 -140 149 -262h2q-7 125 -7 285v235h116z" />
    <glyph glyph-name="eng" unicode="&#x14b;" 
d="M520 298v-320q0 -167 -160 -167q-34 0 -58 7v85q14 -3 28 -3q40 0 58 21t18 71v296q0 80 -29 113q-25 28 -73 28q-52 0 -84.5 -38.5t-32.5 -108.5v-282h-114v508h109v-66h2q53 78 154 78q84 0 130 -49q52 -52 52 -173z" />
    <glyph glyph-name="Omacron" unicode="&#x14c;" horiz-adv-x="740" 
d="M660 159q-40 -84 -114.5 -129t-175.5 -45q-152 0 -241 100t-89 271t89 271t241 100t241 -100t89 -271q0 -116 -40 -197zM220 163q56 -71 150 -71q95 0 151 71q55 70 55 193t-55 193q-56 71 -151 71q-94 0 -150 -71t-56 -193t56 -193zM522 861v-78h-305v78h305z" />
    <glyph glyph-name="omacron" unicode="&#x14d;" horiz-adv-x="577" 
d="M509 112q-31 -61 -88 -94t-132 -33q-115 0 -183 73t-68 196t68 196t183 73t182.5 -73t67.5 -196q0 -82 -30 -142zM158 254q0 -83 35 -131t96 -48t96 48t35 131t-35 131t-96 48t-96 -48t-35 -131zM136 685h305v-78h-305v78z" />
    <glyph glyph-name="Obreve" unicode="&#x14e;" horiz-adv-x="740" 
d="M660 159q-40 -84 -114.5 -129t-175.5 -45q-152 0 -241 100t-89 271t89 271t241 100t241 -100t89 -271q0 -116 -40 -197zM220 163q56 -71 150 -71q95 0 151 71q55 70 55 193t-55 193q-56 71 -151 71q-94 0 -150 -71t-56 -193t56 -193zM285 902q4 -34 26 -53t59 -19t59 19
t26 53h81q-5 -70 -48.5 -108.5t-117.5 -38.5q-73 0 -116.5 38.5t-48.5 108.5h80z" />
    <glyph glyph-name="obreve" unicode="&#x14f;" horiz-adv-x="577" 
d="M509 112q-31 -61 -88 -94t-132 -33q-115 0 -183 73t-68 196t68 196t183 73t182.5 -73t67.5 -196q0 -82 -30 -142zM158 254q0 -83 35 -131t96 -48t96 48t35 131t-35 131t-96 48t-96 -48t-35 -131zM123 712h80q4 -34 26 -53t59 -19t59 19t26 53h81q-5 -70 -48.5 -108.5
t-117.5 -38.5q-73 0 -116.5 38.5t-48.5 108.5z" />
    <glyph glyph-name="Ohungarumlaut" unicode="&#x150;" horiz-adv-x="740" 
d="M660 159q-40 -84 -114.5 -129t-175.5 -45q-152 0 -241 100t-89 271t89 271t241 100t241 -100t89 -271q0 -116 -40 -197zM164 356q0 -122 56 -193t150 -71q95 0 151 71q55 70 55 193t-55 193q-56 71 -151 71q-94 0 -150 -71t-56 -193zM375 758l101 144h129l-138 -144h-92z
M200 758l101 144h129l-138 -144h-92z" />
    <glyph glyph-name="ohungarumlaut" unicode="&#x151;" horiz-adv-x="577" 
d="M539 254q0 -123 -67.5 -196t-182.5 -73t-183 73t-68 196t68 196t183 73t182.5 -73t67.5 -196zM158 254q0 -83 35 -131t96 -48t96 48t35 131t-35 131t-96 48t-96 -48t-35 -131zM409 712h129l-138 -144h-92zM234 712h129l-138 -144h-92z" />
    <glyph glyph-name="OE" unicode="&#x152;" horiz-adv-x="1010" 
d="M958 104v-104h-544q-179 0 -276.5 92.5t-97.5 263.5t97.5 263.5t276.5 92.5h534v-104h-356v-193h334v-103h-334v-208h366zM227 545q-63 -65 -63 -189q0 -252 250 -252h58v504h-58q-124 0 -187 -63z" />
    <glyph glyph-name="oe" unicode="&#x153;" horiz-adv-x="913" 
d="M716 92q28 22 36 61h116q-14 -73 -75 -120.5t-152 -47.5q-116 0 -178 88q-63 -88 -179 -88q-112 0 -179 73t-67 196t67 196t179 73q117 0 178 -87q62 87 177 87q83 0 142.5 -46.5t80.5 -126.5q13 -51 13 -119h-360q2 -80 36 -121t90 -41q44 0 75 23zM192 385
q-34 -47 -34 -131q0 -83 34 -131t92 -48t92 48.5t34 130.5t-34 130.5t-92 48.5t-92 -48zM761 306q-5 64 -37.5 98.5t-84.5 34.5q-51 0 -83 -34.5t-39 -98.5h244z" />
    <glyph glyph-name="Racute" unicode="&#x154;" horiz-adv-x="653" 
d="M634 0h-131l-60 179q-21 62 -49 84q-29 23 -83 23h-103v-286h-120v712h245q254 0 254 -197q0 -67 -35.5 -114t-96.5 -62v-2q39 -14 60 -41q22 -28 46 -95zM327 384q139 0 139 116q0 113 -146 113h-112v-229h119zM244 760l81 142h144l-132 -142h-93z" />
    <glyph glyph-name="racute" unicode="&#x155;" horiz-adv-x="377" 
d="M73 508h106v-75h2q51 82 145 82q17 0 42 -5v-101q-17 4 -40 4q-68 0 -104.5 -42.5t-36.5 -121.5v-249h-114v508zM213 712h144l-132 -144h-93z" />
    <glyph glyph-name="Rcommaaccent" unicode="&#x156;" horiz-adv-x="653" 
d="M634 0h-131l-60 179q-21 62 -49 84q-29 23 -83 23h-103v-286h-120v712h245q254 0 254 -197q0 -67 -35.5 -114t-96.5 -62v-2q39 -14 60 -41q22 -28 46 -95zM327 384q139 0 139 116q0 113 -146 113h-112v-229h119zM330 -158h-40v96h107v-96l-62 -106h-47z" />
    <glyph glyph-name="rcommaaccent" unicode="&#x157;" horiz-adv-x="377" 
d="M368 409q-17 4 -40 4q-68 0 -104.5 -42.5t-36.5 -121.5v-249h-114v508h106v-75h2q51 82 145 82q17 0 42 -5v-101zM75 -264l42 106h-40v96h107v-96l-62 -106h-47z" />
    <glyph glyph-name="Rcaron" unicode="&#x158;" horiz-adv-x="653" 
d="M634 0h-131l-60 179q-21 62 -49 84q-29 23 -83 23h-103v-286h-120v712h245q254 0 254 -197q0 -67 -35.5 -114t-96.5 -62v-2q39 -14 60 -41q22 -28 46 -95zM208 384h119q139 0 139 116q0 113 -146 113h-112v-229zM144 902h108l68 -82l67 82h108l-114 -142h-123z" />
    <glyph glyph-name="rcaron" unicode="&#x159;" horiz-adv-x="377" 
d="M368 409q-17 4 -40 4q-68 0 -104.5 -42.5t-36.5 -121.5v-249h-114v508h106v-75h2q51 82 145 82q17 0 42 -5v-101zM32 712h108l68 -84l67 84h108l-114 -144h-123z" />
    <glyph glyph-name="Sacute" unicode="&#x15a;" horiz-adv-x="620" 
d="M451 12q-61 -27 -140 -27q-132 0 -204.5 65t-72.5 185h123q0 -75 40 -113t115 -38q66 0 103.5 29t37.5 79q0 62 -65 87q-28 10 -96 28q-85 21 -134 42q-50 21 -81 63q-32 41 -32 111q0 91 69 147.5t181 56.5q129 0 195.5 -59.5t66.5 -174.5h-121q0 66 -37 101t-106 35
q-58 0 -91.5 -25.5t-33.5 -69.5q3 -47 34.5 -68t128.5 -45q78 -19 133 -41q52 -23 82 -64q31 -41 31 -113q0 -65 -33 -114.5t-93 -76.5zM300 902h144l-132 -142h-93z" />
    <glyph glyph-name="sacute" unicode="&#x15b;" horiz-adv-x="509" 
d="M444 229q26 -34 26 -89q0 -70 -58 -112q-58 -43 -155 -43q-105 0 -162 46.5t-58 135.5h116q0 -47 27.5 -72t78.5 -25q43 0 67.5 17t24.5 46q0 44 -50 63q-25 8 -78 21q-63 16 -92 28q-34 13 -58 43t-24 83q0 68 55 110t144 42q99 0 152 -44.5t54 -128.5h-110q0 90 -97 90
q-40 0 -62 -16t-22 -44q0 -37 45 -53q30 -10 70 -20q55 -14 103 -31q35 -15 63 -47zM172 568l81 144h144l-132 -144h-93z" />
    <glyph glyph-name="Scircumflex" unicode="&#x15c;" horiz-adv-x="620" 
d="M436 247q-16 19 -46 31t-98 29q-85 21 -134 42q-50 21 -81 63q-32 41 -32 111q0 91 69 147.5t181 56.5q129 0 195.5 -59.5t66.5 -174.5h-121q0 66 -37 101t-106 35q-58 0 -91.5 -25.5t-33.5 -69.5q3 -47 34.5 -68t128.5 -45q78 -19 133 -41q52 -23 82 -64q31 -41 31 -113
q0 -98 -73.5 -158t-192.5 -60q-132 0 -204.5 65t-72.5 185h123q0 -75 40 -113t115 -38q66 0 103.5 29t37.5 79q0 35 -17 55zM119 760l114 142h123l114 -142h-108l-68 82l-67 -82h-108z" />
    <glyph glyph-name="scircumflex" unicode="&#x15d;" horiz-adv-x="509" 
d="M338 173q-12 14 -35 22t-80 22q-63 16 -92 28q-34 13 -58 43t-24 83q0 68 55 110t144 42q99 0 152 -44.5t54 -128.5h-110q0 90 -97 90q-40 0 -62 -16t-22 -44q0 -37 45 -53q30 -10 70 -20q55 -14 103 -31q35 -15 63 -47q26 -34 26 -89q0 -70 -58 -112q-58 -43 -155 -43
q-105 0 -162 46.5t-58 135.5h116q0 -47 27.5 -72t78.5 -25q43 0 67.5 17t24.5 46q0 26 -13 40zM72 568l114 144h123l114 -144h-108l-67 84l-68 -84h-108z" />
    <glyph glyph-name="Scedilla" unicode="&#x15e;" horiz-adv-x="620" 
d="M331 421q78 -19 133 -41q52 -23 82 -64q31 -41 31 -113q0 -93 -65 -152q-67 -59 -176 -65l-30 -48q8 4 29 4q36 0 59.5 -20.5t23.5 -53.5q0 -40 -31 -65.5t-86 -25.5q-56 0 -109 29l20 40q39 -21 79 -21q53 0 53 38q0 19 -13 29q-14 11 -38 11q-17 0 -32 -6l-19 21l43 68
q-120 6 -185.5 70.5t-65.5 178.5h123q0 -75 40 -113t115 -38q66 0 103.5 29t37.5 79q0 62 -65 87q-28 10 -96 28q-85 21 -134 42q-50 21 -81 63q-32 41 -32 111q0 91 69 147.5t181 56.5q129 0 195.5 -59.5t66.5 -174.5h-121q0 66 -37 101t-106 35q-58 0 -91.5 -25.5
t-33.5 -69.5q3 -47 34.5 -68t128.5 -45z" />
    <glyph glyph-name="scedilla" unicode="&#x15f;" horiz-adv-x="509" 
d="M281 -165q14 11 14 28q0 18 -13.5 29t-37.5 11q-17 0 -32 -6l-19 21l43 68q-96 5 -147 51t-52 130h116q0 -47 27.5 -72t78.5 -25q43 0 67.5 17t24.5 46q0 44 -50 63q-25 8 -78 21q-63 16 -92 28q-34 13 -58 43t-24 83q0 68 55 110t144 42q99 0 152 -44.5t54 -128.5h-110
q0 90 -97 90q-40 0 -62 -16t-22 -44q0 -37 45 -53q30 -10 70 -20q55 -14 103 -31q35 -15 63 -47q26 -34 26 -89q0 -64 -49.5 -105.5t-133.5 -48.5l-30 -48q8 4 29 4q36 0 59.5 -20.5t23.5 -53.5q0 -40 -31 -65.5t-86 -25.5q-56 0 -109 29l20 40q39 -21 79 -21q26 0 39 10z
" />
    <glyph glyph-name="Scaron" unicode="&#x160;" horiz-adv-x="620" 
d="M436 247q-16 19 -46 31t-98 29q-85 21 -134 42q-50 21 -81 63q-32 41 -32 111q0 91 69 147.5t181 56.5q129 0 195.5 -59.5t66.5 -174.5h-121q0 66 -37 101t-106 35q-58 0 -91.5 -25.5t-33.5 -69.5q3 -47 34.5 -68t128.5 -45q78 -19 133 -41q52 -23 82 -64q31 -41 31 -113
q0 -98 -73.5 -158t-192.5 -60q-132 0 -204.5 65t-72.5 185h123q0 -75 40 -113t115 -38q66 0 103.5 29t37.5 79q0 35 -17 55zM119 902h108l68 -82l67 82h108l-114 -142h-123z" />
    <glyph glyph-name="scaron" unicode="&#x161;" horiz-adv-x="509" 
d="M338 173q-12 14 -35 22t-80 22q-63 16 -92 28q-34 13 -58 43t-24 83q0 68 55 110t144 42q99 0 152 -44.5t54 -128.5h-110q0 90 -97 90q-40 0 -62 -16t-22 -44q0 -37 45 -53q30 -10 70 -20q55 -14 103 -31q35 -15 63 -47q26 -34 26 -89q0 -70 -58 -112q-58 -43 -155 -43
q-105 0 -162 46.5t-58 135.5h116q0 -47 27.5 -72t78.5 -25q43 0 67.5 17t24.5 46q0 26 -13 40zM72 712h108l68 -84l67 84h108l-114 -144h-123z" />
    <glyph glyph-name="Tcommaaccent" unicode="&#x162;" horiz-adv-x="607" 
d="M10 608v104h587v-104h-234v-608h-119v608h-234zM249 -264l42 106h-40v96h107v-96l-62 -106h-47z" />
    <glyph glyph-name="tcommaaccent" unicode="&#x163;" horiz-adv-x="339" 
d="M312 92v-89q-32 -9 -64 -9q-81 0 -117.5 36.5t-36.5 119.5v271h-85v87h85v127h114v-127h99v-87h-99v-254q0 -43 16 -61.5t53 -18.5q20 0 35 5zM181 -264h-47l42 106h-40v96h107v-96z" />
    <glyph glyph-name="Tcaron" unicode="&#x164;" horiz-adv-x="607" 
d="M597 712v-104h-234v-608h-119v608h-234v104h587zM128 902h108l68 -82l67 82h108l-114 -142h-123z" />
    <glyph glyph-name="tcaron" unicode="&#x165;" horiz-adv-x="339" 
d="M312 3q-32 -9 -64 -9q-81 0 -117.5 36.5t-36.5 119.5v271h-85v87h85v127h114v-127h99v-87h-99v-254q0 -43 16 -61.5t53 -18.5q20 0 35 5v-89zM268 712h95l-57 -177h-66z" />
    <glyph glyph-name="Tbar" unicode="&#x166;" horiz-adv-x="607" 
d="M244 608h-234v104h587v-104h-234v-204h139v-88h-139v-316h-119v316h-138v88h138v204z" />
    <glyph glyph-name="tbar" unicode="&#x167;" horiz-adv-x="337" 
d="M312 92v-89q-32 -9 -64 -9q-81 0 -117 36.5t-36 119.5v84h-83v71h83v116h-86v87h86v127h113v-127h99v-87h-99v-116h96v-71h-96v-67q0 -43 16 -61.5t53 -18.5q20 0 35 5z" />
    <glyph glyph-name="Utilde" unicode="&#x168;" horiz-adv-x="712" 
d="M629 269q0 -138 -70.5 -211t-202.5 -73t-203 73t-71 211v443h120v-439q0 -89 39.5 -135t114.5 -46t114.5 46t39.5 135v439h119v-443zM176 774q3 59 32 92t78 33q31 0 82 -28q37 -20 54 -20q42 0 46 48h68q-3 -59 -31.5 -92t-77.5 -33q-33 0 -82 28q-35 21 -55 21
q-40 0 -46 -49h-68z" />
    <glyph glyph-name="utilde" unicode="&#x169;" 
d="M515 0h-108v66h-2q-54 -78 -152 -78q-89 0 -137 53.5t-48 155.5v311h114v-301q0 -127 103 -127q52 0 84 39t32 107v282h114v-508zM114 584q3 59 32 92t78 33q31 0 82 -28q35 -21 54 -21q42 0 46 49h68q-3 -59 -31.5 -92t-77.5 -33q-33 0 -82 27q-35 21 -55 21
q-40 0 -46 -48h-68z" />
    <glyph glyph-name="Umacron" unicode="&#x16a;" horiz-adv-x="712" 
d="M629 269q0 -138 -70.5 -211t-202.5 -73t-203 73t-71 211v443h120v-439q0 -89 39.5 -135t114.5 -46t114.5 46t39.5 135v439h119v-443zM203 861h305v-78h-305v78z" />
    <glyph glyph-name="umacron" unicode="&#x16b;" 
d="M515 0h-108v66h-2q-54 -78 -152 -78q-89 0 -137 53.5t-48 155.5v311h114v-301q0 -127 103 -127q52 0 84 39t32 107v282h114v-508zM446 685v-78h-305v78h305z" />
    <glyph glyph-name="Ubreve" unicode="&#x16c;" horiz-adv-x="712" 
d="M629 269q0 -138 -70.5 -211t-202.5 -73t-203 73t-71 211v443h120v-439q0 -89 39.5 -135t114.5 -46t114.5 46t39.5 135v439h119v-443zM191 902h80q4 -34 26 -53t59 -19t59 19t26 53h81q-5 -70 -48.5 -108.5t-117.5 -38.5q-73 0 -116.5 38.5t-48.5 108.5z" />
    <glyph glyph-name="ubreve" unicode="&#x16d;" 
d="M515 0h-108v66h-2q-54 -78 -152 -78q-89 0 -137 53.5t-48 155.5v311h114v-301q0 -127 103 -127q52 0 84 39t32 107v282h114v-508zM209 712q4 -34 26 -53t59 -19t59 19t26 53h81q-5 -70 -48.5 -108.5t-117.5 -38.5q-73 0 -116.5 38.5t-48.5 108.5h80z" />
    <glyph glyph-name="Uring" unicode="&#x16e;" horiz-adv-x="712" 
d="M629 269q0 -138 -70.5 -211t-202.5 -73t-203 73t-71 211v443h120v-439q0 -89 39.5 -135t114.5 -46t114.5 46t39.5 135v439h119v-443zM252 855q0 44 31 74q30 30 73 30q44 0 74 -30.5t30 -73.5t-30 -73q-30 -31 -74 -31q-43 0 -73 31q-31 30 -31 73zM300 855
q0 -23 16.5 -39.5t39.5 -16.5t39.5 16.5t16.5 39.5t-16.5 39.5t-39.5 16.5t-39.5 -16.5t-16.5 -39.5z" />
    <glyph glyph-name="uring" unicode="&#x16f;" 
d="M515 0h-108v66h-2q-54 -78 -152 -78q-89 0 -137 53.5t-48 155.5v311h114v-301q0 -127 103 -127q52 0 84 39t32 107v282h114v-508zM190 665q0 44 31 74q30 30 73 30q44 0 74 -30.5t30 -73.5t-30 -73q-30 -31 -74 -31q-43 0 -73 31q-31 30 -31 73zM255 626q17 -17 39 -17
q23 0 39.5 16.5t16.5 39.5t-16.5 39.5t-39.5 16.5t-39.5 -16.5t-16.5 -39.5q0 -22 17 -39z" />
    <glyph glyph-name="Uhungarumlaut" unicode="&#x170;" horiz-adv-x="712" 
d="M629 269q0 -138 -70.5 -211t-202.5 -73t-203 73t-71 211v443h120v-439q0 -89 39.5 -135t114.5 -46t114.5 46t39.5 135v439h119v-443zM361 758l101 144h129l-138 -144h-92zM186 758l101 144h129l-138 -144h-92z" />
    <glyph glyph-name="uhungarumlaut" unicode="&#x171;" 
d="M515 0h-108v66h-2q-54 -78 -152 -78q-89 0 -137 53.5t-48 155.5v311h114v-301q0 -127 103 -127q52 0 84 39t32 107v282h114v-508zM313 568l101 144h129l-138 -144h-92zM239 712h129l-138 -144h-92z" />
    <glyph glyph-name="Uogonek" unicode="&#x172;" horiz-adv-x="712" 
d="M629 712v-443q0 -166 -114 -256q-71 -54 -71 -101q0 -40 38 -40q20 0 37 6v-62q-28 -11 -68 -11q-106 0 -106 87q0 50 57 96v2q-25 -5 -46 -5q-132 0 -203 73t-71 211v443h120v-439q0 -89 39.5 -135t114.5 -46t114.5 46t39.5 135v439h119z" />
    <glyph glyph-name="uogonek" unicode="&#x173;" 
d="M517 -122v-62q-28 -11 -68 -11q-106 0 -106 83q0 31 18 56t60 56h-14v66h-2q-54 -78 -152 -78q-89 0 -137 53.5t-48 155.5v311h114v-301q0 -127 103 -127q52 0 84 39t32 107v282h114v-508h-1q-72 -50 -72 -95q0 -33 38 -33q20 0 37 6z" />
    <glyph glyph-name="Wcircumflex" unicode="&#x174;" horiz-adv-x="936" 
d="M926 712l-157 -712h-161l-71 296q-36 148 -68 313h-2q-32 -165 -68 -313l-71 -296h-161l-157 712h118l58 -274q39 -180 63 -321h2q40 186 72 322l66 273h158l66 -273q32 -136 72 -322h2q18 105 62 321l59 274h118zM291 760l114 142h123l114 -142h-108l-68 82l-67 -82
h-108z" />
    <glyph glyph-name="wcircumflex" unicode="&#x175;" horiz-adv-x="790" 
d="M784 508l-124 -508h-163l-52 210q-21 84 -49 219h-2q-28 -135 -49 -219l-52 -210h-163l-124 508h114l46 -204q27 -112 46 -225h2q26 123 50 221l51 208h160l51 -208q24 -98 50 -221h2q19 113 46 225l46 204h114zM333 712h123l114 -144h-108l-67 84l-68 -84h-108z" />
    <glyph glyph-name="Ycircumflex" unicode="&#x176;" horiz-adv-x="626" 
d="M622 712l-249 -426v-286h-120v286l-250 426h136l78 -141q55 -100 95 -184h2q47 97 96 184l77 141h135zM137 760l114 142h123l114 -142h-108l-68 82l-67 -82h-108z" />
    <glyph glyph-name="ycircumflex" unicode="&#x177;" horiz-adv-x="488" 
d="M494 508l-196 -530q-36 -96 -84 -132t-138 -36q-33 0 -57 7v93q21 -7 48 -7q46 0 70.5 20t42.5 73l-186 512h122l127 -378h2l131 378h118zM68 568l114 144h123l114 -144h-108l-67 84l-68 -84h-108z" />
    <glyph glyph-name="Ydieresis" unicode="&#x178;" horiz-adv-x="626" 
d="M622 712l-249 -426v-286h-120v286l-250 426h136l78 -141q55 -100 95 -184h2q47 97 96 184l77 141h135zM467 881v-109h-102v109h102zM159 772v109h102v-109h-102z" />
    <glyph glyph-name="Zacute" unicode="&#x179;" horiz-adv-x="574" 
d="M19 109l376 499v2h-362v102h504v-109l-376 -499v-2h394v-102h-536v109zM290 902h144l-132 -142h-93z" />
    <glyph glyph-name="zacute" unicode="&#x17a;" horiz-adv-x="476" 
d="M27 95l274 320v2h-264v91h402v-95l-274 -320v-2h284v-91h-422v95zM235 712h144l-132 -144h-93z" />
    <glyph glyph-name="Zdotaccent" unicode="&#x17b;" horiz-adv-x="574" 
d="M19 109l376 499v2h-362v102h504v-109l-376 -499v-2h394v-102h-536v109zM342 878v-109h-114v109h114z" />
    <glyph glyph-name="zdotaccent" unicode="&#x17c;" horiz-adv-x="476" 
d="M27 95l274 320v2h-264v91h402v-95l-274 -320v-2h284v-91h-422v95zM287 712v-109h-114v109h114z" />
    <glyph glyph-name="Zcaron" unicode="&#x17d;" horiz-adv-x="574" 
d="M555 0h-536v109l376 499v2h-362v102h504v-109l-376 -499v-2h394v-102zM109 902h108l68 -82l67 82h108l-114 -142h-123z" />
    <glyph glyph-name="zcaron" unicode="&#x17e;" horiz-adv-x="476" 
d="M449 0h-422v95l274 320v2h-264v91h402v-95l-274 -320v-2h284v-91zM54 712h108l68 -84l67 84h108l-114 -144h-123z" />
    <glyph glyph-name="longs" unicode="&#x17f;" horiz-adv-x="323" 
d="M12 421v87h86v54q0 157 154 157q28 0 60 -7v-84q-12 4 -28 4q-37 0 -55 -19.5t-18 -63.5v-549h-113v421h-86z" />
    <glyph glyph-name="uni018F" unicode="&#x18f;" horiz-adv-x="752" 
d="M713 357q0 -106 -41 -191q-43 -86 -120 -133.5t-180 -47.5q-152 0 -242 100t-90 270q0 16 2 42h546q-6 109 -66 167t-158 58q-71 0 -118 -34t-60 -91h-128q21 100 101.5 165t205.5 65q161 0 254.5 -100.5t93.5 -269.5zM165 296q10 -99 67 -151q56 -53 140 -53
q88 0 145 54t68 150h-420z" />
    <glyph glyph-name="florin" unicode="&#x192;" horiz-adv-x="581" 
d="M560 713v-91q-19 6 -47 6q-43 0 -66.5 -22t-36.5 -76l-16 -62h110v-86h-130l-97 -382q-27 -106 -70.5 -148t-127.5 -42q-36 0 -57 7v91q18 -6 44 -6q40 0 62 22q22 24 38 86l94 372h-101v86h121l19 72q24 96 69 138.5t124 42.5q36 0 68 -8z" />
    <glyph glyph-name="Aringacute" unicode="&#x1fa;" horiz-adv-x="687" 
d="M263 712h161l259 -712h-126l-66 193h-295l-66 -193h-126zM436 353q-66 196 -92 283h-2q-47 -155 -91 -283l-19 -56h223zM270 911q30 30 73 30t73.5 -30.5t30.5 -73.5t-30 -73q-30 -31 -74 -31q-43 0 -73 31q-31 30 -31 73q0 44 31 74zM267 962l81 142h144l-132 -142h-93z
M287 837q0 -23 16.5 -39.5t39.5 -16.5t39.5 16.5t16.5 39.5t-16.5 39.5t-39.5 16.5t-39.5 -16.5t-16.5 -39.5z" />
    <glyph glyph-name="aringacute" unicode="&#x1fb;" horiz-adv-x="539" 
d="M419 473q53 -50 53 -149v-190q0 -83 13 -134h-103q-7 29 -7 71h-2q-55 -82 -171 -82q-79 0 -125 43q-47 42 -47 108t45.5 104.5t149.5 55.5q65 11 137 15v20q0 105 -99 105q-45 0 -71.5 -23.5t-28.5 -65.5h-112q4 78 59.5 125t152.5 47q101 0 156 -50zM331 577
q-30 -31 -74 -31q-43 0 -73 31q-31 30 -31 73q0 44 31 74q30 30 73 30t73.5 -30t30.5 -74q0 -43 -30 -73zM327 107q20 21 27.5 44.5t7.5 64.5v25q-69 -5 -117 -13q-55 -9 -77.5 -27t-22.5 -53q0 -34 24 -54.5t66 -20.5q58 0 92 34zM274 778h-93l81 144h144zM297 690
q-16 16 -40 16q-23 0 -39.5 -16.5t-16.5 -39.5t16.5 -39.5t39.5 -16.5t39.5 16.5t16.5 39.5q0 24 -16 40z" />
    <glyph glyph-name="AEacute" unicode="&#x1fc;" horiz-adv-x="951" 
d="M900 0h-385l-30 202h-264l-92 -202h-135l340 712h556v-104h-348l28 -193h298v-103h-283l31 -208h284v-104zM470 304l-45 310h-15l-142 -310h202zM518 902h144l-132 -142h-93z" />
    <glyph glyph-name="aeacute" unicode="&#x1fd;" horiz-adv-x="871" 
d="M511 109q34 -40 89 -40q45 0 74 22.5t36 61.5h117q-14 -73 -75 -120.5t-152 -47.5q-123 0 -185 98q-61 -98 -196 -98q-85 0 -137 43.5t-52 111.5q0 163 245 163h94v32q0 105 -102 105q-47 0 -74 -23.5t-29 -65.5h-113q5 78 62 125t154 47q117 0 168 -69q63 69 163 69
q83 0 142.5 -46.5t80.5 -126.5q12 -48 12 -119h-359q1 -80 37 -122zM170 91q23 -22 67 -22q61 0 95 36q21 21 29 45t8 66v15h-81q-77 0 -110 -20t-33 -63q0 -36 25 -57zM475 303h244q-4 65 -36.5 100.5t-84.5 35.5q-51 0 -83.5 -35.5t-39.5 -100.5zM356 568l81 144h144
l-132 -144h-93z" />
    <glyph glyph-name="Oslashacute" unicode="&#x1fe;" horiz-adv-x="740" 
d="M700 356q0 -171 -89 -271t-241 -100q-112 0 -192 56l-59 -79l-56 44l62 83q-85 97 -85 267q0 171 89 271t241 100q111 0 193 -56l59 79l55 -43l-62 -83q85 -99 85 -268zM160 356q0 -102 38 -170l298 396q-52 43 -126 43q-98 0 -153 -72q-57 -72 -57 -197zM370 87
q97 0 154 72q56 73 56 197q0 102 -38 170l-297 -396q50 -43 125 -43zM375 902h144l-132 -142h-93z" />
    <glyph glyph-name="oslashacute" unicode="&#x1ff;" horiz-adv-x="578" 
d="M540 254q0 -123 -68 -196t-183 -73q-81 0 -138 36l-51 -68l-48 36l53 70q-67 72 -67 195t68 196t183 73q81 0 139 -36l51 68l48 -37l-53 -70q66 -72 66 -194zM172 149l197 260q-34 28 -80 28q-63 0 -100 -49.5t-37 -133.5q0 -60 20 -105zM289 71q63 0 100 49t37 134
q0 56 -20 105l-197 -261q33 -27 80 -27zM294 712h144l-132 -144h-93z" />
    <glyph glyph-name="Scommaaccent" unicode="&#x218;" horiz-adv-x="620" 
d="M436 247q-16 19 -46 31t-98 29q-85 21 -134 42q-50 21 -81 63q-32 41 -32 111q0 91 69 147.5t181 56.5q129 0 195.5 -59.5t66.5 -174.5h-121q0 66 -37 101t-106 35q-58 0 -91.5 -25.5t-33.5 -69.5q3 -47 34.5 -68t128.5 -45q78 -19 133 -41q52 -23 82 -64q31 -41 31 -113
q0 -98 -73.5 -158t-192.5 -60q-132 0 -204.5 65t-72.5 185h123q0 -75 40 -113t115 -38q66 0 103.5 29t37.5 79q0 35 -17 55zM292 -158h-40v96h107v-96l-62 -106h-47z" />
    <glyph glyph-name="scommaaccent" unicode="&#x219;" horiz-adv-x="509" 
d="M338 173q-12 14 -35 22t-80 22q-63 16 -92 28q-34 13 -58 43t-24 83q0 68 55 110t144 42q99 0 152 -44.5t54 -128.5h-110q0 90 -97 90q-40 0 -62 -16t-22 -44q0 -37 45 -53q30 -10 70 -20q55 -14 103 -31q35 -15 63 -47q26 -34 26 -89q0 -70 -58 -112q-58 -43 -155 -43
q-105 0 -162 46.5t-58 135.5h116q0 -47 27.5 -72t78.5 -25q43 0 67.5 17t24.5 46q0 26 -13 40zM243 -158h-40v96h107v-96l-62 -106h-47z" />
    <glyph glyph-name="uni021A" unicode="&#x21a;" horiz-adv-x="607" 
d="M10 608v104h587v-104h-234v-608h-119v608h-234zM249 -264l42 106h-40v96h107v-96l-62 -106h-47z" />
    <glyph glyph-name="uni021B" unicode="&#x21b;" horiz-adv-x="339" 
d="M312 3q-32 -9 -64 -9q-81 0 -117.5 36.5t-36.5 119.5v271h-85v87h85v127h114v-127h99v-87h-99v-254q0 -43 16 -61.5t53 -18.5q20 0 35 5v-89zM134 -264l42 106h-40v96h107v-96l-62 -106h-47z" />
    <glyph glyph-name="uni0237" unicode="&#x237;" horiz-adv-x="264" 
d="M-27 -98q13 -3 28 -3q40 0 58 22t18 74v513h114v-528q0 -170 -160 -170q-29 0 -58 7v85z" />
    <glyph glyph-name="uni0259" unicode="&#x259;" horiz-adv-x="562" 
d="M524 254q0 -118 -67 -193.5t-178 -75.5q-110 0 -175.5 73t-65.5 196q0 11 2 29h371q-3 77 -39.5 116.5t-97.5 39.5q-43 0 -71.5 -22t-35.5 -59h-117q15 71 74 118t150 47q117 0 183.5 -73t66.5 -196zM152 208q6 -67 40 -103t87 -36q54 0 88.5 36.5t41.5 102.5h-257z" />
    <glyph glyph-name="afii57929" unicode="&#x2bc;" horiz-adv-x="246" 
d="M125 447h-62l41 140h-39v125h115v-125z" />
    <glyph glyph-name="circumflex" unicode="&#x2c6;" horiz-adv-x="451" 
d="M158 568h-108l114 144h123l114 -144h-108l-67 84z" />
    <glyph glyph-name="caron" unicode="&#x2c7;" horiz-adv-x="451" 
d="M50 712h108l68 -84l67 84h108l-114 -144h-123z" />
    <glyph glyph-name="uni02C9" unicode="&#x2c9;" horiz-adv-x="405" 
d="M50 607v78h305v-78h-305z" />
    <glyph glyph-name="breve" unicode="&#x2d8;" horiz-adv-x="431" 
d="M50 712h80q4 -34 26 -53t59 -19t59 19t26 53h81q-5 -70 -48.5 -108.5t-117.5 -38.5q-73 0 -116.5 38.5t-48.5 108.5z" />
    <glyph glyph-name="dotaccent" unicode="&#x2d9;" horiz-adv-x="214" 
d="M50 603v109h114v-109h-114z" />
    <glyph glyph-name="ring" unicode="&#x2da;" horiz-adv-x="308" 
d="M81 739q30 30 73 30q44 0 74 -30.5t30 -73.5t-30 -73q-30 -31 -74 -31q-43 0 -73 31q-31 30 -31 73q0 44 31 74zM98 665q0 -23 16.5 -39.5t39.5 -16.5t39.5 16.5t16.5 39.5t-16.5 39.5t-39.5 16.5t-39.5 -16.5t-16.5 -39.5z" />
    <glyph glyph-name="ogonek" unicode="&#x2db;" horiz-adv-x="274" 
d="M50 -112q0 32 18.5 57.5t60.5 55.5l92 -1q-72 -50 -72 -95q0 -33 38 -33q21 0 37 6v-62q-28 -11 -68 -11q-106 0 -106 83z" />
    <glyph glyph-name="tilde" unicode="&#x2dc;" horiz-adv-x="460" 
d="M82 676q28 33 78 33q31 0 82 -28q35 -21 54 -21q42 0 46 49h68q-3 -59 -31.5 -92t-77.5 -33q-33 0 -82 27q-35 21 -55 21q-40 0 -46 -48h-68q3 58 32 92z" />
    <glyph glyph-name="hungarumlaut" unicode="&#x2dd;" horiz-adv-x="505" 
d="M225 568l101 144h129l-138 -144h-92zM50 568l101 144h129l-138 -144h-92z" />
    <glyph glyph-name="uni0312" unicode="&#x312;" horiz-adv-x="0" 
d="M50 676l62 106h47l-42 -106h39v-96h-106v96z" />
    <glyph glyph-name="uni0326" unicode="&#x326;" horiz-adv-x="0" 
d="M97 -264h-47l42 106h-40v96h107v-96z" />
    <glyph glyph-name="uni0333" unicode="&#x333;" horiz-adv-x="0" 
d="M-500 -50h500v-60h-500v60zM-500 -247v60h500v-60h-500z" />
    <glyph glyph-name="uni0374" unicode="&#x374;" horiz-adv-x="197" 
d="M30 508l33 204h104l-64 -204h-73z" />
    <glyph glyph-name="uni0375" unicode="&#x375;" horiz-adv-x="197" 
d="M30 -92l33 204h104l-64 -204h-73z" />
    <glyph glyph-name="uni037E" unicode="&#x37e;" horiz-adv-x="242" 
d="M53 -158l46 158h-44v142h132v-142l-63 -158h-71zM187 366h-132v142h132v-142z" />
    <glyph glyph-name="tonos" unicode="&#x384;" horiz-adv-x="250" 
d="M49 570l39 162h112l-64 -162h-87z" />
    <glyph glyph-name="dieresistonos" unicode="&#x385;" horiz-adv-x="499" 
d="M188 570l35 151h96l-52 -151h-79zM354 692h95v-109h-95v109zM50 583v109h95v-109h-95z" />
    <glyph glyph-name="Alphatonos" unicode="&#x386;" horiz-adv-x="687" 
d="M557 0l-66 193h-295l-66 -193h-126l259 712h161l259 -712h-126zM455 297l-19 56q-66 196 -92 283h-2q-47 -155 -91 -283l-19 -56h223zM24 510l39 202h112l-64 -202h-87z" />
    <glyph glyph-name="anoteleia" unicode="&#x387;" horiz-adv-x="242" 
d="M187 508v-141h-132v141h132z" />
    <glyph glyph-name="Epsilontonos" unicode="&#x388;" horiz-adv-x="625" 
d="M564 712v-104h-356v-193h334v-103h-334v-208h366v-104h-486v712h476zM36 712l-64 -202h-87l39 202h112z" />
    <glyph glyph-name="Etatonos" unicode="&#x389;" horiz-adv-x="744" 
d="M88 712h120v-290h328v290h119v-712h-119v318h-328v-318h-120v712zM36 712l-64 -202h-87l39 202h112z" />
    <glyph glyph-name="Iotatonos" unicode="&#x38a;" horiz-adv-x="296" 
d="M88 0v712h120v-712h-120zM-115 510l39 202h112l-64 -202h-87z" />
    <glyph glyph-name="Omicrontonos" unicode="&#x38c;" horiz-adv-x="740" 
d="M700 356q0 -171 -89 -271t-241 -100t-241 100t-89 271t89 271t241 100t241 -100t89 -271zM164 356q0 -122 56 -193t150 -71q95 0 151 71q55 70 55 193t-55 193q-56 71 -151 71q-94 0 -150 -71t-56 -193zM-37 712h112l-64 -202h-87z" />
    <glyph glyph-name="Upsilontonos" unicode="&#x38e;" horiz-adv-x="626" 
d="M3 712h136l78 -141q55 -100 95 -184h2q47 97 96 184l77 141h135l-249 -426v-286h-120v286zM-22 712l-64 -202h-87l39 202h112z" />
    <glyph glyph-name="Omegatonos" unicode="&#x38f;" horiz-adv-x="731" 
d="M697 0h-275v107q72 73 106 139.5t34 149.5q0 108 -52.5 166t-143.5 58t-143.5 -58t-52.5 -166q0 -82 34 -149t105 -140v-107h-275v102h160v2q-75 76 -112 148.5t-37 159.5q0 153 87 234t234 81q145 0 233 -80q87 -79 87 -235q0 -87 -37 -160t-112 -148v-2h160v-102z
M-83 510l39 202h112l-64 -202h-87z" />
    <glyph glyph-name="iotadieresistonos" unicode="&#x390;" horiz-adv-x="297" 
d="M182 508v-324q0 -52 15.5 -74.5t52.5 -22.5q19 0 36 5v-90q-29 -8 -65 -8q-81 0 -117 40t-36 132v342h114zM64 570l35 151h96l-52 -151h-79zM-74 692h95v-109h-95v109zM325 583h-95v109h95v-109z" />
    <glyph glyph-name="Alpha" unicode="&#x391;" horiz-adv-x="687" 
d="M130 0h-126l259 712h161l259 -712h-126l-66 193h-295zM232 297h223l-19 56q-66 196 -92 283h-2q-47 -155 -91 -283z" />
    <glyph glyph-name="Beta" unicode="&#x392;" horiz-adv-x="638" 
d="M533 53q-65 -53 -180 -53h-265v712h245q122 0 185.5 -48t63.5 -134q0 -121 -121 -166v-2q137 -32 137 -167q0 -89 -65 -142zM208 314v-214h127q73 0 107 26t34 80q0 55 -36 81.5t-113 26.5h-119zM326 410q140 0 140 102q0 51 -32.5 76t-101.5 25h-124v-203h118z" />
    <glyph glyph-name="Gamma" unicode="&#x393;" horiz-adv-x="498" 
d="M88 712h400v-104h-280v-608h-120v712z" />
    <glyph glyph-name="Delta" unicode="&#x394;" horiz-adv-x="687" 
d="M4 0l260 712h162l257 -712h-679zM165 104h355l-85 249q-41 121 -91 283h-2q-26 -87 -92 -283z" />
    <glyph glyph-name="Epsilon" unicode="&#x395;" horiz-adv-x="625" 
d="M574 0h-486v712h476v-104h-356v-193h334v-103h-334v-208h366v-104z" />
    <glyph glyph-name="Zeta" unicode="&#x396;" horiz-adv-x="574" 
d="M19 109l376 499v2h-362v102h504v-109l-376 -499v-2h394v-102h-536v109z" />
    <glyph glyph-name="Eta" unicode="&#x397;" horiz-adv-x="744" 
d="M88 0v712h120v-290h328v290h119v-712h-119v318h-328v-318h-120z" />
    <glyph glyph-name="Theta" unicode="&#x398;" horiz-adv-x="740" 
d="M700 357q0 -172 -89 -272t-241 -100t-241 100t-89 272q0 170 89 270t241 100t241 -100t89 -270zM217 552q-57 -72 -57 -195q0 -124 57 -196q55 -72 153 -72q97 0 154 72q56 73 56 196q0 122 -56 195q-57 72 -154 72q-98 0 -153 -72zM508 308h-276v97h276v-97z" />
    <glyph glyph-name="Iota" unicode="&#x399;" horiz-adv-x="296" 
d="M88 0v712h120v-712h-120z" />
    <glyph glyph-name="Kappa" unicode="&#x39a;" horiz-adv-x="644" 
d="M88 0v712h120v-317h2l260 317h144l-291 -339l317 -373h-155l-275 343h-2v-343h-120z" />
    <glyph glyph-name="Lambda" unicode="&#x39b;" horiz-adv-x="672" 
d="M4 0l250 712h164l250 -712h-130l-115 349q-47 144 -86 281h-2q-39 -137 -86 -281l-115 -349h-130z" />
    <glyph glyph-name="Mu" unicode="&#x39c;" horiz-adv-x="959" 
d="M871 0h-116v358q0 163 4 270h-2q-30 -101 -86 -268l-123 -360h-137l-123 360q-56 167 -86 268h-2q4 -107 4 -270v-358h-116v712h193l115 -339q50 -146 82 -268h2q36 128 83 268l115 339h193v-712z" />
    <glyph glyph-name="Nu" unicode="&#x39d;" horiz-adv-x="766" 
d="M88 0v712h173l153 -298q74 -145 151 -306h2q-5 200 -5 324v280h115v-712h-172l-154 298q-74 145 -151 306h-2q6 -162 6 -324v-280h-116z" />
    <glyph glyph-name="Xi" unicode="&#x39e;" horiz-adv-x="668" 
d="M53 0v120h562v-120h-562zM601 592h-534v120h534v-120zM584 298h-500v120h500v-120z" />
    <glyph glyph-name="Omicron" unicode="&#x39f;" horiz-adv-x="740" 
d="M700 356q0 -171 -89 -271t-241 -100t-241 100t-89 271t89 271t241 100t241 -100t89 -271zM164 356q0 -122 56 -193t150 -71q95 0 151 71q55 70 55 193t-55 193q-56 71 -151 71q-94 0 -150 -71t-56 -193z" />
    <glyph glyph-name="Pi" unicode="&#x3a0;" horiz-adv-x="733" 
d="M88 712h557v-712h-119v608h-318v-608h-120v712z" />
    <glyph glyph-name="Rho" unicode="&#x3a1;" horiz-adv-x="626" 
d="M88 0v712h257q122 0 188.5 -59.5t66.5 -162.5q0 -104 -66.5 -163.5t-188.5 -59.5h-137v-267h-120zM331 368q146 0 146 122q0 121 -146 121h-123v-243h123z" />
    <glyph glyph-name="Sigma" unicode="&#x3a3;" horiz-adv-x="573" 
d="M22 106l195 256l-184 248v102h507v-102h-361v-2l182 -246l-195 -257v-3h388v-102h-532v106z" />
    <glyph glyph-name="Tau" unicode="&#x3a4;" horiz-adv-x="607" 
d="M10 712h587v-104h-234v-608h-119v608h-234v104z" />
    <glyph glyph-name="Upsilon" unicode="&#x3a5;" horiz-adv-x="626" 
d="M3 712h136l78 -141q55 -100 95 -184h2q47 97 96 184l77 141h135l-249 -426v-286h-120v286z" />
    <glyph glyph-name="Phi" unicode="&#x3a6;" horiz-adv-x="812" 
d="M691 583q81 -79 81 -224q0 -143 -81 -223t-227 -88v-76h-116v76q-148 8 -228 88.5t-80 225.5q0 143 80 221.5t228 86.5v70h116v-70q146 -8 227 -87zM163 362q0 -99 47.5 -154t137.5 -60v422q-90 -5 -137.5 -58t-47.5 -150zM464 570v-422q89 5 137 59.5t48 151.5
q0 98 -47.5 152t-137.5 59z" />
    <glyph glyph-name="Chi" unicode="&#x3a7;" horiz-adv-x="626" 
d="M240 364l-223 348h139l156 -261h2l156 261h138l-222 -348l234 -364h-140l-166 272h-2l-166 -272h-141z" />
    <glyph glyph-name="Psi" unicode="&#x3a8;" horiz-adv-x="811" 
d="M768 712v-225q0 -155 -73 -231t-230 -84v-172h-119v172q-157 8 -230 84t-73 231v225h120v-222q0 -109 42 -158t141 -54v434h119v-434q100 4 142 54q41 50 41 158v222h120z" />
    <glyph glyph-name="Omega" unicode="&#x3a9;" horiz-adv-x="731" 
d="M697 102v-102h-275v107q72 73 106 139.5t34 149.5q0 108 -52.5 166t-143.5 58t-143.5 -58t-52.5 -166q0 -82 34 -149t105 -140v-107h-275v102h160v2q-75 76 -112 148.5t-37 159.5q0 153 87 234t234 81q145 0 233 -80q87 -79 87 -235q0 -87 -37 -160t-112 -148v-2h160z
" />
    <glyph glyph-name="Iotadieresis" unicode="&#x3aa;" horiz-adv-x="296" 
d="M88 712h120v-712h-120v712zM200 916h102v-109h-102v109zM-6 916h102v-109h-102v109z" />
    <glyph glyph-name="Upsilondieresis" unicode="&#x3ab;" horiz-adv-x="626" 
d="M622 712l-249 -426v-286h-120v286l-250 426h136l78 -141q55 -100 95 -184h2q47 97 96 184l77 141h135zM467 881v-109h-102v109h102zM159 772v109h102v-109h-102z" />
    <glyph glyph-name="alphatonos" unicode="&#x3ac;" horiz-adv-x="600" 
d="M525 99q10 -16 34 -16q12 0 24 3v-83q-29 -10 -72 -10q-92 0 -105 82h-2q-22 -41 -63 -64t-92 -23q-96 0 -153.5 72.5t-57.5 193.5t57.5 194t154.5 73q49 0 90 -23t63 -64h2q1 36 8 74h111q-10 -69 -10 -180v-172q0 -40 11 -57zM157 254q0 -81 34 -129.5t92 -48.5
q56 0 89.5 48t33.5 130q0 83 -33 130.5t-90 47.5q-58 0 -92 -48.5t-34 -129.5zM278 732h112l-64 -162h-87z" />
    <glyph glyph-name="epsilontonos" unicode="&#x3ad;" horiz-adv-x="505" 
d="M414 30q-57 -45 -163 -45q-97 0 -154 40t-57 111q0 94 103 125v2q-90 34 -90 115q0 67 53 106t143 39q99 0 155.5 -46t56.5 -127h-114q0 42 -24.5 64t-70.5 22q-40 0 -63 -18t-23 -50t27 -51t73 -19h50v-85h-50q-112 0 -112 -73q0 -31 26.5 -49.5t70.5 -18.5
q105 0 105 89h115q0 -86 -57 -131zM242 732h112l-64 -162h-87z" />
    <glyph glyph-name="etatonos" unicode="&#x3ae;" horiz-adv-x="601" 
d="M533 -185h-114v483q0 132 -102 132q-52 0 -84 -39.5t-32 -107.5v-283h-114v348q0 43 -11 61t-35 18q-13 0 -24 -3v80q35 11 67 11q45 0 70 -21t33 -68h2q55 94 164 94q87 0 133.5 -53.5t46.5 -156.5v-495zM222 570l39 162h112l-64 -162h-87z" />
    <glyph glyph-name="iotatonos" unicode="&#x3af;" horiz-adv-x="297" 
d="M68 166v342h114v-324q0 -52 15.5 -74.5t52.5 -22.5q19 0 36 5v-90q-29 -8 -65 -8q-81 0 -117 40t-36 132zM119 732h112l-64 -162h-87z" />
    <glyph glyph-name="upsilondieresistonos" unicode="&#x3b0;" horiz-adv-x="589" 
d="M536 249q0 -264 -232 -264q-110 0 -164.5 47t-54.5 147v164q0 46 -10 63.5t-35 17.5q-13 0 -25 -3v83q36 11 68 11q62 0 89.5 -33t27.5 -113v-181q0 -58 25 -85t77 -27q121 0 121 181q0 140 -36 251h111q38 -117 38 -259zM255 721h96l-52 -151h-79zM386 583v109h95v-109
h-95zM82 692h95v-109h-95v109z" />
    <glyph glyph-name="alpha" unicode="&#x3b1;" horiz-adv-x="600" 
d="M583 86v-83q-29 -10 -72 -10q-92 0 -105 82h-2q-22 -41 -63 -64t-92 -23q-96 0 -153.5 72.5t-57.5 193.5t57.5 194t154.5 73q49 0 90 -23t63 -64h2q1 36 8 74h111q-10 -69 -10 -180v-172q0 -41 10.5 -57t34.5 -16q12 0 24 3zM191 384q-34 -49 -34 -130q0 -82 34 -129
q34 -49 92 -49q56 0 89.5 48t33.5 130q0 83 -33 130.5t-90 47.5t-92 -48z" />
    <glyph glyph-name="beta" unicode="&#x3b2;" horiz-adv-x="595" 
d="M559 194q0 -94 -61 -149t-166 -55q-106 0 -143 60h-2v-235h-114l1 664q0 120 59 184t169 64q102 0 160.5 -48t58.5 -130q0 -128 -125 -163v-2q163 -31 163 -190zM216 601q-29 -38 -29 -119v-290q0 -114 123 -114q62 0 97 34t35 94q0 66 -42 97.5t-129 31.5h-15v92h15
q69 0 105 28.5t36 82.5q0 48 -28 74.5t-79 26.5q-60 0 -89 -38z" />
    <glyph glyph-name="gamma" unicode="&#x3b3;" horiz-adv-x="539" 
d="M527 508q-15 -142 -62 -257q-46 -114 -140 -245v-12q0 -95 -11 -179h-114q11 84 11 179q0 70 -24 171q-24 102 -67 183q-23 44 -43 61.5t-46 17.5q-5 0 -23 -2v81q30 10 63 10q46 0 77 -24t60 -86q62 -129 81 -274h2q50 90 80 183q27 83 38 193h118z" />
    <glyph glyph-name="delta" unicode="&#x3b4;" horiz-adv-x="578" 
d="M539 228q0 -111 -68.5 -177t-181.5 -66q-114 0 -182.5 66t-68.5 177q0 88 47 150.5t135 92.5v2q-64 40 -89 69q-27 28 -27 70q0 110 173 110q113 0 209 -28v-97q-98 39 -195 39q-67 0 -67 -33q0 -19 24.5 -37t96.5 -56q99 -52 146.5 -119t47.5 -163zM158 228
q0 -72 36 -112q34 -42 95 -42q60 0 95.5 42t35.5 114q0 129 -130 190q-132 -46 -132 -192z" />
    <glyph glyph-name="epsilon" unicode="&#x3b5;" horiz-adv-x="505" 
d="M471 161q0 -86 -57 -131t-163 -45q-97 0 -154 40t-57 111q0 94 103 125v2q-90 34 -90 115q0 67 53 106t143 39q99 0 155.5 -46t56.5 -127h-114q0 42 -24.5 64t-70.5 22q-40 0 -63 -18t-23 -50t27 -51t73 -19h50v-85h-50q-112 0 -112 -73q0 -31 26.5 -49.5t70.5 -18.5
q105 0 105 89h115z" />
    <glyph glyph-name="zeta" unicode="&#x3b6;" horiz-adv-x="468" 
d="M444 712v-85q-287 -164 -287 -389q0 -64 36 -97t121 -45q76 -11 108 -44t32 -94q0 -57 -27 -103h-93q18 37 18 74q0 36 -21.5 54t-79.5 24q-113 13 -163 63t-50 146q0 118 70.5 223.5t198.5 185.5v2h-243v85h380z" />
    <glyph glyph-name="eta" unicode="&#x3b7;" horiz-adv-x="601" 
d="M533 310v-495h-114v483q0 132 -102 132q-52 0 -84 -39.5t-32 -107.5v-283h-114v348q0 43 -11 61t-35 18q-13 0 -24 -3v80q35 11 67 11q45 0 70 -21t33 -68h2q55 94 164 94q87 0 133.5 -53.5t46.5 -156.5z" />
    <glyph glyph-name="theta" unicode="&#x3b8;" horiz-adv-x="608" 
d="M500 629q69 -97 69 -273t-69.5 -273t-196.5 -97q-125 0 -194 97q-70 97 -70 273t70 273q69 97 194 97q127 0 197 -97zM200 577q-38 -64 -44 -180h295q-6 117 -44 180t-104 63q-65 0 -103 -63zM156 315q6 -117 44 -180t103 -63q66 0 104 63t44 180h-295z" />
    <glyph glyph-name="iota" unicode="&#x3b9;" horiz-adv-x="297" 
d="M68 508h114v-324q0 -52 15.5 -74.5t52.5 -22.5q19 0 36 5v-90q-29 -8 -65 -8q-81 0 -117 40t-36 132v342z" />
    <glyph glyph-name="kappa" unicode="&#x3ba;" horiz-adv-x="541" 
d="M529 508v-95q-9 4 -30 4q-43 0 -84 -27q-43 -29 -102 -97l-13 -15l250 -278h-140l-180 200l-46 -51v-149h-114v508h114v-228h2l99 113q60 70 104 96q43 25 98 25q18 0 42 -6z" />
    <glyph glyph-name="lambda" unicode="&#x3bb;" horiz-adv-x="580" 
d="M572 83v-83q-21 -7 -48 -7q-57 0 -89.5 28.5t-61.5 110.5q-32 84 -92 252h-1l-93 -220l-71 -164h-122l230 506q-24 69 -50.5 96t-66.5 27q-26 0 -48 -8v87q29 12 73 12q79 -2 122.5 -43t91.5 -163l125 -333q23 -58 41.5 -79t44.5 -21q5 0 15 2z" />
    <glyph glyph-name="mu" unicode="&#x3bc;" horiz-adv-x="598" 
d="M586 3q-27 -10 -72 -10q-86 0 -102 81h-2q-16 -38 -51 -59.5t-81 -21.5q-61 0 -91 32v-210h-114v693h114v-300q0 -128 100 -128q52 0 84 39t32 108v281h114v-352q0 -41 10.5 -56.5t34.5 -15.5q12 0 24 3v-84z" />
    <glyph glyph-name="nu" unicode="&#x3bd;" horiz-adv-x="526" 
d="M505 508q5 -22 5 -45q0 -60 -13 -113q-14 -58 -48 -137q-28 -66 -103 -213h-149l-102 337q-16 52 -30.5 71t-38.5 19q-11 0 -19 -3v80q25 11 58 11q52 0 84.5 -34t52.5 -111l74 -278h2q68 144 93 224q25 81 25 153q0 21 -3 39h112z" />
    <glyph glyph-name="xi" unicode="&#x3be;" horiz-adv-x="474" 
d="M457 712v-85h-87q-90 0 -137 -31t-47 -89q0 -45 37 -70t99 -25h96v-84h-84q-88 0 -132.5 -32t-44.5 -90q0 -51 37 -76t127 -35q76 -9 108 -42t32 -95q0 -57 -27 -103h-93q19 39 19 74q0 37 -25.5 56t-89.5 25q-207 19 -207 178q0 146 150 180v2q-51 14 -78.5 48t-27.5 82
q0 94 84 125v2h-107v85h398z" />
    <glyph glyph-name="omicron" unicode="&#x3bf;" horiz-adv-x="577" 
d="M539 254q0 -123 -67.5 -196t-182.5 -73t-183 73t-68 196t68 196t183 73t182.5 -73t67.5 -196zM193 385q-35 -49 -35 -131q0 -83 35 -131t96 -48t96 48t35 131t-35 131t-96 48t-96 -48z" />
    <glyph glyph-name="pi" unicode="&#x3c0;" horiz-adv-x="662" 
d="M644 508v-87h-109v-256q0 -46 15 -65t48 -19q20 0 29 4v-83q-31 -9 -70 -9q-70 0 -103 36.5t-33 121.5v270h-198v-421h-114v421h-99v87h634z" />
    <glyph glyph-name="rho" unicode="&#x3c1;" horiz-adv-x="590" 
d="M552 250q0 -82 -28 -139q-61 -123 -206 -123q-96 0 -134 61h-2v-234h-114v439q0 123 64.5 196t172.5 73q114 0 180.5 -73.5t66.5 -199.5zM177 254q0 -81 33 -128.5t90 -47.5q62 0 97 46.5t35 129.5t-35 130.5t-97 47.5q-57 0 -90 -48t-33 -130z" />
    <glyph glyph-name="sigma1" unicode="&#x3c2;" horiz-adv-x="534" 
d="M446 467q59 -55 67 -152h-118q-5 56 -35.5 87.5t-81.5 31.5q-58 0 -91 -41.5t-33 -116.5t39 -115t124 -52q81 -11 114.5 -47t33.5 -104q0 -56 -26 -103h-94q18 37 18 74q0 41 -24.5 61.5t-89.5 28.5q-215 23 -215 246q0 121 65 189.5t179 68.5q107 0 168 -56z" />
    <glyph glyph-name="sigma" unicode="&#x3c3;" horiz-adv-x="607" 
d="M596 508v-85h-137v-2q78 -56 78 -179q0 -119 -66 -188q-67 -69 -182 -69t-183 71t-68 191t68 190.5t183 70.5h307zM158 250q0 -83 34 -129t96 -46q63 0 97.5 46t34.5 129t-34.5 129t-97.5 46q-61 0 -95.5 -46t-34.5 -129z" />
    <glyph glyph-name="tau" unicode="&#x3c4;" horiz-adv-x="467" 
d="M10 508h447v-85h-173v-258q0 -46 15 -65t48 -19q20 0 29 4v-83q-32 -9 -70 -9q-70 0 -103 36.5t-33 121.5v272h-160v85z" />
    <glyph glyph-name="upsilon" unicode="&#x3c5;" horiz-adv-x="589" 
d="M498 508q38 -117 38 -259q0 -264 -232 -264q-110 0 -164.5 47t-54.5 147v164q0 46 -10 63.5t-35 17.5q-13 0 -25 -3v83q36 11 68 11q62 0 89.5 -33t27.5 -113v-181q0 -58 25 -85t77 -27q121 0 121 181q0 140 -36 251h111z" />
    <glyph glyph-name="phi" unicode="&#x3c6;" horiz-adv-x="775" 
d="M737 254q0 -123 -79 -193q-81 -72 -216 -76v-170h-109v170q-135 4 -216 76q-79 70 -79 193t79 193q81 72 216 76v139h109v-139q135 -4 216 -76q79 -70 79 -193zM154 254q0 -85 46.5 -133t132.5 -51v368q-86 -3 -132.5 -51t-46.5 -133zM442 438v-368q86 3 132 51t46 133
t-46 133t-132 51z" />
    <glyph glyph-name="chi" unicode="&#x3c7;" horiz-adv-x="587" 
d="M575 -100v-81q-31 -11 -70 -11q-57 0 -92 26q-35 28 -65 96l-57 131h-2l-158 -246h-127l228 341l-86 187q-24 53 -45 71t-56 18q-20 0 -37 -6v80q31 14 71 14q60 0 95 -26q34 -27 63 -95l61 -141h2l152 250h127l-219 -348l81 -177q25 -55 46 -70q22 -17 53 -17q22 0 35 4
z" />
    <glyph glyph-name="psi" unicode="&#x3c8;" horiz-adv-x="796" 
d="M701 508q41 -114 41 -252q0 -253 -283 -265v-176h-114v175q-277 11 -277 234v284h114v-272q0 -76 40 -114t123 -43v583h114v-583q169 12 169 185q0 134 -40 244h113z" />
    <glyph glyph-name="omega" unicode="&#x3c9;" horiz-adv-x="807" 
d="M737 373q16 -71 16 -149q0 -116 -48 -177t-144 -61q-127 0 -157 101h-2q-30 -101 -156 -101q-96 0 -144 61t-48 177q0 157 65 284h119q-66 -123 -66 -271q0 -163 95 -163q79 0 79 106v204h114v-204q0 -106 80 -106q95 0 95 163q0 148 -66 271h119q33 -67 49 -135z" />
    <glyph glyph-name="iotadieresis" unicode="&#x3ca;" horiz-adv-x="297" 
d="M286 2q-29 -8 -65 -8q-81 0 -117 40t-36 132v342h114v-324q0 -52 15.5 -74.5t52.5 -22.5q19 0 36 5v-90zM177 603v109h102v-109h-102zM-29 603v109h102v-109h-102z" />
    <glyph glyph-name="upsilondieresis" unicode="&#x3cb;" horiz-adv-x="589" 
d="M536 249q0 -264 -232 -264q-110 0 -164.5 47t-54.5 147v164q0 46 -10 63.5t-35 17.5q-13 0 -25 -3v83q36 11 68 11q62 0 89.5 -33t27.5 -113v-181q0 -58 25 -85t77 -27q121 0 121 181q0 140 -36 251h111q38 -117 38 -259zM333 712h102v-109h-102v109zM127 712h102v-109
h-102v109z" />
    <glyph glyph-name="omicrontonos" unicode="&#x3cc;" horiz-adv-x="577" 
d="M539 254q0 -123 -67.5 -196t-182.5 -73t-183 73t-68 196t68 196t183 73t182.5 -73t67.5 -196zM158 254q0 -83 35 -131t96 -48t96 48t35 131t-35 131t-96 48t-96 -48t-35 -131zM283 732h112l-64 -162h-87z" />
    <glyph glyph-name="upsilontonos" unicode="&#x3cd;" horiz-adv-x="589" 
d="M536 249q0 -264 -232 -264q-110 0 -164.5 47t-54.5 147v164q0 46 -10 63.5t-35 17.5q-13 0 -25 -3v83q36 11 68 11q62 0 89.5 -33t27.5 -113v-181q0 -58 25 -85t77 -27q121 0 121 181q0 140 -36 251h111q38 -117 38 -259zM276 732h112l-64 -162h-87z" />
    <glyph glyph-name="omegatonos" unicode="&#x3ce;" horiz-adv-x="807" 
d="M753 224q0 -116 -48 -177t-144 -61q-127 0 -157 101h-2q-30 -101 -156 -101q-96 0 -144 61t-48 177q0 157 65 284h119q-66 -123 -66 -271q0 -163 95 -163q79 0 79 106v204h114v-204q0 -106 80 -106q95 0 95 163q0 148 -66 271h119q65 -127 65 -284zM359 570l39 162h112
l-64 -162h-87z" />
    <glyph glyph-name="uni0400" unicode="&#x400;" horiz-adv-x="625" 
d="M88 712h476v-104h-356v-193h334v-103h-334v-208h366v-104h-486v712zM320 902l82 -142h-93l-132 142h143z" />
    <glyph glyph-name="afii10023" unicode="&#x401;" horiz-adv-x="625" 
d="M574 0h-486v712h476v-104h-356v-193h334v-103h-334v-208h366v-104zM480 881v-109h-102v109h102zM172 772v109h102v-109h-102z" />
    <glyph glyph-name="afii10051" unicode="&#x402;" horiz-adv-x="788" 
d="M699 396q63 -63 63 -174q0 -107 -64 -170q-64 -64 -176 -64q-56 0 -90 12v101q32 -9 75 -9q66 0 100.5 33.5t34.5 95.5q0 133 -142 133q-76 0 -137 -33v-321h-119v608h-234v104h587v-104h-234v-185q72 35 156 35q115 0 180 -62z" />
    <glyph glyph-name="afii10052" unicode="&#x403;" horiz-adv-x="498" 
d="M88 0v712h400v-104h-280v-608h-120zM293 902h144l-132 -142h-93z" />
    <glyph glyph-name="afii10053" unicode="&#x404;" horiz-adv-x="702" 
d="M615 603q35 -58 40 -135h-122q-8 71 -53 111.5t-117 40.5q-82 0 -133.5 -56t-62.5 -156h282v-104h-282q11 -100 61.5 -156t131.5 -56q72 0 118 41t57 114h123q-10 -123 -90 -192q-79 -70 -208 -70q-148 0 -234 100t-86 271t87 271t236 100q85 0 150 -32.5t102 -91.5z" />
    <glyph glyph-name="afii10054" unicode="&#x405;" horiz-adv-x="620" 
d="M577 203q0 -98 -73.5 -158t-192.5 -60q-132 0 -204.5 65t-72.5 185h123q0 -75 40 -113t115 -38q66 0 103.5 29t37.5 79q0 62 -65 87q-28 10 -96 28q-85 21 -134 42q-50 21 -81 63q-32 41 -32 111q0 91 69 147.5t181 56.5q129 0 195.5 -59.5t66.5 -174.5h-121
q0 66 -37 101t-106 35q-58 0 -91.5 -25.5t-33.5 -69.5q3 -47 34.5 -68t128.5 -45q78 -19 133 -41q52 -23 82 -64q31 -41 31 -113z" />
    <glyph glyph-name="afii10055" unicode="&#x406;" horiz-adv-x="296" 
d="M208 712v-712h-120v712h120z" />
    <glyph glyph-name="afii10056" unicode="&#x407;" horiz-adv-x="296" 
d="M88 712h120v-712h-120v712zM200 881h102v-109h-102v109zM-6 881h102v-109h-102v109z" />
    <glyph glyph-name="afii10057" unicode="&#x408;" horiz-adv-x="374" 
d="M60 100q59 0 85 30.5t26 106.5v475h120v-496q0 -113 -53.5 -167.5t-165.5 -54.5q-33 0 -57 7v103q19 -4 45 -4z" />
    <glyph glyph-name="afii10058" unicode="&#x409;" horiz-adv-x="1051" 
d="M1025 222q0 -103 -66.5 -162.5t-188.5 -59.5h-257v608h-228q-7 -255 -32 -389q-24 -131 -70 -177q-47 -47 -129 -47q-26 0 -43 5v99q14 -2 18 -2q52 0 79 46q28 46 41 174q13 127 21 395h463v-267h137q122 0 188.5 -59.5t66.5 -163.5zM633 344v-243h123q146 0 146 121
q0 122 -146 122h-123z" />
    <glyph glyph-name="afii10059" unicode="&#x40a;" horiz-adv-x="1073" 
d="M1048 222q0 -103 -66.5 -162.5t-188.5 -59.5h-257v323h-328v-323h-120v712h120v-286h328v286h119v-267h138q122 0 188.5 -59.5t66.5 -163.5zM779 344h-124v-243h124q146 0 146 121q0 122 -146 122z" />
    <glyph glyph-name="afii10060" unicode="&#x40b;" horiz-adv-x="787" 
d="M752 219v-219h-120v198q0 134 -129 134q-75 0 -140 -20v-312h-119v608h-234v104h587v-104h-234v-196q73 24 169 24q106 0 163 -56.5t57 -160.5z" />
    <glyph glyph-name="afii10061" unicode="&#x40c;" horiz-adv-x="644" 
d="M210 395l260 317h144l-291 -339l317 -373h-155l-275 343h-2v-343h-120v712h120v-317h2zM332 902h144l-132 -142h-93z" />
    <glyph glyph-name="uni040D" unicode="&#x40d;" horiz-adv-x="766" 
d="M677 0h-115v280q0 124 5 324h-2q-77 -161 -151 -306l-153 -298h-173v712h116v-280q0 -162 -6 -324h2q77 161 151 306l154 298h172v-712zM227 902h143l82 -142h-93z" />
    <glyph glyph-name="afii10062" unicode="&#x40e;" horiz-adv-x="666" 
d="M662 712l-280 -574q-38 -77 -87 -111.5t-116 -34.5q-45 0 -74 8v101q20 -6 49 -6q41 0 67.5 19.5t45.5 65.5l-264 532h130l100 -217q42 -92 99 -221h2l11 25q34 79 88 195l99 218h130zM168 902h80q4 -34 26 -53t59 -19t59 19t26 53h81q-5 -70 -48.5 -108.5t-117.5 -38.5
q-73 0 -116.5 38.5t-48.5 108.5z" />
    <glyph glyph-name="afii10145" unicode="&#x40f;" horiz-adv-x="734" 
d="M88 0v712h120v-608h318v608h119v-712h-225v-160h-114v160h-218z" />
    <glyph glyph-name="afii10017" unicode="&#x410;" horiz-adv-x="687" 
d="M263 712h161l259 -712h-126l-66 193h-295l-66 -193h-126zM232 297h223l-19 56q-66 196 -92 283h-2q-47 -155 -91 -283z" />
    <glyph glyph-name="afii10018" unicode="&#x411;" horiz-adv-x="648" 
d="M567 712v-101h-359v-180h158q114 0 179 -58t65 -158t-65 -157.5t-179 -57.5h-278v712h479zM208 101h135q70 0 107 29.5t37 84.5q0 56 -37 85.5t-107 29.5h-135v-229z" />
    <glyph glyph-name="afii10019" unicode="&#x412;" horiz-adv-x="638" 
d="M533 53q-65 -53 -180 -53h-265v712h245q122 0 185.5 -48t63.5 -134q0 -121 -121 -166v-2q137 -32 137 -167q0 -89 -65 -142zM208 314v-214h127q73 0 107 26t34 80q0 55 -36 81.5t-113 26.5h-119zM326 410q140 0 140 102q0 51 -32.5 76t-101.5 25h-124v-203h118z" />
    <glyph glyph-name="afii10020" unicode="&#x413;" horiz-adv-x="498" 
d="M88 712h400v-104h-280v-608h-120v712z" />
    <glyph glyph-name="afii10021" unicode="&#x414;" horiz-adv-x="762" 
d="M97 104q33 62 53 199q19 138 23 409h486v-608h86v-264h-114v160h-499v-160h-114v264h79zM224 104h315v504h-251q-9 -354 -64 -504z" />
    <glyph glyph-name="afii10022" unicode="&#x415;" horiz-adv-x="625" 
d="M88 712h476v-104h-356v-193h334v-103h-334v-208h366v-104h-486v712z" />
    <glyph glyph-name="afii10024" unicode="&#x416;" horiz-adv-x="897" 
d="M893 0h-144l-239 359h-2v-359h-118v359h-2l-240 -359h-144l268 373l-241 339h139l218 -333h2v333h118v-333h2l217 333h140l-242 -339z" />
    <glyph glyph-name="afii10025" unicode="&#x417;" horiz-adv-x="625" 
d="M585 189q0 -61 -33 -107q-69 -97 -239 -97q-136 0 -209.5 62t-73.5 176h128q0 -66 39.5 -100.5t115.5 -34.5q66 0 104.5 29t38.5 77q0 113 -170 113h-50v101h50q74 0 116.5 29.5t42.5 79.5q0 49 -37 77.5t-101 28.5q-140 0 -140 -130h-129q0 110 72.5 171.5t201.5 61.5
q122 0 191 -52.5t69 -144.5q0 -61 -31 -99.5t-96 -62.5v-2q72 -22 106 -64.5t34 -111.5z" />
    <glyph glyph-name="afii10026" unicode="&#x418;" horiz-adv-x="766" 
d="M261 0h-173v712h116v-280q0 -162 -6 -324h2q77 161 151 306l154 298h172v-712h-115v280q0 124 5 324h-2q-77 -161 -151 -306z" />
    <glyph glyph-name="afii10027" unicode="&#x419;" horiz-adv-x="766" 
d="M677 0h-115v280q0 124 5 324h-2q-77 -161 -151 -306l-153 -298h-173v712h116v-280q0 -162 -6 -324h2q77 161 151 306l154 298h172v-712zM291 902q4 -34 26 -53t59 -19t59 19t26 53h81q-5 -70 -48.5 -108.5t-117.5 -38.5q-73 0 -116.5 38.5t-48.5 108.5h80z" />
    <glyph glyph-name="afii10028" unicode="&#x41a;" horiz-adv-x="644" 
d="M88 712h120v-317h2l260 317h144l-291 -339l317 -373h-155l-275 343h-2v-343h-120v712z" />
    <glyph glyph-name="afii10029" unicode="&#x41b;" horiz-adv-x="721" 
d="M11 0v99q14 -2 18 -2q52 0 79 46q28 46 41 174q13 127 21 395h463v-712h-120v608h-228q-7 -255 -32 -389q-24 -131 -70 -177q-47 -47 -129 -47q-26 0 -43 5z" />
    <glyph glyph-name="afii10030" unicode="&#x41c;" horiz-adv-x="959" 
d="M871 0h-116v358q0 163 4 270h-2q-30 -101 -86 -268l-123 -360h-137l-123 360q-56 167 -86 268h-2q4 -107 4 -270v-358h-116v712h193l115 -339q50 -146 82 -268h2q36 128 83 268l115 339h193v-712z" />
    <glyph glyph-name="afii10031" unicode="&#x41d;" horiz-adv-x="744" 
d="M208 712v-290h328v290h119v-712h-119v318h-328v-318h-120v712h120z" />
    <glyph glyph-name="afii10032" unicode="&#x41e;" horiz-adv-x="740" 
d="M700 356q0 -171 -89 -271t-241 -100t-241 100t-89 271t89 271t241 100t241 -100t89 -271zM164 356q0 -122 56 -193t150 -71q95 0 151 71q55 70 55 193t-55 193q-56 71 -151 71q-94 0 -150 -71t-56 -193z" />
    <glyph glyph-name="afii10033" unicode="&#x41f;" horiz-adv-x="733" 
d="M88 712h557v-712h-119v608h-318v-608h-120v712z" />
    <glyph glyph-name="afii10034" unicode="&#x420;" horiz-adv-x="626" 
d="M88 0v712h257q122 0 188.5 -59.5t66.5 -162.5q0 -104 -66.5 -163.5t-188.5 -59.5h-137v-267h-120zM331 368q146 0 146 122q0 121 -146 121h-123v-243h123z" />
    <glyph glyph-name="afii10035" unicode="&#x421;" horiz-adv-x="695" 
d="M648 468h-121q-8 71 -52.5 111.5t-115.5 40.5q-91 0 -143 -70.5t-52 -193.5t52 -193q51 -71 140 -71q71 0 116.5 41t55.5 114h123q-10 -123 -89 -192q-77 -70 -206 -70q-146 0 -231 100t-85 271t85.5 271t233.5 100q128 0 205.5 -71.5t83.5 -187.5z" />
    <glyph glyph-name="afii10036" unicode="&#x422;" horiz-adv-x="607" 
d="M10 712h587v-104h-234v-608h-119v608h-234v104z" />
    <glyph glyph-name="afii10037" unicode="&#x423;" horiz-adv-x="666" 
d="M105 101q20 -6 49 -6q41 0 67.5 19.5t45.5 65.5l-264 532h130l100 -217q42 -92 99 -221h2l11 25q34 79 88 195l99 218h130l-280 -574q-38 -77 -87 -111.5t-116 -34.5q-45 0 -74 8v101z" />
    <glyph glyph-name="afii10038" unicode="&#x424;" horiz-adv-x="844" 
d="M805 356q0 -138 -84.5 -216.5t-240.5 -86.5v-78h-117v78q-154 8 -238.5 87t-84.5 216t84.5 216t238.5 87v78h117v-78q156 -8 240.5 -86.5t84.5 -216.5zM480 558v-404q96 8 148.5 61t52.5 141t-52.5 141t-148.5 61zM216 497q-52 -52 -52 -141q0 -88 52 -141t147 -61v404
q-93 -7 -147 -61z" />
    <glyph glyph-name="afii10039" unicode="&#x425;" horiz-adv-x="626" 
d="M240 364l-223 348h139l156 -261h2l156 261h138l-222 -348l234 -364h-140l-166 272h-2l-166 -272h-141z" />
    <glyph glyph-name="afii10040" unicode="&#x426;" horiz-adv-x="754" 
d="M88 712h120v-608h318v608h119v-608h86v-264h-114v160h-529v712z" />
    <glyph glyph-name="afii10041" unicode="&#x427;" horiz-adv-x="661" 
d="M35 475v237h119v-215q0 -65 38 -99.5t111 -34.5q78 0 150 20v329h120v-712h-120v282q-84 -23 -179 -23q-116 0 -177.5 56t-61.5 160z" />
    <glyph glyph-name="afii10042" unicode="&#x428;" horiz-adv-x="1024" 
d="M88 0v712h120v-608h245v608h119v-608h245v608h119v-712h-848z" />
    <glyph glyph-name="afii10043" unicode="&#x429;" horiz-adv-x="1039" 
d="M908 0h-820v712h120v-608h245v608h119v-608h245v608h119v-608h86v-264h-114v160z" />
    <glyph glyph-name="afii10044" unicode="&#x42a;" horiz-adv-x="751" 
d="M660 385q66 -60 66 -163t-67 -162.5t-189 -59.5h-256v608h-204v104h323v-267h137q124 0 190 -60zM457 344h-124v-243h124q146 0 146 121q0 122 -146 122z" />
    <glyph glyph-name="afii10045" unicode="&#x42b;" horiz-adv-x="922" 
d="M88 0v712h120v-267h137q122 0 188.5 -59.5t66.5 -163.5q0 -103 -66.5 -162.5t-188.5 -59.5h-257zM834 712v-712h-120v712h120zM208 101h123q146 0 146 121q0 122 -146 122h-123v-243z" />
    <glyph glyph-name="afii10046" unicode="&#x42c;" horiz-adv-x="626" 
d="M88 712h120v-267h137q122 0 188.5 -59.5t66.5 -163.5q0 -103 -66.5 -162.5t-188.5 -59.5h-257v712zM331 344h-123v-243h123q146 0 146 121q0 122 -146 122z" />
    <glyph glyph-name="afii10047" unicode="&#x42d;" horiz-adv-x="702" 
d="M662 356q0 -113 -38 -197q-39 -84 -111.5 -129t-170.5 -45q-129 0 -208 70q-80 69 -90 192h123q10 -73 56 -114t119 -41q81 0 131.5 56t61.5 156h-282v104h282q-11 100 -62.5 156t-133.5 56q-72 0 -117.5 -40.5t-53.5 -111.5h-121q6 116 84.5 187.5t207.5 71.5
q149 0 236 -100t87 -271z" />
    <glyph glyph-name="afii10048" unicode="&#x42e;" horiz-adv-x="1010" 
d="M970 356q0 -171 -85.5 -271t-231.5 -100q-134 0 -218.5 85.5t-96.5 233.5h-130v-304h-120v712h120v-304h130q12 148 96.5 233.5t218.5 85.5q146 0 231.5 -100t85.5 -271zM460 356q0 -123 52 -193q53 -71 141 -71t141 71q52 70 52 193t-52 193q-53 71 -141 71t-141 -71
q-52 -70 -52 -193z" />
    <glyph glyph-name="afii10049" unicode="&#x42f;" horiz-adv-x="646" 
d="M557 712v-712h-119v281h-142l-23 1l-138 -282h-131l158 303q-120 49 -120 195q0 103 64.5 158.5t189.5 55.5h261zM163 495q0 -54 34 -85q35 -32 105 -32h136v235h-129q-146 0 -146 -118z" />
    <glyph glyph-name="afii10065" unicode="&#x430;" horiz-adv-x="539" 
d="M485 0h-103q-7 29 -7 71h-2q-55 -82 -171 -82q-79 0 -125 43q-47 42 -47 108t45.5 104.5t149.5 55.5q65 11 137 15v20q0 105 -99 105q-45 0 -71.5 -23.5t-28.5 -65.5h-112q4 78 59.5 125t152.5 47q102 0 155.5 -50t53.5 -149v-190q0 -83 13 -134zM169 94q23 -21 66 -21
q58 0 92 34q20 21 27.5 44.5t7.5 64.5v25q-69 -5 -117 -13q-55 -9 -77.5 -27t-22.5 -53q0 -34 24 -54z" />
    <glyph glyph-name="afii10066" unicode="&#x431;" horiz-adv-x="587" 
d="M520 727v-98q-50 -14 -163 -21q-122 -9 -166 -53t-61 -160h2q43 103 177 103q107 0 172 -66q63 -67 63 -181q0 -122 -68 -194t-183 -72q-120 0 -185.5 76t-65.5 217q2 159 32.5 248.5t91 128t168.5 48.5q130 11 186 24zM191 369q-31 -43 -31 -119q0 -83 35 -129t98 -46
q62 0 96.5 44t34.5 124t-35.5 125t-98.5 45q-67 0 -99 -44z" />
    <glyph glyph-name="afii10067" unicode="&#x432;" horiz-adv-x="538" 
d="M472 220q26 -31 26 -78q0 -68 -51 -105t-143 -37h-231v508h216q197 0 197 -135q0 -87 -91 -111v-2q51 -11 77 -40zM184 78h92q106 0 106 72q0 71 -106 71h-92v-143zM274 430h-90v-136h90q99 0 99 68t-99 68z" />
    <glyph glyph-name="afii10068" unicode="&#x433;" horiz-adv-x="429" 
d="M73 0v508h345v-87h-231v-421h-114z" />
    <glyph glyph-name="afii10069" unicode="&#x434;" horiz-adv-x="612" 
d="M72 87q28 43 45 136q16 88 25 285h390v-421h69v-247h-114v160h-363v-160h-114v247h62zM201 87h217v334h-167q-14 -234 -50 -334z" />
    <glyph glyph-name="afii10070" unicode="&#x435;" horiz-adv-x="562" 
d="M524 231h-373q3 -80 38.5 -121t94.5 -41q47 0 78 22.5t39 61.5h117q-15 -72 -77 -120q-61 -48 -157 -48q-114 0 -180 75.5t-66 199.5q0 116 66 189.5t178 73.5q86 0 146.5 -46t81.5 -127q14 -47 14 -119zM410 306q-6 64 -40 98.5t-88 34.5t-88 -34.5t-41 -98.5h257z" />
    <glyph glyph-name="afii10072" unicode="&#x436;" horiz-adv-x="724" 
d="M734 0h-140l-174 263h-2v-263h-112v263h-2l-174 -263h-140l203 276l-182 232h130l163 -225h2v225h112v-225h2l163 225h130l-182 -232z" />
    <glyph glyph-name="afii10073" unicode="&#x437;" horiz-adv-x="503" 
d="M437 215q25 -29 25 -79q0 -71 -56.5 -111t-153.5 -40q-106 0 -163 45t-57 131h115q0 -89 105 -89q44 0 70.5 18.5t26.5 49.5q0 73 -112 73h-50v85h50q46 0 73 19t27 51t-23 50t-63 18q-46 0 -70.5 -22t-24.5 -64h-114q0 82 56.5 127.5t155.5 45.5q90 0 143 -39t53 -106
q0 -81 -90 -115v-2q52 -16 77 -46z" />
    <glyph glyph-name="afii10074" unicode="&#x438;" horiz-adv-x="646" 
d="M73 0v508h115v-193q0 -107 -6 -213h2q38 83 103 200l117 206h169v-508h-115v192q0 82 5 214h-2q-45 -97 -102 -200l-117 -206h-169z" />
    <glyph glyph-name="afii10075" unicode="&#x439;" horiz-adv-x="646" 
d="M573 0h-115v192q0 82 5 214h-2q-45 -97 -102 -200l-117 -206h-169v508h115v-193q0 -107 -6 -213h2q38 83 103 200l117 206h169v-508zM238 712q4 -34 26 -53t59 -19t59 19t26 53h81q-5 -70 -48.5 -108.5t-117.5 -38.5q-73 0 -116.5 38.5t-48.5 108.5h80z" />
    <glyph glyph-name="afii10076" unicode="&#x43a;" horiz-adv-x="539" 
d="M73 508h114v-208h2l185 208h133l-210 -232l234 -276h-144l-198 246h-2v-246h-114v508z" />
    <glyph glyph-name="afii10077" unicode="&#x43b;" horiz-adv-x="563" 
d="M6 0v83q14 -2 19 -2q35 0 55 32q20 31 30 123q10 85 13 272h367v-508h-114v421h-146q-5 -178 -25 -269t-54.5 -123t-100.5 -34q-19 0 -44 5z" />
    <glyph glyph-name="afii10078" unicode="&#x43c;" horiz-adv-x="801" 
d="M728 508v-508h-107v240q0 93 3 186h-1q-22 -69 -65 -185l-90 -241h-136l-89 241q-43 116 -65 185h-2q3 -93 3 -186v-240h-106v508h181l84 -225q27 -73 61 -191h2q31 106 62 191l83 225h182z" />
    <glyph glyph-name="afii10079" unicode="&#x43d;" horiz-adv-x="601" 
d="M73 0v508h114v-208h227v208h114v-508h-114v213h-227v-213h-114z" />
    <glyph glyph-name="afii10080" unicode="&#x43e;" horiz-adv-x="577" 
d="M539 254q0 -123 -67.5 -196t-182.5 -73t-183 73t-68 196t68 196t183 73t182.5 -73t67.5 -196zM158 254q0 -83 35 -131t96 -48t96 48t35 131t-35 131t-96 48t-96 -48t-35 -131z" />
    <glyph glyph-name="afii10081" unicode="&#x43f;" horiz-adv-x="593" 
d="M73 508h447v-508h-114v421h-219v-421h-114v508z" />
    <glyph glyph-name="afii10082" unicode="&#x440;" horiz-adv-x="587" 
d="M549 254q0 -121 -57.5 -193.5t-153.5 -72.5q-48 0 -87.5 20.5t-61.5 57.5h-2v-251h-114v693h111v-70h2q22 39 62.5 61t88.5 22q97 0 154.5 -73t57.5 -194zM215 124q33 -48 89 -48q58 0 92 48.5t34 129.5t-34 129.5t-92 48.5q-57 0 -90 -47.5t-33 -130.5t34 -130z" />
    <glyph glyph-name="afii10083" unicode="&#x441;" horiz-adv-x="548" 
d="M514 324h-119q-4 50 -34 79.5t-76 29.5q-60 0 -93.5 -47.5t-33.5 -131.5t33.5 -131.5t93.5 -47.5q45 0 75 33t34 85h120q-7 -92 -70 -150q-61 -58 -159 -58q-112 0 -179.5 73t-67.5 196t67.5 196t179.5 73q95 0 158 -55.5t71 -143.5z" />
    <glyph glyph-name="afii10084" unicode="&#x442;" horiz-adv-x="462" 
d="M6 508h450v-87h-167v-421h-115v421h-168v87z" />
    <glyph glyph-name="afii10085" unicode="&#x443;" horiz-adv-x="488" 
d="M116 508l127 -378h2l131 378h118l-196 -530q-36 -96 -84 -132t-138 -36q-33 0 -57 7v93q21 -7 48 -7q46 0 70.5 20t42.5 73l-186 512h122z" />
    <glyph glyph-name="afii10086" unicode="&#x444;" horiz-adv-x="803" 
d="M38 254q0 121 55.5 194t147.5 73q57 0 104 -38v229h114v-229q44 38 103 38q92 0 147.5 -73t55.5 -194t-55.5 -193.5t-148.5 -72.5q-57 0 -102 36v-209h-114v209q-47 -36 -102 -36q-94 0 -149.5 72t-55.5 194zM189 384q-32 -50 -32 -130q0 -81 32 -129.5t87 -48.5
q39 0 69 30v295q-28 31 -69 31q-56 0 -87 -48zM647 254q0 80 -32 130q-33 48 -88 48q-40 0 -68 -31v-295q29 -30 68 -30q55 0 87.5 48.5t32.5 129.5z" />
    <glyph glyph-name="afii10087" unicode="&#x445;" horiz-adv-x="494" 
d="M177 263l-168 245h133l104 -165h2l104 165h133l-168 -245l181 -263h-134l-116 188h-2l-116 -188h-134z" />
    <glyph glyph-name="afii10088" unicode="&#x446;" horiz-adv-x="600" 
d="M73 508h114v-421h219v421h114v-421h69v-247h-114v160h-402v508z" />
    <glyph glyph-name="afii10089" unicode="&#x447;" horiz-adv-x="540" 
d="M30 331v177h114v-155q0 -92 105 -92q53 0 104 17v230h114v-508h-114v193q-66 -19 -141 -19q-87 0 -134.5 41t-47.5 116z" />
    <glyph glyph-name="afii10090" unicode="&#x448;" horiz-adv-x="846" 
d="M73 0v508h114v-421h179v421h114v-421h179v421h114v-508h-700z" />
    <glyph glyph-name="afii10091" unicode="&#x449;" horiz-adv-x="852" 
d="M724 0h-651v508h114v-421h179v421h114v-421h179v421h114v-421h65v-247h-114v160z" />
    <glyph glyph-name="afii10092" unicode="&#x44a;" horiz-adv-x="609" 
d="M147 421h-141v87h255v-176h118q97 0 148.5 -43t51.5 -123t-51.5 -123t-148.5 -43h-232v421zM367 247h-106v-162h106q97 0 97 81t-97 81z" />
    <glyph glyph-name="afii10093" unicode="&#x44b;" horiz-adv-x="765" 
d="M73 508h114v-176h118q97 0 148.5 -43t51.5 -123t-51.5 -123t-148.5 -43h-232v508zM692 0h-114v508h114v-508zM187 85h106q97 0 97 81t-97 81h-106v-162z" />
    <glyph glyph-name="afii10094" unicode="&#x44c;" horiz-adv-x="538" 
d="M305 0h-232v508h114v-176h118q97 0 148.5 -43t51.5 -123t-51.5 -123t-148.5 -43zM187 85h106q97 0 97 81t-97 81h-106v-162z" />
    <glyph glyph-name="afii10095" unicode="&#x44d;" horiz-adv-x="548" 
d="M510 254q0 -123 -67.5 -196t-179.5 -73q-97 0 -159 57q-63 56 -70 147h117q4 -52 35 -84.5t78 -32.5q53 0 86 38t41 107h-195v84h194q-9 64 -42 99.5t-84 35.5q-48 0 -79 -30t-35 -78h-116q8 85 70.5 140t158.5 55q112 0 179.5 -73t67.5 -196z" />
    <glyph glyph-name="afii10096" unicode="&#x44e;" horiz-adv-x="817" 
d="M779 254q0 -123 -67.5 -196t-182.5 -73q-105 0 -171 60t-78 165h-93v-210h-114v508h114v-211l93 1q12 105 78 165t171 60q115 0 182.5 -73t67.5 -196zM398 254q0 -83 35 -131t96 -48t96 48t35 131t-35 131t-96 48t-96 -48t-35 -131z" />
    <glyph glyph-name="afii10097" unicode="&#x44f;" horiz-adv-x="546" 
d="M133 198q-92 41 -92 148q0 79 53.5 120.5t157.5 41.5h221v-508h-112v178h-125l-101 -178h-123zM152 343q0 -82 106 -82h103v161h-98q-111 0 -111 -79z" />
    <glyph glyph-name="uni0450" unicode="&#x450;" horiz-adv-x="562" 
d="M524 231h-373q3 -80 38.5 -121t94.5 -41q47 0 78 22.5t39 61.5h117q-15 -72 -77 -120q-61 -48 -157 -48q-114 0 -180 75.5t-66 199.5q0 116 66 189.5t178 73.5q86 0 146.5 -46t81.5 -127q14 -47 14 -119zM410 306q-6 64 -40 98.5t-88 34.5t-88 -34.5t-41 -98.5h257z
M132 712h143l82 -144h-93z" />
    <glyph glyph-name="afii10071" unicode="&#x451;" horiz-adv-x="562" 
d="M524 231h-373q3 -80 38.5 -121t94.5 -41q47 0 78 22.5t39 61.5h117q-15 -72 -77 -120q-61 -48 -157 -48q-114 0 -180 75.5t-66 199.5q0 116 66 189.5t178 73.5q86 0 146.5 -46t81.5 -127q14 -47 14 -119zM153 306h257q-6 64 -40 98.5t-88 34.5t-88 -34.5t-41 -98.5z
M332 603v109h102v-109h-102zM126 603v109h102v-109h-102z" />
    <glyph glyph-name="afii10099" unicode="&#x452;" 
d="M520 257v-280q0 -167 -160 -167q-29 0 -58 7v85q14 -3 28 -3q40 0 58 21.5t18 71.5v255q0 127 -103 127q-52 0 -84 -39t-32 -107v-228h-114v552h-72v74h72v86h114v-86h219v-74h-219v-158h2q53 72 146 72q89 0 137 -53.5t48 -155.5z" />
    <glyph glyph-name="afii10100" unicode="&#x453;" horiz-adv-x="429" 
d="M73 508h345v-87h-231v-421h-114v508zM170 568l81 144h144l-132 -144h-93z" />
    <glyph glyph-name="afii10101" unicode="&#x454;" horiz-adv-x="548" 
d="M480 428q30 -47 34 -100h-116q-4 48 -35 78t-78 30q-52 0 -85 -35.5t-42 -99.5h194v-84h-195q8 -69 41 -107t87 -38q47 0 77.5 32.5t34.5 84.5h117q-8 -91 -70 -147.5t-159 -56.5q-112 0 -179.5 73t-67.5 196t67.5 196t179.5 73q131 0 195 -95z" />
    <glyph glyph-name="afii10102" unicode="&#x455;" horiz-adv-x="509" 
d="M470 140q0 -70 -58 -112q-58 -43 -155 -43q-105 0 -162 46.5t-58 135.5h116q0 -47 27.5 -72t78.5 -25q43 0 67.5 17t24.5 46q0 44 -50 63q-25 8 -78 21q-63 16 -92 28q-34 13 -58 43t-24 83q0 68 55 110t144 42q99 0 152 -44.5t54 -128.5h-110q0 90 -97 90q-40 0 -62 -16
t-22 -44q0 -37 45 -53q30 -10 70 -20q55 -14 103 -31q35 -15 63 -47q26 -34 26 -89z" />
    <glyph glyph-name="afii10103" unicode="&#x456;" horiz-adv-x="260" 
d="M73 0v508h114v-508h-114zM73 712h114v-109h-114v109z" />
    <glyph glyph-name="afii10104" unicode="&#x457;" horiz-adv-x="260" 
d="M73 508h114v-508h-114v508zM160 712h103v-109h-103v109zM-3 712h102v-109h-102v109z" />
    <glyph glyph-name="afii10105" unicode="&#x458;" horiz-adv-x="264" 
d="M31 -190q-29 0 -58 7v85q13 -3 28 -3q40 0 58 22t18 74v513h114v-528q0 -170 -160 -170zM77 603v109h114v-109h-114z" />
    <glyph glyph-name="afii10106" unicode="&#x459;" horiz-adv-x="841" 
d="M808 166q0 -80 -51 -123q-52 -43 -149 -43h-232v421h-146q-5 -178 -25 -269t-54.5 -123t-100.5 -34q-19 0 -44 5v83q14 -2 19 -2q35 0 55 32q20 31 30 123q10 85 13 272h367v-176h118q97 0 148.5 -43t51.5 -123zM490 247v-162h106q97 0 97 81t-97 81h-106z" />
    <glyph glyph-name="afii10107" unicode="&#x45a;" horiz-adv-x="879" 
d="M846 166q0 -80 -51 -123q-52 -43 -149 -43h-232v222h-227v-222h-114v508h114v-199h227v199h114v-176h118q97 0 148.5 -43t51.5 -123zM634 247h-106v-162h106q97 0 97 81t-97 81z" />
    <glyph glyph-name="afii10108" unicode="&#x45b;" 
d="M520 257v-257h-114v247q0 127 -103 127q-52 0 -84 -39t-32 -107v-228h-114v552h-72v74h72v86h114v-86h219v-74h-219v-158h2q53 72 146 72q89 0 137 -53.5t48 -155.5z" />
    <glyph glyph-name="afii10109" unicode="&#x45c;" horiz-adv-x="539" 
d="M189 300l185 208h133l-210 -232l234 -276h-144l-198 246h-2v-246h-114v508h114v-208h2zM285 712h144l-132 -144h-93z" />
    <glyph glyph-name="uni045D" unicode="&#x45d;" horiz-adv-x="646" 
d="M573 0h-115v192q0 82 5 214h-2q-45 -97 -102 -200l-117 -206h-169v508h115v-193q0 -107 -6 -213h2q38 83 103 200l117 206h169v-508zM318 712l82 -144h-93l-132 144h143z" />
    <glyph glyph-name="afii10110" unicode="&#x45e;" horiz-adv-x="488" 
d="M494 508l-196 -530q-36 -96 -84 -132t-138 -36q-33 0 -57 7v93q21 -7 48 -7q46 0 70.5 20t42.5 73l-186 512h122l127 -378h2l131 378h118zM79 712h80q4 -34 26 -53t59 -19t59 19t26 53h81q-5 -70 -48.5 -108.5t-117.5 -38.5q-73 0 -116.5 38.5t-48.5 108.5z" />
    <glyph glyph-name="afii10193" unicode="&#x45f;" horiz-adv-x="593" 
d="M73 0v508h114v-421h219v421h114v-508h-168v-160h-114v160h-165z" />
    <glyph glyph-name="afii10050" unicode="&#x490;" horiz-adv-x="498" 
d="M88 0v712h286v143h114v-247h-280v-608h-120z" />
    <glyph glyph-name="afii10098" unicode="&#x491;" horiz-adv-x="429" 
d="M73 0v508h237v160h108v-247h-231v-421h-114z" />
    <glyph glyph-name="uni0492" unicode="&#x492;" horiz-adv-x="498" 
d="M24 288v89h64v335h400v-104h-280v-231h145v-89h-145v-288h-120v288h-64z" />
    <glyph glyph-name="uni0493" unicode="&#x493;" horiz-adv-x="433" 
d="M17 197v80h59v231h345v-87h-231v-144h129v-80h-129v-197h-114v197h-59z" />
    <glyph glyph-name="uni0496" unicode="&#x496;" horiz-adv-x="897" 
d="M893 104v-264h-114v160h-30l-239 359h-2v-359h-118v359h-2l-240 -359h-144l268 373l-241 339h139l218 -333h2v333h118v-333h2l217 333h140l-242 -339l193 -269h75z" />
    <glyph glyph-name="uni0497" unicode="&#x497;" horiz-adv-x="724" 
d="M734 87v-247h-114v160h-26l-174 263h-2v-263h-112v263h-2l-174 -263h-140l203 276l-182 232h130l163 -225h2v225h112v-225h2l163 225h130l-182 -232l139 -189h64z" />
    <glyph glyph-name="uni049A" unicode="&#x49a;" horiz-adv-x="644" 
d="M208 395h2l260 317h144l-291 -339l229 -269h88v-264h-114v160h-41l-275 343h-2v-343h-120v712h120v-317z" />
    <glyph glyph-name="uni049B" unicode="&#x49b;" horiz-adv-x="539" 
d="M187 300h2l185 208h133l-210 -232l160 -189h74v-247h-114v160h-30l-198 246h-2v-246h-114v508h114v-208z" />
    <glyph glyph-name="uni049C" unicode="&#x49c;" horiz-adv-x="715" 
d="M711 0h-144l-212 318h-4v-163h-94v163h-51v-318h-118v712h118v-290h51v163h94v-163h5l189 290h140l-240 -339z" />
    <glyph glyph-name="uni049D" unicode="&#x49d;" horiz-adv-x="593" 
d="M602 0h-141l-151 230h-4v-127h-77v127h-45v-230h-111v508h111v-191h45v124h77v-124h6l138 191h130l-181 -232z" />
    <glyph glyph-name="uni04A2" unicode="&#x4a2;" horiz-adv-x="764" 
d="M88 0v712h120v-290h328v290h119v-608h86v-264h-114v160h-91v318h-328v-318h-120z" />
    <glyph glyph-name="uni04A3" unicode="&#x4a3;" horiz-adv-x="607" 
d="M73 0v508h114v-208h227v208h114v-421h69v-247h-114v160h-69v213h-227v-213h-114z" />
    <glyph glyph-name="uni04AE" unicode="&#x4ae;" horiz-adv-x="626" 
d="M3 712h136l78 -141q55 -100 95 -184h2q47 97 96 184l77 141h135l-249 -426v-286h-120v286z" />
    <glyph glyph-name="uni04AF" unicode="&#x4af;" horiz-adv-x="490" 
d="M188 -11l-194 519h119l66 -188q34 -96 65 -203h2q31 107 65 203l66 188h119l-194 -519v-174h-114v174z" />
    <glyph glyph-name="uni04B2" unicode="&#x4b2;" horiz-adv-x="626" 
d="M622 104v-264h-114v160h-28l-166 272h-2l-166 -272h-141l235 364l-223 348h139l156 -261h2l156 261h138l-222 -348l167 -260h69z" />
    <glyph glyph-name="uni04B3" unicode="&#x4b3;" horiz-adv-x="494" 
d="M498 87v-247h-114v160h-20l-116 188h-2l-116 -188h-134l181 263l-168 245h133l104 -165h2l104 165h133l-168 -245l121 -176h60z" />
    <glyph glyph-name="uni04B8" unicode="&#x4b8;" horiz-adv-x="661" 
d="M573 712v-712h-120v282q-41 -12 -97 -18v-140h-102v135q-106 5 -162.5 60.5t-56.5 155.5v237h119v-215q0 -106 100 -129v199h102v-201q51 4 97 17v329h120z" />
    <glyph glyph-name="uni04B9" unicode="&#x4b9;" horiz-adv-x="540" 
d="M467 508v-508h-114v193q-28 -9 -66 -14v-97h-78v92q-86 1 -132.5 42t-46.5 115v177h114v-155q0 -75 65 -88v153h78v-155q37 5 66 15v230h114z" />
    <glyph glyph-name="uni04BA" unicode="&#x4ba;" horiz-adv-x="661" 
d="M88 0v712h120v-282q86 23 179 23q116 0 178 -56t62 -160v-237h-120v215q0 65 -38 99.5t-111 34.5q-78 0 -150 -20v-329h-120z" />
    <glyph glyph-name="uni04BB" unicode="&#x4bb;" 
d="M73 0v712h114v-264h2q53 72 146 72q89 0 137 -53.5t48 -155.5v-311h-114v301q0 127 -103 127q-52 0 -84 -39t-32 -107v-282h-114z" />
    <glyph glyph-name="uni04C0" unicode="&#x4c0;" horiz-adv-x="296" 
d="M208 712v-712h-120v712h120z" />
    <glyph glyph-name="uni04CF" unicode="&#x4cf;" horiz-adv-x="260" 
d="M187 712v-712h-114v712h114z" />
    <glyph glyph-name="uni04D8" unicode="&#x4d8;" horiz-adv-x="752" 
d="M672 166q-43 -86 -120 -133.5t-180 -47.5q-152 0 -242 100t-90 270q0 16 2 42h546q-6 109 -66 167t-158 58q-71 0 -118 -34t-60 -91h-128q21 100 101.5 165t205.5 65q161 0 254.5 -100.5t93.5 -269.5q0 -106 -41 -191zM232 145q56 -53 140 -53q88 0 145 54t68 150h-420
q10 -99 67 -151z" />
    <glyph glyph-name="afii10846" unicode="&#x4d9;" horiz-adv-x="562" 
d="M524 254q0 -118 -67 -193.5t-178 -75.5q-110 0 -175.5 73t-65.5 196q0 11 2 29h371q-3 77 -39.5 116.5t-97.5 39.5q-43 0 -71.5 -22t-35.5 -59h-117q15 71 74 118t150 47q117 0 183.5 -73t66.5 -196zM152 208q6 -67 40 -103t87 -36q54 0 88.5 36.5t41.5 102.5h-257z" />
    <glyph glyph-name="uni04E8" unicode="&#x4e8;" horiz-adv-x="740" 
d="M700 356q0 -116 -40 -197q-40 -84 -114.5 -129t-175.5 -45q-152 0 -241 100t-89 271t89 271t241 100t241 -100t89 -271zM160 408h420q-11 102 -66.5 159.5t-143.5 57.5q-87 0 -142.5 -57.5t-67.5 -159.5zM160 304q12 -101 68 -159q55 -58 142 -58q88 0 143.5 57.5
t66.5 159.5h-420z" />
    <glyph glyph-name="uni04E9" unicode="&#x4e9;" horiz-adv-x="578" 
d="M540 254q0 -82 -30 -142q-31 -61 -88 -94t-133 -33q-115 0 -183 73t-68 196t68 196t183 73t183 -73t68 -196zM154 216q8 -68 44 -106q36 -39 91 -39t91 38.5t44 106.5h-270zM154 293h269q-8 67 -43.5 105.5t-90.5 38.5t-91 -38.5t-44 -105.5z" />
    <glyph glyph-name="Wgrave" unicode="&#x1e80;" horiz-adv-x="936" 
d="M926 712l-157 -712h-161l-71 296q-36 148 -68 313h-2q-32 -165 -68 -313l-71 -296h-161l-157 712h118l58 -274q39 -180 63 -321h2q40 186 72 322l66 273h158l66 -273q32 -136 72 -322h2q18 105 62 321l59 274h118zM461 902l82 -142h-93l-132 142h143z" />
    <glyph glyph-name="wgrave" unicode="&#x1e81;" horiz-adv-x="790" 
d="M784 508l-124 -508h-163l-52 210q-21 84 -49 219h-2q-28 -135 -49 -219l-52 -210h-163l-124 508h114l46 -204q27 -112 46 -225h2q26 123 50 221l51 208h160l51 -208q24 -98 50 -221h2q19 113 46 225l46 204h114zM389 712l82 -144h-93l-132 144h143z" />
    <glyph glyph-name="Wacute" unicode="&#x1e82;" horiz-adv-x="936" 
d="M926 712l-157 -712h-161l-71 296q-36 148 -68 313h-2q-32 -165 -68 -313l-71 -296h-161l-157 712h118l58 -274q39 -180 63 -321h2q40 186 72 322l66 273h158l66 -273q32 -136 72 -322h2q18 105 62 321l59 274h118zM472 902h144l-132 -142h-93z" />
    <glyph glyph-name="wacute" unicode="&#x1e83;" horiz-adv-x="790" 
d="M784 508l-124 -508h-163l-52 210q-21 84 -49 219h-2q-28 -135 -49 -219l-52 -210h-163l-124 508h114l46 -204q27 -112 46 -225h2q26 123 50 221l51 208h160l51 -208q24 -98 50 -221h2q19 113 46 225l46 204h114zM400 712h144l-132 -144h-93z" />
    <glyph glyph-name="Wdieresis" unicode="&#x1e84;" horiz-adv-x="936" 
d="M926 712l-157 -712h-161l-71 296q-36 148 -68 313h-2q-32 -165 -68 -313l-71 -296h-161l-157 712h118l58 -274q39 -180 63 -321h2q40 186 72 322l66 273h158l66 -273q32 -136 72 -322h2q18 105 62 321l59 274h118zM621 881v-109h-102v109h102zM313 772v109h102v-109h-102
z" />
    <glyph glyph-name="wdieresis" unicode="&#x1e85;" horiz-adv-x="790" 
d="M784 508l-124 -508h-163l-52 210q-21 84 -49 219h-2q-28 -135 -49 -219l-52 -210h-163l-124 508h114l46 -204q27 -112 46 -225h2q26 123 50 221l51 208h160l51 -208q24 -98 50 -221h2q19 113 46 225l46 204h114zM447 603v109h102v-109h-102zM241 603v109h102v-109h-102z
" />
    <glyph glyph-name="uni1E9E" unicode="&#x1e9e;" horiz-adv-x="785" 
d="M743 193q0 -98 -65 -152q-64 -54 -174 -54q-111 0 -169.5 51t-58.5 149h117q0 -100 109 -100q54 0 85 28.5t31 79.5q0 69 -53.5 105t-163.5 44v84l137 147q-57 51 -144 51q-96 0 -146 -52.5t-50 -155.5v-418h-120v416q0 150 83.5 230t239.5 80q88 0 162.5 -35t124.5 -97
l-157 -170q212 -50 212 -231z" />
    <glyph glyph-name="Ygrave" unicode="&#x1ef2;" horiz-adv-x="626" 
d="M217 571q55 -100 95 -184h2q47 97 96 184l77 141h135l-249 -426v-286h-120v286l-250 426h136zM164 902h143l82 -142h-93z" />
    <glyph glyph-name="ygrave" unicode="&#x1ef3;" horiz-adv-x="488" 
d="M494 508l-196 -530q-36 -96 -84 -132t-138 -36q-33 0 -57 7v93q21 -7 48 -7q46 0 70.5 20t42.5 73l-186 512h122l127 -378h2l131 378h118zM238 712l82 -144h-93l-132 144h143z" />
    <glyph glyph-name="uni2010" unicode="&#x2010;" horiz-adv-x="310" 
d="M280 339v-94h-250v94h250z" />
    <glyph glyph-name="endash" unicode="&#x2013;" horiz-adv-x="500" 
d="M20 245v94h460v-94h-460z" />
    <glyph glyph-name="emdash" unicode="&#x2014;" horiz-adv-x="1000" 
d="M20 245v94h960v-94h-960z" />
    <glyph glyph-name="afii00208" unicode="&#x2015;" horiz-adv-x="1000" 
d="M980 339v-94h-960v94h960z" />
    <glyph glyph-name="underscoredbl" unicode="&#x2017;" horiz-adv-x="500" 
d="M0 -50h500v-60h-500v60zM0 -247v60h500v-60h-500z" />
    <glyph glyph-name="quoteleft" unicode="&#x2018;" horiz-adv-x="246" 
d="M65 572l56 140h62l-41 -140h39v-125h-116v125z" />
    <glyph glyph-name="quoteright" unicode="&#x2019;" horiz-adv-x="246" 
d="M125 447h-62l41 140h-39v125h115v-125z" />
    <glyph glyph-name="quotesinglbase" unicode="&#x201a;" horiz-adv-x="246" 
d="M104 0h-39v125h115v-125l-55 -140h-62z" />
    <glyph glyph-name="quotereversed" unicode="&#x201b;" horiz-adv-x="246" 
d="M65 712h116v-125h-39l41 -140h-62l-56 140v125z" />
    <glyph glyph-name="quotedblleft" unicode="&#x201c;" horiz-adv-x="417" 
d="M181 447h-116v125l56 140h62l-41 -140h39v-125zM237 572l55 140h62l-41 -140h39v-125h-115v125z" />
    <glyph glyph-name="quotedblright" unicode="&#x201d;" horiz-adv-x="417" 
d="M234 447l41 140h-39v125h115v-125l-55 -140h-62zM104 587h-39v125h115v-125l-55 -140h-62z" />
    <glyph glyph-name="quotedblbase" unicode="&#x201e;" horiz-adv-x="417" 
d="M234 -140l41 140h-39v125h115v-125l-55 -140h-62zM104 0h-39v125h115v-125l-55 -140h-62z" />
    <glyph glyph-name="dagger" unicode="&#x2020;" horiz-adv-x="550" 
d="M218 437h-164v92h164v183h115v-183h163v-92h-163v-557h-115v557z" />
    <glyph glyph-name="daggerdbl" unicode="&#x2021;" horiz-adv-x="550" 
d="M496 529v-92h-163v-261h163v-93h-163v-203h-115v203h-164v93h164v261h-164v92h164v183h115v-183h163z" />
    <glyph glyph-name="bullet" unicode="&#x2022;" horiz-adv-x="347" 
d="M46 356q0 52 37.5 89.5t90.5 37.5t90 -37t37 -90t-37 -90t-90 -37q-52 0 -90 37.5t-38 89.5z" />
    <glyph glyph-name="ellipsis" unicode="&#x2026;" horiz-adv-x="826" 
d="M639 142h132v-142h-132v142zM347 142h132v-142h-132v142zM55 142h132v-142h-132v142z" />
    <glyph glyph-name="perthousand" unicode="&#x2030;" horiz-adv-x="1052" 
d="M684 153q0 -80 -37 -124t-104 -44t-103.5 44t-36.5 124q0 81 36.5 125t103.5 44q68 0 104.5 -44t36.5 -125zM30 521q0 80 36.5 124t103.5 44t104 -44t37 -124q0 -81 -36.5 -124.5t-104.5 -43.5q-67 0 -103.5 43.5t-36.5 124.5zM779 29q-37 43 -37 124q0 82 37 125
q36 44 103 44t103.5 -44t36.5 -125q0 -80 -36.5 -124t-103.5 -44t-103 44zM108 -30l421 734h77l-421 -734h-77zM585 79q15 26 15 74q0 101 -57 101q-26 0 -41 -26.5t-15 -74.5t15 -74.5t41 -26.5q27 0 42 27zM114 521q0 -49 15 -74q15 -27 41 -27q57 0 57 101q0 48 -15 74.5
t-42 26.5q-26 0 -41 -26.5t-15 -74.5zM841 228q-15 -26 -15 -75t15 -74q13 -27 41 -27q56 0 56 101t-56 101q-27 0 -41 -26z" />
    <glyph glyph-name="minute" unicode="&#x2032;" horiz-adv-x="201" 
d="M30 444l36 230h105l-68 -230h-73z" />
    <glyph glyph-name="second" unicode="&#x2033;" horiz-adv-x="365" 
d="M197 444l36 230h105l-68 -230h-73zM30 444l36 230h105l-68 -230h-73z" />
    <glyph glyph-name="guilsinglleft" unicode="&#x2039;" horiz-adv-x="308" 
d="M160 54l-114 200l114 200h102l-109 -200l109 -200h-102z" />
    <glyph glyph-name="guilsinglright" unicode="&#x203a;" horiz-adv-x="308" 
d="M155 254l-109 200h102l114 -200l-114 -200h-102z" />
    <glyph glyph-name="exclamdbl" unicode="&#x203c;" horiz-adv-x="537" 
d="M105 187l-26 525h141l-26 -525h-89zM316 712h141l-26 -525h-89zM451 119v-119h-129v119h129zM85 0v119h129v-119h-129z" />
    <glyph glyph-name="uni203D" unicode="&#x203d;" horiz-adv-x="532" 
d="M494 483q0 -36 -8 -63q-15 -51 -95 -112q-51 -41 -63.5 -62t-14.5 -70h-94l-14 365q-51 -24 -55 -94h-118q3 84 46.5 135t122.5 66l-2 64h124l-3 -61q81 -11 127.5 -55.5t46.5 -112.5zM328 0h-129v119h129v-119zM316 548l-8 -185h2l25 26q23 24 31 42t8 46q0 54 -58 71z
" />
    <glyph glyph-name="uni203E" unicode="&#x203e;" horiz-adv-x="500" 
d="M0 783v78h500v-78h-500z" />
    <glyph glyph-name="fraction" unicode="&#x2044;" horiz-adv-x="148" 
d="M-73 0h-83l377 674h82z" />
    <glyph glyph-name="uni2070" unicode="&#x2070;" horiz-adv-x="451" 
d="M84 749q49 64 142 64q92 0 142 -64t50 -183t-50 -183t-142 -64q-93 0 -142 64q-50 65 -50 183t50 183zM137 566q0 -81 23 -124t66 -43t65.5 43.5t22.5 123.5t-22.5 123t-65.5 43t-66 -43t-23 -123z" />
    <glyph glyph-name="uni2074" unicode="&#x2074;" horiz-adv-x="427" 
d="M206 802h132v-288h78v-78h-78v-106h-99v106h-228v83zM102 514h140v56q0 63 4 154h-2q-22 -37 -78 -118z" />
    <glyph glyph-name="uni2075" unicode="&#x2075;" horiz-adv-x="433" 
d="M372 802v-83h-221l-11 -110h2q35 35 95 35q73 0 117 -43q44 -44 44 -113q0 -76 -50 -123q-50 -46 -134 -46q-82 0 -130 38.5t-48 104.5h102q1 -30 21.5 -46.5t53.5 -16.5q38 0 59.5 22.5t21.5 62.5q0 39 -21.5 61t-57.5 22q-60 0 -74 -53l-100 6l27 282h304z" />
    <glyph glyph-name="uni2076" unicode="&#x2076;" horiz-adv-x="432" 
d="M359 595q43 -42 43 -110q0 -73 -50 -120q-50 -46 -131 -46q-91 0 -139 59.5t-48 173.5q0 125 51.5 193t144.5 68q73 0 117 -37t49 -104h-103q-9 62 -67 62q-90 0 -96 -146h2q40 49 113 49q71 0 114 -42zM166 540q-22 -22 -22 -60q0 -37 22 -59q21 -22 56 -22t56 22.5
t21 59.5t-21 59.5t-56 22.5t-56 -23z" />
    <glyph glyph-name="uni2077" unicode="&#x2077;" horiz-adv-x="383" 
d="M271 717h-260v85h361v-83q-116 -161 -161 -389h-110q26 114 71 216t99 171z" />
    <glyph glyph-name="uni2078" unicode="&#x2078;" horiz-adv-x="434" 
d="M402 458q0 -63 -50 -101q-52 -38 -135 -38q-84 0 -134.5 37.5t-50.5 101.5q0 43 25.5 73.5t70.5 42.5v2q-40 13 -63 40.5t-23 64.5q0 59 49 96q48 36 126 36q77 0 126 -36q48 -37 48 -96q0 -37 -23 -64.5t-63 -40.5v-2q45 -12 71 -42.5t26 -73.5zM134 466q0 -31 23 -49
t60 -18q38 0 60 18t22 49t-22.5 49.5t-59.5 18.5q-38 0 -60.5 -18.5t-22.5 -49.5zM161 718q-22 -16 -22 -44q0 -30 21 -46q21 -18 57 -18q35 0 56 17.5t21 46.5q0 27 -21 43.5t-56 16.5q-36 0 -56 -16z" />
    <glyph glyph-name="uni2079" unicode="&#x2079;" horiz-adv-x="432" 
d="M350 754q49 -58 49 -174q0 -125 -52 -193t-145 -68q-72 0 -116 37t-49 104h102q11 -62 67 -62q91 0 96 146h-2q-40 -49 -113 -49q-69 0 -113 42t-44 110q0 73 51 120q49 46 130 46q89 0 139 -59zM154 711q-21 -23 -21 -60t21 -59.5t56 -22.5t56.5 23t21.5 60t-21.5 59
t-56.5 22t-56 -22z" />
    <glyph glyph-name="uni207A" unicode="&#x207a;" horiz-adv-x="410" 
d="M166 513h-119v77h119v116h79v-116h118v-77h-118v-115h-79v115z" />
    <glyph glyph-name="uni207B" unicode="&#x207b;" horiz-adv-x="410" 
d="M47 513v77h316v-77h-316z" />
    <glyph glyph-name="uni207C" unicode="&#x207c;" horiz-adv-x="410" 
d="M47 656h316v-75h-316v75zM47 447v75h316v-75h-316z" />
    <glyph glyph-name="uni207D" unicode="&#x207d;" horiz-adv-x="235" 
d="M57 376q-25 72 -25 162q0 169 101 311h81q-77 -157 -77 -311t77 -311h-81q-51 72 -76 149z" />
    <glyph glyph-name="uni207E" unicode="&#x207e;" horiz-adv-x="235" 
d="M21 849h81q101 -145 101 -311q0 -169 -101 -311h-81q77 157 77 311t-77 311z" />
    <glyph glyph-name="uni2080" unicode="&#x2080;" horiz-adv-x="451" 
d="M84 -119q-50 65 -50 183q0 119 49.5 183t142.5 64q92 0 142 -64t50 -183t-50 -183t-142 -64q-93 0 -142 64zM137 64q0 -81 23 -124t66 -43t65.5 43.5t22.5 123.5t-22.5 123t-65.5 43t-66 -43t-23 -123z" />
    <glyph glyph-name="uni2081" unicode="&#x2081;" horiz-adv-x="300" 
d="M10 219q64 0 95 19t38 62h89v-472h-102v317h-120v74z" />
    <glyph glyph-name="uni2082" unicode="&#x2082;" horiz-adv-x="439" 
d="M405 -172h-367q-2 8 -2 20q0 76 29.5 121.5t112.5 91.5q56 29 85 55q25 22 25 56q0 26 -18 42t-49 16q-73 0 -76 -77h-102q1 75 48.5 116.5t129.5 41.5q78 0 125 -38q47 -39 47 -100q0 -54 -31 -90t-100 -72q-66 -34 -86 -54q-21 -20 -23 -46h252v-83z" />
    <glyph glyph-name="uni2083" unicode="&#x2083;" horiz-adv-x="433" 
d="M398 -44q0 -63 -49.5 -101t-131.5 -38q-90 0 -138.5 42.5t-48.5 119.5h103q0 -81 84 -81q35 0 56.5 17t21.5 45q0 67 -98 67h-15v78h17q42 0 66.5 17t24.5 47q0 28 -20.5 44.5t-55.5 16.5q-77 0 -77 -78h-101q0 75 47.5 117t132.5 42q81 0 128 -36t47 -97q0 -39 -20 -64
t-64 -42v-2q47 -16 69 -43t22 -71z" />
    <glyph glyph-name="uni2084" unicode="&#x2084;" horiz-adv-x="427" 
d="M415 -66h-78v-106h-99v106h-228v83l195 283h132v-288h78v-78zM241 12v56q0 63 4 154h-2q-22 -37 -78 -118l-64 -92h140z" />
    <glyph glyph-name="uni2085" unicode="&#x2085;" horiz-adv-x="433" 
d="M372 217h-221l-11 -110h2q35 35 95 35q73 0 117 -43q44 -44 44 -113q0 -76 -50 -123q-50 -46 -134 -46q-82 0 -130 38.5t-48 104.5h102q1 -30 21.5 -46.5t53.5 -16.5q38 0 59.5 22.5t21.5 62.5q0 39 -21.5 61t-57.5 22q-60 0 -74 -53l-100 6l27 282h304v-83z" />
    <glyph glyph-name="uni2086" unicode="&#x2086;" horiz-adv-x="432" 
d="M402 -17q0 -73 -50 -120q-50 -46 -131 -46q-91 0 -139 59.5t-48 173.5q0 125 51.5 193t144.5 68q73 0 117 -37t49 -104h-103q-9 62 -67 62q-90 0 -96 -146h2q40 49 113 49q71 0 114 -42t43 -110zM166 -81q21 -22 56 -22t56 22.5t21 59.5t-21 59.5t-56 22.5t-56.5 -23
t-21.5 -60t22 -59z" />
    <glyph glyph-name="uni2087" unicode="&#x2087;" horiz-adv-x="383" 
d="M10 300h361v-83q-116 -161 -161 -389h-110q26 114 71 216t99 171h-260v85z" />
    <glyph glyph-name="uni2088" unicode="&#x2088;" horiz-adv-x="434" 
d="M352 -146q-50 -37 -135 -37q-84 0 -134.5 37.5t-50.5 101.5q0 43 25.5 73.5t70.5 42.5v2q-40 13 -63 40.5t-23 64.5q0 59 49 96q48 36 126 36q77 0 126 -36q48 -37 48 -96q0 -37 -23 -64.5t-63 -40.5v-2q45 -12 71 -42.5t26 -73.5q0 -64 -50 -102zM157 -85q23 -18 60 -18
q38 0 60 18t22 49t-22.5 49.5t-59.5 18.5q-38 0 -60.5 -18.5t-22.5 -49.5t23 -49zM160 126q21 -18 57 -18q35 0 56 17.5t21 46.5q0 27 -21 43.5t-56 16.5t-56.5 -16.5t-21.5 -43.5q0 -30 21 -46z" />
    <glyph glyph-name="uni2089" unicode="&#x2089;" horiz-adv-x="432" 
d="M399 78q0 -125 -52 -193t-145 -68q-72 0 -116 37t-49 104h102q11 -62 67 -62q91 0 96 146h-2q-40 -49 -113 -49q-69 0 -113 42t-44 110q0 73 51 120q49 46 130 46q91 0 139.5 -59.5t48.5 -173.5zM133 149q0 -37 21 -59.5t56 -22.5t56.5 23t21.5 60t-21.5 59t-56.5 22
t-56 -22.5t-21 -59.5z" />
    <glyph glyph-name="uni208A" unicode="&#x208a;" horiz-adv-x="411" 
d="M47 88h119v116h79v-116h118v-77h-118v-115h-79v115h-119v77z" />
    <glyph glyph-name="uni208B" unicode="&#x208b;" horiz-adv-x="411" 
d="M363 88v-77h-316v77h316z" />
    <glyph glyph-name="uni208C" unicode="&#x208c;" horiz-adv-x="411" 
d="M47 -55v75h316v-75h-316zM47 79v75h316v-75h-316z" />
    <glyph glyph-name="uni208D" unicode="&#x208d;" horiz-adv-x="235" 
d="M32 36q0 169 101 311h81q-77 -157 -77 -311t77 -311h-81q-101 145 -101 311z" />
    <glyph glyph-name="uni208E" unicode="&#x208e;" horiz-adv-x="235" 
d="M102 347q101 -145 101 -311q0 -169 -101 -311h-81q77 157 77 311t-77 311h81z" />
    <glyph glyph-name="uni2099" unicode="&#x2099;" horiz-adv-x="434" 
d="M51 -172v356h93v-44h1q40 53 108 53q64 0 98.5 -37.5t34.5 -109.5v-218h-97v208q0 79 -65 79q-35 0 -55 -25t-20 -71v-191h-98z" />
    <glyph glyph-name="franc" unicode="&#x20a3;" horiz-adv-x="581" 
d="M552 674v-104h-327v-157h303v-104h-303v-105h168v-89h-168v-115h-120v115h-81v89h81v470h447z" />
    <glyph glyph-name="lira" unicode="&#x20a4;" horiz-adv-x="581" 
d="M360 415v-65h-124v-48h124v-64h-124v-7q0 -53 -13 -82.5t-44 -50.5v-2h363v-96h-518v97q48 0 70.5 31.5t22.5 101.5v8h-93v64h93v48h-93v65h93v45q0 113 56 171t165 58q98 0 154 -56.5t56 -154.5h-115q0 54 -25 82.5t-70 28.5q-102 0 -102 -129v-45h124z" />
    <glyph glyph-name="peseta" unicode="&#x20a7;" horiz-adv-x="867" 
d="M836 508v-87h-99v-254q0 -43 15.5 -61.5t52.5 -18.5q19 0 36 5v-89q-31 -9 -65 -9q-81 0 -117 36.5t-36 119.5v271h-58q-9 -91 -74.5 -141.5t-178.5 -50.5h-104v-229h-120v674h224q104 0 168 -43.5t81 -122.5h62v127h114v-127h99zM208 573v-243h90q146 0 146 122
q0 121 -146 121h-90z" />
    <glyph glyph-name="Euro" unicode="&#x20ac;" horiz-adv-x="581" 
d="M450 207h117q-10 -105 -74.5 -163.5t-169.5 -58.5q-110 0 -178 66.5t-86 193.5h-58l12 64h41l-1 28v20h-52l12 65h45q16 130 85 198.5t182 68.5q106 0 168.5 -57.5t69.5 -161.5h-114q-17 119 -124 119q-124 0 -149 -167h237l-12 -65h-231v-20q0 -22 1 -28h221l-12 -64
h-203q26 -160 146 -160q52 0 85.5 32t41.5 90z" />
    <glyph glyph-name="uni20B9" unicode="&#x20b9;" horiz-adv-x="581" 
d="M554 674l-21 -75h-156v-2q51 -22 64 -76h113l-21 -75h-91q-23 -110 -163 -136v-2q67 -27 113 -124l90 -184h-136l-81 173q-27 59 -61 84t-85 25h-16v80h45q128 0 160 84h-280l21 75h262q-21 78 -154 78h-129l21 75h505z" />
    <glyph glyph-name="uni20BA" unicode="&#x20ba;" horiz-adv-x="581" 
d="M560 320q0 -161 -88 -243q-89 -83 -252 -83q-60 0 -114 6v259l-90 -49v80l90 49v77l-90 -49v80l90 49v178h120v-121l166 90v-80l-166 -90v-76l166 90v-80l-166 -90v-218q102 0 156 56.5t54 164.5h124z" />
    <glyph glyph-name="uni20BC" unicode="&#x20bc;" horiz-adv-x="686" 
d="M643 304v-304h-110v301q0 105 -30.5 151.5t-104.5 51.5v-504h-110v504q-73 -5 -104 -52t-31 -151v-301h-110v304q0 150 59.5 224t185.5 82v102h110v-102q126 -8 185.5 -82t59.5 -224z" />
    <glyph glyph-name="uni20BD" unicode="&#x20bd;" horiz-adv-x="581" 
d="M557 469q0 -97 -60.5 -151.5t-173.5 -54.5h-114v-61h189v-89h-189v-113h-118v113h-81v89h81v61h-81v93h81v318h232q113 0 173.5 -54.5t60.5 -150.5zM209 581v-225h100q126 0 126 113q0 54 -32 83t-94 29h-100z" />
    <glyph glyph-name="afii61248" unicode="&#x2105;" horiz-adv-x="918" 
d="M842 311q50 -52 50 -137q0 -87 -50 -138t-136 -51t-136.5 51t-50.5 138q0 86 50.5 137t136.5 51q85 0 136 -51zM77 639q50 50 133 50q74 0 120 -40q47 -41 53 -103h-102q-2 29 -21.5 48t-48.5 19q-38 0 -59.5 -29.5t-21.5 -81.5q0 -53 21.5 -83t59.5 -30q29 0 48.5 20.5
t21.5 52.5h102q-5 -67 -52 -108.5t-121 -41.5q-84 0 -133.5 51t-49.5 139q0 85 50 137zM598 674h82l-376 -674h-83zM767 91q22 29 22 83q0 53 -22 82.5t-61 29.5t-61.5 -30t-22.5 -82t22.5 -82.5t61.5 -30.5q38 0 61 30z" />
    <glyph glyph-name="afii61289" unicode="&#x2113;" horiz-adv-x="445" 
d="M343 643q40 -46 40 -149q0 -118 -45.5 -192t-129.5 -99v-44q0 -44 17 -64.5t54 -20.5q24 0 48 8v-81q-36 -11 -76 -11q-80 0 -118 40.5t-38 126.5v32q-25 2 -53 7v66q28 -5 53 -7v219q0 120 33.5 167.5t109.5 47.5q65 0 105 -46zM208 276q104 50 104 218q0 119 -56 119
q-27 0 -37.5 -25t-10.5 -91v-221z" />
    <glyph glyph-name="afii61352" unicode="&#x2116;" horiz-adv-x="1162" 
d="M88 0v712h173l153 -298q74 -145 151 -306h2q-5 200 -5 324v280h115v-712h-172l-154 298q-74 145 -151 306h-2q6 -162 6 -324v-280h-116zM814 292q-51 51 -51 138q0 86 51 137q50 51 135 51q86 0 136.5 -51t50.5 -137q0 -88 -50.5 -138.5t-136.5 -50.5q-85 0 -135 51z
M1011 348q22 29 22 82t-22 82q-23 30 -62 30q-38 0 -60.5 -30t-22.5 -82t22.5 -82.5t60.5 -30.5q40 0 62 31zM780 98v88h336v-88h-336z" />
    <glyph glyph-name="uni2117" unicode="&#x2117;" horiz-adv-x="806" 
d="M718 163q-45 -84 -126.5 -130t-188.5 -46q-158 -2 -259.5 102t-99.5 267q-2 163 99.5 267t259.5 102q107 0 188.5 -46t126.5 -130q44 -85 44 -193t-44 -193zM675 523q-39 72 -109.5 111.5t-162.5 39.5q-139 0 -224 -87.5t-85 -230.5t85 -230.5t224 -87.5q92 0 162.5 39.5
t109.5 111.5q38 73 38 167t-38 167zM346 121h-83v460h172q84 0 129 -39t45 -109t-45 -109t-129 -39h-89v-164zM426 510h-80v-153h80q96 0 96 76q0 77 -96 77z" />
    <glyph glyph-name="trademark" unicode="&#x2122;" horiz-adv-x="815" 
d="M771 712v-356h-77v166q0 16 2 128h-2l-35 -126l-49 -168h-95l-49 168q-28 98 -35 126h-2q2 -112 2 -128v-166h-77v356h129l43 -149q22 -76 35 -132h2q13 56 35 132l44 149h129zM116 641h-111v71h305v-71h-111v-285h-83v285z" />
    <glyph glyph-name="uni2126" unicode="&#x2126;" horiz-adv-x="731" 
d="M697 0h-275v107q72 73 106 139.5t34 149.5q0 108 -52.5 166t-143.5 58t-143.5 -58t-52.5 -166q0 -82 34 -149t105 -140v-107h-275v102h160v2q-75 76 -112 148.5t-37 159.5q0 153 87 234t234 81q145 0 233 -80q87 -79 87 -235q0 -87 -37 -160t-112 -148v-2h160v-102z" />
    <glyph glyph-name="estimated" unicode="&#x212e;" horiz-adv-x="862" 
d="M95 158q-48 80 -48 179q-2 151 105 252.5t279 99.5q86 1 159.5 -28t122 -79t75.5 -116t26 -139h-611q-14 0 -14 -12v-167q0 -28 16 -44q92 -91 226 -91q71 0 134.5 30t104.5 80h69q-41 -57 -118 -95q-77 -40 -190 -40t-200.5 44.5t-135.5 125.5zM671 362v166q0 27 -15 41
q-94 94 -225 94q-132 0 -226 -94q-16 -15 -16 -41v-166q0 -13 14 -13h455q13 0 13 13z" />
    <glyph glyph-name="oneeighth" unicode="&#x215b;" horiz-adv-x="787" 
d="M708 382q43 -31 43 -83q0 -65 -73 -88v-2q39 -10 60.5 -35.5t21.5 -61.5q0 -56 -44.5 -89t-119.5 -33t-119 33t-44 89q0 36 22 61.5t61 35.5v2q-74 24 -74 88q0 51 43 83t111 32t112 -32zM479 674h82l-376 -674h-83zM9 604q94 0 110 70h85v-404h-96v265h-99v69zM647 78
q18 14 18 39t-19 40t-50 15q-30 0 -49 -15t-19 -40t18.5 -39t49.5 -14t51 14zM596 342q-29 0 -46 -13.5t-17 -35.5q0 -23 17 -37t46 -14q30 0 47.5 14t17.5 37t-17.5 36t-47.5 13z" />
    <glyph glyph-name="threeeighths" unicode="&#x215c;" horiz-adv-x="911" 
d="M557 112q0 36 22 61.5t61 35.5v2q-74 24 -74 88q0 51 43 83t111 32q69 0 112 -32t43 -83q0 -65 -73 -88v-2q39 -10 60.5 -35.5t21.5 -61.5q0 -56 -44.5 -89t-119.5 -33t-119 33t-44 89zM26 400h95q0 -65 71 -65q29 0 47 13.5t18 35.5q0 54 -81 54h-14v71h13q35 0 56 14.5
t21 39.5q0 21 -16.5 34t-45.5 13q-66 0 -66 -62h-93q0 64 42.5 100t116.5 36q72 0 114 -31.5t42 -83.5q0 -63 -72 -90v-1q41 -13 59 -36.5t18 -62.5q0 -55 -43 -87t-116 -32q-79 0 -122.5 36.5t-43.5 103.5zM685 674l-376 -674h-83l377 674h82zM652 117q0 -25 18.5 -39
t49.5 -14q32 0 50.5 14t18.5 39t-19 40t-50 15q-30 0 -49 -15t-19 -40zM674 256q17 -14 46 -14q30 0 47.5 14t17.5 37t-17.5 36t-47.5 13q-29 0 -46 -13.5t-17 -35.5q0 -23 17 -37z" />
    <glyph glyph-name="fiveeighths" unicode="&#x215d;" horiz-adv-x="911" 
d="M600 23q-44 33 -44 89q0 36 22 61.5t61 35.5v2q-74 24 -74 88q0 51 43 83t111 32q69 0 112 -32t43 -83q0 -65 -73 -88v-2q39 -10 60.5 -35.5t21.5 -61.5q0 -56 -44.5 -89t-119.5 -33t-119 33zM31 384h96q1 -24 18 -37.5t44 -13.5q32 0 50 19t18 51q0 31 -17.5 48.5
t-47.5 17.5q-52 0 -63 -43l-93 5l23 243h270v-77h-192l-9 -85h2q31 28 82 28q63 0 101.5 -37.5t38.5 -99.5q0 -65 -44 -104t-118 -39q-72 0 -115.5 33.5t-43.5 90.5zM685 674l-376 -674h-83l377 674h82zM670 78q19 -14 49 -14q32 0 50.5 14t18.5 39t-19 40t-50 15
q-30 0 -49 -15t-19 -40q0 -26 19 -39zM673 256q17 -14 46 -14q30 0 47.5 14t17.5 37t-17.5 36t-47.5 13q-29 0 -46 -13.5t-17 -35.5q0 -23 17 -37z" />
    <glyph glyph-name="seveneighths" unicode="&#x215e;" horiz-adv-x="815" 
d="M736 382q43 -31 43 -83q0 -65 -73 -88v-2q39 -10 60.5 -35.5t21.5 -61.5q0 -56 -44.5 -89t-119.5 -33t-119 33t-44 89q0 36 22 61.5t61 35.5v2q-74 24 -74 88q0 51 43 83t111 32t112 -32zM9 674h317v-76q-98 -131 -138 -328h-101q47 202 145 326h-223v78zM130 0l377 674
h82l-376 -674h-83zM675 78q18 14 18 39t-19 40t-50 15q-30 0 -49 -15t-19 -40t18.5 -39t49.5 -14t51 14zM672 256q17 14 17 37t-17.5 36t-47.5 13q-29 0 -46 -13.5t-17 -35.5q0 -23 17 -37t46 -14t48 14z" />
    <glyph glyph-name="uni2166" unicode="&#x2166;" horiz-adv-x="1204" 
d="M6 712h123l97 -297q37 -108 89 -298h2q39 150 88 298l97 297h123l-233 -712h-152zM699 712h120v-712h-120v712zM1115 0h-120v712h120v-712z" />
    <glyph glyph-name="partialdiff" unicode="&#x2202;" horiz-adv-x="613" 
d="M546 378q0 -195 -73.5 -294t-192.5 -99q-114 0 -176 65t-62 173q0 112 65.5 184t173.5 72q99 0 148 -69h2q1 6 1 27q0 86 -41.5 139t-105.5 53q-87 0 -100 -88h-120q9 88 64 137t151 49q130 0 198 -89t68 -260zM197 342q-36 -46 -36 -120q0 -66 31.5 -102.5t91.5 -36.5
q62 0 97.5 44.5t35.5 117.5q0 66 -33 105t-91 39q-60 0 -96 -47z" />
    <glyph glyph-name="uni2206" unicode="&#x2206;" horiz-adv-x="687" 
d="M264 712h162l257 -712h-679zM165 104h355l-85 249q-41 121 -91 283h-2q-26 -87 -92 -283z" />
    <glyph glyph-name="product" unicode="&#x220f;" horiz-adv-x="670" 
d="M88 712h494v-832h-119v728h-255v-728h-120v832z" />
    <glyph glyph-name="summation" unicode="&#x2211;" horiz-adv-x="500" 
d="M465 -120h-430v105l189 309l-189 313v105h430v-105h-298l187 -313l-187 -309h298v-105z" />
    <glyph glyph-name="minus" unicode="&#x2212;" horiz-adv-x="566" 
d="M67 271v91h432v-91h-432z" />
    <glyph glyph-name="uni2215" unicode="&#x2215;" horiz-adv-x="473" 
d="M328 745h94l-298 -834h-94z" />
    <glyph glyph-name="uni2219" unicode="&#x2219;" horiz-adv-x="353" 
d="M242 376v-141h-132v141h132z" />
    <glyph glyph-name="radical" unicode="&#x221a;" horiz-adv-x="608" 
d="M107 277h-82v92h159l93 -389h2l209 732h100l-238 -832h-149z" />
    <glyph glyph-name="infinity" unicode="&#x221e;" horiz-adv-x="651" 
d="M636 308q0 -73 -41 -117t-107 -44q-51 0 -88 23t-75 70q-36 -47 -73 -70t-88 -23q-67 0 -108 44t-41 117t41 117t108 44q51 0 88 -23t73 -70q38 47 75 70t88 23q66 0 107 -44t41 -117zM122 362q-18 -20 -18 -54t18 -54t51 -20q29 0 52.5 18t51.5 56q-28 38 -51.5 56
t-52.5 18q-33 0 -51 -20zM374 308q28 -38 51.5 -56t52.5 -18q33 0 51 20t18 54t-18 54t-51 20q-29 0 -52.5 -18t-51.5 -56z" />
    <glyph glyph-name="integral" unicode="&#x222b;" horiz-adv-x="333" 
d="M9 -101q11 -4 27 -4q39 0 56.5 19.5t17.5 63.5v584q0 157 154 157q28 0 60 -7v-84q-11 4 -28 4q-37 0 -55 -19.5t-18 -63.5v-584q0 -157 -154 -157q-28 0 -60 7v84z" />
    <glyph glyph-name="approxequal" unicode="&#x2248;" horiz-adv-x="566" 
d="M138 145h-75q0 70 35 114q34 43 93 43q46 0 108 -48q48 -36 73 -36q27 0 41.5 19t14.5 52h75q0 -71 -35 -114t-93 -43q-28 0 -51 11t-56 36q-48 36 -74 36q-27 0 -41.5 -18.5t-14.5 -51.5zM414 438q14 20 14 51h75q0 -70 -35 -113.5t-93 -43.5q-47 0 -107 48
q-48 36 -74 36q-27 0 -41.5 -19t-14.5 -52h-75q0 71 35 114t93 43q28 0 50 -10.5t58 -36.5q48 -36 73 -36q27 0 42 19z" />
    <glyph glyph-name="notequal" unicode="&#x2260;" horiz-adv-x="566" 
d="M499 273v-91h-253l-73 -122h-87l73 122h-92v91h146l53 87h-199v91h253l73 122h87l-73 -122h92v-91h-146l-53 -87h199z" />
    <glyph glyph-name="lessequal" unicode="&#x2264;" horiz-adv-x="566" 
d="M67 393l432 157v-94l-326 -119v-2l326 -120v-94l-432 157v115zM499 0h-432v89h432v-89z" />
    <glyph glyph-name="greaterequal" unicode="&#x2265;" horiz-adv-x="566" 
d="M499 278l-432 -157v94l326 120v2l-326 119v94l432 -157v-115zM499 0h-432v89h432v-89z" />
    <glyph glyph-name="lozenge" unicode="&#x25ca;" horiz-adv-x="621" 
d="M40 356l195 356h151l195 -356l-195 -356h-151zM310 630l-152 -274l152 -274l153 274z" />
    <glyph glyph-name="uniF8FF" unicode="&#xf8ff;" horiz-adv-x="633" 
 />
    <glyph glyph-name="uniFB00" unicode="&#xfb00;" horiz-adv-x="615" 
d="M603 712v-84q-11 4 -27 4q-37 0 -55 -19.5t-18 -63.5v-41h98v-87h-98v-421h-113v421h-179v-421h-113v421h-86v87h86v54q0 157 154 157q28 0 60 -7v-84q-12 4 -28 4q-37 0 -55 -19.5t-18 -63.5v-41h179v54q0 157 154 157q28 0 59 -7z" />
    <glyph glyph-name="uniFB01" unicode="&#xfb01;" horiz-adv-x="583" 
d="M12 508h86v54q0 157 154 157q28 0 60 -7v-84q-12 4 -28 4q-37 0 -55 -19.5t-18 -63.5v-41h98v-87h-98v-421h-113v421h-86v87zM396 0v508h114v-508h-114zM510 712v-109h-114v109h114z" />
    <glyph glyph-name="uniFB02" unicode="&#xfb02;" horiz-adv-x="583" 
d="M98 508v54q0 157 154 157q28 0 60 -7v-84q-12 4 -28 4q-37 0 -55 -19.5t-18 -63.5v-41h98v-87h-98v-421h-113v421h-86v87h86zM510 0h-114v712h114v-712z" />
    <glyph glyph-name="uniFB03" unicode="&#xfb03;" horiz-adv-x="875" 
d="M12 508h86v54q0 157 154 157q28 0 60 -7v-84q-12 4 -28 4q-37 0 -55 -19.5t-18 -63.5v-41h179v54q0 157 154 157q28 0 59 -7v-84q-11 4 -27 4q-37 0 -55 -19.5t-18 -63.5v-41h98v-87h-98v-421h-113v421h-179v-421h-113v421h-86v87zM688 0v508h114v-508h-114zM688 712h114
v-109h-114v109z" />
    <glyph glyph-name="uniFB04" unicode="&#xfb04;" horiz-adv-x="875" 
d="M603 712v-84q-11 4 -27 4q-37 0 -55 -19.5t-18 -63.5v-41h98v-87h-98v-421h-113v421h-179v-421h-113v421h-86v87h86v54q0 157 154 157q28 0 60 -7v-84q-12 4 -28 4q-37 0 -55 -19.5t-18 -63.5v-41h179v54q0 157 154 157q28 0 59 -7zM688 0v712h114v-712h-114z" />
    <glyph glyph-name="uniFEFF" unicode="&#xfeff;" horiz-adv-x="0" 
 />
    <glyph glyph-name="glyph1" horiz-adv-x="600" 
 />
    <glyph glyph-name="glyph202" horiz-adv-x="374" 
d="M60 100q59 0 85 30.5t26 106.5v475h120v-496q0 -113 -53.5 -167.5t-165.5 -54.5q-33 0 -57 7v103q19 -4 45 -4zM155 772l81 144h144l-132 -144h-93z" />
    <glyph glyph-name="Ccedilla.salt" horiz-adv-x="695" 
d="M648 468h-121q-8 71 -52.5 111.5t-115.5 40.5q-91 0 -143 -70.5t-52 -193.5t52 -193q51 -71 140 -71q71 0 116.5 41t55.5 114h123q-10 -123 -89 -192q-77 -70 -206 -70q-146 0 -231 100t-85 271t85.5 271t233.5 100q128 0 205.5 -71.5t83.5 -187.5zM185 -214l135 165h100
l-99 -165h-136z" />
    <glyph glyph-name="Scedilla.salt" horiz-adv-x="620" 
d="M451 12q-61 -27 -140 -27q-132 0 -204.5 65t-72.5 185h123q0 -75 40 -113t115 -38q66 0 103.5 29t37.5 79q0 62 -65 87q-28 10 -96 28q-85 21 -134 42q-50 21 -81 63q-32 41 -32 111q0 91 69 147.5t181 56.5q129 0 195.5 -59.5t66.5 -174.5h-121q0 66 -37 101t-106 35
q-58 0 -91.5 -25.5t-33.5 -69.5q3 -47 34.5 -68t128.5 -45q78 -19 133 -41q52 -23 82 -64q31 -41 31 -113q0 -65 -33 -114.5t-93 -76.5zM134 -214l135 165h100l-99 -165h-136z" />
    <glyph glyph-name="Tcommaaccent.salt" horiz-adv-x="607" 
d="M10 608v104h587v-104h-234v-608h-119v608h-234zM267 -49h100l-99 -165h-136z" />
    <glyph glyph-name="i.locl" horiz-adv-x="260" 
d="M73 0v508h114v-508h-114zM73 603v109h114v-109h-114z" />
    <glyph glyph-name="glyph314" horiz-adv-x="264" 
d="M1 -101q40 0 58 22t18 74v513h114v-528q0 -170 -160 -170q-29 0 -58 7v85q13 -3 28 -3zM58 568l81 144h144l-132 -144h-93z" />
    <glyph glyph-name="ccedilla.salt" horiz-adv-x="548" 
d="M514 324h-119q-4 50 -34 79.5t-76 29.5q-60 0 -93.5 -47.5t-33.5 -131.5t33.5 -131.5t93.5 -47.5q45 0 75 33t34 85h120q-7 -92 -70 -150q-61 -58 -159 -58q-112 0 -179.5 73t-67.5 196t67.5 196t179.5 73q95 0 158 -55.5t71 -143.5zM249 -49h100l-99 -165h-136z" />
    <glyph glyph-name="scedilla.salt" horiz-adv-x="509" 
d="M444 229q26 -34 26 -89q0 -70 -58 -112q-58 -43 -155 -43q-105 0 -162 46.5t-58 135.5h116q0 -47 27.5 -72t78.5 -25q43 0 67.5 17t24.5 46q0 44 -50 63q-25 8 -78 21q-63 16 -92 28q-34 13 -58 43t-24 83q0 68 55 110t144 42q99 0 152 -44.5t54 -128.5h-110q0 90 -97 90
q-40 0 -62 -16t-22 -44q0 -37 45 -53q30 -10 70 -20q55 -14 103 -31q35 -15 63 -47zM219 -49h100l-99 -165h-136z" />
    <glyph glyph-name="tcommaaccent.salt" horiz-adv-x="339" 
d="M312 3q-32 -9 -64 -9q-81 0 -117.5 36.5t-36.5 119.5v271h-85v87h85v127h114v-127h99v-87h-99v-254q0 -43 16 -61.5t53 -18.5q20 0 35 5v-89zM152 -49h100l-99 -165h-136z" />
    <glyph glyph-name="a.superior" horiz-adv-x="402" 
d="M364 330h-88q-6 22 -6 48h-1q-41 -56 -122 -56q-57 0 -91.5 30t-34.5 78t33.5 74.5t111.5 38.5q59 8 93 10v14q0 65 -63 65q-62 0 -64 -57h-96q3 55 44.5 88t115.5 33q158 0 158 -142v-126q0 -59 10 -98zM119 436q0 -22 15 -35t42 -13q39 0 60 22q23 21 23 70v16
q-32 -1 -76 -9q-35 -6 -49.5 -18t-14.5 -33z" />
    <glyph glyph-name="b.superior" horiz-adv-x="435" 
d="M366 645q42 -51 42 -137q0 -85 -42 -136q-44 -51 -113 -51q-72 0 -105 55h-2v-46h-95v498h98v-184h2q34 52 103 52q70 0 112 -51zM144 508q0 -51 22 -81.5t58 -30.5q37 0 59.5 31t22.5 81q0 51 -22.5 81.5t-59.5 30.5q-36 0 -58 -30.5t-22 -81.5z" />
    <glyph glyph-name="c.superior" horiz-adv-x="407" 
d="M383 469q-4 -67 -52 -108q-47 -42 -121 -42q-84 0 -133.5 51t-49.5 139q0 86 49.5 136.5t133.5 50.5q74 0 120 -40q47 -41 53 -103h-102q-2 29 -21.5 48t-48.5 19q-38 0 -59.5 -29.5t-21.5 -81.5q0 -53 21.5 -83t59.5 -30q29 0 48.5 20.5t21.5 52.5h102z" />
    <glyph glyph-name="d.superior" horiz-adv-x="435" 
d="M384 828v-498h-95v46h-2q-31 -55 -105 -55q-70 0 -112 51q-43 50 -43 136t42 137t112 51q69 0 103 -52h2v184h98zM129 508q0 -50 22.5 -81t59.5 -31q36 0 58 30.5t22 81.5t-22 81.5t-58 30.5q-37 0 -59.5 -30.5t-22.5 -81.5z" />
    <glyph glyph-name="e.superior" horiz-adv-x="415" 
d="M377 579q11 -36 11 -92h-265q2 -49 25 -74t61 -25q30 0 50 14t25 36h100q-12 -52 -59 -85.5t-115 -33.5q-86 0 -134 53q-49 52 -49 139q0 81 49 133q48 52 132 52q63 0 107.5 -31t61.5 -86zM152 609q-22 -21 -27 -63h166q-4 40 -26 61.5t-57 21.5q-33 0 -56 -20z" />
    <glyph glyph-name="egrave.superior" horiz-adv-x="415" 
d="M377 579q11 -36 11 -92h-265q2 -49 25 -74t61 -25q30 0 50 14t25 36h100q-12 -52 -59 -85.5t-115 -33.5q-86 0 -134 53q-49 52 -49 139q0 81 49 133q48 52 132 52q63 0 107.5 -31t61.5 -86zM152 609q-22 -21 -27 -63h166q-4 40 -26 61.5t-57 21.5q-33 0 -56 -20zM182 727
l-108 101h127l70 -101h-89z" />
    <glyph glyph-name="f.superior" horiz-adv-x="246" 
d="M238 828v-69q-14 2 -20 2q-27 0 -39.5 -12.5t-12.5 -41.5v-21h69v-73h-69v-283h-98v283h-60v73h60v32q0 116 121 116q23 0 49 -6z" />
    <glyph glyph-name="g.superior" horiz-adv-x="430" 
d="M379 686v-333q0 -159 -176 -159q-73 0 -115 30t-45 84h95q2 -48 66 -48q41 0 60.5 22t19.5 71v39h-2q-36 -53 -104 -53q-69 0 -110 48.5t-41 129.5q0 82 41.5 130.5t111.5 48.5q66 0 105 -57h2v47h92zM128 517q0 -47 21 -74.5t57 -27.5q37 0 59 27.5t22 74.5t-22 75
t-59 28q-36 0 -57 -28t-21 -75z" />
    <glyph glyph-name="h.superior" horiz-adv-x="434" 
d="M51 330v498h98v-180h2q36 47 102 47q64 0 98.5 -37.5t34.5 -109.5v-218h-97v208q0 79 -65 79q-35 0 -55 -24.5t-20 -71.5v-191h-98z" />
    <glyph glyph-name="i.superior" horiz-adv-x="200" 
d="M51 330v356h98v-356h-98zM51 828h98v-83h-98v83z" />
    <glyph glyph-name="j.superior" horiz-adv-x="204" 
d="M30 197q-21 0 -49 5v72q10 -2 21 -2q28 0 40.5 14.5t12.5 48.5v351h98v-365q0 -62 -32 -93t-91 -31zM55 745v83h98v-83h-98z" />
    <glyph glyph-name="k.superior" horiz-adv-x="392" 
d="M51 829h98v-285h2l115 142h117l-143 -164l159 -192h-123l-125 167h-2v-167h-98v499z" />
    <glyph glyph-name="l.superior" horiz-adv-x="200" 
d="M51 330v498h98v-498h-98z" />
    <glyph glyph-name="m.superior" horiz-adv-x="646" 
d="M599 549v-219h-98v209q0 78 -58 78q-69 0 -69 -99v-188h-98v215q0 72 -58 72q-33 0 -51 -26t-18 -74v-187h-98v356h93v-42h2q39 51 101 51q76 0 109 -64q40 64 116 64q60 0 93.5 -37.5t33.5 -108.5z" />
    <glyph glyph-name="n.superior" horiz-adv-x="434" 
d="M144 686v-44h1q40 53 108 53q64 0 98.5 -37.5t34.5 -109.5v-218h-97v208q0 79 -65 79q-35 0 -55 -25t-20 -71v-191h-98v356h93z" />
    <glyph glyph-name="o.superior" horiz-adv-x="427" 
d="M78 370q-51 51 -51 138q0 86 50.5 137t136.5 51q85 0 136 -51q50 -52 50 -137q0 -87 -50 -138t-136 -51t-136 51zM130 508q0 -52 22.5 -82.5t61.5 -30.5t61 30t22 83t-22 82.5t-61 29.5t-61.5 -30t-22.5 -82z" />
    <glyph glyph-name="p.superior" horiz-adv-x="435" 
d="M408 508q0 -85 -42 -136t-112 -51t-103 51h-2v-171h-98v485h95v-46h2q34 56 105 56q70 0 112.5 -51t42.5 -137zM166 590q-22 -31 -22 -82q0 -52 22 -81q22 -31 58 -31q37 0 59.5 31t22.5 81q0 51 -22.5 81.5t-59.5 30.5q-36 0 -58 -30z" />
    <glyph glyph-name="q.superior" horiz-adv-x="435" 
d="M384 686v-485h-98v171h-2q-33 -51 -103 -51t-112 51t-42 136q0 86 42.5 137t112.5 51q33 0 61.5 -15t43.5 -41h2v46h95zM129 508q0 -49 23 -81q22 -31 59 -31q36 0 58 30.5t22 81.5t-22 81.5t-58 30.5q-37 0 -59.5 -30.5t-22.5 -81.5z" />
    <glyph glyph-name="r.superior" horiz-adv-x="288" 
d="M51 686h92v-51h2q36 55 105 55q17 0 32 -3v-86q-12 4 -33 4q-48 0 -74 -29t-26 -83v-163h-98v356z" />
    <glyph glyph-name="s.superior" horiz-adv-x="381" 
d="M334 493q20 -23 20 -62q0 -51 -43 -81.5t-117 -30.5q-81 0 -124 32.5t-44 95.5h99q0 -60 70 -60q28 0 44 10t16 27q0 22 -18 32q-17 8 -73 22q-46 12 -69 21q-24 9 -42 30t-18 59q0 49 41 78.5t111 29.5q73 0 114 -31t41 -88h-95q0 54 -61 54q-54 0 -54 -35q0 -20 16 -27
q17 -9 64 -20q51 -13 77 -24.5t45 -31.5z" />
    <glyph glyph-name="t.superior" horiz-adv-x="257" 
d="M238 407v-75q-22 -7 -52 -7q-63 0 -91 26.5t-28 86.5v175h-60v73h60v92h97v-92h70v-73h-70v-155q0 -29 11 -41.5t37 -12.5q17 0 26 3z" />
    <glyph glyph-name="u.superior" horiz-adv-x="433" 
d="M82 359q-35 38 -35 109v218h98v-208q0 -79 65 -79q35 0 55 25t20 71v191h97v-356h-92v44h-1q-40 -53 -108 -53q-64 0 -99 38z" />
    <glyph glyph-name="v.superior" horiz-adv-x="368" 
d="M-5 686h105l42 -135q25 -87 41 -152h2q8 39 41 152l42 135h104l-123 -356h-130z" />
    <glyph glyph-name="w.superior" horiz-adv-x="590" 
d="M586 686l-88 -356h-135l-34 139q-13 49 -33 151h-2q-23 -115 -32 -151l-35 -139h-134l-88 356h96l30 -136l7 -36q10 -52 22 -117h2q16 77 33 151l35 138h131l34 -138q15 -56 34 -151h1q15 84 30 153l29 136h97z" />
    <glyph glyph-name="x.superior" horiz-adv-x="371" 
d="M-3 330l128 184l-118 172h112l66 -111h2l65 111h112l-118 -172l128 -184h-113l-74 124h-2l-75 -124h-113z" />
    <glyph glyph-name="y.superior" horiz-adv-x="369" 
d="M133 331l-137 355h106l85 -259h2l83 259h101l-132 -358q-27 -75 -62 -103t-102 -28q-31 0 -49 5v75q15 -5 33 -5q30 0 45.5 13t26.5 46z" />
    <glyph glyph-name="z.superior" horiz-adv-x="351" 
d="M332 330h-313v79l186 198v2h-179v77h300v-79l-186 -198v-2h192v-77z" />
    <glyph glyph-name="A.aalt" horiz-adv-x="575" 
d="M129 0h-125l205 548h157l205 -548h-125l-43 127h-230zM207 226h163l-14 39q-42 120 -67 203h-2q-25 -83 -67 -203z" />
    <glyph glyph-name="Aacute.aalt" horiz-adv-x="575" 
d="M446 0l-43 127h-230l-44 -127h-125l205 548h157l205 -548h-125zM370 226l-14 39q-42 120 -67 203h-2q-25 -83 -67 -203l-13 -39h163zM293 752h144l-132 -144h-93z" />
    <glyph glyph-name="Abreve.aalt" horiz-adv-x="575" 
d="M446 0l-43 127h-230l-44 -127h-125l205 548h157l205 -548h-125zM122 752h80q4 -34 26 -53t59 -19t59 19t26 53h81q-5 -70 -48.5 -108.5t-117.5 -38.5q-73 0 -116.5 38.5t-48.5 108.5zM370 226l-14 39q-42 120 -67 203h-2q-25 -83 -67 -203l-13 -39h163z" />
    <glyph glyph-name="Acircumflex.aalt" horiz-adv-x="575" 
d="M446 0l-43 127h-230l-44 -127h-125l205 548h157l205 -548h-125zM112 608l114 144h123l114 -144h-108l-67 84l-68 -84h-108zM207 226h163l-14 39q-42 120 -67 203h-2q-25 -83 -67 -203z" />
    <glyph glyph-name="Adieresis.aalt" horiz-adv-x="575" 
d="M446 0l-43 127h-230l-44 -127h-125l205 548h157l205 -548h-125zM370 226l-14 39q-42 120 -67 203h-2q-25 -83 -67 -203l-13 -39h163zM339 643v109h102v-109h-102zM133 643v109h102v-109h-102z" />
    <glyph glyph-name="Agrave.aalt" horiz-adv-x="575" 
d="M446 0l-43 127h-230l-44 -127h-125l205 548h157l205 -548h-125zM207 226h163l-14 39q-42 120 -67 203h-2q-25 -83 -67 -203zM282 752l82 -144h-93l-132 144h143z" />
    <glyph glyph-name="Amacron.aalt" horiz-adv-x="575" 
d="M446 0l-43 127h-230l-44 -127h-125l205 548h157l205 -548h-125zM135 725h305v-78h-305v78zM370 226l-14 39q-42 120 -67 203h-2q-25 -83 -67 -203l-13 -39h163z" />
    <glyph glyph-name="Aogonek.aalt" horiz-adv-x="575" 
d="M574 -122v-62q-28 -11 -68 -11q-106 0 -106 83q0 31 18 56t60 56h-32l-43 127h-230l-44 -127h-125l205 548h157l205 -548q-72 -50 -72 -95q0 -33 38 -33q21 0 37 6zM220 265l-13 -39h163l-14 39q-42 120 -67 203h-2q-25 -83 -67 -203z" />
    <glyph glyph-name="Aring.aalt" horiz-adv-x="575" 
d="M446 0l-43 127h-230l-44 -127h-125l205 548h157l205 -548h-125zM214 779q30 30 73 30t73.5 -30.5t30.5 -73.5t-30 -73q-30 -31 -74 -31q-43 0 -73 31q-31 30 -31 73q0 44 31 74zM370 226l-14 39q-42 120 -67 203h-2q-25 -83 -67 -203l-13 -39h163zM231 705
q0 -23 16.5 -39.5t39.5 -16.5t39.5 16.5t16.5 39.5t-16.5 39.5t-39.5 16.5t-39.5 -16.5t-16.5 -39.5z" />
    <glyph glyph-name="Atilde.aalt" horiz-adv-x="575" 
d="M446 0l-43 127h-230l-44 -127h-125l205 548h157l205 -548h-125zM140 716q28 33 78 33q31 0 82 -28q35 -21 54 -21q42 0 46 49h68q-3 -59 -31.5 -92t-77.5 -33q-33 0 -82 27q-35 21 -55 21q-40 0 -46 -48h-68q3 58 32 92zM370 226l-14 39q-42 120 -67 203h-2
q-25 -83 -67 -203l-13 -39h163z" />
    <glyph glyph-name="AE.aalt" horiz-adv-x="793" 
d="M745 100v-100h-326l-21 136h-209l-64 -136h-130l268 548h476v-100h-274l19 -120h236v-99h-220l21 -129h224zM336 451l-102 -217h148l-34 217h-12z" />
    <glyph glyph-name="B.aalt" horiz-adv-x="556" 
d="M482 236q28 -32 28 -84q0 -70 -54.5 -111t-150.5 -41h-226v548h212q100 0 153 -37.5t53 -103.5q0 -97 -100 -125v-2q56 -11 85 -44zM196 94h86q57 0 81.5 15.5t24.5 52.5t-26 54t-85 17h-81v-139zM281 455h-85v-133h80q105 0 105 67q0 34 -23.5 50t-76.5 16z" />
    <glyph glyph-name="C.aalt" horiz-adv-x="598" 
d="M475 507q66 -56 71 -151h-123q-5 48 -38 75.5t-85 27.5q-65 0 -102.5 -49.5t-37.5 -135.5q0 -87 37.5 -136t102.5 -49q51 0 84 27.5t40 78.5h125q-9 -99 -75 -154.5t-174 -55.5q-122 0 -193 77t-71 212t71 212t193 77q108 0 175 -56z" />
    <glyph glyph-name="Cacute.aalt" horiz-adv-x="598" 
d="M546 356h-123q-5 48 -38 75.5t-85 27.5q-65 0 -102.5 -49.5t-37.5 -135.5q0 -87 37.5 -136t102.5 -49q51 0 84 27.5t40 78.5h125q-9 -99 -75 -154.5t-174 -55.5q-122 0 -193 77t-71 212t71 212t193 77q108 0 175 -56q66 -56 71 -151zM305 752h144l-132 -144h-93z" />
    <glyph glyph-name="Ccaron.aalt" horiz-adv-x="598" 
d="M546 356h-123q-5 48 -38 75.5t-85 27.5q-65 0 -102.5 -49.5t-37.5 -135.5q0 -87 37.5 -136t102.5 -49q51 0 84 27.5t40 78.5h125q-9 -99 -75 -154.5t-174 -55.5q-122 0 -193 77t-71 212t71 212t193 77q108 0 175 -56q66 -56 71 -151zM124 752h108l68 -84l67 84h108
l-114 -144h-123z" />
    <glyph glyph-name="Ccedilla.c2sc" horiz-adv-x="598" 
d="M546 356h-123q-5 48 -38 75.5t-85 27.5q-65 0 -102.5 -49.5t-37.5 -135.5q0 -87 37.5 -136t102.5 -49q51 0 84 27.5t40 78.5h125q-8 -92 -65 -146.5t-153 -62.5l-30 -48q8 4 29 4q36 0 59.5 -20.5t23.5 -53.5q0 -40 -31 -65.5t-86 -25.5q-56 0 -109 29l20 40
q39 -21 79 -21q53 0 53 38q0 18 -13.5 29t-37.5 11q-17 0 -32 -6l-19 21l43 68q-114 6 -179 83t-65 205q0 135 71 212t193 77q108 0 175 -56q66 -56 71 -151z" />
    <glyph glyph-name="Ccircumflex.aalt" horiz-adv-x="598" 
d="M546 356h-123q-5 48 -38 75.5t-85 27.5q-65 0 -102.5 -49.5t-37.5 -135.5q0 -87 37.5 -136t102.5 -49q51 0 84 27.5t40 78.5h125q-9 -99 -75 -154.5t-174 -55.5q-122 0 -193 77t-71 212t71 212t193 77q108 0 175 -56q66 -56 71 -151zM124 608l114 144h123l114 -144h-108
l-67 84l-68 -84h-108z" />
    <glyph glyph-name="Cdotaccent.aalt" horiz-adv-x="598" 
d="M546 356h-123q-5 48 -38 75.5t-85 27.5q-65 0 -102.5 -49.5t-37.5 -135.5q0 -87 37.5 -136t102.5 -49q51 0 84 27.5t40 78.5h125q-9 -99 -75 -154.5t-174 -55.5q-122 0 -193 77t-71 212t71 212t193 77q108 0 175 -56q66 -56 71 -151zM356 752v-109h-114v109h114z" />
    <glyph glyph-name="D.aalt" horiz-adv-x="615" 
d="M274 0h-195v548h195q147 0 226.5 -71t79.5 -203q0 -131 -79.5 -202.5t-226.5 -71.5zM197 102h75q90 0 137 43.5t47 128.5t-47 128.5t-137 43.5h-75v-344z" />
    <glyph glyph-name="Eth.aalt" horiz-adv-x="618" 
d="M504 477q79 -70 79 -203q0 -131 -79.5 -202.5t-226.5 -71.5h-195v238h-62v79h62v231h195q147 0 227 -71zM200 102h75q90 0 137 43.5t47 128.5t-47 128.5t-137 43.5h-75v-129h128v-79h-128v-136z" />
    <glyph glyph-name="Dcaron.aalt" horiz-adv-x="615" 
d="M580 274q0 -131 -79.5 -202.5t-226.5 -71.5h-195v548h195q147 0 226.5 -71t79.5 -203zM272 102q90 0 137 43.5t47 128.5t-47 128.5t-137 43.5h-75v-344h75zM215 752l68 -84l67 84h108l-114 -144h-123l-114 144h108z" />
    <glyph glyph-name="Dcroat.aalt" horiz-adv-x="618" 
d="M583 274q0 -131 -79.5 -202.5t-226.5 -71.5h-195v238h-62v79h62v231h195q147 0 226.5 -71t79.5 -203zM200 317h128v-79h-128v-136h75q90 0 137 43.5t47 128.5t-47 128.5t-137 43.5h-75v-129z" />
    <glyph glyph-name="E.aalt" horiz-adv-x="531" 
d="M484 0h-404v548h398v-100h-281v-120h262v-99h-262v-129h287v-100z" />
    <glyph glyph-name="Eacute.aalt" horiz-adv-x="531" 
d="M80 548h398v-100h-281v-120h262v-99h-262v-129h287v-100h-404v548zM284 752h144l-132 -144h-93z" />
    <glyph glyph-name="Ebreve.aalt" horiz-adv-x="531" 
d="M484 0h-404v548h398v-100h-281v-120h262v-99h-262v-129h287v-100zM114 752h80q4 -34 26 -53t59 -19t59 19t26 53h81q-5 -70 -48.5 -108.5t-117.5 -38.5q-73 0 -116.5 38.5t-48.5 108.5z" />
    <glyph glyph-name="Ecaron.aalt" horiz-adv-x="531" 
d="M484 0h-404v548h398v-100h-281v-120h262v-99h-262v-129h287v-100zM211 752l68 -84l67 84h108l-114 -144h-123l-114 144h108z" />
    <glyph glyph-name="Ecircumflex.aalt" horiz-adv-x="531" 
d="M484 0h-404v548h398v-100h-281v-120h262v-99h-262v-129h287v-100zM217 752h123l114 -144h-108l-67 84l-68 -84h-108z" />
    <glyph glyph-name="Edieresis.aalt" horiz-adv-x="531" 
d="M484 0h-404v548h398v-100h-281v-120h262v-99h-262v-129h287v-100zM433 752v-109h-102v109h102zM125 643v109h102v-109h-102z" />
    <glyph glyph-name="Edotaccent.aalt" horiz-adv-x="531" 
d="M80 548h398v-100h-281v-120h262v-99h-262v-129h287v-100h-404v548zM336 752v-109h-114v109h114z" />
    <glyph glyph-name="Egrave.aalt" horiz-adv-x="531" 
d="M80 548h398v-100h-281v-120h262v-99h-262v-129h287v-100h-404v548zM273 752l82 -144h-93l-132 144h143z" />
    <glyph glyph-name="Emacron.aalt" horiz-adv-x="531" 
d="M80 548h398v-100h-281v-120h262v-99h-262v-129h287v-100h-404v548zM126 725h305v-78h-305v78z" />
    <glyph glyph-name="Eogonek.aalt" horiz-adv-x="531" 
d="M487 -122v-62q-28 -11 -68 -11q-106 0 -106 83q0 31 18 56t60 56h-311v548h398v-100h-281v-120h262v-99h-262v-129h287v-100q-72 -50 -72 -95q0 -33 38 -33q20 0 37 6z" />
    <glyph glyph-name="F.aalt" horiz-adv-x="489" 
d="M79 0v548h387v-101h-269v-141h250v-101h-250v-205h-118z" />
    <glyph glyph-name="uniFB01.aalt" horiz-adv-x="765" 
d="M79 0v548h387v-101h-269v-141h250v-101h-250v-205h-118zM569 548h117v-548h-117v548z" />
    <glyph glyph-name="uniFB02.aalt" horiz-adv-x="970" 
d="M466 548v-101h-269v-141h250v-101h-250v-205h-118v548h387zM686 548v-447h274v-101h-391v548h117z" />
    <glyph glyph-name="G.aalt" horiz-adv-x="623" 
d="M552 305v-305h-102v56h-2q-25 -32 -69 -50t-98 -18q-113 0 -179 77t-66 207q0 135 74 213t201 78q102 0 166.5 -49t75.5 -135h-125q-18 83 -117 83q-69 0 -110 -50.5t-41 -139.5t39.5 -140t107.5 -51q63 0 97.5 34t35.5 97h-136v93h248z" />
    <glyph glyph-name="Gbreve.aalt" horiz-adv-x="623" 
d="M450 0v56h-2q-25 -32 -69 -50t-98 -18q-113 0 -179 77t-66 207q0 135 74 213t201 78q102 0 166.5 -49t75.5 -135h-125q-18 83 -117 83q-69 0 -110 -50.5t-41 -139.5t39.5 -140t107.5 -51q63 0 97.5 34t35.5 97h-136v93h248v-305h-102zM139 752h80q4 -34 26 -53t59 -19
t59 19t26 53h81q-5 -70 -48.5 -108.5t-117.5 -38.5q-73 0 -116.5 38.5t-48.5 108.5z" />
    <glyph glyph-name="Gcircumflex.aalt" horiz-adv-x="623" 
d="M552 0h-102v56h-2q-25 -32 -69 -50t-98 -18q-113 0 -179 77t-66 207q0 135 74 213t201 78q102 0 166.5 -49t75.5 -135h-125q-18 83 -117 83q-69 0 -110 -50.5t-41 -139.5t39.5 -140t107.5 -51q63 0 97.5 34t35.5 97h-136v93h248v-305zM128 608l114 144h123l114 -144h-108
l-67 84l-68 -84h-108z" />
    <glyph glyph-name="Gcommaaccent.aalt" horiz-adv-x="623" 
d="M552 0h-102v56h-2q-25 -32 -69 -50t-98 -18q-113 0 -179 77t-66 207q0 135 74 213t201 78q102 0 166.5 -49t75.5 -135h-125q-18 83 -117 83q-69 0 -110 -50.5t-41 -139.5t39.5 -140t107.5 -51q63 0 97.5 34t35.5 97h-136v93h248v-305zM293 -158h-40v96h107v-96l-62 -106
h-47z" />
    <glyph glyph-name="Gdotaccent.aalt" horiz-adv-x="623" 
d="M552 0h-102v56h-2q-25 -32 -69 -50t-98 -18q-113 0 -179 77t-66 207q0 135 74 213t201 78q102 0 166.5 -49t75.5 -135h-125q-18 83 -117 83q-69 0 -110 -50.5t-41 -139.5t39.5 -140t107.5 -51q63 0 97.5 34t35.5 97h-136v93h248v-305zM361 752v-109h-114v109h114z" />
    <glyph glyph-name="H.aalt" horiz-adv-x="636" 
d="M80 0v548h117v-214h242v214h117v-548h-117v233h-242v-233h-117z" />
    <glyph glyph-name="Hbar.aalt" horiz-adv-x="636" 
d="M599 494v-59h-43v-435h-117v233h-242v-233h-117v435h-43v59h43v54h117v-54h242v54h117v-54h43zM439 435h-242v-101h242v101z" />
    <glyph glyph-name="Hcircumflex.aalt" horiz-adv-x="636" 
d="M556 0h-117v233h-242v-233h-117v548h117v-214h242v214h117v-548zM142 608l114 144h123l114 -144h-108l-67 84l-68 -84h-108z" />
    <glyph glyph-name="I.aalt" horiz-adv-x="277" 
d="M80 0v548h117v-548h-117z" />
    <glyph glyph-name="Iacute.aalt" horiz-adv-x="277" 
d="M197 548v-548h-117v548h117zM63 608l81 144h144l-132 -144h-93z" />
    <glyph glyph-name="Ibreve.aalt" horiz-adv-x="277" 
d="M197 548v-548h-117v548h117zM65 752q6 -75 74 -75t73 75h76q-3 -69 -42 -108t-107 -39t-107 38.5t-42 108.5h75z" />
    <glyph glyph-name="Icircumflex.aalt" horiz-adv-x="277" 
d="M80 0v548h117v-548h-117zM-23 609l101 143h119l101 -143h-102l-58 85l-58 -85h-103z" />
    <glyph glyph-name="Idieresis.aalt" horiz-adv-x="277" 
d="M80 548h117v-548h-117v548zM169 752h103v-109h-103v109zM6 752h102v-109h-102v109z" />
    <glyph glyph-name="Idotaccent.aalt" horiz-adv-x="277" 
d="M80 0v548h117v-548h-117zM195 752v-109h-114v109h114z" />
    <glyph glyph-name="Igrave.aalt" horiz-adv-x="277" 
d="M197 548v-548h-117v548h117zM-10 752h143l82 -144h-93z" />
    <glyph glyph-name="IJ.aalt" horiz-adv-x="603" 
d="M290 99q18 -3 36 -3q46 0 65.5 23t19.5 81v348h117v-370q0 -94 -45 -138.5t-139 -44.5q-32 0 -53 6zM80 0v548h117v-548h-117z" />
    <glyph glyph-name="Imacron.aalt" horiz-adv-x="277" 
d="M80 548h117v-548h-117v548zM3 728h271v-78h-271v78z" />
    <glyph glyph-name="Iogonek.aalt" horiz-adv-x="277" 
d="M53 -174q-27 22 -27 62q0 31 18 56t60 56h-24v548h117v-548q-72 -50 -72 -95q0 -33 38 -33q21 0 37 6v-62q-28 -11 -68 -11q-53 0 -79 21z" />
    <glyph glyph-name="Itilde.aalt" horiz-adv-x="277" 
d="M80 548h117v-548h-117v548zM268 657q-27 -33 -72 -33q-33 0 -70 29q-30 21 -46 21q-36 0 -41 -50h-59q3 60 29 92.5t71 32.5q33 0 70 -29q30 -21 46 -21q36 0 41 50h60q-3 -58 -29 -92z" />
    <glyph glyph-name="J.c2sc" horiz-adv-x="326" 
d="M13 99q18 -3 36 -3q46 0 65.5 23t19.5 81v348h117v-370q0 -94 -45 -138.5t-139 -44.5q-32 0 -53 6z" />
    <glyph glyph-name="Jcircumflex.aalt" horiz-adv-x="326" 
d="M115 119q19 22 19 81v348h117v-370q0 -94 -45 -138.5t-139 -44.5q-32 0 -53 6l-1 98q18 -3 36 -3q46 0 66 23zM133 752h119l101 -143h-102l-58 85l-58 -85h-103z" />
    <glyph glyph-name="K.aalt" horiz-adv-x="556" 
d="M80 548h117v-239h3l189 239h143l-221 -260l240 -288h-151l-200 257h-3v-257h-117v548z" />
    <glyph glyph-name="Kcommaaccent.aalt" horiz-adv-x="556" 
d="M400 0l-200 257h-3v-257h-117v548h117v-239h3l189 239h143l-221 -260l240 -288h-151zM231 -264l42 106h-40v96h107v-96l-62 -106h-47z" />
    <glyph glyph-name="L.aalt" horiz-adv-x="481" 
d="M80 548h117v-447h274v-101h-391v548z" />
    <glyph glyph-name="Lacute.aalt" horiz-adv-x="481" 
d="M197 548v-447h274v-101h-391v548h117zM92 608l81 144h144l-132 -144h-93z" />
    <glyph glyph-name="Lcaron.aalt" horiz-adv-x="481" 
d="M197 548v-447h274v-101h-391v548h117zM272 548h95l-57 -177h-66z" />
    <glyph glyph-name="Lcommaaccent.aalt" horiz-adv-x="481" 
d="M80 0v548h117v-447h274v-101h-391zM256 -158h-40v96h107v-96l-62 -106h-47z" />
    <glyph glyph-name="Ldot.aalt" horiz-adv-x="541" 
d="M80 548h117v-447h274v-101h-391v548zM475 277h-131v142h131v-142z" />
    <glyph glyph-name="glyph418" horiz-adv-x="326" 
d="M49 96q46 0 65.5 23t19.5 81v348h117v-370q0 -94 -45 -138.5t-139 -44.5q-32 0 -53 6l-1 98q18 -3 36 -3zM118 608l81 144h144l-132 -144h-93z" />
    <glyph glyph-name="Lslash.aalt" horiz-adv-x="480" 
d="M12 278l66 37v233h118v-173l109 61v-89l-109 -61v-185h274v-101h-392v226l-66 -37v89z" />
    <glyph glyph-name="M.aalt" horiz-adv-x="826" 
d="M747 548v-548h-114v268q0 122 4 201h-2q-50 -164 -62 -200l-90 -269h-140l-90 269q-12 36 -62 200h-2q4 -79 4 -201v-268h-113v548h190l82 -247q40 -121 60 -203h2q20 82 60 203l82 247h191z" />
    <glyph glyph-name="N.aalt" horiz-adv-x="660" 
d="M80 0v548h171l112 -221q54 -110 107 -224h2q-5 110 -5 238v207h113v-548h-171l-111 221q-53 104 -108 224h-2q5 -110 5 -238v-207h-113z" />
    <glyph glyph-name="Nacute.aalt" horiz-adv-x="660" 
d="M580 0h-171l-111 221q-53 104 -108 224h-2q5 -110 5 -238v-207h-113v548h171l112 -221q54 -110 107 -224h2q-5 110 -5 238v207h113v-548zM254 608l81 144h144l-132 -144h-93z" />
    <glyph glyph-name="Ncaron.aalt" horiz-adv-x="660" 
d="M580 0h-171l-111 221q-53 104 -108 224h-2q5 -110 5 -238v-207h-113v548h171l112 -221q54 -110 107 -224h2q-5 110 -5 238v207h113v-548zM262 752l68 -84l67 84h108l-114 -144h-123l-114 144h108z" />
    <glyph glyph-name="Ncommaaccent.aalt" horiz-adv-x="660" 
d="M580 0h-171l-111 221q-53 104 -108 224h-2q5 -110 5 -238v-207h-113v548h171l112 -221q54 -110 107 -224h2q-5 110 -5 238v207h113v-548zM317 -158h-40v96h107v-96l-62 -106h-47z" />
    <glyph glyph-name="Eng.aalt" horiz-adv-x="644" 
d="M565 548v-569q0 -141 -143 -141q-31 0 -55 6v80q22 -2 25 -2q57 0 57 56v22l-148 237q-62 99 -111 190h-2q5 -132 5 -212v-215h-113v548h151l112 -178q71 -115 112 -190h2q-6 86 -6 212v156h114z" />
    <glyph glyph-name="Ntilde.aalt" horiz-adv-x="660" 
d="M580 0h-171l-111 221q-53 104 -108 224h-2q5 -110 5 -238v-207h-113v548h171l112 -221q54 -110 107 -224h2q-5 110 -5 238v207h113v-548zM182 716q28 33 78 33q31 0 82 -28q35 -21 54 -21q42 0 46 49h68q-3 -59 -31.5 -92t-77.5 -33q-33 0 -82 27q-35 21 -55 21
q-40 0 -46 -48h-68q3 58 32 92z" />
    <glyph glyph-name="O.aalt" horiz-adv-x="621" 
d="M585 274q0 -133 -73.5 -211t-200.5 -78q-126 0 -200.5 78t-74.5 211t74.5 211t200.5 78q127 0 200.5 -78t73.5 -211zM159 274q0 -87 40.5 -137t111.5 -50q70 0 110.5 50t40.5 137t-40.5 137t-110.5 50q-71 0 -111.5 -50t-40.5 -137z" />
    <glyph glyph-name="Oacute.aalt" horiz-adv-x="621" 
d="M552 121q-68 -136 -241 -136q-126 0 -200.5 78t-74.5 211t74.5 211t200.5 78q127 0 200.5 -78t73.5 -211q0 -88 -33 -153zM159 274q0 -87 40.5 -137t111.5 -50q70 0 110.5 50t40.5 137t-40.5 137t-110.5 50q-71 0 -111.5 -50t-40.5 -137zM316 752h144l-132 -144h-93z" />
    <glyph glyph-name="Obreve.aalt" horiz-adv-x="621" 
d="M552 121q-68 -136 -241 -136q-126 0 -200.5 78t-74.5 211t74.5 211t200.5 78q127 0 200.5 -78t73.5 -211q0 -88 -33 -153zM159 274q0 -87 40.5 -137t111.5 -50q70 0 110.5 50t40.5 137t-40.5 137t-110.5 50q-71 0 -111.5 -50t-40.5 -137zM225 752q4 -34 26 -53t59 -19
t59 19t26 53h81q-5 -70 -48.5 -108.5t-117.5 -38.5q-73 0 -116.5 38.5t-48.5 108.5h80z" />
    <glyph glyph-name="Ocircumflex.aalt" horiz-adv-x="621" 
d="M585 274q0 -133 -73.5 -211t-200.5 -78q-126 0 -200.5 78t-74.5 211t74.5 211t200.5 78q127 0 200.5 -78t73.5 -211zM200 137q41 -50 111 -50t110.5 50t40.5 137t-40.5 137t-110.5 50q-71 0 -111.5 -50t-40.5 -137t41 -137zM249 752h123l114 -144h-108l-67 84l-68 -84
h-108z" />
    <glyph glyph-name="Odieresis.aalt" horiz-adv-x="621" 
d="M552 121q-68 -136 -241 -136q-126 0 -200.5 78t-74.5 211t74.5 211t200.5 78q127 0 200.5 -78t73.5 -211q0 -88 -33 -153zM159 274q0 -87 40.5 -137t111.5 -50q70 0 110.5 50t40.5 137t-40.5 137t-110.5 50q-71 0 -111.5 -50t-40.5 -137zM362 643v109h102v-109h-102z
M258 752v-109h-102v109h102z" />
    <glyph glyph-name="Ograve.aalt" horiz-adv-x="621" 
d="M585 274q0 -133 -73.5 -211t-200.5 -78q-126 0 -200.5 78t-74.5 211t74.5 211t200.5 78q127 0 200.5 -78t73.5 -211zM159 274q0 -87 40.5 -137t111.5 -50q70 0 110.5 50t40.5 137t-40.5 137t-110.5 50q-71 0 -111.5 -50t-40.5 -137zM305 752l82 -144h-93l-132 144h143z
" />
    <glyph glyph-name="Ohungarumlaut.aalt" horiz-adv-x="621" 
d="M585 274q0 -133 -73.5 -211t-200.5 -78q-126 0 -200.5 78t-74.5 211t74.5 211t200.5 78q127 0 200.5 -78t73.5 -211zM159 274q0 -87 40.5 -137t111.5 -50q70 0 110.5 50t40.5 137t-40.5 137t-110.5 50q-71 0 -111.5 -50t-40.5 -137zM431 752h129l-138 -144h-92zM256 752
h129l-138 -144h-92z" />
    <glyph glyph-name="Omacron.aalt" horiz-adv-x="621" 
d="M552 121q-68 -136 -241 -136q-126 0 -200.5 78t-74.5 211t74.5 211t200.5 78q127 0 200.5 -78t73.5 -211q0 -88 -33 -153zM159 274q0 -87 40.5 -137t111.5 -50q70 0 110.5 50t40.5 137t-40.5 137t-110.5 50q-71 0 -111.5 -50t-40.5 -137zM158 647v78h305v-78h-305z" />
    <glyph glyph-name="Oslash.aalt" horiz-adv-x="621" 
d="M567 391q18 -53 18 -117q0 -133 -73.5 -211t-200.5 -78q-88 0 -154 39l-48 -61l-54 42l50 63q-69 76 -69 206q0 133 74.5 211t200.5 78q87 0 153 -39l47 60l54 -42l-49 -62q34 -38 51 -89zM443 387l-220 -279q37 -25 88 -25q73 0 114.5 51t41.5 140q0 65 -24 113z
M154 274q0 -68 24 -113l220 279q-37 25 -87 25q-73 0 -115 -51t-42 -140z" />
    <glyph glyph-name="Otilde.aalt" horiz-adv-x="621" 
d="M457 20q-62 -35 -146 -35q-126 0 -200.5 78t-74.5 211t74.5 211t200.5 78q127 0 200.5 -78t73.5 -211q0 -88 -33 -153.5t-95 -100.5zM159 274q0 -87 40.5 -137t111.5 -50q70 0 110.5 50t40.5 137t-40.5 137t-110.5 50q-71 0 -111.5 -50t-40.5 -137zM162 716q28 33 78 33
q31 0 82 -28q35 -21 54 -21q42 0 46 49h68q-3 -59 -31.5 -92t-77.5 -33q-33 0 -82 27q-35 21 -55 21q-40 0 -46 -48h-68q3 58 32 92z" />
    <glyph glyph-name="OE.aalt" horiz-adv-x="841" 
d="M793 100v-100h-450q-146 0 -226 73q-81 72 -81 201q0 130 81 202t226 72h444v-100h-281v-120h262v-99h-262v-129h287zM208 403q-49 -46 -49 -129t48.5 -128.5t137.5 -45.5h43v348h-43q-89 0 -137 -45z" />
    <glyph glyph-name="P.aalt" horiz-adv-x="537" 
d="M197 0h-117v548h217q104 0 159.5 -48t55.5 -134q0 -85 -55.5 -132.5t-159.5 -47.5h-100v-186zM197 450v-167h87q108 0 108 84q0 83 -109 83h-86z" />
    <glyph glyph-name="Thorn.aalt" horiz-adv-x="537" 
d="M297 98h-100v-98h-117v548h117v-88h100q104 0 159.5 -47.5t55.5 -133.5t-55.5 -133.5t-159.5 -47.5zM197 195h87q108 0 108 84t-109 84h-86v-168z" />
    <glyph glyph-name="Q.aalt" horiz-adv-x="621" 
d="M552 428q33 -66 33 -154q0 -128 -68 -205l62 -64l-65 -61l-67 71q-59 -30 -136 -30q-126 0 -200.5 78t-74.5 211t74.5 211t200.5 78q84 0 146 -35t95 -100zM200 411q-41 -52 -41 -138q0 -88 41 -139t112 -51q30 0 60 11l-73 76l63 62l75 -80q28 47 28 121
q0 87 -40.5 137.5t-112.5 50.5q-71 0 -112 -50z" />
    <glyph glyph-name="R.aalt" horiz-adv-x="557" 
d="M483 149l57 -149h-126l-46 130q-16 44 -38 61t-64 17h-69v-208h-117v548h214q209 0 209 -154q0 -50 -28 -86t-77 -49v-2q32 -11 47 -32q17 -23 38 -76zM197 455v-156h86q102 0 102 81q0 75 -106 75h-82z" />
    <glyph glyph-name="Racute.aalt" horiz-adv-x="557" 
d="M540 0h-126l-46 130q-16 44 -38 61t-64 17h-69v-208h-117v548h214q209 0 209 -154q0 -50 -28 -86t-77 -49v-2q32 -11 47 -32q17 -23 38 -76zM197 299h86q102 0 102 81q0 75 -106 75h-82v-156zM283 752h144l-132 -144h-93z" />
    <glyph glyph-name="Rcaron.aalt" horiz-adv-x="557" 
d="M540 0h-126l-46 130q-16 44 -38 61t-64 17h-69v-208h-117v548h214q209 0 209 -154q0 -50 -28 -86t-77 -49v-2q32 -11 47 -32q17 -23 38 -76zM197 299h86q102 0 102 81q0 75 -106 75h-82v-156zM102 752h108l68 -84l67 84h108l-114 -144h-123z" />
    <glyph glyph-name="Rcommaaccent.aalt" horiz-adv-x="557" 
d="M540 0h-126l-46 130q-16 44 -38 61t-64 17h-69v-208h-117v548h214q209 0 209 -154q0 -50 -28 -86t-77 -49v-2q32 -11 47 -32q17 -23 38 -76zM283 299q102 0 102 81q0 75 -106 75h-82v-156h86zM239 -264l42 106h-40v96h107v-96l-62 -106h-47z" />
    <glyph glyph-name="S.aalt" horiz-adv-x="529" 
d="M462 248q26 -34 26 -88q0 -81 -61 -127q-62 -48 -164 -48q-109 0 -170.5 51t-61.5 144h119q0 -103 115 -103q49 0 76.5 19.5t27.5 54.5q0 32 -26 47q-29 16 -97 32q-70 16 -111 33q-94 36 -94 135q0 73 58 119t154 46q108 0 164 -46.5t56 -135.5h-117q0 91 -106 91
q-43 0 -67.5 -17.5t-24.5 -46.5q0 -31 27 -46q24 -14 98 -31t114 -34.5t65 -48.5z" />
    <glyph glyph-name="Sacute.aalt" horiz-adv-x="529" 
d="M427 33q-62 -48 -164 -48q-109 0 -170.5 51t-61.5 144h119q0 -103 115 -103q49 0 76.5 19.5t27.5 54.5q0 32 -26 47q-29 16 -97 32q-70 16 -111 33q-94 36 -94 135q0 73 58 119t154 46q108 0 164 -46.5t56 -135.5h-117q0 91 -106 91q-43 0 -67.5 -17.5t-24.5 -46.5
q0 -31 27 -46q24 -14 98 -31t114 -34.5t65 -48.5q26 -34 26 -88q0 -81 -61 -127zM258 752h144l-132 -144h-93z" />
    <glyph glyph-name="Scaron.aalt" horiz-adv-x="529" 
d="M356 381q0 91 -106 91q-43 0 -67.5 -17.5t-24.5 -46.5q0 -31 27 -46q24 -14 98 -31t114 -34.5t65 -48.5q26 -34 26 -88q0 -81 -61 -127q-62 -48 -164 -48q-109 0 -170.5 51t-61.5 144h119q0 -103 115 -103q49 0 76.5 19.5t27.5 54.5q0 32 -26 47q-29 16 -97 32
q-70 16 -111 33q-94 36 -94 135q0 73 58 119t154 46q108 0 164 -46.5t56 -135.5h-117zM77 752h108l68 -84l67 84h108l-114 -144h-123z" />
    <glyph glyph-name="Scedilla.c2sc" horiz-adv-x="529" 
d="M302 -137q0 19 -13 29q-14 11 -38 11q-17 0 -32 -6l-19 21l43 67q-101 5 -156.5 55.5t-55.5 139.5h119q0 -103 115 -103q49 0 76.5 19.5t27.5 54.5q0 32 -26 47q-29 16 -97 32q-70 16 -111 33q-94 36 -94 135q0 73 58 119t154 46q108 0 164 -46.5t56 -135.5h-117
q0 91 -106 91q-43 0 -67.5 -17.5t-24.5 -46.5q0 -31 27 -46q24 -14 98 -31t114 -34.5t65 -48.5q26 -34 26 -88q0 -74 -51.5 -120t-142.5 -54l-30 -48q8 4 29 4q36 0 59.5 -20.5t23.5 -53.5q0 -40 -31 -65.5t-86 -25.5q-56 0 -109 29l20 40q39 -21 79 -21q53 0 53 38z" />
    <glyph glyph-name="Scircumflex.aalt" horiz-adv-x="529" 
d="M356 381q0 91 -106 91q-43 0 -67.5 -17.5t-24.5 -46.5q0 -31 27 -46q24 -14 98 -31t114 -34.5t65 -48.5q26 -34 26 -88q0 -81 -61 -127q-62 -48 -164 -48q-109 0 -170.5 51t-61.5 144h119q0 -103 115 -103q49 0 76.5 19.5t27.5 54.5q0 32 -26 47q-29 16 -97 32
q-70 16 -111 33q-94 36 -94 135q0 73 58 119t154 46q108 0 164 -46.5t56 -135.5h-117zM191 752h123l114 -144h-108l-67 84l-68 -84h-108z" />
    <glyph glyph-name="Scommaaccent.aalt" horiz-adv-x="529" 
d="M356 381q0 91 -106 91q-43 0 -67.5 -17.5t-24.5 -46.5q0 -31 27 -46q24 -14 98 -31t114 -34.5t65 -48.5q26 -34 26 -88q0 -81 -61 -127q-62 -48 -164 -48q-109 0 -170.5 51t-61.5 144h119q0 -103 115 -103q49 0 76.5 19.5t27.5 54.5q0 32 -26 47q-29 16 -97 32
q-70 16 -111 33q-94 36 -94 135q0 73 58 119t154 46q108 0 164 -46.5t56 -135.5h-117zM208 -264l42 106h-40v96h107v-96l-62 -106h-47z" />
    <glyph glyph-name="uni1E9E.aalt" horiz-adv-x="679" 
d="M632 151q0 -79 -53 -123q-53 -43 -146 -43q-188 0 -188 165h110q0 -71 76 -71q38 0 59 19t21 55q0 47 -41 71t-126 30v80l97 101q-38 32 -99 32q-150 0 -150 -156v-311h-117v313q0 121 69.5 185.5t199.5 64.5q75 0 139 -29.5t106 -80.5l-119 -125q162 -40 162 -177z" />
    <glyph glyph-name="T.aalt" horiz-adv-x="508" 
d="M10 548h488v-100h-185v-448h-118v448h-185v100z" />
    <glyph glyph-name="Tbar.aalt" horiz-adv-x="508" 
d="M195 448h-185v100h488v-100h-185v-141h104v-79h-104v-228h-118v228h-105v79h105v141z" />
    <glyph glyph-name="Tcaron.aalt" horiz-adv-x="508" 
d="M498 548v-100h-185v-448h-118v448h-185v100h488zM78 752h108l68 -84l67 84h108l-114 -144h-123z" />
    <glyph glyph-name="Tcommaaccent.c2sc" horiz-adv-x="508" 
d="M10 448v100h488v-100h-185v-448h-118v448h-185zM199 -264l42 106h-40v96h107v-96l-62 -106h-47z" />
    <glyph glyph-name="uni021A.aalt" horiz-adv-x="508" 
d="M10 448v100h488v-100h-185v-448h-118v448h-185zM199 -264l42 106h-40v96h107v-96l-62 -106h-47z" />
    <glyph glyph-name="U.aalt" horiz-adv-x="608" 
d="M74 548h118v-338q0 -59 29 -90t83 -31t83 31t29 90v338h118v-340q0 -108 -59.5 -165.5t-170.5 -57.5t-170.5 57.5t-59.5 165.5v340z" />
    <glyph glyph-name="Uacute.aalt" horiz-adv-x="608" 
d="M534 208q0 -108 -59.5 -165.5t-170.5 -57.5t-170.5 57.5t-59.5 165.5v340h118v-338q0 -59 29 -90t83 -31t83 31t29 90v338h118v-340zM309 752h144l-132 -144h-93z" />
    <glyph glyph-name="Ubreve.aalt" horiz-adv-x="608" 
d="M534 208q0 -108 -59.5 -165.5t-170.5 -57.5t-170.5 57.5t-59.5 165.5v340h118v-338q0 -59 29 -90t83 -31t83 31t29 90v338h118v-340zM139 752h80q4 -34 26 -53t59 -19t59 19t26 53h81q-5 -70 -48.5 -108.5t-117.5 -38.5q-73 0 -116.5 38.5t-48.5 108.5z" />
    <glyph glyph-name="Ucircumflex.aalt" horiz-adv-x="608" 
d="M534 208q0 -108 -59.5 -165.5t-170.5 -57.5t-170.5 57.5t-59.5 165.5v340h118v-338q0 -59 29 -90t83 -31t83 31t29 90v338h118v-340zM242 752h123l114 -144h-108l-67 84l-68 -84h-108z" />
    </font>
</defs>
</svg>
