<?xml version="1.0" standalone="no"?>
<!DOCTYPE svg PUBLIC "-//W3C//DTD SVG 1.1//EN" "http://www.w3.org/Graphics/SVG/1.1/DTD/svg11.dtd" >
<svg xmlns="http://www.w3.org/2000/svg" xmlns:xlink="http://www.w3.org/1999/xlink" version="1.1">
<metadata>
Created by FontForge 20170731 at Wed Nov 27 13:22:55 2019
 By Aleksey,,,
Copyright (c) 2015 Monotype Imaging Inc.  All rights reserved.
</metadata>
<defs>
<font id="NeueHaasUnica-Regular" horiz-adv-x="576" >
  <font-face 
    font-family="Neue Haas Unica"
    font-weight="400"
    font-stretch="normal"
    units-per-em="1000"
    panose-1="2 11 5 4 3 2 6 2 2 3"
    ascent="800"
    descent="-200"
    x-height="508"
    cap-height="712"
    bbox="-500 -275 1112 1093"
    underline-thickness="50"
    underline-position="-225"
    unicode-range="U+0020-FEFF"
  />
<missing-glyph horiz-adv-x="623" 
d="M568 -30q-35 -35 -96 -35h-321q-60 0 -95.5 35t-35.5 96v580q0 61 35.5 96t95.5 35h321q61 0 96 -35t35 -96v-580q0 -61 -35 -96zM532 706q-22 22 -60 22h-321q-38 0 -60 -22t-22 -60v-580q0 -38 22 -60t60 -22h321q38 0 60 22t22 60v580q0 38 -22 60zM393 498
q0 35 -22 56q-23 20 -62 20q-89 0 -94 -98h-84q4 83 50 126.5t128 43.5q77 0 124 -40t47 -107q0 -43 -16 -71q-17 -29 -64 -72q-45 -39 -56.5 -65t-11.5 -89h-72v27q0 61 15 92q14 32 61 76q37 35 47 54t10 47zM343 65h-94v91h94v-91z" />
    <glyph glyph-name="f_f.liga" unicode="ff" horiz-adv-x="578" 
d="M565 644q-10 3 -29 3q-39 0 -56.5 -20.5t-17.5 -65.5v-53h101v-70h-101v-438h-87v438h-186v-438h-87v438h-89v70h89v63q0 146 139 146q29 0 51 -5v-68q-9 3 -29 3q-39 0 -56.5 -20.5t-17.5 -65.5v-53h186v63q0 146 139 146q26 0 51 -5v-68z" />
    <glyph glyph-name="f_f_i.liga" unicode="ffi" horiz-adv-x="822" 
d="M102 508v63q0 146 139 146q29 0 51 -5v-68q-9 3 -29 3q-39 0 -56.5 -20.5t-17.5 -65.5v-53h186v63q0 146 139 146q26 0 51 -5v-68q-10 3 -29 3q-39 0 -56.5 -20.5t-17.5 -65.5v-53h101v-70h-101v-438h-87v438h-186v-438h-87v438h-89v70h89zM656 508h88v-508h-88v508z
M744 712v-99h-88v99h88z" />
    <glyph glyph-name="f_f_l.liga" unicode="ffl" horiz-adv-x="822" 
d="M565 644q-10 3 -29 3q-39 0 -56.5 -20.5t-17.5 -65.5v-53h101v-70h-101v-438h-87v438h-186v-438h-87v438h-89v70h89v63q0 146 139 146q29 0 51 -5v-68q-9 3 -29 3q-39 0 -56.5 -20.5t-17.5 -65.5v-53h186v63q0 146 139 146q26 0 51 -5v-68zM744 712v-712h-88v712h88z" />
    <glyph glyph-name="f_i.liga" unicode="fi" horiz-adv-x="549" 
d="M13 508h89v63q0 146 139 146q29 0 51 -5v-68q-9 3 -29 3q-39 0 -56.5 -20.5t-17.5 -65.5v-53h101v-70h-101v-438h-87v438h-89v70zM383 0v508h88v-508h-88zM471 712v-99h-88v99h88z" />
    <glyph glyph-name="f_l.liga" unicode="fl" horiz-adv-x="549" 
d="M102 508v63q0 146 139 146q29 0 51 -5v-68q-9 3 -29 3q-39 0 -56.5 -20.5t-17.5 -65.5v-53h101v-70h-101v-438h-87v438h-89v70h89zM471 0h-88v712h88v-712z" />
    <glyph glyph-name=".notdef" horiz-adv-x="623" 
d="M568 -30q-35 -35 -96 -35h-321q-60 0 -95.5 35t-35.5 96v580q0 61 35.5 96t95.5 35h321q61 0 96 -35t35 -96v-580q0 -61 -35 -96zM532 706q-22 22 -60 22h-321q-38 0 -60 -22t-22 -60v-580q0 -38 22 -60t60 -22h321q38 0 60 22t22 60v580q0 38 -22 60zM393 498
q0 35 -22 56q-23 20 -62 20q-89 0 -94 -98h-84q4 83 50 126.5t128 43.5q77 0 124 -40t47 -107q0 -43 -16 -71q-17 -29 -64 -72q-45 -39 -56.5 -65t-11.5 -89h-72v27q0 61 15 92q14 32 61 76q37 35 47 54t10 47zM343 65h-94v91h94v-91z" />
    <glyph glyph-name=".null" horiz-adv-x="0" 
 />
    <glyph glyph-name="nonmarkingreturn" horiz-adv-x="333" 
 />
    <glyph glyph-name="NULL" horiz-adv-x="0" 
 />
    <glyph glyph-name="NULL" horiz-adv-x="0" 
 />
    <glyph glyph-name="space" unicode=" " horiz-adv-x="230" 
 />
    <glyph glyph-name="exclam" unicode="!" horiz-adv-x="275" 
d="M102 175l-21 537h113l-21 -537h-71zM190 0h-104v106h104v-106z" />
    <glyph glyph-name="quotedbl" unicode="&#x22;" horiz-adv-x="372" 
d="M218 712h86l-11 -263h-64zM154 712l-11 -263h-64l-11 263h86z" />
    <glyph glyph-name="numbersign" unicode="#" horiz-adv-x="649" 
d="M614 486l-11 -66h-117l-26 -164h118l-11 -65h-118l-30 -191h-76l30 191h-144l-30 -191h-76l30 191h-118l10 65h119l26 164h-119l10 66h119l30 188h76l-30 -188h144l30 188h76l-30 -188h118zM266 420l-26 -164h144l26 164h-144z" />
    <glyph glyph-name="dollar" unicode="$" horiz-adv-x="562" 
d="M506 466h-89q0 131 -105 147v-229q75 -21 111 -38q40 -19 69 -59q28 -40 28 -107q0 -82 -56 -133.5t-152 -59.5v-86h-62v86q-100 8 -153.5 68t-54.5 165h89q0 -141 119 -158v248q-67 20 -105.5 40.5t-63.5 55.5q-27 38 -27 98q0 79 52 127.5t144 55.5v77h62v-77
q194 -17 194 -221zM312 293v-232q58 6 88 36t30 80q0 47 -26.5 71.5t-91.5 44.5zM250 614q-106 -10 -106 -105q0 -45 24 -68.5t82 -39.5v213z" />
    <glyph glyph-name="percent" unicode="%" horiz-adv-x="864" 
d="M666 366q74 0 113.5 -49.5t39.5 -140.5t-39.5 -140.5t-113.5 -49.5t-113.5 49.5t-39.5 140.5t39.5 140.5t113.5 49.5zM45 498q0 92 40 141q39 49 113 49t113.5 -49.5t39.5 -140.5t-39.5 -140.5t-113.5 -49.5t-113.5 49.5t-39.5 140.5zM209 -30l378 734h68l-378 -734h-68z
M124 498q0 -128 74 -128t74 128t-74 128t-74 -128zM740 176q0 128 -74 128t-74 -128t74 -128q36 0 55 33q19 31 19 95z" />
    <glyph glyph-name="ampersand" unicode="&#x26;" horiz-adv-x="734" 
d="M606 0l-79 80q-87 -95 -225 -95q-113 0 -180.5 56.5t-67.5 147.5q0 137 158 213q-48 50 -65 85q-17 36 -17 81q0 71 49 114q50 44 128 44q81 0 128 -43q47 -44 47 -112q0 -60 -30.5 -103t-104.5 -84l176 -177q44 77 44 192h90q-2 -154 -72 -254l144 -145h-123zM175 278
q-26 -37 -26 -85q0 -56 44 -92q43 -37 115 -37q94 0 163 72l-207 210q-62 -32 -89 -68zM217 565q0 -33 16 -58q15 -27 61 -73q56 30 79 61t23 71q0 38 -24 61t-65 23q-42 0 -66 -22.5t-24 -62.5z" />
    <glyph glyph-name="quotesingle" unicode="'" horiz-adv-x="222" 
d="M68 712h86l-11 -263h-64z" />
    <glyph glyph-name="parenleft" unicode="(" horiz-adv-x="292" 
d="M51 297q0 246 135 444h76q-61 -111 -88 -215t-27 -229q0 -233 115 -444h-76q-70 103 -102.5 209.5t-32.5 234.5z" />
    <glyph glyph-name="parenright" unicode=")" horiz-adv-x="292" 
d="M107 -147h-77q59 108 88 216q27 105 27 228q0 125 -27 229t-88 215h77q135 -200 135 -444q0 -242 -135 -444z" />
    <glyph glyph-name="asterisk" unicode="*" horiz-adv-x="407" 
d="M164 532l-133 24l25 76l124 -57l-16 137h79l-16 -137l124 57l25 -76l-133 -24l91 -99l-64 -48l-66 121l-66 -121l-65 48z" />
    <glyph glyph-name="plus" unicode="+" horiz-adv-x="566" 
d="M247 280h-176v73h176v176h72v-176h176v-73h-176v-175h-72v175z" />
    <glyph glyph-name="comma" unicode="," horiz-adv-x="226" 
d="M115 -144h-58l38 144h-36v117h108v-117z" />
    <glyph glyph-name="hyphen" unicode="-" horiz-adv-x="300" 
d="M30 253v78h240v-78h-240z" />
    <glyph glyph-name="period" unicode="." horiz-adv-x="226" 
d="M59 0v117h108v-117h-108z" />
    <glyph glyph-name="slash" unicode="/" horiz-adv-x="457" 
d="M109 -89h-79l297 834h79z" />
    <glyph glyph-name="zero" unicode="0" horiz-adv-x="562" 
d="M281 -14q-118 0 -181 91q-63 90 -63 260t63 260.5t181 90.5t181 -90.5t63 -260.5t-63 -260.5t-181 -90.5zM133 337q0 -133 38 -202.5t110 -69.5q73 0 111 69.5t38 202.5q0 132 -38 201t-111 69q-72 0 -110 -69t-38 -201z" />
    <glyph glyph-name="one" unicode="1" horiz-adv-x="562" 
d="M105 561q79 0 116.5 26t47.5 87h78v-674h-91v491h-151v70z" />
    <glyph glyph-name="two" unicode="2" horiz-adv-x="562" 
d="M512 79v-79h-465q-1 5 -1 20q1 72 16 117t57.5 88t125.5 93q63 38 92.5 60.5t45.5 50.5q17 29 17 69q0 49 -33 79.5t-87 30.5q-124 0 -131 -132h-94q4 99 64 155.5t162 56.5q96 0 155.5 -52t59.5 -136q0 -103 -83 -168q-34 -28 -102 -68q-97 -57 -129 -94.5t-34 -90.5
h364z" />
    <glyph glyph-name="three" unicode="3" horiz-adv-x="562" 
d="M509 177q0 -55 -29 -99q-61 -92 -202 -92q-111 0 -172 57t-61 160h93q0 -67 36 -102.5t104 -35.5q61 0 99 32t38 83q0 59 -41 90.5t-119 31.5h-27v77h27q69 0 109.5 31.5t40.5 85.5q0 51 -36 82t-96 31q-129 0 -129 -134h-93q0 100 60.5 156.5t165.5 56.5q101 0 162 -50
q59 -50 59 -134q0 -115 -117 -157v-2q66 -22 97 -62.5t31 -105.5z" />
    <glyph glyph-name="four" unicode="4" horiz-adv-x="562" 
d="M305 674h123v-424h110v-76h-110v-174h-91v174h-318v83zM107 250h231v92q0 125 3 251h-2q-73 -114 -155 -232z" />
    <glyph glyph-name="five" unicode="5" horiz-adv-x="562" 
d="M482 338q27 -50 27 -117q0 -107 -64.5 -171t-171.5 -64q-101 0 -159 52q-60 52 -60 141h94q1 -53 35 -83t90 -30q65 0 103 40.5t38 111.5q0 69 -36.5 108t-99.5 39q-103 0 -128 -95l-91 6l37 398h382v-78h-305l-20 -209h2q48 56 136 56q65 0 114.5 -27.5t76.5 -77.5z" />
    <glyph glyph-name="six" unicode="6" horiz-adv-x="562" 
d="M491 334q26 -52 26 -116q0 -103 -64 -167.5t-166 -64.5q-117 0 -177.5 82t-60.5 243q0 182 65.5 279.5t185.5 97.5q90 0 145 -49.5t63 -137.5h-94q-18 107 -117 107q-74 0 -116 -64t-45 -191h2q59 86 166 86q63 0 111.5 -27.5t75.5 -77.5zM152 216q0 -69 36.5 -109.5
t98.5 -40.5q61 0 98 41t37 109q0 66 -36.5 107t-97.5 41q-60 0 -98 -41q-38 -43 -38 -107z" />
    <glyph glyph-name="seven" unicode="7" horiz-adv-x="562" 
d="M416 594h-373v80h466v-81q-170 -246 -240 -593h-101q82 361 248 594z" />
    <glyph glyph-name="eight" unicode="8" horiz-adv-x="562" 
d="M396 665q52 -24 80 -66q28 -41 28 -96q0 -53 -31 -92.5t-87 -60.5v-2q63 -19 97 -61.5t34 -104.5q0 -88 -65.5 -142t-170.5 -54q-104 0 -169.5 54t-65.5 142q0 62 33.5 104.5t96.5 61.5v2q-55 21 -86 60.5t-31 92.5q0 81 62.5 133t159.5 52q63 0 115 -23zM179 275
q-40 -34 -40 -87q0 -55 39 -88.5t103 -33.5t103 33.5t39 88.5q0 53 -39.5 86.5t-102.5 33.5t-102 -33zM150 500q0 -52 35.5 -83t95.5 -31t95.5 31t35.5 83q0 49 -36 79t-95 30t-95 -30t-36 -79z" />
    <glyph glyph-name="nine" unicode="9" horiz-adv-x="562" 
d="M445 606q61 -82 61 -243q0 -182 -65.5 -279.5t-185.5 -97.5q-90 0 -145 49.5t-63 137.5h94q18 -107 117 -107q74 0 116 64t45 191h-2q-59 -86 -166 -86q-95 0 -154 61t-59 160q0 103 64 167.5t166 64.5q116 0 177 -82zM170 567q-37 -40 -37 -109q0 -66 36.5 -107
t97.5 -41t99 42q37 40 37 106q0 69 -36.5 109.5t-98.5 40.5q-60 0 -98 -41z" />
    <glyph glyph-name="colon" unicode=":" horiz-adv-x="226" 
d="M59 391v117h108v-117h-108zM59 0v117h108v-117h-108z" />
    <glyph glyph-name="semicolon" unicode=";" horiz-adv-x="226" 
d="M57 -144l38 144h-36v117h108v-117l-52 -144h-58zM167 508v-117h-108v117h108z" />
    <glyph glyph-name="less" unicode="&#x3c;" horiz-adv-x="566" 
d="M71 272v90l424 178v-80l-342 -142v-2l342 -142v-80z" />
    <glyph glyph-name="equal" unicode="=" horiz-adv-x="566" 
d="M71 436h424v-74h-424v74zM71 197v74h424v-74h-424z" />
    <glyph glyph-name="greater" unicode="&#x3e;" horiz-adv-x="566" 
d="M495 272l-424 -178v80l342 142v2l-342 142v80l424 -178v-90z" />
    <glyph glyph-name="question" unicode="?" horiz-adv-x="516" 
d="M477 545q0 -36 -8 -63q-18 -51 -98 -118q-60 -52 -74.5 -83t-16.5 -116h-78v30q2 81 19.5 118.5t81.5 95.5q51 44 65.5 69.5t14.5 64.5q0 47 -33 75t-90 28q-127 0 -135 -129h-92q5 102 63.5 155.5t163.5 53.5q98 0 157.5 -49.5t59.5 -131.5zM189 0v106h104v-106h-104z
" />
    <glyph glyph-name="at" unicode="@" horiz-adv-x="868" 
d="M630 75q-94 0 -111 90h-2q-43 -90 -137 -90q-69 0 -108 50.5t-40 143.5q1 110 54.5 179.5t134.5 69.5q86 0 116 -79h2q7 44 13 69h76q-18 -84 -30 -168t-12 -125q0 -74 56 -74q49 0 80 49t31 137q0 137 -84.5 220t-224.5 83q-151 2 -241 -99.5t-88 -254.5
q0 -148 85 -233.5t229 -85.5q128 0 220 56l30 -56q-103 -63 -250 -63q-174 0 -277.5 102.5t-103.5 279.5q-2 177 108 298t288 119q169 1 273 -100.5t102 -265.5q0 -120 -53.5 -186t-135.5 -66zM314 270q0 -60 23 -92t64 -32q51 0 83.5 50.5t32.5 141.5q0 52 -22 81t-62 29
q-52 0 -85.5 -49t-33.5 -129z" />
    <glyph glyph-name="A" unicode="A" horiz-adv-x="675" 
d="M103 0h-98l270 712h125l271 -712h-99l-77 212h-314zM210 293h255l-23 65q-49 135 -103 290h-2q-54 -155 -103 -290z" />
    <glyph glyph-name="B" unicode="B" horiz-adv-x="627" 
d="M548 305q35 -44 35 -109q0 -90 -63.5 -143t-173.5 -53h-251v712h232q117 0 178.5 -48t61.5 -133q0 -123 -118 -166v-2q65 -15 99 -58zM320 324h-133v-246h146q155 0 155 123t-168 123zM324 634h-137v-233h133q156 0 156 117q0 116 -152 116z" />
    <glyph glyph-name="C" unicode="C" horiz-adv-x="689" 
d="M599 603q35 -59 39 -132h-95q-7 79 -57.5 125t-130.5 46q-101 0 -158 -76q-58 -76 -58 -210q0 -132 57 -209t156 -77q79 0 131 47t63 128h96q-10 -119 -88 -189q-76 -70 -202 -70q-143 0 -226 99.5t-83 270.5q0 172 83.5 271t228.5 99q169 0 244 -123z" />
    <glyph glyph-name="D" unicode="D" horiz-adv-x="723" 
d="M312 0h-217v712h217q177 0 273 -92.5t96 -263.5t-96 -263.5t-273 -92.5zM187 82h124q133 0 203 70t70 204t-70 204t-203 70h-124v-548z" />
    <glyph glyph-name="E" unicode="E" horiz-adv-x="618" 
d="M565 0h-470v712h459v-82h-367v-225h346v-81h-346v-242h378v-82z" />
    <glyph glyph-name="F" unicode="F" horiz-adv-x="573" 
d="M95 0v712h446v-82h-354v-243h332v-82h-332v-305h-92z" />
    <glyph glyph-name="G" unicode="G" horiz-adv-x="731" 
d="M648 378v-378h-82v98h-2q-29 -51 -89 -81t-135 -30q-137 0 -217 98.5t-80 268.5q0 172 86.5 272t235.5 100q122 0 198 -61q74 -61 85 -167h-98q-12 69 -60 106.5t-125 37.5q-105 0 -165 -77q-61 -76 -61 -211q0 -134 59 -211t160 -77q95 0 148 58t54 175h-196v79h284z
" />
    <glyph glyph-name="H" unicode="H" horiz-adv-x="737" 
d="M95 0v712h92v-302h363v302h93v-712h-93v329h-363v-329h-92z" />
    <glyph glyph-name="I" unicode="I" horiz-adv-x="282" 
d="M95 0v712h92v-712h-92z" />
    <glyph glyph-name="J" unicode="J" horiz-adv-x="356" 
d="M15 1v82q30 -5 43 -5q60 0 88 32.5t28 105.5v496h92v-508q0 -209 -201 -209q-31 0 -50 6z" />
    <glyph glyph-name="K" unicode="K" horiz-adv-x="625" 
d="M95 712h92v-321h2l287 321h116l-311 -339l340 -373h-123l-309 350h-2v-350h-92v712z" />
    <glyph glyph-name="L" unicode="L" horiz-adv-x="561" 
d="M95 712h92v-630h364v-82h-456v712z" />
    <glyph glyph-name="M" unicode="M" horiz-adv-x="934" 
d="M839 712v-712h-90v362q0 30 2 272h-2q-40 -115 -84 -236l-145 -398h-106l-145 398q-44 121 -84 236h-2q2 -242 2 -272v-362h-90v712h148l129 -351q38 -108 94 -273h2q56 165 94 273l128 351h149z" />
    <glyph glyph-name="N" unicode="N" horiz-adv-x="755" 
d="M95 0v712h135l170 -307q131 -241 172 -319h2q-3 171 -3 341v285h90v-712h-136l-169 307q-92 166 -172 319h-2q3 -171 3 -341v-285h-90z" />
    <glyph glyph-name="O" unicode="O" horiz-adv-x="732" 
d="M689 356q0 -170 -87.5 -270t-235.5 -100t-235.5 100t-87.5 270t87.5 270t235.5 100t235.5 -100t87.5 -270zM167 508q-28 -63 -28 -152q0 -131 61.5 -208.5t165.5 -77.5t165.5 77.5t61.5 208.5t-61.5 208.5t-165.5 77.5q-69 0 -120.5 -35t-78.5 -99z" />
    <glyph glyph-name="P" unicode="P" horiz-adv-x="616" 
d="M187 0h-92v712h244q119 0 184 -57t65 -158t-65 -158t-184 -57h-152v-282zM187 632v-270h145q79 0 120 35t41 100t-41 100t-120 35h-145z" />
    <glyph glyph-name="Q" unicode="Q" horiz-adv-x="731" 
d="M688 356q0 -87 -22 -154q-22 -68 -65 -117l79 -87l-56 -53l-81 89q-77 -48 -175 -48q-149 0 -237 100t-88 270t88 270t237 100q147 0 233.5 -100t86.5 -270zM167 507q-28 -63 -28 -152q0 -132 62 -210t168 -78q64 0 114 32l-94 103l57 52l93 -102q55 79 55 203
q0 131 -61 209t-164 78q-70 0 -122 -35t-80 -100z" />
    <glyph glyph-name="R" unicode="R" horiz-adv-x="640" 
d="M542 205l73 -205h-100l-65 188q-22 64 -51 88q-30 24 -87 24h-125v-300h-92v712h226q125 0 187.5 -49.5t62.5 -143.5q0 -68 -37 -116t-99 -62v-2q39 -12 61 -40t46 -94zM187 633v-255h133q78 0 117.5 35.5t39.5 98.5q0 121 -163 121h-127z" />
    <glyph glyph-name="S" unicode="S" horiz-adv-x="609" 
d="M530 306q30 -41 30 -110q0 -95 -70 -152.5t-185 -57.5q-127 0 -196.5 64.5t-69.5 185.5h95q0 -85 44.5 -128t127.5 -43q76 0 117.5 33t41.5 93q0 70 -72 98q-36 13 -102 30q-88 22 -134.5 43.5t-74.5 59.5q-30 40 -30 108q0 86 65 141t171 55q255 0 255 -234h-93
q0 155 -163 155q-66 0 -103.5 -30t-37.5 -81q3 -55 37 -78t135 -49q80 -19 132 -41q47 -20 80 -62z" />
    <glyph glyph-name="T" unicode="T" horiz-adv-x="599" 
d="M10 712h579v-82h-243v-630h-93v630h-243v82z" />
    <glyph glyph-name="U" unicode="U" horiz-adv-x="705" 
d="M89 712h92v-443q0 -97 44.5 -148t127.5 -51q82 0 126.5 51t44.5 148v443h93v-445q0 -137 -68 -209t-196 -72q-129 0 -196.5 71.5t-67.5 209.5v445z" />
    <glyph glyph-name="V" unicode="V" horiz-adv-x="624" 
d="M7 712h96l109 -317q32 -95 99 -305h2q59 189 100 305l108 317h97l-246 -712h-120z" />
    <glyph glyph-name="W" unicode="W" horiz-adv-x="916" 
d="M814 712h92l-166 -712h-132l-75 311q-48 202 -74 319h-2q-26 -117 -74 -319l-75 -311h-132l-166 712h92l67 -288q47 -211 67 -303l7 -32h2q48 216 79 336l70 287h128l70 -287q31 -120 79 -336h2q37 179 74 335z" />
    <glyph glyph-name="X" unicode="X" horiz-adv-x="621" 
d="M7 0l247 365l-233 347h108l181 -277h2l180 277h108l-233 -347l247 -365h-110l-192 293h-2l-192 -293h-111z" />
    <glyph glyph-name="Y" unicode="Y" horiz-adv-x="614" 
d="M4 712h107l87 -147q47 -78 108 -188h2q61 110 108 188l88 147h106l-257 -417v-295h-92v295z" />
    <glyph glyph-name="Z" unicode="Z" horiz-adv-x="566" 
d="M548 0h-530v88l403 541v2h-392v81h500v-88l-403 -541v-2h422v-81z" />
    <glyph glyph-name="bracketleft" unicode="[" horiz-adv-x="297" 
d="M76 741h203v-59h-118v-771h118v-59h-203v889z" />
    <glyph glyph-name="backslash" unicode="\" horiz-adv-x="457" 
d="M348 -89l-297 834h79l297 -834h-79z" />
    <glyph glyph-name="bracketright" unicode="]" horiz-adv-x="297" 
d="M18 741h203v-889h-203v59h118v771h-118v59z" />
    <glyph glyph-name="asciicircum" unicode="^" horiz-adv-x="449" 
d="M11 371l166 341h95l166 -341h-82l-130 270h-2l-130 -270h-83z" />
    <glyph glyph-name="underscore" unicode="_" horiz-adv-x="500" 
d="M0 -101v51h500v-51h-500z" />
    <glyph glyph-name="grave" unicode="`" horiz-adv-x="299" 
d="M173 569l-123 143h113l86 -143h-76z" />
    <glyph glyph-name="a" unicode="a" horiz-adv-x="531" 
d="M459 325v-195q0 -78 12 -130h-80q-7 29 -7 74h-2q-56 -85 -176 -85q-78 0 -125 42q-47 41 -47 107q0 67 44.5 105t148.5 55q78 13 147 17v20q0 119 -115 119q-53 0 -83.5 -27t-32.5 -74h-88q4 76 58 122.5t146 46.5q96 0 148 -50t52 -147zM124 144q0 -40 28 -63.5
t76 -23.5q65 0 105 40q23 24 32 49.5t9 70.5v31q-83 -6 -133 -16q-64 -10 -90.5 -30t-26.5 -58z" />
    <glyph glyph-name="b" unicode="b" 
d="M509 396q26 -63 26 -141q0 -121 -58 -194t-155 -73q-51 0 -93 23t-62 63h-2v-74h-87v712h88v-274h2q21 38 62.5 60.5t92.5 22.5q131 0 186 -125zM200 398q-38 -53 -38 -143t37.5 -143t100.5 -53q65 0 104 53.5t39 142.5t-39 142t-104 53q-63 0 -100 -52z" />
    <glyph glyph-name="c" unicode="c" horiz-adv-x="534" 
d="M497 187q-4 -58 -33 -103q-28 -46 -76 -72t-108 -26q-110 0 -174.5 72t-64.5 196t64.5 196t174.5 72q90 0 149.5 -54t67.5 -140h-92q-5 54 -40 88t-86 34q-67 0 -106 -52.5t-39 -143.5t38.5 -143.5t106.5 -52.5q51 0 86 36t40 93h92z" />
    <glyph glyph-name="d" unicode="d" 
d="M498 712v-712h-86v74h-2q-21 -40 -62.5 -63t-93.5 -23q-97 0 -155 73t-58 194t57.5 193.5t154.5 72.5q51 0 92.5 -22.5t62.5 -60.5h2v274h88zM133 255q0 -89 39 -142.5t104 -53.5q63 0 101 53t38 143t-38 142.5t-101 52.5q-65 0 -104 -53t-39 -142z" />
    <glyph glyph-name="e" unicode="e" horiz-adv-x="550" 
d="M499 345q10 -39 10 -109h-380q3 -88 43.5 -135t107.5 -47q53 0 89 26.5t45 71.5h90q-14 -72 -72 -118q-58 -48 -152 -48q-111 0 -175 75t-64 200q0 115 64.5 188t171.5 73q85 0 143.5 -47t78.5 -130zM176 415q-38 -40 -46 -112h292q-7 72 -45.5 111.5t-99.5 39.5
q-62 0 -101 -39z" />
    <glyph glyph-name="f" unicode="f" horiz-adv-x="305" 
d="M292 712v-68q-9 3 -29 3q-39 0 -56.5 -20.5t-17.5 -65.5v-53h101v-70h-101v-438h-87v438h-89v70h89v63q0 146 139 146q29 0 51 -5z" />
    <glyph glyph-name="g" unicode="g" horiz-adv-x="573" 
d="M495 508v-477q0 -111 -56.5 -167.5t-165.5 -56.5q-96 0 -152 43t-58 118h88q2 -44 34.5 -68.5t88.5 -24.5q69 0 102 38.5t33 121.5v55h-2q-55 -85 -151 -85q-97 0 -156 71t-59 187q0 118 58.5 188t156.5 70q100 0 152 -87h2v74h85zM133 263q0 -83 37.5 -133.5t99.5 -50.5
q66 0 104 49.5t38 134.5q0 86 -38 135.5t-104 49.5q-62 0 -99.5 -50.5t-37.5 -134.5z" />
    <glyph glyph-name="h" unicode="h" 
d="M166 712v-268h2q51 75 151 75q88 0 136 -53.5t48 -155.5v-310h-88v303q0 75 -29.5 109.5t-87.5 34.5t-95 -41.5t-37 -114.5v-291h-88v712h88z" />
    <glyph glyph-name="i" unicode="i" horiz-adv-x="244" 
d="M78 0v508h88v-508h-88zM78 613v99h88v-99h-88z" />
    <glyph glyph-name="j" unicode="j" horiz-adv-x="249" 
d="M7 -117q40 0 58 22t18 74v529h88v-537q0 -160 -146 -160q-25 0 -47 5v70q15 -3 29 -3zM171 712v-99h-88v99h88z" />
    <glyph glyph-name="k" unicode="k" horiz-adv-x="500" 
d="M78 712h88v-415h2l205 211h109l-228 -230l255 -278h-116l-225 254h-2v-254h-88v712z" />
    <glyph glyph-name="l" unicode="l" horiz-adv-x="244" 
d="M78 0v712h88v-712h-88z" />
    <glyph glyph-name="m" unicode="m" horiz-adv-x="863" 
d="M790 314v-314h-88v307q0 140 -104 140q-55 0 -87.5 -43t-32.5 -116v-288h-88v320q0 60 -27 93.5t-76 33.5q-56 0 -88.5 -44t-32.5 -121v-282h-88v508h85v-63h2q54 74 142 74q110 0 151 -96q54 96 161 96q82 0 126.5 -52.5t44.5 -152.5z" />
    <glyph glyph-name="n" unicode="n" 
d="M163 508v-67h2q52 78 154 78q88 0 136 -53.5t48 -155.5v-310h-88v303q0 75 -29.5 109.5t-87.5 34.5t-95 -41.5t-37 -114.5v-291h-88v508h85z" />
    <glyph glyph-name="o" unicode="o" horiz-adv-x="565" 
d="M106 450q64 72 176 72t177 -72q65 -73 65 -196t-65 -196q-65 -72 -177 -72t-176 72q-65 73 -65 196t65 196zM133 254q0 -91 40 -143.5t109 -52.5q70 0 110 52.5t40 143.5t-40 143.5t-110 52.5q-69 0 -109 -52.5t-40 -143.5z" />
    <glyph glyph-name="p" unicode="p" 
d="M535 255q0 -121 -57.5 -194t-154.5 -73q-51 0 -92.5 22.5t-62.5 61.5h-2v-257h-88v693h87v-73h2q20 40 62 63t93 23q97 0 155 -72.5t58 -193.5zM200 398q-38 -53 -38 -143t38 -143t100 -53q65 0 104 53.5t39 142.5t-39 142t-104 53q-63 0 -100 -52z" />
    <glyph glyph-name="q" unicode="q" 
d="M498 508v-693h-88v257h-2q-21 -39 -62.5 -61.5t-92.5 -22.5q-97 0 -154.5 73t-57.5 194t58 193.5t155 72.5q52 0 93.5 -23t62.5 -63h2v73h86zM172 397q-39 -53 -39 -142t39 -142q39 -54 104 -54q63 0 101 53t38 143t-38 142.5t-101 52.5q-65 0 -104 -53z" />
    <glyph glyph-name="r" unicode="r" horiz-adv-x="362" 
d="M78 508h84v-78h2q50 83 150 83q24 0 37 -4v-79q-33 3 -35 3q-72 0 -111 -45t-39 -129v-259h-88v508z" />
    <glyph glyph-name="s" unicode="s" horiz-adv-x="494" 
d="M427 225q26 -32 26 -87q0 -69 -54.5 -110.5t-146.5 -41.5q-102 0 -157 47t-56 136h89q0 -54 32.5 -83.5t92.5 -29.5q50 0 80 21t30 55q0 51 -55 71q-33 11 -85 23q-64 16 -93 28q-32 12 -55 41q-24 29 -24 80q0 65 53 106t135 41q94 0 146 -45t52 -128h-86q0 51 -29.5 78
t-83.5 27q-46 0 -72.5 -19.5t-26.5 -52.5q0 -45 48 -62q26 -9 74 -20q64 -16 103 -30q36 -14 63 -45z" />
    <glyph glyph-name="t" unicode="t" horiz-adv-x="320" 
d="M293 74v-72q-23 -6 -56 -6q-73 0 -105.5 34t-32.5 112v296h-88v70h88v123h88v-123h101v-70h-101v-287q0 -44 16 -63t54 -19q19 0 36 5z" />
    <glyph glyph-name="u" unicode="u" 
d="M256 -11q-88 0 -135 53q-48 52 -48 156v310h88v-303q0 -75 29.5 -109.5t87.5 -34.5t95 42.5t37 113.5v291h88v-508h-85v67h-2q-52 -78 -155 -78z" />
    <glyph glyph-name="v" unicode="v" horiz-adv-x="470" 
d="M-6 508h94l72 -213q22 -66 74 -226h2q53 168 73 226l73 213h94l-184 -508h-114z" />
    <glyph glyph-name="w" unicode="w" horiz-adv-x="770" 
d="M674 508h89l-135 -508h-126l-60 220q-3 10 -6 23.5t-5 21t-3 11.5q-23 85 -42 164h-2q-19 -79 -42 -164q-1 -4 -3 -11.5t-5 -21t-6 -23.5l-60 -220h-126l-135 508h89l54 -212q35 -140 56 -228h2q21 87 56 223l58 217h126l58 -217l56 -223h2q21 88 56 228z" />
    <glyph glyph-name="x" unicode="x" horiz-adv-x="480" 
d="M-2 0l189 264l-173 244h104l121 -182h2l122 182h104l-173 -244l189 -264h-106l-136 203h-2l-136 -203h-105z" />
    <glyph glyph-name="y" unicode="y" horiz-adv-x="472" 
d="M19 -110q18 -6 42 -6q51 0 76 23t50 91l-193 510h95l146 -404h2l148 404h93l-204 -531q-38 -98 -81 -131t-128 -35q-28 0 -46 5v74z" />
    <glyph glyph-name="z" unicode="z" horiz-adv-x="469" 
d="M443 0h-417v76l299 358v2h-289v72h397v-76l-299 -358v-2h309v-72z" />
    <glyph glyph-name="braceleft" unicode="{" horiz-adv-x="301" 
d="M277 741v-56q-48 -2 -68 -24.5t-20 -76.5v-163q0 -53 -19 -81t-65 -43v-3q46 -14 65 -42.5t19 -80.5v-164q0 -54 20 -76.5t68 -23.5v-56h-22q-78 0 -113 38.5t-35 123.5v155q0 44 -15 65t-52 32v61q37 11 52 32.5t15 64.5v156q0 85 35 123.5t113 38.5h22z" />
    <glyph glyph-name="bar" unicode="|" horiz-adv-x="273" 
d="M96 -205v937h81v-937h-81z" />
    <glyph glyph-name="braceright" unicode="}" horiz-adv-x="301" 
d="M261 326v-61q-37 -11 -52 -32t-15 -65v-155q0 -85 -35 -123.5t-113 -38.5h-22v56q48 1 68 23.5t20 76.5v164q0 52 19 80.5t65 42.5v3q-46 15 -65 43t-19 81v163q0 54 -20 76.5t-68 24.5v56h22q78 0 113 -38.5t35 -123.5v-156q0 -43 15 -64.5t52 -32.5z" />
    <glyph glyph-name="asciitilde" unicode="~" horiz-adv-x="583" 
d="M558 399q0 -78 -41 -127q-40 -48 -107 -48q-36 0 -65 14t-72 48q-36 28 -57 39t-44 11q-39 0 -62 -28t-23 -74h-62q0 78 41 128q41 48 107 48q36 0 65 -14t72 -48q36 -28 57 -39t44 -11q39 0 62 27.5t23 73.5h62z" />
    <glyph glyph-name="uni00A0" unicode="&#xa0;" horiz-adv-x="230" 
 />
    <glyph glyph-name="exclamdown" unicode="&#xa1;" horiz-adv-x="275" 
d="M194 -204h-113l21 537h71zM190 402h-104v106h104v-106z" />
    <glyph glyph-name="cent" unicode="&#xa2;" horiz-adv-x="562" 
d="M509 266q-7 -81 -57 -135t-129 -64v-91h-63v91q-96 11 -151.5 81.5t-55.5 184.5t55 184.5t152 81.5v89h63v-89q77 -9 128 -61.5t58 -129.5h-92q-4 45 -29 76.5t-65 40.5v-384q39 10 64.5 44.5t29.5 80.5h92zM146 333q0 -81 30 -130q30 -51 84 -63v386q-54 -12 -84 -62.5
t-30 -130.5z" />
    <glyph glyph-name="sterling" unicode="&#xa3;" horiz-adv-x="562" 
d="M519 76v-76h-495v77q97 0 97 134v82h-97v77h97v100q0 107 52.5 162.5t152.5 55.5q93 0 145.5 -55t52.5 -151h-89q0 61 -28.5 93.5t-80.5 32.5q-114 0 -114 -138v-100h125v-77h-125v-81q0 -52 -12.5 -82.5t-40.5 -51.5v-2h360z" />
    <glyph glyph-name="currency" unicode="&#xa4;" horiz-adv-x="562" 
d="M473 556l59 -55l-76 -81q37 -53 37 -129t-37 -129l76 -81l-59 -55l-75 80q-50 -31 -117 -31t-117 31l-75 -80l-59 55l76 80q-37 53 -37 130t37 130l-76 80l59 55l75 -80q50 31 117 31t117 -31zM184 394q-36 -39 -36 -103t36 -102.5t97 -38.5t97.5 38.5t36.5 102.5
t-36.5 102.5t-97.5 38.5t-97 -38z" />
    <glyph glyph-name="yen" unicode="&#xa5;" horiz-adv-x="562" 
d="M500 360v-59h-172v-56h172v-59h-172v-186h-93v186h-173v59h173v56h-173v59h137l-190 314h106l59 -103q56 -96 106 -188h2q56 101 106 188l60 103h105l-189 -314h136z" />
    <glyph glyph-name="brokenbar" unicode="&#xa6;" horiz-adv-x="273" 
d="M96 732h81v-350h-81v350zM96 -205v350h81v-350h-81z" />
    <glyph glyph-name="section" unicode="&#xa7;" horiz-adv-x="578" 
d="M386 9q0 29 -13 48q-14 18 -41 34q-28 17 -93 45q-70 33 -104 56t-52 54q-19 31 -19 80q0 93 83 143v2q-47 38 -47 103q0 68 51 110t132 42q181 0 189 -171h-89q-3 97 -100 97q-42 0 -66.5 -21t-24.5 -57q0 -27 10.5 -42.5t35.5 -28.5q25 -14 85 -39q75 -33 114 -57
q38 -25 58 -57q19 -32 19 -83q0 -93 -85 -145v-2q49 -39 49 -111q0 -74 -51.5 -116.5t-139.5 -42.5q-97 0 -148.5 45.5t-52.5 132.5h89q3 -104 111 -104q47 0 73.5 22.5t26.5 62.5zM373 161q26 17 41 42q15 24 15 54q0 41 -25.5 67t-101.5 60q-37 16 -98 46q-55 -39 -55 -93
q0 -40 28 -68q27 -28 104 -62q39 -17 92 -46z" />
    <glyph glyph-name="dieresis" unicode="&#xa8;" horiz-adv-x="377" 
d="M245 712h82v-99h-82v99zM50 712h82v-99h-82v99z" />
    <glyph glyph-name="copyright" unicode="&#xa9;" horiz-adv-x="810" 
d="M593 678q81 -46 126 -129q45 -84 45 -193q2 -163 -99.5 -266.5t-259.5 -101.5q-159 -2 -259.5 101.5t-98.5 266.5q-2 163 98.5 266.5t259.5 101.5q106 0 188 -46zM679 525q-39 72 -110.5 112t-163.5 40q-140 0 -226.5 -88.5t-86.5 -232.5t86.5 -232.5t226.5 -88.5
q93 0 164 40t110 113q39 72 39 168t-39 169zM598 286q-7 -79 -59 -126t-134 -47q-95 0 -149.5 65t-54.5 178q0 114 55 178q56 65 150 65q83 0 135 -47q49 -46 54 -122h-75q-4 48 -34 76t-80 28q-60 0 -94.5 -47.5t-34.5 -130.5q0 -82 34.5 -130t93.5 -48q48 0 79.5 29
t37.5 79h76z" />
    <glyph glyph-name="ordfeminine" unicode="&#xaa;" horiz-adv-x="393" 
d="M341 555v-131q0 -54 9 -94h-68q-5 30 -5 50h-2q-40 -58 -126 -58q-57 0 -91 29t-34 77t33 75t110 39q77 10 101 11v12q0 76 -77 76q-74 0 -76 -64h-76q3 53 43.5 86t109.5 33q72 0 110.5 -36t38.5 -105zM101 433q0 -25 18 -40t51 -15q45 0 70 25q28 28 28 78v19
q-60 -6 -89 -11q-43 -7 -60.5 -19.5t-17.5 -36.5z" />
    <glyph glyph-name="guillemotleft" unicode="&#xab;" horiz-adv-x="464" 
d="M334 454h82l-111 -200l111 -200h-82l-114 200zM48 254l114 200h82l-111 -200l111 -200h-82z" />
    <glyph glyph-name="logicalnot" unicode="&#xac;" horiz-adv-x="566" 
d="M71 380v74h424v-314h-73v240h-351z" />
    <glyph glyph-name="uni00AD" unicode="&#xad;" horiz-adv-x="300" 
d="M270 331v-78h-240v78h240z" />
    <glyph glyph-name="registered" unicode="&#xae;" horiz-adv-x="587" 
d="M424 694q55 -31 87 -89q31 -58 31 -134q0 -115 -68.5 -185.5t-180.5 -70.5q-111 0 -179.5 70.5t-68.5 185.5q0 114 68.5 184.5t179.5 70.5q73 0 131 -32zM406 277q48 27 75 77.5t27 116.5t-27 116.5t-75 78.5q-49 27 -113 27q-96 0 -155.5 -61t-59.5 -161t59.5 -161
t155.5 -61q64 0 113 28zM391 493q-17 -23 -41 -27v-2q28 -10 43 -52l34 -97h-58l-27 82q-15 46 -59 46h-48v-128h-54v319h117q53 0 80.5 -24t27.5 -67q0 -27 -15 -50zM235 588v-99h50q66 0 66 51q0 48 -62 48h-54z" />
    <glyph glyph-name="macron" unicode="&#xaf;" horiz-adv-x="384" 
d="M50 616v64h284v-64h-284z" />
    <glyph glyph-name="degree" unicode="&#xb0;" horiz-adv-x="319" 
d="M74 687q35 35 85 35q49 0 86 -35q35 -37 35 -86q0 -50 -35 -85q-37 -35 -86 -35t-84 36q-36 35 -36 84t35 86zM93 601q0 -27 19.5 -46.5t46.5 -19.5q28 0 48 19.5t20 46.5q0 28 -20 48t-48 20q-27 0 -46.5 -20t-19.5 -48z" />
    <glyph glyph-name="plusminus" unicode="&#xb1;" horiz-adv-x="566" 
d="M247 307h-176v74h176v172h72v-172h176v-74h-176v-171h-72v171zM495 0h-424v74h424v-74z" />
    <glyph glyph-name="uni00B2" unicode="&#xb2;" horiz-adv-x="420" 
d="M385 396v-66h-346q-1 4 -1 17q2 76 29.5 119.5t113.5 92.5q58 30 85 56q25 24 25 62q0 31 -21.5 50t-57.5 19q-82 0 -87 -86h-81q2 71 47.5 111.5t120.5 40.5q73 0 117.5 -37t44.5 -97q0 -54 -32 -90.5t-104 -74.5q-68 -37 -89 -61q-23 -26 -24 -56h260z" />
    <glyph glyph-name="uni00B3" unicode="&#xb3;" horiz-adv-x="414" 
d="M356 527q21 -27 21 -71q0 -60 -47 -98q-49 -38 -124 -38q-84 0 -129.5 40.5t-45.5 114.5h80q0 -90 95 -90q40 0 65.5 20.5t25.5 52.5q0 79 -109 79h-17v63h17q47 0 74.5 20.5t27.5 54.5q0 33 -23.5 52t-63.5 19q-87 0 -87 -87h-80q0 72 45 112.5t124 40.5q77 0 121 -35
t44 -95q0 -76 -82 -109v-2q47 -17 68 -44z" />
    <glyph glyph-name="acute" unicode="&#xb4;" horiz-adv-x="299" 
d="M126 569h-76l86 143h113z" />
    <glyph glyph-name="uni00B5" unicode="&#xb5;" horiz-adv-x="583" 
d="M570 70v-67q-27 -9 -60 -9q-42 0 -64.5 19.5t-28.5 62.5h-2q-18 -38 -56 -60.5t-86 -22.5q-74 0 -107 42v-220h-88v693h88v-301q0 -76 28 -110t85 -34q58 0 95 42t37 113v290h88v-363q0 -45 10.5 -61.5t36.5 -16.5q12 0 24 3z" />
    <glyph glyph-name="paragraph" unicode="&#xb6;" horiz-adv-x="588" 
d="M92 363q-52 53 -52 147q0 92 52 147t140 55h334v-62h-80v-770h-66v770h-87v-770h-66v428h-35q-88 0 -140 55z" />
    <glyph glyph-name="periodcentered" unicode="&#xb7;" horiz-adv-x="226" 
d="M59 247v117h108v-117h-108z" />
    <glyph glyph-name="cedilla" unicode="&#xb8;" horiz-adv-x="315" 
d="M118 -100l-18 20l53 80h46l-40 -62q18 3 26 3q34 0 57 -21t23 -53q0 -38 -29 -62.5t-81 -24.5q-54 0 -105 27l18 37q36 -21 78 -21q56 0 56 41q0 19 -14.5 30.5t-38.5 11.5q-17 0 -31 -6z" />
    <glyph glyph-name="uni00B9" unicode="&#xb9;" horiz-adv-x="274" 
d="M11 722q60 0 88.5 18.5t35.5 61.5h67v-472h-79v332h-112v60z" />
    <glyph glyph-name="ordmasculine" unicode="&#xba;" horiz-adv-x="416" 
d="M78 646q48 50 130 50q83 0 131 -50.5t48 -137.5q0 -88 -48 -138t-131 -50q-82 0 -130 51q-49 49 -49 137t49 138zM110 508q0 -59 26 -93t72 -34q47 0 73.5 34t26.5 93t-26.5 93t-73.5 34q-46 0 -72 -34t-26 -93z" />
    <glyph glyph-name="guillemotright" unicode="&#xbb;" horiz-adv-x="464" 
d="M302 54h-83l112 200l-112 200h83l114 -200zM48 54l111 200l-111 200h82l114 -200l-114 -200h-82z" />
    <glyph glyph-name="onequarter" unicode="&#xbc;" horiz-adv-x="721" 
d="M711 95h-66v-95h-75v95h-195v66l171 243h99v-246h66v-63zM468 674h74l-385 -674h-73zM9 606q49 0 73.5 16t31.5 52h66v-404h-77v278h-94v58zM446 158h126v49q0 15 2 133h-2q-40 -63 -84 -123z" />
    <glyph glyph-name="onehalf" unicode="&#xbd;" horiz-adv-x="755" 
d="M683 216q-30 -32 -86 -62q-55 -29 -75 -48t-21 -43h223v-63h-304q-1 3 -1 16q0 66 24.5 104.5t99.5 79.5q51 28 73 48q20 18 20 49q0 24 -17 38.5t-47 14.5q-68 0 -70 -69h-77q1 62 40.5 97t106.5 35q65 0 103 -32t38 -84q0 -49 -30 -81zM468 674h74l-385 -674h-73z
M9 548v58q49 0 73.5 16t31.5 52h66v-404h-77v278h-94z" />
    <glyph glyph-name="threequarters" unicode="&#xbe;" horiz-adv-x="847" 
d="M501 161l171 243h99v-246h66v-63h-66v-95h-75v95h-195v66zM103 396q0 -72 78 -72q34 0 54.5 15.5t20.5 41.5q0 63 -92 63h-13v61h13q39 0 62.5 16t23.5 44q0 26 -19 40.5t-52 14.5q-73 0 -73 -68h-75q0 62 40 96.5t109 34.5q67 0 106 -30.5t39 -81.5q0 -64 -68 -92v-2
q40 -14 57.5 -37.5t17.5 -61.5q0 -53 -41.5 -85t-109.5 -32q-74 0 -114.5 35.5t-40.5 99.5h77zM667 674l-385 -674h-73l384 674h74zM572 158h126v49q0 15 2 133h-2q-40 -63 -84 -123z" />
    <glyph glyph-name="questiondown" unicode="&#xbf;" horiz-adv-x="483" 
d="M483 -9q-5 -102 -63 -156q-59 -53 -164 -53q-98 0 -157.5 49.5t-59.5 131.5q2 57 21 90.5t86 90.5q60 52 74 83t16 116h78q1 -7 1 -30q-2 -82 -19.5 -119t-82.5 -95q-51 -44 -65.5 -69.5t-14.5 -64.5q0 -47 33 -75t90 -28q128 0 136 129h91zM224 508h104v-106h-104v106z
" />
    <glyph glyph-name="Agrave" unicode="&#xc0;" horiz-adv-x="675" 
d="M572 0l-77 212h-314l-78 -212h-98l270 712h125l271 -712h-99zM465 293l-23 65q-49 135 -103 290h-2q-54 -155 -103 -290l-24 -65h255zM205 898h113l86 -138h-76z" />
    <glyph glyph-name="Aacute" unicode="&#xc1;" horiz-adv-x="675" 
d="M572 0l-77 212h-314l-78 -212h-98l270 712h125l271 -712h-99zM465 293l-23 65q-49 135 -103 290h-2q-54 -155 -103 -290l-24 -65h255zM357 898h113l-123 -138h-76z" />
    <glyph glyph-name="Acircumflex" unicode="&#xc2;" horiz-adv-x="675" 
d="M572 0l-77 212h-314l-78 -212h-98l270 712h125l271 -712h-99zM465 293l-23 65q-49 135 -103 290h-2q-54 -155 -103 -290l-24 -65h255zM289 898h97l114 -138h-89l-74 89l-73 -89h-89z" />
    <glyph glyph-name="Atilde" unicode="&#xc3;" horiz-adv-x="675" 
d="M572 0l-77 212h-314l-78 -212h-98l270 712h125l271 -712h-99zM465 293l-23 65q-49 135 -103 290h-2q-54 -155 -103 -290l-24 -65h255zM195 862q27 30 71 30q35 0 82 -29q40 -22 58 -22q40 0 46 51h58q-3 -55 -30 -85t-71 -30q-35 0 -82 29q-40 22 -58 22q-41 0 -46 -51
h-58q3 55 30 85z" />
    <glyph glyph-name="Adieresis" unicode="&#xc4;" horiz-adv-x="675" 
d="M572 0l-77 212h-314l-78 -212h-98l270 712h125l271 -712h-99zM465 293l-23 65q-49 135 -103 290h-2q-54 -155 -103 -290l-24 -65h255zM394 874h82v-99h-82v99zM199 775v99h82v-99h-82z" />
    <glyph glyph-name="Aring" unicode="&#xc5;" horiz-adv-x="675" 
d="M572 0l-77 212h-314l-78 -212h-98l270 712h125l271 -712h-99zM465 293l-23 65q-49 135 -103 290h-2q-54 -155 -103 -290l-24 -65h255zM267 924q29 29 70 29t72 -29q29 -31 29 -72t-29 -70q-30 -30 -72 -30q-41 0 -70 30q-30 28 -30 70t30 72zM280 852q0 -24 17 -40.5
t40 -16.5q25 0 41.5 16.5t16.5 40.5t-16.5 41t-41.5 17q-23 0 -40 -17t-17 -41z" />
    <glyph glyph-name="AE" unicode="&#xc6;" horiz-adv-x="937" 
d="M884 82v-82h-371l-34 224h-273l-107 -224h-105l349 712h530v-82h-364l34 -225h310v-81h-298l36 -242h293zM245 305h222l-49 329h-15z" />
    <glyph glyph-name="Ccedilla" unicode="&#xc7;" horiz-adv-x="689" 
d="M543 471q-7 78 -57 125q-50 46 -131 46q-101 0 -158 -76q-58 -76 -58 -210q0 -132 57 -209t156 -77q79 0 131 47t63 128h96q-11 -112 -79.5 -180.5t-179.5 -77.5l-32 -49q18 3 26 3q34 0 57 -21t23 -53q0 -38 -29 -62.5t-81 -24.5q-54 0 -105 27l18 37q36 -21 78 -21
q56 0 56 41q0 19 -14.5 30.5t-38.5 11.5q-17 0 -31 -6l-18 20l44 66q-136 6 -214.5 104.5t-78.5 265.5q0 172 83.5 271t228.5 99q125 0 201 -70.5t82 -184.5h-95z" />
    <glyph glyph-name="Egrave" unicode="&#xc8;" horiz-adv-x="618" 
d="M95 712h459v-82h-367v-225h346v-81h-346v-242h378v-82h-470v712zM305 898l86 -138h-76l-123 138h113z" />
    <glyph glyph-name="Eacute" unicode="&#xc9;" horiz-adv-x="618" 
d="M95 712h459v-82h-367v-225h346v-81h-346v-242h378v-82h-470v712zM343 898h113l-123 -138h-76z" />
    <glyph glyph-name="Ecircumflex" unicode="&#xca;" horiz-adv-x="618" 
d="M565 0h-470v712h459v-82h-367v-225h346v-81h-346v-242h378v-82zM276 898h97l114 -138h-89l-74 89l-73 -89h-89z" />
    <glyph glyph-name="Edieresis" unicode="&#xcb;" horiz-adv-x="618" 
d="M565 0h-470v712h459v-82h-367v-225h346v-81h-346v-242h378v-82zM463 874v-99h-82v99h82zM186 775v99h82v-99h-82z" />
    <glyph glyph-name="Igrave" unicode="&#xcc;" horiz-adv-x="282" 
d="M187 712v-712h-92v712h92zM9 898h113l86 -138h-76z" />
    <glyph glyph-name="Iacute" unicode="&#xcd;" horiz-adv-x="282" 
d="M187 712v-712h-92v712h92zM74 760l86 138h113l-123 -138h-76z" />
    <glyph glyph-name="Icircumflex" unicode="&#xce;" horiz-adv-x="282" 
d="M95 712h92v-712h-92v712zM-22 760l114 138h97l114 -138h-89l-74 89l-73 -89h-89z" />
    <glyph glyph-name="Idieresis" unicode="&#xcf;" horiz-adv-x="282" 
d="M187 712v-712h-92v712h92zM197 874h82v-99h-82v99zM84 874v-99h-82v99h82z" />
    <glyph glyph-name="Eth" unicode="&#xd0;" horiz-adv-x="723" 
d="M585 620q96 -93 96 -264t-96 -263.5t-273 -92.5h-217v325h-66v71h66v316h217q176 0 273 -92zM187 82h124q133 0 203 70t70 204t-70 204t-203 70h-124v-234h202v-71h-202v-243z" />
    <glyph glyph-name="Ntilde" unicode="&#xd1;" horiz-adv-x="755" 
d="M661 0h-136l-169 307q-92 166 -172 319h-2q3 -171 3 -341v-285h-90v712h135l170 -307q131 -241 172 -319h2q-3 171 -3 341v285h90v-712zM236 862q27 30 71 30q35 0 82 -29q40 -22 58 -22q40 0 46 51h58q-3 -55 -30 -85t-71 -30q-35 0 -82 29q-40 22 -58 22q-42 0 -46 -51
h-58q3 55 30 85z" />
    <glyph glyph-name="Ograve" unicode="&#xd2;" horiz-adv-x="732" 
d="M689 356q0 -170 -87.5 -270t-235.5 -100t-235.5 100t-87.5 270t87.5 270t235.5 100t235.5 -100t87.5 -270zM167 205q27 -65 78.5 -100t120.5 -35q104 0 165.5 77.5t61.5 208.5t-61.5 208.5t-165.5 77.5t-165.5 -77.5t-61.5 -208.5q0 -88 28 -151zM233 898h113l86 -138
h-76z" />
    <glyph glyph-name="Oacute" unicode="&#xd3;" horiz-adv-x="732" 
d="M650 160q-40 -84 -113 -129t-171 -45q-148 0 -235.5 100t-87.5 270t87.5 270t235.5 100t235.5 -100t87.5 -270q0 -114 -39 -196zM167 205q27 -65 78.5 -100t120.5 -35q104 0 165.5 77.5t61.5 208.5t-61.5 208.5t-165.5 77.5t-165.5 -77.5t-61.5 -208.5q0 -88 28 -151z
M385 898h113l-123 -138h-76z" />
    <glyph glyph-name="Ocircumflex" unicode="&#xd4;" horiz-adv-x="732" 
d="M689 356q0 -170 -87.5 -270t-235.5 -100t-235.5 100t-87.5 270t87.5 270t235.5 100t235.5 -100t87.5 -270zM139 356q0 -131 61.5 -208.5t165.5 -77.5t165.5 77.5t61.5 208.5t-61.5 208.5t-165.5 77.5t-165.5 -77.5t-61.5 -208.5zM317 898h97l114 -138h-89l-74 89l-73 -89
h-89z" />
    <glyph glyph-name="Otilde" unicode="&#xd5;" horiz-adv-x="732" 
d="M650 553q39 -84 39 -197q0 -170 -87.5 -270t-235.5 -100t-235.5 100t-87.5 270t87.5 270t235.5 100q98 0 171 -44.5t113 -128.5zM566 205q27 64 27 151q0 131 -61.5 208.5t-165.5 77.5t-165.5 -77.5t-61.5 -208.5t61.5 -208.5t165.5 -77.5q69 0 120.5 35t79.5 100z
M509 807q-27 -30 -71 -30q-35 0 -82 29q-40 22 -58 22q-42 0 -46 -51h-58q3 55 30 85t71 30q35 0 82 -29q40 -22 58 -22q40 0 46 51h58q-3 -55 -30 -85z" />
    <glyph glyph-name="Odieresis" unicode="&#xd6;" horiz-adv-x="732" 
d="M689 356q0 -170 -87.5 -270t-235.5 -100t-235.5 100t-87.5 270t87.5 270t235.5 100t235.5 -100t87.5 -270zM139 356q0 -131 61.5 -208.5t165.5 -77.5t165.5 77.5t61.5 208.5t-61.5 208.5t-165.5 77.5t-165.5 -77.5t-61.5 -208.5zM504 874v-99h-82v99h82zM227 775v99h82
v-99h-82z" />
    <glyph glyph-name="multiply" unicode="&#xd7;" horiz-adv-x="566" 
d="M91 63l-52 51l193 192l-193 193l52 51l192 -192l193 192l51 -51l-193 -193l193 -192l-51 -51l-193 192z" />
    <glyph glyph-name="Oslash" unicode="&#xd8;" horiz-adv-x="732" 
d="M668 505q21 -68 21 -149q0 -170 -87.5 -270t-235.5 -100q-115 0 -193 60l-60 -79l-51 39l64 85q-83 102 -83 265q0 170 87.5 270t235.5 100q115 0 194 -61l60 80l50 -39l-64 -85q39 -48 62 -116zM165 509q-28 -63 -28 -153q0 -116 46 -189l324 428q-59 50 -141 50
q-69 0 -121 -35.5t-80 -100.5zM226 117q59 -50 140 -50q105 0 167 78.5t62 210.5q0 116 -46 189z" />
    <glyph glyph-name="Ugrave" unicode="&#xd9;" horiz-adv-x="705" 
d="M617 267q0 -137 -68 -209t-196 -72q-129 0 -196.5 71.5t-67.5 209.5v445h92v-443q0 -97 44.5 -148t127.5 -51q82 0 126.5 51t44.5 148v443h93v-445zM333 898l86 -138h-76l-123 138h113z" />
    <glyph glyph-name="Uacute" unicode="&#xda;" horiz-adv-x="705" 
d="M617 267q0 -137 -68 -209t-196 -72q-129 0 -196.5 71.5t-67.5 209.5v445h92v-443q0 -97 44.5 -148t127.5 -51q82 0 126.5 51t44.5 148v443h93v-445zM372 898h113l-123 -138h-76z" />
    <glyph glyph-name="Ucircumflex" unicode="&#xdb;" horiz-adv-x="705" 
d="M617 267q0 -137 -68 -209t-196 -72q-129 0 -196.5 71.5t-67.5 209.5v445h92v-443q0 -97 44.5 -148t127.5 -51q82 0 126.5 51t44.5 148v443h93v-445zM304 898h97l114 -138h-89l-74 89l-73 -89h-89z" />
    <glyph glyph-name="Udieresis" unicode="&#xdc;" horiz-adv-x="705" 
d="M617 267q0 -137 -68 -209t-196 -72q-129 0 -196.5 71.5t-67.5 209.5v445h92v-443q0 -97 44.5 -148t127.5 -51q82 0 126.5 51t44.5 148v443h93v-445zM409 775v99h82v-99h-82zM296 874v-99h-82v99h82z" />
    <glyph glyph-name="Yacute" unicode="&#xdd;" horiz-adv-x="614" 
d="M198 565q47 -78 108 -188h2q61 110 108 188l88 147h106l-257 -417v-295h-92v295l-257 417h107zM326 898h113l-123 -138h-76z" />
    <glyph glyph-name="Thorn" unicode="&#xde;" horiz-adv-x="616" 
d="M524 525q64 -58 64 -157q0 -101 -65 -158t-184 -57h-152v-153h-92v712h92v-130h152q121 0 185 -57zM187 502v-269h145q79 0 120 35t41 100t-41 99.5t-120 34.5h-145z" />
    <glyph glyph-name="germandbls" unicode="&#xdf;" horiz-adv-x="557" 
d="M479 335q39 -49 39 -128q0 -100 -62 -156.5t-169 -56.5q-29 0 -51 6v75q20 -5 40 -5q71 0 110.5 37t39.5 105t-39.5 106.5t-109.5 38.5h-14v78q134 0 134 111q0 50 -30 78t-82 28q-119 0 -119 -148v-504h-88v510q0 103 54 159.5t152 56.5q90 0 146 -47q54 -47 54 -125
q0 -118 -115 -155v-2q70 -13 110 -62z" />
    <glyph glyph-name="agrave" unicode="&#xe0;" horiz-adv-x="531" 
d="M384 74h-2q-56 -85 -176 -85q-78 0 -125 42q-47 41 -47 107q0 67 44.5 105t148.5 55q78 13 147 17v20q0 119 -115 119q-53 0 -83.5 -27t-32.5 -74h-88q4 76 58 122.5t146 46.5q96 0 148 -50t52 -147v-195q0 -78 12 -130h-80q-7 29 -7 74zM152 81q27 -24 76 -24
q65 0 105 40q23 24 32 49.5t9 70.5v31q-83 -6 -133 -16q-64 -10 -90.5 -30t-26.5 -58q0 -41 28 -63zM233 712l86 -143h-76l-123 143h113z" />
    <glyph glyph-name="aacute" unicode="&#xe1;" horiz-adv-x="531" 
d="M384 74h-2q-56 -85 -176 -85q-78 0 -125 42q-47 41 -47 107q0 67 44.5 105t148.5 55q78 13 147 17v20q0 119 -115 119q-53 0 -83.5 -27t-32.5 -74h-88q4 76 58 122.5t146 46.5q96 0 148 -50t52 -147v-195q0 -78 12 -130h-80q-7 29 -7 74zM124 144q0 -40 28 -63.5
t76 -23.5q65 0 105 40q23 24 32 49.5t9 70.5v31q-83 -6 -133 -16q-64 -10 -90.5 -30t-26.5 -58zM272 712h113l-123 -143h-76z" />
    <glyph glyph-name="acircumflex" unicode="&#xe2;" horiz-adv-x="531" 
d="M374 335q0 119 -115 119q-53 0 -83.5 -27t-32.5 -74h-88q4 76 58 122.5t146 46.5q96 0 148 -50t52 -147v-195q0 -78 12 -130h-80q-7 29 -7 74h-2q-56 -85 -176 -85q-78 0 -125 42q-47 41 -47 107q0 67 44.5 105t148.5 55q78 13 147 17v20zM152 81q27 -24 76 -24
q65 0 105 40q23 24 32 49.5t9 70.5v31q-83 -6 -133 -16q-64 -10 -90.5 -30t-26.5 -58q0 -41 28 -63zM90 569l114 143h97l114 -143h-89l-73 93l-74 -93h-89z" />
    <glyph glyph-name="atilde" unicode="&#xe3;" horiz-adv-x="531" 
d="M311 11q-43 -22 -105 -22q-78 0 -125 42q-47 41 -47 107q0 67 44.5 105t148.5 55q78 13 147 17v20q0 119 -115 119q-53 0 -83.5 -27t-32.5 -74h-88q4 76 58 122.5t146 46.5q96 0 148 -50t52 -147v-195q0 -78 12 -130h-80q-7 29 -7 74h-2q-27 -40 -71 -63zM365 147
q9 25 9 70v31q-83 -6 -133 -16q-64 -10 -90.5 -30t-26.5 -58q0 -40 28 -63.5t76 -23.5q65 0 105 40q23 25 32 50zM368 706h58q-3 -55 -30 -85t-71 -30q-35 0 -82 29q-40 22 -58 22q-41 0 -46 -51h-58q3 55 30 85t71 30q35 0 82 -29q40 -22 58 -22q40 0 46 51z" />
    <glyph glyph-name="adieresis" unicode="&#xe4;" horiz-adv-x="531" 
d="M374 335q0 119 -115 119q-53 0 -83.5 -27t-32.5 -74h-88q4 76 58 122.5t146 46.5q96 0 148 -50t52 -147v-195q0 -78 12 -130h-80q-7 29 -7 74h-2q-56 -85 -176 -85q-78 0 -125 42q-47 41 -47 107q0 67 44.5 105t148.5 55q78 13 147 17v20zM152 81q27 -24 76 -24
q65 0 105 40q23 24 32 49.5t9 70.5v31q-83 -6 -133 -16q-64 -10 -90.5 -30t-26.5 -58q0 -41 28 -63zM114 712h82v-99h-82v99zM391 613h-82v99h82v-99z" />
    <glyph glyph-name="aring" unicode="&#xe5;" horiz-adv-x="531" 
d="M311 11q-43 -22 -105 -22q-78 0 -125 42q-47 41 -47 107q0 67 44.5 105t148.5 55q78 13 147 17v20q0 119 -115 119q-53 0 -83.5 -27t-32.5 -74h-88q4 76 58 122.5t146 46.5q96 0 148 -50t52 -147v-195q0 -78 12 -130h-80q-7 29 -7 74h-2q-27 -40 -71 -63zM365 147
q9 25 9 70v31q-83 -6 -133 -16q-64 -10 -90.5 -30t-26.5 -58q0 -40 28 -63.5t76 -23.5q65 0 105 40q23 25 32 50zM324 595q-30 -30 -72 -30t-70 30q-30 29 -30 71q0 41 30 71q29 29 70 29t72 -29q29 -31 29 -71q0 -42 -29 -71zM310 666q0 24 -16.5 41t-41.5 17
q-23 0 -40 -17t-17 -41t17 -41t40 -17q25 0 41.5 16.5t16.5 41.5z" />
    <glyph glyph-name="ae" unicode="&#xe6;" horiz-adv-x="862" 
d="M600 -14q-127 0 -185 108q-28 -52 -80 -80t-120 -28q-82 0 -131 43q-50 42 -50 110q0 80 56 120.5t178 40.5h110v35q0 119 -117 119q-53 0 -84 -27t-34 -74h-88q5 77 59.5 123t146.5 46q123 0 168 -82q58 82 168 82q81 0 138 -48t76 -130q10 -41 10 -111h-364
q4 -87 42.5 -133t100.5 -46q50 0 83.5 26.5t42.5 71.5h90q-14 -72 -69 -118q-57 -48 -147 -48zM159 211q-35 -23 -35 -69q0 -40 28 -64t78 -24q70 0 106 41q24 24 33 50.5t9 71.5v16h-100q-85 0 -119 -22zM597 454q-59 0 -96 -40t-43 -114h276q-4 73 -41 113.5t-96 40.5z
" />
    <glyph glyph-name="ccedilla" unicode="&#xe7;" horiz-adv-x="534" 
d="M388 498q48 -26 76 -69t33 -101h-92q-5 54 -40 88t-86 34q-67 0 -106 -52.5t-39 -143.5t38.5 -143.5t106.5 -52.5q51 0 86 36t40 93h92q-8 -81 -56 -134q-48 -54 -128 -65l-32 -50q18 3 26 3q34 0 57 -21t23 -53q0 -38 -29 -62.5t-81 -24.5q-54 0 -105 27l18 37
q36 -21 78 -21q56 0 56 41q0 19 -14.5 30.5t-38.5 11.5q-17 0 -31 -6l-18 20l44 66q-104 5 -164 77q-61 70 -61 191q0 124 64.5 196t174.5 72q60 0 108 -24z" />
    <glyph glyph-name="egrave" unicode="&#xe8;" horiz-adv-x="550" 
d="M509 236h-380q3 -88 43.5 -135t107.5 -47q53 0 89 26.5t45 71.5h90q-14 -72 -72 -118q-58 -48 -152 -48q-111 0 -175 75t-64 200q0 115 64.5 188t171.5 73q85 0 143.5 -47t78.5 -130q10 -39 10 -109zM422 303q-7 72 -45.5 111.5t-99.5 39.5q-63 0 -101.5 -39.5
t-45.5 -111.5h292zM255 712l86 -143h-76l-123 143h113z" />
    <glyph glyph-name="eacute" unicode="&#xe9;" horiz-adv-x="550" 
d="M509 236h-380q3 -88 43.5 -135t107.5 -47q53 0 89 26.5t45 71.5h90q-14 -72 -72 -118q-58 -48 -152 -48q-111 0 -175 75t-64 200q0 115 64.5 188t171.5 73q85 0 143.5 -47t78.5 -130q10 -39 10 -109zM130 303h292q-7 72 -45.5 111.5t-99.5 39.5q-63 0 -101.5 -39.5
t-45.5 -111.5zM294 712h113l-123 -143h-76z" />
    <glyph glyph-name="ecircumflex" unicode="&#xea;" horiz-adv-x="550" 
d="M509 236h-380q3 -88 43.5 -135t107.5 -47q53 0 89 26.5t45 71.5h90q-14 -72 -72 -118q-58 -48 -152 -48q-111 0 -175 75t-64 200q0 115 64.5 188t171.5 73q85 0 143.5 -47t78.5 -130q10 -39 10 -109zM422 303q-7 72 -45.5 111.5t-99.5 39.5q-63 0 -101.5 -39.5
t-45.5 -111.5h292zM112 569l114 143h97l114 -143h-89l-73 93l-74 -93h-89z" />
    <glyph glyph-name="edieresis" unicode="&#xeb;" horiz-adv-x="550" 
d="M509 236h-380q3 -88 43.5 -135t107.5 -47q53 0 89 26.5t45 71.5h90q-14 -72 -72 -118q-58 -48 -152 -48q-111 0 -175 75t-64 200q0 115 64.5 188t171.5 73q85 0 143.5 -47t78.5 -130q10 -39 10 -109zM422 303q-7 72 -45.5 111.5t-99.5 39.5q-63 0 -101.5 -39.5
t-45.5 -111.5h292zM331 613v99h82v-99h-82zM136 712h82v-99h-82v99z" />
    <glyph glyph-name="igrave" unicode="&#xec;" horiz-adv-x="244" 
d="M166 508v-508h-88v508h88zM-10 712h113l86 -143h-76z" />
    <glyph glyph-name="iacute" unicode="&#xed;" horiz-adv-x="244" 
d="M166 508v-508h-88v508h88zM56 569l86 143h113l-123 -143h-76z" />
    <glyph glyph-name="icircumflex" unicode="&#xee;" horiz-adv-x="244" 
d="M78 508h88v-508h-88v508zM74 712h96l100 -142h-85l-63 93l-62 -93h-86z" />
    <glyph glyph-name="idieresis" unicode="&#xef;" horiz-adv-x="244" 
d="M78 508h88v-508h-88v508zM4 712h82v-99h-82v99zM158 712h81v-99h-81v99z" />
    <glyph glyph-name="eth" unicode="&#xf0;" horiz-adv-x="566" 
d="M500 400q24 -68 24 -144q0 -126 -64 -197q-64 -73 -177 -73q-112 0 -177 71t-65 192q0 122 61 192q60 70 164 70q60 0 104 -35v2q-43 57 -110 117l-134 -60l-21 49l109 49q-42 32 -70 51l65 42q48 -32 80 -59l123 55l22 -49l-100 -45q57 -51 90 -94q51 -67 76 -134z
M133 253q0 -91 40 -143t109 -52q70 0 110 52t40 143q0 90 -40 142t-110 52q-69 0 -109 -52t-40 -142z" />
    <glyph glyph-name="ntilde" unicode="&#xf1;" 
d="M503 310v-310h-88v303q0 75 -29.5 109.5t-87.5 34.5t-95 -41.5t-37 -114.5v-291h-88v508h85v-67h2q52 78 154 78q88 0 136 -53.5t48 -155.5zM118 591q3 55 30 85t71 30q35 0 82 -29q40 -22 58 -22q40 0 46 51h58q-3 -55 -30 -85t-71 -30q-35 0 -82 29q-40 22 -58 22
q-42 0 -46 -51h-58z" />
    <glyph glyph-name="ograve" unicode="&#xf2;" horiz-adv-x="565" 
d="M459 58q-65 -72 -177 -72t-176 72q-65 73 -65 196t65 196q64 72 176 72t177 -72q65 -73 65 -196t-65 -196zM133 254q0 -91 40 -143.5t109 -52.5q70 0 110 52.5t40 143.5t-40 143.5t-110 52.5q-69 0 -109 -52.5t-40 -143.5zM150 712h113l86 -143h-76z" />
    <glyph glyph-name="oacute" unicode="&#xf3;" horiz-adv-x="565" 
d="M459 58q-65 -72 -177 -72t-176 72q-65 73 -65 196t65 196q64 72 176 72t177 -72q65 -73 65 -196t-65 -196zM173 111q41 -53 109 -53q70 0 110 52.5t40 143.5t-40 143.5t-110 52.5q-69 0 -109 -52.5t-40 -143.5t40 -143zM302 712h113l-123 -143h-76z" />
    <glyph glyph-name="ocircumflex" unicode="&#xf4;" horiz-adv-x="565" 
d="M459 58q-65 -72 -177 -72t-176 72q-65 73 -65 196t65 196q64 72 176 72t177 -72q65 -73 65 -196t-65 -196zM133 254q0 -91 40 -143.5t109 -52.5q70 0 110 52.5t40 143.5t-40 143.5t-110 52.5q-69 0 -109 -52.5t-40 -143.5zM120 569l114 143h97l114 -143h-89l-73 93
l-74 -93h-89z" />
    <glyph glyph-name="otilde" unicode="&#xf5;" horiz-adv-x="565" 
d="M459 58q-65 -72 -177 -72t-176 72q-65 73 -65 196t65 196q64 72 176 72t177 -72q65 -73 65 -196t-65 -196zM133 254q0 -91 40 -143.5t109 -52.5q70 0 110 52.5t40 143.5t-40 143.5t-110 52.5q-69 0 -109 -52.5t-40 -143.5zM140 676q27 30 71 30q35 0 82 -29
q40 -22 58 -22q40 0 46 51h58q-3 -55 -30 -85t-71 -30q-35 0 -82 29q-40 22 -58 22q-42 0 -46 -51h-58q3 55 30 85z" />
    <glyph glyph-name="odieresis" unicode="&#xf6;" horiz-adv-x="565" 
d="M524 254q0 -123 -65 -196q-65 -72 -177 -72t-176 72q-65 73 -65 196t65 196q64 72 176 72t177 -72q65 -73 65 -196zM133 254q0 -91 40 -143.5t109 -52.5q70 0 110 52.5t40 143.5t-40 143.5t-110 52.5q-69 0 -109 -52.5t-40 -143.5zM339 613v99h82v-99h-82zM144 613v99h82
v-99h-82z" />
    <glyph glyph-name="divide" unicode="&#xf7;" horiz-adv-x="566" 
d="M71 280v73h424v-73h-424zM324 108h-82v85h82v-85zM242 526h82v-85h-82v85z" />
    <glyph glyph-name="oslash" unicode="&#xf8;" horiz-adv-x="566" 
d="M509 362q15 -50 15 -108q0 -123 -65 -196q-65 -72 -177 -72q-82 0 -138 38l-51 -66l-43 33l53 70q-62 71 -62 193q0 123 65 196q64 72 176 72q80 0 139 -39l52 68l43 -35l-53 -70q29 -34 46 -84zM408 376l-217 -289q37 -31 91 -31q71 0 112 53t41 145q0 71 -27 122z
M171 399q-41 -53 -41 -145q0 -72 26 -122l218 288q-38 32 -92 32q-70 0 -111 -53z" />
    <glyph glyph-name="ugrave" unicode="&#xf9;" 
d="M498 0h-85v67h-2q-52 -78 -155 -78q-88 0 -135.5 53.5t-47.5 155.5v310h88v-303q0 -75 29.5 -109.5t87.5 -34.5t95 42.5t37 113.5v291h88v-508zM269 712l86 -143h-76l-123 143h113z" />
    <glyph glyph-name="uacute" unicode="&#xfa;" 
d="M498 0h-85v67h-2q-52 -78 -155 -78q-88 0 -135.5 53.5t-47.5 155.5v310h88v-303q0 -75 29.5 -109.5t87.5 -34.5t95 42.5t37 113.5v291h88v-508zM307 712h113l-123 -143h-76z" />
    <glyph glyph-name="ucircumflex" unicode="&#xfb;" 
d="M498 0h-85v67h-2q-52 -78 -155 -78q-88 0 -135.5 53.5t-47.5 155.5v310h88v-303q0 -75 29.5 -109.5t87.5 -34.5t95 42.5t37 113.5v291h88v-508zM125 569l114 143h97l114 -143h-89l-73 93l-74 -93h-89z" />
    <glyph glyph-name="udieresis" unicode="&#xfc;" 
d="M498 0h-85v67h-2q-52 -78 -155 -78q-88 0 -135.5 53.5t-47.5 155.5v310h88v-303q0 -75 29.5 -109.5t87.5 -34.5t95 42.5t37 113.5v291h88v-508zM344 712h82v-99h-82v99zM149 613v99h82v-99h-82z" />
    <glyph glyph-name="yacute" unicode="&#xfd;" horiz-adv-x="472" 
d="M478 508l-204 -531q-38 -98 -81 -131t-128 -35q-28 0 -46 5v74q18 -6 42 -6q51 0 76 23t50 91l-193 510h95l146 -404h2l148 404h93zM256 712h113l-123 -143h-76z" />
    <glyph glyph-name="thorn" unicode="&#xfe;" 
d="M535 255q0 -79 -26 -140t-74.5 -94t-111.5 -33q-51 0 -92.5 22.5t-62.5 61.5h-2v-257h-88v897h88v-274h2q21 38 62 60.5t92 22.5q97 0 155 -72.5t58 -193.5zM162 255q0 -90 37.5 -143t100.5 -53q65 0 104 53.5t39 142.5t-39 142t-104 53q-63 0 -100.5 -52.5t-37.5 -142.5
z" />
    <glyph glyph-name="ydieresis" unicode="&#xff;" horiz-adv-x="472" 
d="M478 508l-204 -531q-38 -98 -81 -131t-128 -35q-28 0 -46 5v74q18 -6 42 -6q51 0 76 23t50 91l-193 510h95l146 -404h2l148 404h93zM375 712v-99h-82v99h82zM180 712v-99h-82v99h82z" />
    <glyph glyph-name="Amacron" unicode="&#x100;" horiz-adv-x="675" 
d="M572 0l-77 212h-314l-78 -212h-98l270 712h125l271 -712h-99zM465 293l-23 65q-49 135 -103 290h-2q-54 -155 -103 -290l-24 -65h255zM479 853v-65h-284v65h284z" />
    <glyph glyph-name="amacron" unicode="&#x101;" horiz-adv-x="531" 
d="M391 0q-7 29 -7 74h-2q-56 -85 -176 -85q-78 0 -125 42q-47 41 -47 107q0 67 44.5 105t148.5 55q78 13 147 17v20q0 119 -115 119q-53 0 -83.5 -27t-32.5 -74h-88q4 76 58 122.5t146 46.5q96 0 148 -50t52 -147v-195q0 -78 12 -130h-80zM124 144q0 -40 28 -63.5t76 -23.5
q65 0 105 40q23 24 32 49.5t9 70.5v31q-83 -6 -133 -16q-64 -10 -90.5 -30t-26.5 -58zM111 616v64h284v-64h-284z" />
    <glyph glyph-name="Abreve" unicode="&#x102;" horiz-adv-x="675" 
d="M572 0l-77 212h-314l-78 -212h-98l270 712h125l271 -712h-99zM210 293h255l-23 65q-49 135 -103 290h-2q-54 -155 -103 -290zM248 898q4 -38 27.5 -59t62.5 -21q79 0 90 80h65q-5 -68 -45.5 -105t-109.5 -37q-70 0 -110.5 37t-45.5 105h66z" />
    <glyph glyph-name="abreve" unicode="&#x103;" horiz-adv-x="531" 
d="M374 335q0 119 -115 119q-53 0 -83.5 -27t-32.5 -74h-88q4 76 58 122.5t146 46.5q96 0 148 -50t52 -147v-195q0 -78 12 -130h-80q-7 29 -7 74h-2q-56 -85 -176 -85q-78 0 -125 42q-47 41 -47 107q0 67 44.5 105t148.5 55q78 13 147 17v20zM374 217v31q-83 -6 -133 -16
q-64 -10 -90.5 -30t-26.5 -58q0 -40 28 -63.5t76 -23.5q65 0 105 40q23 24 32 49.5t9 70.5zM363 607q-41 -38 -110 -38t-110 37.5t-46 105.5h66q4 -39 27.5 -60t62.5 -21q79 0 90 81h65q-4 -68 -45 -105z" />
    <glyph glyph-name="Aogonek" unicode="&#x104;" horiz-adv-x="675" 
d="M674 -131v-53q-24 -10 -59 -10q-99 0 -99 80q0 59 78 114h-22l-77 212h-314l-78 -212h-98l270 712h125l271 -712q-76 -56 -76 -102q0 -36 40 -36q24 0 39 7zM210 293h255l-23 65q-49 135 -103 290h-2q-54 -155 -103 -290z" />
    <glyph glyph-name="aogonek" unicode="&#x105;" horiz-adv-x="531" 
d="M394 0h-3q-7 29 -7 74h-2q-56 -85 -176 -85q-78 0 -125 42q-47 41 -47 107q0 67 44.5 105t148.5 55q78 13 147 17v20q0 119 -115 119q-53 0 -83.5 -27t-32.5 -74h-88q4 76 58 122.5t146 46.5q96 0 148 -50t52 -147v-195q0 -78 12 -130q-76 -56 -76 -102q0 -36 40 -36
q24 0 39 7v-53q-24 -10 -59 -10q-99 0 -99 80q0 59 78 114zM151 202q-27 -20 -27 -58q0 -40 28 -63.5t76 -23.5q65 0 105 40q23 24 32 49.5t9 70.5v31q-83 -6 -133 -16q-65 -10 -90 -30z" />
    <glyph glyph-name="Cacute" unicode="&#x106;" horiz-adv-x="689" 
d="M638 471h-95q-7 79 -57.5 125t-130.5 46q-101 0 -158 -76q-58 -76 -58 -210q0 -132 57 -209t156 -77q79 0 131 47t63 128h96q-10 -119 -88 -189q-76 -70 -202 -70q-143 0 -226 99.5t-83 270.5q0 172 83.5 271t228.5 99q125 0 201 -70.5t82 -184.5zM374 898h113l-123 -138
h-76z" />
    <glyph glyph-name="cacute" unicode="&#x107;" horiz-adv-x="534" 
d="M464 84q-28 -46 -76 -72t-108 -26q-110 0 -174.5 72t-64.5 196t64.5 196t174.5 72q90 0 149.5 -54t67.5 -140h-92q-5 54 -40 88t-86 34q-67 0 -106 -52.5t-39 -143.5t38.5 -143.5t106.5 -52.5q51 0 86 36t40 93h92q-4 -58 -33 -103zM299 712h113l-123 -143h-76z" />
    <glyph glyph-name="Ccircumflex" unicode="&#x108;" horiz-adv-x="689" 
d="M638 471h-95q-7 79 -57.5 125t-130.5 46q-101 0 -158 -76q-58 -76 -58 -210q0 -132 57 -209t156 -77q79 0 131 47t63 128h96q-10 -119 -88 -189q-76 -70 -202 -70q-143 0 -226 99.5t-83 270.5q0 172 83.5 271t228.5 99q125 0 201 -70.5t82 -184.5zM306 898h97l114 -138
h-89l-74 89l-73 -89h-89z" />
    <glyph glyph-name="ccircumflex" unicode="&#x109;" horiz-adv-x="534" 
d="M464 84q-28 -46 -76 -72t-108 -26q-110 0 -174.5 72t-64.5 196t64.5 196t174.5 72q90 0 149.5 -54t67.5 -140h-92q-5 54 -40 88t-86 34q-67 0 -106 -52.5t-39 -143.5t38.5 -143.5t106.5 -52.5q51 0 86 36t40 93h92q-4 -58 -33 -103zM117 569l114 143h97l114 -143h-89
l-73 93l-74 -93h-89z" />
    <glyph glyph-name="Cdotaccent" unicode="&#x10a;" horiz-adv-x="689" 
d="M638 471h-95q-7 79 -57.5 125t-130.5 46q-101 0 -158 -76q-58 -76 -58 -210q0 -132 57 -209t156 -77q79 0 131 47t63 128h96q-10 -119 -88 -189q-76 -70 -202 -70q-143 0 -226 99.5t-83 270.5q0 172 83.5 271t228.5 99q125 0 201 -70.5t82 -184.5zM399 868v-99h-88v99h88
z" />
    <glyph glyph-name="cdotaccent" unicode="&#x10b;" horiz-adv-x="534" 
d="M464 84q-28 -46 -76 -72t-108 -26q-110 0 -174.5 72t-64.5 196t64.5 196t174.5 72q90 0 149.5 -54t67.5 -140h-92q-5 54 -40 88t-86 34q-67 0 -106 -52.5t-39 -143.5t38.5 -143.5t106.5 -52.5q51 0 86 36t40 93h92q-4 -58 -33 -103zM235 712h88v-99h-88v99z" />
    <glyph glyph-name="Ccaron" unicode="&#x10c;" horiz-adv-x="689" 
d="M638 471h-95q-7 79 -57.5 125t-130.5 46q-101 0 -158 -76q-58 -76 -58 -210q0 -132 57 -209t156 -77q79 0 131 47t63 128h96q-10 -119 -88 -189q-76 -70 -202 -70q-143 0 -226 99.5t-83 270.5q0 172 83.5 271t228.5 99q125 0 201 -70.5t82 -184.5zM281 898l74 -88l73 88
h89l-114 -138h-97l-114 138h89z" />
    <glyph glyph-name="ccaron" unicode="&#x10d;" horiz-adv-x="534" 
d="M464 84q-28 -46 -76 -72t-108 -26q-110 0 -174.5 72t-64.5 196t64.5 196t174.5 72q90 0 149.5 -54t67.5 -140h-92q-5 54 -40 88t-86 34q-67 0 -106 -52.5t-39 -143.5t38.5 -143.5t106.5 -52.5q51 0 86 36t40 93h92q-4 -58 -33 -103zM117 712h89l74 -93l73 93h89
l-114 -143h-97z" />
    <glyph glyph-name="Dcaron" unicode="&#x10e;" horiz-adv-x="723" 
d="M681 356q0 -171 -96 -263.5t-273 -92.5h-217v712h217q177 0 273 -92.5t96 -263.5zM311 82q133 0 203 70t70 204t-70 204t-203 70h-124v-548h124zM255 898l74 -88l73 88h89l-114 -138h-97l-114 138h89z" />
    <glyph glyph-name="dcaron" unicode="&#x10f;" 
d="M67 396q55 125 186 125q51 0 92.5 -22.5t62.5 -60.5h2v274h88v-712h-86v74h-2q-21 -40 -62.5 -63t-93.5 -23q-97 0 -155 73t-58 194q0 78 26 141zM172 113q39 -54 104 -54q63 0 101 53t38 143t-38 142.5t-101 52.5q-65 0 -104 -53t-39 -142t39 -142zM586 536h-54l29 176
h80z" />
    <glyph glyph-name="Dcroat" unicode="&#x110;" horiz-adv-x="723" 
d="M681 356q0 -171 -96 -263.5t-273 -92.5h-217v325h-66v71h66v316h217q177 0 273 -92.5t96 -263.5zM187 396h202v-71h-202v-243h124q133 0 203 70t70 204t-70 204t-203 70h-124v-234z" />
    <glyph glyph-name="dcroat" unicode="&#x111;" horiz-adv-x="570" 
d="M498 635h65v-55h-65v-580h-86v74h-2q-21 -40 -62.5 -63t-93.5 -23q-97 0 -155 73t-58 194t57.5 193.5t154.5 72.5q51 0 92.5 -22.5t62.5 -60.5h2v142h-131v55h131v77h88v-77zM172 397q-39 -53 -39 -142t39 -142q39 -54 104 -54q63 0 101 53t38 143t-38 142.5t-101 52.5
q-65 0 -104 -53z" />
    <glyph glyph-name="Emacron" unicode="&#x112;" horiz-adv-x="618" 
d="M95 712h459v-82h-367v-225h346v-81h-346v-242h378v-82h-470v712zM182 853h284v-65h-284v65z" />
    <glyph glyph-name="emacron" unicode="&#x113;" horiz-adv-x="550" 
d="M509 236h-380q3 -88 43.5 -135t107.5 -47q53 0 89 26.5t45 71.5h90q-14 -72 -72 -118q-58 -48 -152 -48q-111 0 -175 75t-64 200q0 115 64.5 188t171.5 73q85 0 143.5 -47t78.5 -130q10 -39 10 -109zM130 303h292q-7 72 -45.5 111.5t-99.5 39.5q-63 0 -101.5 -39.5
t-45.5 -111.5zM416 680v-64h-284v64h284z" />
    <glyph glyph-name="Ebreve" unicode="&#x114;" horiz-adv-x="618" 
d="M565 0h-470v712h459v-82h-367v-225h346v-81h-346v-242h378v-82zM235 898q4 -38 27.5 -59t62.5 -21q79 0 90 80h65q-5 -68 -45.5 -105t-109.5 -37q-70 0 -110.5 37t-45.5 105h66z" />
    <glyph glyph-name="ebreve" unicode="&#x115;" horiz-adv-x="550" 
d="M509 236h-380q3 -88 43.5 -135t107.5 -47q53 0 89 26.5t45 71.5h90q-14 -72 -72 -118q-58 -48 -152 -48q-111 0 -175 75t-64 200q0 115 64.5 188t171.5 73q85 0 143.5 -47t78.5 -130q10 -39 10 -109zM130 303h292q-7 72 -45.5 111.5t-99.5 39.5q-63 0 -101.5 -39.5
t-45.5 -111.5zM185 712q4 -39 27.5 -60t62.5 -21q79 0 90 81h65q-5 -68 -45.5 -105.5t-109.5 -37.5t-110 37.5t-46 105.5h66z" />
    <glyph glyph-name="Edotaccent" unicode="&#x116;" horiz-adv-x="618" 
d="M95 712h459v-82h-367v-225h346v-81h-346v-242h378v-82h-470v712zM368 868v-99h-88v99h88z" />
    <glyph glyph-name="edotaccent" unicode="&#x117;" horiz-adv-x="550" 
d="M509 236h-380q3 -88 43.5 -135t107.5 -47q53 0 89 26.5t45 71.5h90q-14 -72 -72 -118q-58 -48 -152 -48q-111 0 -175 75t-64 200q0 115 64.5 188t171.5 73q85 0 143.5 -47t78.5 -130q10 -39 10 -109zM422 303q-7 72 -45.5 111.5t-99.5 39.5q-63 0 -101.5 -39.5
t-45.5 -111.5h292zM318 712v-99h-88v99h88z" />
    <glyph glyph-name="Eogonek" unicode="&#x118;" horiz-adv-x="618" 
d="M568 -131v-53q-24 -10 -59 -10q-99 0 -99 80q0 59 78 114h-393v712h459v-82h-367v-225h346v-81h-346v-242h378v-82q-76 -56 -76 -102q0 -36 40 -36q24 0 39 7z" />
    <glyph glyph-name="eogonek" unicode="&#x119;" horiz-adv-x="550" 
d="M479 85q-19 -31 -52 -61q-45 -39 -62.5 -66.5t-17.5 -55.5q0 -40 41 -40q24 0 39 7v-53q-24 -10 -59 -10q-99 0 -99 80q0 54 53 102v2q-23 -4 -42 -4q-111 0 -175 75t-64 200q0 115 64.5 188t171.5 73q85 0 143.5 -47t78.5 -130q10 -39 10 -109h-380q3 -88 43.5 -135
t107.5 -47q53 0 89 26.5t45 71.5h90q-8 -38 -25 -67zM130 303h292q-7 72 -45.5 111.5t-99.5 39.5q-63 0 -101.5 -39.5t-45.5 -111.5z" />
    <glyph glyph-name="Ecaron" unicode="&#x11a;" horiz-adv-x="618" 
d="M565 0h-470v712h459v-82h-367v-225h346v-81h-346v-242h378v-82zM251 898l74 -88l73 88h89l-114 -138h-97l-114 138h89z" />
    <glyph glyph-name="ecaron" unicode="&#x11b;" horiz-adv-x="550" 
d="M509 236h-380q3 -88 43.5 -135t107.5 -47q53 0 89 26.5t45 71.5h90q-14 -72 -72 -118q-58 -48 -152 -48q-111 0 -175 75t-64 200q0 115 64.5 188t171.5 73q85 0 143.5 -47t78.5 -130q10 -39 10 -109zM422 303q-7 72 -45.5 111.5t-99.5 39.5q-63 0 -101.5 -39.5
t-45.5 -111.5h292zM201 712l74 -93l73 93h89l-114 -143h-97l-114 143h89z" />
    <glyph glyph-name="Gcircumflex" unicode="&#x11c;" horiz-adv-x="731" 
d="M566 0v98h-2q-29 -51 -89 -81t-135 -30q-137 0 -217 98.5t-80 268.5q0 172 86.5 272t235.5 100q122 0 198 -61q74 -61 85 -167h-98q-12 69 -60 106.5t-125 37.5q-105 0 -165 -77q-61 -76 -61 -211q0 -134 59 -211t160 -77q95 0 148 58t54 175h-196v79h284v-378h-82z
M311 898h97l114 -138h-89l-74 89l-73 -89h-89z" />
    <glyph glyph-name="gcircumflex" unicode="&#x11d;" horiz-adv-x="573" 
d="M410 434v74h85v-477q0 -111 -56.5 -167.5t-165.5 -56.5q-96 0 -152 43t-58 118h88q2 -44 34.5 -68.5t88.5 -24.5q69 0 102 38.5t33 121.5v55h-2q-55 -85 -151 -85q-97 0 -156 71t-59 187q0 118 58.5 188t156.5 70q100 0 152 -87h2zM133 263q0 -83 37.5 -133.5t99.5 -50.5
q66 0 104 49.5t38 134.5q0 86 -38 135.5t-104 49.5q-62 0 -99.5 -50.5t-37.5 -134.5zM226 712h97l114 -143h-89l-73 93l-74 -93h-89z" />
    <glyph glyph-name="Gbreve" unicode="&#x11e;" horiz-adv-x="731" 
d="M648 498h-98q-12 69 -60 106.5t-125 37.5q-105 0 -165 -77q-61 -76 -61 -211q0 -134 59 -211t160 -77q95 0 148 58t54 175h-196v79h284v-378h-82v98h-2q-29 -51 -89 -81t-135 -30q-137 0 -217 98.5t-80 268.5q0 172 86.5 272t235.5 100q122 0 198 -61q74 -61 85 -167z
M204 898h66q4 -38 27.5 -59t62.5 -21q79 0 90 80h65q-5 -68 -45.5 -105t-109.5 -37q-70 0 -110.5 37t-45.5 105z" />
    <glyph glyph-name="gbreve" unicode="&#x11f;" horiz-adv-x="573" 
d="M409 35v55h-2q-55 -85 -151 -85q-97 0 -156 71t-59 187q0 118 58.5 188t156.5 70q100 0 152 -87h2v74h85v-477q0 -111 -56.5 -167.5t-165.5 -56.5q-96 0 -152 43t-58 118h88q2 -44 34.5 -68.5t88.5 -24.5q69 0 102 38.5t33 121.5zM133 263q0 -83 37.5 -133.5t99.5 -50.5
q66 0 104 49.5t38 134.5q0 86 -38 135.5t-104 49.5q-62 0 -99.5 -50.5t-37.5 -134.5zM385 607q-41 -38 -110 -38t-110 37.5t-46 105.5h66q4 -39 27.5 -60t62.5 -21q79 0 90 81h65q-4 -68 -45 -105z" />
    <glyph glyph-name="Gdotaccent" unicode="&#x120;" horiz-adv-x="731" 
d="M648 0h-82v98h-2q-29 -51 -89 -81t-135 -30q-137 0 -217 98.5t-80 268.5q0 172 86.5 272t235.5 100q122 0 198 -61q74 -61 85 -167h-98q-12 69 -60 106.5t-125 37.5q-105 0 -165 -77q-61 -76 -61 -211q0 -134 59 -211t160 -77q95 0 148 58t54 175h-196v79h284v-378z
M403 868v-99h-88v99h88z" />
    <glyph glyph-name="gdotaccent" unicode="&#x121;" horiz-adv-x="573" 
d="M410 508h85v-477q0 -111 -56.5 -167.5t-165.5 -56.5q-96 0 -152 43t-58 118h88q2 -44 34.5 -68.5t88.5 -24.5q69 0 102 38.5t33 121.5v55h-2q-55 -85 -151 -85q-97 0 -156 71t-59 187q0 118 58.5 188t156.5 70q100 0 152 -87h2v74zM171 130q37 -51 99 -51q66 0 104 49.5
t38 134.5q0 86 -38 135.5t-104 49.5q-62 0 -99.5 -50.5t-37.5 -134.5q0 -83 38 -133zM318 712v-99h-88v99h88z" />
    <glyph glyph-name="Gcommaaccent" unicode="&#x122;" horiz-adv-x="731" 
d="M566 0v98h-2q-29 -51 -89 -81t-135 -30q-137 0 -217 98.5t-80 268.5q0 172 86.5 272t235.5 100q122 0 198 -61q74 -61 85 -167h-98q-12 69 -60 106.5t-125 37.5q-105 0 -165 -77q-61 -76 -61 -211q0 -134 59 -211t160 -77q95 0 148 58t54 175h-196v79h284v-378h-82z
M310 -257l38 103h-34v89h89v-89l-55 -103h-38z" />
    <glyph glyph-name="gcommaaccent" unicode="&#x123;" horiz-adv-x="573" 
d="M410 434v74h85v-477q0 -111 -56.5 -167.5t-165.5 -56.5q-96 0 -152 43t-58 118h88q2 -44 34.5 -68.5t88.5 -24.5q69 0 102 38.5t33 121.5v55h-2q-55 -85 -151 -85q-97 0 -156 71t-59 187q0 118 58.5 188t156.5 70q100 0 152 -87h2zM171 130q37 -51 99 -51q66 0 104 49.5
t38 134.5q0 86 -38 135.5t-104 49.5q-62 0 -99.5 -50.5t-37.5 -134.5q0 -83 38 -133zM283 775h38l-38 -103h34v-89h-89v89z" />
    <glyph glyph-name="Hcircumflex" unicode="&#x124;" horiz-adv-x="737" 
d="M643 0h-93v329h-363v-329h-92v712h92v-302h363v302h93v-712zM320 898h97l114 -138h-89l-74 89l-73 -89h-89z" />
    <glyph glyph-name="hcircumflex" unicode="&#x125;" 
d="M503 0h-88v303q0 75 -29.5 109.5t-87.5 34.5t-95 -41.5t-37 -114.5v-291h-88v712h88v-268h2q51 75 151 75q88 0 136 -53.5t48 -155.5v-310zM125 760l114 138h97l114 -138h-89l-74 89l-73 -89h-89z" />
    <glyph glyph-name="Hbar" unicode="&#x126;" horiz-adv-x="737" 
d="M701 632v-58h-58v-574h-93v329h-363v-329h-92v574h-59v58h59v80h92v-80h363v80h93v-80h58zM550 574h-363v-164h363v164z" />
    <glyph glyph-name="hbar" unicode="&#x127;" 
d="M503 310v-310h-88v303q0 75 -29.5 109.5t-87.5 34.5t-95 -41.5t-37 -114.5v-291h-88v580h-71v52h71v80h88v-80h125v-52h-125v-136h2q51 75 151 75q88 0 136 -53.5t48 -155.5z" />
    <glyph glyph-name="Itilde" unicode="&#x128;" horiz-adv-x="282" 
d="M187 712v-712h-92v712h92zM284 807q-27 -30 -71 -30q-35 0 -82 29q-40 22 -58 22q-41 0 -46 -51h-58q3 55 30 85t71 30q35 0 82 -29q40 -22 58 -22q40 0 46 51h58q-3 -55 -30 -85z" />
    <glyph glyph-name="itilde" unicode="&#x129;" horiz-adv-x="244" 
d="M166 508v-508h-88v508h88zM247 621q-25 -30 -67 -30q-13 0 -24.5 4t-19.5 9t-25 17q-33 22 -47 22q-38 0 -42 -52h-51q2 55 26.5 85t66.5 30q13 0 24.5 -4t19.5 -9t25 -17q30 -23 47 -23q37 0 41 53h52q-1 -54 -26 -85z" />
    <glyph glyph-name="Imacron" unicode="&#x12a;" horiz-adv-x="282" 
d="M95 712h92v-712h-92v712zM-1 853h284v-65h-284v65z" />
    <glyph glyph-name="imacron" unicode="&#x12b;" horiz-adv-x="244" 
d="M78 508h88v-508h-88v508zM-6 682h257v-65h-257v65z" />
    <glyph glyph-name="Ibreve" unicode="&#x12c;" horiz-adv-x="282" 
d="M187 712v-712h-92v712h92zM51 898q4 -38 27.5 -59t62.5 -21q79 0 90 80h65q-5 -68 -45.5 -105t-109.5 -37q-70 0 -110.5 37t-45.5 105h66z" />
    <glyph glyph-name="ibreve" unicode="&#x12d;" horiz-adv-x="244" 
d="M166 508v-508h-88v508h88zM46 712q6 -82 76 -82t76 82h63q-3 -68 -39.5 -105.5t-99.5 -37.5t-99.5 37.5t-39.5 105.5h63z" />
    <glyph glyph-name="Iogonek" unicode="&#x12e;" horiz-adv-x="282" 
d="M57 -173q-25 21 -25 59q0 59 78 114h-15v712h92v-712q-76 -56 -76 -102q0 -36 40 -36q24 0 39 7v-53q-24 -10 -59 -10q-50 0 -74 21z" />
    <glyph glyph-name="iogonek" unicode="&#x12f;" horiz-adv-x="244" 
d="M169 -131v-53q-24 -10 -59 -10q-99 0 -99 80q0 59 78 114h-11v508h88v-508q-76 -56 -76 -102q0 -36 40 -36q24 0 39 7zM78 712h88v-99h-88v99z" />
    <glyph glyph-name="Idotaccent" unicode="&#x130;" horiz-adv-x="282" 
d="M95 0v712h92v-712h-92zM185 868v-99h-88v99h88z" />
    <glyph glyph-name="dotlessi" unicode="&#x131;" horiz-adv-x="244" 
d="M78 0v508h88v-508h-88z" />
    <glyph glyph-name="IJ" unicode="&#x132;" horiz-adv-x="637" 
d="M340 78q60 0 88 32.5t28 105.5v496h92v-508q0 -209 -201 -209q-31 0 -50 6v82q30 -5 43 -5zM187 712v-712h-92v712h92z" />
    <glyph glyph-name="ij" unicode="&#x133;" horiz-adv-x="493" 
d="M415 508v-537q0 -160 -146 -160q-25 0 -47 5v70q15 -3 29 -3q40 0 58 22t18 74v529h88zM166 0h-88v508h88v-508zM327 712h88v-99h-88v99zM78 613v99h88v-99h-88z" />
    <glyph glyph-name="Jcircumflex" unicode="&#x134;" horiz-adv-x="356" 
d="M15 83q30 -5 43 -5q60 0 88 32.5t28 105.5v496h92v-508q0 -209 -201 -209q-31 0 -50 6v82zM171 898h97l114 -138h-89l-74 89l-73 -89h-89z" />
    <glyph glyph-name="jcircumflex" unicode="&#x135;" horiz-adv-x="249" 
d="M65 -96q18 22 18 75v529h88v-537q0 -160 -146 -160q-25 0 -47 5v70q15 -3 29 -3q39 0 58 21zM79 712h96l100 -142h-85l-63 93l-62 -93h-86z" />
    <glyph glyph-name="Kcommaaccent" unicode="&#x136;" horiz-adv-x="625" 
d="M498 0l-309 350h-2v-350h-92v712h92v-321h2l287 321h116l-311 -339l340 -373h-123zM279 -257l38 103h-34v89h89v-89l-55 -103h-38z" />
    <glyph glyph-name="kcommaaccent" unicode="&#x137;" horiz-adv-x="500" 
d="M393 0l-225 254h-2v-254h-88v712h88v-415h2l205 211h109l-228 -230l255 -278h-116zM263 -154h-34v89h89v-89l-55 -103h-38z" />
    <glyph glyph-name="kgreenlandic" unicode="&#x138;" horiz-adv-x="517" 
d="M78 508h88v-211h2l205 211h109l-228 -230l255 -278h-116l-225 254h-2v-254h-88v508z" />
    <glyph glyph-name="Lacute" unicode="&#x139;" horiz-adv-x="561" 
d="M187 712v-630h364v-82h-456v712h92zM106 760l86 138h113l-123 -138h-76z" />
    <glyph glyph-name="lacute" unicode="&#x13a;" horiz-adv-x="244" 
d="M166 712v-712h-88v712h88zM75 773l86 143h113l-123 -143h-76z" />
    <glyph glyph-name="Lcommaaccent" unicode="&#x13b;" horiz-adv-x="561" 
d="M95 0v712h92v-630h364v-82h-456zM312 -154h-34v89h89v-89l-55 -103h-38z" />
    <glyph glyph-name="lcommaaccent" unicode="&#x13c;" horiz-adv-x="244" 
d="M78 712h88v-712h-88v712zM111 -154h-34v89h89v-89l-55 -103h-38z" />
    <glyph glyph-name="Lcaron" unicode="&#x13d;" horiz-adv-x="561" 
d="M187 712v-630h364v-82h-456v712h92zM275 712h80l-55 -218h-54z" />
    <glyph glyph-name="lcaron" unicode="&#x13e;" horiz-adv-x="244" 
d="M78 0v712h88v-712h-88zM231 712h80l-55 -176h-54z" />
    <glyph glyph-name="Ldot" unicode="&#x13f;" horiz-adv-x="641" 
d="M95 0v712h92v-630h364v-82h-456zM513 471v-117h-108v117h108z" />
    <glyph glyph-name="ldot" unicode="&#x140;" horiz-adv-x="399" 
d="M166 712v-712h-88v712h88zM375 414v-117h-108v117h108z" />
    <glyph glyph-name="Lslash" unicode="&#x141;" horiz-adv-x="561" 
d="M16 340l79 47v325h92v-278l148 88v-82l-148 -88v-270h364v-82h-456v305l-79 -48v83z" />
    <glyph glyph-name="lslash" unicode="&#x142;" horiz-adv-x="285" 
d="M10 361l89 53v298h88v-256l88 53v-79l-88 -52v-378h-88v335l-89 -52v78z" />
    <glyph glyph-name="Nacute" unicode="&#x143;" horiz-adv-x="755" 
d="M661 0h-136l-169 307q-92 166 -172 319h-2q3 -171 3 -341v-285h-90v712h135l170 -307q131 -241 172 -319h2q-3 171 -3 341v285h90v-712zM311 760l86 138h113l-123 -138h-76z" />
    <glyph glyph-name="nacute" unicode="&#x144;" 
d="M503 0h-88v303q0 75 -29.5 109.5t-87.5 34.5t-95 -41.5t-37 -114.5v-291h-88v508h85v-67h2q52 78 154 78q88 0 136 -53.5t48 -155.5v-310zM310 712h113l-123 -143h-76z" />
    <glyph glyph-name="Ncommaaccent" unicode="&#x145;" horiz-adv-x="755" 
d="M661 0h-136l-169 307q-92 166 -172 319h-2q3 -171 3 -341v-285h-90v712h135l170 -307q131 -241 172 -319h2q-3 171 -3 341v285h90v-712zM367 -154h-34v89h89v-89l-55 -103h-38z" />
    <glyph glyph-name="ncommaaccent" unicode="&#x146;" 
d="M503 0h-88v303q0 75 -29.5 109.5t-87.5 34.5t-95 -41.5t-37 -114.5v-291h-88v508h85v-67h2q52 78 154 78q88 0 136 -53.5t48 -155.5v-310zM242 -257l38 103h-34v89h89v-89l-55 -103h-38z" />
    <glyph glyph-name="Ncaron" unicode="&#x147;" horiz-adv-x="755" 
d="M661 0h-136l-169 307q-92 166 -172 319h-2q3 -171 3 -341v-285h-90v712h135l170 -307q131 -241 172 -319h2q-3 171 -3 341v285h90v-712zM304 898l74 -88l73 88h89l-114 -138h-97l-114 138h89z" />
    <glyph glyph-name="ncaron" unicode="&#x148;" 
d="M503 0h-88v303q0 75 -29.5 109.5t-87.5 34.5t-95 -41.5t-37 -114.5v-291h-88v508h85v-67h2q52 78 154 78q88 0 136 -53.5t48 -155.5v-310zM128 712h89l74 -93l73 93h89l-114 -143h-97z" />
    <glyph glyph-name="napostrophe" unicode="&#x149;" horiz-adv-x="694" 
d="M622 0h-88v303q0 75 -29.5 109.5t-87.5 34.5t-95 -41.5t-37 -114.5v-291h-88v508h85v-67h2q52 78 154 78q88 0 136 -53.5t48 -155.5v-310zM102 604h-33v108h99v-108l-48 -134h-53z" />
    <glyph glyph-name="Eng" unicode="&#x14a;" horiz-adv-x="744" 
d="M650 712v-748q0 -154 -148 -154q-25 0 -47 5v70q15 -3 30 -3q39 0 57 20t18 67v31l-203 328q-117 190 -174 287h-2q4 -124 4 -315v-300h-90v712h126l166 -271q77 -123 174 -287h2q-4 124 -4 316v242h91z" />
    <glyph glyph-name="eng" unicode="&#x14b;" 
d="M503 299v-333q0 -155 -147 -155q-19 0 -47 5v70q15 -3 29 -3q40 0 58.5 21t18.5 69v319q0 89 -31 123q-32 32 -86 32q-58 0 -95 -42t-37 -113v-292h-88v508h85v-68h2q54 80 156 80q81 0 131 -50q51 -51 51 -171z" />
    <glyph glyph-name="Omacron" unicode="&#x14c;" horiz-adv-x="732" 
d="M650 160q-40 -84 -113 -129t-171 -45q-148 0 -235.5 100t-87.5 270t87.5 270t235.5 100t235.5 -100t87.5 -270q0 -114 -39 -196zM167 205q27 -65 78.5 -100t120.5 -35q104 0 165.5 77.5t61.5 208.5t-61.5 208.5t-165.5 77.5t-165.5 -77.5t-61.5 -208.5q0 -88 28 -151z
M508 853v-65h-284v65h284z" />
    <glyph glyph-name="omacron" unicode="&#x14d;" horiz-adv-x="565" 
d="M524 254q0 -123 -65 -196q-65 -72 -177 -72t-176 72q-65 73 -65 196t65 196q64 72 176 72t177 -72q65 -73 65 -196zM173 111q41 -53 109 -53q70 0 110 52.5t40 143.5t-40 143.5t-110 52.5q-69 0 -109 -52.5t-40 -143.5t40 -143zM424 680v-64h-284v64h284z" />
    <glyph glyph-name="Obreve" unicode="&#x14e;" horiz-adv-x="732" 
d="M43 356q0 170 87.5 270t235.5 100t235.5 -100t87.5 -270t-87.5 -270t-235.5 -100t-235.5 100t-87.5 270zM593 356q0 131 -61.5 208.5t-165.5 77.5t-165.5 -77.5t-61.5 -208.5t61.5 -208.5t165.5 -77.5t165.5 77.5t61.5 208.5zM276 898q4 -38 27.5 -59t62.5 -21
q79 0 90 80h65q-5 -68 -45.5 -105t-109.5 -37q-70 0 -110.5 37t-45.5 105h66z" />
    <glyph glyph-name="obreve" unicode="&#x14f;" horiz-adv-x="565" 
d="M459 58q-65 -72 -177 -72t-176 72q-65 73 -65 196t65 196q64 72 176 72t177 -72q65 -73 65 -196t-65 -196zM133 254q0 -91 40 -143.5t109 -52.5q70 0 110 52.5t40 143.5t-40 143.5t-110 52.5q-69 0 -109 -52.5t-40 -143.5zM127 712h66q4 -39 27.5 -60t62.5 -21
q79 0 90 81h65q-5 -68 -45.5 -105.5t-109.5 -37.5t-110 37.5t-46 105.5z" />
    <glyph glyph-name="Ohungarumlaut" unicode="&#x150;" horiz-adv-x="732" 
d="M650 160q-40 -84 -113 -129t-171 -45q-148 0 -235.5 100t-87.5 270t87.5 270t235.5 100t235.5 -100t87.5 -270q0 -114 -39 -196zM139 356q0 -131 61.5 -208.5t165.5 -77.5t165.5 77.5t61.5 208.5t-61.5 208.5t-165.5 77.5t-165.5 -77.5t-61.5 -208.5zM380 756l106 142
h104l-136 -142h-74zM326 898h104l-136 -142h-74z" />
    <glyph glyph-name="ohungarumlaut" unicode="&#x151;" horiz-adv-x="565" 
d="M459 58q-65 -72 -177 -72t-176 72q-65 73 -65 196t65 196q64 72 176 72t177 -72q65 -73 65 -196t-65 -196zM133 254q0 -91 40 -143.5t109 -52.5q70 0 110 52.5t40 143.5t-40 143.5t-110 52.5q-69 0 -109 -52.5t-40 -143.5zM410 712h104l-136 -143h-74zM144 569l106 143
h104l-136 -143h-74z" />
    <glyph glyph-name="OE" unicode="&#x152;" horiz-adv-x="999" 
d="M946 82v-82h-537q-176 0 -271 92.5t-95 263.5t95 263.5t271 92.5h526v-82h-367v-225h347v-81h-347v-242h378zM209 560q-70 -70 -70 -204q0 -133 69.5 -203.5t200.5 -70.5h67v548h-67q-131 0 -200 -70z" />
    <glyph glyph-name="oe" unicode="&#x153;" horiz-adv-x="897" 
d="M41 254q0 123 62 196q61 72 169 72q120 0 181 -102q59 102 179 102q81 0 138 -47.5t76 -129.5q10 -39 10 -109h-364q3 -88 41 -135t102 -47q50 0 83.5 26.5t42.5 71.5h90q-14 -72 -69 -118q-57 -48 -147 -48q-125 0 -182 103q-57 -103 -181 -103q-108 0 -169 72
q-62 73 -62 196zM171 398q-38 -53 -38 -144t37.5 -143.5t101.5 -52.5q65 0 102.5 52.5t37.5 143.5t-37.5 143.5t-102.5 52.5q-64 0 -101 -52zM769 303q-8 74 -43 112q-38 39 -94 39q-58 0 -95 -40t-44 -111h276z" />
    <glyph glyph-name="Racute" unicode="&#x154;" horiz-adv-x="640" 
d="M615 0h-100l-65 188q-22 64 -51 88q-30 24 -87 24h-125v-300h-92v712h226q125 0 187.5 -49.5t62.5 -143.5q0 -68 -37 -116t-99 -62v-2q39 -12 61 -40t46 -94zM187 378h133q78 0 117.5 35.5t39.5 98.5q0 121 -163 121h-127v-255zM335 898h113l-123 -138h-76z" />
    <glyph glyph-name="racute" unicode="&#x155;" horiz-adv-x="362" 
d="M78 508h84v-78h2q50 83 150 83q24 0 37 -4v-79q-33 3 -35 3q-72 0 -111 -45t-39 -129v-259h-88v508zM226 712h113l-123 -143h-76z" />
    <glyph glyph-name="Rcommaaccent" unicode="&#x156;" horiz-adv-x="640" 
d="M615 0h-100l-65 188q-22 64 -51 88q-30 24 -87 24h-125v-300h-92v712h226q125 0 187.5 -49.5t62.5 -143.5q0 -68 -37 -116t-99 -62v-2q39 -12 61 -40t46 -94zM320 378q78 0 117.5 35.5t39.5 98.5q0 121 -163 121h-127v-255h133zM329 -154h-34v89h89v-89l-55 -103h-38z
" />
    <glyph glyph-name="rcommaaccent" unicode="&#x157;" horiz-adv-x="362" 
d="M351 430q-33 3 -35 3q-72 0 -111 -45t-39 -129v-259h-88v508h84v-78h2q50 83 150 83q24 0 37 -4v-79zM73 -257l38 103h-34v89h89v-89l-55 -103h-38z" />
    <glyph glyph-name="Rcaron" unicode="&#x158;" horiz-adv-x="640" 
d="M615 0h-100l-65 188q-22 64 -51 88q-30 24 -87 24h-125v-300h-92v712h226q125 0 187.5 -49.5t62.5 -143.5q0 -68 -37 -116t-99 -62v-2q39 -12 61 -40t46 -94zM187 378h133q78 0 117.5 35.5t39.5 98.5q0 121 -163 121h-127v-255zM153 898h89l74 -88l73 88h89l-114 -138
h-97z" />
    <glyph glyph-name="rcaron" unicode="&#x159;" horiz-adv-x="362" 
d="M351 430q-33 3 -35 3q-72 0 -111 -45t-39 -129v-259h-88v508h84v-78h2q50 83 150 83q24 0 37 -4v-79zM44 712h89l74 -93l73 93h89l-114 -143h-97z" />
    <glyph glyph-name="Sacute" unicode="&#x15a;" horiz-adv-x="609" 
d="M530 306q30 -41 30 -110q0 -95 -70 -152.5t-185 -57.5q-127 0 -196.5 64.5t-69.5 185.5h95q0 -85 44.5 -128t127.5 -43q76 0 117.5 33t41.5 93q0 70 -72 98q-36 13 -102 30q-88 22 -134.5 43.5t-74.5 59.5q-30 40 -30 108q0 86 65 141t171 55q255 0 255 -234h-93
q0 155 -163 155q-66 0 -103.5 -30t-37.5 -81q3 -55 37 -78t135 -49q80 -19 132 -41q47 -20 80 -62zM308 898h113l-123 -138h-76z" />
    <glyph glyph-name="sacute" unicode="&#x15b;" horiz-adv-x="494" 
d="M437 349h-86q0 51 -29.5 78t-83.5 27q-46 0 -72.5 -19.5t-26.5 -52.5q0 -45 48 -62q26 -9 74 -20q64 -16 103 -30q36 -14 63 -45q26 -32 26 -87q0 -69 -54.5 -110.5t-146.5 -41.5q-102 0 -157 47t-56 136h89q0 -54 32.5 -83.5t92.5 -29.5q50 0 80 21t30 55q0 51 -55 71
q-33 11 -85 23q-64 16 -93 28q-32 12 -55 41q-24 29 -24 80q0 65 53 106t135 41q94 0 146 -45t52 -128zM258 712h113l-123 -143h-76z" />
    <glyph glyph-name="Scircumflex" unicode="&#x15c;" horiz-adv-x="609" 
d="M440 12q-60 -26 -135 -26q-127 0 -196.5 64.5t-69.5 185.5h95q0 -85 44.5 -128t127.5 -43q76 0 117.5 33t41.5 93q0 70 -72 98q-36 13 -102 30q-88 22 -134.5 43.5t-74.5 59.5q-30 40 -30 108q0 86 65 141t171 55q255 0 255 -234h-93q0 155 -163 155q-66 0 -103.5 -30
t-37.5 -81q3 -55 37 -78t135 -49q80 -19 132 -41q47 -20 80 -62q30 -41 30 -110q0 -63 -31.5 -110.5t-88.5 -73.5zM240 898h97l114 -138h-89l-74 89l-73 -89h-89z" />
    <glyph glyph-name="scircumflex" unicode="&#x15d;" horiz-adv-x="494" 
d="M349 177q-14 15 -39 24.5t-87 24.5q-64 16 -93 28q-32 12 -55 41q-24 29 -24 80q0 65 53 106t135 41q94 0 146 -45t52 -128h-86q0 51 -29.5 78t-83.5 27q-46 0 -72.5 -19.5t-26.5 -52.5q0 -45 48 -62q26 -9 74 -20q64 -16 103 -30q36 -14 63 -45q26 -32 26 -87
q0 -69 -54.5 -110.5t-146.5 -41.5q-102 0 -157 47t-56 136h89q0 -54 32.5 -83.5t92.5 -29.5q50 0 80 21t30 55q0 28 -14 45zM190 712h97l114 -143h-89l-73 93l-74 -93h-89z" />
    <glyph glyph-name="Scedilla" unicode="&#x15e;" horiz-adv-x="609" 
d="M329 -59q33 0 57 -21q23 -20 23 -53q0 -38 -29 -62.5t-81 -24.5q-54 0 -105 27l18 37q36 -21 78 -21q56 0 56 41q0 19 -14.5 30.5t-38.5 11.5q-17 0 -31 -6l-18 20l44 66q-119 5 -184 69.5t-65 180.5h95q0 -85 44.5 -128t127.5 -43q76 0 117.5 33t41.5 93q0 70 -72 98
q-36 13 -102 30q-88 22 -134.5 43.5t-74.5 59.5q-30 40 -30 108q0 86 65 141t171 55q255 0 255 -234h-93q0 155 -163 155q-66 0 -103.5 -30t-37.5 -81q3 -55 37 -78t135 -49q80 -19 132 -41q47 -20 80 -62q30 -41 30 -110q0 -90 -60 -145.5t-165 -63.5l-32 -49q18 3 26 3z
" />
    <glyph glyph-name="scedilla" unicode="&#x15f;" horiz-adv-x="494" 
d="M281 -167q14 11 14 31q0 19 -14.5 30.5t-38.5 11.5q-18 0 -31 -6l-18 20l44 66q-94 4 -145.5 51.5t-52.5 131.5h89q0 -54 32.5 -83.5t92.5 -29.5q50 0 80 21t30 55q0 51 -55 71q-33 11 -85 23q-64 16 -93 28q-32 12 -55 41q-24 29 -24 80q0 65 53 106t135 41
q94 0 146 -45t52 -128h-86q0 51 -29.5 78t-83.5 27q-46 0 -72.5 -19.5t-26.5 -52.5q0 -45 48 -62q26 -9 74 -20q64 -16 103 -30q36 -14 63 -45q26 -32 26 -87q0 -62 -45.5 -102.5t-123.5 -48.5l-32 -49q18 3 26 3q34 0 57 -21t23 -53q0 -38 -29 -62.5t-81 -24.5
q-54 0 -105 27l18 37q36 -21 78 -21q28 0 42 10z" />
    <glyph glyph-name="Scaron" unicode="&#x160;" horiz-adv-x="609" 
d="M440 12q-60 -26 -135 -26q-127 0 -196.5 64.5t-69.5 185.5h95q0 -85 44.5 -128t127.5 -43q76 0 117.5 33t41.5 93q0 70 -72 98q-36 13 -102 30q-88 22 -134.5 43.5t-74.5 59.5q-30 40 -30 108q0 86 65 141t171 55q255 0 255 -234h-93q0 155 -163 155q-66 0 -103.5 -30
t-37.5 -81q3 -55 37 -78t135 -49q80 -19 132 -41q47 -20 80 -62q30 -41 30 -110q0 -63 -31.5 -110.5t-88.5 -73.5zM215 898l74 -88l73 88h89l-114 -138h-97l-114 138h89z" />
    <glyph glyph-name="scaron" unicode="&#x161;" horiz-adv-x="494" 
d="M349 177q-14 15 -39 24.5t-87 24.5q-64 16 -93 28q-32 12 -55 41q-24 29 -24 80q0 65 53 106t135 41q94 0 146 -45t52 -128h-86q0 51 -29.5 78t-83.5 27q-46 0 -72.5 -19.5t-26.5 -52.5q0 -45 48 -62q26 -9 74 -20q64 -16 103 -30q36 -14 63 -45q26 -32 26 -87
q0 -69 -54.5 -110.5t-146.5 -41.5q-102 0 -157 47t-56 136h89q0 -54 32.5 -83.5t92.5 -29.5q50 0 80 21t30 55q0 28 -14 45zM76 712h89l74 -93l73 93h89l-114 -143h-97z" />
    <glyph glyph-name="Tcommaaccent" unicode="&#x162;" horiz-adv-x="599" 
d="M10 630v82h579v-82h-243v-630h-93v630h-243zM289 -154h-34v89h89v-89l-55 -103h-38z" />
    <glyph glyph-name="tcommaaccent" unicode="&#x163;" horiz-adv-x="320" 
d="M293 74v-72q-23 -6 -56 -6q-73 0 -105.5 34t-32.5 112v296h-88v70h88v123h88v-123h101v-70h-101v-287q0 -44 16 -63t54 -19q19 0 36 5zM130 -257l38 103h-34v89h89v-89l-55 -103h-38z" />
    <glyph glyph-name="Tcaron" unicode="&#x164;" horiz-adv-x="599" 
d="M589 712v-82h-243v-630h-93v630h-243v82h579zM137 898h89l74 -88l73 88h89l-114 -138h-97z" />
    <glyph glyph-name="tcaron" unicode="&#x165;" horiz-adv-x="320" 
d="M293 2q-23 -6 -56 -6q-73 0 -105.5 34t-32.5 112v296h-88v70h88v123h88v-123h101v-70h-101v-287q0 -44 16 -63t54 -19q19 0 36 5v-72zM250 712h80l-55 -176h-54z" />
    <glyph glyph-name="Tbar" unicode="&#x166;" horiz-adv-x="599" 
d="M253 630h-243v82h579v-82h-243v-221h141v-72h-141v-337h-93v337h-141v72h141v221z" />
    <glyph glyph-name="tbar" unicode="&#x167;" horiz-adv-x="318" 
d="M293 74v-72q-23 -6 -56 -6q-73 0 -105.5 34t-32.5 112v101h-85v59h85v136h-88v70h88v123h88v-123h101v-70h-101v-136h98v-59h-98v-92q0 -44 16 -63t54 -19q19 0 36 5z" />
    <glyph glyph-name="Utilde" unicode="&#x168;" horiz-adv-x="705" 
d="M617 267q0 -137 -68 -209t-196 -72q-129 0 -196.5 71.5t-67.5 209.5v445h92v-443q0 -97 44.5 -148t127.5 -51q82 0 126.5 51t44.5 148v443h93v-445zM180 777q3 55 30 85t71 30q35 0 82 -29q40 -22 58 -22q40 0 46 51h58q-3 -55 -30 -85t-71 -30q-35 0 -82 29
q-40 22 -58 22q-42 0 -46 -51h-58z" />
    <glyph glyph-name="utilde" unicode="&#x169;" 
d="M161 508v-303q0 -75 29.5 -109.5t87.5 -34.5t95 42.5t37 113.5v291h88v-508h-85v67h-2q-52 -78 -155 -78q-88 0 -135.5 53.5t-47.5 155.5v310h88zM431 621q-27 -30 -71 -30q-35 0 -82 29q-40 22 -58 22q-42 0 -46 -51h-58q3 55 30 85t71 30q35 0 82 -29q40 -22 58 -22
q40 0 46 51h58q-3 -55 -30 -85z" />
    <glyph glyph-name="Umacron" unicode="&#x16a;" horiz-adv-x="705" 
d="M617 267q0 -137 -68 -209t-196 -72q-129 0 -196.5 71.5t-67.5 209.5v445h92v-443q0 -97 44.5 -148t127.5 -51q82 0 126.5 51t44.5 148v443h93v-445zM210 853h284v-65h-284v65z" />
    <glyph glyph-name="umacron" unicode="&#x16b;" 
d="M498 0h-85v67h-2q-52 -78 -155 -78q-88 0 -135.5 53.5t-47.5 155.5v310h88v-303q0 -75 29.5 -109.5t87.5 -34.5t95 42.5t37 113.5v291h88v-508zM430 680v-64h-284v64h284z" />
    <glyph glyph-name="Ubreve" unicode="&#x16c;" horiz-adv-x="705" 
d="M617 267q0 -137 -68 -209t-196 -72q-129 0 -196.5 71.5t-67.5 209.5v445h92v-443q0 -97 44.5 -148t127.5 -51q82 0 126.5 51t44.5 148v443h93v-445zM263 898q4 -38 27.5 -59t62.5 -21q79 0 90 80h65q-5 -68 -45.5 -105t-109.5 -37q-70 0 -110.5 37t-45.5 105h66z" />
    <glyph glyph-name="ubreve" unicode="&#x16d;" 
d="M498 0h-85v67h-2q-52 -78 -155 -78q-88 0 -135.5 53.5t-47.5 155.5v310h88v-303q0 -75 29.5 -109.5t87.5 -34.5t95 42.5t37 113.5v291h88v-508zM199 712q4 -39 27.5 -60t62.5 -21q79 0 90 81h65q-5 -68 -45.5 -105.5t-109.5 -37.5t-110 37.5t-46 105.5h66z" />
    <glyph glyph-name="Uring" unicode="&#x16e;" horiz-adv-x="705" 
d="M617 267q0 -137 -68 -209t-196 -72q-129 0 -196.5 71.5t-67.5 209.5v445h92v-443q0 -97 44.5 -148t127.5 -51q82 0 126.5 51t44.5 148v443h93v-445zM252 852q0 42 30 72q29 29 70 29t72 -29q29 -31 29 -72t-29 -70q-30 -30 -72 -30t-70 30q-30 28 -30 70zM312 812
q17 -17 40 -17q25 0 41.5 16.5t16.5 40.5t-16.5 41t-41.5 17q-23 0 -40 -17t-17 -41q0 -23 17 -40z" />
    <glyph glyph-name="uring" unicode="&#x16f;" 
d="M413 67h-2q-52 -78 -155 -78q-88 0 -135.5 53.5t-47.5 155.5v310h88v-303q0 -75 29.5 -109.5t87.5 -34.5t95 42.5t37 113.5v291h88v-508h-85v67zM218 737q29 29 70 29t72 -29q29 -31 29 -71q0 -42 -29 -71q-30 -30 -72 -30t-70 30q-30 29 -30 71q0 41 30 71zM248 625
q17 -17 40 -17q25 0 41.5 16.5t16.5 41.5q0 24 -16.5 41t-41.5 17q-23 0 -40 -17t-17 -41t17 -41z" />
    <glyph glyph-name="Uhungarumlaut" unicode="&#x170;" horiz-adv-x="705" 
d="M617 267q0 -137 -68 -209t-196 -72q-129 0 -196.5 71.5t-67.5 209.5v445h92v-443q0 -97 44.5 -148t127.5 -51q82 0 126.5 51t44.5 148v443h93v-445zM367 756l106 142h104l-136 -142h-74zM207 756l106 142h104l-136 -142h-74z" />
    <glyph glyph-name="uhungarumlaut" unicode="&#x171;" 
d="M498 0h-85v67h-2q-52 -78 -155 -78q-88 0 -135.5 53.5t-47.5 155.5v310h88v-303q0 -75 29.5 -109.5t87.5 -34.5t95 42.5t37 113.5v291h88v-508zM416 712h104l-136 -143h-74zM256 712h104l-136 -143h-74z" />
    <glyph glyph-name="Uogonek" unicode="&#x172;" horiz-adv-x="705" 
d="M617 712v-445q0 -88 -28 -149t-86 -107q-76 -60 -76 -107q0 -42 41 -42q23 0 38 7v-53q-24 -10 -58 -10q-99 0 -99 85q0 48 60 101v2q-29 -8 -56 -8q-129 0 -196.5 71.5t-67.5 209.5v445h92v-443q0 -97 44.5 -148t127.5 -51q82 0 126.5 51t44.5 148v443h93z" />
    <glyph glyph-name="uogonek" unicode="&#x173;" 
d="M501 -131v-53q-24 -10 -59 -10q-99 0 -99 80q0 59 78 114h-8v67h-2q-52 -78 -155 -78q-88 0 -135.5 53.5t-47.5 155.5v310h88v-303q0 -75 29.5 -109.5t87.5 -34.5t95 42.5t37 113.5v291h88v-508q-76 -56 -76 -102q0 -36 40 -36q24 0 39 7z" />
    <glyph glyph-name="Wcircumflex" unicode="&#x174;" horiz-adv-x="916" 
d="M906 712l-166 -712h-132l-75 311q-48 202 -74 319h-2q-26 -117 -74 -319l-75 -311h-132l-166 712h92l67 -288q47 -211 67 -303l7 -32h2q48 216 79 336l70 287h128l70 -287q31 -120 79 -336h2q37 179 74 335l67 288h92zM409 898h97l114 -138h-89l-74 89l-73 -89h-89z" />
    <glyph glyph-name="wcircumflex" unicode="&#x175;" horiz-adv-x="770" 
d="M763 508l-135 -508h-126l-60 220q-3 10 -6 23.5t-5 21t-3 11.5q-23 85 -42 164h-2q-19 -79 -42 -164q-1 -4 -3 -11.5t-5 -21t-6 -23.5l-60 -220h-126l-135 508h89l54 -212q35 -140 56 -228h2q21 87 56 223l58 217h126l58 -217l56 -223h2q21 88 56 228l54 212h89zM222 569
l114 143h97l114 -143h-89l-73 93l-74 -93h-89z" />
    <glyph glyph-name="Ycircumflex" unicode="&#x176;" horiz-adv-x="614" 
d="M610 712l-257 -417v-295h-92v295l-257 417h107l87 -147q47 -78 108 -188h2q61 110 108 188l88 147h106zM144 760l114 138h97l114 -138h-89l-74 89l-73 -89h-89z" />
    <glyph glyph-name="ycircumflex" unicode="&#x177;" horiz-adv-x="472" 
d="M478 508l-204 -531q-38 -98 -81 -131t-128 -35q-28 0 -46 5v74q18 -6 42 -6q51 0 76 23t50 91l-193 510h95l146 -404h2l148 404h93zM188 712h97l114 -143h-89l-73 93l-74 -93h-89z" />
    <glyph glyph-name="Ydieresis" unicode="&#x178;" horiz-adv-x="614" 
d="M610 712l-257 -417v-295h-92v295l-257 417h107l87 -147q47 -78 108 -188h2q61 110 108 188l88 147h106zM363 874h82v-99h-82v99zM250 874v-99h-82v99h82z" />
    <glyph glyph-name="Zacute" unicode="&#x179;" horiz-adv-x="566" 
d="M18 88l403 541v2h-392v81h500v-88l-403 -541v-2h422v-81h-530v88zM298 898h113l-123 -138h-76z" />
    <glyph glyph-name="zacute" unicode="&#x17a;" horiz-adv-x="469" 
d="M26 76l299 358v2h-289v72h397v-76l-299 -358v-2h309v-72h-417v76zM245 712h113l-123 -143h-76z" />
    <glyph glyph-name="Zdotaccent" unicode="&#x17b;" horiz-adv-x="566" 
d="M18 88l403 541v2h-392v81h500v-88l-403 -541v-2h422v-81h-530v88zM323 868v-99h-88v99h88z" />
    <glyph glyph-name="zdotaccent" unicode="&#x17c;" horiz-adv-x="469" 
d="M26 76l299 358v2h-289v72h397v-76l-299 -358v-2h309v-72h-417v76zM269 712v-99h-88v99h88z" />
    <glyph glyph-name="Zcaron" unicode="&#x17d;" horiz-adv-x="566" 
d="M548 0h-530v88l403 541v2h-392v81h500v-88l-403 -541v-2h422v-81zM116 898h89l74 -88l73 88h89l-114 -138h-97z" />
    <glyph glyph-name="zcaron" unicode="&#x17e;" horiz-adv-x="469" 
d="M443 0h-417v76l299 358v2h-289v72h397v-76l-299 -358v-2h309v-72zM63 712h89l74 -93l73 93h89l-114 -143h-97z" />
    <glyph glyph-name="longs" unicode="&#x17f;" horiz-adv-x="305" 
d="M13 438v70h89v63q0 146 139 146q29 0 51 -5v-68q-9 3 -29 3q-39 0 -56.5 -20.5t-17.5 -65.5v-561h-87v438h-89z" />
    <glyph glyph-name="uni018F" unicode="&#x18f;" horiz-adv-x="741" 
d="M698 356q2 -163 -90 -267.5t-243 -102.5q-148 0 -235 100t-87 270q0 27 1 32h558q-5 125 -71 190q-68 65 -174 65q-79 0 -131.5 -39t-65.5 -106h-101q19 99 98 163.5t201 64.5q157 0 248.5 -100.5t91.5 -269.5zM140 308q8 -112 70 -175t155 -63q101 0 164 64
q63 63 72 174h-461z" />
    <glyph glyph-name="florin" unicode="&#x192;" horiz-adv-x="562" 
d="M541 712v-73q-22 5 -43 5q-44 0 -68.5 -23.5t-38.5 -80.5l-18 -72h110v-68h-126l-103 -407q-26 -102 -66 -142.5t-118 -40.5q-27 0 -48 6v75q18 -6 40 -6q41 0 65 24q24 26 40 94l101 397h-101v68h117l20 81q23 92 64.5 131t116.5 39q29 0 56 -7z" />
    <glyph glyph-name="Aringacute" unicode="&#x1fa;" horiz-adv-x="675" 
d="M5 0l270 712h125l271 -712h-99l-77 212h-314l-78 -212h-98zM442 358q-49 135 -103 290h-2q-54 -155 -103 -290l-24 -65h255zM237 833q0 42 30 72q29 29 70 29t72 -29q29 -31 29 -72t-29 -70q-30 -30 -72 -30q-41 0 -70 30q-30 29 -30 70zM357 1093h113l-123 -138h-76z
M280 833q0 -24 17 -40.5t40 -16.5q25 0 41.5 16.5t16.5 40.5t-16.5 41t-41.5 17q-23 0 -40 -17t-17 -41z" />
    <glyph glyph-name="aringacute" unicode="&#x1fb;" horiz-adv-x="531" 
d="M259 454q-53 0 -83.5 -27t-32.5 -74h-88q4 76 58 122.5t146 46.5q96 0 148 -50t52 -147v-195q0 -78 12 -130h-80q-7 29 -7 74h-2q-56 -85 -176 -85q-78 0 -125 42q-47 41 -47 107q0 67 44.5 105t148.5 55q78 13 147 17v20q0 119 -115 119zM333 97q23 24 32 49.5t9 70.5
v31q-83 -6 -133 -16q-64 -10 -90.5 -30t-26.5 -58q0 -40 28 -63.5t76 -23.5q65 0 105 40zM324 576q-30 -30 -72 -30t-70 30q-30 28 -30 71q0 41 30 71q29 29 70 29t72 -29q29 -31 29 -71q0 -42 -29 -71zM262 772h-76l86 143h113zM310 647q0 24 -16.5 41t-41.5 17
q-23 0 -40 -17t-17 -41t17 -41t40 -17q25 0 41.5 16.5t16.5 41.5z" />
    <glyph glyph-name="AEacute" unicode="&#x1fc;" horiz-adv-x="937" 
d="M884 0h-371l-34 224h-273l-107 -224h-105l349 712h530v-82h-364l34 -225h310v-81h-298l36 -242h293v-82zM467 305l-49 329h-15l-158 -329h222zM527 898h113l-123 -138h-76z" />
    <glyph glyph-name="aeacute" unicode="&#x1fd;" horiz-adv-x="862" 
d="M500 99q39 -45 100 -45q50 0 83.5 26.5t42.5 71.5h90q-14 -72 -69 -118q-57 -48 -147 -48q-127 0 -185 108q-28 -52 -80 -80t-120 -28q-82 0 -131 43q-50 42 -50 110q0 80 56 120.5t178 40.5h110v35q0 119 -117 119q-53 0 -84 -27t-34 -74h-88q5 77 59.5 123t146.5 46
q123 0 168 -82q58 82 168 82q81 0 138 -48t76 -130q10 -41 10 -111h-364q5 -90 43 -134zM152 78q28 -24 78 -24q70 0 106 41q24 24 33 50.5t9 71.5v16h-100q-82 0 -118 -22t-36 -69q0 -40 28 -64zM458 300h276q-4 73 -41 113.5t-96 40.5t-96 -40.5t-43 -113.5zM362 569
l86 143h113l-123 -143h-76z" />
    <glyph glyph-name="Oslashacute" unicode="&#x1fe;" horiz-adv-x="732" 
d="M670 706l-64 -85q83 -102 83 -265q0 -170 -87.5 -270t-235.5 -100q-115 0 -193 60l-60 -79l-51 39l64 85q-83 102 -83 265q0 170 87.5 270t235.5 100q115 0 194 -61l60 80zM137 356q0 -116 46 -189l324 428q-59 50 -141 50q-105 0 -167 -78.5t-62 -210.5zM366 67
q105 0 167 78.5t62 210.5q0 116 -46 189l-323 -428q59 -50 140 -50zM385 898h113l-123 -138h-76z" />
    <glyph glyph-name="oslashacute" unicode="&#x1ff;" horiz-adv-x="566" 
d="M524 254q0 -123 -65 -196q-65 -72 -177 -72q-82 0 -138 38l-51 -66l-43 33l53 70q-62 71 -62 193q0 123 65 196q64 72 176 72q80 0 139 -39l52 68l43 -35l-53 -70q61 -72 61 -192zM282 56q71 0 112 53t41 145q0 71 -27 122l-217 -289q37 -31 91 -31zM156 132l218 288
q-38 32 -92 32q-70 0 -111 -53t-41 -145q0 -72 26 -122zM216 569l86 143h113l-123 -143h-76z" />
    <glyph glyph-name="Scommaaccent" unicode="&#x218;" horiz-adv-x="609" 
d="M440 12q-60 -26 -135 -26q-127 0 -196.5 64.5t-69.5 185.5h95q0 -85 44.5 -128t127.5 -43q76 0 117.5 33t41.5 93q0 70 -72 98q-36 13 -102 30q-88 22 -134.5 43.5t-74.5 59.5q-30 40 -30 108q0 86 65 141t171 55q255 0 255 -234h-93q0 155 -163 155q-66 0 -103.5 -30
t-37.5 -81q3 -55 37 -78t135 -49q80 -19 132 -41q47 -20 80 -62q30 -41 30 -110q0 -63 -31.5 -110.5t-88.5 -73.5zM292 -154h-34v89h89v-89l-55 -103h-38z" />
    <glyph glyph-name="scommaaccent" unicode="&#x219;" horiz-adv-x="494" 
d="M349 177q-14 15 -39 24.5t-87 24.5q-64 16 -93 28q-32 12 -55 41q-24 29 -24 80q0 65 53 106t135 41q94 0 146 -45t52 -128h-86q0 51 -29.5 78t-83.5 27q-46 0 -72.5 -19.5t-26.5 -52.5q0 -45 48 -62q26 -9 74 -20q64 -16 103 -30q36 -14 63 -45q26 -32 26 -87
q0 -69 -54.5 -110.5t-146.5 -41.5q-102 0 -157 47t-56 136h89q0 -54 32.5 -83.5t92.5 -29.5q50 0 80 21t30 55q0 28 -14 45zM240 -154h-34v89h89v-89l-55 -103h-38z" />
    <glyph glyph-name="uni021A" unicode="&#x21a;" horiz-adv-x="599" 
d="M10 630v82h579v-82h-243v-630h-93v630h-243zM289 -154h-34v89h89v-89l-55 -103h-38z" />
    <glyph glyph-name="uni021B" unicode="&#x21b;" horiz-adv-x="320" 
d="M293 2q-23 -6 -56 -6q-73 0 -105.5 34t-32.5 112v296h-88v70h88v123h88v-123h101v-70h-101v-287q0 -44 16 -63t54 -19q19 0 36 5v-72zM130 -257l38 103h-34v89h89v-89l-55 -103h-38z" />
    <glyph glyph-name="uni0237" unicode="&#x237;" horiz-adv-x="249" 
d="M-22 -114q15 -3 29 -3q40 0 58 22t18 74v529h88v-537q0 -160 -146 -160q-25 0 -47 5v70z" />
    <glyph glyph-name="uni0259" unicode="&#x259;" horiz-adv-x="550" 
d="M509 254q0 -79 -28 -138q-30 -62 -83.5 -96t-125.5 -34q-106 0 -168.5 73t-62.5 195q0 7 2 25h378q-3 84 -44.5 129.5t-109.5 45.5q-50 0 -82.5 -26t-41.5 -70h-91q14 71 70 118q55 46 145 46q114 0 178 -73t64 -195zM129 216q5 -77 43.5 -119.5t99.5 -42.5
q63 0 103 43.5t45 118.5h-291z" />
    <glyph glyph-name="afii57929" unicode="&#x2bc;" horiz-adv-x="237" 
d="M120 470h-53l35 134h-33v108h99v-108z" />
    <glyph glyph-name="circumflex" unicode="&#x2c6;" horiz-adv-x="425" 
d="M139 569h-89l114 143h97l114 -143h-89l-73 93z" />
    <glyph glyph-name="caron" unicode="&#x2c7;" horiz-adv-x="425" 
d="M50 712h89l74 -93l73 93h89l-114 -143h-97z" />
    <glyph glyph-name="uni02C9" unicode="&#x2c9;" horiz-adv-x="384" 
d="M50 616v64h284v-64h-284z" />
    <glyph glyph-name="breve" unicode="&#x2d8;" horiz-adv-x="411" 
d="M50 712h66q4 -39 27.5 -60t62.5 -21q79 0 90 81h65q-5 -68 -45.5 -105.5t-109.5 -37.5t-110 37.5t-46 105.5z" />
    <glyph glyph-name="dotaccent" unicode="&#x2d9;" horiz-adv-x="188" 
d="M50 613v99h88v-99h-88z" />
    <glyph glyph-name="ring" unicode="&#x2da;" horiz-adv-x="301" 
d="M80 737q29 29 70 29t72 -29q29 -31 29 -71q0 -42 -29 -71q-30 -30 -72 -30t-70 30q-30 29 -30 71q0 41 30 71zM93 666q0 -24 17 -41t40 -17q25 0 41.5 16.5t16.5 41.5q0 24 -16.5 41t-41.5 17q-23 0 -40 -17t-17 -41z" />
    <glyph glyph-name="ogonek" unicode="&#x2db;" horiz-adv-x="258" 
d="M50 -114q0 33 19 59.5t62 56.5l74 -2q-76 -56 -76 -102q0 -36 40 -36q24 0 39 7v-53q-24 -10 -59 -10q-99 0 -99 80z" />
    <glyph glyph-name="tilde" unicode="&#x2dc;" horiz-adv-x="445" 
d="M80 676q27 30 71 30q35 0 82 -29q40 -22 58 -22q40 0 46 51h58q-3 -55 -30 -85t-71 -30q-35 0 -82 29q-40 22 -58 22q-42 0 -46 -51h-58q3 55 30 85z" />
    <glyph glyph-name="hungarumlaut" unicode="&#x2dd;" horiz-adv-x="470" 
d="M210 569l106 143h104l-136 -143h-74zM50 569l106 143h104l-136 -143h-74z" />
    <glyph glyph-name="uni0312" unicode="&#x312;" horiz-adv-x="0" 
d="M50 672l55 103h38l-38 -103h34v-89h-89v89z" />
    <glyph glyph-name="uni0326" unicode="&#x326;" horiz-adv-x="0" 
d="M88 -257h-38l38 103h-34v89h89v-89z" />
    <glyph glyph-name="uni0333" unicode="&#x333;" horiz-adv-x="0" 
d="M-500 -50h500v-49h-500v49zM-500 -228v49h500v-49h-500z" />
    <glyph glyph-name="uni0374" unicode="&#x374;" horiz-adv-x="180" 
d="M30 508l35 204h85l-63 -204h-57z" />
    <glyph glyph-name="uni0375" unicode="&#x375;" horiz-adv-x="180" 
d="M30 -92l35 204h85l-63 -204h-57z" />
    <glyph glyph-name="uni037E" unicode="&#x37e;" horiz-adv-x="226" 
d="M57 -144l38 144h-36v117h108v-117l-52 -144h-58zM167 391h-108v117h108v-117z" />
    <glyph glyph-name="tonos" unicode="&#x384;" horiz-adv-x="228" 
d="M49 572l41 160h89l-61 -160h-69z" />
    <glyph glyph-name="dieresistonos" unicode="&#x385;" horiz-adv-x="458" 
d="M176 572l36 147h77l-49 -147h-64zM330 686h78v-100h-78v100zM50 586v100h78v-100h-78z" />
    <glyph glyph-name="Alphatonos" unicode="&#x386;" horiz-adv-x="675" 
d="M572 0l-77 212h-314l-78 -212h-98l270 712h125l271 -712h-99zM465 293l-23 65q-49 135 -103 290h-2q-54 -155 -103 -290l-24 -65h255zM45 512l41 200h89l-61 -200h-69z" />
    <glyph glyph-name="anoteleia" unicode="&#x387;" horiz-adv-x="226" 
d="M167 508v-117h-108v117h108z" />
    <glyph glyph-name="Epsilontonos" unicode="&#x388;" horiz-adv-x="618" 
d="M554 712v-82h-367v-225h346v-81h-346v-242h378v-82h-470v712h459zM35 712l-61 -200h-69l41 200h89z" />
    <glyph glyph-name="Etatonos" unicode="&#x389;" horiz-adv-x="737" 
d="M95 712h92v-302h363v302h93v-712h-93v329h-363v-329h-92v712zM35 712l-61 -200h-69l41 200h89z" />
    <glyph glyph-name="Iotatonos" unicode="&#x38a;" horiz-adv-x="282" 
d="M95 0v712h92v-712h-92zM-95 512l41 200h89l-61 -200h-69z" />
    <glyph glyph-name="Omicrontonos" unicode="&#x38c;" horiz-adv-x="732" 
d="M650 160q-40 -84 -113 -129t-171 -45q-148 0 -235.5 100t-87.5 270t87.5 270t235.5 100t235.5 -100t87.5 -270q0 -114 -39 -196zM167 205q27 -65 78.5 -100t120.5 -35q104 0 165.5 77.5t61.5 208.5t-61.5 208.5t-165.5 77.5t-165.5 -77.5t-61.5 -208.5q0 -88 28 -151z
M-60 512l41 200h89l-61 -200h-69z" />
    <glyph glyph-name="Upsilontonos" unicode="&#x38e;" horiz-adv-x="614" 
d="M4 712h107l87 -147q47 -78 108 -188h2q61 110 108 188l88 147h106l-257 -417v-295h-92v295zM-24 712l-61 -200h-69l41 200h89z" />
    <glyph glyph-name="Omegatonos" unicode="&#x38f;" horiz-adv-x="729" 
d="M691 0h-264v84q76 77 117 152q40 73 40 165q0 116 -59 178.5t-161 62.5q-101 0 -160 -62.5t-59 -178.5q0 -91 41 -165q42 -77 116 -152v-84h-264v81h170v2q-80 83 -119.5 159.5t-39.5 168.5q0 155 86 235t229 80q144 0 230 -80t86 -235q0 -92 -39.5 -168.5t-119.5 -159.5
v-2h170v-81zM-66 512l41 200h89l-61 -200h-69z" />
    <glyph glyph-name="iotadieresistonos" unicode="&#x390;" horiz-adv-x="278" 
d="M161 508v-344q0 -51 16 -73t54 -22q19 0 36 5v-72q-24 -7 -55 -7q-73 0 -106 38t-33 122v353h88zM65 572l36 147h77l-49 -147h-64zM-61 686h78v-100h-78v100zM297 586h-78v100h78v-100z" />
    <glyph glyph-name="Alpha" unicode="&#x391;" horiz-adv-x="675" 
d="M103 0h-98l270 712h125l271 -712h-99l-77 212h-314zM210 293h255l-23 65q-49 135 -103 290h-2q-54 -155 -103 -290z" />
    <glyph glyph-name="Beta" unicode="&#x392;" horiz-adv-x="627" 
d="M583 196q0 -90 -63.5 -143t-173.5 -53h-251v712h232q117 0 178.5 -48t61.5 -133q0 -123 -118 -166v-2q64 -15 99 -58.5t35 -108.5zM187 324v-246h146q155 0 155 123t-168 123h-133zM320 401q156 0 156 117q0 116 -152 116h-137v-233h133z" />
    <glyph glyph-name="Gamma" unicode="&#x393;" horiz-adv-x="488" 
d="M95 712h383v-82h-291v-630h-92v712z" />
    <glyph glyph-name="Delta" unicode="&#x394;" horiz-adv-x="675" 
d="M5 0l271 712h125l270 -712h-666zM132 82h410l-101 276q-49 135 -103 290h-2q-54 -155 -103 -290z" />
    <glyph glyph-name="Epsilon" unicode="&#x395;" horiz-adv-x="618" 
d="M565 0h-470v712h459v-82h-367v-225h346v-81h-346v-242h378v-82z" />
    <glyph glyph-name="Zeta" unicode="&#x396;" horiz-adv-x="566" 
d="M18 88l403 541v2h-392v81h500v-88l-403 -541v-2h422v-81h-530v88z" />
    <glyph glyph-name="Eta" unicode="&#x397;" horiz-adv-x="737" 
d="M95 0v712h92v-302h363v302h93v-712h-93v329h-363v-329h-92z" />
    <glyph glyph-name="Theta" unicode="&#x398;" horiz-adv-x="732" 
d="M689 356q0 -114 -39 -196q-40 -84 -113 -129t-171 -45q-148 0 -235.5 100t-87.5 270t87.5 270t235.5 100t235.5 -100t87.5 -270zM165 509q-28 -63 -28 -153q0 -131 62 -209t167 -78t167 78t62 209q0 133 -62 210.5t-167 77.5q-70 0 -121.5 -35t-79.5 -100zM222 397h287
v-80h-287v80z" />
    <glyph glyph-name="Iota" unicode="&#x399;" horiz-adv-x="282" 
d="M95 0v712h92v-712h-92z" />
    <glyph glyph-name="Kappa" unicode="&#x39a;" horiz-adv-x="625" 
d="M95 0v712h92v-321h2l287 321h116l-311 -339l340 -373h-123l-309 350h-2v-350h-92z" />
    <glyph glyph-name="Lambda" unicode="&#x39b;" horiz-adv-x="660" 
d="M5 0l261 712h128l261 -712h-102l-124 356q-16 43 -79 230q-14 45 -19 57h-2q-5 -14 -14.5 -42t-13.5 -40q-7 -21 -69 -205l-126 -356h-101z" />
    <glyph glyph-name="Mu" unicode="&#x39c;" horiz-adv-x="934" 
d="M839 0h-90v362q0 30 2 272h-2q-40 -115 -84 -236l-145 -398h-106l-145 398q-44 121 -84 236h-2q2 -242 2 -272v-362h-90v712h148l129 -351q38 -108 94 -273h2q56 165 94 273l128 351h149v-712z" />
    <glyph glyph-name="Nu" unicode="&#x39d;" horiz-adv-x="755" 
d="M95 0v712h135l170 -307q131 -241 172 -319h2q-3 171 -3 341v285h90v-712h-136l-169 307q-92 166 -172 319h-2q3 -171 3 -341v-285h-90z" />
    <glyph glyph-name="Xi" unicode="&#x39e;" horiz-adv-x="661" 
d="M56 0v92h549v-92h-549zM591 620h-521v92h521v-92zM574 311h-487v92h487v-92z" />
    <glyph glyph-name="Omicron" unicode="&#x39f;" horiz-adv-x="732" 
d="M689 356q0 -170 -87.5 -270t-235.5 -100t-235.5 100t-87.5 270t87.5 270t235.5 100t235.5 -100t87.5 -270zM167 508q-28 -63 -28 -152q0 -131 61.5 -208.5t165.5 -77.5t165.5 77.5t61.5 208.5t-61.5 208.5t-165.5 77.5q-69 0 -120.5 -35t-78.5 -99z" />
    <glyph glyph-name="Pi" unicode="&#x3a0;" horiz-adv-x="727" 
d="M95 712h538v-712h-93v630h-353v-630h-92v712z" />
    <glyph glyph-name="Rho" unicode="&#x3a1;" horiz-adv-x="616" 
d="M95 0v712h244q119 0 184 -57t65 -158t-65 -158t-184 -57h-152v-282h-92zM332 362q79 0 120 35t41 100t-41 100t-120 35h-145v-270h145z" />
    <glyph glyph-name="Sigma" unicode="&#x3a3;" horiz-adv-x="561" 
d="M21 83l208 279l-197 269v81h496v-81h-382v-2l196 -267l-208 -279v-2h408v-81h-521v83z" />
    <glyph glyph-name="Tau" unicode="&#x3a4;" horiz-adv-x="599" 
d="M10 712h579v-82h-243v-630h-93v630h-243v82z" />
    <glyph glyph-name="Upsilon" unicode="&#x3a5;" horiz-adv-x="614" 
d="M4 712h107l87 -147q47 -78 108 -188h2q61 110 108 188l88 147h106l-257 -417v-295h-92v295z" />
    <glyph glyph-name="Phi" unicode="&#x3a6;" horiz-adv-x="791" 
d="M748 359q0 -144 -81 -222q-81 -80 -226 -87v-76h-91v76q-146 8 -226.5 88t-80.5 223q0 142 80.5 221t226.5 86v70h91v-70q145 -7 226 -86.5t81 -222.5zM194 526q-56 -59 -56 -165q0 -108 55 -167t157 -63v456q-101 -5 -156 -61zM441 587v-456q102 4 157 62.5t55 165.5
t-55 165.5t-157 62.5z" />
    <glyph glyph-name="Chi" unicode="&#x3a7;" horiz-adv-x="621" 
d="M254 365l-233 347h108l181 -277h2l180 277h108l-233 -347l247 -365h-110l-192 293h-2l-192 -293h-111z" />
    <glyph glyph-name="Psi" unicode="&#x3a8;" horiz-adv-x="781" 
d="M735 712v-221q0 -156 -71 -230t-227 -80v-181h-93v181q-154 6 -226 80.5t-72 229.5v221h93v-220q0 -117 47 -170q46 -51 158 -56v446h93v-446q112 5 159 56q47 53 47 170v220h92z" />
    <glyph glyph-name="Omega" unicode="&#x3a9;" horiz-adv-x="729" 
d="M691 81v-81h-264v84q76 77 117 152q40 73 40 165q0 116 -59 178.5t-161 62.5q-101 0 -160 -62.5t-59 -178.5q0 -91 41 -165q42 -77 116 -152v-84h-264v81h170v2q-80 83 -119.5 159.5t-39.5 168.5q0 155 86 235t229 80q144 0 230 -80t86 -235q0 -92 -39.5 -168.5
t-119.5 -159.5v-2h170z" />
    <glyph glyph-name="Iotadieresis" unicode="&#x3aa;" horiz-adv-x="282" 
d="M187 712v-712h-92v712h92zM197 916h82v-99h-82v99zM84 916v-99h-82v99h82z" />
    <glyph glyph-name="Upsilondieresis" unicode="&#x3ab;" horiz-adv-x="614" 
d="M610 712l-257 -417v-295h-92v295l-257 417h107l87 -147q47 -78 108 -188h2q61 110 108 188l88 147h106zM363 874h82v-99h-82v99zM250 874v-99h-82v99h82z" />
    <glyph glyph-name="alphatonos" unicode="&#x3ac;" horiz-adv-x="587" 
d="M545 65q15 0 24 4v-66q-27 -9 -60 -9q-43 0 -65.5 20t-29.5 65h-2q-21 -43 -63.5 -67t-95.5 -24q-97 0 -154.5 73t-57.5 194t58 193.5t155 72.5q52 0 94.5 -24.5t63.5 -66.5h2q1 36 8 78h87q-11 -71 -11 -180v-184q0 -45 10 -62t37 -17zM172 113q39 -54 104 -54
q63 0 101 53t38 143t-38 142.5t-101 52.5q-65 0 -104 -53t-39 -142t39 -142zM285 732h89l-61 -160h-69z" />
    <glyph glyph-name="epsilontonos" unicode="&#x3ad;" horiz-adv-x="493" 
d="M446 355h-90q0 95 -109 95q-48 0 -74 -20t-26 -58q0 -37 32 -59t85 -22h50v-69h-50q-129 0 -129 -86q0 -36 29.5 -57t82.5 -21q118 0 118 98h91q0 -82 -54.5 -126t-154.5 -44q-93 0 -147.5 39.5t-54.5 108.5q0 94 102 126v2q-89 34 -89 117q0 66 50 104.5t136 38.5
q94 0 148 -44.5t54 -122.5zM250 732h89l-61 -160h-69z" />
    <glyph glyph-name="etatonos" unicode="&#x3ae;" horiz-adv-x="587" 
d="M514 -185h-88v487q0 76 -29 111t-88 35q-58 0 -95 -42.5t-37 -113.5v-292h-88v359q0 46 -10.5 65t-35.5 19q-16 0 -25 -4v66q32 9 54 9q42 0 64.5 -20t30.5 -67h2q52 93 164 93q87 0 134 -54t47 -156v-495zM267 732h89l-61 -160h-69z" />
    <glyph glyph-name="iotatonos" unicode="&#x3af;" horiz-adv-x="278" 
d="M73 155v353h88v-344q0 -51 16 -73t54 -22q19 0 36 5v-72q-24 -7 -55 -7q-73 0 -106 38t-33 122zM123 732h89l-61 -160h-69z" />
    <glyph glyph-name="upsilondieresistonos" unicode="&#x3b0;" horiz-adv-x="577" 
d="M520 249q0 -263 -223 -263q-105 0 -157 47t-52 145v182q0 47 -10 64t-36 17q-13 0 -25 -3v67q27 9 55 9q56 0 80.5 -30.5t24.5 -105.5v-194q0 -65 29.5 -95t89.5 -30q136 0 136 194q0 145 -37 255h86q39 -118 39 -259zM258 719h77l-49 -147h-64zM376 586v100h78v-100h-78
zM174 686v-100h-78v100h78z" />
    <glyph glyph-name="alpha" unicode="&#x3b1;" horiz-adv-x="587" 
d="M569 69v-66q-27 -9 -60 -9q-43 0 -65.5 20t-29.5 65h-2q-21 -43 -63.5 -67t-95.5 -24q-97 0 -154.5 73t-57.5 194t58 193.5t155 72.5q52 0 94.5 -24.5t63.5 -66.5h2q1 36 8 78h87q-11 -71 -11 -180v-184q0 -45 10 -62t37 -17q15 0 24 4zM133 255q0 -89 39 -142
q39 -54 104 -54q63 0 101 53t38 143t-38 142.5t-101 52.5q-65 0 -104 -53t-39 -142z" />
    <glyph glyph-name="beta" unicode="&#x3b2;" horiz-adv-x="583" 
d="M544 194q0 -95 -60 -149q-61 -55 -166 -55q-112 0 -150 65h-2v-240h-88v662q0 122 56 185.5t164 63.5q96 0 151.5 -47.5t55.5 -128.5q0 -63 -31.5 -105t-89.5 -57v-2q76 -13 118 -61t42 -131zM198 613q-32 -44 -32 -134v-288q0 -62 35.5 -96t103.5 -34q70 0 109.5 37
t39.5 104q0 74 -47 109t-146 35h-16v75h16q78 0 118 31.5t40 89.5q0 53 -31 83t-88 30q-70 0 -102 -42z" />
    <glyph glyph-name="gamma" unicode="&#x3b3;" horiz-adv-x="522" 
d="M508 508q-15 -140 -62 -256q-46 -114 -140 -245v-13q0 -95 -11 -179h-88q11 84 11 179q0 73 -26 180q-25 103 -71 191q-23 44 -43 61t-46 17q-12 0 -23 -3v67q20 7 51 7q43 0 71.5 -22t57.5 -80q36 -73 59 -153t31 -153h2q61 101 94 196q31 93 42 206h91z" />
    <glyph glyph-name="delta" unicode="&#x3b4;" horiz-adv-x="566" 
d="M524 227q0 -73 -30 -127q-30 -55 -84.5 -84.5t-126.5 -29.5q-109 0 -175.5 65.5t-66.5 174.5q0 93 47.5 157.5t137.5 94.5v2q-71 44 -94 68.5t-26 69.5q0 104 157 104q110 0 209 -30v-78q-100 38 -199 38q-75 0 -75 -39q0 -22 29 -42q30 -22 101 -59
q101 -54 148.5 -121.5t47.5 -163.5zM174 361q-41 -55 -41 -135q0 -76 41 -122q40 -46 109 -46q68 0 108.5 45.5t40.5 124.5q0 72 -34.5 122t-108.5 89q-75 -26 -115 -78z" />
    <glyph glyph-name="epsilon" unicode="&#x3b5;" horiz-adv-x="493" 
d="M456 156q0 -82 -54 -126q-56 -44 -155 -44q-93 0 -147.5 39.5t-54.5 108.5q0 94 102 126v2q-89 34 -89 117q0 66 50 104.5t136 38.5q94 0 148 -44.5t54 -122.5h-90q0 95 -109 95q-48 0 -74 -20t-26 -58q0 -37 32 -59t85 -22h50v-69h-50q-129 0 -129 -86q0 -36 29.5 -57
t82.5 -21q118 0 118 98h91z" />
    <glyph glyph-name="zeta" unicode="&#x3b6;" horiz-adv-x="453" 
d="M426 712v-68q-142 -83 -218 -186t-76 -221q0 -70 37.5 -105.5t124.5 -47.5q78 -10 112 -41.5t34 -89.5q0 -52 -25 -98h-75q19 37 19 77q0 37 -22.5 55t-80.5 24q-111 12 -163 64t-52 148q0 122 74 231q73 106 199 188v2h-247v68h359z" />
    <glyph glyph-name="eta" unicode="&#x3b7;" horiz-adv-x="587" 
d="M514 310v-495h-88v487q0 76 -29 111t-88 35q-58 0 -95 -42.5t-37 -113.5v-292h-88v359q0 46 -10.5 65t-35.5 19q-16 0 -25 -4v66q32 9 54 9q42 0 64.5 -20t30.5 -67h2q52 93 164 93q87 0 134 -54t47 -156z" />
    <glyph glyph-name="theta" unicode="&#x3b8;" horiz-adv-x="594" 
d="M484 628q67 -97 67 -272t-67 -272t-188 -97q-120 0 -186 97q-67 97 -67 272t67 272q66 97 186 97q121 0 188 -97zM181 586q-44 -71 -48 -197h328q-5 127 -48 196.5t-117 69.5q-73 0 -115 -69zM133 323q4 -127 48 -196q42 -70 115 -70q74 0 117 69.5t48 196.5h-328z" />
    <glyph glyph-name="iota" unicode="&#x3b9;" horiz-adv-x="278" 
d="M73 508h88v-344q0 -51 16 -73t54 -22q19 0 36 5v-72q-24 -7 -55 -7q-73 0 -106 38t-33 122v353z" />
    <glyph glyph-name="kappa" unicode="&#x3ba;" horiz-adv-x="522" 
d="M510 508v-75q-12 4 -27 4q-41 0 -82 -27q-38 -25 -104 -99l-30 -33l261 -278h-114l-202 216l-47 -53v-163h-88v508h88v-239h2l106 122q63 72 106 97q41 25 95 25q18 0 36 -5z" />
    <glyph glyph-name="lambda" unicode="&#x3bb;" horiz-adv-x="564" 
d="M555 68v-68q-20 -5 -39 -5q-52 0 -81.5 26.5t-57.5 105.5l-105 280h-2l-180 -407h-96l234 508q-30 80 -58 109q-29 29 -72 29q-25 0 -47 -8v70q23 10 64 10q75 -2 117 -43t89 -161l133 -350q21 -56 39.5 -77t44.5 -21q3 0 17 2z" />
    <glyph glyph-name="mu" unicode="&#x3bc;" horiz-adv-x="583" 
d="M570 3q-27 -9 -60 -9q-42 0 -64.5 19.5t-28.5 62.5h-2q-18 -38 -56 -60.5t-86 -22.5q-74 0 -107 42v-220h-88v693h88v-301q0 -76 28 -110t85 -34q58 0 95 42t37 113v290h88v-363q0 -45 10.5 -61.5t36.5 -16.5q12 0 24 3v-67z" />
    <glyph glyph-name="nu" unicode="&#x3bd;" horiz-adv-x="511" 
d="M490 508q4 -17 4 -44q-2 -91 -34 -177t-138 -287h-111l-112 351q-17 52 -33 71.5t-40 19.5q-7 0 -17 -2v65q21 8 46 8q48 0 77 -31t50 -105l90 -299h2q76 148 105 234q27 84 27 156q0 20 -3 40h87z" />
    <glyph glyph-name="xi" unicode="&#x3be;" horiz-adv-x="461" 
d="M447 -47q0 -52 -25 -98h-75q19 37 19 77q0 37 -24 56t-85 24q-216 19 -216 183q0 143 148 177v2q-51 14 -79 48.5t-28 84.5q0 98 89 135v2h-110v68h381v-68h-77q-97 0 -148.5 -34t-51.5 -97q0 -50 40.5 -77.5t107.5 -27.5h90v-68h-78q-96 0 -144 -35t-48 -100
q0 -56 38 -83.5t130 -37.5q77 -8 111.5 -40.5t34.5 -90.5z" />
    <glyph glyph-name="omicron" unicode="&#x3bf;" horiz-adv-x="565" 
d="M106 450q64 72 176 72t177 -72q65 -73 65 -196t-65 -196q-65 -72 -177 -72t-176 72q-65 73 -65 196t65 196zM133 254q0 -91 40 -143.5t109 -52.5q70 0 110 52.5t40 143.5t-40 143.5t-110 52.5q-69 0 -109 -52.5t-40 -143.5z" />
    <glyph glyph-name="pi" unicode="&#x3c0;" horiz-adv-x="652" 
d="M633 508v-70h-117v-281q0 -51 16.5 -71.5t52.5 -20.5q15 0 30 4v-67q-26 -8 -60 -8q-65 0 -96 35.5t-31 117.5v291h-225v-438h-88v438h-103v70h621z" />
    <glyph glyph-name="rho" unicode="&#x3c1;" horiz-adv-x="578" 
d="M507 396q29 -63 29 -144q0 -121 -62 -192t-168 -71q-104 0 -143 69h-2v-243h-88v439q0 121 62 194.5t164 73.5q147 0 208 -126zM195 397q-37 -52 -37 -143t37 -141q37 -52 101 -52q69 0 108.5 51t39.5 142t-39.5 143t-108.5 52q-64 0 -101 -52z" />
    <glyph glyph-name="sigma1" unicode="&#x3c2;" horiz-adv-x="516" 
d="M431 469q56 -53 64 -146h-91q-5 60 -39 93.5t-93 33.5q-66 0 -104 -46t-38 -128t39 -124.5t126 -53.5q80 -11 115.5 -46t35.5 -99q0 -48 -26 -98h-76q20 38 20 77q0 43 -24 63.5t-86 27.5q-216 25 -216 245q0 120 62.5 187t171.5 67q100 0 159 -53z" />
    <glyph glyph-name="sigma" unicode="&#x3c3;" horiz-adv-x="594" 
d="M582 508v-68h-144v-2q85 -56 85 -194q0 -118 -65.5 -188t-175.5 -70t-175.5 71t-65.5 191t65 191q65 69 176 69h300zM134 249q0 -91 39 -140q39 -51 109 -51q72 0 111 50.5t39 140.5q0 91 -39 141.5t-111 50.5q-70 0 -109 -50.5t-39 -141.5z" />
    <glyph glyph-name="tau" unicode="&#x3c4;" horiz-adv-x="467" 
d="M12 508h443v-68h-185v-283q0 -51 16.5 -71.5t52.5 -20.5q15 0 30 4v-67q-26 -8 -60 -8q-65 0 -96 35.5t-31 117.5v293h-170v68z" />
    <glyph glyph-name="upsilon" unicode="&#x3c5;" horiz-adv-x="577" 
d="M481 508q39 -118 39 -259q0 -263 -223 -263q-105 0 -157 47t-52 145v182q0 47 -10 64t-36 17q-13 0 -25 -3v67q27 9 55 9q56 0 80.5 -30.5t24.5 -105.5v-194q0 -65 29.5 -95t89.5 -30q136 0 136 194q0 145 -37 255h86z" />
    <glyph glyph-name="phi" unicode="&#x3c6;" horiz-adv-x="755" 
d="M714 254q0 -123 -79 -193q-80 -71 -215 -75v-171h-85v171q-136 3 -215 75t-79 193t79 193t215 75v140h85v-140q135 -4 215 -75q79 -70 79 -193zM185 399q-54 -53 -54 -145t54 -144q54 -54 150 -55v398q-97 -1 -150 -54zM420 453v-398q97 3 150 55t53 144t-53 144t-150 55
z" />
    <glyph glyph-name="chi" unicode="&#x3c7;" horiz-adv-x="572" 
d="M561 -116v-66q-29 -9 -61 -9q-55 0 -87 25q-33 25 -63 95l-66 154h-2l-173 -268h-99l228 344l-88 198q-24 55 -45 73q-22 17 -58 17q-21 0 -38 -6v66q27 11 60 11q59 0 91 -25q34 -26 62 -93l69 -162h2l168 270h99l-221 -348l84 -191q24 -56 46 -72q22 -17 54 -17
q17 0 38 4z" />
    <glyph glyph-name="psi" unicode="&#x3c8;" horiz-adv-x="768" 
d="M669 508q41 -115 41 -256q0 -252 -277 -262v-175h-88v175q-136 4 -204 59.5t-68 168.5v290h88v-279q0 -82 45 -122.5t139 -45.5v601h88v-600q189 9 189 196q0 143 -40 250h87z" />
    <glyph glyph-name="omega" unicode="&#x3c9;" horiz-adv-x="781" 
d="M707 373q16 -71 16 -149q0 -237 -182 -237q-118 0 -150 95h-1q-32 -95 -150 -95q-182 0 -182 237q0 157 65 284h92q-66 -124 -66 -275q0 -175 106 -175q92 0 92 119v205h88v-205q0 -119 91 -119q107 0 107 175q0 151 -66 275h91q33 -67 49 -135z" />
    <glyph glyph-name="iotadieresis" unicode="&#x3ca;" horiz-adv-x="278" 
d="M267 2q-24 -7 -55 -7q-73 0 -106 38t-33 122v353h88v-344q0 -51 16 -73t54 -22q19 0 36 5v-72zM174 613v99h82v-99h-82zM-21 712h82v-99h-82v99z" />
    <glyph glyph-name="upsilondieresis" unicode="&#x3cb;" horiz-adv-x="577" 
d="M520 249q0 -263 -223 -263q-105 0 -157 47t-52 145v182q0 47 -10 64t-36 17q-13 0 -25 -3v67q27 9 55 9q56 0 80.5 -30.5t24.5 -105.5v-194q0 -65 29.5 -95t89.5 -30q136 0 136 194q0 145 -37 255h86q39 -118 39 -259zM331 613v99h82v-99h-82zM136 613v99h82v-99h-82z
" />
    <glyph glyph-name="omicrontonos" unicode="&#x3cc;" horiz-adv-x="565" 
d="M459 58q-65 -72 -177 -72t-176 72q-65 73 -65 196t65 196q64 72 176 72t177 -72q65 -73 65 -196t-65 -196zM173 111q41 -53 109 -53q70 0 110 52.5t40 143.5t-40 143.5t-110 52.5q-69 0 -109 -52.5t-40 -143.5t40 -143zM288 732h89l-61 -160h-69z" />
    <glyph glyph-name="upsilontonos" unicode="&#x3cd;" horiz-adv-x="577" 
d="M520 249q0 -263 -223 -263q-105 0 -157 47t-52 145v182q0 47 -10 64t-36 17q-13 0 -25 -3v67q27 9 55 9q56 0 80.5 -30.5t24.5 -105.5v-194q0 -65 29.5 -95t89.5 -30q136 0 136 194q0 145 -37 255h86q39 -118 39 -259zM280 732h89l-61 -160h-69z" />
    <glyph glyph-name="omegatonos" unicode="&#x3ce;" horiz-adv-x="781" 
d="M723 224q0 -237 -182 -237q-118 0 -150 95h-1q-32 -95 -150 -95q-182 0 -182 237q0 157 65 284h92q-66 -124 -66 -275q0 -175 106 -175q92 0 92 119v205h88v-205q0 -119 91 -119q107 0 107 175q0 151 -66 275h91q65 -127 65 -284zM355 572l41 160h89l-61 -160h-69z" />
    <glyph glyph-name="uni0400" unicode="&#x400;" horiz-adv-x="618" 
d="M95 712h459v-82h-367v-225h346v-81h-346v-242h378v-82h-470v712zM305 898l86 -138h-76l-123 138h113z" />
    <glyph glyph-name="afii10023" unicode="&#x401;" horiz-adv-x="618" 
d="M565 0h-470v712h459v-82h-367v-225h346v-81h-346v-242h378v-82zM463 874v-99h-82v99h82zM186 775v99h82v-99h-82z" />
    <glyph glyph-name="afii10051" unicode="&#x402;" horiz-adv-x="774" 
d="M683 392q63 -62 63 -172q0 -107 -64 -168q-64 -63 -176 -63q-51 0 -87 11v81q35 -11 79 -11q74 0 115 40t41 110q0 74 -41 113t-119 39q-84 0 -148 -37v-335h-93v630h-243v82h579v-82h-243v-214q70 37 158 37q117 0 179 -61z" />
    <glyph glyph-name="afii10052" unicode="&#x403;" horiz-adv-x="488" 
d="M95 0v712h383v-82h-291v-630h-92zM305 898h113l-123 -138h-76z" />
    <glyph glyph-name="afii10053" unicode="&#x404;" horiz-adv-x="693" 
d="M603 603q35 -59 39 -132h-95q-8 79 -59 125t-131 46q-93 0 -150.5 -65t-65.5 -180h316v-81h-317q9 -116 65.5 -181t149.5 -65q79 0 131 47t63 128h96q-10 -119 -88 -189q-76 -70 -202 -70q-145 0 -228.5 99t-83.5 271t84 271t230 99q169 0 246 -123z" />
    <glyph glyph-name="afii10054" unicode="&#x405;" horiz-adv-x="609" 
d="M560 196q0 -95 -70 -152.5t-185 -57.5q-127 0 -196.5 64.5t-69.5 185.5h95q0 -85 44.5 -128t127.5 -43q76 0 117.5 33t41.5 93q0 70 -72 98q-36 13 -102 30q-88 22 -134.5 43.5t-74.5 59.5q-30 40 -30 108q0 86 65 141t171 55q255 0 255 -234h-93q0 155 -163 155
q-66 0 -103.5 -30t-37.5 -81q3 -55 37 -78t135 -49q80 -19 132 -41q47 -20 80 -62q30 -41 30 -110z" />
    <glyph glyph-name="afii10055" unicode="&#x406;" horiz-adv-x="282" 
d="M187 712v-712h-92v712h92z" />
    <glyph glyph-name="afii10056" unicode="&#x407;" horiz-adv-x="282" 
d="M187 712v-712h-92v712h92zM197 874h82v-99h-82v99zM84 874v-99h-82v99h82z" />
    <glyph glyph-name="afii10057" unicode="&#x408;" horiz-adv-x="356" 
d="M15 1v82q30 -5 43 -5q60 0 88 32.5t28 105.5v496h92v-508q0 -209 -201 -209q-31 0 -50 6z" />
    <glyph glyph-name="afii10058" unicode="&#x409;" horiz-adv-x="1042" 
d="M1014 215q0 -100 -64 -157q-64 -58 -185 -58h-245v630h-257q-6 -271 -28 -403q-23 -135 -66 -183q-43 -49 -121 -49q-19 0 -36 5v77q10 -2 18 -2q53 0 82 47q28 46 42 181q14 140 20 409h439v-282h152q119 0 184 -57t65 -158zM613 350v-270h145q79 0 120 35t41 100
t-41 100t-120 35h-145z" />
    <glyph glyph-name="afii10059" unicode="&#x40a;" horiz-adv-x="1072" 
d="M1044 215q0 -100 -64 -157q-64 -58 -185 -58h-245v338h-363v-338h-92v712h92v-292h363v292h93v-282h152q119 0 184 -57t65 -158zM788 350h-145v-270h145q79 0 120 35t41 100t-41 100t-120 35z" />
    <glyph glyph-name="afii10060" unicode="&#x40b;" horiz-adv-x="772" 
d="M736 220v-220h-92v207q0 71 -37 108.5t-107 37.5q-85 0 -154 -24v-329h-93v630h-243v82h579v-82h-243v-221q75 25 172 25q105 0 161.5 -55.5t56.5 -158.5z" />
    <glyph glyph-name="afii10061" unicode="&#x40c;" horiz-adv-x="625" 
d="M189 391l287 321h116l-311 -339l340 -373h-123l-309 350h-2v-350h-92v712h92v-321h2zM341 898h113l-123 -138h-76z" />
    <glyph glyph-name="uni040D" unicode="&#x40d;" horiz-adv-x="755" 
d="M661 0h-90v285q0 170 3 341h-2q-41 -78 -172 -319l-170 -307h-135v712h90v-285q0 -170 -3 -341h2q80 153 172 319l169 307h136v-712zM242 898h113l86 -138h-76z" />
    <glyph glyph-name="afii10062" unicode="&#x40e;" horiz-adv-x="649" 
d="M645 712l-284 -576q-38 -77 -84.5 -110.5t-110.5 -33.5q-36 0 -65 8v80q19 -6 49 -6q43 0 72 21t52 71l-269 546h101l107 -229q90 -194 110 -237h2q19 40 59.5 127t50.5 109l109 230h101zM169 898h66q4 -38 27.5 -59t62.5 -21q79 0 90 80h65q-5 -68 -45.5 -105
t-109.5 -37q-70 0 -110.5 37t-45.5 105z" />
    <glyph glyph-name="afii10145" unicode="&#x40f;" horiz-adv-x="727" 
d="M95 0v712h92v-630h353v630h93v-712h-227v-160h-88v160h-223z" />
    <glyph glyph-name="afii10017" unicode="&#x410;" horiz-adv-x="675" 
d="M275 712h125l271 -712h-99l-77 212h-314l-78 -212h-98zM210 293h255l-23 65q-49 135 -103 290h-2q-54 -155 -103 -290z" />
    <glyph glyph-name="afii10018" unicode="&#x411;" horiz-adv-x="632" 
d="M550 712v-80h-363v-213h168q111 0 174 -56.5t63 -153.5t-63 -153t-174 -56h-260v712h455zM187 80h151q77 0 117.5 33.5t40.5 95.5q0 63 -40.5 96.5t-117.5 33.5h-151v-259z" />
    <glyph glyph-name="afii10019" unicode="&#x412;" horiz-adv-x="627" 
d="M583 196q0 -90 -63.5 -143t-173.5 -53h-251v712h232q117 0 178.5 -48t61.5 -133q0 -123 -118 -166v-2q64 -15 99 -58.5t35 -108.5zM187 324v-246h146q155 0 155 123t-168 123h-133zM320 401q156 0 156 117q0 116 -152 116h-137v-233h133z" />
    <glyph glyph-name="afii10020" unicode="&#x413;" horiz-adv-x="488" 
d="M95 712h383v-82h-291v-630h-92v712z" />
    <glyph glyph-name="afii10021" unicode="&#x414;" horiz-adv-x="731" 
d="M710 82v-242h-88v160h-517v-160h-88v242h72q36 65 57 205q21 148 25 425h457v-630h82zM190 82h345v548h-275q-4 -210 -23 -345q-18 -129 -47 -203z" />
    <glyph glyph-name="afii10022" unicode="&#x415;" horiz-adv-x="618" 
d="M95 712h459v-82h-367v-225h346v-81h-346v-242h378v-82h-470v712z" />
    <glyph glyph-name="afii10024" unicode="&#x416;" horiz-adv-x="877" 
d="M872 0h-114l-272 362h-2v-362h-91v362h-2l-273 -362h-113l291 373l-264 339h111l248 -333h2v333h91v-333h2l248 333h111l-264 -339z" />
    <glyph glyph-name="afii10025" unicode="&#x417;" horiz-adv-x="614" 
d="M570 187q0 -59 -32 -105q-69 -96 -233 -96q-129 0 -200 60t-71 168h99q0 -71 44 -108.5t128 -37.5q77 0 121 33t44 89q0 63 -49 96t-141 33h-53v80h53q82 0 129.5 33.5t47.5 90.5q0 55 -42.5 87.5t-115.5 32.5q-76 0 -117.5 -36.5t-41.5 -105.5h-99q0 105 70 165
q71 59 192 59q118 0 185.5 -52t67.5 -142q0 -62 -32 -101.5t-97 -63.5v-2q73 -22 108 -64.5t35 -112.5z" />
    <glyph glyph-name="afii10026" unicode="&#x418;" horiz-adv-x="755" 
d="M230 0h-135v712h90v-285q0 -170 -3 -341h2q80 153 172 319l169 307h136v-712h-90v285q0 170 3 341h-2q-41 -78 -172 -319z" />
    <glyph glyph-name="afii10027" unicode="&#x419;" horiz-adv-x="755" 
d="M661 0h-90v285q0 170 3 341h-2q-41 -78 -172 -319l-170 -307h-135v712h90v-285q0 -170 -3 -341h2q80 153 172 319l169 307h136v-712zM285 898q4 -38 27.5 -59t62.5 -21q79 0 90 80h65q-5 -68 -45.5 -105t-109.5 -37q-70 0 -110.5 37t-45.5 105h66z" />
    <glyph glyph-name="afii10028" unicode="&#x41a;" horiz-adv-x="625" 
d="M95 712h92v-321h2l287 321h116l-311 -339l340 -373h-123l-309 350h-2v-350h-92v712z" />
    <glyph glyph-name="afii10029" unicode="&#x41b;" horiz-adv-x="707" 
d="M12 0v77q10 -2 18 -2q53 0 82 47q28 46 42 181q14 140 20 409h439v-712h-93v630h-257q-6 -271 -28 -403q-23 -135 -66 -183q-43 -49 -121 -49q-19 0 -36 5z" />
    <glyph glyph-name="afii10030" unicode="&#x41c;" horiz-adv-x="934" 
d="M839 0h-90v362q0 30 2 272h-2q-40 -115 -84 -236l-145 -398h-106l-145 398q-44 121 -84 236h-2q2 -242 2 -272v-362h-90v712h148l129 -351q38 -108 94 -273h2q56 165 94 273l128 351h149v-712z" />
    <glyph glyph-name="afii10031" unicode="&#x41d;" horiz-adv-x="737" 
d="M187 712v-302h363v302h93v-712h-93v329h-363v-329h-92v712h92z" />
    <glyph glyph-name="afii10032" unicode="&#x41e;" horiz-adv-x="732" 
d="M689 356q0 -170 -87.5 -270t-235.5 -100t-235.5 100t-87.5 270t87.5 270t235.5 100t235.5 -100t87.5 -270zM139 356q0 -131 61.5 -208.5t165.5 -77.5t165.5 77.5t61.5 208.5t-61.5 208.5t-165.5 77.5t-165.5 -77.5t-61.5 -208.5z" />
    <glyph glyph-name="afii10033" unicode="&#x41f;" horiz-adv-x="727" 
d="M95 712h538v-712h-93v630h-353v-630h-92v712z" />
    <glyph glyph-name="afii10034" unicode="&#x420;" horiz-adv-x="616" 
d="M95 0v712h244q119 0 184 -57t65 -158t-65 -158t-184 -57h-152v-282h-92zM332 362q79 0 120 35t41 100t-41 100t-120 35h-145v-270h145z" />
    <glyph glyph-name="afii10035" unicode="&#x421;" horiz-adv-x="689" 
d="M638 471h-95q-7 79 -57.5 125t-130.5 46q-101 0 -158 -76q-58 -76 -58 -210q0 -132 57 -209t156 -77q79 0 131 47t63 128h96q-10 -119 -88 -189q-76 -70 -202 -70q-143 0 -226 99.5t-83 270.5q0 172 83.5 271t228.5 99q125 0 201 -70.5t82 -184.5z" />
    <glyph glyph-name="afii10036" unicode="&#x422;" horiz-adv-x="599" 
d="M10 712h579v-82h-243v-630h-93v630h-243v82z" />
    <glyph glyph-name="afii10037" unicode="&#x423;" horiz-adv-x="649" 
d="M101 80q19 -6 49 -6q43 0 72 21t52 71l-269 546h101l107 -229q90 -194 110 -237h2q19 40 59.5 127t50.5 109l109 230h101l-284 -576q-38 -77 -84.5 -110.5t-110.5 -33.5q-36 0 -65 8v80z" />
    <glyph glyph-name="afii10038" unicode="&#x424;" horiz-adv-x="827" 
d="M784 356q0 -135 -86 -215t-239 -86v-79h-91v79q-153 6 -239 86t-86 215q0 136 86 216q85 79 239 85v79h91v-79q154 -6 239 -85q86 -80 86 -216zM200 511q-61 -58 -61 -155t61 -155t168 -65v440q-108 -8 -168 -65zM459 576v-440q107 7 168 65t61 155t-61 155t-168 65z" />
    <glyph glyph-name="afii10039" unicode="&#x425;" horiz-adv-x="621" 
d="M254 365l-233 347h108l181 -277h2l180 277h108l-233 -347l247 -365h-110l-192 293h-2l-192 -293h-111z" />
    <glyph glyph-name="afii10040" unicode="&#x426;" horiz-adv-x="739" 
d="M95 712h92v-630h353v630h93v-630h82v-242h-88v160h-532v712z" />
    <glyph glyph-name="afii10041" unicode="&#x427;" horiz-adv-x="643" 
d="M36 484v228h93v-214q0 -71 41.5 -108.5t121.5 -37.5q89 0 164 24v336h93v-712h-93v296q-81 -25 -183 -25q-114 0 -175.5 55.5t-61.5 157.5z" />
    <glyph glyph-name="afii10042" unicode="&#x428;" horiz-adv-x="1020" 
d="M95 0v712h92v-630h277v630h93v-630h277v630h92v-712h-831z" />
    <glyph glyph-name="afii10043" unicode="&#x429;" horiz-adv-x="1029" 
d="M920 0h-825v712h92v-630h277v630h93v-630h277v630h92v-630h82v-242h-88v160z" />
    <glyph glyph-name="afii10044" unicode="&#x42a;" horiz-adv-x="745" 
d="M653 373q64 -58 64 -158t-64 -157q-64 -58 -185 -58h-245v630h-213v82h306v-282h152q120 0 185 -57zM461 350h-145v-270h145q79 0 120 35t41 100t-41 100t-120 35z" />
    <glyph glyph-name="afii10045" unicode="&#x42b;" horiz-adv-x="898" 
d="M339 0h-244v712h92v-282h152q119 0 184 -57t65 -158t-65 -158t-184 -57zM187 80h145q79 0 120 35t41 100t-41 100t-120 35h-145v-270zM803 712v-712h-93v712h93z" />
    <glyph glyph-name="afii10046" unicode="&#x42c;" horiz-adv-x="616" 
d="M95 712h92v-282h152q119 0 184 -57t65 -158t-65 -158t-184 -57h-244v712zM332 350h-145v-270h145q79 0 120 35t41 100t-41 100t-120 35z" />
    <glyph glyph-name="afii10047" unicode="&#x42d;" horiz-adv-x="693" 
d="M650 356q0 -116 -37 -197q-38 -84 -108.5 -128.5t-166.5 -44.5q-126 0 -202 70q-78 70 -88 189h95q11 -81 63 -128t132 -47q93 0 149.5 65t65.5 181h-317v81h316q-8 115 -65.5 180t-150.5 65q-80 0 -131 -46t-59 -125h-95q6 114 82.5 184.5t202.5 70.5q145 0 229.5 -99.5
t84.5 -270.5z" />
    <glyph glyph-name="afii10048" unicode="&#x42e;" horiz-adv-x="984" 
d="M942 356q0 -112 -38 -196t-108 -129t-163 -45q-132 0 -214.5 88.5t-93.5 241.5h-138v-316h-92v712h92v-315h138q11 152 93.5 240.5t214.5 88.5q141 0 225 -100t84 -270zM420 356q0 -130 58 -208t155 -78t154.5 77.5t57.5 208.5t-57.5 208.5t-154.5 77.5t-155 -78
t-58 -208z" />
    <glyph glyph-name="afii10049" unicode="&#x42f;" horiz-adv-x="629" 
d="M535 712v-712h-93v297h-150q-28 0 -35 1l-147 -298h-104l165 315q-128 47 -128 192q0 98 63.5 151.5t185.5 53.5h243zM179 602q-42 -32 -42 -95q0 -62 39.5 -97t116.5 -35h149v258h-142q-80 0 -121 -31z" />
    <glyph glyph-name="afii10065" unicode="&#x430;" horiz-adv-x="531" 
d="M471 0h-80q-7 29 -7 74h-2q-56 -85 -176 -85q-78 0 -125 42q-47 41 -47 107q0 67 44.5 105t148.5 55q78 13 147 17v20q0 119 -115 119q-53 0 -83.5 -27t-32.5 -74h-88q4 76 58 122.5t146 46.5q96 0 148 -50t52 -147v-195q0 -78 12 -130zM124 144q0 -40 28 -63.5t76 -23.5
q65 0 105 40q23 24 32 49.5t9 70.5v31q-83 -6 -133 -16q-64 -10 -90.5 -30t-26.5 -58z" />
    <glyph glyph-name="afii10066" unicode="&#x431;" horiz-adv-x="575" 
d="M509 726v-78q-44 -12 -164 -23q-121 -12 -166 -60t-62 -172h2q45 110 177 110q107 0 171 -68t64 -184q0 -123 -65 -194t-177 -71q-114 0 -177.5 75.5t-63.5 212.5q1 160 30.5 250t87.5 128.5t163 48.5q133 12 180 25zM174 385q-35 -50 -35 -132q0 -92 39.5 -143.5
t110.5 -51.5t110.5 49t39.5 137q0 89 -41 139.5t-112 50.5q-78 0 -112 -49z" />
    <glyph glyph-name="afii10067" unicode="&#x432;" horiz-adv-x="527" 
d="M456 220q26 -32 26 -78q0 -68 -48.5 -105t-136.5 -37h-219v508h204q92 0 140.5 -35t48.5 -99q0 -88 -88 -113v-2q46 -9 73 -39zM274 228h-110v-163h110q118 0 118 81q0 82 -118 82zM270 443h-106v-154h106q112 0 112 77t-112 77z" />
    <glyph glyph-name="afii10068" unicode="&#x433;" horiz-adv-x="417" 
d="M78 0v508h326v-70h-238v-438h-88z" />
    <glyph glyph-name="afii10069" unicode="&#x434;" horiz-adv-x="584" 
d="M71 70q29 44 47 139q18 102 25 299h359v-438h69v-230h-88v160h-384v-160h-88v230h60zM171 70h243v368h-186q-14 -265 -57 -368z" />
    <glyph glyph-name="afii10070" unicode="&#x435;" horiz-adv-x="550" 
d="M509 236h-380q3 -88 43.5 -135t107.5 -47q53 0 89 26.5t45 71.5h90q-14 -72 -72 -118q-58 -48 -152 -48q-111 0 -175 75t-64 200q0 115 64.5 188t171.5 73q85 0 143.5 -47t78.5 -130q10 -39 10 -109zM130 303h292q-7 72 -45.5 111.5t-99.5 39.5q-63 0 -101.5 -39.5
t-45.5 -111.5z" />
    <glyph glyph-name="afii10072" unicode="&#x436;" horiz-adv-x="688" 
d="M697 0h-114l-194 267h-2v-267h-86v267h-2l-194 -267h-114l218 278l-194 230h107l177 -223h2v223h86v-223h2l177 223h107l-194 -230z" />
    <glyph glyph-name="afii10073" unicode="&#x437;" horiz-adv-x="490" 
d="M419 214q26 -31 26 -80q0 -69 -54.5 -108.5t-147.5 -39.5q-100 0 -154.5 44t-54.5 126h91q0 -98 118 -98q52 0 82 21t30 57q0 86 -129 86h-51v69h51q53 0 85 22t32 59q0 38 -26.5 58t-74.5 20q-108 0 -108 -95h-90q0 78 54 122.5t147 44.5q86 0 136.5 -38.5t50.5 -104.5
q0 -83 -89 -117v-2q51 -17 76 -46z" />
    <glyph glyph-name="afii10074" unicode="&#x438;" horiz-adv-x="622" 
d="M78 0v508h90v-196q0 -114 -3 -228h2q46 91 118 211l125 213h134v-508h-90v196q0 114 3 228h-2q-44 -84 -118 -211l-125 -213h-134z" />
    <glyph glyph-name="afii10075" unicode="&#x439;" horiz-adv-x="622" 
d="M544 0h-90v196q0 114 3 228h-2q-44 -84 -118 -211l-125 -213h-134v508h90v-196q0 -114 -3 -228h2q46 91 118 211l125 213h134v-508zM222 712q4 -39 27.5 -60t62.5 -21q79 0 90 81h65q-5 -68 -45.5 -105.5t-109.5 -37.5t-110 37.5t-46 105.5h66z" />
    <glyph glyph-name="afii10076" unicode="&#x43a;" horiz-adv-x="517" 
d="M78 508h88v-211h2l205 211h109l-228 -230l255 -278h-116l-225 254h-2v-254h-88v508z" />
    <glyph glyph-name="afii10077" unicode="&#x43b;" horiz-adv-x="551" 
d="M6 0v67q14 -2 20 -2q38 0 59 33q21 35 31 127q11 100 14 283h343v-508h-88v438h-172q-6 -186 -24 -280t-50.5 -127t-95.5 -35q-24 0 -37 4z" />
    <glyph glyph-name="afii10078" unicode="&#x43c;" horiz-adv-x="768" 
d="M690 508v-508h-85v247q0 21 2 189h-1l-18 -47q-5 -14 -24 -65q-6 -17 -17 -44t-14 -34l-96 -246h-106l-105 265l-64 171h-2q2 -168 2 -189v-247h-84v508h142l91 -234q37 -94 72 -195h2q38 112 71 195l92 234h142z" />
    <glyph glyph-name="afii10079" unicode="&#x43d;" horiz-adv-x="589" 
d="M78 0v508h88v-218h257v218h88v-508h-88v220h-257v-220h-88z" />
    <glyph glyph-name="afii10080" unicode="&#x43e;" horiz-adv-x="565" 
d="M106 58q-65 73 -65 196t65 196q64 72 176 72t177 -72q65 -73 65 -196t-65 -196q-65 -72 -177 -72t-176 72zM133 254q0 -91 40 -143.5t109 -52.5q70 0 110 52.5t40 143.5t-40 143.5t-110 52.5q-69 0 -109 -52.5t-40 -143.5z" />
    <glyph glyph-name="afii10081" unicode="&#x43f;" horiz-adv-x="581" 
d="M78 508h425v-508h-88v438h-249v-438h-88v508z" />
    <glyph glyph-name="afii10082" unicode="&#x440;" 
d="M535 255q0 -121 -57.5 -194t-154.5 -73q-51 0 -92.5 22.5t-62.5 61.5h-2v-257h-88v693h87v-73h2q20 40 62 63t93 23q97 0 155 -72.5t58 -193.5zM200 112q38 -53 100 -53q65 0 104 53.5t39 142.5t-39 142t-104 53q-63 0 -100.5 -52.5t-37.5 -142.5t38 -143z" />
    <glyph glyph-name="afii10083" unicode="&#x441;" horiz-adv-x="534" 
d="M464 84q-28 -46 -76 -72t-108 -26q-110 0 -174.5 72t-64.5 196t64.5 196t174.5 72q90 0 149.5 -54t67.5 -140h-92q-5 54 -40 88t-86 34q-67 0 -106 -52.5t-39 -143.5t38.5 -143.5t106.5 -52.5q51 0 86 36t40 93h92q-4 -58 -33 -103z" />
    <glyph glyph-name="afii10084" unicode="&#x442;" horiz-adv-x="451" 
d="M7 508l437 -1v-69h-173v-438h-90v438h-174v70z" />
    <glyph glyph-name="afii10085" unicode="&#x443;" horiz-adv-x="472" 
d="M61 -116q51 0 76 23t50 91l-193 510h95l146 -404h2l148 404h93l-204 -531q-38 -98 -81 -131t-128 -35q-28 0 -46 5v74q18 -6 42 -6z" />
    <glyph glyph-name="afii10086" unicode="&#x444;" horiz-adv-x="787" 
d="M41 255q0 121 56 193.5t148 72.5q60 0 104 -40v231h88v-231q46 40 105 40q92 0 148 -72.5t56 -193.5t-55.5 -194t-149.5 -73q-57 0 -104 38v-211h-88v211q-44 -38 -103 -38q-94 0 -149.5 73t-55.5 194zM654 255q0 90 -36 142q-38 53 -99 53q-48 0 -82 -37v-318
q36 -36 82 -36q61 0 98 53.5t37 142.5zM133 255q0 -89 36.5 -142.5t97.5 -53.5q47 0 82 36v318q-34 37 -82 37q-61 0 -97.5 -53t-36.5 -142z" />
    <glyph glyph-name="afii10087" unicode="&#x445;" horiz-adv-x="480" 
d="M187 264l-173 244h104l121 -182h2l122 182h104l-173 -244l189 -264h-106l-136 203h-2l-136 -203h-105z" />
    <glyph glyph-name="afii10088" unicode="&#x446;" horiz-adv-x="584" 
d="M78 0v508h88v-438h249v438h88v-438h68v-230h-88v160h-405z" />
    <glyph glyph-name="afii10089" unicode="&#x447;" horiz-adv-x="521" 
d="M32 508h88v-154q0 -49 30 -75.5t87 -26.5q62 0 118 19v237h88v-508h-88v202q-64 -19 -139 -19q-89 0 -136.5 41t-47.5 117v167z" />
    <glyph glyph-name="afii10090" unicode="&#x448;" horiz-adv-x="837" 
d="M78 0v508h88v-438h209v438h88v-438h208v438h88v-508h-681z" />
    <glyph glyph-name="afii10091" unicode="&#x449;" horiz-adv-x="841" 
d="M733 0h-655v508h88v-438h209v438h88v-438h208v438h88v-438h62v-230h-88v160z" />
    <glyph glyph-name="afii10092" unicode="&#x44a;" horiz-adv-x="593" 
d="M157 438h-150v70h238v-188h124q93 0 144 -42t51 -118t-51 -118t-144 -42h-212v438zM364 252h-119v-184h119q111 0 111 92t-111 92z" />
    <glyph glyph-name="afii10093" unicode="&#x44b;" horiz-adv-x="728" 
d="M78 508h88v-188h124q93 0 144 -42t51 -118t-51 -118t-144 -42h-212v508zM650 0h-88v508h88v-508zM166 68h119q111 0 111 92t-111 92h-119v-184z" />
    <glyph glyph-name="afii10094" unicode="&#x44c;" horiz-adv-x="520" 
d="M290 0h-212v508h88v-188h124q93 0 144 -42t51 -118t-51 -118t-144 -42zM166 68h119q111 0 111 92t-111 92h-119v-184z" />
    <glyph glyph-name="afii10095" unicode="&#x44d;" horiz-adv-x="534" 
d="M493 254q0 -123 -64.5 -195.5t-173.5 -72.5q-92 0 -151 55.5t-67 143.5h91q5 -55 40.5 -91.5t86.5 -36.5q63 0 101 44.5t45 122.5h-223v68h222q-8 75 -46 117t-99 42q-53 0 -88 -35q-34 -34 -39 -85h-91q8 82 67 136.5t151 54.5q109 0 173.5 -72.5t64.5 -195.5z" />
    <glyph glyph-name="afii10096" unicode="&#x44e;" horiz-adv-x="789" 
d="M748 254q0 -124 -65 -196t-176 -72q-103 0 -167 62t-74 171h-100v-219h-88v508h88v-220l100 1q10 109 74 171t167 62q111 0 176 -72t65 -196zM357 254q0 -91 40 -143.5t110 -52.5q69 0 109 52.5t40 143.5t-40 143.5t-109 52.5q-70 0 -110 -52.5t-40 -143.5z" />
    <glyph glyph-name="afii10097" unicode="&#x44f;" horiz-adv-x="529" 
d="M143 205q-99 35 -99 146q0 76 51 116q50 41 150 41h206v-508h-88v190h-136l-112 -190h-99zM133 348q0 -43 28.5 -67t84.5 -24h117v182h-111q-119 0 -119 -91z" />
    <glyph glyph-name="uni0450" unicode="&#x450;" horiz-adv-x="550" 
d="M509 236h-380q3 -88 43.5 -135t107.5 -47q53 0 89 26.5t45 71.5h90q-14 -72 -72 -118q-58 -48 -152 -48q-111 0 -175 75t-64 200q0 115 64.5 188t171.5 73q85 0 143.5 -47t78.5 -130q10 -39 10 -109zM422 303q-7 72 -45.5 111.5t-99.5 39.5q-63 0 -101.5 -39.5
t-45.5 -111.5h292zM255 712l86 -143h-76l-123 143h113z" />
    <glyph glyph-name="afii10071" unicode="&#x451;" horiz-adv-x="550" 
d="M509 236h-380q3 -88 43.5 -135t107.5 -47q53 0 89 26.5t45 71.5h90q-14 -72 -72 -118q-58 -48 -152 -48q-111 0 -175 75t-64 200q0 115 64.5 188t171.5 73q85 0 143.5 -47t78.5 -130q10 -39 10 -109zM422 303q-7 72 -45.5 111.5t-99.5 39.5q-63 0 -101.5 -39.5
t-45.5 -111.5h292zM331 613v99h82v-99h-82zM136 712h82v-99h-82v99z" />
    <glyph glyph-name="afii10099" unicode="&#x452;" 
d="M503 256v-291q0 -154 -147 -154q-25 0 -47 5v70q15 -3 29 -3q40 0 58.5 20.5t18.5 69.5v276q0 75 -29.5 109.5t-87.5 34.5t-95 -41.5t-37 -114.5v-237h-88v560h-71v61h71v91h88v-91h225v-61h-225v-170h2q51 75 151 75q88 0 136 -53.5t48 -155.5z" />
    <glyph glyph-name="afii10100" unicode="&#x453;" horiz-adv-x="417" 
d="M404 508v-70h-238v-438h-88v508h326zM260 712h113l-123 -143h-76z" />
    <glyph glyph-name="afii10101" unicode="&#x454;" horiz-adv-x="534" 
d="M465 428q27 -44 32 -97h-90q-5 51 -39 85q-35 35 -89 35q-60 0 -98 -42t-46 -117h221v-68h-222q7 -78 45 -122.5t100 -44.5q51 0 86.5 36.5t40.5 91.5h91q-8 -88 -67 -143.5t-150 -55.5q-110 0 -174.5 72t-64.5 196t64.5 196t174.5 72q124 0 185 -94z" />
    <glyph glyph-name="afii10102" unicode="&#x455;" horiz-adv-x="494" 
d="M453 138q0 -69 -54.5 -110.5t-146.5 -41.5q-102 0 -157 47t-56 136h89q0 -54 32.5 -83.5t92.5 -29.5q50 0 80 21t30 55q0 51 -55 71q-33 11 -85 23q-64 16 -93 28q-32 12 -55 41q-24 29 -24 80q0 65 53 106t135 41q94 0 146 -45t52 -128h-86q0 51 -29.5 78t-83.5 27
q-46 0 -72.5 -19.5t-26.5 -52.5q0 -45 48 -62q26 -9 74 -20q64 -16 103 -30q36 -14 63 -45q26 -32 26 -87z" />
    <glyph glyph-name="afii10103" unicode="&#x456;" horiz-adv-x="244" 
d="M78 0v508h88v-508h-88zM78 712h88v-99h-88v99z" />
    <glyph glyph-name="afii10104" unicode="&#x457;" horiz-adv-x="244" 
d="M78 508h88v-508h-88v508zM4 712h82v-99h-82v99zM158 712h81v-99h-81v99z" />
    <glyph glyph-name="afii10105" unicode="&#x458;" horiz-adv-x="249" 
d="M25 -189q-25 0 -47 5v70q15 -3 29 -3q40 0 58 22t18 74v529h88v-537q0 -160 -146 -160zM83 613v99h88v-99h-88z" />
    <glyph glyph-name="afii10106" unicode="&#x459;" horiz-adv-x="827" 
d="M792 160q0 -76 -50 -118q-51 -42 -145 -42h-212v438h-172q-6 -186 -24 -280t-50.5 -127t-95.5 -35q-24 0 -37 4v67q14 -2 20 -2q38 0 59 33q21 35 31 127q11 100 14 283h343v-188h124q93 0 144 -42t51 -118zM473 252v-184h120q110 0 110 92t-110 92h-120z" />
    <glyph glyph-name="afii10107" unicode="&#x45a;" horiz-adv-x="865" 
d="M829 160q0 -76 -50 -118t-145 -42h-211v238h-257v-238h-88v508h88v-201h257v201h88v-188h123q93 0 144 -42t51 -118zM630 252h-119v-184h119q110 0 110 92t-110 92z" />
    <glyph glyph-name="afii10108" unicode="&#x45b;" 
d="M503 256v-256h-88v249q0 75 -29.5 109.5t-87.5 34.5t-95 -41.5t-37 -114.5v-237h-88v560h-71v61h71v91h88v-91h225v-61h-225v-170h2q51 75 151 75q88 0 136 -53.5t48 -155.5z" />
    <glyph glyph-name="afii10109" unicode="&#x45c;" horiz-adv-x="517" 
d="M168 297l205 211h109l-228 -230l255 -278h-116l-225 254h-2v-254h-88v508h88v-211h2zM289 712h113l-123 -143h-76z" />
    <glyph glyph-name="uni045D" unicode="&#x45d;" horiz-adv-x="622" 
d="M544 0h-90v196q0 114 3 228h-2q-44 -84 -118 -211l-125 -213h-134v508h90v-196q0 -114 -3 -228h2q46 91 118 211l125 213h134v-508zM292 712l86 -143h-76l-123 143h113z" />
    <glyph glyph-name="afii10110" unicode="&#x45e;" horiz-adv-x="472" 
d="M478 508l-204 -531q-38 -98 -81 -131t-128 -35q-28 0 -46 5v74q18 -6 42 -6q51 0 76 23t50 91l-193 510h95l146 -404h2l148 404h93zM81 712h66q4 -39 27.5 -60t62.5 -21q79 0 90 81h65q-5 -68 -45.5 -105.5t-109.5 -37.5t-110 37.5t-46 105.5z" />
    <glyph glyph-name="afii10193" unicode="&#x45f;" horiz-adv-x="581" 
d="M78 0v508h88v-438h249v438h88v-508h-170v-160h-88v160h-167z" />
    <glyph glyph-name="afii10050" unicode="&#x490;" horiz-adv-x="488" 
d="M95 0v712h295v148h88v-230h-291v-630h-92z" />
    <glyph glyph-name="afii10098" unicode="&#x491;" horiz-adv-x="417" 
d="M78 0v508h242v160h84v-230h-238v-438h-88z" />
    <glyph glyph-name="uni0492" unicode="&#x492;" horiz-adv-x="488" 
d="M29 305v71h66v336h383v-82h-291v-254h144v-71h-144v-305h-92v305h-66z" />
    <glyph glyph-name="uni0493" unicode="&#x493;" horiz-adv-x="419" 
d="M21 212v64h59v232h326v-70h-238v-162h132v-64h-132v-212h-88v212h-59z" />
    <glyph glyph-name="uni0496" unicode="&#x496;" horiz-adv-x="877" 
d="M872 82v-242h-88v160h-26l-272 362h-2v-362h-91v362h-2l-273 -362h-113l291 373l-264 339h111l248 -333h2v333h91v-333h2l248 333h111l-264 -339l227 -291h64z" />
    <glyph glyph-name="uni0497" unicode="&#x497;" horiz-adv-x="688" 
d="M697 70v-230h-88v160h-26l-194 267h-2v-267h-86v267h-2l-194 -267h-114l218 278l-194 230h107l177 -223h2v223h86v-223h2l177 223h107l-194 -230l163 -208h55z" />
    <glyph glyph-name="uni049A" unicode="&#x49a;" horiz-adv-x="625" 
d="M187 391h2l287 321h116l-311 -339l265 -291h75v-242h-88v160h-35l-309 350h-2v-350h-92v712h92v-321z" />
    <glyph glyph-name="uni049B" unicode="&#x49b;" horiz-adv-x="517" 
d="M166 297h2l205 211h109l-228 -230l191 -208h64v-230h-88v160h-28l-225 254h-2v-254h-88v508h88v-211z" />
    <glyph glyph-name="uni049C" unicode="&#x49c;" horiz-adv-x="694" 
d="M689 0h-114l-249 329h-4v-171h-78v171h-58v-329h-91v712h91v-302h58v171h78v-171h4l225 302h111l-264 -341z" />
    <glyph glyph-name="uni049D" unicode="&#x49d;" horiz-adv-x="567" 
d="M575 0h-113l-175 242h-2v-136h-68v136h-52v-242h-87v508h87v-197h52v130h68v-130h4l156 197h107l-194 -229z" />
    <glyph glyph-name="uni04A2" unicode="&#x4a2;" horiz-adv-x="749" 
d="M95 0v712h92v-302h363v302h93v-630h82v-242h-88v160h-87v329h-363v-329h-92z" />
    <glyph glyph-name="uni04A3" unicode="&#x4a3;" horiz-adv-x="592" 
d="M166 0h-88v508h88v-218h257v218h88v-438h68v-230h-88v160h-68v220h-257v-220z" />
    <glyph glyph-name="uni04AE" unicode="&#x4ae;" horiz-adv-x="614" 
d="M4 712h107l87 -147q47 -78 108 -188h2q61 110 108 188l88 147h106l-257 -417v-295h-92v295z" />
    <glyph glyph-name="uni04AF" unicode="&#x4af;" horiz-adv-x="470" 
d="M191 -9l-197 517h94l72 -199q33 -87 74 -212h2q58 170 73 212l73 199h94l-197 -517v-176h-88v176z" />
    <glyph glyph-name="uni04B2" unicode="&#x4b2;" horiz-adv-x="621" 
d="M617 82v-242h-88v160h-25l-192 293h-2l-192 -293h-111l247 365l-233 347h108l181 -277h2l180 277h108l-233 -347l192 -283h58z" />
    <glyph glyph-name="uni04B3" unicode="&#x4b3;" horiz-adv-x="480" 
d="M483 70v-230h-88v160h-18l-136 203h-2l-136 -203h-105l189 264l-173 244h104l121 -182h2l122 182h104l-173 -244l139 -194h50z" />
    <glyph glyph-name="uni04B8" unicode="&#x4b8;" horiz-adv-x="643" 
d="M549 712v-712h-93v296q-49 -16 -120 -22v-146h-82v143q-106 5 -162 60t-56 153v228h93v-214q0 -125 125 -144v211h82v-211q66 5 120 22v336h93z" />
    <glyph glyph-name="uni04B9" unicode="&#x4b9;" horiz-adv-x="521" 
d="M443 508v-508h-88v202q-43 -12 -84 -16v-101h-68v98q-83 3 -127 44t-44 114v167h88v-154q0 -85 83 -99v160h68v-161q38 3 84 17v237h88z" />
    <glyph glyph-name="uni04BA" unicode="&#x4ba;" horiz-adv-x="643" 
d="M95 0v712h92v-296q81 25 183 25q114 0 175.5 -55.5t61.5 -157.5v-228h-92v214q0 71 -42 108.5t-122 37.5q-89 0 -164 -24v-336h-92z" />
    <glyph glyph-name="uni04BB" unicode="&#x4bb;" 
d="M166 444h2q51 75 151 75q88 0 136 -53.5t48 -155.5v-310h-88v303q0 75 -29.5 109.5t-87.5 34.5t-95 -41.5t-37 -114.5v-291h-88v712h88v-268z" />
    <glyph glyph-name="uni04C0" unicode="&#x4c0;" horiz-adv-x="282" 
d="M187 712v-712h-92v712h92z" />
    <glyph glyph-name="uni04CF" unicode="&#x4cf;" horiz-adv-x="244" 
d="M166 712v-712h-88v712h88z" />
    <glyph glyph-name="uni04D8" unicode="&#x4d8;" horiz-adv-x="741" 
d="M658 164q-40 -85 -116 -131.5t-177 -46.5q-148 0 -235 100t-87 270q0 27 1 32h558q-5 125 -71 190q-68 65 -174 65q-79 0 -131.5 -39t-65.5 -106h-101q19 99 98 163.5t201 64.5q157 0 248.5 -100.5t91.5 -269.5q0 -109 -40 -192zM210 133q62 -63 155 -63q101 0 164 64
q63 63 72 174h-461q8 -112 70 -175z" />
    <glyph glyph-name="afii10846" unicode="&#x4d9;" horiz-adv-x="550" 
d="M481 116q-30 -62 -83.5 -96t-125.5 -34q-106 0 -168.5 73t-62.5 195q0 7 2 25h378q-3 84 -44.5 129.5t-109.5 45.5q-50 0 -82.5 -26t-41.5 -70h-91q14 71 70 118q55 46 145 46q114 0 178 -73t64 -195q0 -79 -28 -138zM129 216q5 -77 43.5 -119.5t99.5 -42.5
q63 0 103 43.5t45 118.5h-291z" />
    <glyph glyph-name="uni04E8" unicode="&#x4e8;" horiz-adv-x="732" 
d="M689 356q0 -114 -39 -196q-40 -84 -113 -129t-171 -45q-148 0 -235.5 100t-87.5 270t87.5 270t235.5 100t235.5 -100t87.5 -270zM137 316q11 -117 71 -182q60 -67 158 -67t159 66.5t71 182.5h-459zM137 397h459q-11 116 -71 182q-61 66 -159 66q-96 0 -158 -66
q-60 -66 -71 -182z" />
    <glyph glyph-name="uni04E9" unicode="&#x4e9;" horiz-adv-x="566" 
d="M459 450q65 -73 65 -196t-65 -196q-65 -72 -177 -72t-176 72q-65 73 -65 196t65 196q64 72 176 72t177 -72zM131 222q7 -78 47 -122t104 -44t104 44t47 122h-302zM178 408q-39 -42 -47 -122h302q-7 78 -47 122t-104 44q-63 0 -104 -44z" />
    <glyph glyph-name="Wgrave" unicode="&#x1e80;" horiz-adv-x="916" 
d="M906 712l-166 -712h-132l-75 311q-48 202 -74 319h-2q-26 -117 -74 -319l-75 -311h-132l-166 712h92l67 -288q47 -211 67 -303l7 -32h2q48 216 79 336l70 287h128l70 -287q31 -120 79 -336h2q37 179 74 335l67 288h92zM438 898l86 -138h-76l-123 138h113z" />
    <glyph glyph-name="wgrave" unicode="&#x1e81;" horiz-adv-x="770" 
d="M763 508l-135 -508h-126l-60 220q-3 10 -6 23.5t-5 21t-3 11.5q-23 85 -42 164h-2q-19 -79 -42 -164q-1 -4 -3 -11.5t-5 -21t-6 -23.5l-60 -220h-126l-135 508h89l54 -212q35 -140 56 -228h2q21 87 56 223l58 217h126l58 -217l56 -223h2q21 88 56 228l54 212h89zM366 712
l86 -143h-76l-123 143h113z" />
    <glyph glyph-name="Wacute" unicode="&#x1e82;" horiz-adv-x="916" 
d="M906 712l-166 -712h-132l-75 311q-48 202 -74 319h-2q-26 -117 -74 -319l-75 -311h-132l-166 712h92l67 -288q47 -211 67 -303l7 -32h2q48 216 79 336l70 287h128l70 -287q31 -120 79 -336h2q37 179 74 335l67 288h92zM391 760l86 138h113l-123 -138h-76z" />
    <glyph glyph-name="wacute" unicode="&#x1e83;" horiz-adv-x="770" 
d="M763 508l-135 -508h-126l-60 220q-3 10 -6 23.5t-5 21t-3 11.5q-23 85 -42 164h-2q-19 -79 -42 -164q-1 -4 -3 -11.5t-5 -21t-6 -23.5l-60 -220h-126l-135 508h89l54 -212q35 -140 56 -228h2q21 87 56 223l58 217h126l58 -217l56 -223h2q21 88 56 228l54 212h89zM318 569
l86 143h113l-123 -143h-76z" />
    <glyph glyph-name="Wdieresis" unicode="&#x1e84;" horiz-adv-x="916" 
d="M906 712l-166 -712h-132l-75 311q-48 202 -74 319h-2q-26 -117 -74 -319l-75 -311h-132l-166 712h92l67 -288q47 -211 67 -303l7 -32h2q48 216 79 336l70 287h128l70 -287q31 -120 79 -336h2q37 179 74 335l67 288h92zM514 874h82v-99h-82v99zM319 775v99h82v-99h-82z
" />
    <glyph glyph-name="wdieresis" unicode="&#x1e85;" horiz-adv-x="770" 
d="M763 508l-135 -508h-126l-60 220q-3 10 -6 23.5t-5 21t-3 11.5q-23 85 -42 164h-2q-19 -79 -42 -164q-1 -4 -3 -11.5t-5 -21t-6 -23.5l-60 -220h-126l-135 508h89l54 -212q35 -140 56 -228h2q21 87 56 223l58 217h126l58 -217l56 -223h2q21 88 56 228l54 212h89zM441 613
v99h82v-99h-82zM246 712h82v-99h-82v99z" />
    <glyph glyph-name="uni1E9E" unicode="&#x1e9e;" horiz-adv-x="769" 
d="M723 192q0 -97 -62.5 -150.5t-170.5 -53.5q-106 0 -162 49.5t-56 143.5h91q0 -55 32.5 -84t94.5 -29q64 0 100.5 32.5t36.5 92.5q0 76 -56.5 116t-172.5 49v68l151 161q-63 58 -161 58q-211 0 -211 -221v-424h-92v423q0 146 79.5 224t227.5 78q84 0 156 -33.5t118 -93.5
l-165 -176q222 -46 222 -230z" />
    <glyph glyph-name="Ygrave" unicode="&#x1ef2;" horiz-adv-x="614" 
d="M198 565q47 -78 108 -188h2q61 110 108 188l88 147h106l-257 -417v-295h-92v295l-257 417h107zM288 898l86 -138h-76l-123 138h113z" />
    <glyph glyph-name="ygrave" unicode="&#x1ef3;" horiz-adv-x="472" 
d="M478 508l-204 -531q-38 -98 -81 -131t-128 -35q-28 0 -46 5v74q18 -6 42 -6q51 0 76 23t50 91l-193 510h95l146 -404h2l148 404h93zM217 712l86 -143h-76l-123 143h113z" />
    <glyph glyph-name="uni2010" unicode="&#x2010;" horiz-adv-x="300" 
d="M270 331v-78h-240v78h240z" />
    <glyph glyph-name="endash" unicode="&#x2013;" horiz-adv-x="500" 
d="M20 253v78h460v-78h-460z" />
    <glyph glyph-name="emdash" unicode="&#x2014;" horiz-adv-x="1000" 
d="M20 253v78h960v-78h-960z" />
    <glyph glyph-name="afii00208" unicode="&#x2015;" horiz-adv-x="1000" 
d="M980 331v-78h-960v78h960z" />
    <glyph glyph-name="underscoredbl" unicode="&#x2017;" horiz-adv-x="500" 
d="M0 -50h500v-49h-500v49zM0 -228v49h500v-49h-500z" />
    <glyph glyph-name="quoteleft" unicode="&#x2018;" horiz-adv-x="237" 
d="M69 578l48 134h53l-35 -134h34v-108h-100v108z" />
    <glyph glyph-name="quoteright" unicode="&#x2019;" horiz-adv-x="237" 
d="M120 470h-53l35 134h-33v108h99v-108z" />
    <glyph glyph-name="quotesinglbase" unicode="&#x201a;" horiz-adv-x="237" 
d="M102 0h-33v108h99v-108l-48 -134h-53z" />
    <glyph glyph-name="quotereversed" unicode="&#x201b;" horiz-adv-x="237" 
d="M69 712h100v-108h-34l35 -134h-53l-48 134v108z" />
    <glyph glyph-name="quotedblleft" unicode="&#x201c;" horiz-adv-x="398" 
d="M169 470h-100v108l48 134h53l-35 -134h34v-108zM230 578l48 134h52l-35 -134h34v-108h-99v108z" />
    <glyph glyph-name="quotedblright" unicode="&#x201d;" horiz-adv-x="398" 
d="M228 470l35 134h-33v108h99v-108l-48 -134h-53zM102 604h-33v108h99v-108l-48 -134h-53z" />
    <glyph glyph-name="quotedblbase" unicode="&#x201e;" horiz-adv-x="398" 
d="M228 -134l35 134h-33v108h99v-108l-48 -134h-53zM102 0h-33v108h99v-108l-48 -134h-53z" />
    <glyph glyph-name="dagger" unicode="&#x2020;" horiz-adv-x="536" 
d="M223 448h-169v74h169v190h90v-190h169v-74h-169v-568h-90v568z" />
    <glyph glyph-name="daggerdbl" unicode="&#x2021;" horiz-adv-x="536" 
d="M482 523v-74h-169v-264h169v-74h-169v-231h-90v231h-169v74h169v264h-169v74h169v189h90v-189h169z" />
    <glyph glyph-name="bullet" unicode="&#x2022;" horiz-adv-x="335" 
d="M53 356q0 48 34 82q33 33 80 33t82 -33q33 -34 33 -82q0 -46 -33 -81q-34 -34 -82 -34q-47 0 -80 34q-34 34 -34 81z" />
    <glyph glyph-name="ellipsis" unicode="&#x2026;" horiz-adv-x="753" 
d="M586 117h108v-117h-108v117zM323 117h108v-117h-108v117zM59 117h108v-117h-108v117z" />
    <glyph glyph-name="perthousand" unicode="&#x2030;" horiz-adv-x="1014" 
d="M621 274q35 -44 35 -122q0 -79 -35.5 -122t-99.5 -43q-65 0 -100 43t-35 122t35 122t100 43q64 0 100 -43zM750 30q-36 43 -36 122q0 78 36 122q34 43 99 43t100 -43t35 -122t-35 -122t-100 -43t-99 43zM30 523q0 79 35 122t100 43q64 0 99 -43t35 -122t-35 -122.5
t-99 -43.5q-65 0 -100 43.5t-35 122.5zM97 -30l422 734h70l-422 -734h-70zM567 74q16 26 16 78q0 51 -16.5 78.5t-45.5 27.5q-30 0 -46.5 -27.5t-16.5 -78.5t16.5 -78.5t46.5 -27.5t46 28zM119 602q-17 -29 -17 -79t17 -78q16 -28 46 -28q29 0 45.5 27.5t16.5 78.5
t-16.5 78.5t-45.5 27.5t-46 -27zM804 231q-17 -29 -17 -79t17 -78q16 -28 45 -28q30 0 46.5 27.5t16.5 78.5t-16.5 78.5t-46.5 27.5q-29 0 -45 -27z" />
    <glyph glyph-name="minute" unicode="&#x2032;" horiz-adv-x="186" 
d="M30 449l41 225h85l-69 -225h-57z" />
    <glyph glyph-name="second" unicode="&#x2033;" horiz-adv-x="330" 
d="M180 449l41 225h85l-69 -225h-57zM30 449l41 225h85l-69 -225h-57z" />
    <glyph glyph-name="guilsinglleft" unicode="&#x2039;" horiz-adv-x="292" 
d="M162 54l-114 200l114 200h82l-111 -200l111 -200h-82z" />
    <glyph glyph-name="guilsinglright" unicode="&#x203a;" horiz-adv-x="292" 
d="M159 254l-111 200h82l114 -200l-114 -200h-82z" />
    <glyph glyph-name="exclamdbl" unicode="&#x203c;" horiz-adv-x="500" 
d="M102 175l-21 537h113l-21 -537h-71zM306 712h113l-21 -537h-71zM415 106v-106h-104v106h104zM86 0v106h104v-106h-104z" />
    <glyph glyph-name="uni203D" unicode="&#x203d;" horiz-adv-x="516" 
d="M477 485q0 -36 -8 -63q-16 -52 -98 -116q-53 -42 -65 -63t-14 -78h-72l-12 397q-77 -23 -83 -113h-92q4 82 48 132t124 64l-2 67h99l-2 -64q81 -8 129 -52t48 -111zM289 333h2l33 33q37 36 48 59q11 24 11 57q0 34 -22.5 56.5t-63.5 29.5zM306 0h-103v106h103v-106z" />
    <glyph glyph-name="uni203E" unicode="&#x203e;" horiz-adv-x="500" 
d="M0 788v65h500v-65h-500z" />
    <glyph glyph-name="fraction" unicode="&#x2044;" horiz-adv-x="147" 
d="M-82 0h-73l384 674h74z" />
    <glyph glyph-name="uni2070" unicode="&#x2070;" horiz-adv-x="434" 
d="M83 749q47 63 134 63q88 0 134.5 -63.5t46.5 -182.5t-46.5 -182.5t-134.5 -63.5t-134 64q-47 64 -47 182t47 183zM117 566q0 -88 26 -135t74 -47t73.5 47t25.5 135q0 87 -25.5 133.5t-73.5 46.5t-74 -46.5t-26 -133.5z" />
    <glyph glyph-name="uni2074" unicode="&#x2074;" horiz-adv-x="406" 
d="M212 802h102v-293h81v-64h-81v-115h-76v115h-227v69zM85 509h154v61q0 17 2 163h-1q-54 -80 -103 -150z" />
    <glyph glyph-name="uni2075" unicode="&#x2075;" horiz-adv-x="414" 
d="M354 802v-66h-219l-12 -129h2q32 35 94 35q72 0 115 -42t43 -113q0 -76 -47 -121.5t-127 -45.5q-75 0 -120 37t-45 101h80q1 -33 24.5 -53t60.5 -20q43 0 68 26.5t25 71.5t-24.5 70.5t-65.5 25.5q-69 0 -86 -62l-78 4l27 281h285z" />
    <glyph glyph-name="uni2076" unicode="&#x2076;" horiz-adv-x="417" 
d="M342 596q42 -44 42 -113q0 -73 -47 -118q-48 -45 -124 -45q-87 0 -132 58t-45 171q0 126 48.5 194.5t136.5 68.5q68 0 109.5 -36t47.5 -99h-81q-12 70 -78 70q-101 0 -108 -163h2q41 54 117 54q68 0 112 -42zM149 549q-25 -25 -25 -68q0 -45 25 -70q24 -26 65 -26
q40 0 65 27t25 70q0 42 -24.5 67.5t-64.5 25.5t-66 -26z" />
    <glyph glyph-name="uni2077" unicode="&#x2077;" horiz-adv-x="366" 
d="M274 734h-263v68h344v-67q-121 -165 -168 -405h-88q57 242 175 404z" />
    <glyph glyph-name="uni2078" unicode="&#x2078;" horiz-adv-x="417" 
d="M383 459q0 -63 -48 -101t-127 -38t-126.5 38t-47.5 101q0 85 92 114v2q-83 34 -83 106q0 58 46 95q46 36 119 36q72 0 119 -36q46 -37 46 -95q0 -73 -82 -106v-2q92 -29 92 -114zM113 463q0 -36 26 -57t69 -21t69 21t26 57q0 35 -26 56.5t-69 21.5q-42 0 -68.5 -21.5
t-26.5 -56.5zM145 728q-25 -19 -25 -50q0 -34 24 -54t64 -20t64 20t24 54q0 31 -24.5 50t-63.5 19q-40 0 -63 -19z" />
    <glyph glyph-name="uni2079" unicode="&#x2079;" horiz-adv-x="417" 
d="M335 754q46 -58 46 -171q0 -126 -49 -194.5t-137 -68.5q-68 0 -109 36t-47 99h81q10 -70 77 -70q102 0 108 163h-2q-41 -54 -116 -54q-69 0 -112 43t-43 112q0 73 48 118q46 45 123 45q86 0 132 -58zM138 720q-25 -26 -25 -70q0 -42 24.5 -67.5t64.5 -25.5t65.5 26.5
t25.5 67.5q0 44 -24.5 70t-65.5 26q-39 0 -65 -27z" />
    <glyph glyph-name="uni207A" unicode="&#x207a;" horiz-adv-x="408" 
d="M172 520h-123v63h123v119h63v-119h123v-63h-123v-118h-63v118z" />
    <glyph glyph-name="uni207B" unicode="&#x207b;" horiz-adv-x="408" 
d="M49 520v63h309v-63h-309z" />
    <glyph glyph-name="uni207C" unicode="&#x207c;" horiz-adv-x="408" 
d="M49 644h309v-62h-309v62zM49 459v62h309v-62h-309z" />
    <glyph glyph-name="uni207D" unicode="&#x207d;" horiz-adv-x="220" 
d="M35 538q0 90 25 164q24 74 74 147h65q-81 -149 -81 -311q0 -163 81 -311h-65q-99 142 -99 311z" />
    <glyph glyph-name="uni207E" unicode="&#x207e;" horiz-adv-x="220" 
d="M21 849h65q98 -139 98 -311t-98 -311h-65q81 155 81 311q0 159 -81 311z" />
    <glyph glyph-name="uni2080" unicode="&#x2080;" horiz-adv-x="434" 
d="M82 -119q-47 65 -47 183q0 119 46.5 182.5t134.5 63.5t134.5 -63.5t46.5 -182.5t-46.5 -182.5t-134.5 -63.5t-134 63zM116 64q0 -88 26 -135t74 -47t73.5 47t25.5 135q0 87 -25.5 133.5t-73.5 46.5t-74 -46.5t-26 -133.5z" />
    <glyph glyph-name="uni2081" unicode="&#x2081;" horiz-adv-x="274" 
d="M10 220q60 0 88.5 18.5t35.5 61.5h67v-472h-79v332h-112v60z" />
    <glyph glyph-name="uni2082" unicode="&#x2082;" horiz-adv-x="420" 
d="M385 -172h-346q-1 4 -1 17q2 76 29.5 119.5t113.5 92.5q58 30 85 56q25 24 25 62q0 31 -21.5 50t-57.5 19q-82 0 -87 -86h-81q2 71 47.5 111.5t120.5 40.5q73 0 117.5 -37t44.5 -97q0 -54 -32 -90.5t-104 -74.5q-68 -37 -89 -61q-23 -26 -24 -56h260v-66z" />
    <glyph glyph-name="uni2083" unicode="&#x2083;" horiz-adv-x="414" 
d="M377 -46q0 -61 -47 -99q-47 -37 -124 -37q-84 0 -129.5 40.5t-45.5 114.5h80q0 -90 95 -90q40 0 65.5 20.5t25.5 52.5q0 79 -109 79h-17v63h17q47 0 74.5 20.5t27.5 54.5q0 33 -23.5 52t-63.5 19q-87 0 -87 -87h-80q0 72 45 112.5t124 40.5q77 0 121 -35t44 -95
q0 -76 -82 -109v-2q47 -17 68 -44t21 -71z" />
    <glyph glyph-name="uni2084" unicode="&#x2084;" horiz-adv-x="406" 
d="M313 300v-293h81v-64h-81v-115h-76v115h-227v69l201 288h102zM238 7v61q0 17 2 163h-1q-54 -80 -103 -150l-52 -74h154z" />
    <glyph glyph-name="uni2085" unicode="&#x2085;" horiz-adv-x="414" 
d="M354 234h-219l-12 -129h2q32 35 94 35q72 0 115 -42t43 -113q0 -76 -47 -121.5t-127 -45.5q-75 0 -120 37t-45 101h80q1 -33 24.5 -53t60.5 -20q43 0 68 26.5t25 71.5t-24.5 70.5t-65.5 25.5q-69 0 -86 -62l-78 4l27 281h285v-66z" />
    <glyph glyph-name="uni2086" unicode="&#x2086;" horiz-adv-x="417" 
d="M383 -19q0 -73 -47 -118q-48 -45 -124 -45q-87 0 -132 58t-45 171q0 126 48.5 194.5t136.5 68.5q68 0 109.5 -36t47.5 -99h-81q-12 70 -78 70q-101 0 -108 -163h2q40 54 117 54q69 0 111.5 -42.5t42.5 -112.5zM148 -91q24 -26 65 -26q40 0 65 27t25 70q0 42 -24.5 67.5
t-64.5 25.5q-41 0 -66 -26t-25 -68q0 -45 25 -70z" />
    <glyph glyph-name="uni2087" unicode="&#x2087;" horiz-adv-x="366" 
d="M10 300h344v-67q-121 -165 -168 -405h-88q57 242 175 404h-263v68z" />
    <glyph glyph-name="uni2088" unicode="&#x2088;" horiz-adv-x="417" 
d="M335 -144q-49 -38 -127 -38q-79 0 -126.5 38t-47.5 101q0 85 92 114v2q-83 34 -83 106q0 58 46 95q47 36 119 36t119 -36q46 -37 46 -95q0 -73 -82 -106v-2q92 -29 92 -114q0 -63 -48 -101zM139 -96q25 -21 69 -21q43 0 69 21t26 57q0 35 -26 56.5t-69 21.5
q-42 0 -68.5 -21.5t-26.5 -56.5q0 -36 26 -57zM144 122q25 -20 64 -20q40 0 64 20t24 54q0 31 -24.5 50t-63.5 19t-63.5 -19t-24.5 -50q0 -34 24 -54z" />
    <glyph glyph-name="uni2089" unicode="&#x2089;" horiz-adv-x="417" 
d="M381 81q0 -126 -49 -194.5t-137 -68.5q-68 0 -109 36t-47 99h81q10 -70 77 -70q102 0 108 163h-2q-41 -54 -116 -54q-69 0 -112 43t-43 112q0 73 48 118q46 45 123 45q87 0 132.5 -58t45.5 -171zM113 148q0 -42 24.5 -67.5t64.5 -25.5t65.5 26.5t25.5 67.5q0 44 -24.5 70
t-65.5 26q-40 0 -65 -27t-25 -70z" />
    <glyph glyph-name="uni208A" unicode="&#x208a;" horiz-adv-x="409" 
d="M50 81h123v119h63v-119h123v-63h-123v-118h-63v118h-123v63z" />
    <glyph glyph-name="uni208B" unicode="&#x208b;" horiz-adv-x="409" 
d="M359 81v-63h-309v63h309z" />
    <glyph glyph-name="uni208C" unicode="&#x208c;" horiz-adv-x="409" 
d="M50 -43v62h309v-62h-309zM50 80v62h309v-62h-309z" />
    <glyph glyph-name="uni208D" unicode="&#x208d;" horiz-adv-x="220" 
d="M60 200q24 74 74 147h65q-81 -149 -81 -311q0 -163 81 -311h-65q-99 142 -99 311q0 90 25 164z" />
    <glyph glyph-name="uni208E" unicode="&#x208e;" horiz-adv-x="220" 
d="M86 347q98 -139 98 -311t-98 -311h-65q81 155 81 311q0 159 -81 311h65z" />
    <glyph glyph-name="uni2099" unicode="&#x2099;" horiz-adv-x="422" 
d="M127 184v-44h2q39 52 109 52q64 0 98.5 -37.5t34.5 -109.5v-217h-76v211q0 49 -18.5 70.5t-58.5 21.5q-39 0 -63.5 -27.5t-24.5 -76.5v-199h-75v356h72z" />
    <glyph glyph-name="franc" unicode="&#x20a3;" horiz-adv-x="562" 
d="M530 674v-82h-329v-188h307v-81h-307v-118h173v-73h-173v-132h-93v132h-84v73h84v469h422z" />
    <glyph glyph-name="lira" unicode="&#x20a4;" horiz-adv-x="562" 
d="M337 299v-58h-125v-29q0 -52 -12.5 -82.5t-40.5 -51.5v-2h360v-76h-495v77q97 0 97 134v30h-97v58h97v57h-97v58h97v56q0 107 52.5 162.5t152.5 55.5q93 0 145.5 -55t52.5 -151h-89q0 61 -28.5 93.5t-80.5 32.5q-114 0 -114 -138v-56h125v-58h-125v-57h125z" />
    <glyph glyph-name="peseta" unicode="&#x20a7;" horiz-adv-x="839" 
d="M807 508v-70h-101v-287q0 -44 16 -63t54 -19q19 0 36 5v-72q-22 -6 -55 -6q-73 0 -106 34t-33 112v296h-67q-7 -91 -71.5 -142.5t-176.5 -51.5h-116v-244h-92v674h208q103 0 166.5 -43.5t78.5 -122.5h70v123h88v-123h101zM187 594v-270h108q79 0 120 35t41 100t-41 100
t-120 35h-108z" />
    <glyph glyph-name="Euro" unicode="&#x20ac;" horiz-adv-x="562" 
d="M455 205h92q-11 -105 -72 -162t-162 -57q-107 0 -173 67t-82 194h-57l11 58h41l-1 32v25h-51l11 58h45q16 130 82 199t175 69q102 0 162 -56t68 -159h-91q-7 65 -43 100t-96 35q-138 0 -164 -188h256l-11 -58h-250v-25q0 -25 1 -32h238l-11 -58h-222q29 -181 162 -181
q59 0 96 36t46 103z" />
    <glyph glyph-name="uni20B9" unicode="&#x20b9;" horiz-adv-x="562" 
d="M535 523l-18 -65h-94q-10 -55 -54 -92.5t-114 -50.5v-2q66 -27 113 -124l93 -189h-105l-84 176q-29 62 -65 88.5t-90 26.5h-16v67h43q72 0 118.5 27t59.5 73h-294l18 65h278q-20 86 -171 86h-125l18 65h489l-18 -65h-162v-2q56 -23 68 -84h112z" />
    <glyph glyph-name="uni20BA" unicode="&#x20ba;" horiz-adv-x="562" 
d="M537 318q0 -158 -87 -241q-88 -82 -250 -82q-36 0 -88 5v274l-92 -50v71l92 50v86l-92 -50v71l92 50v172h92v-129l168 91v-71l-168 -91v-85l168 91v-71l-168 -91v-240q116 0 177 61t61 179h95z" />
    <glyph glyph-name="uni20BC" unicode="&#x20bc;" horiz-adv-x="656" 
d="M610 310v-310h-87v308q0 109 -35 156.5t-117 51.5v-516h-87v516q-81 -4 -116 -51.5t-35 -156.5v-308h-87v310q0 146 57 215.5t181 75.5v111h87v-111q124 -6 181.5 -75.5t57.5 -215.5z" />
    <glyph glyph-name="uni20BD" unicode="&#x20bd;" horiz-adv-x="562" 
d="M535 473q0 -95 -59.5 -148.5t-169.5 -53.5h-122v-67h197v-73h-197v-131h-91v131h-81v73h81v67h-81v75h81v328h213q110 0 169.5 -53.5t59.5 -147.5zM184 600v-254h115q69 0 105.5 33t36.5 94t-36.5 94t-105.5 33h-115z" />
    <glyph glyph-name="afii61248" unicode="&#x2105;" horiz-adv-x="890" 
d="M862 174q0 -88 -48 -138t-131 -50q-82 0 -130.5 50.5t-48.5 137.5t48.5 137.5t130.5 50.5q83 0 131 -50.5t48 -137.5zM77 638q47 50 128 50q71 0 114 -40t48 -99h-79q-2 32 -25 54.5t-58 22.5q-44 0 -70 -34t-26 -92t26 -92t71 -34q33 0 56.5 24t25.5 59h79
q-5 -64 -49.5 -104.5t-112.5 -40.5q-81 0 -128.5 50.5t-47.5 137.5t48 138zM592 674h74l-385 -674h-73zM683 301q-46 0 -72 -34t-26 -93t26 -93t72 -34q47 0 73.5 34t26.5 93t-26.5 93t-73.5 34z" />
    <glyph glyph-name="afii61289" unicode="&#x2113;" horiz-adv-x="440" 
d="M333 642q36 -46 36 -147q0 -244 -176 -293v-53q0 -47 17.5 -68t57.5 -21q25 0 49 7v-67q-31 -9 -70 -9q-73 0 -107.5 38t-34.5 119v44q-28 0 -56 7v54q35 -6 56 -6v234q0 115 31 161t100 46q60 0 97 -46zM193 262q117 45 117 233q0 130 -63 130q-30 0 -42 -27.5
t-12 -99.5v-236z" />
    <glyph glyph-name="afii61352" unicode="&#x2116;" horiz-adv-x="1141" 
d="M95 0v712h135l170 -307q131 -241 172 -319h2q-3 171 -3 341v285h90v-712h-136l-169 307q-92 166 -172 319h-2q3 -171 3 -341v-285h-90zM803 290q-49 50 -49 138q0 86 48.5 136.5t131.5 50.5q82 0 130 -50.5t48 -136.5q0 -88 -47.5 -138.5t-130.5 -50.5t-131 51zM1007 335
q26 35 26 93t-26 93q-27 33 -73 33t-72.5 -33.5t-26.5 -92.5t26.5 -93.5t72.5 -34.5t73 35zM772 107v70h322v-70h-322z" />
    <glyph glyph-name="uni2117" unicode="&#x2117;" horiz-adv-x="810" 
d="M719 164q-45 -84 -126.5 -130t-187.5 -46q-159 -2 -259.5 101.5t-98.5 266.5q-2 163 98.5 266.5t259.5 101.5q105 0 187 -45.5t127 -129.5t45 -193q0 -110 -45 -192zM679 525q-39 72 -110.5 112t-163.5 40q-140 0 -226.5 -88.5t-86.5 -232.5t86.5 -232.5t226.5 -88.5
t226.5 88.5t86.5 232.5q0 96 -39 169zM267 115v470h168q84 0 130.5 -39t46.5 -109q0 -69 -46.5 -108.5t-130.5 -39.5h-94v-174h-74zM430 520h-89v-166h89q106 0 106 83t-106 83z" />
    <glyph glyph-name="trademark" unicode="&#x2122;" horiz-adv-x="801" 
d="M690 526q0 99 1 126h-2q-5 -18 -20 -62q-2 -7 -20 -63l-57 -171h-77l-56 171q-15 40 -32 99l-8 26h-2l1 -126v-170h-64v356h105l64 -193q3 -12 13.5 -46.5t15.5 -50.5h2q3 8 16 53l26 81l53 156h105v-356h-64v170zM5 712h299v-59h-116v-297h-67v297h-116v59z" />
    <glyph glyph-name="uni2126" unicode="&#x2126;" horiz-adv-x="729" 
d="M691 0h-264v84q76 77 117 152q40 73 40 165q0 116 -59 178.5t-161 62.5q-101 0 -160 -62.5t-59 -178.5q0 -91 41 -165q42 -77 116 -152v-84h-264v81h170v2q-80 83 -119.5 159.5t-39.5 168.5q0 155 86 235t229 80q144 0 230 -80t86 -235q0 -92 -39.5 -168.5t-119.5 -159.5
v-2h170v-81z" />
    <glyph glyph-name="estimated" unicode="&#x212e;" horiz-adv-x="860" 
d="M669 122h69q-40 -55 -118 -94q-77 -40 -189 -40q-170 -2 -278 97t-106 251q-2 152 105 253t279 99q170 2 277 -104t105 -257h-611q-13 0 -13 -13v-166q0 -30 15 -44q92 -91 227 -91q71 0 134 29.5t104 79.5zM189 528v-167q0 -12 13 -12h455q13 0 13 12v167q0 26 -15 41
q-95 93 -224 93q-134 0 -227 -93q-15 -15 -15 -41z" />
    <glyph glyph-name="oneeighth" unicode="&#x215b;" horiz-adv-x="751" 
d="M568 -9q-70 0 -111.5 32.5t-41.5 87.5q0 74 77 98v1q-69 27 -69 89q0 51 40.5 82.5t104.5 31.5q65 0 105.5 -31.5t40.5 -82.5q0 -63 -68 -89v-1q77 -24 77 -98q0 -55 -42.5 -87.5t-112.5 -32.5zM84 0l384 674h74l-385 -674h-73zM9 548v58q49 0 73.5 16t31.5 52h66v-404
h-77v278h-94zM626 70q21 16 21 45q0 28 -22 45t-57 17q-34 0 -55.5 -17t-21.5 -45t21 -45t56 -17t58 17zM621 337q-20 14 -53 14q-32 0 -52 -14.5t-20 -39.5q0 -27 19.5 -43t52.5 -16q34 0 53.5 15.5t19.5 43.5q0 25 -20 40z" />
    <glyph glyph-name="threeeighths" unicode="&#x215c;" horiz-adv-x="877" 
d="M618 209v1q-69 27 -69 89q0 51 40.5 82.5t104.5 31.5q65 0 105.5 -31.5t40.5 -82.5q0 -63 -68 -89v-1q77 -24 77 -98q0 -55 -42.5 -87.5t-112.5 -32.5t-111.5 32.5t-41.5 87.5q0 74 77 98zM26 396h77q0 -72 78 -72q34 0 54.5 15.5t20.5 41.5q0 63 -92 63h-13v61h13
q39 0 62.5 16t23.5 44q0 26 -19 40.5t-52 14.5q-73 0 -73 -68h-75q0 62 40 96.5t109 34.5q67 0 106 -30.5t39 -81.5q0 -64 -68 -92v-2q40 -14 57.5 -37.5t17.5 -61.5q0 -53 -41.5 -85t-109.5 -32q-74 0 -114.5 35.5t-40.5 99.5zM667 674l-385 -674h-73l384 674h74zM638 70
q22 -17 56 -17q36 0 57.5 17t21.5 45t-22 45t-57 17q-34 0 -55.5 -17t-21.5 -45q0 -29 21 -45zM642 254q19 -16 52 -16q34 0 53.5 15.5t19.5 43.5q0 25 -20 39.5t-53 14.5q-32 0 -52 -14.5t-20 -39.5q0 -26 20 -43z" />
    <glyph glyph-name="fiveeighths" unicode="&#x215d;" horiz-adv-x="877" 
d="M694 413q65 0 105.5 -31.5t40.5 -82.5q0 -63 -68 -89v-1q77 -24 77 -98q0 -55 -42.5 -87.5t-112.5 -32.5t-111.5 32.5t-41.5 87.5q0 74 77 98v1q-69 27 -69 89q0 51 40.5 82.5t104.5 31.5zM109 381q1 -27 20.5 -42.5t49.5 -15.5q36 0 57 21t21 58q0 35 -20.5 55.5
t-53.5 20.5q-59 0 -71 -50l-75 5l23 241h252v-64h-188l-10 -99h1q28 28 80 28q63 0 100.5 -37.5t37.5 -99.5q0 -64 -42 -102.5t-111 -38.5q-67 0 -107 32t-40 88h76zM668 674l-385 -674h-73l384 674h74zM638 70q22 -17 56 -17q36 0 57.5 17t21.5 45t-22 45t-57 17
q-34 0 -55.5 -17t-21.5 -45q0 -29 21 -45zM622 297q0 -27 19.5 -43t52.5 -16q34 0 53.5 15.5t19.5 43.5q0 25 -20 39.5t-53 14.5q-32 0 -52 -14.5t-20 -39.5z" />
    <glyph glyph-name="seveneighths" unicode="&#x215e;" horiz-adv-x="782" 
d="M677 209q77 -24 77 -98q0 -55 -42.5 -87.5t-112.5 -32.5t-111.5 32.5t-41.5 87.5q0 74 77 98v1q-69 27 -69 89q0 51 40.5 82.5t104.5 31.5q65 0 105.5 -31.5t40.5 -82.5q0 -63 -68 -89v-1zM499 674h74l-385 -674h-73zM310 674v-64q-100 -131 -143 -340h-81
q47 204 146 340h-223v64h301zM657 70q21 16 21 45q0 28 -22 45t-57 17q-34 0 -55.5 -17t-21.5 -45t21 -45t56 -17t58 17zM653 254q19 15 19 43q0 25 -20 39.5t-53 14.5q-32 0 -52 -14.5t-20 -39.5q0 -27 19.5 -43t52.5 -16q35 0 54 16z" />
    <glyph glyph-name="uni2166" unicode="&#x2166;" horiz-adv-x="1167" 
d="M7 712h96l109 -317q32 -95 99 -305h2q59 189 100 305l108 317h97l-246 -712h-120zM699 712h92v-712h-92v712zM1073 0h-92v712h92v-712z" />
    <glyph glyph-name="partialdiff" unicode="&#x2202;" horiz-adv-x="601" 
d="M533 376q0 -193 -71 -291.5t-186 -98.5q-110 0 -170 65t-60 171q0 111 63.5 183.5t169.5 72.5q56 0 97.5 -23t62.5 -61h2q1 6 1 29q0 101 -45.5 162.5t-119.5 61.5q-101 0 -114 -102h-93q9 86 61 133.5t143 47.5q126 0 192.5 -89.5t66.5 -260.5zM139 220q0 -73 36 -114
t102 -41q69 0 110 51q40 49 40 128q0 73 -38 116t-103 43q-67 0 -107 -51q-40 -52 -40 -132z" />
    <glyph glyph-name="uni2206" unicode="&#x2206;" horiz-adv-x="675" 
d="M276 712h125l270 -712h-666zM132 82h410l-101 276q-49 135 -103 290h-2q-54 -155 -103 -290z" />
    <glyph glyph-name="product" unicode="&#x220f;" horiz-adv-x="661" 
d="M95 712h471v-832h-92v750h-287v-750h-92v832z" />
    <glyph glyph-name="summation" unicode="&#x2211;" horiz-adv-x="486" 
d="M451 -120h-416v81l203 332l-203 338v81h416v-81h-314l200 -338l-200 -332h314v-81z" />
    <glyph glyph-name="minus" unicode="&#x2212;" horiz-adv-x="566" 
d="M71 280v73h424v-73h-424z" />
    <glyph glyph-name="uni2215" unicode="&#x2215;" horiz-adv-x="457" 
d="M327 745h79l-297 -834h-79z" />
    <glyph glyph-name="uni2219" unicode="&#x2219;" horiz-adv-x="344" 
d="M226 364v-117h-108v117h108z" />
    <glyph glyph-name="radical" unicode="&#x221a;" horiz-adv-x="575" 
d="M107 288h-82v72h141l95 -397h2l213 749h79l-238 -832h-114z" />
    <glyph glyph-name="infinity" unicode="&#x221e;" horiz-adv-x="629" 
d="M614 308q0 -68 -39 -110t-101 -42q-50 0 -87 23.5t-73 72.5q-70 -96 -159 -96q-63 0 -101.5 42t-38.5 110t38.5 110t101.5 42q89 0 159 -96q36 49 73 72.5t87 23.5q62 0 101 -42t39 -110zM108 368q-20 -23 -20 -60q0 -38 19.5 -59.5t55.5 -21.5q31 0 55.5 19t56.5 62
q-32 43 -56.5 62t-55.5 19q-35 0 -55 -21zM408 368q-26 -21 -54 -60q30 -42 55.5 -61.5t56.5 -19.5q35 0 55 21.5t20 59.5t-20 59.5t-55 21.5q-32 0 -58 -21z" />
    <glyph glyph-name="integral" unicode="&#x222b;" horiz-adv-x="314" 
d="M11 -117q9 -3 29 -3q38 0 55.5 20t17.5 66v605q0 146 139 146q29 0 51 -5v-68q-9 3 -29 3q-38 0 -55.5 -20t-17.5 -66v-605q0 -146 -140 -146q-28 0 -50 5v68z" />
    <glyph glyph-name="approxequal" unicode="&#x2248;" horiz-adv-x="566" 
d="M129 154h-63q0 66 33 107q33 40 89 40q30 0 53 -11t59 -39q48 -39 77 -39q28 0 44 20.5t16 55.5h63q0 -66 -33 -106.5t-89 -40.5q-30 0 -54 12t-57 39q-29 22 -44.5 30.5t-33.5 8.5q-28 0 -44 -21t-16 -56zM421 424q16 20 16 56h63q0 -66 -33 -106.5t-89 -40.5
q-48 0 -111 50q-29 22 -44.5 30.5t-33.5 8.5q-28 0 -44 -20.5t-16 -55.5h-63q0 66 33 106.5t89 40.5q30 0 53 -11t59 -40q48 -39 77 -39q27 0 44 21z" />
    <glyph glyph-name="notequal" unicode="&#x2260;" horiz-adv-x="566" 
d="M495 271v-74h-249l-80 -127h-75l80 127h-100v74h146l57 91h-203v74h249l80 127h76l-80 -127h99v-74h-145l-58 -91h203z" />
    <glyph glyph-name="lessequal" unicode="&#x2264;" horiz-adv-x="566" 
d="M71 375l424 165v-77l-342 -135v-2l342 -135v-77l-424 166v95zM495 0h-424v72h424v-72z" />
    <glyph glyph-name="greaterequal" unicode="&#x2265;" horiz-adv-x="566" 
d="M495 280l-424 -166v77l342 135v2l-342 135v77l424 -165v-95zM495 0h-424v72h424v-72z" />
    <glyph glyph-name="lozenge" unicode="&#x25ca;" horiz-adv-x="597" 
d="M40 356l201 356h115l201 -356l-201 -356h-115zM299 648l-168 -292l168 -292l167 292z" />
    <glyph glyph-name="uniF8FF" unicode="&#xf8ff;" horiz-adv-x="623" 
 />
    <glyph glyph-name="uniFB00" unicode="&#xfb00;" horiz-adv-x="578" 
d="M565 712v-68q-10 3 -29 3q-39 0 -56.5 -20.5t-17.5 -65.5v-53h101v-70h-101v-438h-87v438h-186v-438h-87v438h-89v70h89v63q0 146 139 146q29 0 51 -5v-68q-9 3 -29 3q-39 0 -56.5 -20.5t-17.5 -65.5v-53h186v63q0 146 139 146q26 0 51 -5z" />
    <glyph glyph-name="uniFB01" unicode="&#xfb01;" horiz-adv-x="549" 
d="M13 508h89v63q0 146 139 146q29 0 51 -5v-68q-9 3 -29 3q-39 0 -56.5 -20.5t-17.5 -65.5v-53h101v-70h-101v-438h-87v438h-89v70zM383 0v508h88v-508h-88zM471 712v-99h-88v99h88z" />
    <glyph glyph-name="uniFB02" unicode="&#xfb02;" horiz-adv-x="549" 
d="M102 508v63q0 146 139 146q29 0 51 -5v-68q-9 3 -29 3q-39 0 -56.5 -20.5t-17.5 -65.5v-53h101v-70h-101v-438h-87v438h-89v70h89zM471 0h-88v712h88v-712z" />
    <glyph glyph-name="uniFB03" unicode="&#xfb03;" horiz-adv-x="822" 
d="M13 508h89v63q0 146 139 146q29 0 51 -5v-68q-9 3 -29 3q-39 0 -56.5 -20.5t-17.5 -65.5v-53h186v63q0 146 139 146q26 0 51 -5v-68q-10 3 -29 3q-39 0 -56.5 -20.5t-17.5 -65.5v-53h101v-70h-101v-438h-87v438h-186v-438h-87v438h-89v70zM656 0v508h88v-508h-88z
M656 712h88v-99h-88v99z" />
    <glyph glyph-name="uniFB04" unicode="&#xfb04;" horiz-adv-x="822" 
d="M565 712v-68q-10 3 -29 3q-39 0 -56.5 -20.5t-17.5 -65.5v-53h101v-70h-101v-438h-87v438h-186v-438h-87v438h-89v70h89v63q0 146 139 146q29 0 51 -5v-68q-9 3 -29 3q-39 0 -56.5 -20.5t-17.5 -65.5v-53h186v63q0 146 139 146q26 0 51 -5zM656 0v712h88v-712h-88z" />
    <glyph glyph-name="uniFEFF" unicode="&#xfeff;" horiz-adv-x="0" 
 />
    <glyph glyph-name="glyph1" horiz-adv-x="600" 
 />
    <glyph glyph-name="glyph202" horiz-adv-x="356" 
d="M15 1v82q30 -5 43 -5q60 0 88 32.5t28 105.5v496h92v-508q0 -209 -201 -209q-31 0 -50 6zM239 916h113l-123 -143h-76z" />
    <glyph glyph-name="Ccedilla.salt" horiz-adv-x="689" 
d="M638 471h-95q-7 79 -57.5 125t-130.5 46q-101 0 -158 -76q-58 -76 -58 -210q0 -132 57 -209t156 -77q79 0 131 47t63 128h96q-10 -119 -88 -189q-76 -70 -202 -70q-143 0 -226 99.5t-83 270.5q0 172 83.5 271t228.5 99q125 0 201 -70.5t82 -184.5zM323 -49h80l-99 -162
h-110z" />
    <glyph glyph-name="Scedilla.salt" horiz-adv-x="609" 
d="M530 306q30 -41 30 -110q0 -95 -70 -152.5t-185 -57.5q-127 0 -196.5 64.5t-69.5 185.5h95q0 -85 44.5 -128t127.5 -43q76 0 117.5 33t41.5 93q0 70 -72 98q-36 13 -102 30q-88 22 -134.5 43.5t-74.5 59.5q-30 40 -30 108q0 86 65 141t171 55q255 0 255 -234h-93
q0 155 -163 155q-66 0 -103.5 -30t-37.5 -81q3 -55 37 -78t135 -49q80 -19 132 -41q47 -20 80 -62zM146 -211l129 162h80l-99 -162h-110z" />
    <glyph glyph-name="Tcommaaccent.salt" horiz-adv-x="599" 
d="M10 630v82h579v-82h-243v-630h-93v630h-243zM273 -49h80l-99 -162h-110z" />
    <glyph glyph-name="i.locl" horiz-adv-x="244" 
d="M78 0v508h88v-508h-88zM78 613v99h88v-99h-88z" />
    <glyph glyph-name="glyph314" horiz-adv-x="249" 
d="M7 -117q40 0 58 22t18 74v529h88v-537q0 -160 -146 -160q-25 0 -47 5v70q15 -3 29 -3zM61 569l86 143h113l-123 -143h-76z" />
    <glyph glyph-name="ccedilla.salt" horiz-adv-x="534" 
d="M464 84q-28 -46 -76 -72t-108 -26q-110 0 -174.5 72t-64.5 196t64.5 196t174.5 72q90 0 149.5 -54t67.5 -140h-92q-5 54 -40 88t-86 34q-67 0 -106 -52.5t-39 -143.5t38.5 -143.5t106.5 -52.5q51 0 86 36t40 93h92q-4 -58 -33 -103zM123 -211l129 162h80l-99 -162h-110z
" />
    <glyph glyph-name="scedilla.salt" horiz-adv-x="494" 
d="M437 349h-86q0 51 -29.5 78t-83.5 27q-46 0 -72.5 -19.5t-26.5 -52.5q0 -45 48 -62q26 -9 74 -20q64 -16 103 -30q36 -14 63 -45q26 -32 26 -87q0 -69 -54.5 -110.5t-146.5 -41.5q-102 0 -157 47t-56 136h89q0 -54 32.5 -83.5t92.5 -29.5q50 0 80 21t30 55q0 51 -55 71
q-33 11 -85 23q-64 16 -93 28q-32 12 -55 41q-24 29 -24 80q0 65 53 106t135 41q94 0 146 -45t52 -128zM224 -49h80l-99 -162h-110z" />
    <glyph glyph-name="tcommaaccent.salt" horiz-adv-x="320" 
d="M293 2q-23 -6 -56 -6q-73 0 -105.5 34t-32.5 112v296h-88v70h88v123h88v-123h101v-70h-101v-287q0 -44 16 -63t54 -19q19 0 36 5v-72zM152 -49h80l-99 -162h-110z" />
    <glyph glyph-name="a.superior" horiz-adv-x="393" 
d="M350 330h-68q-5 30 -5 50h-2q-40 -58 -126 -58q-57 0 -91 29t-34 77t33 75t110 39q77 10 101 11v12q0 76 -77 76q-74 0 -76 -64h-76q3 53 43.5 86t109.5 33q72 0 110.5 -36t38.5 -105v-131q0 -54 9 -94zM101 433q0 -25 18 -40t51 -15q45 0 70 25q28 28 28 78v19
q-60 -6 -89 -11q-43 -7 -60.5 -19.5t-17.5 -36.5z" />
    <glyph glyph-name="b.superior" horiz-adv-x="423" 
d="M352 645q42 -51 42 -136q0 -86 -42.5 -137t-112.5 -51q-35 0 -64.5 16t-43.5 42h-2v-49h-74v498h75v-188h2q15 25 44.5 40.5t63.5 15.5q70 0 112 -51zM126 509q0 -58 26 -92.5t68 -34.5q43 0 69 34.5t26 92.5q0 57 -26 92t-69 35q-42 0 -68 -34.5t-26 -92.5z" />
    <glyph glyph-name="c.superior" horiz-adv-x="393" 
d="M319 656q43 -40 48 -99h-79q-2 32 -25 54.5t-58 22.5q-44 0 -70 -34t-26 -92t26 -92t71 -34q33 0 56.5 24t25.5 59h79q-5 -64 -49.5 -104.5t-112.5 -40.5q-81 0 -128.5 50.5t-47.5 137.5t47.5 137.5t128.5 50.5q71 0 114 -40z" />
    <glyph glyph-name="d.superior" horiz-adv-x="423" 
d="M368 828v-498h-74v49h-1q-15 -26 -44.5 -42t-64.5 -16q-70 0 -112.5 51t-42.5 137q0 85 42 136t113 51q33 0 62.5 -15.5t44.5 -40.5h2v188h75zM134 601q-26 -35 -26 -92q0 -58 26 -92.5t69 -34.5t68.5 34.5t25.5 92.5t-25.5 92.5t-68.5 34.5t-69 -35z" />
    <glyph glyph-name="e.superior" horiz-adv-x="404" 
d="M367 574q8 -30 8 -82h-271q2 -57 29.5 -86.5t71.5 -29.5q35 0 59 16.5t30 44.5h78q-10 -52 -54.5 -84.5t-112.5 -32.5q-82 0 -129 52t-47 141q0 79 47 132q47 51 128 51q63 0 105.5 -32.5t57.5 -89.5zM137 616q-28 -26 -32 -71h195q-5 45 -31 70t-65 25q-42 0 -67 -24z
" />
    <glyph glyph-name="egrave.superior" horiz-adv-x="404" 
d="M367 574q8 -30 8 -82h-208l13 -19h-72l-3 3q6 -50 32.5 -75t67.5 -25q35 0 59 16.5t30 44.5h78q-10 -52 -54.5 -84.5t-112.5 -32.5q-82 0 -129 52t-47 141q0 19 3 36l-23 23h28q15 57 59 90.5t108 33.5q63 0 105.5 -32.5t57.5 -89.5zM146 623q-24 -17 -35 -51l19 -27h170
q-4 45 -30 70t-66 25q-33 0 -58 -17z" />
    <glyph glyph-name="f.superior" horiz-adv-x="230" 
d="M147 330h-75v297h-62v59h62v39q0 107 108 107q23 0 41 -5v-56q-9 3 -22 3q-27 0 -39.5 -13.5t-12.5 -44.5v-30h72v-59h-72v-297z" />
    <glyph glyph-name="g.superior" horiz-adv-x="420" 
d="M366 686v-333q0 -78 -43 -118.5t-125 -40.5q-71 0 -111 30t-42 84h74q1 -28 22.5 -43.5t57.5 -15.5q48 0 70.5 24.5t22.5 80.5v38h-2q-39 -54 -106 -54q-71 0 -113 48.5t-42 130.5q0 81 42 129.5t113 48.5q70 0 108 -56h1v47h73zM107 517q0 -53 25 -85.5t67 -32.5
q44 0 70 31.5t26 86.5t-26 86.5t-70 31.5q-42 0 -67 -32.5t-25 -85.5z" />
    <glyph glyph-name="h.superior" horiz-adv-x="422" 
d="M130 828v-183h2q37 49 106 49q64 0 98.5 -37.5t34.5 -109.5v-217h-76v211q0 49 -18.5 70.5t-58.5 21.5q-39 0 -63.5 -27.5t-24.5 -76.5v-199h-75v498h75z" />
    <glyph glyph-name="i.superior" horiz-adv-x="185" 
d="M55 330v356h75v-356h-75zM55 828h75v-74h-75v74z" />
    <glyph glyph-name="j.superior" horiz-adv-x="190" 
d="M-15 201v59q10 -2 22 -2q28 0 40.5 13.5t12.5 45.5v369h75v-377q0 -112 -111 -112q-24 0 -39 4zM135 754h-75v74h75v-74z" />
    <glyph glyph-name="k.superior" horiz-adv-x="373" 
d="M55 828h75v-287h2l134 145h94l-156 -161l174 -195h-98l-148 174h-2v-174h-75v498z" />
    <glyph glyph-name="l.superior" horiz-adv-x="185" 
d="M55 330v498h75v-498h-75z" />
    <glyph glyph-name="m.superior" horiz-adv-x="630" 
d="M579 550v-220h-75v213q0 90 -68 90q-38 0 -59.5 -28.5t-21.5 -77.5v-197h-76v221q0 82 -68 82q-38 0 -59.5 -29t-21.5 -80v-194h-75v356h72v-42h2q42 50 101 50q78 0 109 -66q39 66 116 66q60 0 92 -36.5t32 -107.5z" />
    <glyph glyph-name="n.superior" horiz-adv-x="422" 
d="M129 642q39 52 109 52q64 0 98.5 -37.5t34.5 -109.5v-217h-76v211q0 49 -18.5 70.5t-58.5 21.5q-39 0 -63.5 -27.5t-24.5 -76.5v-199h-75v356h72v-44h2z" />
    <glyph glyph-name="o.superior" horiz-adv-x="416" 
d="M78 371q-49 49 -49 137q0 87 48.5 137.5t130.5 50.5q83 0 131 -50.5t48 -137.5q0 -88 -48 -138t-131 -50q-82 0 -130 51zM110 508q0 -59 26 -93t72 -34q47 0 73.5 34t26.5 93t-26.5 93t-73.5 34q-46 0 -72 -34t-26 -93z" />
    <glyph glyph-name="p.superior" horiz-adv-x="423" 
d="M394 509q0 -86 -42 -137t-112 -51q-33 0 -63 15.5t-45 39.5h-2v-175h-75v485h74v-48h2q14 26 43.5 42t64.5 16q69 0 113 -51q42 -51 42 -136zM152 602q-26 -35 -26 -93q0 -57 26 -92t68 -35q43 0 69 34.5t26 92.5q0 57 -26 92t-69 35t-68 -34z" />
    <glyph glyph-name="q.superior" horiz-adv-x="423" 
d="M368 686v-485h-75v175h-2q-15 -25 -44 -40t-63 -15q-71 0 -113 51t-42 137t43 136q42 51 112 51q35 0 64.5 -16t44.5 -42h1v48h74zM108 509q0 -57 26 -92t69 -35t68.5 34.5t25.5 92.5t-25.5 92.5t-68.5 34.5t-69 -35t-26 -92z" />
    <glyph glyph-name="r.superior" horiz-adv-x="272" 
d="M55 686h72v-53h2q38 57 107 57q16 0 29 -3v-69q-13 3 -29 3q-51 0 -78.5 -31t-27.5 -88v-172h-75v356z" />
    <glyph glyph-name="s.superior" horiz-adv-x="366" 
d="M317 491q20 -23 20 -62q0 -50 -40.5 -79.5t-109.5 -29.5q-76 0 -117 32.5t-42 95.5h76q0 -72 84 -72q33 0 53 13t20 34q-4 28 -18.5 36.5t-79.5 25.5q-49 11 -70.5 19.5t-37.5 28.5q-18 21 -18 58q0 48 38 76.5t103 28.5q70 0 108.5 -31t39.5 -90h-74q0 66 -75 66
q-31 0 -48 -12t-17 -32q4 -24 16.5 -31.5t68.5 -21.5q54 -14 77.5 -23.5t42.5 -29.5z" />
    <glyph glyph-name="t.superior" horiz-adv-x="240" 
d="M220 392v-61q-20 -4 -43 -4q-57 0 -82 24.5t-25 80.5v195h-63v59h63v87h75v-87h72v-59h-72v-184q0 -29 11.5 -41.5t38.5 -12.5q10 0 25 3z" />
    <glyph glyph-name="u.superior" horiz-adv-x="421" 
d="M184 322q-63 0 -98 38t-35 109v217h75v-211q0 -49 19 -70.5t58 -21.5t63.5 27.5t24.5 76.5v199h76v-356h-73v44h-1q-39 -52 -109 -52z" />
    <glyph glyph-name="v.superior" horiz-adv-x="349" 
d="M-4 686h81l48 -142q24 -73 49 -154h2q17 60 35 113l61 183h81l-128 -356h-100z" />
    <glyph glyph-name="w.superior" horiz-adv-x="567" 
d="M486 686h76l-95 -356h-106l-38 146q-18 70 -30 118l-9 35h-1l-38 -153l-39 -146h-106l-95 356h76l35 -143q20 -76 37 -156h2l9 37q15 65 28 115l39 147h105l39 -147q28 -111 37 -152h2z" />
    <glyph glyph-name="x.superior" horiz-adv-x="357" 
d="M-1 330l133 186l-122 170h89l79 -122h2l79 122h88l-122 -170l134 -186h-90l-89 136h-2l-90 -136h-89z" />
    <glyph glyph-name="y.superior" horiz-adv-x="353" 
d="M137 330l-141 356h82l100 -275h2l98 275h79l-141 -367q-29 -72 -61 -97t-95 -25q-17 0 -37 4v61q11 -4 29 -4q36 0 53 15t32 57z" />
    <glyph glyph-name="z.superior" horiz-adv-x="343" 
d="M324 330h-305v64l205 229v2h-199v61h293v-64l-205 -229v-2h211v-61z" />
    <glyph glyph-name="A.aalt" horiz-adv-x="565" 
d="M5 0l216 548h123l216 -548h-98l-55 146h-249l-55 -146h-98zM204 270l-17 -45h191l-26 69q-38 100 -69 188h-2q-45 -128 -77 -212z" />
    <glyph glyph-name="Aacute.aalt" horiz-adv-x="565" 
d="M462 0l-55 146h-249l-55 -146h-98l216 548h123l216 -548h-98zM378 225l-26 69q-38 100 -69 188h-2q-45 -128 -77 -212l-17 -45h191zM302 752h113l-123 -143h-76z" />
    <glyph glyph-name="Abreve.aalt" horiz-adv-x="565" 
d="M462 0l-55 146h-249l-55 -146h-98l216 548h123l216 -548h-98zM127 752h66q4 -39 27.5 -60t62.5 -21q79 0 90 81h65q-5 -68 -45.5 -105.5t-109.5 -37.5t-110 37.5t-46 105.5zM187 225h191l-26 69q-38 100 -69 188h-2q-45 -128 -77 -212z" />
    <glyph glyph-name="Acircumflex.aalt" horiz-adv-x="565" 
d="M462 0l-55 146h-249l-55 -146h-98l216 548h123l216 -548h-98zM187 225h191l-26 69q-38 100 -69 188h-2q-45 -128 -77 -212zM234 752h97l114 -143h-89l-73 93l-74 -93h-89z" />
    <glyph glyph-name="Adieresis.aalt" horiz-adv-x="565" 
d="M462 0l-55 146h-249l-55 -146h-98l216 548h123l216 -548h-98zM187 225h191l-26 69q-38 100 -69 188h-2q-45 -128 -77 -212zM421 752v-99h-82v99h82zM144 653v99h82v-99h-82z" />
    <glyph glyph-name="Agrave.aalt" horiz-adv-x="565" 
d="M462 0l-55 146h-249l-55 -146h-98l216 548h123l216 -548h-98zM378 225l-26 69q-38 100 -69 188h-2q-45 -128 -77 -212l-17 -45h191zM263 752l86 -143h-76l-123 143h113z" />
    <glyph glyph-name="Amacron.aalt" horiz-adv-x="565" 
d="M462 0l-55 146h-249l-55 -146h-98l216 548h123l216 -548h-98zM378 225l-26 69q-38 100 -69 188h-2q-45 -128 -77 -212l-17 -45h191zM140 720h284v-64h-284v64z" />
    <glyph glyph-name="Aogonek.aalt" horiz-adv-x="565" 
d="M563 -131v-53q-24 -10 -59 -10q-99 0 -99 80q0 59 78 114h-21l-55 146h-249l-55 -146h-98l216 548h123l216 -548q-76 -56 -76 -102q0 -36 40 -36q24 0 39 7zM187 225h191l-26 69q-38 100 -69 188h-2q-45 -128 -77 -212z" />
    <glyph glyph-name="Aring.aalt" horiz-adv-x="565" 
d="M462 0l-55 146h-249l-55 -146h-98l216 548h123l216 -548h-98zM212 777q29 29 70 29t72 -29q29 -31 29 -71q0 -42 -29 -71q-30 -30 -72 -30t-70 30q-30 29 -30 71q0 41 30 71zM378 225l-26 69q-38 100 -69 188h-2q-45 -128 -77 -212l-17 -45h191zM225 706q0 -24 17 -41
t40 -17q25 0 41.5 16.5t16.5 41.5q0 24 -16.5 41t-41.5 17q-23 0 -40 -17t-17 -41z" />
    <glyph glyph-name="Atilde.aalt" horiz-adv-x="565" 
d="M462 0l-55 146h-249l-55 -146h-98l216 548h123l216 -548h-98zM140 716q27 30 71 30q35 0 82 -29q40 -22 58 -22q40 0 46 51h58q-3 -55 -30 -85t-71 -30q-35 0 -82 29q-40 22 -58 22q-42 0 -46 -51h-58q3 55 30 85zM378 225l-26 69q-38 100 -69 188h-2q-45 -128 -77 -212
l-17 -45h191z" />
    <glyph glyph-name="AE.aalt" horiz-adv-x="782" 
d="M731 79v-79h-314l-25 157h-217l-78 -157h-102l277 548h452v-79h-289l24 -150h247v-78h-235l26 -162h234zM330 470l-116 -234h165l-37 234h-12z" />
    <glyph glyph-name="B.aalt" horiz-adv-x="547" 
d="M467 235q28 -32 28 -82q0 -70 -53 -111.5t-145 -41.5h-212v548h199q97 0 148 -37.5t51 -104.5q0 -94 -96 -124v-2q51 -12 80 -45zM272 242h-96v-167h105q62 0 90.5 20t28.5 63q0 84 -128 84zM276 473h-100v-158h95q122 0 122 78q0 80 -117 80z" />
    <glyph glyph-name="C.aalt" horiz-adv-x="587" 
d="M467 507q64 -56 68 -147h-95q-6 56 -44.5 88t-99.5 32q-75 0 -118.5 -55t-43.5 -151t43.5 -151t118.5 -55q59 0 98 32.5t47 90.5h97q-9 -96 -73 -150.5t-169 -54.5q-120 0 -189 77t-69 211t69 211t189 77q107 0 171 -55z" />
    <glyph glyph-name="Cacute.aalt" horiz-adv-x="587" 
d="M535 360h-95q-6 56 -44.5 88t-99.5 32q-75 0 -118.5 -55t-43.5 -151t43.5 -151t118.5 -55q59 0 98 32.5t47 90.5h97q-9 -96 -73 -150.5t-169 -54.5q-120 0 -189 77t-69 211t69 211t189 77q107 0 171 -55q64 -56 68 -147zM229 609l86 143h113l-123 -143h-76z" />
    <glyph glyph-name="Ccaron.aalt" horiz-adv-x="587" 
d="M535 360h-95q-6 56 -44.5 88t-99.5 32q-75 0 -118.5 -55t-43.5 -151t43.5 -151t118.5 -55q59 0 98 32.5t47 90.5h97q-9 -96 -73 -150.5t-169 -54.5q-120 0 -189 77t-69 211t69 211t189 77q107 0 171 -55q64 -56 68 -147zM222 752l74 -93l73 93h89l-114 -143h-97l-114 143
h89z" />
    <glyph glyph-name="Ccedilla.c2sc" horiz-adv-x="587" 
d="M441 191h97q-8 -88 -63 -141.5t-146 -61.5l-32 -50q18 3 26 3q34 0 57 -21t23 -53q0 -38 -29 -62.5t-81 -24.5q-54 0 -105 27l18 37q36 -21 78 -21q56 0 56 41q0 19 -14.5 30.5t-38.5 11.5q-17 0 -31 -6l-18 20l44 66q-114 5 -179 81t-65 207q0 134 69 211t189 77
q107 0 171 -55q64 -56 68 -147h-95q-6 56 -44.5 88t-99.5 32q-75 0 -118.5 -55t-43.5 -151t43.5 -151t118.5 -55q59 0 98 32.5t47 90.5z" />
    <glyph glyph-name="Ccircumflex.aalt" horiz-adv-x="587" 
d="M535 360h-95q-6 56 -44.5 88t-99.5 32q-75 0 -118.5 -55t-43.5 -151t43.5 -151t118.5 -55q59 0 98 32.5t47 90.5h97q-9 -96 -73 -150.5t-169 -54.5q-120 0 -189 77t-69 211t69 211t189 77q107 0 171 -55q64 -56 68 -147zM247 752h97l114 -143h-89l-73 93l-74 -93h-89z
" />
    <glyph glyph-name="Cdotaccent.aalt" horiz-adv-x="587" 
d="M535 360h-95q-6 56 -44.5 88t-99.5 32q-75 0 -118.5 -55t-43.5 -151t43.5 -151t118.5 -55q59 0 98 32.5t47 90.5h97q-9 -96 -73 -150.5t-169 -54.5q-120 0 -189 77t-69 211t69 211t189 77q107 0 171 -55q64 -56 68 -147zM340 752v-99h-88v99h88z" />
    <glyph glyph-name="D.aalt" horiz-adv-x="609" 
d="M268 0h-183v548h183q146 0 224.5 -71t78.5 -203t-78.5 -203t-224.5 -71zM176 80h92q101 0 154 50t53 144t-53 144t-154 50h-92v-388z" />
    <glyph glyph-name="Eth.aalt" horiz-adv-x="611" 
d="M495 477q78 -70 78 -203q0 -132 -78.5 -203t-224.5 -71h-183v244h-63v66h63v238h183q145 0 225 -71zM178 80h92q101 0 154 50t53 144t-53 144t-154 50h-92v-158h146v-66h-146v-164z" />
    <glyph glyph-name="Dcaron.aalt" horiz-adv-x="609" 
d="M571 274q0 -132 -78.5 -203t-224.5 -71h-183v548h183q146 0 224.5 -71t78.5 -203zM268 80q101 0 154 50t53 144t-53 144t-154 50h-92v-388h92zM207 752l74 -93l73 93h89l-114 -143h-97l-114 143h89z" />
    <glyph glyph-name="Dcroat.aalt" horiz-adv-x="611" 
d="M573 274q0 -132 -78.5 -203t-224.5 -71h-183v244h-63v66h63v238h183q146 0 224.5 -71t78.5 -203zM178 310h146v-66h-146v-164h92q101 0 154 50t53 144t-53 144t-154 50h-92v-158z" />
    <glyph glyph-name="E.aalt" horiz-adv-x="526" 
d="M478 0h-393v548h385v-79h-293v-150h276v-78h-276v-162h301v-79z" />
    <glyph glyph-name="Eacute.aalt" horiz-adv-x="526" 
d="M85 548h385v-79h-293v-150h276v-78h-276v-162h301v-79h-393v548zM297 752h113l-123 -143h-76z" />
    <glyph glyph-name="Ebreve.aalt" horiz-adv-x="526" 
d="M478 0h-393v548h385v-79h-293v-150h276v-78h-276v-162h301v-79zM189 752q4 -39 27.5 -60t62.5 -21q79 0 90 81h65q-5 -68 -45.5 -105.5t-109.5 -37.5t-110 37.5t-46 105.5h66z" />
    <glyph glyph-name="Ecaron.aalt" horiz-adv-x="526" 
d="M478 0h-393v548h385v-79h-293v-150h276v-78h-276v-162h301v-79zM204 752l74 -93l73 93h89l-114 -143h-97l-114 143h89z" />
    <glyph glyph-name="Ecircumflex.aalt" horiz-adv-x="526" 
d="M478 0h-393v548h385v-79h-293v-150h276v-78h-276v-162h301v-79zM229 752h97l114 -143h-89l-73 93l-74 -93h-89z" />
    <glyph glyph-name="Edieresis.aalt" horiz-adv-x="526" 
d="M478 0h-393v548h385v-79h-293v-150h276v-78h-276v-162h301v-79zM416 752v-99h-82v99h82zM139 653v99h82v-99h-82z" />
    <glyph glyph-name="Edotaccent.aalt" horiz-adv-x="526" 
d="M85 548h385v-79h-293v-150h276v-78h-276v-162h301v-79h-393v548zM322 752v-99h-88v99h88z" />
    <glyph glyph-name="Egrave.aalt" horiz-adv-x="526" 
d="M85 548h385v-79h-293v-150h276v-78h-276v-162h301v-79h-393v548zM259 752l86 -143h-76l-123 143h113z" />
    <glyph glyph-name="Emacron.aalt" horiz-adv-x="526" 
d="M85 548h385v-79h-293v-150h276v-78h-276v-162h301v-79h-393v548zM136 720h284v-64h-284v64z" />
    <glyph glyph-name="Eogonek.aalt" horiz-adv-x="526" 
d="M481 -131v-53q-24 -10 -59 -10q-99 0 -99 80q0 59 78 114h-316v548h385v-79h-293v-150h276v-78h-276v-162h301v-79q-76 -56 -76 -102q0 -36 40 -36q24 0 39 7z" />
    <glyph glyph-name="F.aalt" horiz-adv-x="486" 
d="M85 0v548h374v-80h-283v-166h265v-80h-265v-222h-91z" />
    <glyph glyph-name="uniFB01.aalt" horiz-adv-x="748" 
d="M85 0v548h374v-80h-283v-166h265v-80h-265v-222h-91zM571 548h92v-548h-92v548z" />
    <glyph glyph-name="uniFB02.aalt" horiz-adv-x="962" 
d="M459 548v-80h-283v-166h265v-80h-265v-222h-91v548h374zM663 548v-468h289v-80h-381v548h92z" />
    <glyph glyph-name="G.aalt" horiz-adv-x="617" 
d="M542 298v-298h-82v63h-2q-24 -34 -71 -54t-104 -20q-113 0 -179 76t-66 208q0 133 72 211t195 78q100 0 164 -48t74 -131h-98q-20 98 -140 98q-78 0 -124.5 -56t-46.5 -152t44.5 -151.5t121.5 -55.5q73 0 113.5 40t41.5 117h-151v75h238z" />
    <glyph glyph-name="Gbreve.aalt" horiz-adv-x="617" 
d="M458 63q-24 -34 -71 -54t-104 -20q-113 0 -179 76t-66 208q0 133 72 211t195 78q100 0 164 -48t74 -131h-98q-20 98 -140 98q-78 0 -124.5 -56t-46.5 -152t44.5 -151.5t121.5 -55.5q73 0 113.5 40t41.5 117h-151v75h238v-298h-82v63h-2zM144 752h66q4 -39 27.5 -60
t62.5 -21q79 0 90 81h65q-5 -68 -45.5 -105.5t-109.5 -37.5t-110 37.5t-46 105.5z" />
    <glyph glyph-name="Gcircumflex.aalt" horiz-adv-x="617" 
d="M543 383h-98q-20 98 -140 98q-78 0 -124.5 -56t-46.5 -152t44.5 -151.5t121.5 -55.5q73 0 113.5 40t41.5 117h-151v75h238v-298h-82v63h-2q-24 -34 -71 -54t-104 -20q-113 0 -179 76t-66 208q0 133 72 211t195 78q100 0 164 -48t74 -131zM137 609l114 143h97l114 -143
h-89l-73 93l-74 -93h-89z" />
    <glyph glyph-name="Gcommaaccent.aalt" horiz-adv-x="617" 
d="M543 383h-98q-20 98 -140 98q-78 0 -124.5 -56t-46.5 -152t44.5 -151.5t121.5 -55.5q73 0 113.5 40t41.5 117h-151v75h238v-298h-82v63h-2q-24 -34 -71 -54t-104 -20q-113 0 -179 76t-66 208q0 133 72 211t195 78q100 0 164 -48t74 -131zM254 -257l38 103h-34v89h89v-89
l-55 -103h-38z" />
    <glyph glyph-name="Gdotaccent.aalt" horiz-adv-x="617" 
d="M542 0h-82v63h-2q-24 -34 -71 -54t-104 -20q-113 0 -179 76t-66 208q0 133 72 211t195 78q100 0 164 -48t74 -131h-98q-20 98 -140 98q-78 0 -124.5 -56t-46.5 -152t44.5 -151.5t121.5 -55.5q73 0 113.5 40t41.5 117h-151v75h238v-298zM343 752v-99h-88v99h88z" />
    <glyph glyph-name="H.aalt" horiz-adv-x="630" 
d="M85 0v548h92v-224h276v224h92v-548h-92v244h-276v-244h-92z" />
    <glyph glyph-name="Hbar.aalt" horiz-adv-x="630" 
d="M590 492v-55h-45v-437h-92v244h-276v-244h-92v437h-45v55h45v56h92v-56h276v56h92v-56h45zM453 437h-276v-113h276v113z" />
    <glyph glyph-name="Hcircumflex.aalt" horiz-adv-x="630" 
d="M545 0h-92v244h-276v-244h-92v548h92v-224h276v224h92v-548zM153 609l114 143h97l114 -143h-89l-73 93l-74 -93h-89z" />
    <glyph glyph-name="I.aalt" horiz-adv-x="262" 
d="M85 0v548h92v-548h-92z" />
    <glyph glyph-name="Iacute.aalt" horiz-adv-x="262" 
d="M177 548v-548h-92v548h92zM64 609l86 143h113l-123 -143h-76z" />
    <glyph glyph-name="Ibreve.aalt" horiz-adv-x="262" 
d="M177 548v-548h-92v548h92zM55 752q6 -82 76 -82t76 82h63q-3 -68 -39.5 -105.5t-99.5 -37.5t-99.5 37.5t-39.5 105.5h63z" />
    <glyph glyph-name="Icircumflex.aalt" horiz-adv-x="262" 
d="M85 548h92v-548h-92v548zM83 752h96l100 -142h-85l-63 93l-62 -93h-86z" />
    <glyph glyph-name="Idieresis.aalt" horiz-adv-x="262" 
d="M85 548h92v-548h-92v548zM13 752h82v-99h-82v99zM167 752h81v-99h-81v99z" />
    <glyph glyph-name="Idotaccent.aalt" horiz-adv-x="262" 
d="M85 0v548h92v-548h-92zM175 752v-99h-88v99h88z" />
    <glyph glyph-name="Igrave.aalt" horiz-adv-x="262" 
d="M177 548v-548h-92v548h92zM-1 752h113l86 -143h-76z" />
    <glyph glyph-name="IJ.aalt" horiz-adv-x="572" 
d="M310 77q48 0 69.5 23.5t21.5 78.5v369h91v-382q0 -170 -171 -170q-21 0 -46 5v79q18 -3 35 -3zM177 548v-548h-92v548h92z" />
    <glyph glyph-name="Imacron.aalt" horiz-adv-x="262" 
d="M85 548h92v-548h-92v548zM2 722h257v-65h-257v65z" />
    <glyph glyph-name="Iogonek.aalt" horiz-adv-x="262" 
d="M47 -173q-25 21 -25 59q0 59 78 114h-15v548h92v-548q-76 -56 -76 -102q0 -36 40 -36q24 0 39 7v-53q-24 -10 -59 -10q-50 0 -74 21z" />
    <glyph glyph-name="Itilde.aalt" horiz-adv-x="262" 
d="M177 548v-548h-92v548h92zM256 661q-26 -30 -67 -30q-13 0 -24.5 4t-19.5 9t-25 17q-33 22 -47 22q-38 0 -42 -52h-51q2 55 26.5 85t66.5 30q19 0 32 -6.5t37 -23.5q30 -23 47 -23q37 0 41 53h52q-1 -54 -26 -85z" />
    <glyph glyph-name="J.c2sc" horiz-adv-x="310" 
d="M13 1v79q18 -3 35 -3q48 0 69.5 23.5t21.5 78.5v369h91v-382q0 -170 -171 -170q-21 0 -46 5z" />
    <glyph glyph-name="Jcircumflex.aalt" horiz-adv-x="310" 
d="M13 80q18 -3 35 -3q48 0 69.5 23.5t21.5 78.5v369h91v-382q0 -170 -171 -170q-21 0 -46 5v79zM136 752h96l100 -142h-85l-63 93l-62 -93h-86z" />
    <glyph glyph-name="K.aalt" horiz-adv-x="540" 
d="M85 548h92v-243h2l219 243h115l-243 -261l266 -287h-122l-235 264h-2v-264h-92v548z" />
    <glyph glyph-name="Kcommaaccent.aalt" horiz-adv-x="540" 
d="M414 0l-235 264h-2v-264h-92v548h92v-243h2l219 243h115l-243 -261l266 -287h-122zM273 -154h-34v89h89v-89l-55 -103h-38z" />
    <glyph glyph-name="L.aalt" horiz-adv-x="476" 
d="M85 548h92v-468h289v-80h-381v548z" />
    <glyph glyph-name="Lacute.aalt" horiz-adv-x="476" 
d="M177 548v-468h289v-80h-381v548h92zM96 609l86 143h113l-123 -143h-76z" />
    <glyph glyph-name="Lcaron.aalt" horiz-adv-x="476" 
d="M177 548v-468h289v-80h-381v548h92zM257 548h80l-55 -176h-54z" />
    <glyph glyph-name="Lcommaaccent.aalt" horiz-adv-x="476" 
d="M85 0v548h92v-468h289v-80h-381zM261 -154h-34v89h89v-89l-55 -103h-38z" />
    <glyph glyph-name="Ldot.aalt" horiz-adv-x="536" 
d="M85 548h92v-468h289v-80h-381v548zM453 283h-108v117h108v-117z" />
    <glyph glyph-name="glyph418" horiz-adv-x="310" 
d="M13 80q18 -3 35 -3q48 0 69.5 23.5t21.5 78.5v369h91v-382q0 -170 -171 -170q-21 0 -46 5v79zM203 752h113l-123 -143h-76z" />
    <glyph glyph-name="Lslash.aalt" horiz-adv-x="472" 
d="M14 272l67 38v238h92v-193l115 65v-75l-115 -64v-201h289v-80h-381v235l-67 -38v75z" />
    <glyph glyph-name="M.aalt" horiz-adv-x="802" 
d="M717 548v-548h-89v271q0 24 2 202h-2q-43 -125 -72 -202l-101 -271h-108l-100 271q-36 95 -73 202h-2q2 -90 2 -202v-271h-89v548h148l95 -257q48 -131 72 -207h2q30 90 73 207l94 257h148z" />
    <glyph glyph-name="N.aalt" horiz-adv-x="648" 
d="M85 0v548h136l127 -230q76 -140 126 -234h2q-2 224 -2 252v212h89v-548h-135l-127 230q-72 130 -127 234h-2q2 -112 2 -252v-212h-89z" />
    <glyph glyph-name="Nacute.aalt" horiz-adv-x="648" 
d="M563 0h-135l-127 230q-72 130 -127 234h-2q2 -112 2 -252v-212h-89v548h136l127 -230q76 -140 126 -234h2q-2 224 -2 252v212h89v-548zM257 609l86 143h113l-123 -143h-76z" />
    <glyph glyph-name="Ncaron.aalt" horiz-adv-x="648" 
d="M563 0h-135l-127 230q-72 130 -127 234h-2q2 -112 2 -252v-212h-89v548h136l127 -230q76 -140 126 -234h2q-2 224 -2 252v212h89v-548zM250 752l74 -93l73 93h89l-114 -143h-97l-114 143h89z" />
    <glyph glyph-name="Ncommaaccent.aalt" horiz-adv-x="648" 
d="M563 0h-135l-127 230q-72 130 -127 234h-2q2 -112 2 -252v-212h-89v548h136l127 -230q76 -140 126 -234h2q-2 224 -2 252v212h89v-548zM313 -154h-34v89h89v-89l-55 -103h-38z" />
    <glyph glyph-name="Eng.aalt" horiz-adv-x="639" 
d="M554 548v-574q0 -133 -130 -133q-24 0 -44 5v66q24 -2 26 -2q58 0 58 64v26l-157 244q-42 62 -134 210h-2q3 -118 3 -237v-217h-89v548h125l123 -190q77 -117 133 -210h2q-3 119 -3 236v164h89z" />
    <glyph glyph-name="Ntilde.aalt" horiz-adv-x="648" 
d="M563 0h-135l-127 230q-72 130 -127 234h-2q2 -112 2 -252v-212h-89v548h136l127 -230q76 -140 126 -234h2q-2 224 -2 252v212h89v-548zM152 631q3 55 30 85t71 30q35 0 82 -29q40 -22 58 -22q40 0 46 51h58q-3 -55 -30 -85t-71 -30q-35 0 -82 29q-40 22 -58 22
q-42 0 -46 -51h-58z" />
    <glyph glyph-name="O.aalt" horiz-adv-x="614" 
d="M576 274q0 -131 -73 -209.5t-196 -78.5q-121 0 -194.5 78.5t-73.5 209.5t73.5 209.5t194.5 78.5q123 0 196 -78.5t73 -209.5zM135 274q0 -95 46 -150.5t126 -55.5t126.5 55.5t46.5 150.5t-46.5 150.5t-126.5 55.5t-126 -55.5t-46 -150.5z" />
    <glyph glyph-name="Oacute.aalt" horiz-adv-x="614" 
d="M543 122q-69 -136 -236 -136q-121 0 -194.5 78.5t-73.5 209.5t73.5 209.5t194.5 78.5q123 0 196 -78.5t73 -209.5q0 -88 -33 -152zM135 274q0 -95 46 -150.5t126 -55.5t126.5 55.5t46.5 150.5t-46.5 150.5t-126.5 55.5t-126 -55.5t-46 -150.5zM326 752h113l-123 -143h-76
z" />
    <glyph glyph-name="Obreve.aalt" horiz-adv-x="614" 
d="M543 122q-69 -136 -236 -136q-121 0 -194.5 78.5t-73.5 209.5t73.5 209.5t194.5 78.5q123 0 196 -78.5t73 -209.5q0 -88 -33 -152zM181 124q47 -56 126 -56q80 0 126.5 55.5t46.5 150.5t-46.5 150.5t-126.5 55.5t-126 -55.5t-46 -150.5t46 -150zM218 752q4 -39 27.5 -60
t62.5 -21q79 0 90 81h65q-5 -68 -45.5 -105.5t-109.5 -37.5t-110 37.5t-46 105.5h66z" />
    <glyph glyph-name="Ocircumflex.aalt" horiz-adv-x="614" 
d="M576 274q0 -131 -73 -209.5t-196 -78.5q-121 0 -194.5 78.5t-73.5 209.5t73.5 209.5t194.5 78.5q123 0 196 -78.5t73 -209.5zM181 124q47 -56 126 -56q80 0 126.5 55.5t46.5 150.5t-46.5 150.5t-126.5 55.5t-126 -55.5t-46 -150.5t46 -150zM258 752h97l114 -143h-89
l-73 93l-74 -93h-89z" />
    <glyph glyph-name="Odieresis.aalt" horiz-adv-x="614" 
d="M543 122q-69 -136 -236 -136q-121 0 -194.5 78.5t-73.5 209.5t73.5 209.5t194.5 78.5q123 0 196 -78.5t73 -209.5q0 -88 -33 -152zM135 274q0 -95 46 -150.5t126 -55.5t126.5 55.5t46.5 150.5t-46.5 150.5t-126.5 55.5t-126 -55.5t-46 -150.5zM363 653v99h82v-99h-82z
M168 653v99h82v-99h-82z" />
    <glyph glyph-name="Ograve.aalt" horiz-adv-x="614" 
d="M576 274q0 -131 -73 -209.5t-196 -78.5q-121 0 -194.5 78.5t-73.5 209.5t73.5 209.5t194.5 78.5q123 0 196 -78.5t73 -209.5zM181 124q47 -56 126 -56q80 0 126.5 55.5t46.5 150.5t-46.5 150.5t-126.5 55.5t-126 -55.5t-46 -150.5t46 -150zM175 752h113l86 -143h-76z" />
    <glyph glyph-name="Ohungarumlaut.aalt" horiz-adv-x="614" 
d="M543 122q-69 -136 -236 -136q-121 0 -194.5 78.5t-73.5 209.5t73.5 209.5t194.5 78.5q123 0 196 -78.5t73 -209.5q0 -88 -33 -152zM135 274q0 -95 46 -150.5t126 -55.5t126.5 55.5t46.5 150.5t-46.5 150.5t-126.5 55.5t-126 -55.5t-46 -150.5zM329 609l106 143h104
l-136 -143h-74zM169 609l106 143h104l-136 -143h-74z" />
    <glyph glyph-name="Omacron.aalt" horiz-adv-x="614" 
d="M543 122q-69 -136 -236 -136q-121 0 -194.5 78.5t-73.5 209.5t73.5 209.5t194.5 78.5q123 0 196 -78.5t73 -209.5q0 -88 -33 -152zM135 274q0 -95 46 -150.5t126 -55.5t126.5 55.5t46.5 150.5t-46.5 150.5t-126.5 55.5t-126 -55.5t-46 -150.5zM165 720h284v-64h-284v64z
" />
    <glyph glyph-name="Oslash.aalt" horiz-adv-x="614" 
d="M576 274q0 -131 -73 -209.5t-196 -78.5q-90 0 -154 43l-49 -61l-49 38l51 65q-67 75 -67 203q0 131 73.5 209.5t194.5 78.5q91 0 156 -43l47 60l50 -37l-51 -64q67 -77 67 -204zM179 427q-47 -58 -47 -153q0 -78 31 -131l246 308q-44 32 -102 32q-81 0 -128 -56zM452 403
l-246 -307q41 -31 101 -31q81 0 128 56.5t47 152.5q0 78 -30 129z" />
    <glyph glyph-name="Otilde.aalt" horiz-adv-x="614" 
d="M450 22q-62 -36 -143 -36q-121 0 -194.5 78.5t-73.5 209.5t73.5 209.5t194.5 78.5q123 0 196 -78.5t73 -209.5q0 -86 -33 -151.5t-93 -100.5zM135 274q0 -95 46 -150.5t126 -55.5t126.5 55.5t46.5 150.5t-46.5 150.5t-126.5 55.5t-126 -55.5t-46 -150.5zM135 631
q3 55 30 85t71 30q35 0 82 -29q40 -22 58 -22q40 0 46 51h58q-3 -55 -30 -85t-71 -30q-35 0 -82 29q-40 22 -58 22q-41 0 -46 -51h-58z" />
    <glyph glyph-name="OE.aalt" horiz-adv-x="836" 
d="M785 79v-79h-444q-144 0 -223 71.5t-79 202.5t79 202.5t223 71.5h437v-79h-294v-150h276v-78h-276v-162h301zM189 418q-54 -51 -54 -144t54 -144t153 -51h51v390h-51q-99 0 -153 -51z" />
    <glyph glyph-name="P.aalt" horiz-adv-x="526" 
d="M177 0h-92v548h205q101 0 156 -46t55 -128t-55 -127.5t-156 -45.5h-113v-201zM177 470v-191h105q124 0 124 96q0 95 -124 95h-105z" />
    <glyph glyph-name="Thorn.aalt" horiz-adv-x="526" 
d="M290 106h-113v-106h-92v548h92v-95h113q101 0 156 -46t55 -128t-55 -127.5t-156 -45.5zM177 184h105q124 0 124 96q0 95 -124 95h-105v-191z" />
    <glyph glyph-name="Q.aalt" horiz-adv-x="614" 
d="M543 426q33 -64 33 -152q0 -129 -68 -206l61 -63l-54 -52l-66 68q-59 -35 -142 -35q-122 0 -195 78t-73 210q0 131 73.5 209.5t194.5 78.5q167 0 236 -136zM135 273q0 -96 46.5 -152t126.5 -56q47 0 81 19l-74 75l54 52l76 -77q37 53 37 139q0 96 -47 151.5t-127 55.5
t-126.5 -55.5t-46.5 -151.5z" />
    <glyph glyph-name="R.aalt" horiz-adv-x="546" 
d="M465 154l58 -154h-98l-50 139q-16 47 -39.5 64.5t-68.5 17.5h-90v-221h-92v548h196q207 0 207 -151q0 -51 -29.5 -88.5t-78.5 -48.5v-2q32 -11 48 -31q19 -24 37 -73zM177 472v-177h99q59 0 89 25t30 69q0 83 -122 83h-96z" />
    <glyph glyph-name="Racute.aalt" horiz-adv-x="546" 
d="M523 0h-98l-50 139q-16 47 -39.5 64.5t-68.5 17.5h-90v-221h-92v548h196q207 0 207 -151q0 -51 -29.5 -88.5t-78.5 -48.5v-2q32 -11 48 -31q19 -24 37 -73zM177 295h99q59 0 89 25t30 69q0 83 -122 83h-96v-177zM206 609l86 143h113l-123 -143h-76z" />
    <glyph glyph-name="Rcaron.aalt" horiz-adv-x="546" 
d="M523 0h-98l-50 139q-16 47 -39.5 64.5t-68.5 17.5h-90v-221h-92v548h196q207 0 207 -151q0 -51 -29.5 -88.5t-78.5 -48.5v-2q32 -11 48 -31q19 -24 37 -73zM177 295h99q59 0 89 25t30 69q0 83 -122 83h-96v-177zM200 752l74 -93l73 93h89l-114 -143h-97l-114 143h89z" />
    <glyph glyph-name="Rcommaaccent.aalt" horiz-adv-x="546" 
d="M523 0h-98l-50 139q-16 47 -39.5 64.5t-68.5 17.5h-90v-221h-92v548h196q207 0 207 -151q0 -51 -29.5 -88.5t-78.5 -48.5v-2q32 -11 48 -31q19 -24 37 -73zM177 295h99q59 0 89 25t30 69q0 83 -122 83h-96v-177zM243 -257l38 103h-34v89h89v-89l-55 -103h-38z" />
    <glyph glyph-name="S.aalt" horiz-adv-x="523" 
d="M448 242q26 -32 26 -86q0 -78 -58 -124t-157 -46q-106 0 -164.5 51t-58.5 144h92q0 -119 132 -119q59 0 90 23t31 65q0 36 -29.5 54.5t-105.5 34.5q-69 16 -109 33q-40 16 -65 47t-25 84q0 71 54 115q55 44 146 44q214 0 214 -182h-91q0 107 -125 107q-50 0 -78 -20.5
t-28 -56.5q3 -38 28.5 -53.5t105.5 -33.5q72 -16 111 -33.5t64 -47.5z" />
    <glyph glyph-name="Sacute.aalt" horiz-adv-x="523" 
d="M474 156q0 -78 -58 -124t-157 -46q-106 0 -164.5 51t-58.5 144h92q0 -119 132 -119q59 0 90 23t31 65q0 36 -29.5 54.5t-105.5 34.5q-69 16 -109 33q-40 16 -65 47t-25 84q0 71 54 115q55 44 146 44q214 0 214 -182h-91q0 107 -125 107q-50 0 -78 -20.5t-28 -56.5
q3 -38 28.5 -53.5t105.5 -33.5q72 -16 111 -33.5t64 -47.5q26 -32 26 -86zM266 752h113l-123 -143h-76z" />
    <glyph glyph-name="Scaron.aalt" horiz-adv-x="523" 
d="M448 242q26 -32 26 -86q0 -78 -58 -124t-157 -46q-106 0 -164.5 51t-58.5 144h92q0 -119 132 -119q59 0 90 23t31 65q0 36 -29.5 54.5t-105.5 34.5q-69 16 -109 33q-40 16 -65 47t-25 84q0 71 54 115q55 44 146 44q214 0 214 -182h-91q0 107 -125 107q-50 0 -78 -20.5
t-28 -56.5q3 -38 28.5 -53.5t105.5 -33.5q72 -16 111 -33.5t64 -47.5zM173 752l74 -93l73 93h89l-114 -143h-97l-114 143h89z" />
    <glyph glyph-name="Scedilla.c2sc" horiz-adv-x="523" 
d="M289 -167q14 11 14 31q0 19 -14 30q-15 12 -39 12q-18 0 -31 -6l-18 20l44 66q-100 4 -154.5 54.5t-54.5 140.5h92q0 -119 132 -119q59 0 90 23t31 65q0 36 -29.5 54.5t-105.5 34.5q-69 16 -109 33q-40 16 -65 47t-25 84q0 71 54 115q55 44 146 44q214 0 214 -182h-91
q0 107 -125 107q-50 0 -78 -20.5t-28 -56.5q3 -38 28.5 -53.5t105.5 -33.5q72 -16 111 -33.5t64 -47.5q26 -32 26 -86q0 -71 -49 -116t-133 -53l-32 -49q18 3 26 3q34 0 57 -21t23 -53q0 -38 -29 -62.5t-81 -24.5q-54 0 -105 27l18 37q36 -21 78 -21q28 0 42 10z" />
    <glyph glyph-name="Scircumflex.aalt" horiz-adv-x="523" 
d="M448 242q26 -32 26 -86q0 -78 -58 -124t-157 -46q-106 0 -164.5 51t-58.5 144h92q0 -119 132 -119q59 0 90 23t31 65q0 36 -29.5 54.5t-105.5 34.5q-69 16 -109 33q-40 16 -65 47t-25 84q0 71 54 115q55 44 146 44q214 0 214 -182h-91q0 107 -125 107q-50 0 -78 -20.5
t-28 -56.5q3 -38 28.5 -53.5t105.5 -33.5q72 -16 111 -33.5t64 -47.5zM84 609l114 143h97l114 -143h-89l-73 93l-74 -93h-89z" />
    <glyph glyph-name="Scommaaccent.aalt" horiz-adv-x="523" 
d="M448 242q26 -32 26 -86q0 -78 -58 -124t-157 -46q-106 0 -164.5 51t-58.5 144h92q0 -119 132 -119q59 0 90 23t31 65q0 36 -29.5 54.5t-105.5 34.5q-69 16 -109 33q-40 16 -65 47t-25 84q0 71 54 115q55 44 146 44q214 0 214 -182h-91q0 107 -125 107q-50 0 -78 -20.5
t-28 -56.5q3 -38 28.5 -53.5t105.5 -33.5q72 -16 111 -33.5t64 -47.5zM210 -257l38 103h-34v89h89v-89l-55 -103h-38z" />
    <glyph glyph-name="uni1E9E.aalt" horiz-adv-x="666" 
d="M615 151q0 -79 -52 -122t-142 -43q-87 0 -133.5 41t-46.5 119h88q0 -83 92 -83q46 0 72.5 23.5t26.5 65.5q0 53 -44 80t-135 34v66l111 112q-47 40 -117 40q-163 0 -163 -166v-318h-92v320q0 116 67 179t190 63q71 0 131.5 -28t101.5 -77l-127 -130q172 -37 172 -176z
" />
    <glyph glyph-name="T.aalt" horiz-adv-x="500" 
d="M10 548h480v-80h-194v-468h-92v468h-194v80z" />
    <glyph glyph-name="Tbar.aalt" horiz-adv-x="500" 
d="M204 468h-194v80h480v-80h-194v-157h109v-66h-109v-245h-92v245h-110v66h110v157z" />
    <glyph glyph-name="Tcaron.aalt" horiz-adv-x="500" 
d="M490 548v-80h-194v-468h-92v468h-194v80h480zM87 752h89l74 -93l73 93h89l-114 -143h-97z" />
    <glyph glyph-name="Tcommaaccent.c2sc" horiz-adv-x="500" 
d="M10 468v80h480v-80h-194v-468h-92v468h-194zM239 -154h-34v89h89v-89l-55 -103h-38z" />
    <glyph glyph-name="uni021A.aalt" horiz-adv-x="500" 
d="M10 468v80h480v-80h-194v-468h-92v468h-194zM239 -154h-34v89h89v-89l-55 -103h-38z" />
    <glyph glyph-name="U.aalt" horiz-adv-x="603" 
d="M80 548h91v-341q0 -68 34 -103.5t97 -35.5t96.5 35.5t33.5 103.5v341h91v-342q0 -107 -57 -163.5t-164 -56.5q-108 0 -165 56.5t-57 163.5v342z" />
    <glyph glyph-name="Uacute.aalt" horiz-adv-x="603" 
d="M523 206q0 -107 -57 -163.5t-164 -56.5q-108 0 -165 56.5t-57 163.5v342h91v-341q0 -68 34 -103.5t97 -35.5t96.5 35.5t33.5 103.5v341h91v-342zM321 752h113l-123 -143h-76z" />
    </font>
</defs>
</svg>
